<?xml version="1.0" encoding="utf-8"?>
<!-- Generator: Adobe Illustrator 16.0.0, SVG Export Plug-In . SVG Version: 6.00 Build 0)  -->
<!DOCTYPE svg PUBLIC "-//W3C//DTD SVG 1.1//EN" "http://www.w3.org/Graphics/SVG/1.1/DTD/svg11.dtd">
<svg version="1.1" xmlns="http://www.w3.org/2000/svg" xmlns:xlink="http://www.w3.org/1999/xlink" x="0px" y="0px"
	 width="705.793px" height="277px" viewBox="1 -2 705.793 277" enable-background="new 1 -2 705.793 277" xml:space="preserve">
<g id="レイヤー_1">
</g>
<g id="レイヤー_2">
	<line fill="none" stroke="#000000" stroke-width="2" stroke-miterlimit="10" x1="307.229" y1="47.72" x2="384.657" y2="47.72"/>
	
		<line fill="none" stroke="#000000" stroke-width="2" stroke-miterlimit="10" x1="321.652" y1="104.417" x2="394.989" y2="177.753"/>
	
		<line fill="none" stroke="#000000" stroke-width="2" stroke-miterlimit="10" x1="307.229" y1="225.129" x2="384.657" y2="225.129"/>
	<line fill="none" stroke="#000000" stroke-width="2" stroke-miterlimit="10" x1="478.487" y1="167.1" x2="478.487" y2="97.742"/>
	
		<line fill="none" stroke="#000000" stroke-width="2" stroke-miterlimit="10" x1="619.053" y1="106.635" x2="619.053" y2="174.882"/>
	<line fill="none" stroke="#000000" stroke-width="2" stroke-miterlimit="10" x1="87.681" y1="167.1" x2="87.681" y2="97.742"/>
	
		<line fill="none" stroke="#000000" stroke-width="2" stroke-miterlimit="10" x1="228.247" y1="106.635" x2="228.247" y2="174.882"/>
	<g>
		<rect x="1" y="175.258" fill="#00C9C9" width="313.928" height="99.742"/>
	</g>
	<g>
		<rect x="1" y="-2" fill="#00176B" width="313.928" height="99.742"/>
	</g>
	<g>
		<rect x="392.765" y="174.943" fill="#E84830" width="314.028" height="99.742"/>
	</g>
	<g>
		<rect x="392.765" y="-2" fill="#0228CC" width="314.028" height="99.742"/>
	</g>
	<g>
		<g>
			<path d="M324.291,255.327c0,1.848-0.18,4.582-1.308,6.333c-0.192-0.168-0.684-0.516-0.947-0.624
				c1.043-1.655,1.139-4.029,1.139-5.709v-3.082h4.246v-1.583h1.151v1.583h4.461v1.067h-8.743V255.327z M332.11,261.708
				c-0.108-0.312-0.264-0.684-0.456-1.067c-2.65,0.18-5.433,0.348-7.328,0.456l-0.108-1.151c0.42-0.013,0.9-0.036,1.427-0.048
				c0.636-1.644,1.367-4.066,1.739-5.913l1.259,0.275c-0.492,1.835-1.188,4.006-1.811,5.589c1.319-0.06,2.818-0.119,4.306-0.191
				c-0.468-0.815-1.02-1.667-1.559-2.387l1.02-0.456c1.043,1.344,2.183,3.143,2.638,4.366L332.11,261.708z"/>
			<path d="M344.902,254.979v1.044h-10.47v-1.044h4.917v-1.655h-2.782c-0.348,0.576-0.708,1.08-1.067,1.487
				c-0.24-0.155-0.744-0.455-1.02-0.6c0.863-0.815,1.619-2.158,2.051-3.466l1.115,0.264c-0.156,0.432-0.335,0.876-0.527,1.296h2.23
				v-1.632h1.175v1.632h3.55v1.019h-3.55v1.655H344.902z M335.859,257.066h7.748v4.653h-1.164v-0.611h-5.457v0.636h-1.127V257.066z
				 M336.986,258.098v1.979h5.457v-1.979H336.986z"/>
			<path d="M355.907,253.24c-0.119,0.192-0.252,0.492-0.336,0.732c-0.324,1.151-1.031,2.758-2.111,4.077
				c-1.103,1.355-2.554,2.459-4.796,3.322l-1.116-0.995c2.315-0.695,3.742-1.764,4.81-2.998c0.887-1.02,1.606-2.531,1.823-3.538
				h-3.742c-0.768,1.031-1.787,2.087-3.046,2.926l-1.056-0.779c2.087-1.247,3.203-2.914,3.766-3.97
				c0.144-0.24,0.348-0.731,0.444-1.08l1.391,0.456c-0.24,0.36-0.492,0.828-0.624,1.067c-0.048,0.096-0.108,0.204-0.168,0.3h2.878
				c0.336,0,0.672-0.036,0.899-0.12L355.907,253.24z"/>
			<path d="M359.474,251.634c-0.024,0.252-0.048,0.552-0.048,0.888v4.018c0,0.312,0.023,0.731,0.048,0.972h-1.403
				c0.012-0.204,0.061-0.624,0.061-0.972v-4.018c0-0.216-0.024-0.636-0.049-0.888H359.474z M365.015,251.538
				c-0.024,0.312-0.048,0.671-0.048,1.103v2.135c0,2.747-0.432,3.767-1.319,4.773c-0.779,0.912-1.991,1.451-2.866,1.752
				l-0.996-1.044c1.14-0.288,2.172-0.743,2.902-1.571c0.84-0.947,0.996-1.883,0.996-3.981v-2.063c0-0.432-0.036-0.791-0.072-1.103
				H365.015z"/>
			<path d="M369.159,257.066l-1.14,0.42c-0.204-0.636-0.827-2.267-1.092-2.734l1.128-0.408
				C368.331,254.896,368.93,256.419,369.159,257.066z M375.227,254.488c-0.107,0.3-0.18,0.516-0.229,0.72
				c-0.323,1.271-0.839,2.542-1.679,3.609c-1.104,1.415-2.591,2.375-3.946,2.902l-0.995-1.02c1.355-0.384,2.938-1.295,3.935-2.53
				c0.827-1.031,1.427-2.591,1.595-4.102L375.227,254.488z M371.809,256.323l-1.128,0.407c-0.144-0.563-0.684-2.063-0.96-2.639
				l1.128-0.371C371.065,254.225,371.653,255.795,371.809,256.323z"/>
			<path d="M385.955,253.24c-0.12,0.192-0.252,0.492-0.335,0.732c-0.324,1.151-1.032,2.758-2.111,4.077
				c-1.104,1.355-2.555,2.459-4.797,3.322l-1.116-0.995c2.315-0.695,3.742-1.764,4.81-2.998c0.887-1.02,1.607-2.531,1.822-3.538
				h-3.741c-0.768,1.031-1.787,2.087-3.046,2.926l-1.057-0.779c2.088-1.247,3.203-2.914,3.767-3.97
				c0.144-0.24,0.348-0.731,0.444-1.08l1.391,0.456c-0.24,0.36-0.492,0.828-0.623,1.067c-0.049,0.096-0.108,0.204-0.168,0.3h2.878
				c0.336,0,0.671-0.036,0.899-0.12L385.955,253.24z"/>
		</g>
	</g>
	<g>
		<g>
			<path d="M324.376,59.85c0,1.848-0.18,4.582-1.308,6.333c-0.192-0.168-0.684-0.516-0.947-0.624
				c1.043-1.655,1.139-4.029,1.139-5.709v-3.082h4.246v-1.583h1.151v1.583h4.461v1.067h-8.743V59.85z M332.195,66.231
				c-0.108-0.312-0.264-0.684-0.456-1.067c-2.65,0.18-5.433,0.348-7.328,0.456l-0.108-1.151c0.42-0.013,0.9-0.036,1.427-0.048
				c0.636-1.644,1.367-4.066,1.739-5.913l1.259,0.275c-0.492,1.835-1.188,4.006-1.811,5.589c1.319-0.06,2.818-0.119,4.306-0.191
				c-0.468-0.815-1.02-1.667-1.559-2.387l1.02-0.456c1.043,1.344,2.183,3.143,2.638,4.366L332.195,66.231z"/>
			<path d="M344.987,59.502v1.044h-10.47v-1.044h4.917v-1.655h-2.782c-0.348,0.576-0.708,1.08-1.067,1.487
				c-0.24-0.155-0.744-0.455-1.02-0.6c0.863-0.815,1.619-2.158,2.051-3.466l1.115,0.264c-0.156,0.432-0.335,0.876-0.527,1.296h2.23
				v-1.632h1.175v1.632h3.55v1.019h-3.55v1.655H344.987z M335.944,61.589h7.748v4.653h-1.164v-0.611h-5.457v0.636h-1.127V61.589z
				 M337.071,62.621V64.6h5.457v-1.979H337.071z"/>
			<path d="M357.239,60.126c-0.719,0.588-1.583,1.283-2.326,1.775c0.6,1.427,1.427,2.566,2.566,3.226
				c-0.252,0.216-0.611,0.647-0.779,0.947c-2.051-1.295-3.082-3.861-3.658-7.027c-0.384,0.539-0.816,1.043-1.271,1.511v3.874
				c0.815-0.168,1.68-0.36,2.519-0.552l0.108,0.995c-1.667,0.42-3.455,0.828-4.75,1.14l-0.335-1.079
				c0.408-0.072,0.887-0.168,1.403-0.276v-3.13c-0.419,0.336-0.851,0.647-1.283,0.911c-0.144-0.204-0.456-0.636-0.695-0.875v4.593
				h-1.067v-6.548c-0.36,0.479-0.732,0.911-1.104,1.295c-0.12-0.252-0.42-0.852-0.612-1.14c1.151-1.091,2.255-2.806,2.915-4.557
				l1.043,0.335c-0.324,0.816-0.72,1.644-1.175,2.423v3.502c1.343-0.719,2.626-1.858,3.49-3.142h-3.022v-1.056h3.418v-1.943h1.128
				v1.943h3.273v1.056h-3.07c0.156,0.936,0.36,1.835,0.624,2.674c0.66-0.516,1.367-1.151,1.835-1.667L357.239,60.126z"/>
			<path d="M362.679,64.18c-0.265-0.384-0.828-1.044-1.308-1.595v3.609h-0.995v-3.358c-0.528,0.96-1.164,1.896-1.8,2.471
				c-0.107-0.3-0.348-0.743-0.503-1.007c0.731-0.612,1.535-1.715,2.038-2.723h-1.522v-3.166h1.787v-0.924h-2.003v-0.983h2.003
				v-1.295h0.995v1.295h1.943v0.983h-1.943v0.924h1.871v3.166h-1.763c0.503,0.443,1.595,1.476,1.87,1.751L362.679,64.18z
				 M359.417,60.714h1.031v-1.439h-1.031V60.714z M362.343,59.275h-1.031v1.439h1.031V59.275z M365.833,64.612
				c-0.624,0.611-1.667,1.26-2.555,1.595c-0.181-0.191-0.504-0.527-0.744-0.719c0.888-0.324,1.896-0.936,2.387-1.451L365.833,64.612
				z M365.473,57.692c0.072-0.324,0.145-0.696,0.192-1.031h-2.243v-0.96h5.757v0.96h-2.339c-0.107,0.359-0.216,0.707-0.312,1.031
				h2.219v6.225h-4.846v-6.225H365.473z M367.692,58.543h-2.782v0.972h2.782V58.543z M367.692,60.306h-2.782v0.972h2.782V60.306z
				 M367.692,62.082h-2.782v0.983h2.782V62.082z M367.464,64.121c0.659,0.419,1.535,1.079,1.979,1.522l-0.875,0.588
				c-0.408-0.443-1.26-1.14-1.943-1.595L367.464,64.121z"/>
			<path d="M331.776,76.054c-0.636,1.644-1.667,2.891-2.975,3.838c1.235,0.624,2.735,1.044,4.462,1.247
				c-0.252,0.265-0.552,0.768-0.708,1.08c-1.919-0.288-3.526-0.828-4.857-1.631c-1.439,0.779-3.106,1.283-4.87,1.595
				c-0.096-0.288-0.396-0.804-0.624-1.067c1.643-0.24,3.166-0.636,4.474-1.247c-0.936-0.768-1.691-1.703-2.267-2.843l0.828-0.288
				h-2.003v-1.104h3.886v-1.643h-4.438v-1.104h4.438v-1.703h1.151v1.703h4.473v1.104h-4.473v1.643h2.53l0.192-0.048L331.776,76.054z
				 M325.479,76.738c0.527,1.02,1.295,1.859,2.278,2.543c1.008-0.66,1.835-1.487,2.411-2.543H325.479z"/>
			<path d="M337.215,77.746v3.143c0,0.635-0.132,0.936-0.503,1.115c-0.384,0.155-0.972,0.191-1.883,0.191
				c-0.048-0.288-0.18-0.756-0.324-1.056c0.6,0.024,1.199,0.024,1.379,0.013c0.18-0.013,0.24-0.061,0.24-0.264v-2.879l-1.727,0.42
				l-0.252-1.092c0.552-0.107,1.235-0.252,1.979-0.407V74.58h-1.799v-1.032h1.799v-2.374h1.091v2.374h1.643v1.032h-1.643v2.11
				c0.564-0.132,1.14-0.264,1.715-0.396l0.084,1.007L337.215,77.746z M344.279,82.183c-0.072-0.312-0.18-0.672-0.3-1.056
				c-2.183,0.312-4.473,0.612-6.081,0.828l-0.24-1.164c0.36-0.036,0.779-0.084,1.223-0.132c0.744-2.494,1.559-6.272,1.955-9.163
				l1.211,0.216c-0.48,2.867-1.283,6.345-2.003,8.827c1.104-0.132,2.339-0.275,3.562-0.419c-0.42-1.044-0.948-2.171-1.475-3.131
				l0.971-0.348c0.948,1.631,1.919,3.742,2.255,5.121L344.279,82.183z"/>
			<path d="M348.315,74.099c-0.012,0.744,0,1.751,0.084,2.675c0.18,1.871,0.66,3.118,1.451,3.118c0.6,0,1.116-1.295,1.379-2.387
				l0.959,1.115c-0.755,2.039-1.487,2.747-2.363,2.747c-1.199,0-2.303-1.151-2.626-4.282c-0.12-1.043-0.132-2.458-0.132-3.178
				c0-0.3-0.012-0.792-0.084-1.115l1.451,0.023C348.375,73.164,348.315,73.776,348.315,74.099z M356.639,79.041l-1.235,0.48
				c-0.191-2.039-0.875-4.594-2.075-6.009l1.187-0.396C355.608,74.496,356.484,77.11,356.639,79.041z"/>
		</g>
	</g>
	<g>
		<g>
			<path fill="#FFFFFF" d="M137.486,48.123c0,2.465-0.24,6.114-1.745,8.451c-0.256-0.224-0.913-0.688-1.265-0.832
				c1.393-2.209,1.521-5.378,1.521-7.619V44.01h5.667v-2.113h1.537v2.113h5.954v1.425h-11.668V48.123z M147.922,56.639
				c-0.144-0.416-0.352-0.912-0.608-1.425c-3.538,0.24-7.251,0.465-9.78,0.608l-0.144-1.536c0.561-0.017,1.201-0.049,1.905-0.064
				c0.849-2.192,1.825-5.426,2.321-7.892l1.681,0.368c-0.656,2.449-1.584,5.347-2.417,7.459c1.76-0.079,3.761-0.159,5.746-0.256
				c-0.624-1.088-1.36-2.225-2.081-3.185l1.361-0.608c1.393,1.792,2.913,4.193,3.521,5.826L147.922,56.639z"/>
			<path fill="#FFFFFF" d="M164.979,47.659v1.393h-13.974v-1.393h6.563V45.45h-3.713c-0.464,0.769-0.944,1.44-1.425,1.984
				c-0.32-0.208-0.992-0.607-1.36-0.8c1.152-1.089,2.161-2.881,2.737-4.626l1.488,0.353c-0.208,0.576-0.448,1.168-0.704,1.729h2.977
				v-2.177h1.569v2.177h4.738v1.36h-4.738v2.209H164.979z M152.91,50.444h10.34v6.21h-1.552v-0.816h-7.283v0.849h-1.504V50.444z
				 M154.414,51.82v2.642h7.283V51.82H154.414z"/>
			<path fill="#FFFFFF" d="M181.09,54.605v1.457h-14.182v-1.457h6.243v-3.537h-4.754v-1.44h4.754v-3.186h-5.522v-1.456h6.723
				c-0.656-0.705-1.696-1.601-2.577-2.226l1.216-0.848c1.024,0.688,2.337,1.761,2.993,2.513l-0.784,0.561h5.09v1.456h-5.506v3.186
				h4.802v1.44h-4.802v3.537H181.09z"/>
		</g>
	</g>
	<g>
		<g>
			<path fill="#FFFFFF" d="M440.601,260.404c-0.071,0.154-0.155,0.443-0.228,0.658c1.439,0.432,2.338,1.512,2.338,2.855
				c0,1.691-1.079,3.238-3.897,3.682l-0.636-0.996c2.207-0.24,3.358-1.367,3.358-2.746c0-0.816-0.516-1.547-1.499-1.859
				c-0.66,1.656-1.607,2.928-2.566,3.742c0.084,0.324,0.18,0.637,0.275,0.924l-1.092,0.324c-0.06-0.18-0.119-0.373-0.168-0.576
				c-0.611,0.336-1.295,0.576-1.931,0.576c-0.827,0-1.499-0.504-1.499-1.607c0-1.523,1.307-3.119,2.95-3.875
				c0.024-0.551,0.072-1.102,0.12-1.617c-0.203,0-0.396,0-0.576,0c-0.563,0-1.486-0.049-1.99-0.084l-0.036-1.104
				c0.407,0.059,1.451,0.154,2.063,0.154c0.215,0,0.432,0,0.646,0l0.084-0.803c0.013-0.203,0.037-0.455,0.024-0.623l1.247,0.035
				c-0.06,0.18-0.107,0.396-0.144,0.564c-0.048,0.227-0.097,0.504-0.144,0.791c1.486-0.061,2.842-0.217,4.102-0.504l0.012,1.104
				c-1.199,0.203-2.782,0.359-4.246,0.432c-0.035,0.408-0.071,0.84-0.107,1.283c0.636-0.168,1.307-0.264,1.895-0.264
				c0.12,0,0.229,0,0.336,0.012c0.061-0.215,0.12-0.563,0.133-0.768L440.601,260.404z M436.235,265.309
				c-0.155-0.84-0.264-1.764-0.264-2.674c-1.043,0.646-1.787,1.703-1.787,2.529c0,0.445,0.192,0.66,0.612,0.66
				C435.204,265.824,435.708,265.645,436.235,265.309z M437.027,262.441c0,0.744,0.072,1.439,0.181,2.076
				c0.684-0.672,1.307-1.523,1.774-2.676h-0.071c-0.721,0-1.355,0.145-1.884,0.313V262.441z"/>
			<path fill="#FFFFFF" d="M450.502,259.889c-0.588,0.154-1.319,0.311-2.111,0.418c-0.575,1.668-1.607,3.742-2.578,5.051
				l-1.151-0.588c0.972-1.164,1.967-2.986,2.482-4.33c-0.288,0.012-0.563,0.023-0.852,0.023c-0.456,0-0.947-0.012-1.427-0.047
				l-0.084-1.104c0.467,0.047,1.031,0.072,1.511,0.072c0.396,0,0.804-0.014,1.224-0.049c0.18-0.66,0.324-1.391,0.348-2.016
				l1.307,0.121c-0.096,0.408-0.252,1.066-0.432,1.738c0.6-0.096,1.188-0.24,1.728-0.408L450.502,259.889z M451.965,261.123
				c-0.035,0.504-0.023,0.912-0.012,1.391c0.012,0.385,0.048,1.068,0.084,1.74c1.02,0.371,1.859,0.971,2.459,1.498l-0.637,1.02
				c-0.467-0.42-1.066-0.936-1.774-1.318v0.324c0,1.006-0.612,1.822-2.171,1.822c-1.379,0-2.494-0.588-2.494-1.822
				c0-1.117,1.007-1.908,2.482-1.908c0.348,0,0.672,0.023,0.995,0.084c-0.048-0.936-0.108-2.051-0.132-2.83H451.965z
				 M450.934,264.984c-0.336-0.096-0.707-0.143-1.092-0.143c-0.791,0-1.307,0.348-1.307,0.826c0,0.504,0.408,0.852,1.223,0.852
				c0.889,0,1.188-0.504,1.188-1.115C450.946,265.285,450.946,265.152,450.934,264.984z M454.184,261.578
				c-0.66-0.539-1.967-1.295-2.77-1.654l0.6-0.924c0.852,0.371,2.254,1.164,2.842,1.596L454.184,261.578z"/>
			<path fill="#FFFFFF" d="M462.334,260.02c-0.744,0.168-1.571,0.301-2.387,0.396c-0.108,0.516-0.24,1.043-0.372,1.547
				c-0.432,1.68-1.224,4.125-1.871,5.469l-1.319-0.443c0.72-1.211,1.571-3.658,2.016-5.326c0.107-0.359,0.203-0.756,0.287-1.139
				c-0.336,0.012-0.647,0.023-0.947,0.023c-0.552,0-0.983-0.023-1.416-0.047l-0.023-1.176c0.576,0.072,0.996,0.096,1.451,0.096
				c0.372,0,0.768-0.012,1.188-0.049c0.061-0.348,0.12-0.658,0.145-0.875c0.047-0.383,0.06-0.814,0.035-1.078l1.451,0.107
				c-0.084,0.299-0.18,0.779-0.228,1.02l-0.144,0.695c0.719-0.096,1.451-0.24,2.135-0.408V260.02z M461.962,264.061
				c-0.097,0.373-0.168,0.744-0.168,1.033c0,0.539,0.288,1.018,1.799,1.018c0.78,0,1.595-0.096,2.375-0.238l-0.036,1.211
				c-0.66,0.096-1.451,0.168-2.351,0.168c-1.931,0-2.927-0.637-2.927-1.811c0-0.492,0.084-0.996,0.18-1.488L461.962,264.061z
				 M461.495,261.135c0.636-0.072,1.451-0.119,2.219-0.119c0.684,0,1.403,0.035,2.074,0.107l-0.035,1.139
				c-0.6-0.07-1.308-0.143-2.016-0.143c-0.779,0-1.511,0.035-2.242,0.119V261.135z"/>
		</g>
	</g>
	<g>
		<g>
			<path fill="#FFFFFF" d="M40.874,265.117c0.384,0,0.743-0.037,1.043-0.084v1.379c-0.324-0.035-0.792-0.061-1.043-0.061h-8.048
				c-0.348,0-0.731,0.025-1.115,0.061v-1.379c0.36,0.061,0.755,0.084,1.115,0.084h5.205c0.228-1.309,0.684-4.211,0.72-5.025h-4.474
				c-0.456,0-0.839,0.023-1.235,0.047v-1.33c0.372,0.035,0.828,0.084,1.224,0.084h4.149c0.264,0,0.731-0.061,0.899-0.133
				l1.008,0.492c-0.06,0.133-0.096,0.359-0.108,0.455c-0.144,1.104-0.612,4.09-0.828,5.41H40.874z"/>
			<path fill="#FFFFFF" d="M43.771,261.639c0.384,0.035,1.127,0.072,1.775,0.072h6.513c0.587,0,1.055-0.049,1.343-0.072v1.475
				c-0.264-0.012-0.804-0.047-1.332-0.047h-6.524c-0.671,0-1.379,0.023-1.775,0.047V261.639z"/>
			<path fill="#FFFFFF" d="M64.142,260.199c0.587,0,0.971-0.035,1.199-0.072v1.271c-0.18-0.023-0.612-0.035-1.188-0.035h-1.127
				v0.408c0,3.094-0.708,4.809-3.514,6.057l-1.019-0.961c2.243-0.814,3.298-1.846,3.298-5.025v-0.479h-3.154v1.799
				c0,0.48,0.036,0.996,0.048,1.164h-1.332c0.024-0.168,0.06-0.672,0.06-1.164v-1.799h-1.175c-0.552,0-1.043,0.023-1.248,0.035
				v-1.295c0.156,0.023,0.696,0.096,1.248,0.096h1.175v-1.379c0-0.42-0.048-0.803-0.06-0.971h1.343
				c-0.024,0.168-0.06,0.527-0.06,0.971v1.379h3.154v-1.391c0-0.48-0.036-0.875-0.06-1.043h1.355c-0.012,0.18-0.06,0.563-0.06,1.043
				v1.391H64.142z M64.094,259.648c-0.18-0.516-0.419-1.199-0.66-1.668l0.684-0.215c0.216,0.443,0.516,1.174,0.672,1.643
				L64.094,259.648z M65.329,259.264c-0.192-0.527-0.444-1.199-0.684-1.654l0.684-0.217c0.228,0.443,0.528,1.164,0.684,1.645
				L65.329,259.264z"/>
			<path fill="#FFFFFF" d="M67.11,261.639c0.384,0.035,1.127,0.072,1.775,0.072h6.513c0.587,0,1.055-0.049,1.343-0.072v1.475
				c-0.264-0.012-0.804-0.047-1.332-0.047h-6.524c-0.671,0-1.379,0.023-1.775,0.047V261.639z"/>
		</g>
	</g>
	<g>
		<g>
			<path fill="#FFFFFF" d="M442.18,87.148h-3.574l-0.876,2.507h-1.476l3.274-8.852h1.751l3.322,8.852h-1.535L442.18,87.148z
				 M441.868,86.069l-0.443-1.235c-0.324-0.972-0.672-1.955-1.008-2.95h-0.048c-0.323,1.007-0.672,1.99-0.995,2.95l-0.456,1.235
				H441.868z"/>
			<path fill="#FFFFFF" d="M449.645,89.798c-1.451,0-2.723-0.491-3.635-1.319l0.816-0.983c0.73,0.648,1.822,1.092,2.83,1.092
				c1.127,0,2.015-0.432,2.015-1.224c0-0.804-0.804-1.115-1.751-1.451l-1.367-0.479c-0.947-0.336-2.087-1.02-2.087-2.314
				c0-1.451,1.355-2.471,3.227-2.471c1.247,0,2.351,0.443,3.13,1.151l-0.756,0.911c-0.646-0.516-1.427-0.852-2.387-0.852
				c-0.982,0-1.799,0.408-1.799,1.14c0,0.756,0.936,1.067,1.764,1.355l1.343,0.479c1.163,0.396,2.11,1.104,2.11,2.423
				C453.098,88.719,451.768,89.798,449.645,89.798z"/>
			<path fill="#FFFFFF" d="M455.863,80.803h2.974c2.279,0,3.778,0.684,3.778,2.675c0,1.931-1.522,2.831-3.718,2.831h-1.643v3.346
				h-1.392V80.803z M458.752,85.181c1.656,0,2.483-0.527,2.483-1.703c0-1.188-0.899-1.559-2.543-1.559h-1.438v3.262H458.752z"/>
		</g>
	</g>
	<g>
		<g>
			<path fill="#FFFFFF" d="M26.63,84.257c0,1.848-0.18,4.582-1.308,6.333c-0.192-0.168-0.684-0.516-0.947-0.624
				c1.043-1.655,1.139-4.029,1.139-5.709v-3.082h4.246v-1.583h1.151v1.583h4.461v1.067H26.63V84.257z M34.449,90.638
				c-0.108-0.312-0.264-0.684-0.456-1.067c-2.65,0.18-5.433,0.348-7.328,0.456l-0.108-1.151c0.42-0.013,0.9-0.036,1.427-0.048
				c0.636-1.644,1.367-4.066,1.739-5.913l1.259,0.275c-0.492,1.835-1.188,4.006-1.811,5.589c1.319-0.06,2.818-0.119,4.306-0.191
				c-0.468-0.815-1.02-1.667-1.559-2.387l1.02-0.456c1.043,1.344,2.183,3.143,2.638,4.366L34.449,90.638z"/>
			<path fill="#FFFFFF" d="M47.241,83.91v1.044h-10.47V83.91h4.917v-1.655h-2.782c-0.348,0.576-0.708,1.08-1.067,1.487
				c-0.24-0.155-0.744-0.455-1.02-0.6c0.863-0.815,1.619-2.158,2.051-3.466l1.115,0.264c-0.156,0.432-0.335,0.876-0.527,1.296h2.23
				v-1.632h1.175v1.632h3.55v1.019h-3.55v1.655H47.241z M38.198,85.997h7.748v4.653h-1.164v-0.611h-5.457v0.636h-1.127V85.997z
				 M39.325,87.028v1.979h5.457v-1.979H39.325z"/>
			<path fill="#FFFFFF" d="M59.493,84.534c-0.719,0.588-1.583,1.283-2.327,1.775c0.6,1.427,1.427,2.566,2.567,3.226
				c-0.252,0.216-0.612,0.647-0.78,0.947c-2.051-1.295-3.082-3.861-3.658-7.027c-0.384,0.539-0.816,1.043-1.271,1.511v3.874
				c0.815-0.168,1.679-0.36,2.519-0.552l0.108,0.995c-1.667,0.42-3.454,0.828-4.75,1.14l-0.335-1.079
				c0.408-0.072,0.887-0.168,1.403-0.276v-3.13c-0.419,0.336-0.851,0.647-1.283,0.911c-0.144-0.204-0.456-0.636-0.695-0.875v4.593
				h-1.067v-6.548c-0.36,0.479-0.732,0.911-1.104,1.295c-0.12-0.252-0.42-0.852-0.612-1.14c1.151-1.091,2.255-2.806,2.915-4.557
				l1.043,0.335c-0.324,0.816-0.72,1.644-1.175,2.423v3.502c1.343-0.719,2.626-1.858,3.49-3.142h-3.022v-1.056h3.418v-1.943h1.127
				v1.943h3.274v1.056h-3.07c0.156,0.936,0.36,1.835,0.624,2.674c0.66-0.516,1.367-1.151,1.835-1.667L59.493,84.534z"/>
			<path fill="#FFFFFF" d="M64.933,88.587c-0.264-0.384-0.828-1.044-1.308-1.595v3.609H62.63v-3.358
				c-0.528,0.96-1.164,1.896-1.799,2.471c-0.108-0.3-0.348-0.743-0.503-1.007c0.731-0.612,1.535-1.715,2.039-2.723h-1.523v-3.166
				h1.787v-0.924h-2.003v-0.983h2.003v-1.295h0.995v1.295h1.943v0.983h-1.943v0.924h1.871v3.166h-1.763
				c0.503,0.443,1.595,1.476,1.871,1.751L64.933,88.587z M61.67,85.122h1.031v-1.439H61.67V85.122z M64.597,83.682h-1.031v1.439
				h1.031V83.682z M68.087,89.019c-0.624,0.611-1.667,1.26-2.555,1.595c-0.18-0.191-0.504-0.527-0.744-0.719
				c0.888-0.324,1.895-0.936,2.387-1.451L68.087,89.019z M67.727,82.099c0.072-0.324,0.144-0.696,0.192-1.031h-2.243v-0.96h5.757
				v0.96h-2.339c-0.108,0.359-0.216,0.707-0.312,1.031h2.219v6.225h-4.845v-6.225H67.727z M69.946,82.951h-2.783v0.972h2.783V82.951
				z M69.946,84.713h-2.783v0.972h2.783V84.713z M69.946,86.489h-2.783v0.983h2.783V86.489z M69.718,88.528
				c0.66,0.419,1.535,1.079,1.979,1.522l-0.875,0.588c-0.408-0.443-1.259-1.14-1.943-1.595L69.718,88.528z"/>
			<path fill="#FFFFFF" d="M78.899,84.306c-0.54,0.407-1.104,0.768-1.679,1.127h4.654v5.121h-1.151v-0.323h-4.522v0.371h-1.103
				v-4.029c-0.672,0.312-1.355,0.6-2.039,0.863c-0.132-0.252-0.479-0.695-0.684-0.924c1.655-0.552,3.25-1.295,4.689-2.206h-4.39
				V83.31h3.97v-1.343h-2.926v-0.972h2.926v-1.403h1.104v1.403h2.794v0.527c0.48-0.491,0.923-1.007,1.307-1.547l0.959,0.504
				c-0.755,1.031-1.655,1.967-2.65,2.83h3.142v0.996H78.899z M80.723,86.357h-4.522v0.995h4.522V86.357z M80.723,89.283v-1.055
				h-4.522v1.055H80.723z M78.528,83.31c0.563-0.42,1.079-0.875,1.571-1.343h-2.351v1.343H78.528z"/>
		</g>
	</g>
	<g>
		<path fill="#FFCC5C" stroke="#FFFFFF" stroke-miterlimit="10" d="M477.049,47.871c0,15.59-12.757,28.348-28.348,28.348
			c-15.59,0-28.346-12.758-28.346-28.348s12.756-28.348,28.346-28.348C464.292,19.523,477.049,32.281,477.049,47.871z"/>
		<path fill="#E0AE4B" d="M475.708,56.459l-21.989-22.025L442.415,59.91l-5.455,4.666l11.639,11.639
			c0.035,0,0.068,0.004,0.104,0.004C461.301,76.219,472.045,67.885,475.708,56.459z"/>
		<polygon fill="#7CC6D8" points="453.981,60.568 453.981,38.23 446.653,35.129 442.167,36.326 442.167,60.568 437.633,60.568 
			437.633,63.74 459.76,63.74 459.76,60.568 		"/>
		<path fill="#FFF4E1" d="M454.877,59.508V37.6l-1.195-0.514v-2.635l-7.385-3.41l-3.816,1.801v2.707l-1.195,0.518v23.145
			l-4.387,0.379v5.006l9.398-0.061l14.266,0.166v-4.709L454.877,59.508z M448.995,51.703v-3.688l3.591,0.885v3.492L448.995,51.703z
			 M452.585,54.137v3.51l-3.591-0.398v-3.77L452.585,54.137z M448.995,46.119v-3.67l3.591,1.121v3.563L448.995,46.119z
			 M448.995,40.574v-3.65l3.591,1.445v3.469L448.995,40.574z M442.481,37.365l2.521-1.021v3.768l-2.521,0.891V37.365z
			 M442.481,42.818l2.521-0.822v3.771l-2.521,0.686V42.818z M442.481,48.27l2.521-0.619v3.77l-2.521,0.486V48.27z M442.481,53.723
			l2.521-0.42v3.77l-2.521,0.285V53.723z M440.131,62.887l-2.191,0.074v-1.697l2.191-0.133V62.887z M445.002,62.727l-2.521,0.084
			v-1.816l2.521-0.152V62.727z M450.26,62.846l-2.543-0.072v-1.932l2.543,0.148V62.846z M454.75,62.975l-2.213-0.064v-1.785
			l2.213,0.129V62.975z M458.754,63.092l-1.941-0.057v-1.658l1.941,0.115V63.092z"/>
		<path fill="#D8CCC3" d="M460.563,64.701v-4.709l-5.686-0.484V37.6l-1.195-0.514v-2.635l-7.385-3.41v33.494L460.563,64.701z
			 M456.813,61.377l1.941,0.115v1.6l-1.941-0.057V61.377z M454.75,61.254v1.721l-2.213-0.064v-1.785L454.75,61.254z M448.995,36.924
			l3.591,1.445v3.469l-3.591-1.264V36.924z M448.995,42.449l3.591,1.121v3.563l-3.591-1.014V42.449z M448.995,48.016l3.591,0.885
			v3.492l-3.591-0.689V48.016z M448.995,53.479l3.591,0.658v3.51l-3.591-0.398V53.479z M447.717,60.842l2.543,0.148v1.855
			l-2.543-0.072V60.842z"/>
	</g>
	<g>
		<g>
			<path fill="#FFFFFF" d="M126.065,220.635c0.769,0,1.281-0.032,1.601-0.096v1.696c-0.256-0.031-0.832-0.048-1.584-0.048h-1.521
				v0.544c0,4.13-0.928,6.419-4.674,8.1l-1.361-1.28c2.993-1.104,4.402-2.481,4.402-6.723v-0.641h-4.226v2.401
				c0,0.656,0.048,1.328,0.064,1.553h-1.761c0.016-0.225,0.08-0.896,0.08-1.553v-2.401h-1.569c-0.752,0-1.408,0.032-1.665,0.048
				v-1.712c0.208,0.031,0.929,0.111,1.665,0.111h1.569v-1.841c0-0.56-0.064-1.072-0.08-1.28h1.793
				c-0.032,0.208-0.096,0.688-0.096,1.28v1.841h4.226v-1.856c0-0.641-0.048-1.169-0.08-1.393h1.809
				c-0.032,0.24-0.096,0.752-0.096,1.393v1.856H126.065z"/>
			<path fill="#FFFFFF" d="M137.392,228.67c0,0.656,0.032,1.537,0.112,1.889h-1.985c0.048-0.352,0.096-1.232,0.096-1.889v-5.698
				c-1.681,0.896-3.81,1.793-5.794,2.354l-0.912-1.553c2.737-0.624,5.442-1.809,7.219-2.913c1.617-1.009,3.281-2.434,4.178-3.586
				l1.36,1.232c-1.152,1.152-2.657,2.401-4.273,3.441V228.67z"/>
			<path fill="#FFFFFF" d="M153.01,226.045c-1.696-0.912-4.29-1.921-6.05-2.497v4.946c0,0.496,0.048,1.473,0.128,2.049h-1.969
				c0.08-0.561,0.128-1.425,0.128-2.049v-9.252c0-0.512-0.048-1.248-0.144-1.792h1.969c-0.048,0.527-0.112,1.232-0.112,1.792v2.497
				c2.113,0.641,5.17,1.777,6.771,2.562L153.01,226.045z"/>
			<path fill="#FFFFFF" d="M161.295,220.363h-5.938v-1.185h5.938V220.363z M165.361,220.747c-0.032,0.736-0.064,1.473-0.128,2.209
				h4.258c0,0,0,0.448-0.016,0.641c-0.192,4.642-0.384,6.386-0.88,6.962c-0.32,0.417-0.672,0.545-1.168,0.593
				c-0.448,0.063-1.232,0.048-2.033,0.016c-0.032-0.416-0.208-1.008-0.448-1.424c0.769,0.063,1.473,0.079,1.793,0.079
				c0.288,0,0.416-0.031,0.576-0.208c0.32-0.352,0.496-1.744,0.64-5.282h-2.865c-0.368,2.722-1.185,5.234-3.201,6.915
				c-0.208-0.336-0.624-0.769-0.992-1.024v0.128h-3.538v0.673h-1.281v-5.378h4.818v4.401c2.561-2.145,2.833-5.843,2.945-9.3h-2.337
				v-1.408h3.474v-2.785h1.537v2.785h3.617v1.408H165.361z M160.911,222.508h-4.802v-1.152h4.802V222.508z M156.109,223.484h4.802
				v1.168h-4.802V223.484z M160.863,218.234h-4.69v-1.169h4.69V218.234z M159.598,226.846h-2.241v2.305h2.241V226.846z"/>
			<path fill="#FFFFFF" d="M173.646,222.908v8.323h-1.473v-14.054h5.891v5.73H173.646z M173.646,218.362v1.12h3.009v-1.12H173.646z
				 M176.655,221.739v-1.2h-3.009v1.2H176.655z M177.023,228.99v0.929h-1.376v-5.73h6.034v4.802H177.023z M177.023,225.437v2.321
				h3.265v-2.321H177.023z M185.362,229.343c0,0.896-0.208,1.36-0.784,1.616c-0.592,0.24-1.537,0.256-2.978,0.256
				c-0.048-0.416-0.288-1.104-0.512-1.521c1.008,0.049,2.049,0.032,2.369,0.032c0.304-0.016,0.384-0.112,0.384-0.4v-6.402h-4.514
				v-5.746h6.035V229.343z M180.752,218.346v1.137h3.089v-1.137H180.752z M183.842,221.756v-1.217h-3.089v1.217H183.842z"/>
			<path fill="#FFFFFF" d="M195.936,222.828c-0.72,0.544-1.473,1.024-2.241,1.504h6.21v6.835h-1.537v-0.432h-6.035v0.496h-1.473
				v-5.378c-0.896,0.416-1.809,0.8-2.721,1.152c-0.176-0.336-0.641-0.929-0.913-1.232c2.209-0.736,4.338-1.729,6.258-2.945h-5.858
				v-1.329h5.298v-1.792h-3.905v-1.297h3.905v-1.873h1.473v1.873h3.729v0.704c0.64-0.656,1.232-1.345,1.745-2.064l1.281,0.672
				c-1.009,1.377-2.209,2.625-3.538,3.777h4.194v1.329H195.936z M198.369,225.565h-6.035v1.328h6.035V225.565z M198.369,229.471
				v-1.408h-6.035v1.408H198.369z M195.44,221.499c0.752-0.56,1.44-1.168,2.097-1.792h-3.137v1.792H195.44z"/>
		</g>
	</g>
	<g>
		<g>
			<path fill="#FFFFFF" d="M542.583,47.451h5.153v9.14h-1.584v-0.673h-10.516V54.43h10.516v-2.112H536.5v-1.425h9.652v-1.953
				h-10.196v-1.488h5.011v-5.555h1.616V47.451z M537.637,46.778c-0.305-1.024-1.137-2.561-1.953-3.681l1.346-0.545
				c0.863,1.121,1.695,2.594,2.032,3.602L537.637,46.778z M547.961,42.938c-0.672,1.376-1.537,2.913-2.225,3.921l-1.313-0.479
				c0.656-1.057,1.473-2.722,1.92-3.97L547.961,42.938z"/>
			<path fill="#FFFFFF" d="M556.342,52.108c-0.368-0.464-1.088-1.232-1.744-1.889v6.371h-1.473v-5.906
				c-0.721,0.704-1.488,1.313-2.241,1.792c-0.144-0.384-0.513-1.088-0.736-1.376c1.825-1.041,3.665-2.897,4.754-4.898h-4.194v-1.36
				h2.418v-2.945h1.473v2.945h1.104l0.257-0.048l0.832,0.561c-0.479,1.216-1.185,2.385-1.985,3.441
				c0.753,0.607,2.082,1.761,2.449,2.097L556.342,52.108z M565.274,54.67v1.473h-8.963V54.67h3.873v-6.274h-3.233v-1.44h3.233
				v-4.931h1.521v4.931h3.233v1.44h-3.233v6.274H565.274z"/>
		</g>
	</g>
	<g>
		<g>
			<path fill="#FFFFFF" d="M508.313,219.907c-0.145,0.176-0.4,0.48-0.529,0.672c-0.688,1.169-2.209,3.201-3.921,4.418l-1.329-1.072
				c1.393-0.816,2.802-2.401,3.266-3.313h-8.787c-0.625,0-1.185,0.048-1.873,0.096v-1.776c0.592,0.08,1.248,0.145,1.873,0.145h8.947
				c0.368,0,1.088-0.049,1.345-0.112L508.313,219.907z M501.846,222.036c0,4.178-0.24,7.251-4.45,9.412l-1.473-1.201
				c0.464-0.16,1.024-0.416,1.536-0.784c2.289-1.473,2.658-3.489,2.658-6.146c0-0.432-0.017-0.816-0.097-1.28H501.846z"/>
			<path fill="#FFFFFF" d="M521.481,220.083c-0.129,0.256-0.209,0.608-0.289,0.929c-0.352,1.633-1.088,4.178-2.385,5.874
				c-1.457,1.889-3.457,3.426-6.37,4.338l-1.36-1.505c3.121-0.768,4.93-2.129,6.242-3.81c1.104-1.393,1.793-3.441,2.001-4.914
				h-7.859c-0.688,0-1.329,0.032-1.729,0.064v-1.793c0.448,0.064,1.2,0.128,1.729,0.128h7.763c0.272,0,0.673-0.016,1.025-0.111
				L521.481,220.083z"/>
			<path fill="#FFFFFF" d="M533.401,222.084c-0.752,0.832-2.178,1.969-3.617,2.897v5.522c0,0.512,0.016,1.264,0.08,1.536h-1.857
				c0.032-0.272,0.08-1.024,0.08-1.536v-4.546c-1.377,0.704-3.249,1.488-4.818,1.904l-0.848-1.473
				c2.049-0.432,4.289-1.408,5.602-2.177c1.602-0.929,3.314-2.272,4.114-3.297L533.401,222.084z"/>
			<path fill="#FFFFFF" d="M538.15,218.595c-0.032,0.336-0.063,0.736-0.063,1.185v5.362c0,0.416,0.031,0.977,0.063,1.296h-1.873
				c0.017-0.271,0.08-0.832,0.08-1.296v-5.362c0-0.288-0.032-0.849-0.063-1.185H538.15z M545.545,218.467
				c-0.033,0.416-0.064,0.896-0.064,1.473v2.849c0,3.666-0.576,5.026-1.761,6.371c-1.04,1.216-2.657,1.937-3.825,2.337l-1.329-1.393
				c1.521-0.385,2.897-0.992,3.874-2.097c1.12-1.265,1.328-2.514,1.328-5.314v-2.753c0-0.576-0.048-1.057-0.096-1.473H545.545z"/>
			<path fill="#FFFFFF" d="M560.201,228.503c0.513,0,0.976-0.064,1.393-0.112v1.825c-0.433-0.049-1.057-0.064-1.393-0.064h-10.564
				c-0.464,0-0.976,0.016-1.489,0.064v-1.825c0.48,0.08,1.025,0.112,1.489,0.112h4.306v-6.995h-3.377
				c-0.353,0-1.009,0.016-1.408,0.064v-1.745c0.416,0.048,1.039,0.08,1.408,0.08h8.756c0.496,0,1.008-0.032,1.439-0.08v1.745
				c-0.447-0.049-0.977-0.064-1.439-0.064h-3.635v6.995H560.201z"/>
			<path fill="#FFFFFF" d="M571.639,229.431c0,0.656,0.032,1.537,0.112,1.889h-1.985c0.049-0.352,0.097-1.232,0.097-1.889v-5.698
				c-1.681,0.896-3.81,1.793-5.794,2.354l-0.912-1.553c2.736-0.624,5.441-1.809,7.219-2.913c1.616-1.009,3.281-2.434,4.178-3.586
				l1.359,1.232c-1.152,1.152-2.656,2.401-4.273,3.441V229.431z"/>
			<path fill="#FFFFFF" d="M589.417,220.483c-0.144,0.272-0.337,0.672-0.448,0.992c-0.4,1.329-1.185,3.025-2.273,4.594
				c0.593,0.385,1.137,0.736,1.537,1.024l-1.121,1.473c-0.384-0.32-0.912-0.704-1.52-1.12c-1.426,1.616-3.378,3.105-6.1,4.146
				l-1.456-1.28c2.817-0.849,4.771-2.305,6.163-3.794c-1.186-0.768-2.418-1.521-3.281-2.001l1.056-1.2
				c0.896,0.464,2.129,1.169,3.298,1.873c0.88-1.265,1.6-2.77,1.889-3.89h-5.09c-1.057,1.456-2.498,2.993-4.21,4.161l-1.377-1.04
				c2.785-1.713,4.37-4.033,5.122-5.458c0.209-0.32,0.496-0.977,0.608-1.44l1.825,0.576c-0.305,0.48-0.656,1.088-0.816,1.408
				l-0.192,0.353h3.89c0.448,0,0.896-0.064,1.2-0.177L589.417,220.483z"/>
			<path fill="#FFFFFF" d="M591.445,223.589c0.513,0.048,1.505,0.096,2.368,0.096h8.691c0.785,0,1.409-0.063,1.793-0.096v1.969
				c-0.352-0.017-1.072-0.064-1.776-0.064h-8.708c-0.896,0-1.84,0.032-2.368,0.064V223.589z"/>
		</g>
	</g>
	<g>
		<g>
			<defs>
				<path id="SVGID_1_" d="M477.049,224.753c0,15.59-12.756,28.348-28.346,28.348c-15.592,0-28.348-12.758-28.348-28.348
					s12.756-28.348,28.348-28.348C464.293,196.405,477.049,209.163,477.049,224.753z"/>
			</defs>
			<use xlink:href="#SVGID_1_"  overflow="visible" fill="#FFCC5C"/>
			<clipPath id="SVGID_2_">
				<use xlink:href="#SVGID_1_"  overflow="visible"/>
			</clipPath>
			<g clip-path="url(#SVGID_2_)">
				<g>
					<path fill="#01A2A5" d="M444.583,236.864c-0.588,1.395-0.783,2.078-0.408,3.334c3.081,0,6.164,0,9.246,0
						c-1.51-4.504-3.018-9.01-4.527-13.506C447.458,230.083,446.021,233.474,444.583,236.864z"/>
					<path fill="#01A2A5" d="M483.211,236.864c-1.436-3.391-2.873-6.781-4.311-10.172c-1.508,4.496-3.018,9.002-4.525,13.506
						c3.082,0,6.162,0,9.246,0C483.995,238.942,483.801,238.259,483.211,236.864z"/>
				</g>
				<path fill-rule="evenodd" clip-rule="evenodd" fill="#EBEBEB" d="M423.617,240.198h50.176c0.08,0,0.146,0.115,0.146,0.26v1.652
					c0,0.143-0.066,0.258-0.146,0.258h-50.176c-0.086,0-0.15-0.115-0.15-0.258v-1.652
					C423.466,240.313,423.531,240.198,423.617,240.198L423.617,240.198z"/>
				<g>
					<rect x="442.508" y="242.368" fill="#EBEBEB" width="1.145" height="11.289"/>
					<rect x="489.663" y="244.075" fill="#EBEBEB" width="1.104" height="10.895"/>
				</g>
				<rect x="425.825" y="242.368" fill-rule="evenodd" clip-rule="evenodd" fill="#EBEBEB" width="45.756" height="5.641"/>
				<g>
					<rect x="442.508" y="242.368" fill="#EBEBEB" width="1.145" height="1.035"/>
					<rect x="489.663" y="244.075" fill="#EBEBEB" width="1.104" height="0.998"/>
				</g>
				<rect x="425.825" y="242.368" fill-rule="evenodd" clip-rule="evenodd" fill="#D8D9D9" width="45.756" height="1.035"/>
				<rect x="443.659" y="242.368" fill-rule="evenodd" clip-rule="evenodd" fill="#D8D9D9" width="0.92" height="5.641"/>
				<rect x="488.907" y="244.075" fill-rule="evenodd" clip-rule="evenodd" fill="#C3C4C4" width="0.756" height="5.443"/>
				<path fill-rule="evenodd" clip-rule="evenodd" fill="#592E25" d="M442.157,208.909c0,0,1.437,8.766-1.559,14.246l3.809,0.727
					l3.463-0.518l0.833-4.662l0.833,4.662l3.462,0.518l3.81-0.727c-2.996-5.48-1.559-14.246-1.559-14.246l-5.972-2.529
					l-0.574,12.229l-0.574-12.229L442.157,208.909z"/>
				<path fill-rule="evenodd" clip-rule="evenodd" fill="#4D2219" d="M448.096,222.146l0.617-3.443l0.619,3.443h4.697
					c0,0-1.537-5.094-1.027-10.182l-3.98,0.107l-0.309,6.537l-0.309-6.516l-4.512,0.123c0,0,1.027,4.367-0.518,9.93H448.096z"/>
				<path fill-rule="evenodd" clip-rule="evenodd" fill="#FEB67C" d="M448.702,231.11c3.527,0,7.055,0,10.592,0
					c-0.152-2.006,0.458-9.133-2.121-9.67c-1.609-0.338-3.211-0.668-4.822-1.006c-1.98-0.418-1.422-6.883-1.32-8.537
					c-1.043,0.885-1.279,1.855-2.328,2.738c-1.049-0.883-1.286-1.854-2.336-2.738c0.109,1.654,0.668,8.119-1.314,8.537
					c-1.609,0.338-3.211,0.668-4.82,1.006c-2.58,0.537-1.97,7.664-2.119,9.67C441.638,231.11,445.173,231.11,448.702,231.11
					L448.702,231.11z"/>
				<path fill-rule="evenodd" clip-rule="evenodd" fill="#F2AA70" d="M453.106,221.001l-2.73-0.566
					c-1.545-0.324-1.545-4.303-1.422-6.842l-1.336,0.064c-0.244,0.33-0.516,0.662-0.891,0.979c-0.344-0.295-0.604-0.598-0.832-0.896
					l-1.389,0.063c0.066,1.459,0.08,3.326-0.207,4.713c1.105,1.127,3.879,3.508,7.291,3.119
					C452.237,221.554,452.725,221.331,453.106,221.001L453.106,221.001z"/>
				<path fill-rule="evenodd" clip-rule="evenodd" fill="#01A2A5" d="M448.702,231.11c3.527,0,7.055,0,10.592,0
					c-0.152-2.006,0.458-9.133-2.121-9.67c-1.609-0.338-3.211-0.668-4.822-1.006c-0.1-0.023-0.199-0.064-0.293-0.123l-0.625,0.947
					l-1.639,0.59l-1.092-0.252l-1.094,0.252l-1.637-0.59l-0.625-0.947c-0.094,0.059-0.194,0.1-0.295,0.123
					c-1.609,0.338-3.211,0.668-4.82,1.006c-2.58,0.537-1.97,7.664-2.119,9.67C441.638,231.11,445.173,231.11,448.702,231.11
					L448.702,231.11z"/>
				<path fill-rule="evenodd" clip-rule="evenodd" fill="#4ED2D4" d="M447.743,219.853c0.77,0.84,1.746,1.4,2.91,1.744
					c-0.553,0.598-0.84,1.387-0.904,2.328c-1.201-0.99-2.352-2.018-2.996-3.441C446.997,220.196,447.319,219.981,447.743,219.853
					L447.743,219.853z"/>
				<path fill-rule="evenodd" clip-rule="evenodd" fill="#4ED2D4" d="M449.662,219.853c-0.77,0.84-1.746,1.4-2.91,1.744
					c0.553,0.598,0.84,1.387,0.905,2.328c1.198-0.99,2.349-2.018,2.997-3.441C450.409,220.196,450.085,219.981,449.662,219.853
					L449.662,219.853z"/>
				<path fill-rule="evenodd" clip-rule="evenodd" fill="#FEB67C" d="M454.688,208.909c0.007,0.123,0.007,0.244,0.007,0.367
					c0,5.193-2.68,9.404-5.992,9.404c-3.313,0-5.992-4.211-5.992-9.404c0-0.123,0-0.244,0.007-0.367l5.942-4.445L454.688,208.909z"
					/>
				<path fill-rule="evenodd" clip-rule="evenodd" fill="#F2AA70" d="M454.688,208.909c0.007,0.123,0.007,0.244,0.007,0.367
					c0,0.633-0.035,1.25-0.115,1.846c-6.057,0.863-9.886-0.424-11.862-1.465c-0.007-0.129-0.007-0.252-0.007-0.381
					c0-0.123,0-0.244,0.007-0.367l5.08-3.799l1.652-0.066L454.688,208.909z"/>
				<path fill-rule="evenodd" clip-rule="evenodd" fill="#592E25" d="M442.157,208.909c0-10.898,13.092-10.865,13.092,0
					c-1.207,0.217-2.422,0.383-3.629,0.48l-0.123-0.934l-0.682,1c-0.337,0.021-0.684,0.037-1.021,0.049l-0.102-1.768l-0.51,1.791
					c-0.94,0.014-1.881-0.008-2.822-0.066l-0.547-1.176l-0.51,1.092C444.255,209.276,443.207,209.118,442.157,208.909
					L442.157,208.909z"/>
				<path fill-rule="evenodd" clip-rule="evenodd" fill="#EBEBEB" d="M436.511,223.573h24.385c0.539,0,0.984,0.445,0.984,0.992
					v12.996c0,0.547-0.445,0.992-0.984,0.992h-24.385c-0.541,0-0.986-0.445-0.986-0.992v-12.996
					C435.525,224.019,435.97,223.573,436.511,223.573L436.511,223.573z"/>
				<path fill-rule="evenodd" clip-rule="evenodd" fill="#E0E1E1" d="M436.511,223.573h3.274
					c0.468,4.053,3.536,13.695,22.095,13.162v0.826c0,0.547-0.445,0.992-0.984,0.992h-24.385c-0.541,0-0.986-0.445-0.986-0.992
					v-12.996C435.525,224.019,435.97,223.573,436.511,223.573L436.511,223.573z"/>
				<path fill-rule="evenodd" clip-rule="evenodd" fill="#EBEBEB" d="M434.763,238.554h27.879c0.215,0,0.395,0.172,0.395,0.395
					v0.848c0,0.223-0.18,0.402-0.395,0.402h-27.879c-0.216,0-0.395-0.18-0.395-0.402v-0.848
					C434.369,238.726,434.547,238.554,434.763,238.554L434.763,238.554z"/>
				<path fill-rule="evenodd" clip-rule="evenodd" fill="#FEFEFE" d="M448.703,229.099c1.085,0,1.969,0.877,1.969,1.961
					c0,1.094-0.884,1.969-1.969,1.969c-1.086,0-1.969-0.875-1.969-1.969C446.734,229.976,447.617,229.099,448.703,229.099
					L448.703,229.099z"/>
				<rect x="438.342" y="248.009" fill-rule="evenodd" clip-rule="evenodd" fill="#01A2A5" width="20.721" height="5.648"/>
			</g>
			<use xlink:href="#SVGID_1_"  overflow="visible" fill="none" stroke="#FFFFFF" stroke-miterlimit="10"/>
		</g>
	</g>
	<g>
		<path fill="#FFCC5C" stroke="#FFFFFF" stroke-miterlimit="10" d="M82.337,47.872c0,15.59-12.756,28.346-28.347,28.346
			c-15.59,0-28.347-12.756-28.347-28.346s12.757-28.348,28.347-28.348C69.582,19.524,82.337,32.282,82.337,47.872z"/>
		<path fill="#E0AE4B" d="M41.012,63.212l13.004,13.006c14.484-0.014,26.511-11.037,28.13-25.109L67.07,36.034L41.012,63.212z"/>
		<polygon fill="#7CC6D8" points="47.616,35.347 54.209,32.937 66.274,36.864 66.274,62.503 41.695,62.503 41.695,45.208 
			47.722,43.726 		"/>
		<path fill="#FFF4E1" d="M54.209,32.05l-7.232,2.422v8.023l-6.065,1.416v19.523l13.298,0.453v0.002l12.861-0.361v-27.51
			L54.209,32.05z M46.977,60.987h-4.639v-2.496l4.639-0.154V60.987z M46.977,55.687l-4.639,0.311v-2.512l4.639-0.467V55.687z
			 M46.977,50.386l-4.639,0.619v-2.494l4.639-0.777V50.386z M50.403,60.989H48.69V58.28l1.713-0.059V60.989z M50.403,55.456
			l-1.713,0.115v-2.707l1.713-0.174V55.456z M50.403,49.927l-1.713,0.229v-2.707l1.713-0.287V49.927z M50.403,44.396l-1.713,0.344
			V42.03l1.713-0.4V44.396z M50.403,38.864l-1.713,0.459v-2.707l1.713-0.516V38.864z M65.387,60.989H54.14l-1.833-0.002v-2.828
			l1.833-0.063l11.247,0.426V60.989z M65.387,55.907L54.14,55.206l-1.909,0.129v-2.828l1.909-0.191l11.247,1.02V55.907z
			 M65.387,50.788l-11.178-1.371l-1.902,0.256v-2.83l1.902-0.318l11.178,1.732V50.788z M65.387,45.729L54.14,43.646l-1.833,0.367
			v-2.828l1.833-0.432l11.247,2.422V45.729z M65.387,40.618L54.14,37.864l-1.909,0.512V35.55l1.909-0.576l11.247,3.061V40.618z"/>
		<polygon fill="#D8CCC3" points="65.387,38.034 65.387,40.618 54.209,37.882 54.209,40.769 65.387,43.175 65.387,45.729 
			54.209,43.657 54.209,46.524 65.387,48.257 65.387,50.788 54.209,49.417 54.209,52.321 65.387,53.335 65.387,55.907 54.209,55.21 
			54.209,58.101 65.387,58.522 65.387,60.989 54.209,60.989 54.209,63.888 54.209,63.89 67.071,63.528 67.071,36.019 54.209,32.05 
			54.209,34.991 		"/>
	</g>
	<g>
		<path fill="#FFCC5C" stroke="#FFFFFF" stroke-miterlimit="10" d="M82.462,224.753c0,15.59-12.756,28.346-28.347,28.346
			c-15.59,0-28.347-12.756-28.347-28.346s12.757-28.348,28.347-28.348C69.706,196.405,82.462,209.163,82.462,224.753z"/>
		<g>
			<path fill="#E0AE4B" d="M37.038,239.272h34.154c2.659,0,4.813-2.155,4.813-4.813v-3.732H32.223v3.732
				C32.223,237.117,34.378,239.272,37.038,239.272z"/>
			<rect x="32.223" y="230.728" fill="#484246" width="43.783" height="0.666"/>
			<g>
				<g>
					<path fill="#3E3431" d="M42.847,213.487c-1.223-0.69-2.791-0.627-3.698,0.543c-1.76,2.264-0.592,6.953-4.519,7.696
						c3.041,2.201,6.044-0.794,7.689-2.259C44.461,217.426,44.995,213.723,42.847,213.487z"/>
					<path fill="#F6D3A9" d="M39.38,215.913c-0.126,0.026-0.293,0.176-0.22,0.514c0.074,0.339,0.36,0.737,0.486,0.709
						c0.127-0.027,0.17-0.324,0.096-0.662C39.669,216.136,39.507,215.885,39.38,215.913z"/>
					<path fill="#F6D3A9" d="M43.488,215.913c-0.126-0.028-0.288,0.223-0.362,0.561c-0.073,0.338-0.03,0.635,0.096,0.662
						c0.126,0.028,0.413-0.37,0.486-0.709C43.782,216.089,43.615,215.939,43.488,215.913z"/>
					<path fill="#F6D3A9" d="M44.563,220.027l-1.273-0.225c-0.484-0.085-0.877-0.491-0.877-0.904v-0.751h-1.958c0,0,0,0.336,0,0.751
						c0,0.413-0.393,0.819-0.876,0.904l-1.274,0.225c-0.484,0.086-0.876,0.554-0.876,1.046l-0.178,2.04h8.367l-0.178-2.04
						C45.44,220.581,45.049,220.113,44.563,220.027z"/>
					<path opacity="0.1" d="M42.413,218.898v-0.751h-1.958c0,0,0,0.336,0,0.751c0,0.032-0.003,0.063-0.007,0.093
						c0.261,0.254,0.601,0.486,1.025,0.635c0.59,0.204,1.167,0.222,1.554,0.098C42.673,219.564,42.413,219.234,42.413,218.898z"/>
					<path fill="#FFFFFF" d="M45.44,221.073c0-0.492-0.392-0.96-0.877-1.046l-1.273-0.225c-0.187-0.032-0.359-0.113-0.502-0.223
						c-0.285,0.177,0.585,1.768-1.349,1.758s-1.087-1.508-1.419-1.715c-0.13,0.088-0.281,0.152-0.441,0.18l-1.274,0.225
						c-0.484,0.086-0.876,0.554-0.876,1.046l-0.611,5.322c-0.042,0.37,0.16,0.774,0.45,0.903l1.513,0.388h5.198
						c0,0,1.177-0.26,1.449-0.388c0.271-0.129,0.467-0.533,0.438-0.905L45.44,221.073z"/>
					<path opacity="0.2" fill="#3C3C3B" d="M38.749,222.479c-0.046-0.005-0.088,0.027-0.093,0.074l-0.366,3.321
						c-0.006,0.047,0.028,0.09,0.074,0.094c0.004,0,0.007,0,0.01,0c0.042,0,0.079-0.032,0.083-0.075l0.366-3.32
						C38.829,222.525,38.796,222.483,38.749,222.479z"/>
					<path opacity="0.2" fill="#3C3C3B" d="M44.129,222.479c-0.046,0.004-0.079,0.046-0.074,0.094l0.365,3.32
						c0.006,0.043,0.042,0.075,0.085,0.075c0.003,0,0.006,0,0.009,0c0.047-0.004,0.08-0.047,0.075-0.094l-0.366-3.321
						C44.219,222.507,44.176,222.474,44.129,222.479z"/>
					<path fill="#F6D3A9" d="M42.513,214.523c-0.869,0.693-1.801,0.544-2.335,1.008c-0.394,0.344-0.179,0.945-0.697,0.951
						c-0.035,0.311,0.029,0.601,0.086,0.733c0.356,1.171,1.185,2.064,1.873,2.064c0.775,0,1.854-1.301,2.027-2.818
						C42.933,216.477,43.066,214.285,42.513,214.523z"/>
				</g>
				<polygon fill="#AFA41D" points="37.899,231.08 44.717,231.08 44.943,230.728 37.638,230.728 				"/>
				<rect x="38.093" y="228.551" fill="#AFA41D" width="6.334" height="2.177"/>
				<path fill="#FCEA10" d="M44.8,228.346c-0.081-0.364-0.448-0.659-0.821-0.659H38.6c-0.373,0-0.741,0.295-0.822,0.659
					l-0.381,1.722c-0.081,0.364,0.036,0.788,0.261,0.945c0.225,0.159,0.896,0.026,1.084-0.296l0.496-1.433
					c0.188-0.323,0.643-0.585,1.016-0.585h2.154c0.372,0,0.823,0.264,1.006,0.59l0.461,1.422c0.184,0.326,0.844,0.461,1.062,0.302
					c0.217-0.157,0.326-0.581,0.246-0.945L44.8,228.346z"/>
				<g>
					<path fill="#3E3431" d="M41.862,238.9c0,0-0.8,3.121,0.514,2.721c1.225-0.374,0.676-2.602,0.526-2.857
						C42.687,238.39,42.206,238.783,41.862,238.9z"/>
					<path fill="#F6D3A9" d="M42.835,228.723c-0.942-0.189-1.252,0.827-1.267,1.304c-0.027,0.806-0.265,1.94-0.17,2.737
						c0.208,1.73,0.68,3.108,0.573,4.856c-0.025,0.431-0.012,0.819-0.122,1.326c-0.094,0.441-0.182,2.097,0.451,1.731
						c0.634-0.366,0.676-1.301,0.665-1.372c-0.282-1.976,0.006-3.406,0.295-4.672c0.191-0.835,0.336-1.599,0.336-2.448
						C43.598,229.004,42.835,228.723,42.835,228.723z"/>
					<path fill="#3E3431" d="M39.757,238.764c-0.148,0.256-0.697,2.483,0.527,2.857c1.313,0.4,0.514-2.721,0.514-2.721
						C40.454,238.783,39.974,238.39,39.757,238.764z"/>
					<path fill="#F6D3A9" d="M39.825,228.723c0,0-0.764,0.281-0.763,3.463c0,0.85,0.144,1.613,0.336,2.448
						c0.284,1.23,0.579,2.696,0.294,4.672c-0.01,0.071,0.033,1.006,0.666,1.372c0.634,0.365,0.546-1.29,0.451-1.731
						c-0.11-0.507-0.095-0.896-0.122-1.326c-0.105-1.748,0.366-3.126,0.573-4.856c0.095-0.797-0.143-1.932-0.169-2.737
						C41.076,229.55,40.769,228.533,39.825,228.723z"/>
				</g>
				<g>
					<g>
						<path fill="#C6C6C6" d="M43.85,224.687h-4.924c-0.121,0-0.223,0.091-0.208,0.198l0.343,2.339
							c0.013,0.094,0.109,0.169,0.214,0.169h4.227c0.104,0,0.2-0.075,0.213-0.169l0.341-2.311
							C44.068,224.806,43.97,224.687,43.85,224.687z"/>
					</g>
					<g>
						<path fill="#3E3431" d="M43.85,224.797h-4.924c-0.121,0-0.207,0.087-0.192,0.195l0.327,2.341
							c0.013,0.094,0.109,0.17,0.214,0.17h4.227c0.104,0,0.2-0.076,0.213-0.17l0.327-2.341
							C44.057,224.884,43.97,224.797,43.85,224.797z"/>
					</g>
					<path fill="#302826" d="M38.923,226.291l-0.143,1.521c-0.008,0.088,0.056,0.155,0.143,0.155h4.918
						c0.087,0,0.149-0.067,0.143-0.155l-0.143-1.521H38.923z"/>
				</g>
				<path fill="#F6D3A9" d="M38.933,226.646c0.119-0.041,0.296-0.066,0.416-0.194c0.123-0.129-0.001-0.242-0.001-0.242
					c-0.135,0.029-0.422,0.165-0.661,0.165c-0.232,0.154-0.236,0.81-0.095,1.082c0.143,0.273,0.354,0.304,0.528,0.272
					c0.174-0.032,0.554-0.177,0.734-0.401c0.181-0.226-0.086-0.507-0.086-0.507C39.508,226.801,39.059,226.805,38.933,226.646z"/>
			</g>
			<g>
				<g>
					<g>
						<path fill="#F6D3A9" d="M51.732,214.779c-0.134,0.03-0.313,0.19-0.235,0.551c0.08,0.36,0.387,0.785,0.521,0.758
							c0.135-0.029,0.18-0.347,0.103-0.707C52.04,215.021,51.867,214.751,51.732,214.779z"/>
						<path fill="#F6D3A9" d="M56.501,214.779c-0.135-0.028-0.308,0.241-0.387,0.602s-0.033,0.678,0.102,0.707
							c0.135,0.027,0.441-0.397,0.52-0.758C56.814,214.97,56.635,214.81,56.501,214.779z"/>
						<path fill="#684930" d="M55.653,210.828c-0.666,1.73-2.178,0.023-3.109,0.879c-1.653,0.614-0.911,1.968-0.757,2.779
							c0,1.802,1.395,3.263,2.33,3.263c1.001,0,2.329-1.461,2.329-3.263C57.392,212.662,56.755,211.36,55.653,210.828z"/>
						<path fill="#F6D3A9" d="M57.856,219.438l-1.522-0.268c-0.578-0.102-1.047-0.588-1.047-1.083v-0.897h-2.341
							c0,0,0,0.401,0,0.897c0,0.495-0.468,0.981-1.047,1.083l-1.521,0.268c-0.579,0.104-1.047,0.661-1.047,1.249v2.439h9.573v-2.439
							C58.904,220.099,58.435,219.541,57.856,219.438z"/>
						<path fill="#F6D3A9" d="M56.684,223.04l0.845,2.844l-1.183,1.866h1.299l0.714-0.522c0.335-0.166,0.577-0.603,0.542-0.975
							l0.004-3.551L56.684,223.04z"/>
						<path fill="#F6D3A9" d="M51.55,223.04l-2.219-0.338l0.003,3.551c-0.036,0.372,0.206,0.809,0.541,0.975l0.714,0.522h1.299
							l-1.183-1.866L51.55,223.04z"/>
						<path fill="#013950" d="M57.856,219.438l-1.522-0.268c-0.224-0.039-0.431-0.137-0.602-0.27
							c-0.392,0.454-1.154,0.858-1.642,0.861c-0.373,0.001-1.297-0.338-1.664-0.809c-0.154,0.106-0.335,0.182-0.527,0.217
							l-1.521,0.268c-0.579,0.104-1.047,0.661-1.047,1.249l-0.213,2.439l4.973,1.632l5.025-1.632l-0.212-2.439
							C58.904,220.099,58.435,219.541,57.856,219.438z"/>
						<path opacity="0.1" d="M55.287,218.087v-0.897h-2.341c0,0,0,0.401,0,0.897c0,0.038-0.003,0.076-0.008,0.114
							c0.312,0.301,0.719,0.577,1.225,0.756c0.705,0.245,1.394,0.265,1.858,0.115C55.595,218.885,55.287,218.489,55.287,218.087z"/>
						<path fill="#F6D3A9" d="M56.207,214.141c-0.279-0.785-1.104-0.341-2.109-0.341c-1.006,0-1.809-0.445-2.076,0.344
							c-0.11,0.407,0.244,1.499-0.015,1.576c0.298,1.466,1.343,2.657,2.11,2.657c0.814,0,1.813-1.174,2.106-2.624l0,0
							C55.964,215.677,56.323,214.543,56.207,214.141z"/>
					</g>
				</g>
				<polygon fill="#A48A7B" points="48.436,240.908 49.234,241.114 52.395,239.468 50.262,239.468 				"/>
				<path fill="#CBBBA0" d="M48.436,240.908l0.049,0.205c0.027,0.112,0.194,0.249,0.372,0.305l0.016,0.004
					c0.179,0.056,0.466,0.05,0.641-0.013l2.56-0.914c0.176-0.063,0.319-0.265,0.319-0.451l0.003-0.576l-3.16,1.646L48.436,240.908z"
					/>
				<path fill="#FFFFFF" d="M48.656,229.029c-0.321,0.192-0.532,0.645-0.472,1.013l1.58,9.637l1.465,0.211l1.165-0.422l-1.362-8.066
					l3.039-0.674v-2.761H50.44L48.656,229.029z"/>
				<polygon opacity="0.1" fill="#1D1D1B" points="51.229,239.89 52.395,239.468 51.032,231.401 54.071,230.728 54.071,229.967 
					50.11,230.705 				"/>
				<polygon fill="#A48A7B" points="55.749,239.468 58.909,241.114 59.707,240.908 57.882,239.468 				"/>
				<path fill="#CBBBA0" d="M55.749,239.468l0.002,0.576c0.001,0.187,0.145,0.389,0.32,0.451l2.559,0.914
					c0.176,0.063,0.463,0.068,0.642,0.013l0.015-0.004c0.18-0.056,0.346-0.192,0.374-0.305l0.047-0.205l-0.798,0.206L55.749,239.468
					z"/>
				<path fill="#FFFFFF" d="M59.488,229.029l-1.784-1.063h-3.633v2.761l3.041,0.674l-1.363,8.066l1.165,0.422l1.466-0.211
					l1.579-9.637C60.02,229.674,59.809,229.222,59.488,229.029z"/>
				<polygon opacity="0.1" fill="#1D1D1B" points="54.071,230.728 57.112,231.401 55.749,239.468 56.914,239.89 58.033,230.705 
					54.071,229.967 				"/>
				<g>
					<path fill="#B2B2B2" d="M57.888,223.773h-7.575c-0.186,0-0.318,0.15-0.295,0.336l0.539,4.315h7.088l0.54-4.315
						C58.207,223.924,58.075,223.773,57.888,223.773z"/>
					<path fill="#9D9D9C" d="M49.977,228.425c0,0.121,0.15,0.219,0.336,0.219h7.575c0.188,0,0.339-0.098,0.339-0.219v-0.217h-8.25
						C49.977,228.208,49.977,228.306,49.977,228.425z"/>
					<circle fill="#F8F4E6" cx="54.101" cy="226.42" r="0.477"/>
				</g>
			</g>
			<g>
				<path fill="#82368C" d="M68.034,214.009c-2.826,0.118-2.718,3.524-1.789,5.293c1.196-0.479,2.867,0.747,3.473,1.402
					c1.156-0.805,1.778-2.358,1.676-4.073C71.324,215.489,70.044,213.508,68.034,214.009z"/>
				<path fill="#F6D3A9" d="M66.77,216.643c-0.129,0.003-0.32,0.117-0.31,0.461c0.01,0.343,0.215,0.784,0.345,0.781
					c0.127-0.004,0.224-0.285,0.214-0.628S66.897,216.638,66.77,216.643z"/>
				<path fill="#F6D3A9" d="M70.344,220.938l-0.938-0.376c-0.461-0.157-0.784-0.615-0.718-1.021
					c0.063-0.406,0.115-0.736,0.115-0.736l-1.784-0.723l-0.253,1.154c-0.063,0.407-0.511,0.742-0.998,0.752l-1.283,0.021
					c-0.487,0.009-0.945,0.406-1.021,0.888l0.225,2.324l5.906,1.099C69.594,224.319,70.807,221.097,70.344,220.938z"/>
				<path opacity="0.1" d="M68.688,219.54c0.063-0.406,0.115-0.736,0.115-0.736l-1.784-0.723l-0.253,1.154
					c-0.004,0.033-0.013,0.066-0.022,0.099c0.235,0.301,0.554,0.592,0.971,0.81c0.559,0.295,1.131,0.406,1.558,0.362
					C68.883,220.312,68.628,219.904,68.688,219.54z"/>
				<polygon fill="#B91579" points="62.97,227.946 67.87,227.925 68.348,226.851 63.48,226.683 				"/>
				<g>
					<path fill="#EDCCA6" d="M70.76,225.637l-2.546,0.245c0,0,0.301,1.129,0.555,0.86c0,0,1.522-0.336,2.274-0.495
						c0.117-0.068,0.807-0.043,0.699-0.578C71.692,225.427,70.76,225.637,70.76,225.637z"/>
				</g>
				<path fill="#B91579" d="M70.344,220.938l-0.938-0.376c-0.153-0.052,0.245,2.685-0.989,2.617
					c-2.512-0.525-2.46-3.195-2.648-3.191l-1.283,0.021c-0.488,0.009-0.945,0.406-1.021,0.888l0.023,5.786l4.306,0.401l2.599-0.46
					l-0.129-1.049l-1.186,0.094c0,0,1.546-2.783,1.649-3.315C70.792,222.011,70.807,221.097,70.344,220.938z"/>
				<path opacity="0.3" fill="#3C3C3B" d="M67.833,224.252l-2.647,0.767l-0.217-2.083c-0.005-0.038-0.04-0.065-0.077-0.062
					c-0.037,0.003-0.065,0.039-0.062,0.077l0.225,2.164c0.002,0.021,0.015,0.04,0.031,0.052c0.011,0.008,0.025,0.011,0.038,0.011
					c0.007,0,0.013-0.001,0.02-0.002l2.729-0.79c0.037-0.011,0.058-0.049,0.048-0.086C67.909,224.264,67.87,224.242,67.833,224.252z
					"/>
				<path opacity="0.3" fill="#3C3C3B" d="M68.261,225.314l-3.381,1.175c-0.035,0.012-0.055,0.052-0.042,0.087
					c0.01,0.029,0.037,0.048,0.066,0.048c0.007,0,0.014-0.001,0.022-0.003l3.38-1.175c0.035-0.013,0.055-0.054,0.042-0.088
					C68.335,225.321,68.297,225.302,68.261,225.314z"/>
				<path fill="#F6D3A9" d="M70.645,223.953l-1.177,0.012l-1.254,0.431c0,0-0.15,0.509,0.093,0.789l0.928-0.438
					c0,0,0.384,0.058,0.731,0.174c0.346,0.116,0.697-0.067,0.858-0.231l0.292-0.296c0.422,0.037,1.108,0.264,1.191,0.234
					c0.131-0.046-0.02-0.206-0.02-0.206C71.915,224.309,71.034,224.014,70.645,223.953z"/>
				<g>
					<g>
						<path fill="#1D1D1B" d="M73.205,223.653l0.03-0.029l-0.129-0.113h-0.001c-0.056-0.042-0.13-0.037-0.186,0.02l-2.267,2.375
							c-0.044,0.044-0.049,0.085-0.024,0.11v0.001l0.116,0.102l0.077-0.077l0.265-0.004c0.115-0.001,0.269-0.066,0.343-0.143
							l1.778-1.861c0.073-0.078,0.088-0.222,0.029-0.322L73.205,223.653z"/>
						<path fill="#DADADA" d="M73.221,223.666l0.029-0.028l-0.128-0.112l0,0c-0.058-0.044-0.131-0.039-0.187,0.02l-2.267,2.373
							c-0.044,0.047-0.05,0.086-0.024,0.11v0.001l0.115,0.103l0.077-0.078l0.265-0.003c0.115-0.002,0.269-0.066,0.343-0.144
							l1.777-1.86c0.075-0.079,0.088-0.223,0.03-0.323L73.221,223.666z"/>
						<path fill="#FFFFFF" d="M73.282,223.682c-0.058-0.101-0.165-0.119-0.238-0.042l-2.267,2.375
							c-0.075,0.077-0.041,0.139,0.073,0.137l0.359-0.006c0.115-0.001,0.269-0.065,0.343-0.142l1.777-1.862
							c0.074-0.077,0.089-0.223,0.031-0.323L73.282,223.682z"/>
					</g>
					<path fill="#EDCCA6" d="M72.418,225.048l-0.666-0.067c-0.06-0.006-0.115,0.072-0.126,0.174s0.754,0.262,0.754,0.262
						c0.061,0.007,0.117-0.071,0.127-0.174C72.518,225.141,72.478,225.054,72.418,225.048z"/>
					<path fill="#EDCCA6" d="M71.992,225.663l-0.608-0.062c-0.055-0.004-0.105,0.067-0.115,0.159
						c-0.01,0.094,0.689,0.241,0.689,0.241c0.055,0.005,0.105-0.066,0.115-0.159S72.047,225.67,71.992,225.663z"/>
					<path fill="#EDCCA6" d="M71.782,225.916l-0.497-0.05c-0.044-0.005-0.087,0.053-0.094,0.129
						c-0.009,0.076,0.568,0.221,0.632,0.127C71.886,226.03,71.826,225.92,71.782,225.916z"/>
					<path fill="#EDCCA6" d="M72.216,225.334l-0.702-0.071c-0.063-0.006-0.123,0.076-0.133,0.184
						c-0.013,0.107,0.795,0.277,0.795,0.277c0.063,0.007,0.123-0.076,0.134-0.184S72.278,225.34,72.216,225.334z"/>
				</g>
				<path fill="#F6D3A9" d="M68.452,215.014c-1.41,0.081-2.805,3.637,0.123,4.693c0.671,0.126,1.797-1.724,1.819-2.033
					C70.644,216.369,69.308,216.43,68.452,215.014z"/>
				<rect x="67.792" y="228.952" fill="#EFCDA8" width="3.948" height="1.974"/>
				<rect x="64.942" y="228.952" fill="#F6D3A9" width="5.121" height="1.999"/>
				<path fill="#3E3431" d="M71.63,228.389l-0.203-0.12c-0.317-0.19-0.875-0.344-1.245-0.344h-7.039
					c-0.372,0-0.646,0.298-0.614,0.667l0.16,1.856c0.031,0.368,0.357,0.679,0.728,0.685c1.097,0.021,4.174,0.029,4.307-0.207
					l0.457-1.412c0.181-0.322,0.629-0.584,0.999-0.584l2.562,0.022c0.211,0,0.396,0.236,0.583,0.558c0,0,0.053,1.531-0.048,1.823
					c0.224-0.156,0.111-1.954,0.111-1.954C72.287,229.022,71.949,228.58,71.63,228.389z"/>
				<g>
					<path fill="#EFCDA8" d="M72.443,231.117c0.273-2.063-0.703-2.165-0.703-2.165c-1.435-0.022-1.808,3.53-1.713,4.321
						c0.206,1.717,1.188,4.039,0.753,4.551c-0.29,0.343,0.748,1.962,1.937,2.046c-0.357-0.503-0.658-1.704-0.669-1.775
						C71.765,236.135,72.279,232.36,72.443,231.117z"/>
				</g>
				<g>
					<path fill="#352C2A" d="M73.624,240.027c-0.374-0.037-0.722-0.109-1.126-0.345c-0.403-0.236-0.954-0.993-0.993-1.15
						c-0.118-0.462-0.725-0.708-0.725-0.708c-0.428,0.334-0.267,1.088-0.267,1.088l0.184,1.438l0.134-0.001
						c0,0-0.197-1.166,0.274-1.2c0.594,0.742,0.621,0.873,0.716,1.151c0.291,0.166,1.956,0.043,1.956,0.043
						S73.813,240.047,73.624,240.027z"/>
				</g>
				<g>
					<path fill="#F6D3A9" d="M70.769,231.117c0.271-2.063-0.705-2.165-0.705-2.165c-1.435-0.022-1.807,3.53-1.713,4.321
						c0.206,1.717,1.188,4.208,0.753,4.72c-0.289,0.34,0.75,1.96,1.937,2.043c-0.355-0.503-0.659-1.703-0.668-1.773
						C70.09,236.303,70.604,232.36,70.769,231.117z"/>
				</g>
				<g>
					<path fill="#3E3431" d="M71.947,240.195c-0.372-0.038-0.72-0.109-1.125-0.345c-0.404-0.236-0.954-0.994-0.994-1.15
						c-0.117-0.461-0.725-0.707-0.725-0.707c-0.427,0.333-0.265,1.088-0.265,1.088l0.183,1.437h0.133c0,0-0.197-1.166,0.274-1.2
						c0.595,0.742,0.622,0.871,0.716,1.151c0.291,0.166,1.956,0.041,1.956,0.041S72.137,240.215,71.947,240.195z"/>
				</g>
			</g>
		</g>
	</g>
	<g>
		<g>
			<polygon points="321.891,109.528 318.978,101.742 326.764,104.655 			"/>
		</g>
	</g>
	<g>
		<polygon points="381.758,228.574 389.325,225.129 381.758,221.684 		"/>
	</g>
	<g>
		<polygon points="381.758,51.165 389.325,47.72 381.758,44.274 		"/>
	</g>
	<g>
		<g>
			<polygon points="481.932,163.316 478.487,170.882 475.042,163.316 			"/>
		</g>
		<g>
			<polygon points="622.499,110.418 619.053,102.853 615.608,110.418 			"/>
		</g>
	</g>
	<g>
		<g>
			<polygon points="91.126,163.316 87.681,170.882 84.236,163.316 			"/>
		</g>
		<g>
			<polygon points="231.692,110.418 228.247,102.853 224.802,110.418 			"/>
		</g>
	</g>
	<g>
		<path fill="#E84830" d="M326.979,242.946c0-0.375-0.132-0.664-0.396-0.867s-0.739-0.408-1.427-0.615s-1.234-0.438-1.641-0.691
			c-0.777-0.488-1.166-1.125-1.166-1.91c0-0.688,0.28-1.254,0.841-1.699s1.288-0.668,2.183-0.668c0.594,0,1.123,0.109,1.588,0.328
			s0.83,0.53,1.096,0.935s0.398,0.853,0.398,1.345h-1.477c0-0.445-0.14-0.794-0.419-1.046s-0.679-0.378-1.198-0.378
			c-0.484,0-0.86,0.104-1.128,0.311s-0.401,0.496-0.401,0.867c0,0.313,0.145,0.573,0.434,0.782s0.766,0.412,1.43,0.609
			s1.197,0.422,1.6,0.674s0.697,0.541,0.885,0.867s0.281,0.708,0.281,1.146c0,0.711-0.272,1.276-0.817,1.696s-1.284,0.63-2.218,0.63
			c-0.617,0-1.185-0.114-1.702-0.343s-0.92-0.544-1.207-0.946s-0.431-0.871-0.431-1.406h1.482c0,0.484,0.16,0.859,0.48,1.125
			s0.779,0.398,1.377,0.398c0.516,0,0.903-0.104,1.163-0.313S326.979,243.29,326.979,242.946z"/>
		<path fill="#E84830" d="M331.408,237.263v1.541h1.119v1.055h-1.119v3.539c0,0.242,0.048,0.417,0.144,0.524
			s0.267,0.161,0.513,0.161c0.164,0,0.33-0.02,0.498-0.059v1.102c-0.324,0.09-0.637,0.135-0.938,0.135
			c-1.094,0-1.641-0.604-1.641-1.811v-3.592h-1.043v-1.055h1.043v-1.541H331.408z"/>
		<path fill="#E84830" d="M336.406,245.261c-0.902,0-1.634-0.284-2.194-0.853s-0.841-1.325-0.841-2.271v-0.176
			c0-0.633,0.122-1.198,0.366-1.696s0.587-0.886,1.028-1.163s0.934-0.416,1.477-0.416c0.863,0,1.53,0.275,2.001,0.826
			s0.706,1.33,0.706,2.338v0.574h-4.143c0.043,0.523,0.218,0.938,0.524,1.242s0.692,0.457,1.157,0.457
			c0.652,0,1.184-0.264,1.594-0.791l0.768,0.732c-0.254,0.379-0.593,0.673-1.017,0.882S336.934,245.261,336.406,245.261z
			 M336.236,239.829c-0.391,0-0.706,0.137-0.946,0.41s-0.394,0.654-0.46,1.143h2.713v-0.105c-0.031-0.477-0.158-0.837-0.381-1.081
			S336.631,239.829,336.236,239.829z"/>
		<path fill="#E84830" d="M345.605,242.038c0,0.98-0.223,1.763-0.668,2.347s-1.043,0.876-1.793,0.876
			c-0.695,0-1.252-0.229-1.67-0.686v3.006h-1.424v-8.777h1.313l0.059,0.645c0.418-0.508,0.986-0.762,1.705-0.762
			c0.773,0,1.38,0.288,1.819,0.864s0.659,1.376,0.659,2.399V242.038z M344.188,241.915c0-0.633-0.126-1.135-0.378-1.506
			s-0.612-0.557-1.081-0.557c-0.582,0-1,0.24-1.254,0.721v2.813c0.258,0.492,0.68,0.738,1.266,0.738
			c0.453,0,0.808-0.183,1.063-0.548S344.188,242.657,344.188,241.915z"/>
		<path fill="#E84830" d="M347.697,243.644c0.266,0,0.471,0.075,0.615,0.226s0.217,0.339,0.217,0.565
			c0,0.223-0.072,0.407-0.217,0.554s-0.35,0.22-0.615,0.22c-0.254,0-0.455-0.072-0.604-0.217s-0.223-0.33-0.223-0.557
			s0.072-0.415,0.217-0.565S347.436,243.644,347.697,243.644z"/>
		<path fill="#E84830" d="M355.807,245.144h-5.737v-0.979l2.842-3.1c0.41-0.457,0.702-0.839,0.875-1.146s0.262-0.614,0.262-0.923
			c0-0.406-0.115-0.734-0.344-0.984s-0.536-0.375-0.922-0.375c-0.461,0-0.818,0.141-1.072,0.422s-0.381,0.666-0.381,1.154h-1.424
			c0-0.52,0.118-0.987,0.354-1.403s0.574-0.739,1.014-0.97s0.946-0.346,1.521-0.346c0.829,0,1.481,0.208,1.959,0.624
			s0.719,0.991,0.719,1.726c0,0.426-0.121,0.872-0.361,1.339s-0.633,0.997-1.18,1.591l-2.086,2.232h3.961V245.144z"/>
	</g>
	<g>
		<path fill="#E84830" d="M327.063,37.6c0-0.375-0.132-0.664-0.396-0.867s-0.739-0.408-1.427-0.615s-1.234-0.438-1.641-0.691
			c-0.777-0.488-1.166-1.125-1.166-1.91c0-0.688,0.28-1.254,0.841-1.699s1.288-0.668,2.183-0.668c0.594,0,1.123,0.109,1.588,0.328
			s0.83,0.53,1.096,0.935s0.398,0.853,0.398,1.345h-1.477c0-0.445-0.14-0.794-0.419-1.046s-0.679-0.378-1.198-0.378
			c-0.484,0-0.86,0.104-1.128,0.311s-0.401,0.496-0.401,0.867c0,0.313,0.145,0.573,0.434,0.782s0.766,0.412,1.43,0.609
			s1.197,0.422,1.6,0.674s0.697,0.541,0.885,0.867s0.281,0.708,0.281,1.146c0,0.711-0.272,1.276-0.817,1.696s-1.284,0.63-2.218,0.63
			c-0.617,0-1.185-0.114-1.702-0.343s-0.92-0.544-1.207-0.946s-0.431-0.871-0.431-1.406h1.482c0,0.484,0.16,0.859,0.48,1.125
			s0.779,0.398,1.377,0.398c0.516,0,0.903-0.104,1.163-0.313S327.063,37.944,327.063,37.6z"/>
		<path fill="#E84830" d="M331.493,31.917v1.541h1.119v1.055h-1.119v3.539c0,0.242,0.048,0.417,0.144,0.524s0.267,0.161,0.513,0.161
			c0.164,0,0.33-0.02,0.498-0.059v1.102c-0.324,0.09-0.637,0.135-0.938,0.135c-1.094,0-1.641-0.604-1.641-1.811v-3.592h-1.043
			v-1.055h1.043v-1.541H331.493z"/>
		<path fill="#E84830" d="M336.491,39.915c-0.902,0-1.634-0.284-2.194-0.853s-0.841-1.325-0.841-2.271v-0.176
			c0-0.633,0.122-1.198,0.366-1.696s0.587-0.886,1.028-1.163s0.934-0.416,1.477-0.416c0.863,0,1.53,0.275,2.001,0.826
			s0.706,1.33,0.706,2.338v0.574h-4.143c0.043,0.523,0.218,0.938,0.524,1.242s0.692,0.457,1.157,0.457
			c0.652,0,1.184-0.264,1.594-0.791l0.768,0.732c-0.254,0.379-0.593,0.673-1.017,0.882S337.019,39.915,336.491,39.915z
			 M336.321,34.483c-0.391,0-0.706,0.137-0.946,0.41s-0.394,0.654-0.46,1.143h2.713V35.93c-0.031-0.477-0.158-0.837-0.381-1.081
			S336.716,34.483,336.321,34.483z"/>
		<path fill="#E84830" d="M345.69,36.692c0,0.98-0.223,1.763-0.668,2.347s-1.043,0.876-1.793,0.876c-0.695,0-1.252-0.229-1.67-0.686
			v3.006h-1.424v-8.777h1.313l0.059,0.645c0.418-0.508,0.986-0.762,1.705-0.762c0.773,0,1.38,0.288,1.819,0.864
			s0.659,1.376,0.659,2.399V36.692z M344.272,36.569c0-0.633-0.126-1.135-0.378-1.506s-0.612-0.557-1.081-0.557
			c-0.582,0-1,0.24-1.254,0.721v2.813c0.258,0.492,0.68,0.738,1.266,0.738c0.453,0,0.808-0.183,1.063-0.548
			S344.272,37.311,344.272,36.569z"/>
		<path fill="#E84830" d="M347.782,38.297c0.266,0,0.471,0.075,0.615,0.226s0.217,0.339,0.217,0.565
			c0,0.223-0.072,0.407-0.217,0.554s-0.35,0.22-0.615,0.22c-0.254,0-0.455-0.072-0.604-0.217s-0.223-0.33-0.223-0.557
			s0.072-0.415,0.217-0.565S347.521,38.297,347.782,38.297z"/>
		<path fill="#E84830" d="M350.536,35.567l0.463-4.301h4.583v1.23h-3.399l-0.234,2.039c0.395-0.227,0.84-0.34,1.336-0.34
			c0.813,0,1.445,0.26,1.896,0.779s0.677,1.219,0.677,2.098c0,0.867-0.25,1.558-0.75,2.071s-1.186,0.771-2.057,0.771
			c-0.781,0-1.429-0.222-1.942-0.665s-0.792-1.028-0.835-1.755h1.377c0.055,0.414,0.203,0.731,0.445,0.952s0.559,0.331,0.949,0.331
			c0.438,0,0.779-0.156,1.023-0.469s0.366-0.738,0.366-1.277c0-0.52-0.135-0.931-0.404-1.233s-0.641-0.454-1.114-0.454
			c-0.258,0-0.477,0.034-0.656,0.103s-0.375,0.202-0.586,0.401L350.536,35.567z"/>
	</g>
	<g>
		<path fill="#E84830" d="M245.193,132.739c0-0.375-0.132-0.664-0.396-0.867s-0.739-0.408-1.427-0.615s-1.234-0.438-1.641-0.691
			c-0.777-0.488-1.166-1.125-1.166-1.91c0-0.688,0.28-1.254,0.841-1.699s1.288-0.668,2.183-0.668c0.594,0,1.123,0.109,1.588,0.328
			s0.83,0.53,1.096,0.935s0.398,0.853,0.398,1.345h-1.477c0-0.445-0.14-0.794-0.419-1.046s-0.679-0.378-1.198-0.378
			c-0.484,0-0.86,0.104-1.128,0.311s-0.401,0.496-0.401,0.867c0,0.313,0.145,0.573,0.434,0.782s0.766,0.412,1.43,0.609
			s1.197,0.422,1.6,0.674s0.697,0.541,0.885,0.867s0.281,0.708,0.281,1.146c0,0.711-0.272,1.276-0.817,1.696s-1.284,0.63-2.218,0.63
			c-0.617,0-1.185-0.114-1.702-0.343s-0.92-0.544-1.207-0.946s-0.431-0.871-0.431-1.406h1.482c0,0.484,0.16,0.859,0.48,1.125
			s0.779,0.398,1.377,0.398c0.516,0,0.903-0.104,1.163-0.313S245.193,133.083,245.193,132.739z"/>
		<path fill="#E84830" d="M249.623,127.056v1.541h1.119v1.055h-1.119v3.539c0,0.242,0.048,0.417,0.144,0.524
			s0.267,0.161,0.513,0.161c0.164,0,0.33-0.02,0.498-0.059v1.102c-0.324,0.09-0.637,0.135-0.938,0.135
			c-1.094,0-1.641-0.604-1.641-1.811v-3.592h-1.043v-1.055h1.043v-1.541H249.623z"/>
		<path fill="#E84830" d="M254.621,135.054c-0.902,0-1.634-0.284-2.194-0.853s-0.841-1.325-0.841-2.271v-0.176
			c0-0.633,0.122-1.198,0.366-1.696s0.587-0.886,1.028-1.163s0.934-0.416,1.477-0.416c0.863,0,1.53,0.275,2.001,0.826
			s0.706,1.33,0.706,2.338v0.574h-4.143c0.043,0.523,0.218,0.938,0.524,1.242s0.692,0.457,1.157,0.457
			c0.652,0,1.184-0.264,1.594-0.791l0.768,0.732c-0.254,0.379-0.593,0.673-1.017,0.882S255.148,135.054,254.621,135.054z
			 M254.451,129.622c-0.391,0-0.706,0.137-0.946,0.41s-0.394,0.654-0.46,1.143h2.713v-0.105c-0.031-0.477-0.158-0.837-0.381-1.081
			S254.846,129.622,254.451,129.622z"/>
		<path fill="#E84830" d="M263.82,131.831c0,0.98-0.223,1.763-0.668,2.347s-1.043,0.876-1.793,0.876
			c-0.695,0-1.252-0.229-1.67-0.686v3.006h-1.424v-8.777h1.313l0.059,0.645c0.418-0.508,0.986-0.762,1.705-0.762
			c0.773,0,1.38,0.288,1.819,0.864s0.659,1.376,0.659,2.399V131.831z M262.402,131.708c0-0.633-0.126-1.135-0.378-1.506
			s-0.612-0.557-1.081-0.557c-0.582,0-1,0.24-1.254,0.721v2.813c0.258,0.492,0.68,0.738,1.266,0.738
			c0.453,0,0.808-0.183,1.063-0.548S262.402,132.45,262.402,131.708z"/>
		<path fill="#E84830" d="M265.912,133.437c0.266,0,0.471,0.075,0.615,0.226s0.217,0.339,0.217,0.565
			c0,0.223-0.072,0.407-0.217,0.554s-0.35,0.22-0.615,0.22c-0.254,0-0.455-0.072-0.604-0.217s-0.223-0.33-0.223-0.557
			s0.072-0.415,0.217-0.565S265.65,133.437,265.912,133.437z"/>
		<path fill="#E84830" d="M269.932,130.021h0.867c0.438-0.004,0.784-0.117,1.04-0.34s0.384-0.545,0.384-0.967
			c0-0.406-0.106-0.722-0.319-0.946s-0.538-0.337-0.976-0.337c-0.383,0-0.697,0.11-0.943,0.331s-0.369,0.509-0.369,0.864h-1.424
			c0-0.438,0.116-0.836,0.349-1.195s0.557-0.64,0.973-0.841s0.882-0.302,1.397-0.302c0.852,0,1.521,0.214,2.007,0.642
			s0.729,1.022,0.729,1.784c0,0.383-0.122,0.743-0.366,1.081s-0.56,0.593-0.946,0.765c0.469,0.16,0.825,0.412,1.069,0.756
			s0.366,0.754,0.366,1.23c0,0.766-0.263,1.375-0.788,1.828s-1.216,0.68-2.071,0.68c-0.82,0-1.492-0.219-2.016-0.656
			s-0.785-1.02-0.785-1.746h1.424c0,0.375,0.126,0.68,0.378,0.914s0.591,0.352,1.017,0.352c0.441,0,0.789-0.117,1.043-0.352
			s0.381-0.574,0.381-1.02c0-0.449-0.133-0.795-0.398-1.037s-0.66-0.363-1.184-0.363h-0.838V130.021z"/>
	</g>
	<g>
		<path fill="#E84830" d="M492.244,132.739c0-0.375-0.132-0.664-0.396-0.867s-0.739-0.408-1.427-0.615s-1.234-0.438-1.641-0.691
			c-0.777-0.488-1.166-1.125-1.166-1.91c0-0.688,0.28-1.254,0.841-1.699s1.288-0.668,2.183-0.668c0.594,0,1.123,0.109,1.588,0.328
			s0.83,0.53,1.096,0.935s0.398,0.853,0.398,1.345h-1.477c0-0.445-0.14-0.794-0.419-1.046s-0.679-0.378-1.198-0.378
			c-0.484,0-0.86,0.104-1.128,0.311s-0.401,0.496-0.401,0.867c0,0.313,0.145,0.573,0.434,0.782s0.766,0.412,1.43,0.609
			s1.197,0.422,1.6,0.674s0.697,0.541,0.885,0.867s0.281,0.708,0.281,1.146c0,0.711-0.272,1.276-0.817,1.696s-1.284,0.63-2.218,0.63
			c-0.617,0-1.185-0.114-1.702-0.343s-0.92-0.544-1.207-0.946s-0.431-0.871-0.431-1.406h1.482c0,0.484,0.16,0.859,0.48,1.125
			s0.779,0.398,1.377,0.398c0.516,0,0.903-0.104,1.163-0.313S492.244,133.083,492.244,132.739z"/>
		<path fill="#E84830" d="M496.673,127.056v1.541h1.119v1.055h-1.119v3.539c0,0.242,0.048,0.417,0.144,0.524
			s0.267,0.161,0.513,0.161c0.164,0,0.33-0.02,0.498-0.059v1.102c-0.324,0.09-0.637,0.135-0.938,0.135
			c-1.094,0-1.641-0.604-1.641-1.811v-3.592h-1.043v-1.055h1.043v-1.541H496.673z"/>
		<path fill="#E84830" d="M501.671,135.054c-0.902,0-1.634-0.284-2.194-0.853s-0.841-1.325-0.841-2.271v-0.176
			c0-0.633,0.122-1.198,0.366-1.696s0.587-0.886,1.028-1.163s0.934-0.416,1.477-0.416c0.863,0,1.53,0.275,2.001,0.826
			s0.706,1.33,0.706,2.338v0.574h-4.143c0.043,0.523,0.218,0.938,0.524,1.242s0.692,0.457,1.157,0.457
			c0.652,0,1.184-0.264,1.594-0.791l0.768,0.732c-0.254,0.379-0.593,0.673-1.017,0.882S502.199,135.054,501.671,135.054z
			 M501.501,129.622c-0.391,0-0.706,0.137-0.946,0.41s-0.394,0.654-0.46,1.143h2.713v-0.105c-0.031-0.477-0.158-0.837-0.381-1.081
			S501.896,129.622,501.501,129.622z"/>
		<path fill="#E84830" d="M510.871,131.831c0,0.98-0.223,1.763-0.668,2.347s-1.043,0.876-1.793,0.876
			c-0.695,0-1.252-0.229-1.67-0.686v3.006h-1.424v-8.777h1.313l0.059,0.645c0.418-0.508,0.986-0.762,1.705-0.762
			c0.773,0,1.38,0.288,1.819,0.864s0.659,1.376,0.659,2.399V131.831z M509.453,131.708c0-0.633-0.126-1.135-0.378-1.506
			s-0.612-0.557-1.081-0.557c-0.582,0-1,0.24-1.254,0.721v2.813c0.258,0.492,0.68,0.738,1.266,0.738
			c0.453,0,0.808-0.183,1.063-0.548S509.453,132.45,509.453,131.708z"/>
		<path fill="#E84830" d="M512.962,133.437c0.266,0,0.471,0.075,0.615,0.226s0.217,0.339,0.217,0.565
			c0,0.223-0.072,0.407-0.217,0.554s-0.35,0.22-0.615,0.22c-0.254,0-0.455-0.072-0.604-0.217s-0.223-0.33-0.223-0.557
			s0.072-0.415,0.217-0.565S512.701,133.437,512.962,133.437z"/>
		<path fill="#E84830" d="M519.765,126.364v1.178h-0.176c-0.797,0.012-1.434,0.23-1.91,0.656s-0.76,1.029-0.85,1.811
			c0.457-0.48,1.041-0.721,1.752-0.721c0.754,0,1.349,0.266,1.784,0.797s0.653,1.217,0.653,2.057c0,0.867-0.255,1.569-0.765,2.106
			s-1.179,0.806-2.007,0.806c-0.852,0-1.542-0.314-2.071-0.943s-0.794-1.453-0.794-2.473v-0.486c0-1.496,0.364-2.668,1.093-3.516
			s1.776-1.271,3.144-1.271H519.765z M518.236,130.437c-0.313,0-0.599,0.088-0.858,0.264s-0.45,0.41-0.571,0.703v0.434
			c0,0.633,0.133,1.136,0.398,1.509s0.609,0.56,1.031,0.56s0.756-0.158,1.002-0.475s0.369-0.732,0.369-1.248
			s-0.125-0.936-0.375-1.26S518.65,130.437,518.236,130.437z"/>
	</g>
	<g>
		<path fill="#E84830" d="M103.5,132.739c0-0.375-0.132-0.664-0.396-0.867s-0.739-0.408-1.427-0.615s-1.234-0.438-1.641-0.691
			c-0.777-0.488-1.166-1.125-1.166-1.91c0-0.688,0.28-1.254,0.841-1.699s1.288-0.668,2.183-0.668c0.594,0,1.123,0.109,1.588,0.328
			s0.83,0.53,1.096,0.935s0.398,0.853,0.398,1.345H103.5c0-0.445-0.14-0.794-0.419-1.046s-0.679-0.378-1.198-0.378
			c-0.484,0-0.86,0.104-1.128,0.311s-0.401,0.496-0.401,0.867c0,0.313,0.145,0.573,0.434,0.782s0.766,0.412,1.43,0.609
			s1.197,0.422,1.6,0.674s0.697,0.541,0.885,0.867s0.281,0.708,0.281,1.146c0,0.711-0.272,1.276-0.817,1.696s-1.284,0.63-2.218,0.63
			c-0.617,0-1.185-0.114-1.702-0.343s-0.92-0.544-1.207-0.946s-0.431-0.871-0.431-1.406h1.482c0,0.484,0.16,0.859,0.48,1.125
			s0.779,0.398,1.377,0.398c0.516,0,0.903-0.104,1.163-0.313S103.5,133.083,103.5,132.739z"/>
		<path fill="#E84830" d="M107.929,127.056v1.541h1.119v1.055h-1.119v3.539c0,0.242,0.048,0.417,0.144,0.524
			s0.267,0.161,0.513,0.161c0.164,0,0.33-0.02,0.498-0.059v1.102c-0.324,0.09-0.637,0.135-0.938,0.135
			c-1.094,0-1.641-0.604-1.641-1.811v-3.592h-1.043v-1.055h1.043v-1.541H107.929z"/>
		<path fill="#E84830" d="M112.927,135.054c-0.902,0-1.634-0.284-2.194-0.853s-0.841-1.325-0.841-2.271v-0.176
			c0-0.633,0.122-1.198,0.366-1.696s0.587-0.886,1.028-1.163s0.934-0.416,1.477-0.416c0.863,0,1.53,0.275,2.001,0.826
			s0.706,1.33,0.706,2.338v0.574h-4.143c0.043,0.523,0.218,0.938,0.524,1.242s0.692,0.457,1.157,0.457
			c0.652,0,1.184-0.264,1.594-0.791l0.768,0.732c-0.254,0.379-0.593,0.673-1.017,0.882S113.455,135.054,112.927,135.054z
			 M112.757,129.622c-0.391,0-0.706,0.137-0.946,0.41s-0.394,0.654-0.46,1.143h2.713v-0.105c-0.031-0.477-0.158-0.837-0.381-1.081
			S113.152,129.622,112.757,129.622z"/>
		<path fill="#E84830" d="M122.126,131.831c0,0.98-0.223,1.763-0.668,2.347s-1.043,0.876-1.793,0.876
			c-0.695,0-1.252-0.229-1.67-0.686v3.006h-1.424v-8.777h1.313l0.059,0.645c0.418-0.508,0.986-0.762,1.705-0.762
			c0.773,0,1.38,0.288,1.819,0.864s0.659,1.376,0.659,2.399V131.831z M120.708,131.708c0-0.633-0.126-1.135-0.378-1.506
			s-0.612-0.557-1.081-0.557c-0.582,0-1,0.24-1.254,0.721v2.813c0.258,0.492,0.68,0.738,1.266,0.738
			c0.453,0,0.808-0.183,1.063-0.548S120.708,132.45,120.708,131.708z"/>
		<path fill="#E84830" d="M124.218,133.437c0.266,0,0.471,0.075,0.615,0.226s0.217,0.339,0.217,0.565
			c0,0.223-0.072,0.407-0.217,0.554s-0.35,0.22-0.615,0.22c-0.254,0-0.455-0.072-0.604-0.217s-0.223-0.33-0.223-0.557
			s0.072-0.415,0.217-0.565S123.957,133.437,124.218,133.437z"/>
		<path fill="#E84830" d="M131.408,131.896h1.061v1.143h-1.061v1.898h-1.424v-1.898h-3.686l-0.041-0.867l3.68-5.766h1.471V131.896z
			 M127.751,131.896h2.232v-3.563l-0.105,0.188L127.751,131.896z"/>
	</g>
	<g>
		<path fill="#E84830" d="M634.979,132.784c0-0.375-0.132-0.664-0.396-0.867s-0.739-0.408-1.427-0.615s-1.234-0.438-1.641-0.691
			c-0.777-0.488-1.166-1.125-1.166-1.91c0-0.688,0.28-1.254,0.841-1.699s1.288-0.668,2.183-0.668c0.594,0,1.123,0.109,1.588,0.328
			s0.83,0.53,1.096,0.935s0.398,0.853,0.398,1.345h-1.477c0-0.445-0.14-0.794-0.419-1.046s-0.679-0.378-1.198-0.378
			c-0.484,0-0.86,0.104-1.128,0.311s-0.401,0.496-0.401,0.867c0,0.313,0.145,0.573,0.434,0.782s0.766,0.412,1.43,0.609
			s1.197,0.422,1.6,0.674s0.697,0.541,0.885,0.867s0.281,0.708,0.281,1.146c0,0.711-0.272,1.276-0.817,1.696s-1.284,0.63-2.218,0.63
			c-0.617,0-1.185-0.114-1.702-0.343s-0.92-0.544-1.207-0.946s-0.431-0.871-0.431-1.406h1.482c0,0.484,0.16,0.859,0.48,1.125
			s0.779,0.398,1.377,0.398c0.516,0,0.903-0.104,1.163-0.313S634.979,133.127,634.979,132.784z"/>
		<path fill="#E84830" d="M639.409,127.1v1.541h1.119v1.055h-1.119v3.539c0,0.242,0.048,0.417,0.144,0.524s0.267,0.161,0.513,0.161
			c0.164,0,0.33-0.02,0.498-0.059v1.102c-0.324,0.09-0.637,0.135-0.938,0.135c-1.094,0-1.641-0.604-1.641-1.811v-3.592h-1.043
			v-1.055h1.043V127.1H639.409z"/>
		<path fill="#E84830" d="M644.407,135.098c-0.902,0-1.634-0.284-2.194-0.853s-0.841-1.325-0.841-2.271v-0.176
			c0-0.633,0.122-1.198,0.366-1.696s0.587-0.886,1.028-1.163s0.934-0.416,1.477-0.416c0.863,0,1.53,0.275,2.001,0.826
			s0.706,1.33,0.706,2.338v0.574h-4.143c0.043,0.523,0.218,0.938,0.524,1.242s0.692,0.457,1.157,0.457
			c0.652,0,1.184-0.264,1.594-0.791l0.768,0.732c-0.254,0.379-0.593,0.673-1.017,0.882S644.934,135.098,644.407,135.098z
			 M644.237,129.667c-0.391,0-0.706,0.137-0.946,0.41s-0.394,0.654-0.46,1.143h2.713v-0.105c-0.031-0.477-0.158-0.837-0.381-1.081
			S644.631,129.667,644.237,129.667z"/>
		<path fill="#E84830" d="M653.606,131.875c0,0.98-0.223,1.763-0.668,2.347s-1.043,0.876-1.793,0.876
			c-0.695,0-1.252-0.229-1.67-0.686v3.006h-1.424v-8.777h1.313l0.059,0.645c0.418-0.508,0.986-0.762,1.705-0.762
			c0.773,0,1.38,0.288,1.819,0.864s0.659,1.376,0.659,2.399V131.875z M652.188,131.752c0-0.633-0.126-1.135-0.378-1.506
			s-0.612-0.557-1.081-0.557c-0.582,0-1,0.24-1.254,0.721v2.813c0.258,0.492,0.68,0.738,1.266,0.738
			c0.453,0,0.808-0.183,1.063-0.548S652.188,132.495,652.188,131.752z"/>
		<path fill="#E84830" d="M655.698,133.481c0.266,0,0.471,0.075,0.615,0.226s0.217,0.339,0.217,0.565
			c0,0.223-0.072,0.407-0.217,0.554s-0.35,0.22-0.615,0.22c-0.254,0-0.455-0.072-0.604-0.217s-0.223-0.33-0.223-0.557
			s0.072-0.415,0.217-0.565S655.436,133.481,655.698,133.481z"/>
		<path fill="#E84830" d="M661.926,134.981h-1.418v-6.854l-2.092,0.713v-1.195l3.328-1.225h0.182V134.981z"/>
	</g>
	<g>
		<g>
			<g>
				<path d="M489.432,145.28c0,1.848-0.181,4.582-1.309,6.333c-0.191-0.168-0.684-0.516-0.947-0.624
					c1.044-1.655,1.14-4.029,1.14-5.709v-3.082h4.246v-1.583h1.151v1.583h4.461v1.067h-8.742V145.28z M497.25,151.661
					c-0.107-0.312-0.264-0.684-0.455-1.067c-2.65,0.18-5.434,0.348-7.328,0.456l-0.107-1.151c0.42-0.013,0.899-0.036,1.427-0.048
					c0.636-1.644,1.367-4.066,1.739-5.913l1.26,0.275c-0.492,1.835-1.188,4.006-1.812,5.589c1.319-0.06,2.818-0.119,4.306-0.191
					c-0.468-0.815-1.02-1.667-1.559-2.387l1.02-0.456c1.043,1.344,2.182,3.143,2.638,4.366L497.25,151.661z"/>
				<path d="M510.043,144.933v1.044h-10.471v-1.044h4.917v-1.655h-2.782c-0.348,0.576-0.707,1.08-1.067,1.487
					c-0.24-0.155-0.743-0.455-1.02-0.6c0.863-0.815,1.619-2.158,2.051-3.466l1.115,0.264c-0.155,0.432-0.335,0.876-0.527,1.296h2.23
					v-1.632h1.175v1.632h3.551v1.019h-3.551v1.655H510.043z M501,147.02h7.747v4.653h-1.163v-0.611h-5.457v0.636H501V147.02z
					 M502.127,148.051v1.979h5.457v-1.979H502.127z"/>
				<path d="M511.453,141.071h5.373v0.983h-1.56v1.199h1.308v8.155h-0.899v-0.623h-3.082v0.791h-0.876v-8.323h1.403v-1.199h-1.667
					V141.071z M512.592,148.039h3.082v-0.983c-0.036,0.012-0.084,0.012-0.132,0.012h-0.491c-0.492,0-0.637-0.144-0.637-0.768v-2.11
					h-0.563v0.947c0,0.708-0.144,1.631-0.815,2.279c-0.096-0.12-0.324-0.313-0.443-0.396c0.6-0.563,0.695-1.295,0.695-1.895v-0.936
					h-0.695V148.039z M515.674,149.898v-1.056h-3.082v1.056H515.674z M514.487,142.055h-0.6v1.199h0.6V142.055z M515.674,144.189
					h-0.695v2.099c0,0.156,0.012,0.18,0.131,0.18h0.336c0.121,0,0.156-0.012,0.168-0.036c0.024,0.013,0.037,0.024,0.061,0.049
					V144.189z M520.711,150.45c0.492,0,0.576-0.3,0.648-1.967c0.251,0.203,0.707,0.396,1.007,0.468
					c-0.12,1.967-0.42,2.53-1.571,2.53h-1.859c-1.188,0-1.559-0.324-1.559-1.583v-5.062h3.466v-2.603h-3.502v-1.067h4.581v5.517
					h-1.079v-0.791h-2.362v4.006c0,0.468,0.096,0.552,0.6,0.552H520.711z"/>
				<path d="M527.638,143.445c-0.323,0.708-0.708,1.392-1.14,2.027h2.314v-1.512h1.128v1.512h3.503v3.778
					c0,0.551-0.121,0.851-0.528,1.019c-0.407,0.156-1.044,0.181-2.015,0.168c-0.049-0.3-0.204-0.731-0.36-1.007
					c0.672,0.023,1.343,0.023,1.523,0.012c0.192,0,0.252-0.048,0.252-0.216v-2.711h-2.375v5.121h-1.128v-5.121h-2.254v4.03h-1.115
					v-3.706c-0.492,0.54-1.031,1.02-1.631,1.451c-0.145-0.288-0.432-0.731-0.648-0.972c1.392-0.947,2.471-2.339,3.227-3.874h-2.854
					v-1.067h3.334c0.239-0.6,0.444-1.199,0.588-1.787l1.151,0.276c-0.145,0.504-0.324,1.008-0.516,1.511h5.973v1.067H527.638z"/>
				<path d="M537.79,144.729c0.768,0,1.391,0.624,1.391,1.392s-0.623,1.392-1.391,1.392s-1.391-0.624-1.391-1.392
					S537.022,144.729,537.79,144.729z"/>
				<path d="M544.536,143.745h2.098v0.948h-1.115l0.516,0.132c-0.203,0.504-0.42,1.031-0.611,1.415h1.067v0.959h-1.954v1.128h1.799
					v0.947h-1.799v2.314h-1.044v-2.314h-1.884v-0.947h1.884v-1.128H541.5v-0.959h1.043c-0.06-0.408-0.239-0.972-0.455-1.415
					l0.492-0.132h-1.283v-0.948h2.194v-1.043h-1.763v-0.936h1.763v-1.127h1.044v1.127h1.654v0.936h-1.654V143.745z M544.559,146.132
					c0.168-0.407,0.384-1.007,0.504-1.438h-2.075c0.216,0.468,0.42,1.055,0.468,1.438l-0.396,0.108h1.908L544.559,146.132z
					 M552.006,145.4c-0.239,1.428-0.695,2.771-1.355,3.91c0.517,0.6,1.116,1.092,1.787,1.427c-0.239,0.204-0.575,0.612-0.743,0.888
					c-0.611-0.359-1.163-0.839-1.655-1.415c-0.42,0.552-0.911,1.031-1.463,1.427c-0.145-0.203-0.384-0.467-0.611-0.647v0.636h-1.008
					v-10.482h4.773v2.268c0,0.516-0.107,0.803-0.527,0.959c-0.396,0.156-1.008,0.156-1.907,0.156
					c-0.048-0.288-0.192-0.696-0.336-0.96c0.684,0.024,1.319,0.024,1.499,0.013c0.18-0.013,0.229-0.049,0.229-0.181v-1.271h-2.723
					v3.07h3.178l0.18-0.048L552.006,145.4z M547.965,150.786c0.551-0.384,1.02-0.876,1.427-1.439
					c-0.611-0.947-1.079-2.051-1.427-3.238V150.786z M548.901,146.108c0.264,0.815,0.623,1.595,1.066,2.303
					c0.385-0.72,0.66-1.499,0.852-2.303H548.901z"/>
				<path d="M556.547,143.386h1.163v8h-0.827v-0.612h-2.567v0.78h-0.792v-8.168h1.116v-1.367h-1.308v-0.888h4.533v0.888h-1.318
					V143.386z M556.452,146.864c-0.492,0-0.637-0.133-0.637-0.756v-1.812h-0.467v0.996c0,0.684-0.121,1.595-0.721,2.219
					c-0.071-0.072-0.191-0.204-0.312-0.288v0.815h2.567v-1.175H556.452z M554.316,144.297v2.711c0.42-0.527,0.491-1.176,0.491-1.728
					v-0.983H554.316z M556.883,149.898v-1.044h-2.567v1.044H556.883z M555.348,143.386h0.467v-1.367h-0.467V143.386z
					 M556.883,144.297h-0.504v1.8c0,0.155,0.023,0.167,0.131,0.167h0.289h0.084V144.297z M559.018,144.226
					c-0.084,1.055-0.24,2.362-0.672,3.178l-0.6-0.504c0.371-0.659,0.539-1.835,0.611-2.842L559.018,144.226z M563.875,140.867
					v10.758h-0.936v-4.81l-0.444,0.24c-0.096-0.552-0.348-1.331-0.612-2.039v6.32h-0.91v-4.485l-0.517,0.252
					c-0.048-0.611-0.251-1.475-0.491-2.23v0.756c0,2.23-0.145,4.377-1.271,6.044c-0.18-0.191-0.564-0.455-0.816-0.587
					c1.057-1.5,1.188-3.419,1.188-5.457v-4.738h0.9v3.526l0.504-0.239c0.191,0.491,0.371,1.079,0.504,1.606v-4.701h0.91v3.179
					l0.396-0.192c0.252,0.516,0.479,1.104,0.66,1.667v-4.869H563.875z"/>
				<path d="M574.832,145.484c-0.636,1.644-1.667,2.891-2.975,3.838c1.235,0.624,2.735,1.044,4.462,1.247
					c-0.252,0.265-0.552,0.768-0.708,1.08c-1.919-0.288-3.526-0.828-4.856-1.631c-1.439,0.779-3.107,1.283-4.87,1.595
					c-0.096-0.288-0.396-0.804-0.624-1.067c1.644-0.24,3.166-0.636,4.475-1.247c-0.936-0.768-1.691-1.703-2.268-2.843l0.828-0.288
					h-2.004v-1.104h3.887v-1.643h-4.438v-1.104h4.438v-1.703h1.151v1.703h4.474v1.104h-4.474v1.643h2.53l0.191-0.048
					L574.832,145.484z M568.536,146.168c0.527,1.02,1.295,1.859,2.277,2.543c1.008-0.66,1.836-1.487,2.411-2.543H568.536z"/>
				<path d="M580.271,147.176v3.143c0,0.635-0.132,0.936-0.503,1.115c-0.385,0.155-0.973,0.191-1.884,0.191
					c-0.048-0.288-0.18-0.756-0.323-1.056c0.6,0.024,1.199,0.024,1.379,0.013c0.18-0.013,0.24-0.061,0.24-0.264v-2.879l-1.728,0.42
					l-0.252-1.092c0.552-0.107,1.235-0.252,1.979-0.407v-2.351h-1.799v-1.032h1.799v-2.374h1.091v2.374h1.644v1.032h-1.644v2.11
					c0.563-0.132,1.14-0.264,1.716-0.396l0.084,1.007L580.271,147.176z M587.334,151.613c-0.071-0.312-0.18-0.672-0.299-1.056
					c-2.184,0.312-4.474,0.612-6.081,0.828l-0.239-1.164c0.359-0.036,0.779-0.084,1.223-0.132c0.744-2.494,1.559-6.272,1.955-9.163
					l1.211,0.216c-0.479,2.867-1.283,6.345-2.002,8.827c1.104-0.132,2.338-0.275,3.562-0.419c-0.42-1.044-0.948-2.171-1.476-3.131
					l0.972-0.348c0.948,1.631,1.919,3.742,2.255,5.121L587.334,151.613z"/>
			</g>
		</g>
		<g>
			<g>
				<path d="M639.251,142.197v6.849H638.1v-0.6h-3.046v3.178h-1.151v-3.178h-2.963v0.659h-1.104v-6.908h4.066v-1.571h1.151v1.571
					H639.251z M630.94,143.265v1.499h2.963v-1.499H630.94z M633.903,147.379v-1.583h-2.963v1.583H633.903z M635.054,143.265v1.499
					h3.046v-1.499H635.054z M638.1,147.379v-1.583h-3.046v1.583H638.1z"/>
				<path d="M643.768,149.058c0.527,0.827,1.511,1.211,2.83,1.26c1.332,0.048,3.994,0.012,5.493-0.084
					c-0.132,0.264-0.312,0.791-0.372,1.139c-1.355,0.061-3.766,0.084-5.133,0.024c-1.523-0.061-2.555-0.456-3.311-1.379
					c-0.563,0.491-1.139,0.971-1.763,1.486l-0.575-1.151c0.539-0.335,1.175-0.779,1.738-1.235v-2.818h-1.535v-1.031h2.627V149.058z
					 M643.216,143.457c-0.384-0.564-1.247-1.367-2.003-1.896l0.827-0.672c0.743,0.517,1.644,1.26,2.052,1.836L643.216,143.457z
					 M648.458,141.166c0.24,3.538,1.079,6.381,3.502,7.616c-0.264,0.18-0.66,0.575-0.875,0.852
					c-1.584-0.936-2.508-2.483-3.047-4.426c-0.611,1.942-1.584,3.418-2.998,4.426c-0.18-0.217-0.612-0.636-0.876-0.84
					c1.703-1.056,2.675-2.879,3.118-5.253l0.408,0.06c-0.072-0.443-0.12-0.911-0.168-1.379h-2.135v-1.056H648.458z"/>
				<path d="M655.514,144.728c0.768,0,1.391,0.624,1.391,1.392s-0.623,1.392-1.391,1.392s-1.391-0.624-1.391-1.392
					S654.747,144.728,655.514,144.728z"/>
				<path d="M669.768,142.689c-0.504,0.455-1.128,0.947-1.68,1.331c0.636,0.504,1.319,0.911,2.051,1.188
					c-0.252,0.216-0.588,0.636-0.744,0.923c-0.994-0.455-1.895-1.103-2.686-1.906v0.587h-4.391v-0.491
					c-0.839,0.84-1.822,1.499-2.806,1.955c-0.132-0.229-0.444-0.612-0.659-0.804c0.755-0.312,1.535-0.815,2.23-1.415
					c-0.359-0.372-0.936-0.815-1.428-1.128l0.6-0.611c0.527,0.3,1.14,0.743,1.487,1.104c0.42-0.444,0.792-0.936,1.079-1.439h-2.734
					v-0.924h3.274l0.192-0.048l0.719,0.372c-0.348,0.924-0.875,1.751-1.511,2.471h3.599c-0.756-0.852-1.38-1.835-1.848-2.914
					l0.947-0.288c0.204,0.468,0.456,0.924,0.756,1.355c0.504-0.408,1.056-0.899,1.391-1.283l0.84,0.6
					c-0.527,0.468-1.163,0.983-1.715,1.367c0.216,0.264,0.456,0.516,0.707,0.755c0.541-0.407,1.128-0.923,1.5-1.343L669.768,142.689
					z M667.249,148.938c-0.264,0.54-0.551,1.08-0.791,1.487h3.227v0.936h-10.291v-0.936h3.082c-0.119-0.432-0.371-1.008-0.623-1.439
					l0.659-0.18h-1.343v-3.154h6.704v3.154h-1.151L667.249,148.938z M662.248,147.906h4.485v-1.343h-4.485V147.906z
					 M662.918,148.806c0.301,0.468,0.576,1.056,0.684,1.487l-0.479,0.132h2.639l-0.373-0.096c0.252-0.408,0.553-1.044,0.744-1.523
					H662.918z"/>
				<path d="M678.085,149.189c-0.731,0.563-1.522,1.14-2.219,1.619l-0.288-0.504l0.012,0.097c-1.498,0.323-3.07,0.659-4.27,0.899
					l-0.228-1.02c0.528-0.084,1.175-0.204,1.883-0.336v-3.382h-1.751v-0.972h1.751V144.5h-1.151v-0.527
					c-0.119,0.107-0.24,0.228-0.371,0.348c-0.145-0.228-0.48-0.563-0.684-0.708c1.043-0.887,1.787-2.063,2.17-2.998h0.947
					c0.708,0.611,1.584,1.499,2.004,2.099l-0.721,0.84h0.097v0.947h-1.319v1.092h1.619v0.972h-1.619v3.202l1.559-0.3l0.024,0.323
					c0.6-0.372,1.403-0.899,2.219-1.439L678.085,149.189z M672.161,147.103c0.229,0.708,0.42,1.583,0.468,2.171l-0.792,0.204
					c-0.023-0.588-0.203-1.499-0.407-2.183L672.161,147.103z M675.147,143.553c-0.336-0.516-0.983-1.319-1.583-1.896
					c-0.336,0.576-0.78,1.248-1.355,1.896H675.147z M674.248,149.069c0.18-0.563,0.384-1.463,0.468-2.063l0.84,0.216
					c-0.204,0.695-0.42,1.499-0.6,2.039L674.248,149.069z M679.92,147.606c0.504,0.972,1.248,1.883,2.303,2.423
					c-0.216,0.204-0.563,0.636-0.72,0.911c-1.044-0.647-1.774-1.703-2.267-2.734v2.303c0,0.504-0.072,0.779-0.396,0.947
					c-0.311,0.156-0.779,0.168-1.427,0.168c-0.024-0.275-0.155-0.695-0.276-0.972c0.396,0.013,0.78,0.013,0.9,0.013
					c0.132-0.013,0.168-0.048,0.168-0.18v-4.954h-2.578v-0.959h4.389v-0.852h-3.537v-0.876h3.537v-0.852h-3.777v-0.936h4.809v3.515
					h0.936v0.959h-2.746v0.3c0.145,0.516,0.336,1.08,0.6,1.619c0.432-0.432,0.959-1.104,1.26-1.583l0.875,0.552
					c-0.479,0.563-1.043,1.163-1.487,1.571L679.92,147.606z M676.55,146.06c0.491,0.455,1.044,1.104,1.283,1.547l-0.804,0.54
					c-0.216-0.456-0.743-1.128-1.223-1.607L676.55,146.06z"/>
			</g>
		</g>
	</g>
	<g>
		<g>
			<path d="M106.467,142.654c-0.228,0.42-0.432,0.804-0.636,1.127h2.458v6.549c0,0.588-0.12,0.924-0.54,1.104
				c-0.432,0.168-1.08,0.191-2.051,0.191c-0.048-0.3-0.216-0.779-0.372-1.079c0.72,0.036,1.416,0.023,1.619,0.023
				c0.216-0.012,0.276-0.071,0.276-0.251v-4.45c-0.12,0.768-0.384,0.972-0.995,0.972h-1.116c-0.936,0-1.151-0.24-1.151-1.079v-1.008
				h-1.211c-0.144,1.392-0.636,2.135-2.411,2.555c-0.084-0.228-0.3-0.588-0.503-0.768v5.062h-1.067v-7.82h2.254
				c-0.12-0.359-0.3-0.791-0.492-1.127h-2.219v-1.02h4.546v-1.02h1.139v1.02h4.642v1.02H106.467z M99.834,146.516
				c1.439-0.287,1.811-0.768,1.919-1.763h-1.919V146.516z M102.221,150.378v0.695h-0.996v-3.693h4.582v2.998H102.221z
				 M104.596,143.781c0.192-0.323,0.408-0.768,0.552-1.127h-3.406c0.204,0.359,0.384,0.804,0.48,1.127H104.596z M102.221,148.231
				v1.307h2.579v-1.307H102.221z M107.222,144.753h-2.291v0.995c0,0.24,0.036,0.265,0.312,0.265h0.864
				c0.228,0,0.276-0.084,0.312-0.732c0.168,0.133,0.527,0.265,0.803,0.313V144.753z"/>
			<path d="M110.467,146.372h4.341v5.169h-1.103v-0.539h-2.183v0.623h-1.055V146.372z M111.522,147.439v2.495h2.183v-2.495H111.522z
				 M118.862,145.209h-6.704v-4.09h6.704V145.209z M117.723,142.187h-4.498v1.955h4.498V142.187z M120.542,146.372v5.193h-1.115
				v-0.563h-2.375v0.623h-1.068v-5.253H120.542z M119.426,149.935v-2.495h-2.375v2.495H119.426z"/>
			<path d="M129.471,145.809v1.583h2.71v1.031h-2.71v1.644c0,0.407,0.06,0.468,0.444,0.468h1.164c0.348,0,0.408-0.24,0.456-1.428
				c0.252,0.18,0.696,0.372,0.996,0.432c-0.096,1.548-0.408,1.991-1.343,1.991h-1.463c-1.127,0-1.403-0.324-1.403-1.463v-1.644
				h-1.907c-0.228,1.271-0.983,2.471-3.25,3.25c-0.132-0.252-0.479-0.684-0.708-0.875c1.847-0.612,2.555-1.476,2.807-2.375h-2.543
				v-1.031h2.675v-0.096v-1.487h-1.164v-0.432c-0.54,0.396-1.115,0.743-1.703,1.007c-0.132-0.252-0.456-0.647-0.672-0.839
				c0.78-0.324,1.547-0.816,2.231-1.416c-0.336-0.359-0.888-0.815-1.319-1.151l0.695-0.587c0.432,0.287,0.972,0.707,1.319,1.043
				c0.372-0.42,0.696-0.888,0.959-1.367h-2.734v-0.972h3.274l0.204-0.036l0.731,0.349c-0.467,1.343-1.271,2.458-2.23,3.346h5.025
				c-1.043-1.031-1.871-2.351-2.435-3.826l0.983-0.287c0.192,0.491,0.42,0.959,0.696,1.415c0.468-0.408,0.972-0.899,1.283-1.283
				l0.84,0.587c-0.516,0.492-1.127,1.02-1.643,1.403c0.204,0.276,0.432,0.54,0.659,0.792c0.552-0.432,1.164-0.995,1.547-1.428
				l0.828,0.576c-0.528,0.504-1.188,1.031-1.751,1.439c0.624,0.527,1.319,0.959,2.075,1.259c-0.252,0.216-0.6,0.66-0.768,0.96
				c-0.576-0.264-1.115-0.588-1.607-0.983v0.432H129.471z M128.32,145.809h-1.823v1.499v0.084h1.823V145.809z"/>
			<path d="M136.722,149.059c0.528,0.827,1.511,1.211,2.831,1.26c1.332,0.048,3.994,0.012,5.493-0.084
				c-0.132,0.264-0.312,0.791-0.372,1.139c-1.355,0.061-3.766,0.084-5.133,0.024c-1.523-0.061-2.555-0.456-3.311-1.379
				c-0.563,0.491-1.139,0.971-1.763,1.486l-0.576-1.151c0.54-0.335,1.175-0.779,1.739-1.235V146.3h-1.535v-1.031h2.626V149.059z
				 M136.17,143.458c-0.384-0.564-1.248-1.367-2.003-1.896l0.827-0.672c0.756,0.517,1.643,1.26,2.051,1.836L136.17,143.458z
				 M141.831,146.229c0.504,1.331,1.511,2.278,3.034,2.674c-0.251,0.216-0.563,0.66-0.719,0.936
				c-1.451-0.491-2.423-1.427-3.022-2.771c-0.432,0.983-1.307,1.967-3.034,2.734c-0.132-0.228-0.48-0.611-0.732-0.803
				c1.967-0.768,2.663-1.812,2.891-2.771h-2.938v-0.996h3.058v-0.144v-1.283h-2.662v-1.008h1.367
				c-0.168-0.516-0.564-1.223-0.972-1.763l0.948-0.396c0.456,0.563,0.911,1.343,1.067,1.87l-0.66,0.288h2.962l-0.684-0.239
				c0.372-0.528,0.827-1.355,1.055-1.955l1.139,0.359c-0.396,0.66-0.839,1.355-1.211,1.835h1.739v1.008h-2.962v1.295v0.132h3.334
				v0.996H141.831z"/>
		</g>
	</g>
	<g>
		<g>
			<path d="M242.674,145.772c0.36,0.384,1.511,1.847,1.763,2.207l-0.708,0.875c-0.204-0.432-0.66-1.188-1.056-1.823v4.582h-1.043
				v-4.594c-0.408,1.199-0.959,2.423-1.523,3.179c-0.096-0.324-0.36-0.815-0.54-1.115c0.648-0.792,1.332-2.219,1.727-3.442h-1.523
				v-1.044h1.859v-3.922h1.043v3.922h1.871v1.044h-1.871V145.772z M240.419,144.262c-0.048-0.72-0.312-1.848-0.6-2.699l0.792-0.204
				c0.324,0.84,0.576,1.955,0.66,2.675L240.419,144.262z M244.641,141.526c-0.312,0.936-0.671,2.052-0.983,2.735l-0.708-0.217
				c0.252-0.731,0.576-1.919,0.72-2.734L244.641,141.526z M249.282,148.315v3.31h-1.043v-3.118l-3.55,0.647l-0.18-1.031l3.73-0.672
				v-6.824h1.043v6.633l1.332-0.229l0.156,1.02L249.282,148.315z M246.704,146.576c-0.408-0.432-1.259-1.056-1.967-1.439
				l0.528-0.804c0.695,0.372,1.571,0.936,2.003,1.355L246.704,146.576z M247.184,143.686c-0.372-0.468-1.188-1.115-1.871-1.547
				l0.563-0.756c0.672,0.408,1.5,1.008,1.895,1.451L247.184,143.686z"/>
			<path d="M257.72,150.294h4.534v0.972h-10.111v-0.972h4.402v-2.723h-3.826v-0.959h3.826v-1.428h-2.351v-0.623
				c-0.6,0.432-1.224,0.827-1.871,1.175c-0.132-0.252-0.456-0.672-0.696-0.899c2.039-1.008,3.994-2.771,4.894-4.246h1.139
				c1.271,1.752,3.274,3.299,5.133,4.103c-0.264,0.287-0.528,0.671-0.72,0.995c-0.636-0.324-1.283-0.731-1.919-1.188v0.684h-2.435
				v1.428h3.91v0.959h-3.91V150.294z M254.506,147.751c0.468,0.636,0.948,1.487,1.116,2.063l-0.972,0.432
				c-0.144-0.576-0.6-1.476-1.056-2.135L254.506,147.751z M259.747,144.201c-1.043-0.791-1.979-1.679-2.603-2.519
				c-0.576,0.815-1.451,1.703-2.482,2.519H259.747z M258.512,149.874c0.408-0.563,0.923-1.475,1.211-2.135l1.067,0.396
				c-0.468,0.756-1.007,1.571-1.451,2.111L258.512,149.874z"/>
			<path d="M273.234,145.484c-0.636,1.644-1.667,2.891-2.975,3.838c1.235,0.624,2.735,1.044,4.462,1.247
				c-0.252,0.265-0.552,0.768-0.708,1.08c-1.919-0.288-3.526-0.828-4.857-1.631c-1.439,0.779-3.106,1.283-4.87,1.595
				c-0.096-0.288-0.396-0.804-0.624-1.067c1.643-0.24,3.166-0.636,4.474-1.247c-0.936-0.768-1.691-1.703-2.267-2.843l0.828-0.288
				h-2.003v-1.104h3.886v-1.643h-4.438v-1.104h4.438v-1.703h1.151v1.703h4.473v1.104h-4.473v1.643h2.53l0.192-0.048L273.234,145.484
				z M266.938,146.168c0.527,1.02,1.295,1.859,2.278,2.543c1.008-0.66,1.835-1.487,2.411-2.543H266.938z"/>
			<path d="M278.674,147.176v3.143c0,0.635-0.132,0.936-0.503,1.115c-0.384,0.155-0.972,0.191-1.883,0.191
				c-0.048-0.288-0.18-0.756-0.324-1.056c0.6,0.024,1.199,0.024,1.379,0.013c0.18-0.013,0.24-0.061,0.24-0.264v-2.879l-1.727,0.42
				l-0.252-1.092c0.552-0.107,1.235-0.252,1.979-0.407v-2.351h-1.799v-1.032h1.799v-2.374h1.091v2.374h1.643v1.032h-1.643v2.11
				c0.564-0.132,1.14-0.264,1.715-0.396l0.084,1.007L278.674,147.176z M285.738,151.613c-0.072-0.312-0.18-0.672-0.3-1.056
				c-2.183,0.312-4.473,0.612-6.081,0.828l-0.24-1.164c0.36-0.036,0.779-0.084,1.223-0.132c0.744-2.494,1.559-6.272,1.955-9.163
				l1.211,0.216c-0.48,2.867-1.283,6.345-2.003,8.827c1.104-0.132,2.339-0.275,3.562-0.419c-0.42-1.044-0.948-2.171-1.475-3.131
				l0.971-0.348c0.948,1.631,1.919,3.742,2.255,5.121L285.738,151.613z"/>
		</g>
	</g>
</g>
</svg>
