<?xml version="1.0" encoding="utf-8"?>
<!-- Generator: Adobe Illustrator 16.0.0, SVG Export Plug-In . SVG Version: 6.00 Build 0)  -->
<!DOCTYPE svg PUBLIC "-//W3C//DTD SVG 1.1//EN" "http://www.w3.org/Graphics/SVG/1.1/DTD/svg11.dtd">
<svg version="1.1" id="レイヤー_1" xmlns="http://www.w3.org/2000/svg" xmlns:xlink="http://www.w3.org/1999/xlink" x="0px"
	 y="0px" width="394.844px" height="59.563px" viewBox="-1.505 -7.098 394.844 59.563"
	 enable-background="new -1.505 -7.098 394.844 59.563" xml:space="preserve">
<polygon fill="#D8F6F6" points="301.758,35.389 64.876,35.389 47.436,17.788 64.876,0.189 301.758,0.189 319.198,17.788 "/>
<g>
	<path fill="#00C9C9" d="M1.128,44.971c0,2.157-0.21,5.352-1.527,7.396c-0.224-0.196-0.798-0.604-1.106-0.729
		c1.219-1.933,1.331-4.707,1.331-6.668v-3.6h4.959v-1.85H6.13v1.85h5.21v1.247H1.128V44.971z M10.261,52.423
		c-0.126-0.364-0.309-0.798-0.533-1.246c-3.096,0.21-6.345,0.406-8.559,0.532l-0.126-1.346c0.49-0.015,1.051-0.042,1.667-0.057
		c0.742-1.919,1.597-4.748,2.031-6.905l1.471,0.322c-0.574,2.144-1.387,4.679-2.115,6.527c1.541-0.07,3.292-0.142,5.029-0.226
		c-0.546-0.952-1.191-1.945-1.821-2.787l1.191-0.531c1.219,1.567,2.549,3.67,3.082,5.099L10.261,52.423z"/>
	<path fill="#00C9C9" d="M25.186,44.565v1.22H12.957v-1.22H18.7v-1.933h-3.25c-0.406,0.672-0.827,1.261-1.247,1.737
		c-0.28-0.184-0.869-0.533-1.191-0.701c1.009-0.952,1.891-2.521,2.396-4.048l1.303,0.309c-0.182,0.504-0.392,1.022-0.616,1.513H18.7
		v-1.904h1.373v1.904h4.146v1.19h-4.146v1.933H25.186z M14.624,47.002h9.049v5.436h-1.359v-0.715H15.94v0.742h-1.317L14.624,47.002
		L14.624,47.002z M15.94,48.207v2.311h6.374v-2.311H15.94z"/>
	<path fill="#00C9C9" d="M39.284,50.645v1.274H26.873v-1.274h5.463v-3.096h-4.161v-1.261h4.161V43.5h-4.833v-1.274h5.883
		c-0.574-0.616-1.485-1.399-2.255-1.947l1.064-0.741c0.896,0.603,2.045,1.541,2.619,2.198l-0.686,0.49h4.454V43.5h-4.818v2.788
		h4.202v1.261h-4.202v3.096H39.284z"/>
</g>
<g>
	<polygon fill="#7CC6D8" points="9.508,-1.649 18.041,-4.769 33.654,0.316 33.654,33.494 1.844,33.494 1.844,11.113 9.645,9.195 	
		"/>
	<path fill="#FFF4E1" d="M18.041-5.915l-9.36,3.132V7.603L0.83,9.436V34.7l17.21,0.586v0.004l16.645-0.467V-0.779L18.041-5.915z
		 M8.681,31.533H2.679v-3.229l6.002-0.2V31.533z M8.681,24.675l-6.002,0.4v-3.248l6.002-0.607V24.675z M8.681,17.815l-6.002,0.8
		v-3.228l6.002-1.006V17.815z M13.115,31.537h-2.217V28.03l2.217-0.073V31.537z M13.115,24.376l-2.217,0.148V21.02l2.217-0.225
		V24.376z M13.115,17.22l-2.217,0.297v-3.504l2.217-0.372V17.22z M13.115,10.061l-2.217,0.445V7.001l2.217-0.52V10.061z
		 M13.115,2.905l-2.217,0.595v-3.505l2.217-0.667V2.905z M32.507,31.537H17.949l-2.37-0.004v-3.66l2.37-0.08l14.558,0.55V31.537z
		 M32.507,24.959l-14.558-0.906l-2.469,0.166v-3.66l2.469-0.249l14.558,1.321V24.959z M32.507,18.334l-14.466-1.773L15.58,16.89
		v-3.661l2.461-0.412l14.466,2.242V18.334z M32.507,11.788L17.949,9.091l-2.37,0.475V5.905l2.37-0.557l14.558,3.134V11.788z
		 M32.507,5.173L17.949,1.61L15.48,2.272v-3.658l2.469-0.744l14.558,3.96V5.173z"/>
	<polygon fill="#D8CCC3" points="32.507,1.828 32.507,5.173 18.041,1.632 18.041,5.367 32.507,8.482 32.507,11.788 18.041,9.105 
		18.041,12.817 32.507,15.059 32.507,18.334 18.041,16.561 18.041,20.319 32.507,21.631 32.507,24.959 18.041,24.057 18.041,27.797 
		32.507,28.343 32.507,31.537 18.041,31.537 18.041,35.286 18.041,35.29 34.685,34.823 34.685,-0.779 18.041,-5.915 18.041,-2.108 	
		"/>
</g>
<g>
	<path fill="#00C9C9" d="M329.727,41.806c-0.075,0.153-0.21,0.42-0.276,0.588c-0.361,1.022-1.16,2.802-2.062,3.866l-0.696-0.938
		c0.73-0.715,1.471-2.102,1.715-2.898h-4.615c-0.328,0-0.623,0.042-0.984,0.084v-1.555c0.313,0.068,0.656,0.126,0.984,0.126h4.699
		c0.192,0,0.572-0.042,0.707-0.1L329.727,41.806z M326.331,43.668c0,3.655-0.127,6.346-2.338,8.235l-0.773-1.05
		c0.244-0.141,0.539-0.364,0.809-0.687c1.201-1.289,1.396-3.055,1.396-5.379c0-0.378-0.008-0.716-0.051-1.121L326.331,43.668
		L326.331,43.668z"/>
	<path fill="#00C9C9" d="M336.639,41.959c-0.065,0.225-0.108,0.532-0.149,0.813c-0.187,1.43-0.572,3.656-1.254,5.143
		c-0.765,1.651-1.815,2.997-3.347,3.796l-0.715-1.317c1.641-0.672,2.59-1.862,3.279-3.333c0.58-1.219,0.94-3.012,1.051-4.301h-4.128
		c-0.361,0-0.698,0.028-0.908,0.056v-1.567c0.235,0.056,0.631,0.111,0.908,0.111h4.077c0.144,0,0.354-0.015,0.539-0.099
		L336.639,41.959z"/>
	<path fill="#00C9C9" d="M342.897,43.71c-0.396,0.729-1.144,1.724-1.899,2.536v4.832c0,0.447,0.009,1.105,0.042,1.345h-0.975
		c0.016-0.238,0.041-0.896,0.041-1.345V47.1c-0.724,0.616-1.707,1.303-2.53,1.666l-0.446-1.288c1.076-0.378,2.254-1.231,2.943-1.905
		c0.841-0.813,1.739-1.988,2.16-2.886L342.897,43.71z"/>
	<path fill="#00C9C9" d="M345.389,40.656c-0.018,0.296-0.033,0.646-0.033,1.037v4.692c0,0.364,0.017,0.854,0.033,1.135h-0.983
		c0.009-0.238,0.043-0.729,0.043-1.135v-4.692c0-0.252-0.019-0.741-0.034-1.037H345.389z M349.273,40.545
		c-0.018,0.364-0.033,0.784-0.033,1.288v2.494c0,3.207-0.304,4.396-0.925,5.573c-0.548,1.064-1.396,1.695-2.011,2.045l-0.696-1.218
		c0.799-0.337,1.521-0.869,2.033-1.835c0.59-1.106,0.698-2.199,0.698-4.65v-2.409c0-0.504-0.024-0.924-0.051-1.288H349.273z"/>
	<path fill="#00C9C9" d="M356.967,49.327c0.271,0,0.515-0.057,0.732-0.099v1.598c-0.229-0.042-0.556-0.057-0.732-0.057h-5.549
		c-0.243,0-0.513,0.015-0.781,0.057V49.23c0.252,0.07,0.538,0.099,0.781,0.099h2.262v-6.121h-1.772c-0.187,0-0.529,0.014-0.74,0.056
		v-1.526c0.219,0.042,0.547,0.07,0.74,0.07h4.599c0.261,0,0.53-0.028,0.757-0.07v1.526c-0.234-0.042-0.513-0.056-0.757-0.056h-1.908
		v6.121L356.967,49.327L356.967,49.327z"/>
	<path fill="#00C9C9" d="M362.972,50.14c0,0.574,0.018,1.345,0.061,1.653h-1.043c0.024-0.31,0.051-1.079,0.051-1.653v-4.986
		c-0.883,0.784-2.002,1.568-3.044,2.06l-0.479-1.358c1.438-0.546,2.859-1.583,3.792-2.55c0.85-0.882,1.725-2.129,2.194-3.138
		l0.715,1.079c-0.604,1.009-1.396,2.101-2.245,3.012L362.972,50.14L362.972,50.14z"/>
	<path fill="#00C9C9" d="M371.172,47.843c-0.892-0.799-2.254-1.681-3.178-2.187v4.328c0,0.436,0.024,1.289,0.065,1.793h-1.032
		c0.041-0.489,0.065-1.246,0.065-1.793V41.89c0-0.448-0.024-1.093-0.075-1.569h1.034c-0.024,0.464-0.059,1.079-0.059,1.569v2.186
		c1.108,0.561,2.715,1.555,3.556,2.24L371.172,47.843z"/>
	<path fill="#00C9C9" d="M378.817,43.109c0.401,0,0.672-0.027,0.84-0.084v1.484c-0.135-0.028-0.438-0.042-0.832-0.042h-0.799v0.477
		c0,3.613-0.488,5.616-2.455,7.088l-0.715-1.12c1.571-0.968,2.313-2.172,2.313-5.884v-0.561h-2.22v2.101
		c0,0.575,0.024,1.163,0.034,1.359h-0.927c0.01-0.196,0.043-0.784,0.043-1.359v-2.101h-0.823c-0.396,0-0.74,0.028-0.875,0.042V43.01
		c0.108,0.028,0.487,0.099,0.875,0.099h0.823v-1.61c0-0.49-0.033-0.938-0.043-1.12h0.941c-0.016,0.182-0.05,0.602-0.05,1.12v1.61
		h2.22v-1.625c0-0.561-0.025-1.021-0.042-1.219h0.95c-0.019,0.21-0.051,0.658-0.051,1.219v1.625H378.817z"/>
	<path fill="#00C9C9" d="M384.762,50.14c0,0.574,0.018,1.345,0.06,1.653h-1.043c0.024-0.31,0.051-1.079,0.051-1.653v-4.986
		c-0.883,0.784-2.001,1.568-3.043,2.06l-0.48-1.358c1.438-0.546,2.859-1.583,3.793-2.55c0.85-0.882,1.724-2.129,2.193-3.138
		l0.715,1.079c-0.604,1.009-1.396,2.101-2.244,3.012L384.762,50.14L384.762,50.14z"/>
	<path fill="#00C9C9" d="M392.962,47.843c-0.892-0.799-2.253-1.681-3.179-2.187v4.328c0,0.436,0.024,1.289,0.067,1.793h-1.034
		c0.043-0.489,0.067-1.246,0.067-1.793V41.89c0-0.448-0.024-1.093-0.076-1.569h1.033c-0.023,0.464-0.059,1.079-0.059,1.569v2.186
		c1.109,0.561,2.717,1.555,3.557,2.24L392.962,47.843z"/>
</g>
<g>
	<path fill="#00C9C9" d="M81.815,21.193c1.26,0.926,3.18,1.683,4.973,2.031c-0.267,0.268-0.645,0.757-0.827,1.093
		c-1.835-0.477-3.824-1.457-5.155-2.676v2.83h-1.303v-2.76c-1.303,1.177-3.222,2.129-5.042,2.592
		c-0.168-0.309-0.533-0.785-0.799-1.051c1.765-0.352,3.67-1.121,4.889-2.061h-4.594v-1.078h5.547v-1.078h1.303v1.078h5.659v1.078
		L81.815,21.193L81.815,21.193z M75.932,17.453c0.364-0.394,0.771-0.896,1.205-1.43h-2.941v-1.051h3.754
		c0.308-0.421,0.616-0.827,0.882-1.205l1.219,0.352c-0.196,0.279-0.406,0.561-0.63,0.854h6.822v1.051h-2.578
		c-0.308,0.672-0.729,1.232-1.331,1.708c1.261,0.337,2.409,0.701,3.264,1.023l-0.784,0.91c-0.896-0.378-2.255-0.799-3.726-1.205
		c-1.359,0.589-3.292,0.938-6.107,1.135c-0.042-0.28-0.266-0.756-0.42-1.009c2.059-0.126,3.572-0.321,4.707-0.603
		c-0.644-0.168-1.274-0.309-1.877-0.435l-0.238,0.28L75.932,17.453z M75.54,14.68h-1.205v-2.06h5.197v-0.994h1.303v0.994h5.267v2.06
		h-1.247v-0.967H75.54V14.68z M78.607,16.025c-0.182,0.237-0.378,0.477-0.56,0.714c0.896,0.168,1.877,0.379,2.857,0.616
		c0.644-0.35,1.05-0.798,1.359-1.33H78.607z"/>
	<path fill="#00C9C9" d="M92.047,12.046c-0.364,1.021-0.841,2.045-1.373,3.024v9.386h-1.232v-7.425
		c-0.35,0.49-0.729,0.968-1.093,1.359c-0.126-0.309-0.49-1.009-0.714-1.317c1.275-1.315,2.465-3.348,3.194-5.393L92.047,12.046z
		 M100.549,19.722h-3.712v4.749h-1.303v-4.749h-3.88v-1.274h3.88v-2.772h-1.989c-0.28,0.757-0.588,1.442-0.938,1.975
		c-0.252-0.182-0.813-0.489-1.121-0.63c0.785-1.121,1.359-2.914,1.667-4.665l1.261,0.253c-0.126,0.603-0.28,1.204-0.448,1.793h1.569
		v-2.604h1.303V14.4h3.082v1.274h-3.082v2.772h3.712L100.549,19.722L100.549,19.722z"/>
	<path fill="#00C9C9" d="M107.672,22.524c0.49-0.042,0.896-0.111,1.233-0.195c1.779-0.406,3.362-1.694,3.362-3.937
		c0-2.018-1.205-3.601-3.334-3.866c-0.196,1.246-0.448,2.592-0.826,3.895c-0.841,2.83-1.989,4.413-3.376,4.413
		c-1.373,0-2.633-1.557-2.633-3.866c0-3.082,2.731-5.758,6.205-5.758c3.334,0,5.449,2.326,5.449,5.238
		c0,2.899-1.863,4.917-5.253,5.394L107.672,22.524z M106.691,18.125c0.35-1.094,0.616-2.354,0.756-3.572
		c-2.493,0.406-3.95,2.578-3.95,4.287c0,1.597,0.715,2.325,1.275,2.325C105.375,21.165,106.047,20.269,106.691,18.125z"/>
	<path fill="#00C9C9" d="M117.722,13.181c0.112,0.238,0.378,0.742,0.518,0.994c0.238,0.435,0.49,0.938,0.743,1.471
		c1.667-0.742,3.46-1.457,4.889-1.457c2.017,0,3.25,1.205,3.25,2.76c0,1.737-1.163,2.956-3.306,2.956
		c-0.771,0-1.597-0.195-2.101-0.393l0.042-1.373c0.56,0.253,1.261,0.463,1.933,0.463c1.316,0,1.989-0.729,1.989-1.709
		c0-0.784-0.616-1.442-1.849-1.442c-1.149,0-2.774,0.616-4.314,1.33c0.154,0.337,0.308,0.688,0.462,1.022
		c0.715,1.625,1.667,4.37,2.144,5.926l-1.527,0.378c-0.435-1.681-1.107-3.964-1.877-5.715l-0.448-1.021
		c-1.037,0.518-1.961,0.993-2.578,1.273l-0.658-1.415c0.462-0.111,1.008-0.308,1.247-0.406c0.448-0.182,0.938-0.392,1.457-0.63
		c-0.252-0.519-0.49-0.979-0.714-1.373c-0.182-0.309-0.476-0.771-0.728-1.077L117.722,13.181z M121.644,14.301
		c-0.518-0.504-1.232-1.204-1.807-1.625l1.008-0.714c0.476,0.364,1.317,1.051,1.821,1.567L121.644,14.301z"/>
	<path fill="#00C9C9" d="M131.877,12.284c-0.252,0.867-0.519,2.549-0.603,3.432c0.603-1.274,1.947-2.76,3.614-2.76
		c1.891,0,3.292,1.862,3.292,4.847c0,3.866-2.423,5.646-5.953,6.29l-0.84-1.261c3.04-0.478,5.309-1.599,5.309-5.029
		c0-2.157-0.714-3.571-2.045-3.571c-1.681,0-3.222,2.493-3.334,4.313c-0.056,0.463-0.042,0.938,0.042,1.598L130,20.24
		c-0.07-0.519-0.168-1.33-0.168-2.24c0-1.304,0.238-3.208,0.42-4.47c0.056-0.462,0.098-0.938,0.112-1.303L131.877,12.284z"/>
	<path fill="#00C9C9" d="M152.559,13.656c-0.322,3.013-1.064,5.365-2.143,7.173c0.729,1.036,1.625,1.878,2.717,2.451
		c-0.294,0.252-0.714,0.742-0.896,1.064c-1.037-0.604-1.905-1.387-2.633-2.354c-0.756,0.968-1.667,1.724-2.675,2.325
		c-0.182-0.309-0.532-0.757-0.813-1.009v1.148h-1.261v-2.396c-1.695,0.28-3.418,0.561-4.721,0.771l-0.238-1.304
		c0.392-0.042,0.826-0.111,1.316-0.169v-7.688h-1.022v-1.205h6.864v1.009h4.44l0.224-0.042L152.559,13.656z M142.459,13.671v1.625
		h2.396v-1.625H142.459z M142.459,18.167h2.396v-1.709h-2.396V18.167z M144.855,20.857v-1.513h-2.396v1.849L144.855,20.857z
		 M146.116,23.239c1.037-0.547,1.947-1.372,2.717-2.438c-0.91-1.611-1.541-3.559-1.989-5.758l1.261-0.252
		c0.322,1.736,0.812,3.348,1.513,4.733c0.7-1.33,1.219-2.94,1.513-4.775h-4.44v-1.078h-0.574L146.116,23.239L146.116,23.239z"/>
	<path fill="#00C9C9" d="M157.525,12.284c-0.252,0.867-0.519,2.549-0.603,3.432c0.603-1.274,1.947-2.76,3.614-2.76
		c1.891,0,3.292,1.862,3.292,4.847c0,3.866-2.423,5.646-5.953,6.29l-0.84-1.261c3.04-0.478,5.309-1.599,5.309-5.029
		c0-2.157-0.714-3.571-2.045-3.571c-1.681,0-3.222,2.493-3.334,4.313c-0.056,0.463-0.042,0.938,0.042,1.598l-1.359,0.099
		c-0.07-0.52-0.168-1.331-0.168-2.241c0-1.304,0.238-3.208,0.42-4.47c0.056-0.462,0.098-0.938,0.112-1.303L157.525,12.284z"/>
</g>
<g>
	<path fill="#00C9C9" d="M195.309,21.179c1.303,0.883,3.18,1.639,4.833,2.031c-0.267,0.266-0.631,0.742-0.799,1.063
		c-1.737-0.519-3.698-1.457-5.099-2.563v2.76h-1.289V21.74c-1.415,1.136-3.376,2.102-5.085,2.605
		c-0.196-0.309-0.574-0.799-0.84-1.064c1.681-0.393,3.586-1.19,4.917-2.102h-4.539v-1.051h5.547v-0.742h-3.894v-3.95
		c-0.336,0.352-0.701,0.688-1.093,1.009c-0.21-0.294-0.645-0.687-0.924-0.883c1.541-1.162,2.675-2.717,3.292-3.964l1.359,0.266
		c-0.252,0.436-0.519,0.896-0.827,1.346h2.381c0.266-0.519,0.532-1.12,0.687-1.582l1.443,0.182c-0.252,0.49-0.519,0.98-0.785,1.4
		h4.398v1.037h-4.468v0.771h3.853v0.882h-3.853v0.799h3.879v0.868h-3.879v0.813h4.944v1.009h-5.225v0.742h5.604v1.051h-4.538V21.179
		z M193.278,14.245h-2.998v0.771h2.998V14.245z M193.278,15.898h-2.998v0.799h2.998V15.898z M190.28,18.377h2.998v-0.813h-2.998
		V18.377z"/>
	<path fill="#00C9C9" d="M211.466,15.604c-0.63,1.022-1.525,1.905-2.591,2.647c1.526,0.631,3.319,1.063,5.226,1.273
		c-0.295,0.31-0.646,0.884-0.842,1.262c-0.574-0.084-1.135-0.195-1.681-0.322v3.979h-1.331v-0.42h-5.196v0.448h-1.274v-3.88
		c-0.658,0.195-1.33,0.35-1.988,0.49c-0.127-0.337-0.406-0.869-0.645-1.149c1.807-0.308,3.655-0.854,5.252-1.624
		c-0.588-0.406-1.135-0.854-1.61-1.373c-0.574,0.436-1.231,0.826-1.976,1.177c-0.183-0.309-0.574-0.757-0.867-0.967
		c1.933-0.799,3.264-1.947,3.963-3.012l1.373,0.28c-0.168,0.237-0.351,0.477-0.547,0.715h3.643l0.238-0.058L211.466,15.604z
		 M203.006,15.632h-1.274V12.83h5.197v-1.204h1.329v1.204h5.269v2.802h-1.332v-1.625h-9.188L203.006,15.632L203.006,15.632z
		 M210.5,20.185c-1.037-0.309-2.004-0.687-2.888-1.148c-0.813,0.447-1.693,0.826-2.59,1.148H210.5z M210.248,22.93v-1.667h-5.196
		v1.667H210.248z M205.709,16.193c0.519,0.546,1.162,1.036,1.919,1.456c0.742-0.462,1.387-0.966,1.893-1.525h-3.728L205.709,16.193z
		"/>
	<path fill="#00C9C9" d="M226.349,17.313c-0.742,1.919-1.947,3.376-3.474,4.482c1.442,0.729,3.192,1.219,5.211,1.457
		c-0.295,0.308-0.646,0.896-0.827,1.261c-2.24-0.336-4.117-0.967-5.673-1.905c-1.683,0.91-3.628,1.499-5.688,1.863
		c-0.11-0.336-0.461-0.938-0.729-1.247c1.92-0.28,3.698-0.742,5.225-1.457c-1.092-0.896-1.975-1.988-2.646-3.319l0.967-0.336h-2.34
		v-1.289h4.539v-1.919h-5.185v-1.289h5.185v-1.987h1.344v1.987h5.226v1.289h-5.226v1.919h2.956l0.225-0.056L226.349,17.313z
		 M218.995,18.112c0.617,1.19,1.514,2.172,2.662,2.971c1.176-0.771,2.143-1.737,2.814-2.971H218.995z"/>
	<path fill="#00C9C9" d="M232.071,19.624v3.418c0,0.645-0.127,0.994-0.506,1.189c-0.377,0.21-0.924,0.252-1.82,0.252
		c-0.027-0.308-0.182-0.867-0.35-1.204c0.561,0.015,1.078,0.015,1.231,0c0.183,0,0.252-0.042,0.252-0.237v-3.055l-1.555,0.49
		l-0.21-1.289c0.49-0.126,1.105-0.294,1.765-0.476v-3.152h-1.625v-1.204h1.625V11.64h1.19v2.718h1.4v1.204h-1.4v2.788
		c0.435-0.126,0.896-0.253,1.33-0.393l0.183,1.189L232.071,19.624z M241.049,19.456c-0.379,1.288-0.993,2.269-1.778,3.039
		c0.854,0.447,1.85,0.742,2.928,0.925c-0.266,0.252-0.616,0.757-0.799,1.093c-1.176-0.252-2.213-0.658-3.109-1.205
		c-0.84,0.547-1.807,0.925-2.857,1.205c-0.141-0.28-0.49-0.771-0.715-0.979c0.967-0.211,1.821-0.52,2.578-0.926
		c-0.533-0.447-0.98-0.952-1.387-1.513c-0.52,1.303-1.359,2.493-2.676,3.361c-0.168-0.294-0.547-0.714-0.854-0.925
		c1.933-1.189,2.677-3.18,2.997-5.112h-1.807v-1.078h1.961c0.027-0.322,0.057-0.616,0.084-0.91h-1.75v-1.037h0.967
		c-0.113-0.448-0.352-1.12-0.575-1.651l0.995-0.268c0.252,0.52,0.546,1.232,0.658,1.639l-0.799,0.28h3.684
		c0.436-0.672,0.925-1.609,1.178-2.297l1.232,0.378c-0.393,0.646-0.826,1.345-1.232,1.919h1.526v1.037h-4.622
		c-0.027,0.308-0.057,0.603-0.1,0.91h5.142v1.078h-5.294c-0.043,0.267-0.1,0.505-0.141,0.771h3.627l0.225-0.026L241.049,19.456z
		 M241.372,12.676c-1.989,0.421-4.973,0.645-7.438,0.701c-0.043-0.295-0.17-0.715-0.295-0.995c2.408-0.084,5.321-0.322,7.004-0.672
		L241.372,12.676z M236.608,20.17c0.42,0.673,0.98,1.261,1.668,1.736c0.546-0.462,0.979-1.036,1.303-1.736H236.608z M237.058,15.31
		c-0.058-0.462-0.211-1.247-0.351-1.835l1.036-0.183c0.152,0.575,0.32,1.331,0.392,1.766L237.058,15.31z"/>
	<path fill="#00C9C9" d="M253.874,15.212c0.672,0,1.12-0.028,1.4-0.084v1.483c-0.226-0.027-0.729-0.042-1.387-0.042h-1.332v0.478
		c0,3.613-0.813,5.616-4.09,7.088l-1.189-1.121c2.619-0.967,3.852-2.171,3.852-5.883V16.57h-3.697v2.102
		c0,0.575,0.041,1.163,0.055,1.358h-1.539c0.014-0.195,0.068-0.783,0.068-1.358V16.57h-1.371c-0.658,0-1.233,0.028-1.457,0.042
		v-1.499c0.183,0.028,0.813,0.1,1.457,0.1h1.371v-1.611c0-0.49-0.056-0.938-0.068-1.12h1.568c-0.029,0.183-0.084,0.603-0.084,1.12
		v1.611h3.697v-1.625c0-0.562-0.042-1.022-0.07-1.219h1.584c-0.029,0.21-0.084,0.657-0.084,1.219v1.625H253.874z"/>
	<path fill="#00C9C9" d="M257.103,17.131c0.446,0.042,1.315,0.084,2.071,0.084h7.606c0.687,0,1.232-0.057,1.568-0.084v1.723
		c-0.309-0.014-0.938-0.056-1.555-0.056h-7.621c-0.783,0-1.609,0.027-2.072,0.056v-1.723H257.103z"/>
	<path fill="#00C9C9" d="M273.245,21.291c0,0.672,0.295,0.84,0.953,0.979c0.42,0.07,1.078,0.099,1.751,0.099
		c1.471,0,3.67-0.154,4.817-0.463v1.61c-1.261,0.184-3.361,0.28-4.901,0.28c-0.868,0-1.71-0.042-2.298-0.141
		c-1.135-0.21-1.779-0.771-1.779-1.946v-7.676c0-0.322-0.027-0.896-0.098-1.262h1.639c-0.057,0.364-0.084,0.868-0.084,1.262v2.94
		c1.652-0.406,3.754-1.063,5.113-1.639c0.463-0.184,0.896-0.394,1.358-0.688l0.615,1.415c-0.462,0.183-1.021,0.435-1.472,0.588
		c-1.498,0.604-3.852,1.316-5.616,1.779L273.245,21.291L273.245,21.291z M279.731,14.553c-0.295-0.56-0.742-1.4-1.121-1.933
		l0.896-0.378c0.351,0.504,0.854,1.371,1.136,1.919L279.731,14.553z M281.104,11.654c0.362,0.52,0.896,1.401,1.147,1.905
		l-0.911,0.394c-0.294-0.604-0.742-1.401-1.134-1.919L281.104,11.654z"/>
	<path fill="#00C9C9" d="M293.17,13.951c-0.098,0.14-0.308,0.489-0.405,0.729c-0.49,1.148-1.316,2.731-2.298,3.991
		c1.443,1.232,3.14,3.04,4.007,4.104l-1.246,1.094c-0.91-1.262-2.312-2.803-3.697-4.091c-1.5,1.598-3.377,3.097-5.395,4.021
		l-1.135-1.177c2.27-0.868,4.37-2.55,5.757-4.104c0.953-1.063,1.892-2.604,2.228-3.698h-5.141c-0.546,0-1.303,0.07-1.525,0.084
		V13.32c0.279,0.042,1.092,0.1,1.525,0.1h5.196c0.519,0,0.979-0.058,1.219-0.142L293.17,13.951z"/>
</g>
<g>
	<g>
		<path opacity="0.4" fill="#221F1F" enable-background="new    " d="M325.793,31.993c0-0.581,13.813-1.05,29.045-1.05
			c15.23,0,26.113,0.469,26.113,1.05c0,0.576-10.883,1.05-26.113,1.05C339.606,33.043,325.793,32.571,325.793,31.993z"/>
		<g>
			<g>
				<path fill="#221F1F" d="M374.446,30.211V4.661c0-1.218-0.986-2.205-2.203-2.205h-36.789c-1.217,0-2.205,0.987-2.205,2.205v25.55
					H374.446z"/>
				<path fill="#BBBDBF" d="M377.733,31.714h-47.771c-0.99,0-1.145-1.313-1.145-1.313h50.057
					C378.875,30.403,378.725,31.714,377.733,31.714z"/>
				<rect x="328.819" y="29.889" fill="#E6E6E7" width="50.057" height="0.736"/>
				<rect x="349.018" y="29.889" fill="#BBBDBF" width="9.658" height="0.418"/>
				<rect x="334.86" y="4.54" fill="#A5DCF0" width="37.977" height="23.998"/>
				<g>
					<path fill="#D8EDEE" d="M368.823,26.423c-0.146-0.029-0.293-0.044-0.438-0.048c0.039-0.113,0.074-0.229,0.099-0.352
						c0.276-1.401-0.632-2.768-2.033-3.048c-1.197-0.238-2.365,0.391-2.857,1.448c-0.285-0.257-0.643-0.441-1.045-0.521
						c-0.883-0.177-1.746,0.193-2.244,0.877c-0.143-0.058-0.293-0.104-0.451-0.136c-1.362-0.271-2.69,0.614-2.965,1.979
						c-0.137,0.691,0.023,1.374,0.394,1.915h13.479C370.647,27.514,369.887,26.635,368.823,26.423z"/>
					<path fill="#D8EDEE" d="M340.274,27.023c-0.103-0.043-0.203-0.07-0.308-0.09c0.029-0.05,0.058-0.104,0.08-0.162
						c0.336-0.797-0.039-1.718-0.838-2.052c-0.438-0.185-0.914-0.154-1.309,0.042c-0.084-0.444-0.384-0.843-0.832-1.032
						c-0.548-0.229-1.156-0.087-1.548,0.314c-0.133-0.127-0.291-0.234-0.471-0.31c-0.063-0.026-0.127-0.046-0.19-0.063v4.868h6.229
						C341.204,27.917,340.879,27.278,340.274,27.023z M336.975,26.345c0.023-0.007,0.048-0.017,0.068-0.023
						c0.004,0.046,0.012,0.091,0.021,0.136C337.036,26.417,337.006,26.381,336.975,26.345z"/>
					<polygon fill="#D8EDEE" points="353.297,13.61 351.04,27.346 358.042,26.858 355.377,13.453 					"/>
					<path fill="#D8EDEE" d="M358.967,26.593c0.14-0.124,0.252-0.283,0.32-0.473c0.203-0.558-0.047-1.166-0.562-1.432
						c0.142-0.154,0.252-0.34,0.328-0.55c0.322-0.883-0.135-1.858-1.018-2.18c-0.883-0.322-1.859,0.135-2.182,1.018
						c-0.035,0.101-0.062,0.198-0.078,0.298c-0.074-0.04-0.15-0.072-0.234-0.104c-0.941-0.343-1.982,0.144-2.324,1.086
						c-0.293,0.804,0.019,1.679,0.701,2.132c-0.209,0.171-0.375,0.398-0.473,0.67c-0.189,0.519-0.086,1.068,0.221,1.479h5.457
						c0.053-0.087,0.098-0.183,0.133-0.282C359.473,27.669,359.34,27.04,358.967,26.593z"/>
					<path fill="#D8EDEE" d="M372.836,23.618c-0.844-0.276-1.764,0.146-2.092,0.98c-0.039,0.097-0.066,0.196-0.086,0.293
						c-0.072-0.04-0.148-0.078-0.229-0.107c-0.924-0.363-1.965,0.092-2.33,1.015c-0.307,0.789-0.022,1.662,0.642,2.128
						c-0.199,0.155-0.359,0.362-0.467,0.611h4.563V23.618L372.836,23.618z"/>
					<path fill="#D8EDEE" d="M352.514,24.14c0.086-0.127,0.154-0.27,0.201-0.427c0.228-0.747-0.125-1.515-0.789-1.715
						c-0.6-0.186-1.244,0.163-1.531,0.783c-0.557-0.02-1.098,0.388-1.288,1.011c-0.154,0.508-0.033,1.024,0.271,1.359
						c-0.271,0.104-0.5,0.345-0.6,0.667c-0.158,0.521,0.09,1.058,0.549,1.196c0.041,0.013,0.084,0.021,0.123,0.025
						c0,0.004-0.002,0.007-0.002,0.011c-0.172,0.561,0.094,1.136,0.59,1.287c0.498,0.149,1.039-0.182,1.207-0.74
						c0.031-0.104,0.047-0.206,0.053-0.305c0.012,0.005,0.023,0.01,0.037,0.014c0.793,0.241,1.658-0.29,1.93-1.187
						C353.514,25.303,353.18,24.462,352.514,24.14z"/>
					<path fill="#D8EDEE" d="M353.19,26.725c-0.037-1.391-1.195-2.488-2.586-2.45c-0.479,0.013-0.923,0.156-1.298,0.398
						c0-0.009,0-0.021,0-0.029c-0.036-1.335-1.146-2.388-2.479-2.352c-0.894,0.021-1.658,0.526-2.058,1.257
						c-0.235-0.12-0.508-0.188-0.795-0.179c-0.844,0.022-1.522,0.673-1.604,1.491c-0.281-0.104-0.586-0.155-0.902-0.148
						c-1.342,0.038-2.397,1.153-2.362,2.493c0.014,0.497,0.176,0.954,0.44,1.332h12.941C352.94,28.07,353.209,27.426,353.19,26.725z
						"/>
				</g>
				<g>
					<path fill="#FFFFFF" d="M367.45,25.909c-1.082-0.562-2.377-0.281-3.144,0.601c-0.205-0.325-0.496-0.601-0.86-0.791
						c-0.801-0.413-1.732-0.295-2.396,0.223c-0.123-0.096-0.254-0.183-0.396-0.254c-1.236-0.641-2.758-0.157-3.396,1.08
						c-0.295,0.566-0.35,1.194-0.205,1.771h11.779C368.963,27.49,368.444,26.423,367.45,25.909z"/>
					<path fill="#FFFFFF" d="M341.454,28.404c-0.059-0.666-0.646-1.159-1.313-1.103c-0.096,0.009-0.188,0.028-0.274,0.057
						c0.002-0.054,0-0.105-0.006-0.16c-0.064-0.763-0.738-1.328-1.502-1.264c-0.42,0.036-0.779,0.257-1.007,0.574
						c-0.252-0.316-0.647-0.504-1.079-0.467c-0.523,0.046-0.941,0.41-1.082,0.885c-0.105-0.03-0.218-0.048-0.33-0.051v1.663h6.596
						C341.458,28.493,341.456,28.451,341.454,28.404z M337.278,28.13c0.014-0.018,0.028-0.032,0.043-0.048
						c0.021,0.032,0.045,0.065,0.069,0.097C337.354,28.161,337.317,28.147,337.278,28.13z"/>
					<polygon fill="#FFFFFF" points="353.577,15.51 351.823,25.922 357.256,25.542 355.188,15.39 					"/>
					<path fill="#FFFFFF" d="M359.288,27.399c0.203-0.557-0.047-1.167-0.562-1.431c0.142-0.155,0.253-0.341,0.328-0.55
						c0.322-0.884-0.135-1.86-1.018-2.182c-0.883-0.32-1.859,0.136-2.183,1.019c-0.034,0.1-0.061,0.198-0.077,0.298
						c-0.074-0.038-0.15-0.074-0.234-0.103c-0.941-0.345-1.982,0.143-2.324,1.085c-0.293,0.804,0.019,1.679,0.701,2.133
						c-0.209,0.171-0.375,0.396-0.473,0.669c-0.025,0.065-0.043,0.133-0.06,0.201h5.92c-0.063-0.245-0.18-0.475-0.342-0.668
						C359.106,27.746,359.219,27.587,359.288,27.399z"/>
					<path fill="#FFFFFF" d="M372.836,26.55c-0.623-0.122-1.289,0.11-1.688,0.656c-0.062,0.084-0.113,0.172-0.156,0.26
						c-0.062-0.057-0.123-0.11-0.191-0.162c-0.801-0.586-1.926-0.411-2.512,0.389c-0.188,0.259-0.299,0.551-0.334,0.847h4.883
						L372.836,26.55L372.836,26.55z"/>
					<path fill="#FFFFFF" d="M352.936,28.415c0.828-0.063,1.443-0.867,1.375-1.802c-0.063-0.854-0.678-1.519-1.413-1.578
						c0.032-0.148,0.047-0.309,0.034-0.472c-0.057-0.778-0.661-1.368-1.354-1.316c-0.625,0.047-1.104,0.602-1.146,1.283
						c-0.526,0.185-0.887,0.757-0.838,1.407c0.037,0.529,0.338,0.968,0.742,1.17c-0.219,0.193-0.346,0.502-0.32,0.84
						c0.019,0.228,0.103,0.432,0.23,0.591h2.682c-0.008-0.043-0.02-0.083-0.03-0.12C352.909,28.415,352.922,28.415,352.936,28.415z"
						/>
					<path fill="#FFFFFF" d="M351.637,26.364c-0.479,0.016-0.922,0.158-1.297,0.4c0-0.011,0-0.02,0-0.029
						c-0.035-1.334-1.146-2.387-2.479-2.352c-0.894,0.022-1.656,0.527-2.056,1.257c-0.239-0.12-0.512-0.187-0.795-0.178
						c-0.846,0.021-1.522,0.673-1.606,1.492c-0.279-0.104-0.584-0.158-0.9-0.149c-1.076,0.028-1.971,0.754-2.262,1.733H354.2
						C354.028,27.281,352.936,26.328,351.637,26.364z"/>
				</g>
				<path fill="#FFFFFF" d="M347.415,13.579c-0.113-0.575-0.668-0.949-1.242-0.837c-0.084,0.015-0.162,0.042-0.233,0.073
					c-0.005-0.045-0.011-0.093-0.021-0.14c-0.127-0.656-0.764-1.085-1.422-0.956c-0.359,0.069-0.652,0.295-0.822,0.593
					c-0.246-0.251-0.608-0.378-0.979-0.305c-0.447,0.087-0.777,0.442-0.855,0.869c-0.141-0.025-0.289-0.025-0.436,0.004
					c-0.482,0.094-0.843,0.466-0.943,0.916h6.975C347.436,13.726,347.43,13.653,347.415,13.579z M343.762,13.729
					c0.013-0.016,0.023-0.03,0.033-0.046c0.023,0.027,0.047,0.055,0.072,0.079C343.833,13.749,343.797,13.739,343.762,13.729z"/>
				<path fill="#FFFFFF" d="M367.159,8.428c-0.088-0.448-0.523-0.739-0.971-0.652c-0.066,0.013-0.128,0.033-0.187,0.059
					c0-0.035-0.006-0.072-0.012-0.107c-0.103-0.512-0.601-0.848-1.111-0.748c-0.283,0.058-0.51,0.23-0.643,0.463
					c-0.191-0.195-0.476-0.296-0.765-0.236c-0.354,0.066-0.608,0.346-0.672,0.676c-0.106-0.02-0.223-0.02-0.338,0.005
					c-0.377,0.073-0.656,0.364-0.736,0.716h5.445C367.172,8.543,367.168,8.487,367.159,8.428z M364.305,8.545
					c0.011-0.012,0.019-0.023,0.027-0.035c0.018,0.021,0.035,0.042,0.053,0.062C364.362,8.561,364.334,8.552,364.305,8.545z"/>
			</g>
		</g>
	</g>
	<g>
		<g>
			<g>
				<g>
					<g>
						<path fill="#F05A2A" d="M354.452,11.599c-1.117,0.03-2.072,1.287-2.049,2.181c0.021,0.895,2.211,4.277,2.211,4.277
							c0.619-1.55,2.014-3.505,1.992-4.384C356.583,12.795,355.567,11.573,354.452,11.599z"/>
						<path fill="#F8EC3A" d="M354.452,11.664c-0.91,0.022-1.691,1.051-1.672,1.78c0.018,0.73,1.805,3.495,1.805,3.495
							c0.506-1.265,1.646-2.863,1.629-3.582S355.364,11.642,354.452,11.664z"/>
						<path fill="#FFFFFF" d="M354.452,11.656c-0.703,0.019-1.305,0.81-1.289,1.373c0.014,0.563,1.393,2.692,1.393,2.692
							c0.39-0.976,1.269-2.208,1.254-2.76C355.793,12.409,355.155,11.638,354.452,11.656z"/>
					</g>
					<g>
						<path fill="#F05A2A" d="M353.606,12.063c-0.73-0.144-1.531,0.534-1.646,1.117c-0.117,0.583,0.811,3.097,0.811,3.097
							c0.628-0.914,1.818-1.979,1.931-2.554C354.815,13.15,354.333,12.207,353.606,12.063z"/>
						<path fill="#F8EC3A" d="M353.596,12.106c-0.596-0.118-1.252,0.436-1.344,0.911c-0.096,0.479,0.662,2.533,0.662,2.533
							c0.514-0.748,1.484-1.619,1.578-2.089C354.584,12.992,354.192,12.224,353.596,12.106z"/>
						<path fill="#FFFFFF" d="M353.598,12.101c-0.461-0.092-0.965,0.335-1.039,0.704c-0.071,0.365,0.515,1.95,0.515,1.95
							c0.393-0.576,1.143-1.248,1.215-1.609C354.36,12.785,354.057,12.192,353.598,12.101z"/>
					</g>
					<g>
						<path fill="#F05A2A" d="M353.938,11.887c-0.435,0.188-0.607,0.831-0.457,1.178c0.149,0.348,1.543,1.325,1.543,1.325
							c-0.002-0.705,0.233-1.691,0.086-2.031C354.963,12.017,354.37,11.698,353.938,11.887z"/>
						<path fill="#F8EC3A" d="M353.948,11.912c-0.353,0.152-0.494,0.68-0.371,0.962c0.123,0.284,1.262,1.082,1.262,1.082
							c-0.006-0.574,0.189-1.381,0.068-1.659S354.301,11.759,353.948,11.912z"/>
						<path fill="#FFFFFF" d="M353.948,11.909c-0.273,0.117-0.383,0.523-0.287,0.742c0.094,0.217,0.973,0.832,0.973,0.832
							c-0.004-0.441,0.146-1.063,0.053-1.278C354.594,11.99,354.219,11.79,353.948,11.909z"/>
					</g>
				</g>
			</g>
		</g>
		<g>
			<path fill="#C6421E" d="M351.653,6.377c0,0-1.373,0.787-2.056,2.18c-0.86,1.769-1.088,4.475-0.754,4.646
				c0.336,0.173,0.742-1.131,1.418-1.895c1.117-1.263,2.082-1.188,2.082-1.188L351.653,6.377z"/>
			<path fill="#AA290B" d="M356.85,6.377c0,0,1.373,0.787,2.054,2.18c0.862,1.769,1.092,4.475,0.756,4.646
				c-0.336,0.173-0.74-1.131-1.418-1.895c-1.117-1.263-2.084-1.188-2.084-1.188L356.85,6.377z"/>
			<path fill="#2B2B38" d="M356.268,12.319c0.154-0.477,1.188-3.842,1.188-8.021c0-3.457-1.994-5.418-3.203-6.387
				c-1.209,0.969-3.203,2.93-3.203,6.387c0,4.179,1.033,7.544,1.188,8.021H356.268z"/>
			<path fill="#FFFFFF" d="M350.196,2.402c0,5.291,1.311,8.435,1.504,9.038h5.104c0.195-0.604,1.506-3.747,1.506-9.038
				c0-2.332-0.719-4.527-1.618-6.256h-4.873C350.913-2.127,350.196,0.07,350.196,2.402z"/>
			<path fill="#C6421E" d="M354.252-7.098c-0.715,0.573-1.646,1.729-2.436,3.244h4.873C355.899-5.369,354.967-6.525,354.252-7.098z"
				/>
			<path fill="#F0F1F1" d="M356.69-3.854h-2.438V11.44h2.551c0.195-0.604,1.506-3.747,1.506-9.038
				C358.309,0.07,357.59-2.127,356.69-3.854z"/>
			<g>
				<circle fill="#A5DCF0" cx="354.25" cy="0.183" r="1.748"/>
				<g>
					<path fill="#2B2B38" d="M356.055,1.214c0.564-0.994,0.213-2.259-0.78-2.824c-0.996-0.563-2.261-0.214-2.826,0.781
						c-0.563,0.996-0.213,2.261,0.783,2.825C354.227,2.56,355.491,2.211,356.055,1.214z M355.657,0.989
						c-0.439,0.776-1.424,1.051-2.201,0.608c-0.775-0.438-1.047-1.425-0.607-2.2s1.425-1.048,2.199-0.607
						C355.825-0.772,356.096,0.213,355.657,0.989z"/>
					<circle opacity="0.3" fill="#E6E6E7" enable-background="new    " cx="354.252" cy="0.194" r="1.765"/>
					<path opacity="0.5" fill="#FFFFFF" enable-background="new    " d="M352.893,0.683c-0.192-0.579,0-1.241,0.521-1.617
						c0.52-0.378,1.209-0.354,1.699,0.011c0,0-0.836,0.338-1.271,0.654C353.389,0.058,352.893,0.683,352.893,0.683z"/>
				</g>
			</g>
			<path fill="#C6421E" d="M354.262,7.001L354.262,7.001h-0.002c-0.344,0-0.571,0.533-0.571,1.249s0.075,4.97,0.571,4.97
				c0.002,0,0.002,0,0.002,0l0,0c0.5,0,0.576-4.254,0.576-4.97S354.608,7.001,354.262,7.001z"/>
			<path fill="#AA290B" d="M354.25-3.854h2.439c-0.791-1.515-1.724-2.671-2.438-3.244l0,0L354.25-3.854z"/>
			<path fill="#AA290B" d="M354.262,7.001L354.262,7.001v6.219l0,0c0.5,0,0.576-4.254,0.576-4.97S354.608,7.001,354.262,7.001z"/>
		</g>
	</g>
</g>
<g>
	<rect x="174.982" y="12.269" fill="#00C9C9" width="2" height="11.04"/>
	<rect x="170.462" y="16.788" fill="#00C9C9" width="11.039" height="2"/>
</g>
</svg>
