<?xml version="1.0" encoding="utf-8"?>
<!-- Generator: Adobe Illustrator 16.0.0, SVG Export Plug-In . SVG Version: 6.00 Build 0)  -->
<!DOCTYPE svg PUBLIC "-//W3C//DTD SVG 1.1//EN" "http://www.w3.org/Graphics/SVG/1.1/DTD/svg11.dtd">
<svg version="1.1" xmlns="http://www.w3.org/2000/svg" xmlns:xlink="http://www.w3.org/1999/xlink" x="0px" y="0px"
	 width="558.907px" height="198.381px" viewBox="0.404 1.699 558.907 198.381" enable-background="new 0.404 1.699 558.907 198.381"
	 xml:space="preserve">
<g id="レイヤー_1">
</g>
<g id="レイヤー_2">
	<g>
		<rect x="0.404" y="1.701" fill="#00176B" width="153.878" height="198.381"/>
	</g>
	<g>
		<rect x="202.855" y="1.701" fill="#0228CC" width="153.878" height="198.381"/>
	</g>
	<g>
		<rect x="405.432" y="1.701" fill="#E84830" width="153.879" height="198.381"/>
	</g>
	<g>
		<g>
			<g>
				<path d="M176.128,55.003c-0.14,0.519-0.252,0.98-0.252,1.471c0,0.938,0.938,1.625,3.011,1.625c1.863,0,3.6-0.21,4.707-0.546
					l0.014,1.513c-1.079,0.266-2.746,0.462-4.678,0.462c-2.914,0-4.482-0.967-4.482-2.731c0-0.757,0.154-1.387,0.266-1.919
					L176.128,55.003z M175.302,49.399c0.995,0.127,2.255,0.183,3.642,0.183c1.317,0,2.76-0.098,3.768-0.196v1.442
					c-0.924,0.07-2.493,0.154-3.754,0.154c-1.401,0-2.549-0.056-3.656-0.14V49.399z M184.239,49.792l-0.896,0.393
					c-0.28-0.561-0.729-1.387-1.106-1.905l0.896-0.378C183.482,48.392,183.973,49.26,184.239,49.792z M185.822,49.189l-0.882,0.393
					c-0.309-0.589-0.757-1.373-1.121-1.891l0.869-0.364C185.051,47.831,185.569,48.699,185.822,49.189z"/>
				<path d="M180.401,70.473c0.924,1.499,2.661,2.214,5.393,2.438c-0.294,0.294-0.644,0.854-0.798,1.232
					c-2.717-0.336-4.426-1.176-5.505-2.885c-0.603,1.177-2.157,2.297-5.897,2.885c-0.154-0.308-0.49-0.812-0.756-1.092
					c3.852-0.589,5.141-1.611,5.533-2.578h-5.183v-1.12h5.337v-0.925h1.331v0.925h5.561v1.12H180.401z M173.019,67.083
					c0.687-0.069,1.541-0.168,2.479-0.266v-1.401h-2.031v-1.008h2.031v-1.107h-2.227v-1.008h2.227v-1.022h1.219v1.022h2.101v1.008
					h-2.101v1.107h1.933v1.008h-1.933v1.247l2.157-0.267l0.028,0.799c1.569-0.854,1.933-2.241,2.059-4.216h-1.821v-1.107h6.177
					c0,0,0,0.364-0.014,0.519c-0.14,3.418-0.28,4.707-0.644,5.155c-0.238,0.308-0.504,0.42-0.896,0.462
					c-0.336,0.042-0.925,0.042-1.527,0.028c-0.028-0.351-0.154-0.869-0.35-1.163c0.546,0.056,1.05,0.056,1.261,0.056
					c0.21,0,0.336-0.027,0.462-0.168c0.196-0.266,0.336-1.246,0.448-3.781h-1.877c-0.182,2.465-0.7,4.202-2.746,5.267
					c-0.112-0.238-0.378-0.589-0.602-0.813c-2.045,0.294-4.16,0.561-5.687,0.756L173.019,67.083z"/>
				<path d="M174.587,83.479c-0.182,1.316-0.504,2.676-0.938,3.572c-0.21-0.154-0.728-0.393-0.994-0.49
					c0.42-0.841,0.686-2.073,0.826-3.278L174.587,83.479z M177.179,79.739c0.574,0.911,1.148,2.102,1.345,2.872l-0.995,0.476
					c-0.056-0.224-0.14-0.49-0.252-0.784l-1.036,0.07v5.771h-1.163v-5.701c-0.799,0.042-1.541,0.084-2.186,0.126l-0.112-1.149
					l0.98-0.027c0.266-0.336,0.532-0.7,0.813-1.093c-0.435-0.616-1.149-1.373-1.765-1.961l0.63-0.868
					c0.126,0.111,0.252,0.224,0.378,0.336c0.434-0.771,0.896-1.779,1.148-2.535l1.177,0.42c-0.504,0.952-1.093,2.059-1.597,2.815
					c0.266,0.28,0.504,0.561,0.687,0.813c0.546-0.841,1.051-1.709,1.415-2.438l1.107,0.477c-0.798,1.274-1.849,2.815-2.788,3.978
					l1.863-0.069c-0.182-0.393-0.378-0.771-0.588-1.121L177.179,79.739z M177.529,83.213c0.378,0.841,0.756,1.934,0.91,2.647
					l-1.036,0.364c-0.126-0.728-0.504-1.835-0.854-2.689L177.529,83.213z M185.43,78.339c-0.238,6.177-0.42,8.362-1.009,9.077
					c-0.336,0.462-0.687,0.588-1.232,0.644c-0.477,0.07-1.331,0.057-2.157,0.015c-0.028-0.379-0.182-0.938-0.435-1.303
					c0.911,0.07,1.751,0.084,2.087,0.084c0.294,0,0.448-0.057,0.602-0.238c0.448-0.448,0.672-2.521,0.854-7.662h-4.272
					c-0.378,0.715-0.799,1.358-1.233,1.877c-0.252-0.224-0.84-0.603-1.148-0.784c1.064-1.135,1.933-2.956,2.423-4.791l1.331,0.309
					c-0.21,0.729-0.476,1.457-0.771,2.143h4.959V78.339z M181.129,84.572c-0.28-0.854-1.05-2.213-1.793-3.222l1.051-0.519
					c0.756,0.952,1.583,2.283,1.891,3.151L181.129,84.572z"/>
			</g>
		</g>
		<g>
			<polygon points="161.875,103.674 154.31,100.229 161.875,96.783 			"/>
			<polygon points="195.316,103.674 202.882,100.229 195.316,96.783 			"/>
			
				<line fill="none" stroke="#000000" stroke-width="2" stroke-miterlimit="10" x1="158.092" y1="100.229" x2="200.461" y2="100.229"/>
		</g>
	</g>
	<g>
		<g>
			<g>
				<path d="M379.393,55.003c-0.141,0.519-0.252,0.98-0.252,1.471c0,0.938,0.938,1.625,3.012,1.625c1.863,0,3.6-0.21,4.707-0.546
					l0.014,1.513c-1.079,0.266-2.746,0.462-4.679,0.462c-2.913,0-4.482-0.967-4.482-2.731c0-0.757,0.153-1.387,0.267-1.919
					L379.393,55.003z M378.567,49.399c0.994,0.127,2.255,0.183,3.642,0.183c1.317,0,2.76-0.098,3.769-0.196v1.442
					c-0.925,0.07-2.494,0.154-3.754,0.154c-1.401,0-2.55-0.056-3.656-0.14V49.399z M387.503,49.792l-0.896,0.393
					c-0.28-0.561-0.729-1.387-1.106-1.905l0.896-0.378C386.747,48.392,387.237,49.26,387.503,49.792z M389.086,49.189l-0.883,0.393
					c-0.309-0.589-0.756-1.373-1.121-1.891l0.869-0.364C388.316,47.831,388.834,48.699,389.086,49.189z"/>
				<path d="M388.68,63.694c-0.588,0.532-1.316,1.106-1.961,1.555c0.742,0.589,1.541,1.064,2.395,1.387
					c-0.293,0.252-0.686,0.742-0.867,1.079c-1.164-0.532-2.214-1.289-3.139-2.228v0.687h-5.127V65.6
					c-0.98,0.98-2.129,1.751-3.277,2.283c-0.154-0.267-0.518-0.715-0.771-0.938c0.883-0.364,1.793-0.953,2.605-1.653
					c-0.421-0.434-1.093-0.952-1.667-1.316l0.701-0.715c0.615,0.351,1.33,0.869,1.736,1.289c0.49-0.519,0.924-1.093,1.261-1.681
					h-3.194v-1.079h3.824l0.225-0.056l0.84,0.435c-0.406,1.078-1.021,2.045-1.765,2.885h4.202c-0.883-0.994-1.61-2.143-2.156-3.403
					l1.105-0.336c0.238,0.546,0.533,1.078,0.883,1.582c0.588-0.476,1.232-1.05,1.625-1.498l0.98,0.7
					c-0.616,0.546-1.358,1.148-2.003,1.597c0.252,0.309,0.532,0.603,0.827,0.883c0.629-0.477,1.316-1.079,1.75-1.569L388.68,63.694z
					 M385.739,70.992c-0.309,0.631-0.645,1.261-0.925,1.737h3.769v1.093h-12.02v-1.093h3.601c-0.14-0.505-0.435-1.177-0.729-1.681
					l0.771-0.211h-1.568v-3.684h7.83v3.684h-1.346L385.739,70.992z M379.897,69.788h5.239v-1.569h-5.239V69.788z M380.682,70.838
					c0.35,0.547,0.672,1.233,0.799,1.737l-0.561,0.154h3.081l-0.435-0.112c0.295-0.477,0.645-1.219,0.869-1.779H380.682z"/>
				<path d="M384.379,85.285c-0.854,0.659-1.779,1.331-2.591,1.892l-0.337-0.589l0.015,0.112c-1.751,0.378-3.586,0.771-4.987,1.051
					l-0.266-1.19c0.616-0.099,1.373-0.238,2.199-0.393v-3.95h-2.045v-1.135h2.045v-1.274h-1.345v-0.616
					c-0.14,0.126-0.28,0.266-0.435,0.406c-0.168-0.267-0.561-0.658-0.799-0.826c1.219-1.037,2.088-2.41,2.536-3.502h1.106
					c0.826,0.714,1.85,1.751,2.34,2.451l-0.841,0.98h0.112v1.106h-1.541v1.274h1.891v1.135h-1.891v3.74l1.82-0.351l0.028,0.379
					c0.7-0.435,1.64-1.051,2.592-1.682L384.379,85.285z M377.459,82.849c0.267,0.826,0.49,1.849,0.547,2.535l-0.924,0.238
					c-0.029-0.687-0.238-1.751-0.477-2.55L377.459,82.849z M380.948,78.702c-0.393-0.603-1.148-1.541-1.849-2.214
					c-0.393,0.673-0.911,1.457-1.583,2.214H380.948z M379.897,85.146c0.211-0.658,0.449-1.709,0.547-2.409l0.98,0.252
					c-0.238,0.813-0.49,1.751-0.701,2.381L379.897,85.146z M386.523,83.437c0.589,1.135,1.456,2.199,2.689,2.829
					c-0.252,0.238-0.658,0.743-0.841,1.065c-1.219-0.757-2.072-1.989-2.646-3.194v2.689c0,0.589-0.084,0.911-0.463,1.106
					c-0.364,0.183-0.91,0.196-1.667,0.196c-0.028-0.322-0.183-0.813-0.321-1.135c0.461,0.015,0.91,0.015,1.05,0.015
					c0.154-0.015,0.196-0.057,0.196-0.21v-5.785h-3.012v-1.121h5.127v-0.994h-4.133v-1.022h4.133v-0.995h-4.412v-1.093h5.617v4.104
					h1.092v1.121h-3.207v0.35c0.168,0.603,0.392,1.261,0.699,1.892c0.505-0.505,1.121-1.289,1.471-1.85l1.023,0.645
					c-0.561,0.658-1.219,1.358-1.737,1.835L386.523,83.437z M382.586,81.63c0.574,0.532,1.219,1.288,1.499,1.807l-0.938,0.63
					c-0.252-0.532-0.868-1.316-1.429-1.877L382.586,81.63z"/>
			</g>
		</g>
		<g>
			<polygon points="364.346,103.674 356.78,100.229 364.346,96.783 			"/>
			<polygon points="397.788,103.674 405.352,100.229 397.788,96.783 			"/>
			
				<line fill="none" stroke="#000000" stroke-width="2" stroke-miterlimit="10" x1="360.563" y1="100.229" x2="402.932" y2="100.229"/>
		</g>
	</g>
	<g>
		<path fill="#FFFFFF" d="M273.043,86.823h4.83v8.564h-1.485v-0.63h-9.855v-1.395h9.855v-1.98h-9.045v-1.335h9.045v-1.829h-9.555
			v-1.396h4.695v-5.205h1.515V86.823z M268.409,86.193c-0.285-0.96-1.065-2.399-1.83-3.45l1.26-0.51
			c0.81,1.05,1.59,2.43,1.905,3.375L268.409,86.193z M278.083,82.594c-0.63,1.29-1.44,2.729-2.085,3.675l-1.23-0.45
			c0.615-0.99,1.38-2.55,1.8-3.72L278.083,82.594z"/>
		<path fill="#FFFFFF" d="M285.944,91.188c-0.346-0.436-1.02-1.155-1.635-1.771v5.97h-1.381v-5.534
			c-0.674,0.66-1.395,1.229-2.1,1.68c-0.135-0.36-0.479-1.02-0.689-1.29c1.709-0.975,3.435-2.715,4.455-4.59h-3.93v-1.274h2.264
			v-2.761h1.381v2.761h1.035l0.239-0.045l0.78,0.524c-0.45,1.14-1.109,2.235-1.859,3.225c0.704,0.57,1.949,1.65,2.295,1.965
			L285.944,91.188z M294.313,93.588v1.38h-8.399v-1.38h3.63v-5.88h-3.029v-1.35h3.029v-4.62h1.425v4.62h3.03v1.35h-3.03v5.88
			H294.313z"/>
	</g>
	<g>
		<path fill="#FFFFFF" d="M301.226,182.251h-3.84l-0.944,3.149h-1.771l3.659-11.039h2.011L304,185.4h-1.844L301.226,182.251z
			 M300.806,180.886l-0.435-1.485c-0.375-1.199-0.705-2.43-1.051-3.675h-0.06c-0.315,1.26-0.66,2.476-1.021,3.675l-0.449,1.485
			H300.806z"/>
		<path fill="#FFFFFF" d="M304.676,183.976l1.02-1.2c0.795,0.795,1.875,1.305,2.94,1.305c1.335,0,2.085-0.63,2.085-1.56
			c0-1.005-0.75-1.32-1.77-1.77l-1.53-0.66c-1.065-0.45-2.25-1.29-2.25-2.896c0-1.739,1.53-3.045,3.63-3.045
			c1.29,0,2.505,0.54,3.345,1.396l-0.915,1.109c-0.689-0.614-1.455-0.989-2.43-0.989c-1.125,0-1.859,0.54-1.859,1.425
			c0,0.945,0.885,1.305,1.784,1.665l1.515,0.645c1.306,0.556,2.25,1.365,2.25,2.985c0,1.77-1.47,3.21-3.885,3.21
			C307.091,185.596,305.681,184.995,304.676,183.976z"/>
		<path fill="#FFFFFF" d="M314.577,174.361h3.344c2.461,0,4.215,0.84,4.215,3.329c0,2.415-1.754,3.525-4.154,3.525h-1.665v4.185
			h-1.739V174.361z M317.816,179.82c1.771,0,2.61-0.675,2.61-2.13s-0.916-1.935-2.67-1.935h-1.44v4.064H317.816z"/>
		<path fill="#FFFFFF" d="M328.975,182.386c-0.345-0.436-1.02-1.155-1.635-1.771v5.97h-1.38v-5.534
			c-0.675,0.66-1.396,1.229-2.1,1.68c-0.136-0.36-0.479-1.02-0.69-1.29c1.71-0.975,3.436-2.715,4.455-4.59h-3.93v-1.274h2.265
			v-2.761h1.38v2.761h1.035l0.24-0.045l0.779,0.524c-0.449,1.14-1.109,2.235-1.859,3.225c0.705,0.57,1.949,1.65,2.295,1.965
			L328.975,182.386z M337.345,184.785v1.38h-8.399v-1.38h3.629v-5.88h-3.029v-1.35h3.029v-4.62H334v4.62h3.029v1.35H334v5.88
			H337.345z"/>
	</g>
	<g>
		<path fill="#FFFFFF" d="M222.512,173.386c-0.42,0.99-0.945,1.98-1.515,2.91v10.26h-1.44v-8.205c-0.57,0.735-1.17,1.396-1.8,1.965
			c-0.135-0.345-0.555-1.08-0.795-1.395c1.665-1.41,3.27-3.66,4.23-5.97L222.512,173.386z M226.502,178.575
			c0.48,3.676,1.38,6.15,2.805,6.315c0.375,0.015,0.6-0.811,0.735-2.505c0.27,0.285,0.885,0.66,1.155,0.765
			c-0.345,2.715-1.035,3.45-1.83,3.405c-2.505-0.21-3.675-3.181-4.245-7.785l-3.285,0.42l-0.21-1.319l3.36-0.42
			c-0.12-1.365-0.21-2.835-0.27-4.41h1.41c0.045,1.5,0.12,2.925,0.24,4.215l4.395-0.555l0.18,1.305L226.502,178.575z
			 M229.577,176.176c-0.435-0.69-1.41-1.725-2.25-2.475l1.035-0.66c0.855,0.705,1.845,1.71,2.325,2.399L229.577,176.176z"/>
		<path fill="#FFFFFF" d="M237.242,183.525c-1.635,0.57-3.375,1.155-4.725,1.59l-0.33-1.425c0.54-0.15,1.2-0.33,1.92-0.555v-3.811
			h-1.62v-1.289h1.62v-2.985h-1.77v-1.29h4.77v1.29h-1.665v2.985h1.425v1.289h-1.425v3.391c0.51-0.165,1.05-0.33,1.56-0.511
			L237.242,183.525z M246.107,184.83v1.275h-9.584v-1.275h4.35v-1.784h-3.255v-1.261h3.255v-1.545h-3.12v-6.749h7.68v6.749h-3.135
			v1.545h3.33v1.261h-3.33v1.784H246.107z M239.027,176.296h1.965v-1.62h-1.965V176.296z M239.027,179.056h1.965v-1.65h-1.965
			V179.056z M244.097,174.676h-1.92v1.62h1.92V174.676z M244.097,177.405h-1.92v1.65h1.92V177.405z"/>
		<path fill="#FFFFFF" d="M260.912,174.646v1.351h-11.055v2.46c0,2.34-0.225,5.819-1.53,8.114c-0.255-0.225-0.87-0.645-1.185-0.795
			c1.215-2.13,1.32-5.175,1.32-7.319v-3.811h5.4v-1.83h1.455v1.83H260.912z M255.842,177.871h4.859v1.244h-4.859v1.92h3.915v5.535
			h-1.425v-0.54h-5.97v0.555h-1.365v-5.55h3.435v-4.77h1.41V177.871z M258.332,182.266h-5.97v2.52h5.97V182.266z"/>
	</g>
	<g>
		<path fill="#FFFFFF" d="M278.915,138.498h-4.061v-1.681h4.061v-4.321h1.761v4.321h4.061v1.681h-4.061v4.32h-1.761V138.498z"/>
	</g>
	<g>
		<path fill="#FFCC5C" stroke="#FFFFFF" stroke-miterlimit="10" d="M106.1,137.493c0,15.59-12.756,28.346-28.347,28.346
			c-15.59,0-28.347-12.756-28.347-28.346c0-15.588,12.757-28.346,28.347-28.346C93.344,109.147,106.1,121.905,106.1,137.493z"/>
		<path fill="#E0AE4B" d="M64.774,152.835l13.004,13.004c14.484-0.012,26.511-11.037,28.13-25.107l-15.076-15.076L64.774,152.835z"
			/>
		<polygon fill="#7CC6D8" points="71.378,124.97 77.972,122.558 90.036,126.485 90.036,152.124 65.457,152.124 65.457,134.829 
			71.484,133.349 		"/>
		<path fill="#FFF4E1" d="M77.972,121.673l-7.232,2.422v8.021l-6.065,1.418v19.521l13.298,0.453v0.002l12.861-0.359V125.64
			L77.972,121.673z M70.739,150.608h-4.639v-2.496l4.639-0.154V150.608z M70.739,145.31l-4.639,0.309v-2.512l4.639-0.465V145.31z
			 M70.739,140.007l-4.639,0.621v-2.496l4.639-0.775V140.007z M74.165,150.61h-1.713v-2.709l1.713-0.057V150.61z M74.165,145.079
			l-1.713,0.115v-2.709l1.713-0.172V145.079z M74.165,139.55l-1.713,0.229v-2.709l1.713-0.287V139.55z M74.165,134.019l-1.713,0.344
			v-2.709l1.713-0.4V134.019z M74.165,128.485l-1.713,0.461v-2.709l1.713-0.516V128.485z M89.149,150.61H77.902l-1.833-0.002v-2.828
			l1.833-0.061l11.247,0.426V150.61z M89.149,145.53l-11.247-0.701l-1.909,0.129v-2.828l1.909-0.191l11.247,1.02V145.53z
			 M89.149,140.409l-11.178-1.371l-1.902,0.256v-2.83l1.902-0.318l11.178,1.732V140.409z M89.149,135.351l-11.247-2.084
			l-1.833,0.369v-2.83l1.833-0.43l11.247,2.422V135.351z M89.149,130.241l-11.247-2.756l-1.909,0.512v-2.826l1.909-0.576
			l11.247,3.061V130.241z"/>
		<polygon fill="#D8CCC3" points="89.149,127.655 89.149,130.241 77.972,127.503 77.972,130.392 89.149,132.798 89.149,135.351 
			77.972,133.28 77.972,136.146 89.149,137.878 89.149,140.409 77.972,139.038 77.972,141.944 89.149,142.958 89.149,145.53 
			77.972,144.833 77.972,147.722 89.149,148.146 89.149,150.61 77.972,150.61 77.972,153.509 77.972,153.511 90.833,153.151 
			90.833,125.64 77.972,121.673 77.972,124.612 		"/>
	</g>
	<g>
		<path fill="#FFCC5C" stroke="#FFFFFF" stroke-miterlimit="10" d="M271.574,137.623c0,15.592-12.756,28.348-28.347,28.348
			c-15.59,0-28.346-12.756-28.346-28.348c0-15.59,12.756-28.346,28.346-28.346C258.818,109.277,271.574,122.033,271.574,137.623z"/>
		<path fill="#E0AE4B" d="M271,143.297l-12.306-12.307l-32.63,20.408l14.438,14.438c0.898,0.088,1.807,0.135,2.726,0.135
			C256.876,165.971,268.353,156.193,271,143.297z"/>
		<polygon fill="#7CC6D8" points="246.155,124.602 258.693,130.973 258.693,150.568 227.316,150.568 227.307,133.01 
			238.384,128.432 		"/>
		<polygon fill="#FFF4E1" points="246.227,148.553 246.154,148.555 246.103,148.553 236.313,148.725 236.315,146.031 
			246.227,145.291 258.693,146.643 258.693,144.432 246.227,142.027 236.317,143.338 236.319,140.645 246.227,138.764 
			258.693,142.176 258.693,139.936 246.227,135.498 236.32,137.951 236.322,135.258 246.227,132.234 258.693,137.695 
			258.693,135.498 246.227,128.973 236.324,132.564 236.325,129.869 246.227,125.709 258.693,133.26 258.693,130.973 
			246.227,122.445 236.326,127.154 236.325,129.043 234.524,129.898 234.524,129.869 232.069,129.18 227.306,131.445 
			227.306,133.658 232.071,131.67 232.074,134.096 227.306,135.834 227.306,138.008 232.076,136.539 232.077,138.984 
			227.306,140.182 227.306,142.355 232.079,141.447 232.081,143.9 227.306,144.531 227.306,146.705 232.083,146.348 
			232.085,148.797 225.972,148.912 225.972,151.342 246.117,152.457 260.541,151.471 260.541,148.912 		"/>
		<path fill="#D8CCC3" d="M258.693,142.176l-12.466-3.412v-3.266l12.466,4.438V142.176z M246.227,152.449l14.313-0.979v-2.559
			l-14.313-0.359V152.449z M258.693,144.432l-12.466-2.404v3.264l12.466,1.352V144.432z M258.693,135.498l-12.466-6.525v3.262
			l12.466,5.461V135.498z M258.693,133.26v-2.287l-12.466-8.527v3.264L258.693,133.26z"/>
		<polygon fill="#D8CCC3" points="234.524,129.869 232.069,129.18 232.125,151.682 234.483,151.725 		"/>
	</g>
	<g>
		<path fill="#FFCC5C" stroke="#FFFFFF" stroke-miterlimit="10" d="M344.567,137.623c0,15.592-12.757,28.348-28.348,28.348
			c-15.59,0-28.346-12.756-28.346-28.348c0-15.59,12.756-28.346,28.346-28.346C331.81,109.277,344.567,122.033,344.567,137.623z"/>
		<path fill="#E0AE4B" d="M343.224,146.211l-21.988-22.023l-11.304,25.475l-5.455,4.666l11.639,11.641
			c0.035,0,0.068,0.002,0.104,0.002C328.819,165.971,339.563,157.637,343.224,146.211z"/>
		<polygon fill="#7CC6D8" points="321.499,150.322 321.499,127.982 314.17,124.881 309.684,126.08 309.684,150.322 305.151,150.322 
			305.151,153.492 327.278,153.492 327.278,150.322 		"/>
		<path fill="#FFF4E1" d="M322.395,149.262v-21.908l-1.195-0.516v-2.633l-7.385-3.41l-3.816,1.801v2.707l-1.195,0.516v23.145
			l-4.387,0.381v5.006l9.398-0.063l14.266,0.166v-4.707L322.395,149.262z M316.512,141.455v-3.688l3.591,0.885v3.494
			L316.512,141.455z M320.103,143.889v3.512l-3.591-0.398v-3.771L320.103,143.889z M316.512,135.871v-3.668l3.591,1.119v3.563
			L316.512,135.871z M316.512,130.328v-3.65l3.591,1.443v3.471L316.512,130.328z M309.999,127.119l2.521-1.021v3.768l-2.521,0.889
			V127.119z M309.999,132.572l2.521-0.822v3.77l-2.521,0.686V132.572z M309.999,138.023l2.521-0.621v3.771l-2.521,0.484V138.023z
			 M309.999,143.477l2.521-0.42v3.768l-2.521,0.287V143.477z M307.649,152.639l-2.191,0.074v-1.697l2.191-0.131V152.639z
			 M312.52,152.48l-2.521,0.082v-1.814l2.521-0.154V152.48z M317.778,152.6l-2.543-0.074v-1.932l2.543,0.15V152.6z M322.268,152.729
			l-2.213-0.064v-1.785l2.213,0.129V152.729z M326.272,152.844l-1.941-0.055v-1.658l1.941,0.113V152.844z"/>
		<path fill="#D8CCC3" d="M328.081,154.453v-4.707l-5.686-0.484v-21.908l-1.195-0.516v-2.633l-7.385-3.41v33.492L328.081,154.453z
			 M324.331,151.131l1.941,0.113v1.6l-1.941-0.055V151.131z M322.268,151.008v1.721l-2.213-0.064v-1.785L322.268,151.008z
			 M316.512,126.678l3.591,1.443v3.471l-3.591-1.264V126.678z M316.512,132.203l3.591,1.119v3.563l-3.591-1.014V132.203z
			 M316.512,137.768l3.591,0.885v3.494l-3.591-0.691V137.768z M316.512,143.23l3.591,0.658v3.512l-3.591-0.398V143.23z
			 M315.235,150.594l2.543,0.15v1.855l-2.543-0.074V150.594z"/>
	</g>
	<g>
		<path fill="#FFFFFF" d="M58.143,87.453c0,2.311-0.225,5.73-1.635,7.92c-0.24-0.21-0.855-0.645-1.185-0.78
			c1.305-2.069,1.425-5.039,1.425-7.14v-3.854h5.31v-1.98h1.44v1.98h5.58v1.335H58.143V87.453z M67.922,95.433
			c-0.135-0.39-0.33-0.854-0.57-1.335c-3.314,0.226-6.794,0.436-9.165,0.57l-0.135-1.439c0.525-0.016,1.125-0.045,1.785-0.061
			c0.795-2.055,1.71-5.085,2.175-7.395l1.575,0.345c-0.615,2.295-1.485,5.01-2.265,6.99c1.65-0.075,3.525-0.15,5.385-0.24
			c-0.585-1.02-1.275-2.085-1.95-2.985l1.275-0.569c1.305,1.68,2.73,3.93,3.3,5.46L67.922,95.433z"/>
		<path fill="#FFFFFF" d="M83.912,87.019v1.305H70.818v-1.305h6.149v-2.07h-3.479c-0.435,0.721-0.885,1.351-1.335,1.86
			c-0.3-0.195-0.93-0.57-1.275-0.75c1.08-1.021,2.025-2.7,2.564-4.335l1.395,0.33c-0.195,0.54-0.42,1.095-0.66,1.62h2.79v-2.04h1.47
			v2.04h4.44v1.274h-4.44v2.07H83.912z M72.603,89.628h9.69v5.82h-1.455v-0.765h-6.825v0.795h-1.41V89.628z M74.013,90.918v2.476
			h6.825v-2.476H74.013z"/>
		<path fill="#FFFFFF" d="M99.017,93.528v1.365h-13.29v-1.365h5.85v-3.315h-4.455v-1.35h4.455v-2.984h-5.175v-1.365h6.3
			c-0.615-0.66-1.59-1.5-2.415-2.085l1.14-0.795c0.96,0.645,2.189,1.649,2.805,2.354l-0.735,0.525h4.77v1.365h-5.16v2.984h4.5v1.35
			h-4.5v3.315H99.017z"/>
	</g>
	<g>
		<path fill="#FFFFFF" d="M431.903,84.063c-0.135,0.165-0.375,0.45-0.495,0.63c-0.646,1.095-2.069,3-3.675,4.14l-1.244-1.005
			c1.305-0.765,2.624-2.25,3.059-3.104h-8.234c-0.584,0-1.109,0.045-1.754,0.09v-1.665c0.555,0.075,1.17,0.135,1.754,0.135h8.385
			c0.346,0,1.02-0.045,1.26-0.104L431.903,84.063z M425.843,86.059c0,3.915-0.226,6.795-4.17,8.819l-1.38-1.125
			c0.436-0.149,0.96-0.39,1.439-0.734c2.146-1.38,2.49-3.271,2.49-5.76c0-0.405-0.016-0.766-0.09-1.2H425.843z"/>
		<path fill="#FFFFFF" d="M444.249,84.229c-0.12,0.24-0.195,0.57-0.27,0.87c-0.33,1.53-1.021,3.915-2.236,5.505
			c-1.364,1.77-3.239,3.21-5.969,4.064l-1.275-1.41c2.925-0.72,4.62-1.994,5.85-3.569c1.035-1.305,1.68-3.225,1.875-4.604h-7.364
			c-0.646,0-1.245,0.029-1.62,0.06v-1.68c0.42,0.06,1.125,0.12,1.62,0.12h7.274c0.255,0,0.63-0.016,0.96-0.105L444.249,84.229z"/>
		<path fill="#FFFFFF" d="M455.424,86.104c-0.705,0.78-2.041,1.845-3.391,2.715v5.175c0,0.479,0.016,1.185,0.075,1.439h-1.739
			c0.029-0.255,0.074-0.96,0.074-1.439v-4.26c-1.29,0.66-3.045,1.395-4.515,1.785l-0.795-1.38c1.92-0.405,4.02-1.32,5.249-2.04
			c1.5-0.87,3.105-2.13,3.855-3.09L455.424,86.104z"/>
		<path fill="#FFFFFF" d="M459.879,82.834c-0.03,0.314-0.061,0.689-0.061,1.109v5.025c0,0.39,0.03,0.914,0.061,1.215h-1.756
			c0.016-0.255,0.076-0.78,0.076-1.215v-5.025c0-0.27-0.031-0.795-0.061-1.109H459.879z M466.809,82.714
			c-0.03,0.39-0.061,0.84-0.061,1.38v2.67c0,3.435-0.539,4.71-1.65,5.97c-0.975,1.14-2.489,1.814-3.584,2.189l-1.245-1.305
			c1.425-0.36,2.715-0.93,3.63-1.965c1.05-1.185,1.245-2.355,1.245-4.979v-2.58c0-0.54-0.046-0.99-0.091-1.38H466.809z"/>
		<path fill="#FFFFFF" d="M480.549,92.118c0.479,0,0.914-0.06,1.305-0.104v1.709c-0.405-0.045-0.99-0.06-1.305-0.06h-9.9
			c-0.435,0-0.915,0.015-1.395,0.06v-1.709c0.449,0.074,0.96,0.104,1.395,0.104h4.035v-6.555h-3.165c-0.33,0-0.944,0.015-1.319,0.06
			v-1.635c0.389,0.045,0.975,0.075,1.319,0.075h8.204c0.465,0,0.945-0.03,1.351-0.075v1.635c-0.42-0.045-0.915-0.06-1.351-0.06
			h-3.404v6.555H480.549z"/>
		<path fill="#FFFFFF" d="M491.274,92.988c0,0.615,0.029,1.439,0.105,1.77h-1.86c0.045-0.33,0.09-1.154,0.09-1.77v-5.34
			c-1.575,0.84-3.569,1.68-5.43,2.205l-0.854-1.455c2.564-0.585,5.1-1.695,6.764-2.729c1.516-0.945,3.075-2.28,3.916-3.36
			l1.274,1.155c-1.08,1.08-2.49,2.25-4.005,3.225V92.988z"/>
		<path fill="#FFFFFF" d="M505.915,90.528c-1.59-0.855-4.02-1.8-5.67-2.34v4.635c0,0.465,0.045,1.38,0.12,1.92h-1.845
			c0.074-0.525,0.119-1.335,0.119-1.92v-8.67c0-0.479-0.045-1.17-0.135-1.68h1.846c-0.045,0.495-0.105,1.155-0.105,1.68v2.34
			c1.98,0.601,4.845,1.665,6.345,2.4L505.915,90.528z"/>
		<path fill="#FFFFFF" d="M519.564,85.458c0.72,0,1.2-0.029,1.5-0.09v1.59c-0.24-0.029-0.78-0.045-1.485-0.045h-1.425v0.511
			c0,3.869-0.87,6.015-4.38,7.589l-1.275-1.199c2.806-1.035,4.125-2.325,4.125-6.3v-0.601h-3.959v2.25
			c0,0.615,0.045,1.245,0.06,1.455h-1.649c0.015-0.21,0.074-0.84,0.074-1.455v-2.25h-1.47c-0.705,0-1.319,0.03-1.56,0.045v-1.604
			c0.195,0.03,0.869,0.104,1.56,0.104h1.47v-1.725c0-0.524-0.06-1.005-0.074-1.2h1.68c-0.03,0.195-0.09,0.646-0.09,1.2v1.725h3.959
			v-1.739c0-0.601-0.045-1.095-0.074-1.305h1.694c-0.03,0.225-0.09,0.704-0.09,1.305v1.739H519.564z"/>
		<path fill="#FFFFFF" d="M530.184,92.988c0,0.615,0.03,1.439,0.105,1.77h-1.859c0.045-0.33,0.09-1.154,0.09-1.77v-5.34
			c-1.575,0.84-3.57,1.68-5.43,2.205l-0.855-1.455c2.564-0.585,5.1-1.695,6.765-2.729c1.515-0.945,3.075-2.28,3.915-3.36
			l1.275,1.155c-1.08,1.08-2.49,2.25-4.006,3.225V92.988z"/>
		<path fill="#FFFFFF" d="M544.825,90.528c-1.59-0.855-4.02-1.8-5.67-2.34v4.635c0,0.465,0.045,1.38,0.12,1.92h-1.845
			c0.074-0.525,0.119-1.335,0.119-1.92v-8.67c0-0.479-0.045-1.17-0.135-1.68h1.846c-0.045,0.495-0.105,1.155-0.105,1.68v2.34
			c1.98,0.601,4.845,1.665,6.345,2.4L544.825,90.528z"/>
	</g>
	<g>
		<g>
			<defs>
				<path id="SVGID_1_" d="M510.718,137.495c0,15.59-12.757,28.348-28.347,28.348c-15.591,0-28.346-12.758-28.346-28.348
					s12.755-28.348,28.346-28.348C497.961,109.147,510.718,121.905,510.718,137.495z"/>
			</defs>
			<use xlink:href="#SVGID_1_"  overflow="visible" fill="#FFCC5C"/>
			<clipPath id="SVGID_2_">
				<use xlink:href="#SVGID_1_"  overflow="visible"/>
			</clipPath>
			<g clip-path="url(#SVGID_2_)">
				<g>
					<path fill="#01A2A5" d="M467.394,149.606c-0.589,1.395-0.782,2.078-0.407,3.334c3.08,0,6.162,0,9.246,0
						c-1.511-4.504-3.018-9.01-4.528-13.506C470.268,142.825,468.832,146.216,467.394,149.606z"/>
					<path fill="#01A2A5" d="M498.002,149.606c-1.437-3.391-2.875-6.781-4.311-10.172c-1.51,4.496-3.018,9.002-4.527,13.506
						c3.084,0,6.164,0,9.248,0C498.786,151.685,498.592,151.001,498.002,149.606z"/>
				</g>
				<path fill-rule="evenodd" clip-rule="evenodd" fill="#EBEBEB" d="M456.235,152.94h50.178c0.078,0,0.145,0.115,0.145,0.26v1.652
					c0,0.143-0.066,0.258-0.145,0.258h-50.178c-0.085,0-0.148-0.115-0.148-0.258V153.2
					C456.086,153.056,456.15,152.94,456.235,152.94L456.235,152.94z"/>
				<g>
					<rect x="457.298" y="155.11" fill="#EBEBEB" width="1.144" height="11.289"/>
					<rect x="504.453" y="156.817" fill="#EBEBEB" width="1.104" height="10.895"/>
				</g>
				<rect x="458.442" y="155.11" fill-rule="evenodd" clip-rule="evenodd" fill="#EBEBEB" width="45.758" height="5.641"/>
				<g>
					<rect x="457.298" y="155.11" fill="#EBEBEB" width="1.144" height="1.035"/>
					<rect x="504.453" y="156.817" fill="#EBEBEB" width="1.104" height="0.998"/>
				</g>
				<rect x="458.442" y="155.11" fill-rule="evenodd" clip-rule="evenodd" fill="#D8D9D9" width="45.758" height="1.035"/>
				<rect x="458.45" y="155.11" fill-rule="evenodd" clip-rule="evenodd" fill="#D8D9D9" width="0.92" height="5.641"/>
				<rect x="503.697" y="156.817" fill-rule="evenodd" clip-rule="evenodd" fill="#C3C4C4" width="0.756" height="5.443"/>
				<path fill-rule="evenodd" clip-rule="evenodd" fill="#592E25" d="M476.153,121.651c0,0,1.437,8.766-1.559,14.246l3.809,0.727
					l3.463-0.518l0.832-4.662l0.834,4.662l3.463,0.518l3.809-0.727c-2.996-5.48-1.559-14.246-1.559-14.246l-5.971-2.529
					l-0.576,12.229l-0.574-12.229L476.153,121.651z"/>
				<path fill-rule="evenodd" clip-rule="evenodd" fill="#4D2219" d="M482.081,134.888l0.617-3.443l0.619,3.443h4.699
					c0,0-1.538-5.094-1.027-10.182l-3.98,0.107l-0.311,6.537l-0.309-6.516l-4.512,0.123c0,0,1.028,4.367-0.518,9.93H482.081z"/>
				<path fill-rule="evenodd" clip-rule="evenodd" fill="#FEB67C" d="M482.698,143.853c3.528,0,7.057,0,10.592,0
					c-0.151-2.006,0.459-9.133-2.121-9.67c-1.607-0.338-3.211-0.668-4.82-1.006c-1.982-0.418-1.422-6.883-1.321-8.537
					c-1.043,0.885-1.279,1.855-2.329,2.738c-1.048-0.883-1.285-1.854-2.334-2.738c0.107,1.654,0.668,8.119-1.315,8.537
					c-1.61,0.338-3.21,0.668-4.821,1.006c-2.579,0.537-1.969,7.664-2.119,9.67C475.635,143.853,479.17,143.853,482.698,143.853
					L482.698,143.853z"/>
				<path fill-rule="evenodd" clip-rule="evenodd" fill="#F2AA70" d="M489.079,133.743l-2.73-0.566
					c-1.545-0.324-1.545-4.303-1.422-6.842l-1.337,0.064c-0.243,0.33-0.517,0.662-0.892,0.979c-0.344-0.295-0.603-0.598-0.832-0.896
					l-1.388,0.063c0.065,1.459,0.081,3.326-0.208,4.713c1.106,1.127,3.881,3.508,7.293,3.119
					C488.209,134.296,488.698,134.073,489.079,133.743L489.079,133.743z"/>
				<path fill-rule="evenodd" clip-rule="evenodd" fill="#01A2A5" d="M482.698,143.853c3.528,0,7.057,0,10.592,0
					c-0.151-2.006,0.459-9.133-2.121-9.67c-1.607-0.338-3.211-0.668-4.82-1.006c-0.101-0.023-0.201-0.064-0.295-0.123l-0.625,0.947
					l-1.637,0.59l-1.094-0.252l-1.092,0.252l-1.637-0.59l-0.627-0.947c-0.092,0.059-0.193,0.1-0.294,0.123
					c-1.61,0.338-3.21,0.668-4.821,1.006c-2.579,0.537-1.969,7.664-2.119,9.67C475.635,143.853,479.17,143.853,482.698,143.853
					L482.698,143.853z"/>
				<path fill-rule="evenodd" clip-rule="evenodd" fill="#4ED2D4" d="M479.79,132.595c0.77,0.84,1.744,1.4,2.908,1.744
					c-0.553,0.598-0.84,1.387-0.904,2.328c-1.2-0.99-2.351-2.018-2.996-3.441C479.042,132.938,479.365,132.724,479.79,132.595
					L479.79,132.595z"/>
				<path fill-rule="evenodd" clip-rule="evenodd" fill="#4ED2D4" d="M485.608,132.595c-0.77,0.84-1.744,1.4-2.91,1.744
					c0.555,0.598,0.842,1.387,0.906,2.328c1.199-0.99,2.35-2.018,2.997-3.441C486.356,132.938,486.033,132.724,485.608,132.595
					L485.608,132.595z"/>
				<path fill-rule="evenodd" clip-rule="evenodd" fill="#FEB67C" d="M488.684,121.651c0.008,0.123,0.008,0.244,0.008,0.367
					c0,5.193-2.681,9.404-5.994,9.404c-3.313,0-5.992-4.211-5.992-9.404c0-0.123,0-0.244,0.008-0.367l5.942-4.445L488.684,121.651z"
					/>
				<path fill-rule="evenodd" clip-rule="evenodd" fill="#F2AA70" d="M488.684,121.651c0.008,0.123,0.008,0.244,0.008,0.367
					c0,0.633-0.037,1.25-0.117,1.846c-6.055,0.863-9.885-0.424-11.861-1.465c-0.008-0.129-0.008-0.252-0.008-0.381
					c0-0.123,0-0.244,0.008-0.367l5.08-3.799l1.652-0.066L488.684,121.651z"/>
				<path fill-rule="evenodd" clip-rule="evenodd" fill="#592E25" d="M476.153,121.651c0-10.898,13.092-10.865,13.092,0
					c-1.207,0.217-2.422,0.383-3.629,0.48l-0.123-0.934l-0.682,1c-0.338,0.021-0.684,0.037-1.02,0.049l-0.102-1.768l-0.51,1.791
					c-0.941,0.014-1.883-0.008-2.823-0.066l-0.548-1.176l-0.509,1.092C478.251,122.019,477.202,121.86,476.153,121.651
					L476.153,121.651z"/>
				<path fill-rule="evenodd" clip-rule="evenodd" fill="#EBEBEB" d="M470.506,136.315h24.385c0.539,0,0.984,0.445,0.984,0.992
					v12.996c0,0.547-0.445,0.992-0.984,0.992h-24.385c-0.539,0-0.984-0.445-0.984-0.992v-12.996
					C469.522,136.761,469.967,136.315,470.506,136.315L470.506,136.315z"/>
				<path fill-rule="evenodd" clip-rule="evenodd" fill="#E0E1E1" d="M470.506,136.315h3.275
					c0.468,4.053,3.536,13.695,22.094,13.162v0.826c0,0.547-0.445,0.992-0.984,0.992h-24.385c-0.539,0-0.984-0.445-0.984-0.992
					v-12.996C469.522,136.761,469.967,136.315,470.506,136.315L470.506,136.315z"/>
				<path fill-rule="evenodd" clip-rule="evenodd" fill="#EBEBEB" d="M468.759,151.296h27.879c0.214,0,0.395,0.172,0.395,0.395
					v0.848c0,0.223-0.181,0.402-0.395,0.402h-27.879c-0.216,0-0.395-0.18-0.395-0.402v-0.848
					C468.365,151.468,468.543,151.296,468.759,151.296L468.759,151.296z"/>
				<path fill-rule="evenodd" clip-rule="evenodd" fill="#FEFEFE" d="M482.698,141.841c1.086,0,1.97,0.877,1.97,1.961
					c0,1.094-0.884,1.969-1.97,1.969c-1.085,0-1.968-0.875-1.968-1.969C480.73,142.718,481.613,141.841,482.698,141.841
					L482.698,141.841z"/>
				<rect x="472.338" y="160.751" fill-rule="evenodd" clip-rule="evenodd" fill="#01A2A5" width="20.721" height="5.648"/>
			</g>
			<use xlink:href="#SVGID_1_"  overflow="visible" fill="none" stroke="#FFFFFF" stroke-miterlimit="10"/>
		</g>
	</g>
</g>
</svg>
