<?xml version="1.0" encoding="utf-8"?>
<!-- Generator: Adobe Illustrator 16.0.0, SVG Export Plug-In . SVG Version: 6.00 Build 0)  -->
<!DOCTYPE svg PUBLIC "-//W3C//DTD SVG 1.1//EN" "http://www.w3.org/Graphics/SVG/1.1/DTD/svg11.dtd">
<svg version="1.1" id="レイヤー_1" xmlns="http://www.w3.org/2000/svg" xmlns:xlink="http://www.w3.org/1999/xlink" x="0px"
	 y="0px" width="80.064px" height="80.064px" viewBox="593.463 171.065 80.064 80.064"
	 enable-background="new 593.463 171.065 80.064 80.064" xml:space="preserve">
<g>
	<circle fill="#00C9C9" cx="633.495" cy="211.098" r="40.032"/>
	<g>
		<path fill="#FFFFFF" d="M630.652,199.182v2.141h2.181v1.721h-2.181v4.761c0,1-0.22,1.54-0.9,1.86c-0.699,0.26-1.8,0.3-3.301,0.3
			c-0.08-0.54-0.319-1.319-0.58-1.86c1.121,0.04,2.201,0.04,2.521,0.02c0.32,0,0.42-0.079,0.42-0.359v-4.721h-6.962v-1.061
			l-1.921,0.6v7.382h-1.72v-6.841c-1.14,0.34-2.22,0.66-3.161,0.939l-0.479-1.779c1-0.24,2.261-0.581,3.641-0.98v-4.021h-1.62
			c-0.24,1.041-0.5,1.98-0.82,2.74c-0.28-0.22-0.98-0.64-1.34-0.84c0.68-1.62,1.06-4.141,1.24-6.521l1.6,0.28
			c-0.1,0.86-0.199,1.74-0.359,2.581h1.3v-3.901h1.72v3.901h1.861v1.76h-1.861v3.541l2.102-0.62l0.16,1.12h6.621v-2.141h-7.342
			v-1.721h4.921v-2.18h-3.741v-1.681h3.741V191.6h1.841v2.001h3.86v1.681h-3.86v2.18h4.761v1.721H630.652z M624.151,203.363
			c0.94,0.899,2.001,2.199,2.46,3.08l-1.48,0.961c-0.42-0.881-1.459-2.241-2.38-3.182L624.151,203.363z"/>
		<path fill="#FFFFFF" d="M639.73,196.281c-0.381,0.78-0.82,1.58-1.301,2.36v11.322h-1.699v-8.862
			c-0.48,0.641-0.98,1.221-1.461,1.721c-0.199-0.4-0.74-1.279-1.041-1.68c1.441-1.361,2.961-3.441,3.902-5.481l1.6,0.58v-2.96h1.32
			v3.66h1.26v-5.321h1.521v5.321h1.299v-3.641h1.32v5.102h-6.721V196.281z M639.43,192.221c-1.02,1.68-2.6,3.5-4.041,4.681
			c-0.219-0.38-0.68-1.08-0.959-1.421c1.221-1,2.619-2.58,3.32-3.881L639.43,192.221z M652.193,197.102
			c-0.301,3.141-0.82,5.701-1.781,7.801c0.701,1.541,1.641,2.781,2.881,3.602c-0.359,0.3-0.92,0.96-1.141,1.4
			c-1.1-0.841-1.959-1.98-2.641-3.361c-0.939,1.4-2.141,2.541-3.721,3.481c-0.199-0.32-0.82-0.961-1.18-1.261
			c1.881-0.98,3.201-2.32,4.121-4.08c-0.5-1.4-0.859-3.001-1.141-4.722c-0.24,0.44-0.48,0.86-0.74,1.24
			c-0.119-0.2-0.34-0.521-0.58-0.819v0.879h-2.4v1.641h2.281v1.44h-2.281v1.78c0.881-0.08,1.801-0.16,2.701-0.24v1.461
			c-2.48,0.3-5.102,0.561-7.021,0.779l-0.24-1.619c0.82-0.061,1.859-0.141,2.98-0.24v-1.921h-2.221v-1.44h2.221v-1.641h-2.541v-1.48
			h6.002l-0.041-0.039c1.342-1.961,2.061-5.002,2.48-8.122l1.721,0.28c-0.199,1.24-0.439,2.461-0.719,3.621h3.9v1.58H652.193z
			 M648.732,197.102c-0.061,0.18-0.121,0.38-0.18,0.561c0.24,1.779,0.561,3.48,1.02,5c0.5-1.6,0.801-3.44,0.98-5.561H648.732z"/>
		<path fill="#FFFFFF" d="M636.9,238.403h-4.018v-19.419l-5.927,2.021v-3.387l9.431-3.47h0.514V238.403z"/>
	</g>
</g>
</svg>
