<?xml version="1.0" encoding="utf-8"?>
<!-- Generator: Adobe Illustrator 16.0.0, SVG Export Plug-In . SVG Version: 6.00 Build 0)  -->
<!DOCTYPE svg PUBLIC "-//W3C//DTD SVG 1.1//EN" "http://www.w3.org/Graphics/SVG/1.1/DTD/svg11.dtd">
<svg version="1.1" xmlns="http://www.w3.org/2000/svg" xmlns:xlink="http://www.w3.org/1999/xlink" x="0px" y="0px"
	 width="559.308px" height="198.381px" viewBox="0 0 559.308 198.381" enable-background="new 0 0 559.308 198.381"
	 xml:space="preserve">
<g id="レイヤー_1">
</g>
<g id="レイヤー_2">
	<g>
		<path fill="#EFF7FC" d="M253.766,3v194.381h-99.339V3H253.766 M255.766,1H152.427v198.381h103.339V1L255.766,1z"/>
	</g>
	<g>
		<path fill="#EFF7FC" d="M405.207,3v194.381h-99.339V3H405.207 M407.207,1H303.868v198.381h103.339V1L407.207,1z"/>
	</g>
	<g>
		<rect x="455.953" y="1" fill="#EFF7FC" width="103.339" height="198.381"/>
	</g>
	<g>
		<g>
			<g>
				<path d="M125.252,54.966c-0.14,0.519-0.252,0.98-0.252,1.471c0,0.938,0.938,1.625,3.011,1.625c1.863,0,3.6-0.21,4.707-0.546
					l0.014,1.513c-1.079,0.266-2.746,0.462-4.678,0.462c-2.914,0-4.482-0.967-4.482-2.731c0-0.757,0.154-1.387,0.266-1.919
					L125.252,54.966z M124.426,49.362c0.995,0.127,2.255,0.183,3.642,0.183c1.317,0,2.76-0.098,3.768-0.196v1.442
					c-0.924,0.07-2.493,0.154-3.754,0.154c-1.401,0-2.549-0.056-3.656-0.14V49.362z M133.363,49.755l-0.896,0.393
					c-0.28-0.561-0.729-1.387-1.106-1.905l0.896-0.378C132.606,48.354,133.097,49.223,133.363,49.755z M134.946,49.152l-0.882,0.393
					c-0.309-0.589-0.757-1.373-1.121-1.891l0.869-0.364C134.175,47.794,134.693,48.662,134.946,49.152z"/>
				<path d="M129.525,70.436c0.924,1.499,2.661,2.214,5.393,2.438c-0.294,0.294-0.644,0.854-0.798,1.232
					c-2.717-0.336-4.426-1.176-5.505-2.885c-0.603,1.177-2.157,2.297-5.897,2.885c-0.154-0.308-0.49-0.812-0.756-1.092
					c3.852-0.589,5.141-1.611,5.533-2.578h-5.183v-1.12h5.337v-0.925h1.331v0.925h5.561v1.12H129.525z M122.143,67.046
					c0.687-0.069,1.541-0.168,2.479-0.266v-1.401h-2.031v-1.008h2.031v-1.107h-2.227v-1.008h2.227v-1.022h1.219v1.022h2.101v1.008
					h-2.101v1.107h1.933v1.008h-1.933v1.247l2.157-0.267l0.028,0.799c1.569-0.854,1.933-2.241,2.059-4.216h-1.821v-1.107h6.177
					c0,0,0,0.364-0.014,0.519c-0.14,3.418-0.28,4.707-0.644,5.155c-0.238,0.308-0.504,0.42-0.896,0.462
					c-0.336,0.042-0.925,0.042-1.527,0.028c-0.028-0.351-0.154-0.869-0.35-1.163c0.546,0.056,1.05,0.056,1.261,0.056
					c0.21,0,0.336-0.027,0.462-0.168c0.196-0.266,0.336-1.246,0.448-3.781h-1.877c-0.182,2.465-0.7,4.202-2.746,5.267
					c-0.112-0.238-0.378-0.589-0.602-0.813c-2.045,0.294-4.16,0.561-5.687,0.756L122.143,67.046z"/>
				<path d="M123.711,83.442c-0.182,1.316-0.504,2.676-0.938,3.572c-0.21-0.154-0.728-0.393-0.994-0.49
					c0.42-0.841,0.686-2.073,0.826-3.278L123.711,83.442z M126.303,79.702c0.574,0.911,1.148,2.102,1.345,2.872l-0.995,0.476
					c-0.056-0.224-0.14-0.49-0.252-0.784l-1.036,0.07v5.771h-1.163v-5.701c-0.799,0.042-1.541,0.084-2.186,0.126l-0.112-1.149
					l0.98-0.027c0.266-0.336,0.532-0.7,0.813-1.093c-0.435-0.616-1.149-1.373-1.765-1.961l0.63-0.868
					c0.126,0.111,0.252,0.224,0.378,0.336c0.434-0.771,0.896-1.779,1.148-2.535l1.177,0.42c-0.504,0.952-1.093,2.059-1.597,2.815
					c0.266,0.28,0.504,0.561,0.687,0.813c0.546-0.841,1.051-1.709,1.415-2.438l1.107,0.477c-0.798,1.274-1.849,2.815-2.788,3.978
					l1.863-0.069c-0.182-0.393-0.378-0.771-0.588-1.121L126.303,79.702z M126.653,83.176c0.378,0.841,0.756,1.934,0.91,2.647
					l-1.036,0.364c-0.126-0.728-0.504-1.835-0.854-2.689L126.653,83.176z M134.554,78.302c-0.238,6.177-0.42,8.362-1.009,9.077
					c-0.336,0.462-0.687,0.588-1.232,0.644c-0.477,0.07-1.331,0.057-2.157,0.015c-0.028-0.379-0.182-0.938-0.435-1.303
					c0.911,0.07,1.751,0.084,2.087,0.084c0.294,0,0.448-0.057,0.602-0.238c0.448-0.448,0.672-2.521,0.854-7.662h-4.272
					c-0.378,0.715-0.799,1.358-1.233,1.877c-0.252-0.224-0.84-0.603-1.148-0.784c1.064-1.135,1.933-2.956,2.423-4.791l1.331,0.309
					c-0.21,0.729-0.476,1.457-0.771,2.143h4.959V78.302z M130.253,84.535c-0.28-0.854-1.05-2.213-1.793-3.222l1.051-0.519
					c0.756,0.952,1.583,2.283,1.891,3.151L130.253,84.535z"/>
			</g>
		</g>
		<g>
			<polygon points="110.999,103.635 103.433,100.189 110.999,96.744 			"/>
			<polygon points="144.44,103.635 152.005,100.189 144.44,96.744 			"/>
			
				<line fill="none" stroke="#000000" stroke-width="2" stroke-miterlimit="10" x1="107.216" y1="100.189" x2="149.585" y2="100.189"/>
		</g>
	</g>
	<g>
		<g>
			<g>
				<path d="M277.063,56.766c-0.14,0.519-0.252,0.98-0.252,1.471c0,0.938,0.938,1.625,3.011,1.625c1.863,0,3.6-0.21,4.707-0.546
					l0.014,1.513c-1.078,0.266-2.746,0.462-4.678,0.462c-2.914,0-4.482-0.967-4.482-2.731c0-0.757,0.154-1.387,0.266-1.919
					L277.063,56.766z M276.236,51.162c0.995,0.127,2.255,0.183,3.642,0.183c1.317,0,2.76-0.098,3.768-0.196v1.442
					c-0.924,0.07-2.493,0.154-3.754,0.154c-1.401,0-2.549-0.056-3.656-0.14V51.162z M285.173,51.555l-0.896,0.393
					c-0.281-0.561-0.729-1.387-1.107-1.905l0.896-0.378C284.417,50.154,284.907,51.022,285.173,51.555z M286.755,50.952
					l-0.882,0.393c-0.309-0.589-0.757-1.373-1.121-1.891l0.868-0.364C285.986,49.594,286.503,50.462,286.755,50.952z"/>
				<path d="M281.335,72.235c0.924,1.499,2.66,2.214,5.393,2.438c-0.295,0.294-0.645,0.854-0.799,1.232
					c-2.717-0.336-4.426-1.176-5.505-2.885c-0.603,1.177-2.157,2.297-5.897,2.885c-0.154-0.308-0.49-0.812-0.756-1.092
					c3.852-0.589,5.141-1.611,5.533-2.578h-5.183v-1.12h5.337V70.19h1.331v0.925h5.561v1.12H281.335z M273.953,68.846
					c0.687-0.069,1.541-0.168,2.479-0.266v-1.401h-2.031v-1.008h2.031v-1.107h-2.227v-1.008h2.227v-1.022h1.219v1.022h2.101v1.008
					h-2.101v1.107h1.933v1.008h-1.933v1.247l2.157-0.267l0.028,0.799c1.569-0.854,1.933-2.241,2.059-4.216h-1.821v-1.107h6.177
					c0,0,0,0.364-0.014,0.519c-0.141,3.418-0.28,4.707-0.645,5.155c-0.238,0.308-0.504,0.42-0.896,0.462
					c-0.336,0.042-0.925,0.042-1.527,0.028c-0.027-0.351-0.154-0.869-0.35-1.163c0.546,0.056,1.051,0.056,1.261,0.056
					s0.336-0.027,0.462-0.168c0.196-0.266,0.336-1.246,0.448-3.781h-1.877c-0.183,2.465-0.7,4.202-2.745,5.267
					c-0.112-0.238-0.378-0.589-0.603-0.813c-2.045,0.294-4.16,0.561-5.687,0.756L273.953,68.846z"/>
				<path d="M275.521,85.242c-0.182,1.316-0.504,2.676-0.938,3.572c-0.21-0.154-0.728-0.393-0.994-0.49
					c0.42-0.841,0.686-2.073,0.826-3.278L275.521,85.242z M278.113,81.502c0.574,0.911,1.148,2.102,1.345,2.872l-0.995,0.476
					c-0.056-0.224-0.14-0.49-0.252-0.784l-1.036,0.07v5.771h-1.163v-5.701c-0.799,0.042-1.541,0.084-2.186,0.126l-0.112-1.149
					l0.98-0.027c0.266-0.336,0.532-0.7,0.813-1.093c-0.435-0.616-1.149-1.373-1.765-1.961l0.63-0.868
					c0.126,0.111,0.252,0.224,0.378,0.336c0.434-0.771,0.896-1.779,1.148-2.535l1.177,0.42c-0.504,0.952-1.093,2.059-1.597,2.815
					c0.266,0.28,0.504,0.561,0.687,0.813c0.546-0.841,1.051-1.709,1.415-2.438l1.107,0.477c-0.798,1.274-1.849,2.815-2.788,3.978
					l1.863-0.069c-0.182-0.393-0.378-0.771-0.588-1.121L278.113,81.502z M278.463,84.976c0.378,0.841,0.756,1.934,0.91,2.647
					l-1.036,0.364c-0.126-0.728-0.504-1.835-0.854-2.689L278.463,84.976z M286.364,80.102c-0.238,6.177-0.421,8.362-1.009,9.077
					c-0.336,0.462-0.687,0.588-1.232,0.644c-0.477,0.07-1.331,0.057-2.157,0.015c-0.028-0.379-0.183-0.938-0.435-1.303
					c0.91,0.07,1.751,0.084,2.088,0.084c0.293,0,0.447-0.057,0.602-0.238c0.448-0.448,0.672-2.521,0.854-7.662h-4.272
					c-0.378,0.715-0.798,1.358-1.232,1.877c-0.252-0.224-0.84-0.603-1.148-0.784c1.064-1.135,1.934-2.956,2.424-4.791l1.33,0.309
					c-0.21,0.729-0.477,1.457-0.771,2.143h4.959V80.102z M282.063,86.335c-0.28-0.854-1.05-2.213-1.793-3.222l1.051-0.519
					c0.757,0.952,1.583,2.283,1.892,3.151L282.063,86.335z"/>
			</g>
		</g>
		<g>
			<polygon points="262.81,103.635 255.244,100.189 262.81,96.744 			"/>
			<polygon points="296.251,103.635 303.816,100.189 296.251,96.744 			"/>
			
				<line fill="none" stroke="#000000" stroke-width="2" stroke-miterlimit="10" x1="259.027" y1="100.189" x2="301.396" y2="100.189"/>
		</g>
	</g>
	<g>
		<g>
			<g>
				<path d="M429.092,56.766c-0.14,0.519-0.252,0.98-0.252,1.471c0,0.938,0.938,1.625,3.011,1.625c1.863,0,3.601-0.21,4.707-0.546
					l0.014,1.513c-1.078,0.266-2.745,0.462-4.678,0.462c-2.914,0-4.482-0.967-4.482-2.731c0-0.757,0.154-1.387,0.266-1.919
					L429.092,56.766z M428.265,51.162c0.995,0.127,2.256,0.183,3.643,0.183c1.316,0,2.76-0.098,3.768-0.196v1.442
					c-0.924,0.07-2.492,0.154-3.754,0.154c-1.4,0-2.549-0.056-3.656-0.14V51.162z M437.203,51.555l-0.896,0.393
					c-0.28-0.561-0.729-1.387-1.106-1.905l0.896-0.378C436.447,50.154,436.937,51.022,437.203,51.555z M438.786,50.952l-0.882,0.393
					c-0.309-0.589-0.758-1.373-1.121-1.891l0.868-0.364C438.015,49.594,438.533,50.462,438.786,50.952z"/>
				<path d="M438.379,65.457c-0.589,0.532-1.317,1.106-1.961,1.555c0.742,0.589,1.54,1.064,2.396,1.387
					c-0.295,0.252-0.688,0.742-0.869,1.079c-1.162-0.532-2.213-1.289-3.137-2.228v0.687h-5.127v-0.574
					c-0.98,0.98-2.13,1.751-3.278,2.283c-0.153-0.267-0.519-0.715-0.771-0.938c0.883-0.364,1.793-0.953,2.605-1.653
					c-0.42-0.434-1.092-0.952-1.667-1.316l0.7-0.715c0.617,0.351,1.331,0.869,1.737,1.289c0.49-0.519,0.925-1.093,1.261-1.681
					h-3.193v-1.079h3.824l0.224-0.056l0.841,0.435c-0.406,1.078-1.023,2.045-1.766,2.885h4.203
					c-0.883-0.994-1.611-2.143-2.158-3.403l1.107-0.336c0.238,0.546,0.531,1.078,0.882,1.582c0.589-0.476,1.233-1.05,1.625-1.498
					l0.98,0.7c-0.616,0.546-1.358,1.148-2.003,1.597c0.252,0.309,0.532,0.603,0.826,0.883c0.631-0.477,1.316-1.079,1.751-1.569
					L438.379,65.457z M435.437,72.755c-0.308,0.631-0.644,1.261-0.924,1.737h3.768v1.093h-12.018v-1.093h3.6
					c-0.141-0.505-0.434-1.177-0.729-1.681l0.771-0.211h-1.569v-3.684h7.83v3.684h-1.344L435.437,72.755z M429.597,71.551h5.238
					v-1.569h-5.238V71.551z M430.38,72.601c0.352,0.547,0.673,1.233,0.799,1.737l-0.561,0.154h3.082l-0.434-0.112
					c0.293-0.477,0.645-1.219,0.868-1.779H430.38z"/>
				<path d="M434.08,87.048c-0.855,0.659-1.779,1.331-2.592,1.892l-0.336-0.589l0.014,0.112c-1.751,0.378-3.586,0.771-4.986,1.051
					l-0.267-1.19c0.616-0.099,1.372-0.238,2.199-0.393v-3.95h-2.045v-1.135h2.045v-1.274h-1.345v-0.616
					c-0.141,0.126-0.28,0.266-0.434,0.406c-0.169-0.267-0.561-0.658-0.799-0.826c1.219-1.037,2.087-2.41,2.535-3.502h1.106
					c0.827,0.714,1.849,1.751,2.339,2.451l-0.84,0.98h0.111v1.106h-1.54v1.274h1.891v1.135h-1.891v3.74l1.821-0.351l0.027,0.379
					c0.701-0.435,1.639-1.051,2.592-1.682L434.08,87.048z M427.16,84.611c0.266,0.826,0.49,1.849,0.546,2.535l-0.925,0.238
					c-0.027-0.687-0.238-1.751-0.477-2.55L427.16,84.611z M430.647,80.465c-0.392-0.603-1.148-1.541-1.849-2.214
					c-0.393,0.673-0.91,1.457-1.583,2.214H430.647z M429.597,86.908c0.209-0.658,0.447-1.709,0.546-2.409l0.98,0.252
					c-0.238,0.813-0.49,1.751-0.7,2.381L429.597,86.908z M436.222,85.199c0.588,1.135,1.457,2.199,2.689,2.829
					c-0.252,0.238-0.658,0.743-0.84,1.065c-1.219-0.757-2.074-1.989-2.648-3.194v2.689c0,0.589-0.084,0.911-0.462,1.106
					c-0.364,0.183-0.911,0.196-1.667,0.196c-0.027-0.322-0.182-0.813-0.322-1.135c0.463,0.015,0.91,0.015,1.051,0.015
					c0.154-0.015,0.196-0.057,0.196-0.21v-5.785h-3.012v-1.121h5.126v-0.994h-4.131v-1.022h4.131v-0.995h-4.412v-1.093h5.617v4.104
					h1.093v1.121h-3.208v0.35c0.168,0.603,0.393,1.261,0.701,1.892c0.504-0.505,1.12-1.289,1.471-1.85l1.022,0.645
					c-0.561,0.658-1.219,1.358-1.737,1.835L436.222,85.199z M432.287,83.393c0.574,0.532,1.219,1.288,1.498,1.807l-0.938,0.63
					c-0.252-0.532-0.868-1.316-1.429-1.877L432.287,83.393z"/>
			</g>
		</g>
		<g>
			<polygon points="414.839,103.635 407.274,100.189 414.839,96.744 			"/>
			<polygon points="448.281,103.635 455.846,100.189 448.281,96.744 			"/>
			
				<line fill="none" stroke="#000000" stroke-width="2" stroke-miterlimit="10" x1="411.056" y1="100.189" x2="453.425" y2="100.189"/>
		</g>
	</g>
	<g>
		<g>
			<g>
				<path d="M187.015,81.138c-0.42,0.99-0.945,1.98-1.515,2.91v10.26h-1.44v-8.205c-0.57,0.735-1.17,1.396-1.8,1.965
					c-0.135-0.345-0.555-1.08-0.795-1.395c1.665-1.41,3.27-3.66,4.23-5.97L187.015,81.138z M191.004,86.327
					c0.48,3.676,1.38,6.15,2.805,6.315c0.375,0.015,0.6-0.811,0.735-2.505c0.27,0.285,0.885,0.66,1.155,0.765
					c-0.345,2.715-1.035,3.45-1.83,3.405c-2.505-0.21-3.675-3.181-4.245-7.785l-3.285,0.42l-0.21-1.319l3.36-0.42
					c-0.12-1.365-0.21-2.835-0.27-4.41h1.41c0.045,1.5,0.12,2.925,0.24,4.215l4.395-0.555l0.18,1.305L191.004,86.327z
					 M194.08,83.928c-0.435-0.69-1.41-1.725-2.25-2.475l1.035-0.66c0.855,0.705,1.845,1.71,2.325,2.399L194.08,83.928z"/>
				<path d="M201.745,91.277c-1.635,0.57-3.375,1.155-4.725,1.59l-0.33-1.425c0.54-0.15,1.2-0.33,1.92-0.555v-3.811h-1.62v-1.289
					h1.62v-2.985h-1.77v-1.29h4.77v1.29h-1.665v2.985h1.425v1.289h-1.425v3.391c0.51-0.165,1.05-0.33,1.56-0.511L201.745,91.277z
					 M210.609,92.582v1.275h-9.584v-1.275h4.35v-1.784h-3.255v-1.261h3.255v-1.545h-3.12v-6.749h7.68v6.749h-3.135v1.545h3.33v1.261
					h-3.33v1.784H210.609z M203.53,84.048h1.965v-1.62h-1.965V84.048z M203.53,86.808h1.965v-1.65h-1.965V86.808z M208.6,82.428
					h-1.92v1.62h1.92V82.428z M208.6,85.157h-1.92v1.65h1.92V85.157z"/>
				<path d="M225.415,82.397v1.351H214.36v2.46c0,2.34-0.225,5.819-1.53,8.114c-0.255-0.225-0.87-0.645-1.185-0.795
					c1.215-2.13,1.32-5.175,1.32-7.319v-3.811h5.4v-1.83h1.455v1.83H225.415z M220.345,85.623h4.859v1.244h-4.859v1.92h3.915v5.535
					h-1.425v-0.54h-5.97v0.555H215.5v-5.55h3.435v-4.77h1.41V85.623z M222.834,90.018h-5.97v2.52h5.97V90.018z"/>
			</g>
		</g>
	</g>
	<g>
		<g>
			<g>
				<path d="M339.962,90.543h-3.84l-0.945,3.149h-1.77l3.66-11.039h2.01l3.66,11.039h-1.846L339.962,90.543z M339.542,89.178
					l-0.436-1.485c-0.375-1.199-0.705-2.43-1.049-3.675h-0.061c-0.314,1.26-0.66,2.476-1.02,3.675l-0.45,1.485H339.542z"/>
				<path d="M343.413,92.268l1.021-1.2c0.795,0.795,1.875,1.305,2.939,1.305c1.335,0,2.085-0.63,2.085-1.56
					c0-1.005-0.75-1.32-1.771-1.77l-1.529-0.66c-1.064-0.45-2.25-1.29-2.25-2.896c0-1.739,1.529-3.045,3.63-3.045
					c1.29,0,2.505,0.54,3.345,1.396l-0.915,1.109c-0.69-0.614-1.454-0.989-2.43-0.989c-1.125,0-1.86,0.54-1.86,1.425
					c0,0.945,0.885,1.305,1.785,1.665l1.516,0.645c1.305,0.556,2.25,1.365,2.25,2.985c0,1.77-1.471,3.21-3.885,3.21
					C345.828,93.888,344.417,93.287,343.413,92.268z"/>
				<path d="M353.312,82.653h3.346c2.459,0,4.215,0.84,4.215,3.329c0,2.415-1.756,3.525-4.155,3.525h-1.665v4.185h-1.74V82.653z
					 M356.552,88.112c1.77,0,2.609-0.675,2.609-2.13s-0.914-1.935-2.67-1.935h-1.439v4.064H356.552z"/>
				<path d="M367.712,90.678c-0.346-0.436-1.021-1.155-1.636-1.771v5.97h-1.38v-5.534c-0.675,0.66-1.395,1.229-2.1,1.68
					c-0.135-0.36-0.48-1.02-0.689-1.29c1.709-0.975,3.434-2.715,4.454-4.59h-3.93v-1.274h2.265v-2.761h1.38v2.761h1.035l0.239-0.045
					l0.781,0.524c-0.451,1.14-1.11,2.235-1.86,3.225c0.704,0.57,1.95,1.65,2.295,1.965L367.712,90.678z M376.082,93.077v1.38h-8.4
					v-1.38h3.631v-5.88h-3.03v-1.35h3.03v-4.62h1.424v4.62h3.031v1.35h-3.031v5.88H376.082z"/>
			</g>
		</g>
	</g>
	<g>
		<g>
			<g>
				<path d="M321.088,106.267h-2.559l-0.63,2.099h-1.18l2.439-7.355h1.339l2.438,7.355h-1.229L321.088,106.267z M320.808,105.356
					l-0.289-0.989c-0.25-0.799-0.471-1.619-0.7-2.448h-0.04c-0.209,0.84-0.439,1.649-0.68,2.448l-0.3,0.989H320.808z"/>
				<path d="M327.308,102.179c0-1.13,0.52-1.909,1.738-1.909c0.381,0,0.73,0.08,0.98,0.19l-0.23,0.859
					c-0.199-0.09-0.42-0.141-0.609-0.141c-0.48,0-0.729,0.32-0.729,0.99v0.699h1.109v0.92h-1.109v4.577h-1.149v-4.577h-2.158v4.577
					H324v-4.577h-0.749v-0.86l0.749-0.06v-0.579c0-1.14,0.57-1.909,1.819-1.909c0.399,0,0.78,0.08,1.06,0.199l-0.23,0.86
					c-0.219-0.101-0.43-0.15-0.709-0.15c-0.49,0-0.789,0.35-0.789,1.01v0.569h2.158V102.179z M330.406,101.159
					c0-0.41,0.32-0.68,0.74-0.68s0.74,0.27,0.74,0.68c0,0.399-0.32,0.68-0.74,0.68S330.406,101.559,330.406,101.159z
					 M330.566,102.868h1.16v5.497h-1.16V102.868z"/>
				<path d="M333.451,107.076v-6.677h1.139v6.736c0,0.31,0.141,0.42,0.279,0.42c0.051,0,0.091,0,0.19-0.02l0.149,0.869
					c-0.139,0.05-0.34,0.09-0.619,0.09C333.759,108.495,333.451,107.966,333.451,107.076z"/>
				<path d="M336.27,101.159c0-0.41,0.31-0.68,0.729-0.68s0.74,0.27,0.74,0.68c0,0.399-0.32,0.68-0.74,0.68
					S336.27,101.559,336.27,101.159z M336.43,102.868h1.14v5.497h-1.14V102.868z"/>
				<path d="M338.98,106.906c0-1.18,1-1.789,3.288-2.039c-0.01-0.64-0.239-1.199-1.05-1.199c-0.579,0-1.119,0.26-1.589,0.56
					l-0.43-0.779c0.569-0.36,1.339-0.72,2.219-0.72c1.369,0,1.999,0.869,1.999,2.328v3.309h-0.939l-0.1-0.63h-0.03
					c-0.5,0.43-1.089,0.76-1.749,0.76C339.65,108.495,338.98,107.876,338.98,106.906z M342.268,106.946v-1.35
					c-1.629,0.2-2.179,0.609-2.179,1.229c0,0.54,0.369,0.76,0.859,0.76C341.429,107.586,341.818,107.355,342.268,106.946z"/>
				<path d="M345.23,106.566v-2.778h-0.8v-0.86l0.85-0.06l0.13-1.52h0.969v1.52h1.43v0.92h-1.43v2.788
					c0,0.66,0.23,0.999,0.801,0.999c0.189,0,0.43-0.06,0.589-0.13l0.21,0.85c-0.31,0.101-0.68,0.2-1.079,0.2
					C345.66,108.495,345.23,107.726,345.23,106.566z"/>
				<path d="M348.62,105.627c0-1.789,1.22-2.898,2.509-2.898c1.459,0,2.238,1.049,2.238,2.608c0,0.22-0.02,0.45-0.049,0.58h-3.568
					c0.09,1.049,0.75,1.679,1.699,1.679c0.489,0,0.909-0.15,1.309-0.41l0.4,0.729c-0.51,0.34-1.14,0.58-1.859,0.58
					C349.809,108.495,348.62,107.436,348.62,105.627z M352.378,105.127c0-0.949-0.43-1.499-1.23-1.499
					c-0.689,0-1.299,0.529-1.408,1.499H352.378z"/>
				<path d="M356.49,107.416l0.68-0.8c0.529,0.529,1.25,0.869,1.959,0.869c0.89,0,1.389-0.419,1.389-1.039
					c0-0.67-0.499-0.88-1.179-1.18l-1.02-0.439c-0.71-0.3-1.499-0.859-1.499-1.929c0-1.159,1.02-2.029,2.418-2.029
					c0.859,0,1.67,0.36,2.229,0.93l-0.61,0.739c-0.459-0.409-0.969-0.659-1.619-0.659c-0.749,0-1.238,0.359-1.238,0.949
					c0,0.63,0.59,0.87,1.189,1.109l1.009,0.43c0.87,0.37,1.499,0.91,1.499,1.989c0,1.18-0.979,2.139-2.588,2.139
					C358.099,108.495,357.16,108.096,356.49,107.416z"/>
				<path d="M362.599,105.627c0-1.789,1.22-2.898,2.509-2.898c1.46,0,2.239,1.049,2.239,2.608c0,0.22-0.021,0.45-0.051,0.58h-3.568
					c0.091,1.049,0.75,1.679,1.699,1.679c0.49,0,0.91-0.15,1.311-0.41l0.398,0.729c-0.51,0.34-1.139,0.58-1.858,0.58
					C363.789,108.495,362.599,107.436,362.599,105.627z M366.357,105.127c0-0.949-0.43-1.499-1.229-1.499
					c-0.689,0-1.3,0.529-1.41,1.499H366.357z"/>
				<path d="M368.639,102.868h0.939l0.09,0.989h0.03c0.39-0.709,0.969-1.129,1.559-1.129c0.27,0,0.45,0.04,0.62,0.12l-0.21,0.999
					c-0.189-0.06-0.33-0.09-0.55-0.09c-0.45,0-0.989,0.31-1.339,1.18v3.428h-1.14V102.868z"/>
				<path d="M371.99,102.868h1.18l0.939,2.958c0.149,0.54,0.319,1.1,0.479,1.64h0.04c0.16-0.54,0.33-1.1,0.479-1.64l0.939-2.958
					h1.12l-1.899,5.497h-1.329L371.99,102.868z"/>
				<path d="M378.019,101.159c0-0.41,0.311-0.68,0.729-0.68c0.42,0,0.739,0.27,0.739,0.68c0,0.399-0.319,0.68-0.739,0.68
					C378.33,101.839,378.019,101.559,378.019,101.159z M378.179,102.868h1.139v5.497h-1.139V102.868z"/>
				<path d="M380.66,105.627c0-1.839,1.27-2.898,2.719-2.898c0.699,0,1.209,0.279,1.608,0.63l-0.569,0.749
					c-0.3-0.27-0.609-0.43-0.99-0.43c-0.919,0-1.578,0.779-1.578,1.949c0,1.159,0.629,1.929,1.549,1.929
					c0.46,0,0.869-0.22,1.199-0.5l0.47,0.76c-0.499,0.45-1.149,0.68-1.778,0.68C381.798,108.495,380.66,107.445,380.66,105.627z"/>
				<path d="M385.83,105.627c0-1.789,1.219-2.898,2.508-2.898c1.46,0,2.239,1.049,2.239,2.608c0,0.22-0.021,0.45-0.05,0.58h-3.568
					c0.09,1.049,0.75,1.679,1.699,1.679c0.49,0,0.91-0.15,1.31-0.41l0.399,0.729c-0.51,0.34-1.139,0.58-1.859,0.58
					C387.019,108.495,385.83,107.436,385.83,105.627z M389.587,105.127c0-0.949-0.43-1.499-1.229-1.499
					c-0.689,0-1.3,0.529-1.409,1.499H389.587z"/>
				<path d="M335.424,111.01h2.229c1.639,0,2.809,0.56,2.809,2.219c0,1.608-1.17,2.349-2.77,2.349h-1.109v2.788h-1.159V111.01z
					 M337.583,114.647c1.18,0,1.738-0.45,1.738-1.419c0-0.97-0.609-1.29-1.778-1.29h-0.96v2.709H337.583z"/>
				<path d="M341.794,112.868h0.939l0.09,0.989h0.029c0.391-0.709,0.971-1.129,1.561-1.129c0.27,0,0.449,0.04,0.619,0.12
					l-0.21,0.999c-0.19-0.06-0.33-0.09-0.55-0.09c-0.449,0-0.989,0.31-1.34,1.18v3.428h-1.139V112.868z"/>
				<path d="M345.495,115.627c0-1.839,1.229-2.898,2.589-2.898s2.588,1.06,2.588,2.898c0,1.818-1.229,2.868-2.588,2.868
					S345.495,117.445,345.495,115.627z M349.493,115.627c0-1.17-0.54-1.949-1.409-1.949c-0.859,0-1.399,0.779-1.399,1.949
					c0,1.159,0.54,1.929,1.399,1.929C348.953,117.556,349.493,116.786,349.493,115.627z"/>
				<path d="M351.285,112.868h1.18l0.939,2.958c0.149,0.54,0.319,1.1,0.479,1.64h0.04c0.16-0.54,0.33-1.1,0.479-1.64l0.939-2.958
					h1.12l-1.899,5.497h-1.329L351.285,112.868z"/>
				<path d="M357.314,111.159c0-0.41,0.311-0.68,0.73-0.68s0.739,0.27,0.739,0.68c0,0.399-0.319,0.68-0.739,0.68
					S357.314,111.559,357.314,111.159z M357.474,112.868h1.14v5.497h-1.14V112.868z"/>
				<path d="M359.974,115.627c0-1.789,1.129-2.898,2.359-2.898c0.629,0,1.029,0.239,1.479,0.619l-0.05-0.909v-2.039h1.149v7.966
					h-0.939l-0.1-0.62h-0.03c-0.409,0.42-0.979,0.75-1.599,0.75C360.864,118.495,359.974,117.445,359.974,115.627z M363.762,116.876
					v-2.688c-0.409-0.37-0.8-0.5-1.21-0.5c-0.77,0-1.389,0.729-1.389,1.919c0,1.25,0.49,1.939,1.35,1.939
					C362.972,117.546,363.363,117.336,363.762,116.876z"/>
				<path d="M366.254,115.627c0-1.789,1.22-2.898,2.509-2.898c1.459,0,2.238,1.049,2.238,2.608c0,0.22-0.02,0.45-0.049,0.58h-3.568
					c0.09,1.049,0.75,1.679,1.699,1.679c0.489,0,0.909-0.15,1.309-0.41l0.4,0.729c-0.51,0.34-1.14,0.58-1.859,0.58
					C367.444,118.495,366.254,117.436,366.254,115.627z M370.013,115.127c0-0.949-0.43-1.499-1.23-1.499
					c-0.689,0-1.299,0.529-1.408,1.499H370.013z"/>
				<path d="M372.294,112.868h0.939l0.09,0.989h0.029c0.391-0.709,0.97-1.129,1.56-1.129c0.27,0,0.45,0.04,0.62,0.12l-0.211,0.999
					c-0.189-0.06-0.33-0.09-0.549-0.09c-0.45,0-0.99,0.31-1.34,1.18v3.428h-1.139V112.868z"/>
			</g>
		</g>
	</g>
	<g>
		<g>
			<g>
				<path d="M476.627,80.185c-0.135,0.165-0.375,0.45-0.495,0.63c-0.645,1.095-2.07,3-3.675,4.14l-1.245-1.005
					c1.305-0.765,2.625-2.25,3.061-3.104h-8.234c-0.586,0-1.111,0.045-1.756,0.09V79.27c0.555,0.075,1.17,0.135,1.756,0.135h8.384
					c0.345,0,1.021-0.045,1.261-0.104L476.627,80.185z M470.568,82.18c0,3.915-0.225,6.795-4.17,8.819l-1.38-1.125
					c0.435-0.149,0.96-0.39,1.44-0.734c2.145-1.38,2.489-3.271,2.489-5.76c0-0.405-0.015-0.766-0.09-1.2H470.568z"/>
				<path d="M488.972,80.35c-0.119,0.24-0.194,0.57-0.27,0.87c-0.33,1.53-1.02,3.915-2.234,5.505c-1.365,1.77-3.24,3.21-5.971,4.064
					l-1.274-1.41c2.925-0.72,4.62-1.994,5.851-3.569c1.034-1.305,1.68-3.225,1.874-4.604h-7.364c-0.645,0-1.245,0.029-1.62,0.06
					v-1.68c0.42,0.06,1.125,0.12,1.62,0.12h7.274c0.255,0,0.63-0.016,0.96-0.105L488.972,80.35z"/>
				<path d="M500.148,82.225c-0.705,0.78-2.039,1.845-3.39,2.715v5.175c0,0.479,0.015,1.185,0.075,1.439h-1.74
					c0.03-0.255,0.075-0.96,0.075-1.439v-4.26c-1.29,0.66-3.045,1.395-4.515,1.785l-0.795-1.38c1.92-0.405,4.02-1.32,5.25-2.04
					c1.5-0.87,3.104-2.13,3.854-3.09L500.148,82.225z"/>
				<path d="M504.603,78.955c-0.029,0.314-0.06,0.689-0.06,1.109v5.025c0,0.39,0.03,0.914,0.06,1.215h-1.754
					c0.015-0.255,0.074-0.78,0.074-1.215v-5.025c0-0.27-0.029-0.795-0.06-1.109H504.603z M511.533,78.835
					c-0.029,0.39-0.06,0.84-0.06,1.38v2.67c0,3.435-0.54,4.71-1.649,5.97c-0.975,1.14-2.49,1.814-3.585,2.189l-1.245-1.305
					c1.425-0.36,2.715-0.93,3.63-1.965c1.05-1.185,1.245-2.355,1.245-4.979v-2.58c0-0.54-0.045-0.99-0.09-1.38H511.533z"/>
				<path d="M525.273,88.239c0.48,0,0.916-0.06,1.305-0.104v1.709c-0.404-0.045-0.989-0.06-1.305-0.06h-9.899
					c-0.435,0-0.915,0.015-1.395,0.06v-1.709c0.45,0.074,0.96,0.104,1.395,0.104h4.035v-6.555h-3.165c-0.33,0-0.945,0.015-1.32,0.06
					v-1.635c0.391,0.045,0.976,0.075,1.32,0.075h8.205c0.465,0,0.944-0.03,1.35-0.075v1.635c-0.42-0.045-0.915-0.06-1.35-0.06
					h-3.405v6.555H525.273z"/>
				<path d="M535.999,89.109c0,0.615,0.03,1.439,0.104,1.77h-1.859c0.045-0.33,0.09-1.154,0.09-1.77v-5.34
					c-1.574,0.84-3.57,1.68-5.43,2.205l-0.855-1.455c2.565-0.585,5.1-1.695,6.766-2.729c1.515-0.945,3.074-2.28,3.914-3.36
					l1.275,1.155c-1.08,1.08-2.49,2.25-4.005,3.225V89.109z"/>
				<path d="M550.639,86.649c-1.591-0.855-4.021-1.8-5.67-2.34v4.635c0,0.465,0.045,1.38,0.12,1.92h-1.846
					c0.076-0.525,0.121-1.335,0.121-1.92v-8.67c0-0.479-0.045-1.17-0.135-1.68h1.844c-0.045,0.495-0.104,1.155-0.104,1.68v2.34
					c1.979,0.601,4.845,1.665,6.345,2.4L550.639,86.649z"/>
				<path d="M500.231,96.579c0.72,0,1.2-0.029,1.5-0.09v1.59c-0.24-0.029-0.78-0.045-1.485-0.045h-1.425v0.511
					c0,3.869-0.87,6.015-4.38,7.589l-1.275-1.199c2.806-1.035,4.125-2.325,4.125-6.3v-0.601h-3.959v2.25
					c0,0.615,0.045,1.245,0.06,1.455h-1.649c0.015-0.21,0.074-0.84,0.074-1.455v-2.25h-1.47c-0.705,0-1.319,0.03-1.56,0.045v-1.604
					c0.195,0.03,0.869,0.104,1.56,0.104h1.47v-1.725c0-0.524-0.06-1.005-0.074-1.2h1.68c-0.03,0.195-0.09,0.646-0.09,1.2v1.725
					h3.959V94.84c0-0.601-0.045-1.095-0.074-1.305h1.694c-0.03,0.225-0.09,0.704-0.09,1.305v1.739H500.231z"/>
				<path d="M510.851,104.109c0,0.615,0.029,1.439,0.105,1.77h-1.86c0.045-0.33,0.09-1.154,0.09-1.77v-5.34
					c-1.575,0.84-3.569,1.68-5.43,2.205l-0.854-1.455c2.564-0.585,5.1-1.695,6.764-2.729c1.516-0.945,3.075-2.28,3.916-3.36
					l1.274,1.155c-1.08,1.08-2.49,2.25-4.005,3.225V104.109z"/>
				<path d="M525.492,101.649c-1.591-0.855-4.021-1.8-5.67-2.34v4.635c0,0.465,0.045,1.38,0.119,1.92h-1.845
					c0.075-0.525,0.12-1.335,0.12-1.92v-8.67c0-0.479-0.045-1.17-0.135-1.68h1.845c-0.045,0.495-0.104,1.155-0.104,1.68v2.34
					c1.979,0.601,4.844,1.665,6.344,2.4L525.492,101.649z"/>
			</g>
		</g>
	</g>
	<g>
		<g>
			<rect x="-0.017" y="1" fill="#EFF7FC" width="103.338" height="198.381"/>
		</g>
		<g>
			<path fill="#FFCC5C" stroke="#FFFFFF" stroke-miterlimit="10" d="M79.999,147.002c0,15.59-12.756,28.346-28.347,28.346
				c-15.59,0-28.347-12.756-28.347-28.346s12.757-28.348,28.347-28.348C67.243,118.654,79.999,131.412,79.999,147.002z"/>
			<path fill="#E0AE4B" d="M38.674,162.342l13.004,13.006c14.484-0.014,26.511-11.037,28.13-25.109l-15.076-15.074L38.674,162.342z"
				/>
			<polygon fill="#7CC6D8" points="45.277,134.477 51.871,132.066 63.936,135.994 63.936,161.633 39.356,161.633 39.356,144.338 
				45.384,142.855 			"/>
			<path fill="#FFF4E1" d="M51.871,131.18l-7.232,2.422v8.023l-6.065,1.416v19.523l13.298,0.453v0.002l12.861-0.361v-27.51
				L51.871,131.18z M44.639,160.117H40v-2.496l4.639-0.154V160.117z M44.639,154.816L40,155.127v-2.512l4.639-0.467V154.816z
				 M44.639,149.516L40,150.135v-2.494l4.639-0.777V149.516z M48.064,160.119h-1.713v-2.709l1.713-0.059V160.119z M48.064,154.586
				l-1.713,0.115v-2.707l1.713-0.174V154.586z M48.064,149.057l-1.713,0.229v-2.707l1.713-0.287V149.057z M48.064,143.525
				l-1.713,0.344v-2.709l1.713-0.4V143.525z M48.064,137.994l-1.713,0.459v-2.707l1.713-0.516V137.994z M63.049,160.119H51.802
				l-1.833-0.002v-2.828l1.833-0.063l11.247,0.426V160.119z M63.049,155.037l-11.247-0.701l-1.909,0.129v-2.828l1.909-0.191
				l11.247,1.02V155.037z M63.049,149.918l-11.178-1.371l-1.902,0.256v-2.83l1.902-0.318l11.178,1.732V149.918z M63.049,144.859
				l-11.247-2.084l-1.833,0.367v-2.828l1.833-0.432l11.247,2.422V144.859z M63.049,139.748l-11.247-2.754l-1.909,0.512v-2.826
				l1.909-0.576l11.247,3.061V139.748z"/>
			<polygon fill="#D8CCC3" points="63.049,137.164 63.049,139.748 51.871,137.012 51.871,139.898 63.049,142.305 63.049,144.859 
				51.871,142.787 51.871,145.654 63.049,147.387 63.049,149.918 51.871,148.547 51.871,151.451 63.049,152.465 63.049,155.037 
				51.871,154.34 51.871,157.23 63.049,157.652 63.049,160.119 51.871,160.119 51.871,163.018 51.871,163.02 64.732,162.658 
				64.732,135.148 51.871,131.18 51.871,134.121 			"/>
		</g>
	</g>
	<g>
		<path fill="#FFCC5C" d="M232.442,150.137c0,15.59-12.756,28.346-28.347,28.346c-15.59,0-28.346-12.756-28.346-28.346
			c0-15.592,12.756-28.348,28.346-28.348C219.687,121.789,232.442,134.545,232.442,150.137z"/>
		<path fill="#E0AE4B" d="M231.868,155.811l-12.306-12.307l-32.63,20.406l14.438,14.439c0.898,0.086,1.807,0.133,2.726,0.133
			C217.745,178.482,229.222,168.707,231.868,155.811z"/>
		<polygon fill="#7CC6D8" points="207.023,137.115 219.562,143.486 219.562,163.082 188.185,163.082 188.176,145.523 
			199.253,140.943 		"/>
		<polygon fill="#FFF4E1" points="207.096,161.066 207.022,161.068 206.972,161.066 197.182,161.238 197.184,158.545 
			207.096,157.803 219.562,159.154 219.562,156.943 207.096,154.539 197.186,155.852 197.188,153.158 207.096,151.277 
			219.562,154.689 219.562,152.447 207.096,148.012 197.188,150.465 197.19,147.77 207.096,144.748 219.562,150.207 
			219.562,148.012 207.096,141.484 197.192,145.076 197.193,142.383 207.096,138.223 219.562,145.771 219.562,143.486 
			207.096,134.957 197.194,139.668 197.193,141.555 195.393,142.41 195.393,142.383 192.938,141.691 188.175,143.959 
			188.175,146.172 192.939,144.182 192.942,146.607 188.175,148.348 188.175,150.521 192.944,149.053 192.945,151.496 
			188.175,152.695 188.175,154.869 192.947,153.961 192.949,156.412 188.175,157.045 188.175,159.219 192.952,158.861 
			192.954,161.311 186.841,161.426 186.841,163.854 206.985,164.969 221.409,163.984 221.409,161.426 		"/>
		<path fill="#D8CCC3" d="M219.562,154.689l-12.466-3.412v-3.266l12.466,4.436V154.689z M207.096,164.961l14.313-0.977v-2.559
			l-14.313-0.359V164.961z M219.562,156.943l-12.466-2.404v3.264l12.466,1.352V156.943z M219.562,148.012l-12.466-6.527v3.264
			l12.466,5.459V148.012z M219.562,145.771v-2.285l-12.466-8.529v3.266L219.562,145.771z"/>
		<polygon fill="#D8CCC3" points="195.393,142.383 192.938,141.691 192.993,164.195 195.352,164.236 		"/>
	</g>
	<g>
		<path fill="#FFCC5C" d="M383.883,152.646c0,15.59-12.757,28.348-28.347,28.348c-15.591,0-28.346-12.758-28.346-28.348
			s12.755-28.348,28.346-28.348C371.126,124.299,383.883,137.057,383.883,152.646z"/>
		<path fill="#E0AE4B" d="M382.541,161.234l-21.988-22.025l-11.303,25.477l-5.455,4.666l11.638,11.639
			c0.035,0,0.069,0.004,0.104,0.004C368.136,180.994,378.88,172.66,382.541,161.234z"/>
		<polygon fill="#7CC6D8" points="360.816,165.344 360.816,143.006 353.487,139.904 349,141.102 349,165.344 344.467,165.344 
			344.467,168.516 366.594,168.516 366.594,165.344 		"/>
		<path fill="#FFF4E1" d="M361.712,164.283v-21.908l-1.195-0.514v-2.635l-7.386-3.41l-3.815,1.801v2.707l-1.195,0.518v23.145
			l-4.388,0.379v5.006l9.398-0.061l14.267,0.166v-4.709L361.712,164.283z M355.83,156.479v-3.688l3.59,0.885v3.492L355.83,156.479z
			 M359.419,158.912v3.51l-3.59-0.398v-3.77L359.419,158.912z M355.83,150.895v-3.67l3.59,1.121v3.563L355.83,150.895z
			 M355.83,145.35v-3.65l3.59,1.445v3.469L355.83,145.35z M349.316,142.141l2.521-1.021v3.768l-2.521,0.891V142.141z
			 M349.316,147.594l2.521-0.822v3.771l-2.521,0.686V147.594z M349.316,153.045l2.521-0.619v3.77l-2.521,0.486V153.045z
			 M349.316,158.498l2.521-0.42v3.77l-2.521,0.285V158.498z M346.966,167.662l-2.191,0.074v-1.697l2.191-0.133V167.662z
			 M351.837,167.502l-2.521,0.084v-1.816l2.521-0.152V167.502z M357.095,167.621l-2.543-0.072v-1.932l2.543,0.148V167.621z
			 M361.584,167.75l-2.213-0.064V165.9l2.213,0.129V167.75z M365.589,167.867l-1.941-0.057v-1.658l1.941,0.115V167.867z"/>
		<path fill="#D8CCC3" d="M367.398,169.477v-4.709l-5.686-0.484v-21.908l-1.195-0.514v-2.635l-7.386-3.41v33.494L367.398,169.477z
			 M363.648,166.152l1.941,0.115v1.6l-1.941-0.057V166.152z M361.584,166.029v1.721l-2.213-0.064V165.9L361.584,166.029z
			 M355.83,141.699l3.59,1.445v3.469l-3.59-1.264V141.699z M355.83,147.225l3.59,1.121v3.563l-3.59-1.014V147.225z M355.83,152.791
			l3.59,0.885v3.492l-3.59-0.689V152.791z M355.83,158.254l3.59,0.658v3.51l-3.59-0.398V158.254z M354.552,165.617l2.543,0.148
			v1.855l-2.543-0.072V165.617z"/>
	</g>
	<g>
		<g>
			<defs>
				<path id="SVGID_1_" d="M535.968,152.646c0,15.59-12.756,28.348-28.346,28.348c-15.592,0-28.347-12.758-28.347-28.348
					s12.755-28.348,28.347-28.348C523.212,124.299,535.968,137.057,535.968,152.646z"/>
			</defs>
			<use xlink:href="#SVGID_1_"  overflow="visible" fill="#FFCC5C"/>
			<clipPath id="SVGID_2_">
				<use xlink:href="#SVGID_1_"  overflow="visible"/>
			</clipPath>
			<g clip-path="url(#SVGID_2_)">
				<g>
					<path fill="#01A2A5" d="M492.644,164.758c-0.588,1.395-0.782,2.078-0.407,3.334c3.081,0,6.163,0,9.246,0
						c-1.511-4.504-3.018-9.01-4.528-13.506C495.519,157.977,494.082,161.367,492.644,164.758z"/>
					<path fill="#01A2A5" d="M523.253,164.758c-1.438-3.391-2.875-6.781-4.312-10.172c-1.509,4.496-3.018,9.002-4.526,13.506
						c3.083,0,6.164,0,9.247,0C524.036,166.836,523.842,166.152,523.253,164.758z"/>
				</g>
				<path fill-rule="evenodd" clip-rule="evenodd" fill="#EBEBEB" d="M481.486,168.092h50.177c0.079,0,0.146,0.115,0.146,0.26v1.652
					c0,0.143-0.066,0.258-0.146,0.258h-50.177c-0.086,0-0.149-0.115-0.149-0.258v-1.652
					C481.336,168.207,481.4,168.092,481.486,168.092L481.486,168.092z"/>
				<g>
					<rect x="482.548" y="170.262" fill="#EBEBEB" width="1.145" height="11.289"/>
					<rect x="529.703" y="171.969" fill="#EBEBEB" width="1.105" height="10.895"/>
				</g>
				<rect x="483.693" y="170.262" fill-rule="evenodd" clip-rule="evenodd" fill="#EBEBEB" width="45.758" height="5.641"/>
				<g>
					<rect x="482.548" y="170.262" fill="#EBEBEB" width="1.145" height="1.035"/>
					<rect x="529.703" y="171.969" fill="#EBEBEB" width="1.105" height="0.998"/>
				</g>
				<rect x="483.693" y="170.262" fill-rule="evenodd" clip-rule="evenodd" fill="#D8D9D9" width="45.758" height="1.035"/>
				<rect x="483.701" y="170.262" fill-rule="evenodd" clip-rule="evenodd" fill="#D8D9D9" width="0.92" height="5.641"/>
				<rect x="528.947" y="171.969" fill-rule="evenodd" clip-rule="evenodd" fill="#C3C4C4" width="0.756" height="5.443"/>
				<path fill-rule="evenodd" clip-rule="evenodd" fill="#592E25" d="M501.404,136.803c0,0,1.436,8.766-1.559,14.246l3.809,0.727
					l3.463-0.518l0.832-4.662l0.834,4.662l3.462,0.518l3.81-0.727c-2.996-5.48-1.559-14.246-1.559-14.246l-5.972-2.529
					l-0.575,12.229l-0.574-12.229L501.404,136.803z"/>
				<path fill-rule="evenodd" clip-rule="evenodd" fill="#4D2219" d="M507.332,150.039l0.617-3.443l0.619,3.443h4.698
					c0,0-1.538-5.094-1.027-10.182l-3.98,0.107l-0.31,6.537l-0.309-6.516l-4.512,0.123c0,0,1.027,4.367-0.518,9.93H507.332z"/>
				<path fill-rule="evenodd" clip-rule="evenodd" fill="#FEB67C" d="M507.949,159.004c3.527,0,7.056,0,10.592,0
					c-0.152-2.006,0.459-9.133-2.121-9.67c-1.608-0.338-3.211-0.668-4.821-1.006c-1.981-0.418-1.422-6.883-1.321-8.537
					c-1.043,0.885-1.279,1.855-2.328,2.738c-1.049-0.883-1.285-1.854-2.335-2.738c0.108,1.654,0.668,8.119-1.315,8.537
					c-1.609,0.338-3.21,0.668-4.82,1.006c-2.58,0.537-1.969,7.664-2.119,9.67C500.886,159.004,504.421,159.004,507.949,159.004
					L507.949,159.004z"/>
				<path fill-rule="evenodd" clip-rule="evenodd" fill="#F2AA70" d="M514.329,148.895l-2.73-0.566
					c-1.545-0.324-1.545-4.303-1.422-6.842l-1.337,0.064c-0.243,0.33-0.516,0.662-0.891,0.979c-0.344-0.295-0.604-0.598-0.832-0.896
					l-1.389,0.063c0.066,1.459,0.081,3.326-0.207,4.713c1.105,1.127,3.88,3.508,7.292,3.119
					C513.459,149.447,513.948,149.225,514.329,148.895L514.329,148.895z"/>
				<path fill-rule="evenodd" clip-rule="evenodd" fill="#01A2A5" d="M507.949,159.004c3.527,0,7.056,0,10.592,0
					c-0.152-2.006,0.459-9.133-2.121-9.67c-1.608-0.338-3.211-0.668-4.821-1.006c-0.101-0.023-0.2-0.064-0.294-0.123l-0.625,0.947
					l-1.638,0.59l-1.093-0.252l-1.093,0.252l-1.637-0.59l-0.626-0.947c-0.093,0.059-0.193,0.1-0.295,0.123
					c-1.609,0.338-3.21,0.668-4.82,1.006c-2.58,0.537-1.969,7.664-2.119,9.67C500.886,159.004,504.421,159.004,507.949,159.004
					L507.949,159.004z"/>
				<path fill-rule="evenodd" clip-rule="evenodd" fill="#4ED2D4" d="M505.04,147.746c0.77,0.84,1.745,1.4,2.909,1.744
					c-0.553,0.598-0.84,1.387-0.904,2.328c-1.201-0.99-2.352-2.018-2.996-3.441C504.292,148.09,504.615,147.875,505.04,147.746
					L505.04,147.746z"/>
				<path fill-rule="evenodd" clip-rule="evenodd" fill="#4ED2D4" d="M510.859,147.746c-0.77,0.84-1.745,1.4-2.91,1.744
					c0.554,0.598,0.841,1.387,0.906,2.328c1.198-0.99,2.349-2.018,2.996-3.441C511.607,148.09,511.283,147.875,510.859,147.746
					L510.859,147.746z"/>
				<path fill-rule="evenodd" clip-rule="evenodd" fill="#FEB67C" d="M513.935,136.803c0.007,0.123,0.007,0.244,0.007,0.367
					c0,5.193-2.681,9.404-5.993,9.404s-5.992-4.211-5.992-9.404c0-0.123,0-0.244,0.008-0.367l5.941-4.445L513.935,136.803z"/>
				<path fill-rule="evenodd" clip-rule="evenodd" fill="#F2AA70" d="M513.935,136.803c0.007,0.123,0.007,0.244,0.007,0.367
					c0,0.633-0.036,1.25-0.116,1.846c-6.056,0.863-9.885-0.424-11.861-1.465c-0.008-0.129-0.008-0.252-0.008-0.381
					c0-0.123,0-0.244,0.008-0.367l5.08-3.799l1.652-0.066L513.935,136.803z"/>
				<path fill-rule="evenodd" clip-rule="evenodd" fill="#592E25" d="M501.404,136.803c0-10.898,13.092-10.865,13.092,0
					c-1.207,0.217-2.422,0.383-3.629,0.48l-0.123-0.934l-0.682,1c-0.338,0.021-0.684,0.037-1.021,0.049l-0.102-1.768l-0.51,1.791
					c-0.94,0.014-1.882-0.008-2.823-0.066l-0.547-1.176l-0.51,1.092C503.501,137.17,502.453,137.012,501.404,136.803
					L501.404,136.803z"/>
				<path fill-rule="evenodd" clip-rule="evenodd" fill="#EBEBEB" d="M495.757,151.467h24.385c0.539,0,0.984,0.445,0.984,0.992
					v12.996c0,0.547-0.445,0.992-0.984,0.992h-24.385c-0.54,0-0.985-0.445-0.985-0.992v-12.996
					C494.772,151.912,495.217,151.467,495.757,151.467L495.757,151.467z"/>
				<path fill-rule="evenodd" clip-rule="evenodd" fill="#E0E1E1" d="M495.757,151.467h3.275
					c0.467,4.053,3.535,13.695,22.094,13.162v0.826c0,0.547-0.445,0.992-0.984,0.992h-24.385c-0.54,0-0.985-0.445-0.985-0.992
					v-12.996C494.772,151.912,495.217,151.467,495.757,151.467L495.757,151.467z"/>
				<path fill-rule="evenodd" clip-rule="evenodd" fill="#EBEBEB" d="M494.009,166.447h27.879c0.215,0,0.395,0.172,0.395,0.395
					v0.848c0,0.223-0.18,0.402-0.395,0.402h-27.879c-0.215,0-0.395-0.18-0.395-0.402v-0.848
					C493.615,166.619,493.794,166.447,494.009,166.447L494.009,166.447z"/>
				<path fill-rule="evenodd" clip-rule="evenodd" fill="#FEFEFE" d="M507.949,156.992c1.086,0,1.969,0.877,1.969,1.961
					c0,1.094-0.883,1.969-1.969,1.969s-1.969-0.875-1.969-1.969C505.98,157.869,506.863,156.992,507.949,156.992L507.949,156.992z"
					/>
				<rect x="497.588" y="175.902" fill-rule="evenodd" clip-rule="evenodd" fill="#01A2A5" width="20.721" height="5.648"/>
			</g>
			<use xlink:href="#SVGID_1_"  overflow="visible" fill="none" stroke="#FFFFFF" stroke-miterlimit="10"/>
		</g>
	</g>
	<g>
		<path d="M32.454,86.402c0,2.311-0.225,5.73-1.635,7.92c-0.24-0.21-0.855-0.645-1.185-0.78c1.305-2.069,1.425-5.039,1.425-7.14
			v-3.854h5.31v-1.98h1.44v1.98h5.58v1.335H32.454V86.402z M42.234,94.382c-0.135-0.39-0.33-0.854-0.57-1.335
			c-3.314,0.226-6.794,0.436-9.165,0.57l-0.135-1.439c0.525-0.016,1.125-0.045,1.785-0.061c0.795-2.055,1.71-5.085,2.175-7.395
			l1.575,0.345c-0.615,2.295-1.485,5.01-2.265,6.99c1.65-0.075,3.525-0.15,5.385-0.24c-0.585-1.02-1.275-2.085-1.95-2.985
			l1.275-0.569c1.305,1.68,2.73,3.93,3.3,5.46L42.234,94.382z"/>
		<path d="M58.224,85.968v1.305H45.129v-1.305h6.149v-2.07h-3.479c-0.435,0.721-0.885,1.351-1.335,1.86
			c-0.3-0.195-0.93-0.57-1.275-0.75c1.08-1.021,2.025-2.7,2.564-4.335l1.395,0.33c-0.195,0.54-0.42,1.095-0.66,1.62h2.79v-2.04h1.47
			v2.04h4.44v1.274h-4.44v2.07H58.224z M46.914,88.577h9.69v5.82h-1.455v-0.765h-6.825v0.795h-1.41V88.577z M48.324,89.867v2.476
			h6.825v-2.476H48.324z"/>
		<path d="M73.329,92.478v1.365h-13.29v-1.365h5.85v-3.315h-4.455v-1.35h4.455v-2.984h-5.175v-1.365h6.3
			c-0.615-0.66-1.59-1.5-2.415-2.085l1.14-0.795c0.96,0.645,2.189,1.649,2.805,2.354l-0.735,0.525h4.77v1.365h-5.16v2.984h4.5v1.35
			h-4.5v3.315H73.329z"/>
	</g>
</g>
</svg>
