<?xml version="1.0" encoding="utf-8"?>
<!-- Generator: Adobe Illustrator 16.0.0, SVG Export Plug-In . SVG Version: 6.00 Build 0)  -->
<!DOCTYPE svg PUBLIC "-//W3C//DTD SVG 1.1//EN" "http://www.w3.org/Graphics/SVG/1.1/DTD/svg11.dtd">
<svg version="1.1" xmlns="http://www.w3.org/2000/svg" xmlns:xlink="http://www.w3.org/1999/xlink" x="0px" y="0px"
	 width="234.569px" height="285.268px" viewBox="-5.073 -66.453 234.569 285.268"
	 enable-background="new -5.073 -66.453 234.569 285.268" xml:space="preserve">
<g id="レイヤー_1">
</g>
<g id="レイヤー_2">
	<g>
		<g>
			<path d="M22.185,204.409c0.012-0.133,0.012-0.385,0.024-0.672h-5.865c-0.492,0-1.031,0.023-1.355,0.047v-1.078
				c0.312,0.023,0.828,0.059,1.332,0.059h5.889v-5.66h-5.745c-0.444,0-1.032,0.023-1.319,0.035v-1.066
				c0.396,0.047,0.923,0.072,1.307,0.072h5.913c0.288,0,0.648-0.014,0.888-0.025c-0.012,0.277-0.036,0.648-0.036,0.936v6.189
				c0,0.432,0.036,0.971,0.048,1.164H22.185z"/>
			<path d="M34.089,196.276c-0.072,0.096-0.228,0.359-0.3,0.527c-0.408,1.031-1.164,2.436-2.015,3.516
				c1.26,1.078,2.723,2.637,3.502,3.572l-0.84,0.732c-0.803-1.055-2.075-2.471-3.298-3.563c-1.284,1.379-2.903,2.699-4.678,3.502
				l-0.768-0.803c1.931-0.756,3.706-2.184,4.941-3.563c0.815-0.924,1.691-2.35,1.991-3.334h-4.677c-0.42,0-1.08,0.049-1.211,0.061
				v-1.092c0.168,0.023,0.852,0.084,1.211,0.084h4.629c0.396,0,0.708-0.049,0.899-0.107L34.089,196.276z"/>
			<path d="M44.925,195.569c-0.12,0.229-0.3,0.623-0.396,0.875c-0.384,1.057-0.996,2.375-1.799,3.539
				c1.067,0.887,2.099,1.822,2.951,2.734l-0.756,0.84c-0.887-1.02-1.799-1.871-2.831-2.76c-1.115,1.367-2.603,2.795-4.689,3.875
				l-0.851-0.756c2.099-0.996,3.586-2.314,4.761-3.766c-0.888-0.732-2.219-1.717-3.37-2.424l0.636-0.756
				c1.019,0.648,2.411,1.631,3.358,2.363c0.768-1.115,1.259-2.242,1.619-3.262c0.084-0.24,0.192-0.625,0.24-0.889L44.925,195.569z"
				/>
		</g>
	</g>
	<g>
		<g>
			<path d="M74.202,196.803c-0.096,0.168-0.216,0.445-0.288,0.637c-0.324,1.199-1.055,2.83-2.123,4.125
				c-1.091,1.332-2.519,2.436-4.773,3.262l-0.864-0.779c2.195-0.646,3.694-1.738,4.786-3.01c0.935-1.104,1.667-2.65,1.907-3.742
				h-4.054c-0.72,1.008-1.727,2.074-3.035,2.951l-0.827-0.625c2.075-1.234,3.25-2.973,3.766-4.053
				c0.132-0.205,0.3-0.637,0.372-0.947l1.115,0.371c-0.204,0.313-0.42,0.707-0.54,0.936c-0.084,0.168-0.18,0.336-0.288,0.504h3.262
				c0.324,0,0.588-0.035,0.78-0.107L74.202,196.803z"/>
			<path d="M76.787,203.917c0.084-0.193,0.12-0.348,0.12-0.588v-6.861c0-0.322-0.06-0.852-0.096-1.09h1.175
				c-0.048,0.299-0.084,0.742-0.084,1.09v6.801c2.291-0.576,5.073-2.158,6.561-4.09l0.54,0.84c-1.559,1.932-4.03,3.406-7.016,4.281
				c-0.132,0.037-0.324,0.096-0.504,0.217L76.787,203.917z"/>
			<path d="M89.758,199.491l-0.552,0.84c-0.6-0.432-1.895-1.271-2.626-1.645l0.54-0.814
				C87.827,198.254,89.23,199.118,89.758,199.491z M91.149,202.356c1.991-1.139,3.574-2.709,4.545-4.4l0.576,0.996
				c-1.043,1.605-2.699,3.154-4.618,4.281c-1.199,0.707-2.854,1.258-3.97,1.486l-0.552-0.971
				C88.45,203.52,89.938,203.04,91.149,202.356z M91.533,196.864l-0.564,0.828c-0.576-0.443-1.883-1.309-2.579-1.715l0.54-0.805
				C89.638,195.569,91.017,196.493,91.533,196.864z M95.167,197.211l-0.684,0.313c-0.3-0.637-0.696-1.344-1.091-1.883l0.66-0.289
				C94.351,195.784,94.891,196.649,95.167,197.211z M96.774,196.612l-0.684,0.313c-0.324-0.637-0.744-1.32-1.139-1.859l0.671-0.287
				C95.947,195.198,96.474,196.061,96.774,196.612z"/>
			<path d="M99.958,200.702l-0.911,0.336c-0.18-0.623-0.828-2.279-1.067-2.699l0.887-0.348
				C99.107,198.506,99.731,200.079,99.958,200.702z M105.991,198.063c-0.084,0.252-0.132,0.443-0.18,0.6
				c-0.324,1.32-0.84,2.604-1.703,3.682c-1.104,1.404-2.566,2.34-3.91,2.855l-0.792-0.816c1.391-0.395,2.914-1.307,3.897-2.543
				c0.852-1.043,1.476-2.566,1.655-4.102L105.991,198.063z M102.597,199.983l-0.887,0.311c-0.132-0.539-0.684-2.063-0.936-2.602
				l0.875-0.301C101.853,197.872,102.441,199.454,102.597,199.983z"/>
			<path d="M114.583,201.217c-1.307-0.707-3.382-1.512-4.713-1.932l0.012,3.959c0,0.383,0.024,1.02,0.072,1.414h-1.151
				c0.048-0.383,0.072-0.971,0.072-1.414v-6.98c0-0.336-0.024-0.875-0.096-1.248h1.175c-0.036,0.373-0.084,0.889-0.084,1.248v1.955
				c1.583,0.48,3.85,1.344,5.121,1.979L114.583,201.217z"/>
			<path d="M83.725,211.356c-0.036,0.203-0.06,0.432-0.06,0.588c-0.048,1.15-0.192,4.641-0.731,5.793
				c-0.24,0.504-0.624,0.719-1.283,0.719c-0.612,0-1.308-0.035-1.931-0.072l-0.12-0.994c0.648,0.084,1.284,0.131,1.787,0.131
				c0.348,0,0.564-0.096,0.696-0.396c0.456-0.91,0.612-3.861,0.612-5.145h-3.358c-0.432,3.441-1.679,5.266-3.682,6.645l-0.863-0.707
				c0.372-0.205,0.863-0.541,1.223-0.889c1.188-1.078,2.051-2.578,2.375-5.049h-2.015c-0.479,0-0.959,0-1.379,0.049v-1.02
				c0.42,0.047,0.912,0.072,1.368,0.072h2.111c0.024-0.385,0.048-0.793,0.048-1.225c0-0.264-0.036-0.707-0.084-0.994h1.127
				c-0.036,0.275-0.06,0.695-0.072,0.982c-0.012,0.432-0.036,0.84-0.06,1.236h2.854c0.324,0,0.564-0.025,0.768-0.061L83.725,211.356
				z"/>
			<path d="M86.01,213.106c0.36,0.025,0.996,0.061,1.667,0.061h6.572c0.6,0,1.031-0.035,1.295-0.061v1.176
				c-0.24-0.012-0.744-0.061-1.284-0.061h-6.584c-0.66,0-1.295,0.025-1.667,0.061V213.106z"/>
			<path d="M99.952,212.387c1.583,0.48,3.85,1.332,5.121,1.967l-0.42,1.02c-1.295-0.707-3.37-1.5-4.701-1.92v3.947
				c0,0.383,0.024,1.031,0.072,1.414h-1.151c0.048-0.383,0.072-0.971,0.072-1.414v-6.98c0-0.336-0.024-0.875-0.096-1.248h1.175
				c-0.036,0.373-0.072,0.889-0.072,1.248V212.387z M103.562,211.788c-0.3-0.623-0.671-1.283-1.067-1.822l0.66-0.301
				c0.312,0.443,0.815,1.248,1.091,1.811L103.562,211.788z M105.061,211.176c-0.324-0.625-0.708-1.26-1.115-1.799l0.66-0.313
				c0.312,0.42,0.839,1.223,1.127,1.775L105.061,211.176z"/>
		</g>
	</g>
	<g>
		<g>
			<path d="M144.123,197.356c-0.036,0.203-0.06,0.432-0.06,0.588c-0.049,1.15-0.192,4.641-0.732,5.793
				c-0.239,0.504-0.623,0.719-1.283,0.719c-0.611,0-1.307-0.035-1.931-0.072l-0.12-0.994c0.648,0.084,1.283,0.131,1.787,0.131
				c0.348,0,0.564-0.096,0.695-0.396c0.456-0.91,0.612-3.861,0.612-5.145h-3.358c-0.432,3.441-1.68,5.266-3.682,6.645l-0.863-0.707
				c0.371-0.205,0.863-0.541,1.223-0.889c1.188-1.078,2.051-2.578,2.375-5.049h-2.016c-0.479,0-0.959,0-1.379,0.049v-1.02
				c0.42,0.047,0.912,0.072,1.367,0.072h2.111c0.023-0.385,0.048-0.793,0.048-1.225c0-0.264-0.036-0.707-0.084-0.994h1.128
				c-0.037,0.275-0.061,0.695-0.072,0.982c-0.012,0.432-0.036,0.84-0.061,1.236h2.854c0.324,0,0.563-0.025,0.768-0.061
				L144.123,197.356z"/>
			<path d="M146.407,199.106c0.36,0.025,0.996,0.061,1.668,0.061h6.572c0.6,0,1.031-0.035,1.295-0.061v1.176
				c-0.24-0.012-0.743-0.061-1.283-0.061h-6.584c-0.66,0-1.295,0.025-1.668,0.061V199.106z"/>
			<path d="M160.35,198.387c1.582,0.48,3.85,1.332,5.121,1.967l-0.42,1.02c-1.295-0.707-3.371-1.5-4.701-1.92v3.947
				c0,0.383,0.023,1.031,0.071,1.414h-1.151c0.048-0.383,0.072-0.971,0.072-1.414v-6.98c0-0.336-0.024-0.875-0.096-1.248h1.175
				c-0.036,0.373-0.071,0.889-0.071,1.248V198.387z M163.96,197.788c-0.3-0.623-0.672-1.283-1.067-1.822l0.659-0.301
				c0.313,0.443,0.816,1.248,1.092,1.811L163.96,197.788z M165.459,197.176c-0.323-0.625-0.708-1.26-1.115-1.799l0.659-0.313
				c0.313,0.42,0.84,1.223,1.128,1.775L165.459,197.176z"/>
			<path d="M143.696,216.932c0,0.385,0.012,1.309,0.024,1.439h-1.032c0-0.084,0.013-0.359,0.013-0.684h-6.548
				c0.012,0.313,0.012,0.6,0.023,0.684h-1.031c0.012-0.145,0.035-1.031,0.035-1.451v-5.9c0-0.275,0-0.648-0.023-0.936
				c0.468,0.012,0.791,0.023,1.067,0.023h6.44c0.264,0,0.695,0,1.056-0.023c-0.024,0.299-0.024,0.635-0.024,0.936V216.932z
				 M136.153,211.055v5.697h6.561v-5.697H136.153z"/>
			<path d="M146.426,213.106c0.36,0.025,0.995,0.061,1.667,0.061h6.572c0.6,0,1.031-0.035,1.296-0.061v1.176
				c-0.24-0.012-0.743-0.061-1.284-0.061h-6.584c-0.659,0-1.295,0.025-1.667,0.061V213.106z"/>
			<path d="M162.323,215.793c1.847-1.164,3.311-2.939,4.006-4.414l0.575,1.02c-0.827,1.5-2.219,3.131-4.03,4.258
				c-1.199,0.768-2.71,1.5-4.713,1.871l-0.636-0.984C159.624,217.233,161.183,216.5,162.323,215.793z M161.615,211.991l-0.755,0.756
				c-0.6-0.623-2.1-1.906-2.986-2.506l0.684-0.732C159.409,210.073,160.944,211.319,161.615,211.991z"/>
		</g>
	</g>
	<g>
		<line fill="none" stroke="#4EB7CE" stroke-width="5" stroke-miterlimit="10" x1="86.803" y1="163.362" x2="86.803" y2="-20.755"/>
	</g>
	<g>
		<line fill="none" stroke="#FF9646" stroke-width="5" stroke-miterlimit="10" x1="26.406" y1="172.784" x2="26.406" y2="97.075"/>
	</g>
	<g>
		<g>
			<path d="M189.704-57.805h-5.59v-0.779l2.953-3.281c0.438-0.496,0.74-0.899,0.906-1.21s0.248-0.632,0.248-0.964
				c0-0.445-0.135-0.811-0.404-1.096s-0.629-0.428-1.078-0.428c-0.539,0-0.957,0.153-1.256,0.46s-0.449,0.733-0.449,1.28h-1.084
				c0-0.785,0.254-1.42,0.76-1.904s1.182-0.727,2.029-0.727c0.793,0,1.42,0.208,1.881,0.624s0.691,0.97,0.691,1.661
				c0,0.84-0.535,1.84-1.605,3l-2.285,2.479h4.283V-57.805z"/>
			<path d="M196.202-61.443c0,1.27-0.217,2.213-0.65,2.83s-1.111,0.926-2.033,0.926c-0.91,0-1.584-0.302-2.021-0.905
				s-0.664-1.505-0.68-2.704v-1.447c0-1.254,0.217-2.186,0.65-2.795s1.113-0.914,2.039-0.914c0.918,0,1.594,0.294,2.027,0.882
				s0.656,1.495,0.668,2.722V-61.443z M195.118-62.926c0-0.918-0.129-1.587-0.387-2.007s-0.666-0.63-1.225-0.63
				c-0.555,0-0.959,0.209-1.213,0.627s-0.385,1.061-0.393,1.928v1.734c0,0.922,0.135,1.603,0.402,2.042s0.672,0.659,1.215,0.659
				c0.535,0,0.934-0.207,1.193-0.621s0.395-1.066,0.406-1.957V-62.926z"/>
			<path d="M197.667-56.105l-0.615-0.422c0.367-0.512,0.559-1.039,0.574-1.582v-0.979h1.061v0.85c0,0.395-0.096,0.789-0.289,1.184
				S197.96-56.344,197.667-56.105z"/>
			<path d="M205.296-61.443c0,1.27-0.217,2.213-0.65,2.83s-1.111,0.926-2.033,0.926c-0.91,0-1.584-0.302-2.021-0.905
				s-0.664-1.505-0.68-2.704v-1.447c0-1.254,0.217-2.186,0.65-2.795s1.113-0.914,2.039-0.914c0.918,0,1.594,0.294,2.027,0.882
				s0.656,1.495,0.668,2.722V-61.443z M204.212-62.926c0-0.918-0.129-1.587-0.387-2.007s-0.666-0.63-1.225-0.63
				c-0.555,0-0.959,0.209-1.213,0.627s-0.385,1.061-0.393,1.928v1.734c0,0.922,0.135,1.603,0.402,2.042s0.672,0.659,1.215,0.659
				c0.535,0,0.934-0.207,1.193-0.621s0.395-1.066,0.406-1.957V-62.926z"/>
			<path d="M212.034-61.443c0,1.27-0.217,2.213-0.65,2.83s-1.111,0.926-2.033,0.926c-0.91,0-1.584-0.302-2.021-0.905
				s-0.664-1.505-0.68-2.704v-1.447c0-1.254,0.217-2.186,0.65-2.795s1.113-0.914,2.039-0.914c0.918,0,1.594,0.294,2.027,0.882
				s0.656,1.495,0.668,2.722V-61.443z M210.95-62.926c0-0.918-0.129-1.587-0.387-2.007s-0.666-0.63-1.225-0.63
				c-0.555,0-0.959,0.209-1.213,0.627s-0.385,1.061-0.393,1.928v1.734c0,0.922,0.135,1.603,0.402,2.042s0.672,0.659,1.215,0.659
				c0.535,0,0.934-0.207,1.193-0.621s0.395-1.066,0.406-1.957V-62.926z"/>
			<path d="M218.772-61.443c0,1.27-0.217,2.213-0.65,2.83s-1.111,0.926-2.033,0.926c-0.91,0-1.584-0.302-2.021-0.905
				s-0.664-1.505-0.68-2.704v-1.447c0-1.254,0.217-2.186,0.65-2.795s1.113-0.914,2.039-0.914c0.918,0,1.594,0.294,2.027,0.882
				s0.656,1.495,0.668,2.722V-61.443z M217.688-62.926c0-0.918-0.129-1.587-0.387-2.007s-0.666-0.63-1.225-0.63
				c-0.555,0-0.959,0.209-1.213,0.627s-0.385,1.061-0.393,1.928v1.734c0,0.922,0.135,1.603,0.402,2.042s0.672,0.659,1.215,0.659
				c0.535,0,0.934-0.207,1.193-0.621s0.395-1.066,0.406-1.957V-62.926z"/>
			<path d="M229.497-58.058c0,0.528-0.132,0.792-0.506,0.935c-0.363,0.133-0.979,0.144-1.959,0.144
				c-0.043-0.22-0.187-0.594-0.308-0.814c0.748,0.033,1.464,0.022,1.673,0.012c0.197,0,0.274-0.066,0.274-0.275v-3.366h-7.371v4.466
				h-0.813v-9.296h9.01V-58.058z M221.301-62.238h3.224v-3.224h-3.224V-62.238z M228.672-62.238v-3.224h-3.345v3.224H228.672z"/>
			<path d="M187.677,4.195h-1.09v-7.225l-2.186,0.803v-0.984l3.105-1.166h0.17V4.195z"/>
			<path d="M191.35-0.082l0.434-4.254h4.371v1.002h-3.451l-0.258,2.326c0.418-0.246,0.893-0.369,1.424-0.369
				c0.777,0,1.395,0.257,1.852,0.771s0.686,1.208,0.686,2.083c0,0.879-0.236,1.571-0.711,2.077s-1.139,0.759-1.99,0.759
				c-0.754,0-1.369-0.209-1.846-0.627s-0.748-0.996-0.814-1.734h1.025c0.066,0.488,0.24,0.856,0.521,1.104s0.652,0.372,1.113,0.372
				c0.504,0,0.9-0.172,1.188-0.516s0.43-0.818,0.43-1.424c0-0.57-0.154-1.028-0.465-1.374s-0.725-0.519-1.24-0.519
				c-0.473,0-0.844,0.104-1.113,0.311l-0.287,0.234L191.35-0.082z"/>
			<path d="M197.667,5.895l-0.615-0.422c0.367-0.512,0.559-1.039,0.574-1.582V2.912h1.061v0.85c0,0.395-0.096,0.789-0.289,1.184
				S197.96,5.656,197.667,5.895z"/>
			<path d="M205.296,0.557c0,1.27-0.217,2.213-0.65,2.83s-1.111,0.926-2.033,0.926c-0.91,0-1.584-0.302-2.021-0.905
				s-0.664-1.505-0.68-2.704v-1.447c0-1.254,0.217-2.186,0.65-2.795s1.113-0.914,2.039-0.914c0.918,0,1.594,0.294,2.027,0.882
				s0.656,1.495,0.668,2.722V0.557z M204.212-0.926c0-0.918-0.129-1.587-0.387-2.007s-0.666-0.63-1.225-0.63
				c-0.555,0-0.959,0.209-1.213,0.627s-0.385,1.061-0.393,1.928v1.734c0,0.922,0.135,1.603,0.402,2.042s0.672,0.659,1.215,0.659
				c0.535,0,0.934-0.207,1.193-0.621s0.395-1.066,0.406-1.957V-0.926z"/>
			<path d="M212.034,0.557c0,1.27-0.217,2.213-0.65,2.83s-1.111,0.926-2.033,0.926c-0.91,0-1.584-0.302-2.021-0.905
				s-0.664-1.505-0.68-2.704v-1.447c0-1.254,0.217-2.186,0.65-2.795s1.113-0.914,2.039-0.914c0.918,0,1.594,0.294,2.027,0.882
				s0.656,1.495,0.668,2.722V0.557z M210.95-0.926c0-0.918-0.129-1.587-0.387-2.007s-0.666-0.63-1.225-0.63
				c-0.555,0-0.959,0.209-1.213,0.627s-0.385,1.061-0.393,1.928v1.734c0,0.922,0.135,1.603,0.402,2.042s0.672,0.659,1.215,0.659
				c0.535,0,0.934-0.207,1.193-0.621s0.395-1.066,0.406-1.957V-0.926z"/>
			<path d="M218.772,0.557c0,1.27-0.217,2.213-0.65,2.83s-1.111,0.926-2.033,0.926c-0.91,0-1.584-0.302-2.021-0.905
				s-0.664-1.505-0.68-2.704v-1.447c0-1.254,0.217-2.186,0.65-2.795s1.113-0.914,2.039-0.914c0.918,0,1.594,0.294,2.027,0.882
				s0.656,1.495,0.668,2.722V0.557z M217.688-0.926c0-0.918-0.129-1.587-0.387-2.007s-0.666-0.63-1.225-0.63
				c-0.555,0-0.959,0.209-1.213,0.627s-0.385,1.061-0.393,1.928v1.734c0,0.922,0.135,1.603,0.402,2.042s0.672,0.659,1.215,0.659
				c0.535,0,0.934-0.207,1.193-0.621s0.395-1.066,0.406-1.957V-0.926z"/>
			<path d="M229.497,3.942c0,0.528-0.132,0.792-0.506,0.935c-0.363,0.133-0.979,0.144-1.959,0.144
				c-0.043-0.22-0.187-0.594-0.308-0.814c0.748,0.033,1.464,0.022,1.673,0.012c0.197,0,0.274-0.066,0.274-0.275V0.576h-7.371v4.466
				h-0.813v-9.296h9.01V3.942z M221.301-0.238h3.224v-3.224h-3.224V-0.238z M228.672-0.238v-3.224h-3.345v3.224H228.672z"/>
			<path d="M187.677,66.195h-1.09v-7.225l-2.186,0.803v-0.984l3.105-1.166h0.17V66.195z"/>
			<path d="M196.202,62.557c0,1.27-0.217,2.213-0.65,2.83s-1.111,0.926-2.033,0.926c-0.91,0-1.584-0.302-2.021-0.905
				s-0.664-1.505-0.68-2.704v-1.447c0-1.254,0.217-2.186,0.65-2.795s1.113-0.914,2.039-0.914c0.918,0,1.594,0.294,2.027,0.882
				s0.656,1.495,0.668,2.722V62.557z M195.118,61.074c0-0.918-0.129-1.587-0.387-2.007s-0.666-0.63-1.225-0.63
				c-0.555,0-0.959,0.209-1.213,0.627s-0.385,1.061-0.393,1.928v1.734c0,0.922,0.135,1.603,0.402,2.042s0.672,0.659,1.215,0.659
				c0.535,0,0.934-0.207,1.193-0.621s0.395-1.066,0.406-1.957V61.074z"/>
			<path d="M197.667,67.895l-0.615-0.422c0.367-0.512,0.559-1.039,0.574-1.582v-0.979h1.061v0.85c0,0.395-0.096,0.789-0.289,1.184
				S197.96,67.656,197.667,67.895z"/>
			<path d="M205.296,62.557c0,1.27-0.217,2.213-0.65,2.83s-1.111,0.926-2.033,0.926c-0.91,0-1.584-0.302-2.021-0.905
				s-0.664-1.505-0.68-2.704v-1.447c0-1.254,0.217-2.186,0.65-2.795s1.113-0.914,2.039-0.914c0.918,0,1.594,0.294,2.027,0.882
				s0.656,1.495,0.668,2.722V62.557z M204.212,61.074c0-0.918-0.129-1.587-0.387-2.007s-0.666-0.63-1.225-0.63
				c-0.555,0-0.959,0.209-1.213,0.627s-0.385,1.061-0.393,1.928v1.734c0,0.922,0.135,1.603,0.402,2.042s0.672,0.659,1.215,0.659
				c0.535,0,0.934-0.207,1.193-0.621s0.395-1.066,0.406-1.957V61.074z"/>
			<path d="M212.034,62.557c0,1.27-0.217,2.213-0.65,2.83s-1.111,0.926-2.033,0.926c-0.91,0-1.584-0.302-2.021-0.905
				s-0.664-1.505-0.68-2.704v-1.447c0-1.254,0.217-2.186,0.65-2.795s1.113-0.914,2.039-0.914c0.918,0,1.594,0.294,2.027,0.882
				s0.656,1.495,0.668,2.722V62.557z M210.95,61.074c0-0.918-0.129-1.587-0.387-2.007s-0.666-0.63-1.225-0.63
				c-0.555,0-0.959,0.209-1.213,0.627s-0.385,1.061-0.393,1.928v1.734c0,0.922,0.135,1.603,0.402,2.042s0.672,0.659,1.215,0.659
				c0.535,0,0.934-0.207,1.193-0.621s0.395-1.066,0.406-1.957V61.074z"/>
			<path d="M218.772,62.557c0,1.27-0.217,2.213-0.65,2.83s-1.111,0.926-2.033,0.926c-0.91,0-1.584-0.302-2.021-0.905
				s-0.664-1.505-0.68-2.704v-1.447c0-1.254,0.217-2.186,0.65-2.795s1.113-0.914,2.039-0.914c0.918,0,1.594,0.294,2.027,0.882
				s0.656,1.495,0.668,2.722V62.557z M217.688,61.074c0-0.918-0.129-1.587-0.387-2.007s-0.666-0.63-1.225-0.63
				c-0.555,0-0.959,0.209-1.213,0.627s-0.385,1.061-0.393,1.928v1.734c0,0.922,0.135,1.603,0.402,2.042s0.672,0.659,1.215,0.659
				c0.535,0,0.934-0.207,1.193-0.621s0.395-1.066,0.406-1.957V61.074z"/>
			<path d="M229.497,65.942c0,0.528-0.132,0.792-0.506,0.935c-0.363,0.133-0.979,0.144-1.959,0.144
				c-0.043-0.22-0.187-0.594-0.308-0.814c0.748,0.033,1.464,0.022,1.673,0.012c0.197,0,0.274-0.066,0.274-0.275v-3.366h-7.371v4.466
				h-0.813v-9.296h9.01V65.942z M221.301,61.762h3.224v-3.224h-3.224V61.762z M228.672,61.762v-3.224h-3.345v3.224H228.672z"/>
			<path d="M184.612,123.918l0.434-4.254h4.371v1.002h-3.451l-0.258,2.326c0.418-0.246,0.893-0.369,1.424-0.369
				c0.777,0,1.395,0.256,1.852,0.77s0.686,1.209,0.686,2.084c0,0.879-0.236,1.57-0.711,2.076s-1.139,0.76-1.99,0.76
				c-0.754,0-1.369-0.209-1.846-0.627s-0.748-0.996-0.814-1.734h1.025c0.066,0.488,0.24,0.855,0.521,1.104s0.652,0.373,1.113,0.373
				c0.504,0,0.9-0.172,1.188-0.516s0.43-0.818,0.43-1.424c0-0.57-0.154-1.029-0.465-1.375s-0.725-0.518-1.24-0.518
				c-0.473,0-0.844,0.104-1.113,0.311l-0.287,0.234L184.612,123.918z"/>
			<path d="M190.928,129.895l-0.615-0.422c0.367-0.512,0.559-1.039,0.574-1.582v-0.979h1.061v0.85c0,0.395-0.096,0.789-0.289,1.184
				S191.221,129.657,190.928,129.895z"/>
			<path d="M198.557,124.557c0,1.27-0.217,2.213-0.65,2.83s-1.111,0.926-2.033,0.926c-0.91,0-1.584-0.303-2.021-0.906
				s-0.664-1.504-0.68-2.703v-1.447c0-1.254,0.217-2.186,0.65-2.795s1.113-0.914,2.039-0.914c0.918,0,1.594,0.293,2.027,0.881
				s0.656,1.496,0.668,2.723V124.557z M197.473,123.075c0-0.918-0.129-1.588-0.387-2.008s-0.666-0.629-1.225-0.629
				c-0.555,0-0.959,0.209-1.213,0.627s-0.385,1.061-0.393,1.928v1.734c0,0.922,0.135,1.602,0.402,2.041s0.672,0.66,1.215,0.66
				c0.535,0,0.934-0.207,1.193-0.621s0.395-1.066,0.406-1.957V123.075z"/>
			<path d="M205.296,124.557c0,1.27-0.217,2.213-0.65,2.83s-1.111,0.926-2.033,0.926c-0.91,0-1.584-0.303-2.021-0.906
				s-0.664-1.504-0.68-2.703v-1.447c0-1.254,0.217-2.186,0.65-2.795s1.113-0.914,2.039-0.914c0.918,0,1.594,0.293,2.027,0.881
				s0.656,1.496,0.668,2.723V124.557z M204.212,123.075c0-0.918-0.129-1.588-0.387-2.008s-0.666-0.629-1.225-0.629
				c-0.555,0-0.959,0.209-1.213,0.627s-0.385,1.061-0.393,1.928v1.734c0,0.922,0.135,1.602,0.402,2.041s0.672,0.66,1.215,0.66
				c0.535,0,0.934-0.207,1.193-0.621s0.395-1.066,0.406-1.957V123.075z"/>
			<path d="M212.034,124.557c0,1.27-0.217,2.213-0.65,2.83s-1.111,0.926-2.033,0.926c-0.91,0-1.584-0.303-2.021-0.906
				s-0.664-1.504-0.68-2.703v-1.447c0-1.254,0.217-2.186,0.65-2.795s1.113-0.914,2.039-0.914c0.918,0,1.594,0.293,2.027,0.881
				s0.656,1.496,0.668,2.723V124.557z M210.95,123.075c0-0.918-0.129-1.588-0.387-2.008s-0.666-0.629-1.225-0.629
				c-0.555,0-0.959,0.209-1.213,0.627s-0.385,1.061-0.393,1.928v1.734c0,0.922,0.135,1.602,0.402,2.041s0.672,0.66,1.215,0.66
				c0.535,0,0.934-0.207,1.193-0.621s0.395-1.066,0.406-1.957V123.075z"/>
			<path d="M222.759,127.942c0,0.529-0.132,0.793-0.506,0.936c-0.363,0.133-0.979,0.143-1.959,0.143
				c-0.043-0.219-0.187-0.594-0.308-0.814c0.748,0.033,1.464,0.023,1.673,0.012c0.197,0,0.274-0.066,0.274-0.275v-3.365h-7.371
				v4.465h-0.813v-9.295h9.01V127.942z M214.562,123.762h3.224v-3.225h-3.224V123.762z M221.933,123.762v-3.225h-3.345v3.225
				H221.933z"/>
			<path d="M189.464,186.557c0,1.27-0.217,2.213-0.65,2.83s-1.111,0.926-2.033,0.926c-0.91,0-1.584-0.303-2.021-0.906
				s-0.664-1.504-0.68-2.703v-1.447c0-1.254,0.217-2.186,0.65-2.795s1.113-0.914,2.039-0.914c0.918,0,1.594,0.293,2.027,0.881
				s0.656,1.496,0.668,2.723V186.557z M188.38,185.075c0-0.918-0.129-1.588-0.387-2.008s-0.666-0.629-1.225-0.629
				c-0.555,0-0.959,0.209-1.213,0.627s-0.385,1.061-0.393,1.928v1.734c0,0.922,0.135,1.602,0.402,2.041s0.672,0.66,1.215,0.66
				c0.535,0,0.934-0.207,1.193-0.621s0.395-1.066,0.406-1.957V185.075z"/>
		</g>
	</g>
	<polygon fill="#FF9646" points="22.164,97.075 26.406,91.165 30.647,97.075 	"/>
	<polygon fill="#4EB7CE" points="82.562,-19.888 86.803,-25.797 91.045,-19.888 	"/>
	<polygon fill="#E84830" points="142.96,-54.562 147.202,-60.471 151.442,-54.562 	"/>
	<polygon fill="#E84830" points="142.96,158.645 147.202,164.555 151.442,158.645 	"/>
	<polygon fill="#4EB7CE" points="82.562,162.491 86.803,168.401 91.045,162.491 	"/>
	<polygon fill="#FF9646" points="22.164,172.752 26.406,178.663 30.647,172.752 	"/>
	<g>
		
			<line fill="none" stroke="#E84830" stroke-width="5" stroke-miterlimit="10" x1="147.202" y1="160.116" x2="147.202" y2="-55.597"/>
	</g>
	<g>
		
			<line fill="none" stroke="#C8C8C8" stroke-width="0.3" stroke-miterlimit="10" x1="-5.073" y1="185.508" x2="172.77" y2="185.508"/>
		
			<line fill="none" stroke="#C8C8C8" stroke-width="0.3" stroke-miterlimit="10" x1="-5.073" y1="124.013" x2="172.77" y2="124.013"/>
		<line fill="none" stroke="#C8C8C8" stroke-width="0.3" stroke-miterlimit="10" x1="-5.073" y1="62.519" x2="172.77" y2="62.519"/>
		<line fill="none" stroke="#C8C8C8" stroke-width="0.3" stroke-miterlimit="10" x1="-5.073" y1="1.024" x2="172.77" y2="1.024"/>
		
			<line fill="none" stroke="#C8C8C8" stroke-width="0.3" stroke-miterlimit="10" x1="-5.073" y1="-60.471" x2="172.77" y2="-60.471"/>
	</g>
</g>
</svg>
