<?xml version="1.0" encoding="utf-8"?>
<!-- Generator: Adobe Illustrator 16.0.0, SVG Export Plug-In . SVG Version: 6.00 Build 0)  -->
<!DOCTYPE svg PUBLIC "-//W3C//DTD SVG 1.1//EN" "http://www.w3.org/Graphics/SVG/1.1/DTD/svg11.dtd">
<svg version="1.1" xmlns="http://www.w3.org/2000/svg" xmlns:xlink="http://www.w3.org/1999/xlink" x="0px" y="0px"
	 width="226.706px" height="177.061px" viewBox="-0.591 -12.12 226.706 177.061"
	 enable-background="new -0.591 -12.12 226.706 177.061" xml:space="preserve">
<g id="レイヤー_2">
	<g>
		<g>
			<g>
				
					<line fill="none" stroke="#C8C8C8" stroke-width="0.241" stroke-miterlimit="10" x1="85.953" y1="-12.12" x2="85.953" y2="164.94"/>
				
					<line fill="none" stroke="#C8C8C8" stroke-width="0.241" stroke-miterlimit="10" x1="108.464" y1="-12.12" x2="108.464" y2="164.94"/>
				
					<line fill="none" stroke="#C8C8C8" stroke-width="0.241" stroke-miterlimit="10" x1="130.975" y1="-12.12" x2="130.975" y2="164.94"/>
				
					<line fill="none" stroke="#C8C8C8" stroke-width="0.241" stroke-miterlimit="10" x1="153.484" y1="-12.12" x2="153.484" y2="164.94"/>
				
					<line fill="none" stroke="#C8C8C8" stroke-width="0.241" stroke-miterlimit="10" x1="175.995" y1="-12.12" x2="175.995" y2="164.94"/>
			</g>
			<g>
				
					<line fill="none" stroke="#0228CC" stroke-width="5" stroke-miterlimit="10" x1="85.953" y1="126.008" x2="130.997" y2="126.008"/>
			</g>
			<g>
				<line fill="none" stroke="#0228CC" stroke-width="5" stroke-miterlimit="10" x1="85.953" y1="31.287" x2="160.36" y2="31.287"/>
			</g>
		</g>
	</g>
	<polygon fill="#E84830" points="170.045,30.138 165.748,33.812 170.769,35.804 	"/>
	
		<line fill="none" stroke="#E84830" stroke-width="1.5" stroke-miterlimit="10" x1="135.694" y1="126.008" x2="168.912" y2="32.802"/>
	<g>
		<g>
			<path d="M2.047,29.684l-2.639-5.373h1.188l1.127,2.482c0.288,0.647,0.552,1.26,0.863,1.919h0.048
				c0.312-0.659,0.611-1.271,0.875-1.919l1.139-2.482h1.151l-2.638,5.373v3.418H2.047V29.684z"/>
			<path d="M6.992,24.311h1.343l1.691,4.701c0.204,0.611,0.408,1.224,0.624,1.835h0.06c0.204-0.611,0.396-1.224,0.6-1.835
				l1.679-4.701h1.343v8.791h-1.043v-4.869c0-0.756,0.084-1.823,0.144-2.591h-0.048l-0.696,2.003l-1.667,4.569h-0.744l-1.667-4.569
				l-0.695-2.003H7.868C7.916,26.41,8,27.477,8,28.233v4.869H6.992V24.311z"/>
			<path d="M18.163,29.684l-2.639-5.373h1.188l1.127,2.482c0.288,0.647,0.552,1.26,0.864,1.919h0.048
				c0.312-0.659,0.611-1.271,0.875-1.919l1.139-2.482h1.151l-2.639,5.373v3.418h-1.115V29.684z"/>
			<path d="M23.108,24.311h1.116v7.844h3.838v0.947h-4.954V24.311z"/>
			<path d="M30.092,26.17c-0.264,0.313-0.552,0.612-0.864,0.9c-0.12-0.204-0.36-0.517-0.528-0.636
				c1.14-0.996,1.931-2.327,2.363-3.358h0.768c0.804,0.695,1.775,1.691,2.255,2.351l-0.576,0.768
				c-0.408-0.611-1.211-1.571-1.931-2.243c-0.348,0.648-0.816,1.428-1.439,2.171h2.902v0.768h-2.95V26.17z M33.534,31.567
				c0,0.408-0.048,0.636-0.336,0.768c-0.276,0.144-0.708,0.156-1.355,0.156c-0.012-0.24-0.108-0.552-0.216-0.78
				c0.479,0.013,0.852,0.013,0.983,0c0.132,0,0.156-0.035,0.156-0.155v-2.723h-1.523v5.157h-0.792v-5.157h-1.284v-0.792h4.366
				V31.567z M36.196,32.43c-0.66,0.624-1.763,1.271-2.723,1.619c-0.132-0.168-0.419-0.443-0.587-0.6
				c0.936-0.336,2.015-0.947,2.531-1.475L36.196,32.43z M36.041,25.535c0.084-0.36,0.168-0.768,0.228-1.14h-2.495v-0.768h6.009
				v0.768h-2.53c-0.108,0.396-0.228,0.791-0.336,1.14h2.482v6.212h-5.169v-6.212H36.041z M38.559,26.23h-3.502v1.163h3.502V26.23z
				 M38.559,28.029h-3.502v1.176h3.502V28.029z M38.559,29.876h-3.502v1.176h3.502V29.876z M37.936,32.023
				c0.719,0.42,1.643,1.067,2.123,1.511l-0.695,0.516c-0.456-0.443-1.368-1.115-2.099-1.571L37.936,32.023z"/>
			<path d="M44.418,30.8c-1.091,0.563-2.267,1.151-3.19,1.607l-0.348-0.876c0.384-0.155,0.839-0.359,1.343-0.588v-4.125h-1.259
				v-0.84h1.259v-2.771h0.839v2.771h1.091v0.84h-1.091v3.729c0.36-0.168,0.744-0.359,1.116-0.54L44.418,30.8z M48.256,31.519
				c-1.427,0.42-2.926,0.852-4.066,1.175l-0.24-0.839c1.08-0.24,2.674-0.684,4.222-1.092L48.256,31.519z M51.53,26.937
				c-0.432,1.571-1.007,2.951-1.751,4.138c0.288,1.308,0.648,2.087,1.092,2.087c0.228,0,0.335-0.468,0.384-1.715
				c0.18,0.204,0.443,0.372,0.635,0.468c-0.132,1.596-0.372,2.099-1.127,2.099c-0.731,0-1.247-0.768-1.619-2.051
				c-0.587,0.768-1.271,1.415-2.027,1.955c-0.132-0.156-0.467-0.443-0.66-0.588c0.972-0.611,1.775-1.427,2.435-2.374
				c-0.276-1.439-0.432-3.274-0.504-5.302h-4.03v-0.827h4.006c-0.024-0.576-0.036-1.163-0.036-1.751h0.864
				c0,0.6,0,1.188,0.012,1.751h1.883c-0.3-0.359-0.912-0.899-1.427-1.283l0.516-0.444c0.528,0.349,1.163,0.864,1.463,1.235
				l-0.528,0.492h0.636v0.827h-2.519c0.048,1.596,0.168,3.034,0.336,4.21c0.492-0.936,0.864-1.955,1.151-3.082L51.53,26.937z
				 M47.681,26.782v3.454h-2.975v-3.454H47.681z M46.949,27.502h-1.547v2.015h1.547V27.502z"/>
			<path d="M58.049,32.514c0.372-0.023,0.732-0.084,1.02-0.144c1.523-0.336,3.01-1.463,3.01-3.515c0-1.799-1.139-3.273-3.154-3.441
				c-0.156,1.104-0.384,2.303-0.708,3.418c-0.731,2.435-1.679,3.693-2.782,3.693c-1.056,0-2.123-1.223-2.123-3.178
				c0-2.578,2.303-4.833,5.205-4.833c2.783,0,4.558,1.967,4.558,4.365c0,2.495-1.643,4.162-4.474,4.533L58.049,32.514z
				 M57.27,28.629c0.3-0.983,0.528-2.11,0.66-3.202c-2.279,0.288-3.67,2.243-3.67,3.838c0,1.499,0.695,2.159,1.211,2.159
				C55.999,31.424,56.658,30.632,57.27,28.629z"/>
			<path d="M65.18,24.311h1.116v4.413h0.036l3.67-4.413h1.248l-2.747,3.346l3.178,5.445h-1.247l-2.627-4.581l-1.511,1.799v2.782
				H65.18V24.311z"/>
			<path d="M71.84,26.59h1.116l0.971,3.767c0.132,0.623,0.264,1.211,0.384,1.822h0.06c0.144-0.611,0.276-1.211,0.444-1.822
				l1.007-3.767h1.067l1.02,3.767c0.156,0.623,0.3,1.211,0.456,1.822h0.048c0.144-0.611,0.264-1.199,0.408-1.822l0.959-3.767h1.031
				l-1.751,6.513h-1.319l-0.947-3.514c-0.168-0.612-0.288-1.212-0.444-1.871h-0.06c-0.144,0.659-0.276,1.271-0.444,1.895
				l-0.912,3.49h-1.283L71.84,26.59z"/>
		</g>
	</g>
	<g>
		<g>
			<path d="M9.306,120.063c0.516,0,2.962-0.096,3.646-0.18c0.276-0.023,0.504-0.072,0.647-0.12l0.612,0.696
				c-0.168,0.096-0.468,0.3-0.636,0.443c-0.887,0.731-2.603,2.159-3.55,2.914c1.799-0.191,3.934-0.359,5.637-0.359v0.899
				c-1.164-0.06-2.303-0.048-3.01,0.06c-1.151,0.156-2.279,1.14-2.279,2.243c0,1.188,0.959,1.595,2.039,1.739
				c0.695,0.096,1.283,0.084,1.703,0.048l-0.191,0.972c-2.903,0.12-4.486-0.792-4.486-2.615c0-1.007,0.768-1.87,1.379-2.23
				c-1.271,0.108-2.854,0.3-4.27,0.527l-0.084-0.911c0.635-0.06,1.439-0.168,2.039-0.24c1.295-0.887,3.167-2.53,3.922-3.202
				c-0.528,0.036-2.59,0.145-3.106,0.192c-0.3,0.023-0.66,0.048-0.912,0.072l-0.048-0.984
				C8.646,120.063,8.946,120.076,9.306,120.063z"/>
			<path d="M28.142,128.004c-0.624,0.635-1.367,0.995-2.183,0.995c-0.78,0-1.319-0.528-1.319-1.512c0-1.319,0.444-3.273,0.444-4.425
				c0-0.684-0.348-0.972-0.948-0.972c-0.959,0-2.398,1.115-3.49,2.291c-0.024,0.503-0.036,0.971-0.036,1.391
				c0,1.079,0,1.799,0.048,2.866c0.012,0.204,0.036,0.504,0.06,0.72h-1.043c0.012-0.168,0.036-0.516,0.036-0.707
				c0.012-1.14,0.012-1.728,0.036-3.047c0-0.12,0.012-0.275,0.012-0.455c-0.576,0.875-1.355,2.015-1.931,2.806l-0.6-0.827
				c0.66-0.827,2.027-2.675,2.626-3.61c0.024-0.384,0.048-0.768,0.072-1.139c-0.54,0.06-1.571,0.203-2.315,0.3l-0.096-0.996
				c0.264,0.013,0.492,0.013,0.779-0.012c0.384-0.024,1.08-0.096,1.691-0.192c0.036-0.563,0.06-0.983,0.06-1.115
				c0-0.275,0.012-0.587-0.048-0.887l1.14,0.035c-0.06,0.288-0.156,0.96-0.24,1.787l0.06-0.023l0.348,0.42
				c-0.144,0.216-0.348,0.539-0.527,0.827c-0.024,0.216-0.036,0.443-0.06,0.672c0.923-0.852,2.447-1.991,3.634-1.991
				c1.116,0,1.679,0.624,1.679,1.595c0,1.188-0.444,3.238-0.444,4.438c0,0.407,0.192,0.719,0.612,0.719
				c0.6,0,1.235-0.384,1.787-0.983L28.142,128.004z"/>
			<path d="M33.99,126.456c-1.655,0.756-3.466,1.548-4.786,2.123l-0.324-0.924c0.468-0.18,1.031-0.407,1.655-0.671l-0.204-7.412
				l0.912-0.036l0.18,7.076c0.768-0.324,1.571-0.672,2.363-1.008L33.99,126.456z M39.267,129.839
				c-0.552-0.828-1.667-2.087-2.687-3.167c-0.936,1.415-2.243,2.459-4.114,3.238c-0.12-0.18-0.492-0.588-0.708-0.768
				c4.114-1.511,5.385-4.413,5.913-9.595l0.972,0.096c-0.288,2.567-0.744,4.605-1.583,6.213c1.067,1.079,2.338,2.411,2.95,3.298
				L39.267,129.839z M34.649,123.733c-0.324-0.827-1.092-2.051-1.847-2.926l0.792-0.396c0.792,0.876,1.559,2.052,1.895,2.867
				L34.649,123.733z"/>
			<path d="M49.408,124.441c0.852,0.804,1.823,1.463,2.771,1.895c-0.204,0.168-0.48,0.516-0.636,0.756
				c-0.72-0.372-1.451-0.888-2.135-1.487v4.246h-0.912v-5.121c-0.684-0.731-1.307-1.535-1.787-2.351
				c-0.875,3.777-2.674,6.164-4.953,7.436c-0.156-0.204-0.492-0.527-0.708-0.66c1.427-0.743,2.639-1.906,3.55-3.525
				c-0.552-0.528-1.463-1.199-2.291-1.703c-0.252,0.336-0.516,0.647-0.792,0.924c-0.144-0.156-0.528-0.444-0.732-0.576
				c1.319-1.224,2.315-3.202,2.867-5.349l0.875,0.18c-0.156,0.563-0.336,1.127-0.54,1.655h2.254l0.168-0.049l0.576,0.217
				c-0.048,0.348-0.12,0.684-0.18,1.007l0.468-0.18c0.324,0.6,0.744,1.188,1.223,1.751v-4.569h0.912V124.441z M43.651,121.587
				c-0.276,0.6-0.564,1.163-0.888,1.667c0.78,0.456,1.667,1.056,2.243,1.571c0.42-0.947,0.756-2.027,0.984-3.238H43.651z"/>
			<path d="M58.049,128.375c0.372-0.023,0.732-0.084,1.02-0.144c1.523-0.336,3.01-1.463,3.01-3.515c0-1.799-1.139-3.273-3.154-3.441
				c-0.156,1.104-0.384,2.303-0.708,3.418c-0.731,2.435-1.679,3.693-2.782,3.693c-1.056,0-2.123-1.223-2.123-3.178
				c0-2.578,2.303-4.833,5.205-4.833c2.783,0,4.558,1.967,4.558,4.365c0,2.495-1.643,4.162-4.474,4.533L58.049,128.375z
				 M57.27,124.489c0.3-0.983,0.528-2.11,0.66-3.202c-2.279,0.288-3.67,2.243-3.67,3.838c0,1.499,0.695,2.159,1.211,2.159
				C55.999,127.284,56.658,126.492,57.27,124.489z"/>
			<path d="M65.18,120.172h1.116v4.413h0.036l3.67-4.413h1.248l-2.747,3.346l3.178,5.445h-1.247l-2.627-4.581l-1.511,1.799v2.782
				H65.18V120.172z"/>
			<path d="M71.84,122.45h1.116l0.971,3.767c0.132,0.623,0.264,1.211,0.384,1.822h0.06c0.144-0.611,0.276-1.211,0.444-1.822
				l1.007-3.767h1.067l1.02,3.767c0.156,0.623,0.3,1.211,0.456,1.822h0.048c0.144-0.611,0.264-1.199,0.408-1.822l0.959-3.767h1.031
				l-1.751,6.513h-1.319l-0.947-3.514c-0.168-0.612-0.288-1.212-0.444-1.871h-0.06c-0.144,0.659-0.276,1.271-0.444,1.895
				l-0.912,3.49h-1.283L71.84,122.45z"/>
		</g>
	</g>
	<g>
		<g>
			<path d="M192.314,32.807h-1.09v-7.225l-2.186,0.803v-0.984l3.105-1.166h0.17V32.807z"/>
			<path d="M195.625,32.239c0-0.188,0.057-0.344,0.168-0.469s0.277-0.188,0.5-0.188s0.393,0.063,0.508,0.188
				s0.172,0.281,0.172,0.469c0,0.18-0.057,0.33-0.172,0.451s-0.285,0.182-0.508,0.182s-0.389-0.061-0.5-0.182
				S195.625,32.419,195.625,32.239z"/>
			<path d="M202.902,24.27v0.92h-0.199c-0.844,0.016-1.516,0.266-2.016,0.75s-0.789,1.166-0.867,2.045
				c0.449-0.516,1.063-0.773,1.84-0.773c0.742,0,1.336,0.262,1.779,0.785s0.664,1.199,0.664,2.027c0,0.879-0.238,1.582-0.717,2.109
				s-1.121,0.791-1.926,0.791c-0.816,0-1.479-0.313-1.986-0.94s-0.762-1.435-0.762-2.423v-0.416c0-1.57,0.336-2.771,1.006-3.601
				s1.666-1.255,2.99-1.274H202.902z M201.479,28.114c-0.371,0-0.713,0.111-1.025,0.334s-0.529,0.502-0.65,0.838v0.398
				c0,0.703,0.158,1.27,0.475,1.699s0.711,0.645,1.184,0.645c0.488,0,0.873-0.18,1.152-0.539s0.418-0.83,0.418-1.412
				c0-0.586-0.141-1.06-0.424-1.421S201.947,28.114,201.479,28.114z"/>
			<path d="M192.314,92.807h-1.09v-7.225l-2.186,0.803v-0.984l3.105-1.166h0.17V92.807z"/>
			<path d="M195.625,92.239c0-0.188,0.057-0.344,0.168-0.469s0.277-0.188,0.5-0.188s0.393,0.063,0.508,0.188
				s0.172,0.281,0.172,0.469c0,0.18-0.057,0.33-0.172,0.451s-0.285,0.182-0.508,0.182s-0.389-0.061-0.5-0.182
				S195.625,92.419,195.625,92.239z"/>
			<path d="M203.998,89.169c0,1.27-0.217,2.213-0.65,2.83s-1.111,0.926-2.033,0.926c-0.91,0-1.584-0.302-2.021-0.905
				s-0.664-1.505-0.68-2.704v-1.447c0-1.254,0.217-2.186,0.65-2.795s1.113-0.914,2.039-0.914c0.918,0,1.594,0.294,2.027,0.882
				s0.656,1.495,0.668,2.722V89.169z M202.914,87.686c0-0.918-0.129-1.587-0.387-2.007s-0.666-0.63-1.225-0.63
				c-0.555,0-0.959,0.209-1.213,0.627s-0.385,1.061-0.393,1.928v1.734c0,0.922,0.135,1.603,0.402,2.042s0.672,0.659,1.215,0.659
				c0.535,0,0.934-0.207,1.193-0.621s0.395-1.066,0.406-1.957V87.686z"/>
		</g>
	</g>
</g>
<g id="レイヤー_1">
	<g>
		<g>
			<path fill="#E84830" d="M225.274-10.915v9.595h-9.595v-9.595H225.274z"/>
			<path d="M215.607,0.833h0.732v4.809c0,2.159-0.084,4.078-0.888,5.674c-0.144-0.145-0.42-0.408-0.601-0.528
				c0.672-1.451,0.756-3.202,0.756-5.146V0.833z M217.238,1.684h0.66v7.963h-0.66V1.684z M218.857,0.797h0.732v10.146h-0.732V0.797z
				 M222.54,9.792c-0.6,0.588-1.56,1.223-2.362,1.583c-0.12-0.168-0.372-0.432-0.553-0.588c0.792-0.336,1.716-0.947,2.172-1.439
				L222.54,9.792z M222.324,2.884c0.096-0.36,0.18-0.768,0.229-1.128h-2.411V0.976h5.661v0.779h-2.291
				c-0.108,0.384-0.24,0.78-0.348,1.128h2.314v6.213h-4.953V2.884H222.324z M224.639,3.579h-3.298v1.163h3.298V3.579z
				 M224.639,5.378h-3.298v1.176h3.298V5.378z M224.639,7.213h-3.298V8.4h3.298V7.213z M224.123,9.372
				c0.684,0.42,1.547,1.056,1.991,1.499l-0.684,0.492c-0.42-0.444-1.271-1.104-1.968-1.548L224.123,9.372z"/>
			<path d="M218.654,12.701c-0.336,0.839-0.756,1.679-1.224,2.471v8.144h-0.839v-6.86c-0.42,0.575-0.864,1.115-1.32,1.559
				c-0.096-0.204-0.359-0.659-0.516-0.875c1.212-1.128,2.375-2.891,3.07-4.702L218.654,12.701z M226.006,21.96v0.839h-7.867V21.96
				h4.138c0.552-1.512,1.175-3.934,1.487-5.673l0.959,0.168c-0.408,1.774-1.031,4.018-1.583,5.505H226.006z M221.533,14.752v-2.207
				h0.898v2.207h3.274v0.839h-7.28v-0.839H221.533z M220.309,21.396c-0.084-1.2-0.455-3.274-0.887-4.857l0.791-0.145
				c0.456,1.583,0.863,3.622,0.972,4.81L220.309,21.396z"/>
			<path d="M217.922,27.279c-0.503,0.899-1.367,1.823-2.242,2.387c-0.156-0.156-0.432-0.396-0.611-0.527
				c0.827-0.492,1.643-1.344,2.015-2.1L217.922,27.279z M223.991,31.045c-0.6,1.044-1.487,1.859-2.555,2.495
				c1.271,0.527,2.807,0.875,4.534,1.02c-0.192,0.191-0.42,0.575-0.516,0.815c-1.92-0.204-3.587-0.647-4.941-1.355
				c-1.488,0.695-3.227,1.115-5.002,1.367c-0.06-0.216-0.264-0.611-0.432-0.779c1.643-0.204,3.238-0.54,4.582-1.092
				c-0.637-0.443-1.188-0.959-1.632-1.547c-0.611,0.42-1.295,0.815-2.087,1.151c-0.119-0.216-0.383-0.504-0.563-0.647
				c1.835-0.708,3.13-1.751,3.802-2.687l0.96,0.168c-0.192,0.252-0.396,0.491-0.624,0.731h3.719l0.167-0.036L223.991,31.045z
				 M219.122,26.416h-3.838V25.6h4.737v-1.188h0.899V25.6h4.798v0.815h-3.238v2.639c0,0.443-0.072,0.671-0.408,0.815
				c-0.324,0.12-0.875,0.12-1.667,0.12c-0.036-0.229-0.144-0.552-0.252-0.78c0.6,0.013,1.115,0.013,1.271,0.013
				c0.155-0.013,0.192-0.048,0.192-0.181v-2.626h-1.656v0.072c0,1.223-0.191,2.818-2.074,3.957c-0.132-0.191-0.443-0.468-0.648-0.6
				c1.74-1.02,1.884-2.362,1.884-3.37V26.416z M218.654,31.501c0.468,0.624,1.104,1.163,1.895,1.607
				c0.852-0.456,1.584-1.008,2.111-1.68h-3.934L218.654,31.501z M223.787,26.991c0.779,0.684,1.703,1.655,2.135,2.315l-0.743,0.468
				c-0.396-0.66-1.308-1.668-2.075-2.375L223.787,26.991z"/>
			<path d="M225.694,39.183c0,0-0.013,0.336-0.013,0.456c-0.131,5.024-0.239,6.691-0.646,7.195
				c-0.205,0.313-0.444,0.408-0.805,0.444c-0.335,0.048-0.898,0.036-1.451,0c-0.023-0.24-0.119-0.612-0.252-0.84
				c0.576,0.048,1.104,0.06,1.332,0.06c0.203,0,0.312-0.035,0.432-0.191c0.275-0.348,0.42-1.931,0.539-6.284h-1.715
				c-0.144,3.189-0.695,5.805-2.807,7.388c-0.131-0.192-0.443-0.492-0.659-0.636c0.192-0.132,0.36-0.276,0.528-0.42
				c-1.823,0.216-3.683,0.42-5.025,0.563l-0.133-0.779c0.721-0.06,1.619-0.144,2.604-0.24v-1.031h-2.268v-0.684h2.268v-0.731h-2.243
				V39.89h2.243v-0.755h-2.591v-0.696h2.591v-0.791c-0.768,0.06-1.547,0.107-2.255,0.132c-0.036-0.192-0.12-0.479-0.216-0.66
				c1.775-0.096,3.934-0.312,5.169-0.587l0.444,0.684c-0.648,0.144-1.464,0.252-2.34,0.348v0.875h2.543v0.696h-2.543v0.755h2.327
				v3.563h-2.327v0.731h2.352v0.684h-2.352v0.947c0.78-0.071,1.596-0.155,2.399-0.252v0.061c1.043-1.415,1.354-3.347,1.463-5.601
				h-1.403v-0.84h1.428c0.023-0.84,0.023-1.715,0.023-2.627h0.84c0,0.899,0,1.787-0.023,2.627H225.694z M216.111,41.366h1.512
				v-0.863h-1.512V41.366z M217.623,42.829v-0.875h-1.512v0.875H217.623z M218.426,40.503v0.863h1.572v-0.863H218.426z
				 M219.998,41.954h-1.572v0.875h1.572V41.954z"/>
			<path d="M218.295,54.134c-0.948,0.443-1.932,0.924-2.734,1.271l-0.444-0.72c0.768-0.276,1.896-0.756,3.011-1.224L218.295,54.134z
				 M220.885,56.125h4.918v0.827h-4.918v2.435h-0.887v-2.435h-4.834v-0.827h4.834v-0.924h0.887V56.125z M218.822,51.819
				c0.312-0.396,0.635-0.876,0.863-1.26h-4.162v-0.804h4.475v-1.343h0.887v1.343h4.582v0.804h-5.217l0.311,0.12
				c-0.371,0.516-0.814,1.067-1.199,1.487c0.336,0.24,0.66,0.479,0.912,0.695c0.479-0.552,0.924-1.104,1.26-1.583l0.707,0.336
				c-0.707,0.888-1.643,1.931-2.507,2.759l2.063-0.108c-0.229-0.323-0.469-0.636-0.708-0.911l0.647-0.288
				c0.588,0.659,1.248,1.547,1.512,2.159l-0.684,0.359c-0.084-0.191-0.204-0.432-0.348-0.672c-1.523,0.108-3.047,0.204-4.198,0.288
				l-0.12-0.756c0.264-0.012,0.576-0.023,0.899-0.036c0.312-0.3,0.647-0.635,0.983-0.995c-0.467-0.407-1.163-0.911-1.738-1.283
				l0.443-0.527L218.822,51.819z M217.419,52.886c-0.384-0.384-1.212-0.947-1.883-1.331l0.6-0.492
				c0.659,0.348,1.499,0.899,1.907,1.283L217.419,52.886z M225.154,55.537c-0.575-0.504-1.763-1.224-2.698-1.703l0.624-0.504
				c0.911,0.444,2.11,1.151,2.734,1.644L225.154,55.537z M225.311,51.303c-0.6,0.552-1.379,1.104-1.99,1.487l-0.637-0.384
				c0.588-0.396,1.392-1.044,1.848-1.512L225.311,51.303z"/>
		</g>
	</g>
</g>
</svg>
