<?xml version="1.0" encoding="utf-8"?>
<!-- Generator: Adobe Illustrator 16.0.0, SVG Export Plug-In . SVG Version: 6.00 Build 0)  -->
<!DOCTYPE svg PUBLIC "-//W3C//DTD SVG 1.1//EN" "http://www.w3.org/Graphics/SVG/1.1/DTD/svg11.dtd">
<svg version="1.1" id="レイヤー_1" xmlns="http://www.w3.org/2000/svg" xmlns:xlink="http://www.w3.org/1999/xlink" x="0px"
	 y="0px" width="213.115px" height="208.859px" viewBox="0 0 213.115 208.859" enable-background="new 0 0 213.115 208.859"
	 xml:space="preserve">
<g>
	<g>
		<path d="M18.53,208.742h-5.59v-0.779l2.953-3.281c0.438-0.496,0.739-0.899,0.905-1.21s0.249-0.632,0.249-0.964
			c0-0.445-0.135-0.811-0.404-1.096s-0.629-0.428-1.078-0.428c-0.539,0-0.958,0.153-1.257,0.46s-0.448,0.733-0.448,1.28h-1.084
			c0-0.785,0.253-1.42,0.759-1.904s1.183-0.727,2.03-0.727c0.793,0,1.42,0.208,1.881,0.624s0.691,0.97,0.691,1.661
			c0,0.84-0.535,1.84-1.605,3l-2.285,2.479h4.283V208.742z"/>
		<path d="M25.028,205.104c0,1.27-0.217,2.213-0.65,2.83s-1.111,0.926-2.033,0.926c-0.91,0-1.584-0.302-2.021-0.905
			s-0.664-1.505-0.68-2.704v-1.447c0-1.254,0.217-2.186,0.65-2.795s1.113-0.914,2.039-0.914c0.918,0,1.594,0.294,2.027,0.882
			s0.656,1.495,0.668,2.722V205.104z M23.944,203.621c0-0.918-0.129-1.587-0.387-2.007s-0.666-0.63-1.225-0.63
			c-0.555,0-0.959,0.209-1.213,0.627s-0.385,1.061-0.393,1.928v1.734c0,0.922,0.134,1.603,0.401,2.042s0.673,0.659,1.216,0.659
			c0.535,0,0.933-0.207,1.192-0.621s0.396-1.066,0.407-1.957V203.621z"/>
		<path d="M29.979,208.742h-1.09v-7.225l-2.186,0.803v-0.984l3.105-1.166h0.17V208.742z"/>
		<path d="M38.663,200.82l-3.533,7.922h-1.137l3.521-7.641h-4.617v-0.891h5.766V200.82z"/>
	</g>
</g>
<g>
	<g>
		<path d="M12.086,116.363H10.27v-12.042l-3.643,1.338v-1.641l5.176-1.943h0.283V116.363z"/>
		<path d="M26.295,110.299c0,2.115-0.361,3.688-1.084,4.717c-0.723,1.027-1.852,1.543-3.389,1.543c-1.517,0-2.64-0.504-3.369-1.51
			s-1.107-2.508-1.133-4.506v-2.412c0-2.09,0.361-3.643,1.084-4.659s1.855-1.523,3.398-1.523c1.53,0,2.656,0.49,3.379,1.47
			s1.094,2.492,1.113,4.537V110.299z M24.489,107.828c0-1.531-0.215-2.645-0.645-3.345s-1.11-1.05-2.041-1.05
			c-0.924,0-1.598,0.349-2.021,1.045s-0.641,1.768-0.654,3.213v2.891c0,1.535,0.223,2.67,0.669,3.402s1.122,1.1,2.026,1.1
			c0.892,0,1.554-0.346,1.987-1.035c0.433-0.691,0.659-1.777,0.679-3.262V107.828z"/>
		<path d="M37.526,110.299c0,2.115-0.361,3.688-1.084,4.717c-0.723,1.027-1.852,1.543-3.389,1.543c-1.517,0-2.64-0.504-3.369-1.51
			s-1.107-2.508-1.133-4.506v-2.412c0-2.09,0.361-3.643,1.084-4.659s1.855-1.523,3.398-1.523c1.53,0,2.656,0.49,3.379,1.47
			s1.094,2.492,1.113,4.537V110.299z M35.719,107.828c0-1.531-0.215-2.645-0.645-3.345s-1.11-1.05-2.041-1.05
			c-0.924,0-1.598,0.349-2.021,1.045s-0.641,1.768-0.654,3.213v2.891c0,1.535,0.223,2.67,0.669,3.402s1.122,1.1,2.026,1.1
			c0.892,0,1.554-0.346,1.987-1.035c0.433-0.691,0.659-1.777,0.679-3.262V107.828z"/>
		<path d="M39.274,109.473c0-0.512,0.163-0.934,0.489-1.266s0.745-0.498,1.257-0.498c0.52,0,0.94,0.166,1.263,0.5
			s0.483,0.768,0.483,1.299v0.416c0,0.516-0.163,0.936-0.489,1.262s-0.741,0.49-1.245,0.49c-0.508,0-0.928-0.164-1.26-0.49
			s-0.498-0.76-0.498-1.303V109.473z M40.083,109.922c0,0.305,0.086,0.557,0.258,0.754s0.402,0.297,0.691,0.297
			c0.277,0,0.501-0.096,0.671-0.289c0.17-0.191,0.255-0.453,0.255-0.787v-0.428c0-0.305-0.084-0.559-0.252-0.758
			s-0.396-0.299-0.686-0.299s-0.518,0.1-0.686,0.299s-0.252,0.461-0.252,0.781V109.922z M41.278,115.719l-0.615-0.387l4.166-6.668
			l0.615,0.387L41.278,115.719z M43.428,114.271c0-0.512,0.163-0.934,0.489-1.264s0.745-0.494,1.257-0.494s0.932,0.164,1.26,0.492
			s0.492,0.764,0.492,1.307v0.416c0,0.512-0.163,0.932-0.489,1.262s-0.743,0.496-1.251,0.496s-0.928-0.164-1.26-0.49
			s-0.498-0.76-0.498-1.303V114.271z M44.237,114.727c0,0.309,0.086,0.563,0.258,0.76s0.402,0.297,0.691,0.297
			c0.281,0,0.506-0.098,0.674-0.291s0.252-0.457,0.252-0.791v-0.434c0-0.309-0.085-0.563-0.255-0.758s-0.397-0.293-0.683-0.293
			c-0.277,0-0.503,0.096-0.677,0.291c-0.174,0.193-0.261,0.455-0.261,0.783V114.727z"/>
	</g>
</g>
<g>
	<g>
		<path d="M91.294,88.247h-1.816V76.206l-3.643,1.338v-1.641l5.176-1.943h0.283V88.247z"/>
		<path d="M105.904,88.247h-9.316v-1.299l4.922-5.469c0.729-0.827,1.232-1.499,1.509-2.017s0.415-1.053,0.415-1.606
			c0-0.742-0.225-1.351-0.674-1.826s-1.048-0.713-1.797-0.713c-0.898,0-1.597,0.256-2.095,0.767s-0.747,1.223-0.747,2.134h-1.807
			c0-1.309,0.421-2.366,1.265-3.174s1.971-1.211,3.384-1.211c1.322,0,2.367,0.347,3.135,1.04s1.152,1.616,1.152,2.769
			c0,1.399-0.892,3.066-2.676,5l-3.809,4.131h7.139V88.247z"/>
		<path d="M113.755,88.247h-1.816V76.206l-3.643,1.338v-1.641l5.176-1.943h0.283V88.247z"/>
		<path d="M118.482,81.356c0-0.512,0.163-0.934,0.489-1.266s0.745-0.498,1.257-0.498c0.52,0,0.94,0.167,1.263,0.501
			s0.483,0.767,0.483,1.298v0.416c0,0.516-0.163,0.937-0.489,1.263s-0.741,0.489-1.245,0.489c-0.508,0-0.928-0.163-1.26-0.489
			s-0.498-0.761-0.498-1.304V81.356z M119.291,81.806c0,0.305,0.086,0.557,0.258,0.754c0.172,0.198,0.402,0.297,0.691,0.297
			c0.277,0,0.501-0.096,0.671-0.288c0.17-0.191,0.255-0.454,0.255-0.787v-0.429c0-0.305-0.084-0.558-0.252-0.757
			c-0.168-0.2-0.396-0.3-0.686-0.3s-0.518,0.1-0.686,0.3c-0.168,0.199-0.252,0.46-0.252,0.781V81.806z M120.486,87.603l-0.615-0.387
			l4.166-6.668l0.615,0.387L120.486,87.603z M122.636,86.155c0-0.512,0.163-0.933,0.489-1.263s0.745-0.495,1.257-0.495
			s0.932,0.164,1.26,0.492s0.492,0.764,0.492,1.307v0.416c0,0.512-0.163,0.933-0.489,1.263s-0.743,0.495-1.251,0.495
			s-0.928-0.163-1.26-0.489s-0.498-0.761-0.498-1.304V86.155z M123.445,86.61c0,0.309,0.086,0.563,0.258,0.76
			c0.172,0.198,0.402,0.297,0.691,0.297c0.281,0,0.506-0.097,0.674-0.291c0.168-0.193,0.252-0.457,0.252-0.79v-0.435
			c0-0.309-0.085-0.562-0.255-0.757c-0.17-0.196-0.397-0.294-0.683-0.294c-0.277,0-0.503,0.097-0.677,0.291
			c-0.174,0.193-0.261,0.455-0.261,0.784V86.61z"/>
	</g>
</g>
<g>
	<g>
		<path d="M177.62,53.982h-1.816V41.941l-3.643,1.338v-1.641l5.176-1.943h0.283V53.982z"/>
		<path d="M190.54,49.207h1.973v1.475h-1.973v3.301h-1.816v-3.301h-6.475v-1.064l6.367-9.854h1.924V49.207z M184.299,49.207h4.424
			v-6.973l-0.215,0.391L184.299,49.207z"/>
		<path d="M200.081,53.982h-1.816V41.941l-3.643,1.338v-1.641l5.176-1.943h0.283V53.982z"/>
		<path d="M204.807,47.091c0-0.512,0.163-0.934,0.489-1.266s0.745-0.498,1.257-0.498c0.52,0,0.94,0.167,1.263,0.501
			s0.483,0.767,0.483,1.298v0.416c0,0.516-0.163,0.937-0.489,1.263s-0.741,0.489-1.245,0.489c-0.508,0-0.928-0.163-1.26-0.489
			s-0.498-0.761-0.498-1.304V47.091z M205.616,47.541c0,0.305,0.086,0.557,0.258,0.754c0.172,0.198,0.402,0.297,0.691,0.297
			c0.277,0,0.501-0.096,0.671-0.288c0.17-0.191,0.255-0.454,0.255-0.787v-0.429c0-0.305-0.084-0.558-0.252-0.757
			c-0.168-0.2-0.396-0.3-0.686-0.3s-0.518,0.1-0.686,0.3c-0.168,0.199-0.252,0.46-0.252,0.781V47.541z M206.811,53.337l-0.615-0.387
			l4.166-6.668l0.615,0.387L206.811,53.337z M208.961,51.89c0-0.512,0.163-0.933,0.489-1.263s0.745-0.495,1.257-0.495
			s0.932,0.164,1.26,0.492s0.492,0.764,0.492,1.307v0.416c0,0.512-0.163,0.933-0.489,1.263s-0.743,0.495-1.251,0.495
			s-0.928-0.163-1.26-0.489s-0.498-0.761-0.498-1.304V51.89z M209.77,52.345c0,0.309,0.086,0.563,0.258,0.76
			c0.172,0.198,0.402,0.297,0.691,0.297c0.281,0,0.506-0.097,0.674-0.291c0.168-0.193,0.252-0.457,0.252-0.79v-0.435
			c0-0.309-0.085-0.562-0.255-0.757c-0.17-0.196-0.397-0.294-0.683-0.294c-0.277,0-0.503,0.097-0.677,0.291
			c-0.174,0.193-0.261,0.455-0.261,0.784V52.345z"/>
	</g>
</g>
<g>
	<g>
		<path d="M95.864,208.242h-5.59v-0.779l2.953-3.281c0.438-0.496,0.739-0.899,0.905-1.21s0.249-0.632,0.249-0.964
			c0-0.445-0.135-0.811-0.404-1.096s-0.629-0.428-1.078-0.428c-0.539,0-0.958,0.153-1.257,0.46s-0.448,0.733-0.448,1.28H90.11
			c0-0.785,0.253-1.42,0.759-1.904s1.183-0.727,2.03-0.727c0.793,0,1.42,0.208,1.881,0.624s0.691,0.97,0.691,1.661
			c0,0.84-0.535,1.84-1.605,3l-2.285,2.479h4.283V208.242z"/>
		<path d="M102.362,204.604c0,1.27-0.217,2.213-0.65,2.83s-1.111,0.926-2.033,0.926c-0.91,0-1.584-0.302-2.021-0.905
			s-0.664-1.505-0.68-2.704v-1.447c0-1.254,0.217-2.186,0.65-2.795s1.113-0.914,2.039-0.914c0.918,0,1.594,0.294,2.027,0.882
			s0.656,1.495,0.668,2.722V204.604z M101.278,203.121c0-0.918-0.129-1.587-0.387-2.007s-0.666-0.63-1.225-0.63
			c-0.555,0-0.959,0.209-1.213,0.627s-0.385,1.061-0.393,1.928v1.734c0,0.922,0.134,1.603,0.401,2.042s0.673,0.659,1.216,0.659
			c0.535,0,0.933-0.207,1.192-0.621s0.396-1.066,0.407-1.957V203.121z"/>
		<path d="M107.313,208.242h-1.09v-7.225l-2.186,0.803v-0.984l3.105-1.166h0.17V208.242z"/>
		<path d="M115.663,201.938c0,0.426-0.112,0.805-0.337,1.137s-0.528,0.592-0.911,0.779c0.445,0.191,0.798,0.471,1.058,0.838
			s0.39,0.783,0.39,1.248c0,0.738-0.249,1.326-0.747,1.764s-1.153,0.656-1.966,0.656c-0.82,0-1.478-0.22-1.972-0.659
			s-0.741-1.026-0.741-1.761c0-0.461,0.126-0.877,0.378-1.248s0.601-0.652,1.046-0.844c-0.379-0.188-0.678-0.447-0.896-0.779
			s-0.328-0.709-0.328-1.131c0-0.719,0.23-1.289,0.691-1.711s1.068-0.633,1.822-0.633c0.75,0,1.356,0.211,1.819,0.633
			S115.663,201.219,115.663,201.938z M114.778,205.916c0-0.477-0.151-0.865-0.454-1.166s-0.698-0.451-1.187-0.451
			s-0.88,0.148-1.175,0.445s-0.442,0.688-0.442,1.172s0.144,0.865,0.431,1.143s0.687,0.416,1.198,0.416
			c0.508,0,0.906-0.14,1.195-0.419S114.778,206.396,114.778,205.916z M113.149,200.484c-0.426,0-0.771,0.132-1.034,0.396
			s-0.396,0.622-0.396,1.075c0,0.434,0.13,0.784,0.39,1.052s0.606,0.401,1.04,0.401s0.78-0.134,1.04-0.401s0.39-0.618,0.39-1.052
			s-0.135-0.787-0.404-1.061S113.563,200.484,113.149,200.484z"/>
	</g>
</g>
<g>
	<g>
		<path d="M184.563,208.242h-5.59v-0.779l2.953-3.281c0.438-0.496,0.739-0.899,0.905-1.21s0.249-0.632,0.249-0.964
			c0-0.445-0.135-0.811-0.404-1.096s-0.629-0.428-1.078-0.428c-0.539,0-0.958,0.153-1.257,0.46s-0.448,0.733-0.448,1.28h-1.084
			c0-0.785,0.253-1.42,0.759-1.904s1.183-0.727,2.03-0.727c0.793,0,1.42,0.208,1.881,0.624s0.691,0.97,0.691,1.661
			c0,0.84-0.535,1.84-1.605,3l-2.285,2.479h4.283V208.242z"/>
		<path d="M191.061,204.604c0,1.27-0.217,2.213-0.65,2.83s-1.111,0.926-2.033,0.926c-0.91,0-1.584-0.302-2.021-0.905
			s-0.664-1.505-0.68-2.704v-1.447c0-1.254,0.217-2.186,0.65-2.795s1.113-0.914,2.039-0.914c0.918,0,1.594,0.294,2.027,0.882
			s0.656,1.495,0.668,2.722V204.604z M189.977,203.121c0-0.918-0.129-1.587-0.387-2.007s-0.666-0.63-1.225-0.63
			c-0.555,0-0.959,0.209-1.213,0.627s-0.385,1.061-0.393,1.928v1.734c0,0.922,0.134,1.603,0.401,2.042s0.673,0.659,1.216,0.659
			c0.535,0,0.933-0.207,1.192-0.621s0.396-1.066,0.407-1.957V203.121z"/>
		<path d="M196.012,208.242h-1.09v-7.225l-2.186,0.803v-0.984l3.105-1.166h0.17V208.242z"/>
		<path d="M203.342,204.492c-0.227,0.27-0.497,0.486-0.812,0.65s-0.659,0.246-1.034,0.246c-0.492,0-0.921-0.121-1.286-0.363
			s-0.647-0.583-0.847-1.022s-0.299-0.925-0.299-1.456c0-0.57,0.108-1.084,0.325-1.541s0.524-0.807,0.923-1.049
			s0.863-0.363,1.395-0.363c0.844,0,1.509,0.315,1.995,0.946s0.729,1.491,0.729,2.581v0.316c0,1.66-0.328,2.872-0.984,3.636
			s-1.646,1.155-2.971,1.175h-0.211v-0.92h0.229c0.895-0.016,1.582-0.248,2.063-0.699
			C203.038,206.179,203.299,205.467,203.342,204.492z M201.672,204.492c0.363,0,0.698-0.111,1.005-0.334s0.53-0.498,0.671-0.826
			v-0.434c0-0.711-0.154-1.289-0.463-1.734s-0.699-0.668-1.172-0.668c-0.477,0-0.859,0.183-1.148,0.548s-0.434,0.847-0.434,1.444
			c0,0.582,0.14,1.062,0.419,1.438S201.204,204.492,201.672,204.492z"/>
	</g>
</g>
<g>
	<line fill="none" stroke="#0228CC" stroke-width="5" stroke-miterlimit="10" x1="26.22" y1="187.242" x2="26.22" y2="127.232"/>
	
		<line fill="none" stroke="#0228CC" stroke-width="5" stroke-miterlimit="10" x1="104.503" y1="187.242" x2="104.503" y2="100.318"/>
	<line fill="none" stroke="#0228CC" stroke-width="5" stroke-miterlimit="10" x1="191.752" y1="187.242" x2="191.752" y2="60.908"/>
</g>
<g>
	<polygon fill="#E84830" points="77.495,90.774 83.115,91.334 80.134,95.838 	"/>
	<line fill="none" stroke="#E84830" stroke-width="1.5" stroke-miterlimit="10" x1="50.262" y1="105.958" x2="79.774" y2="92.98"/>
</g>
<g>
	<polygon fill="#E84830" points="158.608,57.136 164.228,57.696 161.248,62.2 	"/>
	<line fill="none" stroke="#E84830" stroke-width="1.5" stroke-miterlimit="10" x1="132.658" y1="71.871" x2="162.17" y2="58.895"/>
</g>
<g>
	<g>
		<path d="M33.184,2.27c-0.098,0.14-0.28,0.35-0.378,0.504c-0.561,0.952-1.891,2.76-3.488,3.866l-0.924-0.742
			c1.289-0.757,2.605-2.27,3.054-3.138h-7.97c-0.519,0-1.037,0.027-1.597,0.084V1.583c0.49,0.056,1.079,0.112,1.597,0.112h8.04
			c0.266,0,0.771-0.043,0.98-0.085L33.184,2.27z M27.595,4.118c0,3.796-0.336,6.359-3.908,8.139l-1.022-0.841
			c0.378-0.126,0.854-0.35,1.247-0.616c2.171-1.331,2.479-3.334,2.479-5.673c0-0.336-0.014-0.645-0.056-1.009H27.595z"/>
		<path d="M44.692,2.423c-0.098,0.196-0.154,0.435-0.21,0.701c-0.309,1.471-0.98,3.726-2.087,5.168
			c-1.274,1.64-2.941,2.942-5.519,3.755l-0.952-1.051c2.717-0.687,4.286-1.877,5.463-3.376c0.994-1.274,1.653-3.222,1.835-4.566
			h-7.158c-0.56,0-1.036,0.028-1.4,0.042V1.863c0.392,0.042,0.938,0.084,1.4,0.084h7.032c0.21,0,0.476,0,0.742-0.07L44.692,2.423z"
			/>
		<path d="M55.093,4.118c-0.658,0.715-1.905,1.737-3.18,2.535v4.959c0,0.42,0.014,0.994,0.07,1.204h-1.289
			c0.028-0.21,0.056-0.784,0.056-1.204V7.326c-1.19,0.63-2.872,1.358-4.398,1.793L45.75,8.097c1.793-0.393,3.698-1.247,4.86-1.919
			c1.401-0.813,2.9-1.989,3.614-2.886L55.093,4.118z"/>
		<path d="M59.262,1.219c-0.028,0.266-0.042,0.672-0.042,1.009v4.678c0,0.351,0.014,0.813,0.042,1.065h-1.289
			c0.014-0.211,0.056-0.659,0.056-1.079V2.228c0-0.253-0.028-0.743-0.056-1.009H59.262z M65.748,1.12
			c-0.028,0.337-0.056,0.743-0.056,1.205v2.27c0,3.361-0.448,4.468-1.457,5.673c-0.91,1.093-2.311,1.695-3.333,2.045l-0.911-0.967
			c1.289-0.322,2.493-0.882,3.362-1.862c1.008-1.163,1.177-2.298,1.177-4.945V2.325c0-0.462-0.042-0.868-0.07-1.205H65.748z"/>
		<path d="M78.74,9.987c0.42,0,0.798-0.042,1.163-0.084v1.274c-0.378-0.056-0.883-0.056-1.163-0.056h-9.259
			c-0.378,0-0.798,0.014-1.232,0.056V9.903c0.42,0.056,0.854,0.084,1.232,0.084h3.95V3.544h-3.152c-0.266,0-0.826,0.014-1.176,0.056
			V2.367C69.467,2.423,70,2.451,70.279,2.451h7.705c0.42,0,0.854-0.042,1.19-0.084V3.6c-0.35-0.042-0.798-0.056-1.19-0.056h-3.362
			v6.443H78.74z"/>
		<path d="M92.334,1.639c-0.967,0.98-2.312,2.129-3.754,3.04v5.995c0,0.532,0.028,1.219,0.084,1.499h-1.373
			c0.042-0.267,0.084-0.967,0.084-1.499V5.379c-1.499,0.826-3.432,1.639-5.267,2.186l-0.645-1.093
			c2.339-0.547,4.721-1.611,6.262-2.577c1.429-0.883,2.899-2.102,3.684-3.096L92.334,1.639z"/>
		<path d="M102.428,8.139c-1.527-0.827-3.95-1.766-5.505-2.256l0.014,4.623c0,0.448,0.028,1.19,0.084,1.652h-1.345
			c0.056-0.448,0.084-1.135,0.084-1.652V2.354c0-0.393-0.028-1.022-0.112-1.457h1.373c-0.042,0.435-0.098,1.036-0.098,1.457v2.283
			c1.849,0.56,4.496,1.568,5.981,2.311L102.428,8.139z"/>
		<path d="M110.433,1.863v10.911h-1.008v-2.535c-1.766,0.294-3.559,0.561-4.889,0.784l-0.182-1.05
			c0.392-0.042,0.854-0.099,1.359-0.168V1.863h-1.093V0.896h6.793v0.967H110.433z M109.425,1.863h-2.732v1.862h2.732V1.863z
			 M109.425,4.65h-2.732v1.947h2.732V4.65z M106.693,9.665c0.854-0.112,1.793-0.252,2.732-0.392V7.55h-2.732V9.665z M116.933,2.087
			c-0.364,2.998-1.148,5.323-2.27,7.102c0.771,1.121,1.723,2.018,2.886,2.605c-0.238,0.196-0.575,0.589-0.743,0.854
			c-1.105-0.63-2.03-1.484-2.787-2.535c-0.826,1.051-1.793,1.877-2.857,2.493c-0.154-0.266-0.463-0.644-0.687-0.84
			c1.106-0.574,2.102-1.443,2.942-2.592c-0.967-1.652-1.625-3.684-2.088-5.981l0.994-0.182c0.365,1.933,0.926,3.698,1.724,5.183
			c0.813-1.429,1.415-3.18,1.737-5.239h-4.721V1.933h5l0.196-0.042L116.933,2.087z"/>
		<path d="M121.829,0.729c-0.294,1.022-0.56,2.886-0.644,3.852c0.546-1.429,2.002-3.151,3.754-3.151c1.849,0,3.18,1.849,3.18,4.763
			c0,3.852-2.424,5.547-5.869,6.177l-0.658-1.008c3.012-0.463,5.364-1.667,5.364-5.155c0-2.185-0.729-3.754-2.199-3.754
			c-1.723,0-3.319,2.508-3.487,4.328c-0.07,0.532-0.07,1.009,0.027,1.695l-1.092,0.084c-0.07-0.519-0.141-1.303-0.141-2.199
			c0-1.316,0.252-3.361,0.42-4.482c0.057-0.435,0.098-0.854,0.112-1.19L121.829,0.729z"/>
		<path d="M133.224,7.522v4.062c0,0.574-0.141,0.869-0.49,1.037c-0.365,0.153-0.925,0.182-1.863,0.168
			c-0.042-0.252-0.168-0.687-0.309-0.938c0.631,0.014,1.205,0.014,1.387,0c0.183,0,0.252-0.057,0.252-0.267V7.83l-1.904,0.574
			l-0.28-1.009c0.603-0.153,1.358-0.364,2.185-0.602V3.796h-1.988V2.844h1.988V0.028h1.023v2.815h1.61v0.952h-1.61v2.703l1.625-0.49
			l0.14,0.967L133.224,7.522z M142.804,4.427c-0.461,2.437-1.387,4.3-2.604,5.7c0.798,0.785,1.751,1.387,2.871,1.793
			c-0.237,0.196-0.56,0.631-0.714,0.896c-1.135-0.462-2.073-1.134-2.872-1.961c-0.896,0.827-1.919,1.457-3.025,1.905
			c-0.14-0.252-0.392-0.63-0.616-0.813c1.092-0.392,2.102-1.009,2.998-1.849c-0.911-1.177-1.584-2.605-2.088-4.23
			c-0.266,2.857-0.84,5.127-2.157,6.892c-0.182-0.154-0.658-0.504-0.91-0.658c1.877-2.241,2.213-5.813,2.269-10.365h-1.021V0.771
			h4.874l0.168-0.057l0.715,0.112c-0.14,0.967-0.364,2.228-0.589,3.418h1.863l0.196-0.056L142.804,4.427z M136.95,1.737
			c-0.015,0.532-0.028,1.05-0.042,1.555c0.49,2.396,1.316,4.496,2.605,6.093c0.938-1.12,1.681-2.521,2.102-4.216h-1.695
			l-0.154,0.714l-0.938-0.098c0.252-1.219,0.546-2.872,0.729-4.048H136.95z"/>
		<path d="M146.37,3.334c-0.015,0.868,0,2.143,0.099,3.277c0.224,2.325,0.896,3.853,1.877,3.853c0.714,0,1.358-1.429,1.723-2.83
			l0.883,1.009c-0.827,2.354-1.682,3.151-2.635,3.151c-1.302,0-2.563-1.303-2.941-4.902c-0.14-1.204-0.153-2.886-0.153-3.698
			c0-0.322-0.015-0.896-0.085-1.232l1.346,0.028C146.425,2.325,146.384,2.97,146.37,3.334z M156.147,9.161l-1.135,0.448
			c-0.238-2.493-1.079-5.239-2.396-6.864l1.093-0.378C154.957,3.979,155.951,6.821,156.147,9.161z"/>
		<path d="M164.25,11.43h5.478v0.925h-11.878V11.43h5.322V7.971h-4.692V7.06h4.692V5.183h-2.885V4.385
			c-0.729,0.532-1.514,1.036-2.313,1.456c-0.111-0.238-0.406-0.603-0.63-0.813c2.409-1.219,4.706-3.277,5.8-5.028h1.036
			c1.485,2.003,3.908,3.88,6.079,4.847c-0.252,0.266-0.504,0.616-0.672,0.925c-0.771-0.393-1.569-0.896-2.34-1.457v0.868h-2.998
			V7.06h4.805v0.911h-4.805V11.43z M160.482,8.349c0.574,0.771,1.135,1.807,1.331,2.493l-0.896,0.406
			c-0.183-0.7-0.729-1.779-1.274-2.577L160.482,8.349z M167.164,4.258c-1.373-0.994-2.633-2.156-3.445-3.249
			c-0.729,1.05-1.905,2.213-3.278,3.249H167.164z M165.413,10.897c0.505-0.686,1.149-1.793,1.499-2.577l0.98,0.378
			c-0.519,0.883-1.177,1.892-1.709,2.55L165.413,10.897z"/>
		<path d="M173.277,11.906v0.658h-0.896V8.698c-0.224,0.126-0.434,0.225-0.658,0.322c-0.125-0.224-0.378-0.56-0.561-0.742
			c1.037-0.393,2.088-1.064,2.956-1.919c-0.448-0.322-0.896-0.645-1.303-0.938c-0.294,0.294-0.588,0.561-0.882,0.799
			c-0.154-0.169-0.505-0.477-0.701-0.617c1.051-0.742,2.018-1.891,2.535-3.123l0.883,0.224c-0.126,0.28-0.266,0.547-0.42,0.813
			h1.807l0.154-0.042l0.603,0.267c-0.322,0.938-0.799,1.765-1.387,2.493c0.826,0.616,1.597,1.219,2.087,1.694l-0.616,0.729
			c-0.099-0.098-0.224-0.21-0.351-0.336v3.586H173.277z M172.479,3.292h-0.868V1.289h2.381V0.042h0.967v1.247h2.381v2.003h-0.896
			V2.129h-3.964V3.292z M176.443,8.25c-0.448-0.406-1.022-0.868-1.625-1.345c-0.504,0.519-1.078,0.967-1.652,1.345H176.443z
			 M175.603,9.077h-2.326v1.989h2.326V9.077z M173.753,4.272c-0.126,0.168-0.252,0.35-0.393,0.504
			c0.435,0.294,0.883,0.616,1.346,0.938c0.363-0.448,0.672-0.924,0.91-1.442H173.753z M180.099,10.954
			c-0.7,0.714-1.891,1.429-2.899,1.82c-0.169-0.182-0.462-0.49-0.687-0.686c1.008-0.364,2.157-1.051,2.689-1.653L180.099,10.954z
			 M179.861,2.913c0.112-0.42,0.225-0.896,0.295-1.33h-2.648V0.672h6.472v0.911h-2.703c-0.14,0.448-0.28,0.924-0.421,1.33h2.76
			v7.242h-5.574V2.913H179.861z M182.634,3.74h-3.656v1.345h3.656V3.74z M182.634,5.841h-3.656v1.345h3.656V5.841z M182.634,7.971
			h-3.656v1.358h3.656V7.971z M182.018,10.491c0.813,0.505,1.849,1.275,2.367,1.793l-0.798,0.547
			c-0.505-0.505-1.527-1.303-2.354-1.835L182.018,10.491z"/>
	</g>
</g>
<g>
	<line fill="none" stroke="#C8C8C8" stroke-width="0.3" stroke-miterlimit="10" x1="0" y1="187.242" x2="213.115" y2="187.242"/>
	<line fill="none" stroke="#C8C8C8" stroke-width="0.3" stroke-miterlimit="10" x1="0" y1="156.992" x2="213.115" y2="156.992"/>
	<line fill="none" stroke="#C8C8C8" stroke-width="0.3" stroke-miterlimit="10" x1="0" y1="126.742" x2="213.115" y2="126.742"/>
	<line fill="none" stroke="#C8C8C8" stroke-width="0.3" stroke-miterlimit="10" x1="0" y1="96.492" x2="213.115" y2="96.492"/>
	<line fill="none" stroke="#C8C8C8" stroke-width="0.3" stroke-miterlimit="10" x1="0" y1="66.242" x2="213.115" y2="66.242"/>
</g>
</svg>
