<?xml version="1.0" encoding="utf-8"?>
<!-- Generator: Adobe Illustrator 16.0.0, SVG Export Plug-In . SVG Version: 6.00 Build 0)  -->
<!DOCTYPE svg PUBLIC "-//W3C//DTD SVG 1.1//EN" "http://www.w3.org/Graphics/SVG/1.1/DTD/svg11.dtd">
<svg version="1.1" id="レイヤー_1" xmlns="http://www.w3.org/2000/svg" xmlns:xlink="http://www.w3.org/1999/xlink" x="0px"
	 y="0px" width="96.1px" height="93.227px" viewBox="0 0 96.1 93.227" enable-background="new 0 0 96.1 93.227"
	 xml:space="preserve">
<g>
	<g>
		<path fill-rule="evenodd" clip-rule="evenodd" fill="#FFCC5C" d="M96.1,71.861L85.647,72.07
			c9.269-14.238,10.403-33.042,1.327-48.76C74.105,1.02,45.602-6.618,23.311,6.252C1.02,19.121-6.618,47.625,6.251,69.915
			c12.764,22.109,40.903,29.791,63.111,17.361l0.01,0.017L96.1,71.861z"/>
	</g>
</g>
<g>
	<path fill="#E84830" d="M35.16,75.414l-14.146,3.692L20.282,76.3l4.819-8.857c0.654-1.24,1.104-2.291,1.349-3.153
		c0.245-0.86,0.279-1.627,0.104-2.298c-0.239-0.916-0.659-1.577-1.258-1.979c-0.601-0.405-1.33-0.494-2.19-0.27
		c-0.926,0.241-1.572,0.751-1.94,1.529c-0.367,0.776-0.415,1.685-0.144,2.724l-4.11,1.073c-0.328-1.257-0.328-2.482,0-3.68
		c0.329-1.195,0.965-2.231,1.907-3.108c0.942-0.876,2.106-1.496,3.496-1.858c2.126-0.555,3.91-0.476,5.353,0.237
		c1.443,0.714,2.408,2.001,2.894,3.862c0.267,1.021,0.272,2.129,0.021,3.325c-0.253,1.197-0.839,2.666-1.756,4.41l-3.4,6.171
		l8.872-2.316L35.16,75.414z"/>
	<path fill="#E84830" d="M38.195,58.552c-0.139,1.322-0.396,2.69-0.735,4.027l3.124,11.967l-1.969,0.515l-2.323-8.901
		c-0.252,0.604-0.53,1.179-0.821,1.702c-0.324-0.455-1.182-1.459-1.657-1.855c1.159-1.979,2.011-4.844,2.25-7.565L38.195,58.552z
		 M50.431,61.295l0.495,1.899l-11.62,3.033l-0.496-1.899l2.666-0.695c-0.286-0.669-0.794-1.542-1.32-2.205l1.064-0.557l-2.456,0.642
		l-0.482-1.847l4.146-1.083l-0.45-1.725l2.126-0.555l0.449,1.725l4.355-1.137l0.482,1.847l-2.822,0.737l1.44-0.115
		c-0.112,0.996-0.216,1.953-0.349,2.658L50.431,61.295z M41.066,67.127l9.129-2.383l1.769,6.776l-2.108,0.551l-0.168-0.645l-5,1.305
		l0.19,0.731l-2.021,0.527L41.066,67.127z M41.969,60.676c0.57,0.688,1.122,1.587,1.395,2.204l-0.859,0.484l4.163-1.087
		l-0.969,0.067c0.097-0.771,0.182-1.871,0.155-2.683L41.969,60.676z M43.578,68.48l0.609,2.335l5-1.305l-0.609-2.335L43.578,68.48z"
		/>
	<path fill="#E84830" d="M60.188,64.22c-2.031,1.627-4.323,3.398-6.078,4.731l-1.274-2.03c0.604-0.4,1.314-0.884,2.095-1.459
		l-3.004-10.084l2.138-0.65l2.773,9.344c0.775-0.595,1.568-1.191,2.349-1.767L60.188,64.22z M59.813,60
		c-0.748-1.088-2.341-2.627-3.723-3.642l1.636-1.434c1.465,0.977,3.008,2.398,3.845,3.463L59.813,60z M68.68,67.232
		c-0.941-0.964-2.683-2.221-4.354-3.349c-0.8,2.145-2.161,3.988-4.191,5.616c-0.415-0.376-1.514-1.094-2.133-1.397
		c4.977-3.532,5.671-8.217,4.446-15.546l2.337-0.386c0.566,3.667,0.698,6.74,0.185,9.405c1.837,1.121,3.916,2.458,5.036,3.468
		L68.68,67.232z"/>
	<path fill="#E84830" d="M87.031,59.315l0.545,2.092L71.739,65.54l-0.546-2.091l6.237-1.628l-3.424-13.118l2.229-0.582l1.301,4.982
		l6.15-1.604l0.55,2.107l-6.15,1.605l1.573,6.027L87.031,59.315z"/>
</g>
<g>
	<path fill="#E84830" d="M13.346,32.945l2.264-0.591l0.354,1.354l-1.125,0.294l0.564-0.001c-0.1,0.56-0.165,1.143-0.248,1.598
		l1.016-0.265l0.354,1.355l-2.061,0.537l0.273,1.044l1.91-0.498l0.354,1.355l-1.911,0.498l0.644,2.467l-1.49,0.39l-0.645-2.467
		l-2.02,0.526l-0.354-1.355l2.02-0.526l-0.272-1.044l-2.128,0.555l-0.354-1.355l1.017-0.265c-0.195-0.413-0.52-0.935-0.826-1.334
		l0.456-0.249l-1.342,0.35l-0.354-1.354l2.413-0.63l-0.244-0.936l-1.938,0.506l-0.347-1.329l1.938-0.506l-0.307-1.178l1.49-0.39
		l0.308,1.178l1.762-0.46l0.347,1.329l-1.762,0.46L13.346,32.945z M13.888,35.801c0.044-0.446,0.095-1.082,0.097-1.575l-2.061,0.538
		c0.357,0.429,0.699,0.961,0.854,1.327l-0.402,0.234l1.979-0.517L13.888,35.801z M22.344,32.754c0.17,1.707,0.092,3.349-0.267,4.803
		c0.715,0.466,1.474,0.817,2.27,0.986c-0.274,0.391-0.587,1.079-0.711,1.546c-0.736-0.213-1.419-0.556-2.069-0.994
		c-0.288,0.669-0.648,1.284-1.098,1.837c-0.248-0.226-0.613-0.463-0.966-0.647l0.209,0.801l-1.464,0.382L15.096,29.39l5.652-1.476
		l0.665,2.549c0.181,0.691,0.134,1.123-0.339,1.479c-0.458,0.351-1.186,0.556-2.176,0.813c-0.181-0.415-0.529-0.918-0.821-1.261
		c0.671-0.147,1.416-0.342,1.619-0.395c0.2-0.067,0.258-0.125,0.219-0.274l-0.29-1.111l-2.697,0.704l0.846,3.239l3.267-0.853
		l0.253-0.14L22.344,32.754z M19.376,39.797c0.385-0.521,0.698-1.096,0.94-1.722c-0.756-0.73-1.447-1.606-2.065-2.588L19.376,39.797
		z M19.244,34.635c0.438,0.681,0.948,1.3,1.511,1.849c0.142-0.732,0.198-1.514,0.17-2.288L19.244,34.635z"/>
	<path fill="#E84830" d="M34.406,24.09l3.22,12.334l-1.355,0.354l-1.422-5.449l-0.374,0.345c-0.198-0.427-0.533-0.99-0.909-1.544
		l1.694,6.492l-1.287,0.336l-1.31-5.015l-0.394,0.377c-0.182-0.473-0.504-1.099-0.874-1.682c0.658,2.521,1.181,5.077,0.565,7.322
		c-0.338-0.187-0.983-0.438-1.392-0.505c0.561-2.015,0.126-4.232-0.461-6.481l-0.004-0.014c0.094,0.801,0.103,1.609-0.04,2.283
		l-0.902-0.46l1.355,5.191l-1.152,0.301l-0.166-0.637l-2.684,0.7l0.212,0.813l-1.085,0.283l-2.465-9.446l1.233-0.322l-0.343-1.315
		l-1.424,0.372l-0.329-1.26l5.272-1.377l0.329,1.26l-1.464,0.383l0.344,1.315l1.301-0.34l1.009,3.863
		c0.144-0.835-0.005-2.07-0.209-3.131l0.814,0.019l-1.009-3.863l1.288-0.336l1.058,4.053l0.408-0.381
		c0.22,0.29,0.451,0.619,0.665,0.94l-1.203-4.608l1.288-0.336l0.955,3.66l0.313-0.299c0.285,0.315,0.581,0.674,0.851,1.037
		l-1.277-4.893L34.406,24.09z M24.602,31.007l0.754,2.887c0.237-0.642,0.108-1.302-0.033-1.845l-0.301-1.151L24.602,31.007z
		 M25.387,29.412l0.42-0.11l-0.343-1.315l-0.42,0.109L25.387,29.412z M26.031,31.879c0.194,0.744,0.326,1.753-0.079,2.582
		c-0.124-0.084-0.342-0.2-0.522-0.283l0.227,0.867l2.684-0.7l-0.305-1.166l-0.38,0.099c-0.596,0.156-0.805,0.022-1.007-0.75
		l-0.502-1.924l-0.42,0.109L26.031,31.879z M28.877,36.404l-0.24-0.921l-2.684,0.7l0.24,0.921L28.877,36.404z M27.285,30.307
		l-0.406,0.105l0.495,1.898c0.046,0.176,0.08,0.195,0.175,0.171l0.244-0.063l0.041-0.011L27.285,30.307z"/>
	<path fill="#E84830" d="M50.809,30.608l-5.326,1.391l0.576,2.209l-1.653,0.432l-0.577-2.209l-5.23,1.365l-0.39-1.491l5.231-1.365
		l-0.23-0.882l-4.038,1.054l-1.489-5.705l1.139-0.297c-0.42-0.44-1.037-0.975-1.561-1.374l1.216-0.998
		c0.637,0.442,1.452,1.069,1.864,1.54l-0.734,0.627l2.399-0.626c-0.349-0.503-0.946-1.129-1.505-1.606l1.309-0.92
		c0.62,0.49,1.341,1.199,1.72,1.708l-0.873,0.648l2.073-0.541c0.284-0.799,0.578-1.889,0.659-2.691l1.937,0.044
		c-0.236,0.757-0.514,1.525-0.779,2.173l1.071-0.279l1.489,5.705l-4.242,1.107l0.229,0.882l5.327-1.391L50.809,30.608z
		 M42.063,25.667l-2.48,0.647l0.237,0.908l2.48-0.647L42.063,25.667z M42.863,28.73l-0.241-0.923l-2.479,0.647l0.24,0.923
		L42.863,28.73z M46.292,24.563l-2.575,0.672l0.236,0.908l2.576-0.672L46.292,24.563z M46.851,26.704l-2.575,0.672l0.24,0.923
		l2.576-0.672L46.851,26.704z"/>
	<path fill="#E84830" d="M53.449,19.292c-0.105,0.983-0.288,2.001-0.522,2.988l2.477,9.488l-1.519,0.396l-1.846-7.075
		c-0.176,0.437-0.358,0.847-0.565,1.219c-0.248-0.341-0.892-1.085-1.251-1.411c0.857-1.483,1.48-3.644,1.657-5.687L53.449,19.292z
		 M59.994,20.017l0.442,1.694l2.29-0.598l2.041,7.82l-1.545,0.403l-0.18-0.691l-5.367,1.4l0.201,0.772l-1.491,0.39l-2.062-7.901
		l2.182-0.57l-0.441-1.693l-2.318,0.604l-0.375-1.437l8.606-2.246l0.374,1.437L59.994,20.017z M57.314,28.664l0.84-0.219
		l-1.135-4.352l-0.841,0.219L57.314,28.664z M58.477,20.413l-0.895,0.233l0.441,1.694l0.895-0.233L58.477,20.413z M58.375,23.739
		l1.135,4.352l0.908-0.236l-1.135-4.352L58.375,23.739z M61.547,22.912l-0.908,0.236l1.135,4.352l0.908-0.236L61.547,22.912z"/>
	<path fill="#E84830" d="M71.385,25.252c0.498-0.202,0.859-0.369,1.19-0.543c1.615-0.855,2.622-2.436,2.112-4.388
		c-0.484-1.856-1.849-2.978-3.732-2.818c0.107,1.188,0.203,2.495,0.152,3.855c-0.093,2.919-0.827,4.876-2.29,5.258
		c-1.478,0.386-3.166-0.925-3.757-3.188c-0.807-3.09,1.197-6.45,4.681-7.359c3.32-0.866,6.026,0.902,6.791,3.83
		c0.735,2.818-0.476,5.278-3.73,6.678L71.385,25.252z M69.28,21.459c0.054-1.071-0.003-2.288-0.131-3.441
		c-2.103,1.041-2.772,3.301-2.386,4.778c0.354,1.354,1.068,1.878,1.57,1.747C68.89,24.397,69.212,23.416,69.28,21.459z"/>
	<path fill="#E84830" d="M39.24,41.724l-1.559,0.407l2.108,8.078c0.255,0.975,0.149,1.51-0.417,1.947
		c-0.607,0.447-1.604,0.736-2.986,1.097c-0.219-0.449-0.752-1.164-1.109-1.534c0.977-0.197,2.152-0.518,2.478-0.603
		c0.312-0.081,0.409-0.208,0.335-0.493l-2.102-8.051l-8.959,2.339l-0.425-1.626l12.212-3.188L39.24,41.724z M31.613,50.938
		l0.27,1.029l-1.573,0.411l-1.638-6.275l5.747-1.5l1.369,5.246L31.613,50.938z M30.645,47.224l0.565,2.169l2.575-0.672l-0.565-2.169
		L30.645,47.224z"/>
	<path fill="#E84830" d="M45.135,38.434c0.919,0.803,1.973,1.902,2.461,2.716l-1.322,0.982c-0.11-0.203-0.256-0.425-0.431-0.655
		c-1.758,0.589-3.572,1.179-4.934,1.621l-0.535-1.497c0.325-0.085,0.674-0.189,1.05-0.302c0.157-0.954,0.264-2.097,0.278-2.982
		l1.77-0.101c-0.106,0.868-0.261,1.776-0.412,2.583l1.782-0.552c-0.303-0.327-0.619-0.649-0.928-0.945L45.135,38.434z
		 M48.455,48.381c0.184,0.705,0.151,1.133-0.236,1.48c-0.393,0.378-1.014,0.555-1.826,0.767c-0.191-0.399-0.584-0.963-0.887-1.288
		c0.481-0.098,1.021-0.253,1.192-0.312c0.163-0.043,0.207-0.098,0.164-0.26l-0.236-0.908l-2.033,0.53l0.668,2.562l-1.491,0.39
		l-2.03-7.78l5.109-1.334L48.455,48.381z M43.577,44.5l0.184,0.705l2.033-0.53L45.61,43.97L43.577,44.5z M46.314,46.667l-0.209-0.8
		l-2.033,0.53l0.209,0.8L46.314,46.667z M50.203,42.655c-1.586,0.413-2.089,0.038-2.479-1.453l-1.064-4.079l1.6-0.418l0.506,1.938
		c0.816-0.589,1.601-1.243,2.146-1.763l1.334,0.897c-0.89,0.754-2.05,1.52-3.137,2.18l0.209,0.8
		c0.127,0.488,0.222,0.521,0.737,0.387l1.477-0.386c0.435-0.113,0.476-0.341,0.223-1.535c0.389,0.16,1.12,0.244,1.579,0.226
		c0.276,1.78-0.013,2.392-1.261,2.718L50.203,42.655z M53.315,47.257c0.461-0.12,0.488-0.402,0.199-1.789
		c0.402,0.155,1.116,0.229,1.565,0.229c0.322,1.957,0.054,2.593-1.248,2.933l-1.924,0.502c-1.586,0.414-2.1,0.055-2.488-1.436
		l-1.111-4.256l1.586-0.414l0.478,1.829c0.859-0.645,1.678-1.335,2.216-1.938l1.379,0.899c-0.896,0.842-2.109,1.68-3.244,2.381
		l0.283,1.085c0.123,0.474,0.236,0.518,0.765,0.379L53.315,47.257z"/>
	<path fill="#E84830" d="M68.598,42.775l0.4,1.531l-8.43,2.201l-0.4-1.531l3.619-0.945l-0.708-2.711l-2.616,0.684l-0.393-1.505
		l2.616-0.683l-0.58-2.223l-1.491,0.39c-0.02,0.758-0.12,1.479-0.271,2.068c-0.378-0.118-1.205-0.294-1.628-0.356
		c0.072-0.28,0.141-0.573,0.201-0.893l-0.68,0.555c-0.188-0.387-0.547-0.93-0.922-1.426l2.416,9.257l-1.613,0.421l-2.529-9.69
		c0.217,1.16,0.389,2.708,0.328,3.751l-1.307-0.122c0.092-0.979-0.061-2.562-0.256-3.697l1.182-0.135l-0.722-2.765l1.612-0.421
		l0.669,2.562l0.701-0.53c0.409,0.458,0.863,1.034,1.19,1.513c0.081-1.078,0.021-2.308-0.144-3.494l1.628-0.194
		c0.072,0.663,0.13,1.328,0.152,1.973l1.085-0.282l-0.693-2.656l1.613-0.422l0.692,2.656l2.766-0.722l0.396,1.519l-2.766,0.722
		l0.58,2.222l2.48-0.646l0.393,1.504l-2.48,0.647l0.708,2.711L68.598,42.775z"/>
</g>
</svg>
