<?xml version="1.0" encoding="utf-8"?>
<!-- Generator: Adobe Illustrator 16.0.0, SVG Export Plug-In . SVG Version: 6.00 Build 0)  -->
<!DOCTYPE svg PUBLIC "-//W3C//DTD SVG 1.1//EN" "http://www.w3.org/Graphics/SVG/1.1/DTD/svg11.dtd">
<svg version="1.1" id="レイヤー_1" xmlns="http://www.w3.org/2000/svg" xmlns:xlink="http://www.w3.org/1999/xlink" x="0px"
	 y="0px" width="213.422px" height="62.401px" viewBox="0 0 213.422 62.401" enable-background="new 0 0 213.422 62.401"
	 xml:space="preserve">
<polygon fill="#E84830" points="142.51,6.435 143.81,10.958 139.403,10.041 "/>
<g>
	<g>
		<line fill="none" stroke="#C8C8C8" stroke-width="0.3" stroke-miterlimit="10" x1="0" y1="50.291" x2="175.842" y2="50.291"/>
		<line fill="none" stroke="#C8C8C8" stroke-width="0.3" stroke-miterlimit="10" x1="0" y1="34.313" x2="175.842" y2="34.313"/>
		<line fill="none" stroke="#C8C8C8" stroke-width="0.3" stroke-miterlimit="10" x1="0" y1="18.334" x2="175.842" y2="18.334"/>
		<line fill="none" stroke="#C8C8C8" stroke-width="0.3" stroke-miterlimit="10" x1="0" y1="2.355" x2="175.842" y2="2.355"/>
	</g>
	<g>
		<path d="M185.047,6.486h-0.817V1.068l-1.64,0.602V0.932l2.33-0.875h0.127V6.486z"/>
		<path d="M191.622,6.486h-4.192V5.902l2.215-2.461c0.328-0.372,0.554-0.675,0.679-0.908c0.125-0.232,0.188-0.474,0.188-0.723
			c0-0.334-0.102-0.607-0.304-0.822c-0.202-0.213-0.472-0.32-0.809-0.32c-0.404,0-0.718,0.115-0.942,0.345
			c-0.225,0.23-0.336,0.551-0.336,0.96h-0.813c0-0.588,0.189-1.064,0.569-1.428C188.254,0.182,188.762,0,189.398,0
			c0.595,0,1.065,0.156,1.411,0.468c0.346,0.313,0.518,0.728,0.518,1.246c0,0.63-0.4,1.38-1.203,2.25l-1.715,1.858h3.213V6.486z"/>
		<path d="M196.495,3.758c0,0.952-0.162,1.659-0.487,2.122s-0.833,0.694-1.524,0.694c-0.684,0-1.188-0.227-1.517-0.679
			c-0.328-0.453-0.498-1.129-0.51-2.028V2.781c0-0.939,0.163-1.639,0.487-2.096C193.27,0.229,193.78,0,194.473,0
			c0.689,0,1.195,0.221,1.521,0.661c0.324,0.441,0.492,1.122,0.5,2.042V3.758z M195.682,2.646c0-0.688-0.097-1.19-0.29-1.505
			c-0.193-0.315-0.499-0.473-0.919-0.473c-0.416,0-0.719,0.157-0.909,0.471s-0.288,0.795-0.294,1.445v1.301
			c0,0.691,0.1,1.202,0.301,1.531c0.2,0.33,0.504,0.494,0.912,0.494c0.4,0,0.699-0.154,0.895-0.465
			c0.193-0.311,0.296-0.801,0.305-1.469V2.646z"/>
		<path d="M197.594,7.761l-0.462-0.316c0.275-0.384,0.419-0.779,0.431-1.187V5.523h0.795v0.638c0,0.296-0.072,0.592-0.217,0.888
			S197.813,7.582,197.594,7.761z"/>
		<path d="M203.315,3.758c0,0.952-0.162,1.659-0.487,2.122s-0.833,0.694-1.524,0.694c-0.684,0-1.188-0.227-1.517-0.679
			c-0.328-0.453-0.498-1.129-0.51-2.028V2.781c0-0.939,0.163-1.639,0.487-2.096C200.09,0.229,200.6,0,201.293,0
			c0.689,0,1.195,0.221,1.521,0.661c0.324,0.441,0.492,1.122,0.5,2.042V3.758z M202.502,2.646c0-0.688-0.097-1.19-0.29-1.505
			c-0.193-0.315-0.499-0.473-0.919-0.473c-0.416,0-0.719,0.157-0.909,0.471s-0.288,0.795-0.294,1.445v1.301
			c0,0.691,0.1,1.202,0.301,1.531c0.2,0.33,0.504,0.494,0.912,0.494c0.4,0,0.699-0.154,0.895-0.465
			c0.193-0.311,0.296-0.801,0.305-1.469V2.646z"/>
		<path d="M208.37,3.758c0,0.952-0.163,1.659-0.488,2.122s-0.834,0.694-1.525,0.694c-0.682,0-1.188-0.227-1.516-0.679
			c-0.328-0.453-0.498-1.129-0.51-2.028V2.781c0-0.939,0.162-1.639,0.488-2.096C205.143,0.229,205.653,0,206.348,0
			c0.688,0,1.195,0.221,1.52,0.661c0.326,0.441,0.492,1.122,0.502,2.042V3.758z M207.556,2.646c0-0.688-0.097-1.19-0.29-1.505
			c-0.193-0.315-0.5-0.473-0.918-0.473c-0.416,0-0.72,0.157-0.91,0.471s-0.289,0.795-0.295,1.445v1.301
			c0,0.691,0.101,1.202,0.301,1.531c0.201,0.33,0.506,0.494,0.912,0.494c0.402,0,0.699-0.154,0.895-0.465s0.297-0.801,0.306-1.469
			V2.646z"/>
		<path d="M213.422,3.758c0,0.952-0.162,1.659-0.487,2.122s-0.833,0.694-1.524,0.694c-0.684,0-1.188-0.227-1.517-0.679
			c-0.328-0.453-0.498-1.129-0.51-2.028V2.781c0-0.939,0.163-1.639,0.487-2.096C210.198,0.229,210.708,0,211.401,0
			c0.689,0,1.195,0.221,1.521,0.661c0.324,0.441,0.492,1.122,0.5,2.042V3.758z M212.61,2.646c0-0.688-0.097-1.19-0.29-1.505
			c-0.193-0.315-0.499-0.473-0.919-0.473c-0.416,0-0.719,0.157-0.909,0.471s-0.288,0.795-0.294,1.445v1.301
			c0,0.691,0.1,1.202,0.301,1.531c0.2,0.33,0.504,0.494,0.912,0.494c0.4,0,0.699-0.154,0.895-0.465
			c0.193-0.311,0.296-0.801,0.305-1.469V2.646z"/>
		<path d="M186.256,17.758c0,0.319-0.085,0.604-0.254,0.853c-0.168,0.249-0.396,0.444-0.683,0.585
			c0.334,0.144,0.599,0.353,0.794,0.628c0.193,0.275,0.291,0.588,0.291,0.937c0,0.553-0.186,0.994-0.561,1.322
			c-0.373,0.328-0.864,0.492-1.474,0.492c-0.615,0-1.108-0.165-1.479-0.494c-0.37-0.33-0.555-0.77-0.555-1.32
			c0-0.346,0.094-0.658,0.283-0.937s0.45-0.489,0.784-0.633c-0.284-0.141-0.509-0.335-0.673-0.585
			c-0.164-0.248-0.246-0.531-0.246-0.848c0-0.539,0.174-0.967,0.52-1.283S183.805,16,184.371,16c0.563,0,1.017,0.158,1.364,0.475
			S186.256,17.219,186.256,17.758z M185.592,20.742c0-0.357-0.113-0.649-0.34-0.875c-0.229-0.226-0.524-0.338-0.891-0.338
			s-0.66,0.111-0.881,0.334c-0.222,0.223-0.332,0.516-0.332,0.879s0.107,0.648,0.322,0.856c0.217,0.208,0.516,0.312,0.899,0.312
			c0.381,0,0.68-0.104,0.896-0.313C185.484,21.387,185.592,21.102,185.592,20.742z M184.371,16.668
			c-0.319,0-0.577,0.099-0.776,0.297c-0.197,0.197-0.296,0.467-0.296,0.807c0,0.324,0.097,0.588,0.292,0.788
			c0.195,0.201,0.455,0.302,0.78,0.302s0.585-0.101,0.78-0.302c0.194-0.2,0.292-0.464,0.292-0.788c0-0.326-0.101-0.591-0.304-0.796
			C184.938,16.771,184.681,16.668,184.371,16.668z"/>
		<path d="M191.442,19.758c0,0.952-0.163,1.659-0.488,2.122s-0.834,0.694-1.525,0.694c-0.682,0-1.188-0.227-1.516-0.679
			c-0.328-0.453-0.498-1.129-0.51-2.028v-1.086c0-0.939,0.162-1.639,0.488-2.096c0.324-0.457,0.834-0.686,1.529-0.686
			c0.688,0,1.195,0.221,1.52,0.661c0.326,0.441,0.492,1.122,0.502,2.042V19.758z M190.628,18.646c0-0.688-0.097-1.19-0.29-1.505
			c-0.193-0.315-0.5-0.473-0.918-0.473c-0.416,0-0.72,0.157-0.91,0.471s-0.289,0.795-0.295,1.445v1.301
			c0,0.691,0.101,1.202,0.301,1.531c0.201,0.33,0.506,0.494,0.912,0.494c0.402,0,0.699-0.154,0.895-0.465s0.297-0.801,0.306-1.469
			V18.646z"/>
		<path d="M192.54,23.761l-0.461-0.316c0.275-0.384,0.419-0.779,0.431-1.187v-0.734h0.796v0.638c0,0.296-0.072,0.592-0.219,0.888
			C192.942,23.345,192.76,23.582,192.54,23.761z"/>
		<path d="M198.262,19.758c0,0.952-0.163,1.659-0.488,2.122s-0.834,0.694-1.525,0.694c-0.682,0-1.188-0.227-1.516-0.679
			c-0.328-0.453-0.498-1.129-0.51-2.028v-1.086c0-0.939,0.162-1.639,0.488-2.096c0.324-0.457,0.834-0.686,1.529-0.686
			c0.688,0,1.195,0.221,1.52,0.661c0.326,0.441,0.492,1.122,0.502,2.042V19.758z M197.449,18.646c0-0.688-0.097-1.19-0.29-1.505
			c-0.193-0.315-0.5-0.473-0.918-0.473c-0.416,0-0.72,0.157-0.91,0.471s-0.289,0.795-0.295,1.445v1.301
			c0,0.691,0.101,1.202,0.301,1.531c0.201,0.33,0.506,0.494,0.912,0.494c0.402,0,0.699-0.154,0.895-0.465s0.297-0.801,0.306-1.469
			V18.646z"/>
		<path d="M203.315,19.758c0,0.952-0.162,1.659-0.487,2.122s-0.833,0.694-1.524,0.694c-0.684,0-1.188-0.227-1.517-0.679
			c-0.328-0.453-0.498-1.129-0.51-2.028v-1.086c0-0.939,0.163-1.639,0.487-2.096C200.09,16.229,200.6,16,201.293,16
			c0.689,0,1.195,0.221,1.521,0.661c0.324,0.441,0.492,1.122,0.5,2.042V19.758z M202.502,18.646c0-0.688-0.097-1.19-0.29-1.505
			c-0.193-0.315-0.499-0.473-0.919-0.473c-0.416,0-0.719,0.157-0.909,0.471s-0.288,0.795-0.294,1.445v1.301
			c0,0.691,0.1,1.202,0.301,1.531c0.2,0.33,0.504,0.494,0.912,0.494c0.4,0,0.699-0.154,0.895-0.465
			c0.193-0.311,0.296-0.801,0.305-1.469V18.646z"/>
		<path d="M208.37,19.758c0,0.952-0.163,1.659-0.488,2.122s-0.834,0.694-1.525,0.694c-0.682,0-1.188-0.227-1.516-0.679
			c-0.328-0.453-0.498-1.129-0.51-2.028v-1.086c0-0.939,0.162-1.639,0.488-2.096c0.324-0.457,0.834-0.686,1.529-0.686
			c0.688,0,1.195,0.221,1.52,0.661c0.326,0.441,0.492,1.122,0.502,2.042V19.758z M207.556,18.646c0-0.688-0.097-1.19-0.29-1.505
			c-0.193-0.315-0.5-0.473-0.918-0.473c-0.416,0-0.72,0.157-0.91,0.471s-0.289,0.795-0.295,1.445v1.301
			c0,0.691,0.101,1.202,0.301,1.531c0.201,0.33,0.506,0.494,0.912,0.494c0.402,0,0.699-0.154,0.895-0.465s0.297-0.801,0.306-1.469
			V18.646z"/>
		<path d="M185.807,36.338h0.889v0.663h-0.889v1.485h-0.816v-1.485h-2.914v-0.479l2.865-4.434h0.865V36.338z M183,36.338h1.991
			v-3.139l-0.098,0.176L183,36.338z"/>
		<path d="M191.442,35.758c0,0.952-0.163,1.659-0.488,2.122s-0.834,0.694-1.525,0.694c-0.682,0-1.188-0.227-1.516-0.679
			c-0.328-0.453-0.498-1.129-0.51-2.028v-1.086c0-0.939,0.162-1.639,0.488-2.096c0.324-0.457,0.834-0.686,1.529-0.686
			c0.688,0,1.195,0.221,1.52,0.661c0.326,0.441,0.492,1.122,0.502,2.042V35.758z M190.628,34.646c0-0.688-0.097-1.19-0.29-1.505
			c-0.193-0.315-0.5-0.473-0.918-0.473c-0.416,0-0.72,0.157-0.91,0.471s-0.289,0.795-0.295,1.445v1.301
			c0,0.691,0.101,1.202,0.301,1.531c0.201,0.33,0.506,0.494,0.912,0.494c0.402,0,0.699-0.154,0.895-0.465s0.297-0.801,0.306-1.469
			V34.646z"/>
		<path d="M192.54,39.761l-0.461-0.316c0.275-0.384,0.419-0.779,0.431-1.187v-0.734h0.796v0.638c0,0.296-0.072,0.592-0.219,0.888
			C192.942,39.345,192.76,39.582,192.54,39.761z"/>
		<path d="M198.262,35.758c0,0.952-0.163,1.659-0.488,2.122s-0.834,0.694-1.525,0.694c-0.682,0-1.188-0.227-1.516-0.679
			c-0.328-0.453-0.498-1.129-0.51-2.028v-1.086c0-0.939,0.162-1.639,0.488-2.096c0.324-0.457,0.834-0.686,1.529-0.686
			c0.688,0,1.195,0.221,1.52,0.661c0.326,0.441,0.492,1.122,0.502,2.042V35.758z M197.449,34.646c0-0.688-0.097-1.19-0.29-1.505
			c-0.193-0.315-0.5-0.473-0.918-0.473c-0.416,0-0.72,0.157-0.91,0.471s-0.289,0.795-0.295,1.445v1.301
			c0,0.691,0.101,1.202,0.301,1.531c0.201,0.33,0.506,0.494,0.912,0.494c0.402,0,0.699-0.154,0.895-0.465s0.297-0.801,0.306-1.469
			V34.646z"/>
		<path d="M203.315,35.758c0,0.952-0.162,1.659-0.487,2.122s-0.833,0.694-1.524,0.694c-0.684,0-1.188-0.227-1.517-0.679
			c-0.328-0.453-0.498-1.129-0.51-2.028v-1.086c0-0.939,0.163-1.639,0.487-2.096C200.09,32.229,200.6,32,201.293,32
			c0.689,0,1.195,0.221,1.521,0.661c0.324,0.441,0.492,1.122,0.5,2.042V35.758z M202.502,34.646c0-0.688-0.097-1.19-0.29-1.505
			c-0.193-0.315-0.499-0.473-0.919-0.473c-0.416,0-0.719,0.157-0.909,0.471s-0.288,0.795-0.294,1.445v1.301
			c0,0.691,0.1,1.202,0.301,1.531c0.2,0.33,0.504,0.494,0.912,0.494c0.4,0,0.699-0.154,0.895-0.465
			c0.193-0.311,0.296-0.801,0.305-1.469V34.646z"/>
		<path d="M208.37,35.758c0,0.952-0.163,1.659-0.488,2.122s-0.834,0.694-1.525,0.694c-0.682,0-1.188-0.227-1.516-0.679
			c-0.328-0.453-0.498-1.129-0.51-2.028v-1.086c0-0.939,0.162-1.639,0.488-2.096c0.324-0.457,0.834-0.686,1.529-0.686
			c0.688,0,1.195,0.221,1.52,0.661c0.326,0.441,0.492,1.122,0.502,2.042V35.758z M207.556,34.646c0-0.688-0.097-1.19-0.29-1.505
			c-0.193-0.315-0.5-0.473-0.918-0.473c-0.416,0-0.72,0.157-0.91,0.471s-0.289,0.795-0.295,1.445v1.301
			c0,0.691,0.101,1.202,0.301,1.531c0.201,0.33,0.506,0.494,0.912,0.494c0.402,0,0.699-0.154,0.895-0.465s0.297-0.801,0.306-1.469
			V34.646z"/>
		<path d="M186.387,51.758c0,0.952-0.162,1.659-0.487,2.122s-0.833,0.694-1.524,0.694c-0.684,0-1.188-0.227-1.517-0.679
			c-0.328-0.453-0.498-1.129-0.51-2.028v-1.086c0-0.939,0.163-1.639,0.487-2.096c0.326-0.457,0.836-0.686,1.529-0.686
			c0.689,0,1.195,0.221,1.521,0.661c0.324,0.441,0.492,1.122,0.5,2.042V51.758z M185.575,50.646c0-0.688-0.097-1.19-0.29-1.505
			c-0.193-0.315-0.499-0.473-0.919-0.473c-0.416,0-0.719,0.157-0.909,0.471s-0.288,0.795-0.294,1.445v1.301
			c0,0.691,0.1,1.202,0.301,1.531c0.2,0.33,0.504,0.494,0.912,0.494c0.4,0,0.699-0.154,0.895-0.465
			c0.193-0.311,0.296-0.801,0.305-1.469V50.646z"/>
	</g>
	<g>
		<g>
			<path d="M19.239,57.797h0.679c0.426-0.007,0.762-0.119,1.006-0.337s0.366-0.513,0.366-0.884c0-0.833-0.415-1.25-1.245-1.25
				c-0.391,0-0.702,0.111-0.935,0.334c-0.233,0.224-0.349,0.519-0.349,0.887h-0.903c0-0.563,0.206-1.031,0.618-1.404
				c0.412-0.372,0.935-0.559,1.57-0.559c0.67,0,1.196,0.178,1.577,0.532s0.571,0.848,0.571,1.479c0,0.31-0.1,0.608-0.3,0.898
				S21.42,58,21.075,58.144c0.391,0.124,0.692,0.329,0.906,0.615s0.32,0.637,0.32,1.05c0,0.638-0.208,1.145-0.625,1.519
				s-0.958,0.562-1.626,0.562s-1.21-0.181-1.628-0.542s-0.627-0.838-0.627-1.431h0.908c0,0.374,0.122,0.674,0.366,0.898
				s0.571,0.337,0.981,0.337c0.436,0,0.77-0.114,1.001-0.342s0.347-0.555,0.347-0.981c0-0.413-0.127-0.73-0.381-0.952
				s-0.62-0.335-1.099-0.342h-0.679V57.797z"/>
			<path d="M23.814,62.401h-0.776l2.969-7.72h0.771L23.814,62.401z"/>
			<path d="M30.631,61.791h-0.908v-6.021l-1.821,0.669v-0.82l2.588-0.972h0.142V61.791z"/>
		</g>
	</g>
	<g>
		<g>
			<path d="M62.745,54.677v0.767h-0.166c-0.703,0.013-1.263,0.222-1.68,0.625s-0.658,0.972-0.723,1.704
				c0.375-0.43,0.885-0.645,1.533-0.645c0.619,0,1.112,0.218,1.482,0.654s0.554,0.999,0.554,1.689c0,0.732-0.199,1.318-0.598,1.758
				s-0.934,0.659-1.604,0.659c-0.68,0-1.232-0.262-1.655-0.783c-0.423-0.523-0.635-1.196-0.635-2.02v-0.347
				c0-1.309,0.279-2.309,0.837-3.001c0.558-0.691,1.389-1.045,2.493-1.062H62.745z M61.558,57.88c-0.309,0-0.594,0.093-0.854,0.278
				s-0.441,0.418-0.542,0.698v0.332c0,0.586,0.132,1.058,0.396,1.416s0.592,0.537,0.986,0.537c0.407,0,0.727-0.149,0.959-0.449
				s0.349-0.691,0.349-1.177c0-0.488-0.118-0.883-0.354-1.184C62.262,58.03,61.949,57.88,61.558,57.88z"/>
			<path d="M65.088,62.401h-0.776l2.969-7.72h0.771L65.088,62.401z"/>
			<path d="M71.905,61.791h-0.908v-6.021l-1.821,0.669v-0.82l2.588-0.972h0.142V61.791z"/>
		</g>
	</g>
	<g>
		<g>
			<path d="M103.936,58.666c-0.189,0.225-0.414,0.405-0.676,0.542s-0.549,0.205-0.862,0.205c-0.41,0-0.768-0.101-1.072-0.303
				s-0.54-0.485-0.706-0.853c-0.166-0.365-0.249-0.771-0.249-1.213c0-0.476,0.09-0.903,0.271-1.284s0.437-0.672,0.769-0.874
				s0.719-0.303,1.162-0.303c0.703,0,1.257,0.263,1.663,0.789c0.405,0.525,0.608,1.242,0.608,2.15v0.264
				c0,1.384-0.273,2.394-0.82,3.029c-0.547,0.637-1.372,0.963-2.476,0.979h-0.176v-0.767h0.19c0.746-0.013,1.318-0.207,1.719-0.582
				S103.9,59.479,103.936,58.666z M102.544,58.666c0.303,0,0.582-0.093,0.837-0.278s0.442-0.415,0.559-0.688v-0.361
				c0-0.593-0.128-1.074-0.386-1.445s-0.583-0.557-0.977-0.557c-0.397,0-0.716,0.152-0.957,0.457
				c-0.241,0.304-0.361,0.705-0.361,1.203c0,0.485,0.116,0.885,0.349,1.199C101.842,58.509,102.153,58.666,102.544,58.666z"/>
			<path d="M106.362,62.401h-0.776l2.969-7.72h0.772L106.362,62.401z"/>
			<path d="M113.178,61.791h-0.908v-6.021l-1.82,0.669v-0.82l2.588-0.972h0.141V61.791z"/>
		</g>
	</g>
	<g>
		<line fill="none" stroke="#0228CC" stroke-width="5" stroke-miterlimit="10" x1="107.558" y1="50.291" x2="107.558" y2="42.82"/>
	</g>
	<g>
		<g>
			<path d="M141.909,61.791H141v-6.021l-1.822,0.669v-0.82l2.588-0.972h0.143V61.791z"/>
			<path d="M149.213,61.791h-4.658v-0.649l2.461-2.734c0.364-0.413,0.615-0.749,0.754-1.009c0.139-0.258,0.207-0.526,0.207-0.803
				c0-0.371-0.111-0.676-0.336-0.913s-0.524-0.356-0.898-0.356c-0.449,0-0.799,0.128-1.048,0.383
				c-0.249,0.256-0.374,0.611-0.374,1.067h-0.902c0-0.654,0.211-1.184,0.632-1.587s0.985-0.605,1.692-0.605
				c0.66,0,1.183,0.174,1.566,0.52c0.385,0.348,0.576,0.809,0.576,1.385c0,0.7-0.445,1.533-1.338,2.5l-1.904,2.065h3.57V61.791z"/>
			<path d="M150.444,62.401h-0.777l2.969-7.72h0.771L150.444,62.401z"/>
			<path d="M157.26,61.791h-0.908v-6.021l-1.822,0.669v-0.82l2.588-0.972h0.143V61.791z"/>
		</g>
	</g>
	<line fill="none" stroke="#0228CC" stroke-width="5" stroke-miterlimit="10" x1="148.832" y1="50.291" x2="148.832" y2="6.486"/>
	<g>
		
			<line fill="none" stroke="#0228CC" stroke-width="4.5387" stroke-miterlimit="10" x1="66.285" y1="50.291" x2="66.285" y2="48.12"/>
	</g>
</g>
<g>
	<path fill="none" stroke="#E84830" stroke-width="1.5" stroke-miterlimit="10" d="M141.895,8.813
		C135.994,40.334,85.23,48.788,25.011,49.685"/>
</g>
</svg>
