<?xml version="1.0" encoding="utf-8"?>
<!-- Generator: Adobe Illustrator 16.0.0, SVG Export Plug-In . SVG Version: 6.00 Build 0)  -->
<!DOCTYPE svg PUBLIC "-//W3C//DTD SVG 1.1//EN" "http://www.w3.org/Graphics/SVG/1.1/DTD/svg11.dtd">
<svg version="1.1" id="Layer_1" xmlns="http://www.w3.org/2000/svg" xmlns:xlink="http://www.w3.org/1999/xlink" x="0px" y="0px"
	 width="108.088px" height="114.157px" viewBox="0 0 108.088 114.157" enable-background="new 0 0 108.088 114.157"
	 xml:space="preserve">
<g>
	<g>
		<path fill="#D85B55" d="M101.775,105.932c0,1.908-1.563,3.471-3.471,3.471H3.699c-1.908,0-3.471-1.563-3.471-3.471V44.077
			c0-1.909,1.563-3.471,3.471-3.471h94.605c1.908,0,3.471,1.562,3.471,3.471V105.932z"/>
	</g>
	<g>
		<g>
			
				<rect x="3.361" y="24.974" transform="matrix(0.5147 -0.8574 0.8574 0.5147 -17.5245 59.764)" fill="#84BE8D" width="81.338" height="40.777"/>
		</g>
		<g>
			<g>
				<path fill="#F6F6F6" d="M68.018,17.954l-11.074-6.647c-2.971,3.747-8.213,4.917-12.52,2.712L16.553,60.445
					c3.971,2.765,5.402,7.941,3.49,12.325l11.074,6.647c2.971-3.747,8.213-4.917,12.52-2.712l27.871-46.428
					C67.537,27.515,66.105,22.337,68.018,17.954z"/>
			</g>
		</g>
		<g>
			<circle fill="#84BE8D" cx="44.03" cy="45.362" r="14.247"/>
		</g>
		<g>
			<g>
				<path fill="#F6F6F6" d="M53.537,50.344l-0.586,0.976l-2.004-1.202c-0.941,1.234-1.822,2.047-2.643,2.44
					c-1.461,0.685-3.113,0.458-4.961-0.679l1.631-2.718c0.902,0.414,1.549,0.624,1.938,0.629c0.607,0.008,1.207-0.33,1.801-1.015
					l-4.299-2.581l-0.73,0.671c-1.146,1.056-2.213,1.646-3.201,1.771c-0.986,0.124-1.953-0.099-2.9-0.666
					c-0.623-0.375-1.129-0.818-1.516-1.329c-0.389-0.51-0.656-1.062-0.803-1.652c-0.189-0.763-0.201-1.491-0.031-2.184
					c0.098-0.424,0.328-0.994,0.686-1.712l-1.34-0.803l0.586-0.977l1.359,0.815c0.74-1.036,1.523-1.729,2.346-2.082
					c1.396-0.697,2.912-0.582,4.545,0.344l-1.588,2.648c-0.631-0.306-1.125-0.469-1.488-0.487c-0.629-0.034-1.164,0.267-1.609,0.9
					l3.836,2.304c1.504-1.26,2.633-2.037,3.385-2.332c1.246-0.478,2.51-0.333,3.793,0.438c1.691,1.015,2.547,2.373,2.566,4.074
					c0.014,1.04-0.25,2.104-0.793,3.193L53.537,50.344z M38.162,42.441c-0.336,0.592-0.441,1.119-0.311,1.579
					c0.129,0.461,0.451,0.848,0.969,1.158c0.563,0.338,1.137,0.395,1.719,0.169c0.322-0.126,0.709-0.388,1.156-0.785L38.162,42.441z
					 M49.27,47.78c0.248-0.564,0.355-1.018,0.324-1.361c-0.059-0.604-0.467-1.133-1.225-1.589c-0.578-0.346-1.15-0.425-1.721-0.234
					c-0.334,0.115-0.771,0.389-1.316,0.822L49.27,47.78z"/>
			</g>
		</g>
	</g>
	<g>
		<g>
			
				<rect x="20.47" y="29.531" transform="matrix(0.8029 -0.5961 0.5961 0.8029 -17.7072 46.2835)" fill="#84BE8D" width="81.337" height="40.777"/>
		</g>
		<g>
			<g>
				<path fill="#F6F6F6" d="M93.77,33.738l-7.699-10.37c-4.176,2.33-9.469,1.411-12.607-2.271L29.984,53.377
					c2.615,4.07,1.963,9.402-1.475,12.725l7.699,10.37c4.176-2.331,9.467-1.412,12.605,2.27l43.479-32.279
					C89.678,42.393,90.33,37.061,93.77,33.738z"/>
			</g>
		</g>
		<g>
			<path fill="#84BE8D" d="M72.578,41.427c4.691,6.318,3.371,15.242-2.945,19.932c-6.318,4.69-15.242,3.371-19.932-2.946
				c-4.691-6.318-3.371-15.242,2.947-19.933C58.963,33.791,67.889,35.109,72.578,41.427z"/>
		</g>
		<g>
			<g>
				<path fill="#F6F6F6" d="M68.025,58.151l-0.914,0.679l-1.393-1.876c-1.342,0.782-2.467,1.197-3.373,1.248
					c-1.611,0.075-3.055-0.766-4.328-2.521l2.547-1.89c0.674,0.727,1.189,1.167,1.549,1.32c0.559,0.239,1.242,0.155,2.053-0.251
					l-2.99-4.025l-0.93,0.341c-1.463,0.539-2.674,0.678-3.635,0.415c-0.959-0.263-1.77-0.836-2.428-1.723
					c-0.432-0.585-0.73-1.187-0.895-1.807c-0.162-0.62-0.199-1.23-0.109-1.834c0.113-0.777,0.383-1.455,0.803-2.03
					c0.254-0.354,0.682-0.794,1.287-1.32l-0.932-1.254l0.914-0.679l0.945,1.272c1.08-0.676,2.068-1.018,2.963-1.029
					c1.557-0.112,2.914,0.572,4.07,2.053l-2.479,1.841c-0.467-0.522-0.861-0.862-1.191-1.019c-0.566-0.271-1.178-0.197-1.83,0.219
					l2.666,3.593c1.871-0.591,3.213-0.878,4.02-0.863c1.334,0.033,2.447,0.65,3.338,1.851c1.178,1.584,1.449,3.165,0.818,4.745
					c-0.383,0.968-1.035,1.851-1.953,2.649L68.025,58.151z M56.83,44.98c-0.537,0.419-0.834,0.866-0.891,1.341
					c-0.057,0.476,0.094,0.956,0.453,1.44c0.393,0.527,0.902,0.799,1.525,0.813c0.346,0.007,0.803-0.088,1.369-0.284L56.83,44.98z
					 M65.059,54.154c0.445-0.428,0.719-0.807,0.82-1.135c0.176-0.58,0.002-1.226-0.525-1.936c-0.402-0.541-0.902-0.832-1.502-0.874
					c-0.354-0.021-0.863,0.064-1.529,0.258L65.059,54.154z"/>
			</g>
		</g>
	</g>
	<g>
		<g>
			<path fill="#5EBDCF" d="M85.867,58.049c0.793,1.192,0.467,2.817-0.727,3.609l-56.68,37.661c-1.193,0.793-2.818,0.466-3.611-0.728
				L2.234,64.557c-0.793-1.193-0.465-2.818,0.729-3.61l56.68-37.661c1.191-0.793,2.816-0.466,3.609,0.728L85.867,58.049z"/>
		</g>
		<g>
			<path fill="#F5CF21" d="M33.057,68.218c0.793,1.193,0.465,2.818-0.727,3.61l-9.223,6.127c-1.193,0.793-2.816,0.465-3.609-0.728
				L14,68.952c-0.793-1.193-0.467-2.817,0.727-3.61l9.221-6.127c1.193-0.793,2.816-0.466,3.609,0.728L33.057,68.218z"/>
		</g>
		<g>
			<defs>
				<path id="SVGID_1_" d="M85.867,58.049c0.793,1.192,0.467,2.816-0.727,3.609l-56.68,37.661c-1.193,0.793-2.818,0.466-3.611-0.728
					L2.234,64.557c-0.793-1.194-0.465-2.817,0.729-3.61l56.68-37.662c1.193-0.792,2.816-0.465,3.609,0.729L85.867,58.049z"/>
			</defs>
			<clipPath id="SVGID_2_">
				<use xlink:href="#SVGID_1_"  overflow="visible"/>
			</clipPath>
			<g clip-path="url(#SVGID_2_)">
				<g>
					<circle fill="#42A6B2" cx="79.918" cy="49.095" r="44.266"/>
				</g>
				<g>
					<path fill="#8AD1F0" d="M111.854,78.991c-11.609,7.714-30.596,6.553-47.248-2.89c-10.42-5.907-18.646-14.248-23.166-23.484
						c-4.566-9.333-4.816-18.473-0.697-25.734c1.736-3.061,4.172-5.646,7.24-7.686c11.609-7.714,30.598-6.553,47.248,2.891
						c21.604,12.247,32.307,34.327,23.863,49.22C117.357,74.367,114.922,76.953,111.854,78.991z M48.834,20.477
						c-2.867,1.904-5.139,4.314-6.754,7.162c-3.861,6.809-3.598,15.439,0.74,24.305c4.385,8.96,12.391,17.065,22.543,22.821
						c16.16,9.164,34.5,10.349,45.639,2.948c2.867-1.906,5.139-4.314,6.754-7.163c8.027-14.155-2.418-35.296-23.283-47.126
						C78.314,14.26,59.971,13.076,48.834,20.477z"/>
				</g>
				<g>
					<path fill="#8AD1F0" d="M117.227,73.631c-6.959,4.624-25.928,0.088-45.105-10.786C61.744,56.96,52.742,50.065,46.773,43.433
						c-6.213-6.905-8.432-12.826-6.25-16.675c0.49-0.865,1.193-1.605,2.088-2.2c6.959-4.624,25.928-0.087,45.104,10.787
						c22.09,12.525,35.969,28.377,31.598,36.088C118.822,72.298,118.119,73.037,117.227,73.631z M43.74,26.257
						c-0.625,0.415-1.109,0.923-1.441,1.508c-1.691,2.979,0.494,8.193,5.99,14.304c5.826,6.474,14.646,13.222,24.84,19.001
						c18.246,10.346,36.717,15.016,42.967,10.862c0.625-0.415,1.109-0.921,1.443-1.505c3.275-5.784-8.328-20.548-30.832-33.307
						C68.463,26.773,49.99,22.104,43.74,26.257z"/>
				</g>
				<g>
					<path fill="#8AD1F0" d="M88.557,84.628c-10.746,7.141-22.279,8.503-30.854,3.642c-14.891-8.444-17.041-32.89-4.793-54.488
						c4.77-8.414,11.121-15.406,18.369-20.221C82.025,6.42,93.559,5.06,102.131,9.92c7.262,4.118,11.742,12.088,12.617,22.441
						c0.863,10.247-1.914,21.627-7.822,32.046C102.156,72.821,95.805,79.813,88.557,84.628z M72.129,14.841
						C65.082,19.522,58.9,26.333,54.248,34.538c-11.832,20.863-9.939,44.368,4.215,52.396c8.057,4.568,18.99,3.229,29.244-3.585
						c7.047-4.683,13.229-11.494,17.883-19.698c5.754-10.152,8.463-21.219,7.627-31.159c-0.83-9.833-5.035-17.375-11.844-21.235
						C93.316,6.687,82.383,8.027,72.129,14.841z"/>
				</g>
				<g>
					<path fill="#8AD1F0" d="M68.898,86.178c-4.629,3.076-8.541,3.871-11.313,2.3c-7.533-4.271-3.625-24.915,8.898-46.999
						c7.531-13.283,16.672-24.3,24.453-29.469c4.629-3.075,8.539-3.871,11.309-2.3c7.535,4.271,3.625,24.917-8.896,47.001
						C85.818,69.993,76.678,81.009,68.898,86.178z M92.053,13.688c-7.529,5.003-16.432,15.763-23.814,28.784
						C55.477,64.981,52.939,83.525,58.58,86.724c2.611,1.48,6.445-0.393,9.203-2.225c7.527-5.003,16.43-15.763,23.813-28.782
						c12.764-22.51,15.297-41.055,9.656-44.253C98.645,9.983,94.811,11.857,92.053,13.688z"/>
				</g>
				<g>
					
						<rect x="35.693" y="47.915" transform="matrix(0.8699 0.4932 -0.4932 0.8699 34.4981 -32.9131)" fill="#8AD1F0" width="87.888" height="2.041"/>
				</g>
				<g>
					
						<rect x="78.616" y="4.993" transform="matrix(0.8699 0.4933 -0.4933 0.8699 34.5043 -32.9163)" fill="#8AD1F0" width="2.041" height="87.886"/>
				</g>
			</g>
		</g>
		<g>
			<path fill="#445B70" d="M23.57,86.819c0.611-0.405,0.551-0.79,0.449-1.208l0.529-0.353l3.338,5.021l-0.789,0.524l-2.545-3.83
				l-0.609,0.405L23.57,86.819z"/>
			<path fill="#445B70" d="M27.098,84.518c-0.252,0.167-0.318,0.408-0.08,0.767l0.357,0.538l-0.746,0.495l-0.324-0.487
				c-0.533-0.804-0.438-1.53,0.336-2.044c0.775-0.515,1.482-0.322,2.016,0.48c1.098,1.65-0.24,3.355,0.496,4.139l1.492-0.992
				l0.477,0.718l-2.281,1.515l-0.41-0.617c-0.982-1.478,0.42-2.759-0.543-4.208C27.586,84.368,27.35,84.351,27.098,84.518z"/>
			<path fill="#445B70" d="M30.684,82.962c-0.301-0.452-0.537-0.47-0.789-0.303s-0.318,0.408-0.08,0.767l0.213,0.323l-0.744,0.495
				l-0.182-0.272c-0.533-0.804-0.438-1.529,0.336-2.044c0.775-0.515,1.482-0.322,2.016,0.48l0.086,0.13
				c0.357,0.538,0.41,0.988,0.135,1.399c0.508-0.09,0.914,0.178,1.252,0.688l0.262,0.395c0.535,0.803,0.438,1.529-0.336,2.044
				c-0.775,0.515-1.48,0.322-2.014-0.48l-0.277-0.417l0.744-0.494l0.311,0.466c0.238,0.358,0.486,0.389,0.736,0.223
				c0.252-0.167,0.33-0.394,0.035-0.838l-0.264-0.395c-0.311-0.466-0.582-0.534-0.939-0.296l-0.268,0.177l-0.477-0.717l0.309-0.206
				c0.295-0.195,0.389-0.442,0.121-0.845L30.684,82.962z"/>
			<path fill="#445B70" d="M33.25,84.369l-0.818-4.347l0.861-0.572l2.254,3.394l0.373-0.248l0.475,0.717l-0.371,0.248l0.604,0.911
				l-0.789,0.524l-0.604-0.911l-1.508,1.001L33.25,84.369z M34.756,83.368l-1.234-1.859l0.453,2.378L34.756,83.368z"/>
			<path fill="#445B70" d="M39.215,80.415l0.309,0.467c0.24,0.358,0.482,0.384,0.734,0.217c0.25-0.167,0.322-0.401,0.084-0.761
				l-0.734-1.104c-0.238-0.359-0.486-0.391-0.736-0.224c-0.252,0.166-0.318,0.408-0.08,0.767l0.1,0.15l-0.746,0.496l-1.791-3.008
				l2.08-1.382l0.477,0.717l-1.371,0.91l0.732,1.241c-0.016-0.332,0.131-0.614,0.445-0.823c0.58-0.386,1.146-0.173,1.637,0.566
				l0.744,1.118c0.535,0.805,0.438,1.53-0.338,2.044c-0.773,0.516-1.48,0.323-2.016-0.48l-0.275-0.416L39.215,80.415z"/>
			<path fill="#445B70" d="M39.865,76.882c-0.564-0.846-0.48-1.563,0.336-2.105c0.775-0.516,1.482-0.323,2.016,0.48l0.086,0.129
				l-0.746,0.496l-0.119-0.18c-0.238-0.358-0.486-0.39-0.738-0.224c-0.279,0.187-0.346,0.427-0.027,0.908l0.609,0.918
				c-0.053-0.378,0.086-0.697,0.438-0.932c0.58-0.386,1.146-0.172,1.637,0.566l0.611,0.919c0.533,0.803,0.416,1.544-0.359,2.059
				s-1.504,0.337-2.037-0.467L39.865,76.882z M41.793,78.072l0.602,0.903c0.238,0.359,0.48,0.383,0.73,0.217
				c0.252-0.166,0.324-0.401,0.086-0.76l-0.6-0.904c-0.24-0.358-0.488-0.39-0.74-0.222C41.621,77.473,41.555,77.714,41.793,78.072z"
				/>
			<path fill="#445B70" d="M44.242,72.174l0.457,0.689l1.717,5.104l-0.789,0.523l-1.703-5.071l-1.572,1.045l-0.477-0.718
				L44.242,72.174z"/>
			<path fill="#445B70" d="M49.271,76.152c-0.797,0.529-1.539,0.361-2.072-0.442l-0.262-0.395c-0.318-0.48-0.424-0.948-0.209-1.372
				c-0.449,0.04-0.83-0.191-1.158-0.687l-0.105-0.158c-0.533-0.803-0.402-1.553,0.395-2.082c0.795-0.529,1.539-0.36,2.072,0.443
				l0.104,0.157c0.33,0.496,0.389,0.941,0.186,1.335c0.473-0.034,0.865,0.243,1.184,0.724l0.262,0.395
				C50.201,74.874,50.068,75.623,49.271,76.152z M46.459,72.883c0.266,0.401,0.537,0.407,0.797,0.235
				c0.252-0.167,0.359-0.425,0.094-0.826l-0.188-0.279c-0.299-0.452-0.574-0.445-0.826-0.279c-0.252,0.168-0.363,0.418-0.063,0.87
				L46.459,72.883z M48.795,75.435c0.252-0.166,0.357-0.412,0.068-0.861l-0.309-0.467c-0.262-0.394-0.543-0.457-0.822-0.271
				c-0.281,0.186-0.33,0.467-0.068,0.861l0.311,0.467C48.27,75.608,48.545,75.603,48.795,75.435z"/>
			<path fill="#445B70" d="M50.563,69.711c-0.533-0.803-0.416-1.544,0.359-2.058c0.773-0.515,1.502-0.337,2.037,0.466l1.734,2.611
				c0.533,0.804,0.416,1.544-0.359,2.059c-0.773,0.515-1.502,0.337-2.037-0.467L50.563,69.711z M53.121,71.848
				c0.238,0.359,0.486,0.391,0.736,0.224s0.318-0.407,0.08-0.767l-1.801-2.711c-0.238-0.359-0.486-0.391-0.738-0.223
				c-0.25,0.166-0.318,0.406-0.078,0.765L53.121,71.848z"/>
			<path fill="#445B70" d="M57.492,68.81c0.561,0.847,0.48,1.563-0.338,2.106c-0.775,0.514-1.482,0.323-2.018-0.48l-0.086-0.129
				l0.748-0.496l0.119,0.179c0.238,0.358,0.486,0.391,0.736,0.224c0.279-0.186,0.348-0.427,0.027-0.907l-0.609-0.919
				c0.055,0.378-0.084,0.697-0.436,0.932c-0.582,0.386-1.146,0.173-1.639-0.566l-0.609-0.919c-0.533-0.803-0.416-1.543,0.359-2.058
				s1.504-0.337,2.037,0.466L57.492,68.81z M55.563,67.619l-0.602-0.903c-0.238-0.359-0.482-0.382-0.732-0.216
				c-0.25,0.167-0.324,0.4-0.084,0.76l0.6,0.903c0.238,0.359,0.488,0.391,0.738,0.224S55.801,67.979,55.563,67.619z"/>
			<path fill="#445B70" d="M56.414,64.996c0.609-0.405,0.551-0.79,0.449-1.208l0.529-0.353l3.338,5.021l-0.789,0.524l-2.545-3.83
				l-0.611,0.404L56.414,64.996z"/>
			<path fill="#445B70" d="M59.082,64.051c-0.535-0.804-0.416-1.544,0.357-2.059c0.775-0.515,1.504-0.337,2.039,0.466l1.734,2.611
				c0.533,0.804,0.416,1.544-0.359,2.06c-0.773,0.514-1.502,0.337-2.037-0.467L59.082,64.051z M61.639,66.188
				c0.238,0.359,0.486,0.391,0.736,0.224c0.254-0.168,0.32-0.408,0.082-0.767l-1.803-2.711c-0.238-0.359-0.486-0.391-0.736-0.223
				c-0.252,0.166-0.318,0.406-0.08,0.765L61.639,66.188z"/>
			<path fill="#445B70" d="M64.316,59.745c0.609-0.404,0.551-0.789,0.449-1.207l0.529-0.354l3.338,5.021l-0.791,0.524l-2.543-3.831
				l-0.611,0.406L64.316,59.745z"/>
			<path fill="#445B70" d="M67.154,57.859c0.611-0.406,0.551-0.79,0.449-1.209l0.531-0.353l3.336,5.021l-0.787,0.524l-2.547-3.831
				l-0.609,0.406L67.154,57.859z"/>
			<path fill="#445B70" d="M69.996,55.972c0.609-0.405,0.551-0.789,0.447-1.207l0.531-0.354l3.338,5.021l-0.791,0.523l-2.545-3.83
				l-0.609,0.406L69.996,55.972z"/>
			<path fill="#445B70" d="M73.521,53.671c-0.25,0.166-0.318,0.407-0.08,0.766l0.357,0.539l-0.746,0.495l-0.324-0.487
				c-0.533-0.804-0.438-1.529,0.338-2.045c0.775-0.515,1.482-0.322,2.016,0.481c1.096,1.649-0.242,3.355,0.494,4.138l1.492-0.991
				l0.479,0.717l-2.283,1.516l-0.41-0.617c-0.98-1.477,0.422-2.761-0.541-4.209C74.01,53.521,73.771,53.504,73.521,53.671z"/>
		</g>
	</g>
	<g>
		<path fill="#EA5C59" d="M101.545,110.688c0,1.908-1.561,3.47-3.471,3.47H3.471c-1.91,0-3.471-1.562-3.471-3.47V48.833
			c0-1.909,1.561-3.471,3.471-3.471h94.604c1.91,0,3.471,1.562,3.471,3.471V110.688z"/>
	</g>
	<g>
		<g>
			<polygon fill="#445B70" points="94.891,109.456 91.854,109.456 91.854,106.854 92.287,106.854 92.287,106.419 94.891,106.419 			
				"/>
		</g>
		<g>
			<path fill="#445B70" d="M88.281,109.456h-3.572v-2.603h3.572V109.456z M81.137,109.456h-3.572v-2.603h3.572V109.456z
				 M73.992,109.456H70.42v-2.603h3.572V109.456z M66.848,109.456h-3.572v-2.603h3.572V109.456z M59.703,109.456h-3.572v-2.603
				h3.572V109.456z M52.559,109.456h-3.572v-2.603h3.572V109.456z M45.414,109.456h-3.572v-2.603h3.572V109.456z M38.27,109.456
				h-3.572v-2.603h3.572V109.456z M31.125,109.456h-3.572v-2.603h3.572V109.456z M23.98,109.456h-3.572v-2.603h3.572V109.456z
				 M16.836,109.456h-3.572v-2.603h3.572V109.456z"/>
		</g>
		<g>
			<polygon fill="#445B70" points="9.691,109.456 6.654,109.456 6.654,106.419 9.258,106.419 9.258,106.854 9.691,106.854 			"/>
		</g>
		<g>
			<path fill="#445B70" d="M9.258,102.864H6.654V99.31h2.604V102.864z M9.258,95.756H6.654v-3.555h2.604V95.756z M9.258,88.646
				H6.654v-3.555h2.604V88.646z M9.258,81.537H6.654v-3.555h2.604V81.537z M9.258,74.428H6.654v-3.555h2.604V74.428z M9.258,67.318
				H6.654v-3.555h2.604V67.318z M9.258,60.209H6.654v-3.555h2.604V60.209z"/>
		</g>
		<g>
			<polygon fill="#445B70" points="9.258,53.101 6.654,53.101 6.654,50.063 9.691,50.063 9.691,52.667 9.258,52.667 			"/>
		</g>
		<g>
			<path fill="#445B70" d="M88.281,52.667h-3.572v-2.604h3.572V52.667z M81.137,52.667h-3.572v-2.604h3.572V52.667z M73.992,52.667
				H70.42v-2.604h3.572V52.667z M66.848,52.667h-3.572v-2.604h3.572V52.667z M59.703,52.667h-3.572v-2.604h3.572V52.667z
				 M52.559,52.667h-3.572v-2.604h3.572V52.667z M45.414,52.667h-3.572v-2.604h3.572V52.667z M38.27,52.667h-3.572v-2.604h3.572
				V52.667z M31.125,52.667h-3.572v-2.604h3.572V52.667z M23.98,52.667h-3.572v-2.604h3.572V52.667z M16.836,52.667h-3.572v-2.604
				h3.572V52.667z"/>
		</g>
		<g>
			<polygon fill="#445B70" points="94.891,53.101 92.287,53.101 92.287,52.667 91.854,52.667 91.854,50.063 94.891,50.063 			"/>
		</g>
		<g>
			<path fill="#445B70" d="M94.891,102.865h-2.604v-3.555h2.604V102.865z M94.891,95.756h-2.604v-3.555h2.604V95.756z
				 M94.891,88.646h-2.604v-3.555h2.604V88.646z M94.891,81.537h-2.604v-3.555h2.604V81.537z M94.891,74.428h-2.604v-3.555h2.604
				V74.428z M94.891,67.318h-2.604v-3.555h2.604V67.318z M94.891,60.21h-2.604v-3.555h2.604V60.21z"/>
		</g>
	</g>
	<g>
		<path fill="#D85B55" d="M108.088,87.254c0,1.908-1.561,3.471-3.471,3.471H82.559c-1.908,0-3.471-1.563-3.471-3.471V72.266
			c0-1.908,1.563-3.47,3.471-3.47h22.059c1.91,0,3.471,1.562,3.471,3.47V87.254z"/>
	</g>
	<g>
		<circle fill="#F5CF21" cx="88.913" cy="79.76" r="5.755"/>
	</g>
</g>
</svg>
