<?xml version="1.0" encoding="utf-8"?>
<!-- Generator: Adobe Illustrator 16.0.0, SVG Export Plug-In . SVG Version: 6.00 Build 0)  -->
<!DOCTYPE svg PUBLIC "-//W3C//DTD SVG 1.1//EN" "http://www.w3.org/Graphics/SVG/1.1/DTD/svg11.dtd">
<svg version="1.1" id="レイヤー_1" xmlns="http://www.w3.org/2000/svg" xmlns:xlink="http://www.w3.org/1999/xlink" x="0px"
	 y="0px" width="213.423px" height="78.369px" viewBox="0 0 213.423 78.369" enable-background="new 0 0 213.423 78.369"
	 xml:space="preserve">
<g>
	<g>
		<line fill="none" stroke="#C8C8C8" stroke-width="0.3" stroke-miterlimit="10" x1="0" y1="66.263" x2="175.842" y2="66.263"/>
		<line fill="none" stroke="#C8C8C8" stroke-width="0.3" stroke-miterlimit="10" x1="0" y1="50.646" x2="175.842" y2="50.646"/>
		<line fill="none" stroke="#C8C8C8" stroke-width="0.3" stroke-miterlimit="10" x1="0" y1="35.031" x2="175.842" y2="35.031"/>
		<line fill="none" stroke="#C8C8C8" stroke-width="0.3" stroke-miterlimit="10" x1="0" y1="19.415" x2="175.842" y2="19.415"/>
		<line fill="none" stroke="#C8C8C8" stroke-width="0.3" stroke-miterlimit="10" x1="0" y1="3.799" x2="175.842" y2="3.799"/>
	</g>
	<g>
		<path d="M185.047,6.486h-0.817V1.068l-1.639,0.602V0.932l2.328-0.875h0.128V6.486z"/>
		<path d="M190.619,0.084v0.689h-0.149c-0.633,0.012-1.137,0.199-1.512,0.563s-0.592,0.875-0.65,1.533
			c0.337-0.387,0.797-0.58,1.38-0.58c0.557,0,1.001,0.197,1.333,0.59c0.333,0.393,0.5,0.899,0.5,1.52c0,0.66-0.18,1.188-0.539,1.582
			c-0.359,0.396-0.84,0.594-1.443,0.594c-0.612,0-1.109-0.235-1.49-0.705c-0.381-0.471-0.57-1.076-0.57-1.817V3.74
			c0-1.178,0.25-2.078,0.754-2.701c0.502-0.622,1.25-0.94,2.242-0.955H190.619z M189.552,2.967c-0.279,0-0.535,0.083-0.77,0.25
			s-0.396,0.377-0.488,0.629v0.299c0,0.527,0.119,0.952,0.356,1.273c0.237,0.323,0.533,0.484,0.888,0.484
			c0.366,0,0.654-0.135,0.863-0.404s0.314-0.623,0.314-1.06c0-0.439-0.106-0.795-0.318-1.065
			C190.185,3.102,189.903,2.967,189.552,2.967z"/>
		<path d="M196.495,3.758c0,0.952-0.163,1.659-0.488,2.122s-0.834,0.694-1.525,0.694c-0.682,0-1.188-0.227-1.516-0.679
			c-0.328-0.453-0.498-1.129-0.51-2.028V2.781c0-0.939,0.162-1.639,0.488-2.096C193.269,0.229,193.778,0,194.474,0
			c0.688,0,1.195,0.221,1.52,0.661c0.326,0.441,0.492,1.122,0.502,2.042V3.758z M195.682,2.646c0-0.688-0.097-1.19-0.29-1.505
			c-0.193-0.315-0.5-0.473-0.918-0.473c-0.416,0-0.72,0.157-0.91,0.471s-0.289,0.795-0.295,1.445v1.301
			c0,0.691,0.101,1.202,0.301,1.531c0.201,0.33,0.506,0.494,0.912,0.494c0.402,0,0.699-0.154,0.895-0.465s0.297-0.801,0.306-1.469
			V2.646z"/>
		<path d="M197.593,7.761l-0.461-0.316c0.275-0.384,0.419-0.779,0.431-1.187V5.523h0.796v0.638c0,0.296-0.072,0.592-0.219,0.888
			C197.995,7.345,197.813,7.582,197.593,7.761z"/>
		<path d="M203.315,3.758c0,0.952-0.163,1.659-0.488,2.122s-0.834,0.694-1.525,0.694c-0.682,0-1.188-0.227-1.516-0.679
			c-0.328-0.453-0.498-1.129-0.51-2.028V2.781c0-0.939,0.162-1.639,0.488-2.096C200.089,0.229,200.599,0,201.294,0
			c0.688,0,1.195,0.221,1.52,0.661c0.326,0.441,0.492,1.122,0.502,2.042V3.758z M202.502,2.646c0-0.688-0.097-1.19-0.29-1.505
			c-0.193-0.315-0.5-0.473-0.918-0.473c-0.416,0-0.72,0.157-0.91,0.471s-0.289,0.795-0.295,1.445v1.301
			c0,0.691,0.101,1.202,0.301,1.531c0.201,0.33,0.506,0.494,0.912,0.494c0.402,0,0.699-0.154,0.895-0.465s0.297-0.801,0.306-1.469
			V2.646z"/>
		<path d="M208.368,3.758c0,0.952-0.162,1.659-0.487,2.122s-0.833,0.694-1.524,0.694c-0.684,0-1.188-0.227-1.517-0.679
			c-0.328-0.453-0.498-1.129-0.51-2.028V2.781c0-0.939,0.163-1.639,0.487-2.096C205.144,0.229,205.653,0,206.347,0
			c0.689,0,1.195,0.221,1.521,0.661c0.324,0.441,0.492,1.122,0.5,2.042V3.758z M207.556,2.646c0-0.688-0.097-1.19-0.29-1.505
			c-0.193-0.315-0.499-0.473-0.919-0.473c-0.416,0-0.719,0.157-0.909,0.471s-0.288,0.795-0.294,1.445v1.301
			c0,0.691,0.1,1.202,0.301,1.531c0.2,0.33,0.504,0.494,0.912,0.494c0.4,0,0.699-0.154,0.895-0.465
			c0.193-0.311,0.296-0.801,0.305-1.469V2.646z"/>
		<path d="M213.423,3.758c0,0.952-0.163,1.659-0.488,2.122s-0.834,0.694-1.525,0.694c-0.682,0-1.188-0.227-1.516-0.679
			c-0.328-0.453-0.498-1.129-0.51-2.028V2.781c0-0.939,0.162-1.639,0.488-2.096C210.196,0.229,210.706,0,211.401,0
			c0.688,0,1.195,0.221,1.52,0.661c0.326,0.441,0.492,1.122,0.502,2.042V3.758z M212.609,2.646c0-0.688-0.097-1.19-0.29-1.505
			c-0.193-0.315-0.5-0.473-0.918-0.473c-0.416,0-0.72,0.157-0.91,0.471s-0.289,0.795-0.295,1.445v1.301
			c0,0.691,0.101,1.202,0.301,1.531c0.201,0.33,0.506,0.494,0.912,0.494c0.402,0,0.699-0.154,0.895-0.465s0.297-0.801,0.306-1.469
			V2.646z"/>
		<path d="M185.047,22.486h-0.817v-5.418l-1.639,0.602v-0.738l2.328-0.875h0.128V22.486z"/>
		<path d="M191.621,22.486h-4.192v-0.584l2.215-2.461c0.328-0.372,0.555-0.675,0.68-0.908c0.123-0.232,0.186-0.474,0.186-0.723
			c0-0.334-0.101-0.607-0.303-0.822c-0.202-0.213-0.472-0.32-0.809-0.32c-0.404,0-0.719,0.115-0.943,0.345
			c-0.223,0.23-0.336,0.551-0.336,0.96h-0.813c0-0.588,0.189-1.064,0.568-1.428c0.38-0.363,0.888-0.545,1.523-0.545
			c0.595,0,1.064,0.156,1.41,0.468c0.346,0.313,0.52,0.728,0.52,1.246c0,0.63-0.402,1.38-1.205,2.25l-1.713,1.858h3.212V22.486z"/>
		<path d="M196.495,19.758c0,0.952-0.163,1.659-0.488,2.122s-0.834,0.694-1.525,0.694c-0.682,0-1.188-0.227-1.516-0.679
			c-0.328-0.453-0.498-1.129-0.51-2.028v-1.086c0-0.939,0.162-1.639,0.488-2.096c0.324-0.457,0.834-0.686,1.529-0.686
			c0.688,0,1.195,0.221,1.52,0.661c0.326,0.441,0.492,1.122,0.502,2.042V19.758z M195.682,18.646c0-0.688-0.097-1.19-0.29-1.505
			c-0.193-0.315-0.5-0.473-0.918-0.473c-0.416,0-0.72,0.157-0.91,0.471s-0.289,0.795-0.295,1.445v1.301
			c0,0.691,0.101,1.202,0.301,1.531c0.201,0.33,0.506,0.494,0.912,0.494c0.402,0,0.699-0.154,0.895-0.465s0.297-0.801,0.306-1.469
			V18.646z"/>
		<path d="M197.593,23.761l-0.461-0.316c0.275-0.384,0.419-0.779,0.431-1.187v-0.734h0.796v0.638c0,0.296-0.072,0.592-0.219,0.888
			C197.995,23.345,197.813,23.582,197.593,23.761z"/>
		<path d="M203.315,19.758c0,0.952-0.163,1.659-0.488,2.122s-0.834,0.694-1.525,0.694c-0.682,0-1.188-0.227-1.516-0.679
			c-0.328-0.453-0.498-1.129-0.51-2.028v-1.086c0-0.939,0.162-1.639,0.488-2.096c0.324-0.457,0.834-0.686,1.529-0.686
			c0.688,0,1.195,0.221,1.52,0.661c0.326,0.441,0.492,1.122,0.502,2.042V19.758z M202.502,18.646c0-0.688-0.097-1.19-0.29-1.505
			c-0.193-0.315-0.5-0.473-0.918-0.473c-0.416,0-0.72,0.157-0.91,0.471s-0.289,0.795-0.295,1.445v1.301
			c0,0.691,0.101,1.202,0.301,1.531c0.201,0.33,0.506,0.494,0.912,0.494c0.402,0,0.699-0.154,0.895-0.465s0.297-0.801,0.306-1.469
			V18.646z"/>
		<path d="M208.368,19.758c0,0.952-0.162,1.659-0.487,2.122s-0.833,0.694-1.524,0.694c-0.684,0-1.188-0.227-1.517-0.679
			c-0.328-0.453-0.498-1.129-0.51-2.028v-1.086c0-0.939,0.163-1.639,0.487-2.096c0.326-0.457,0.836-0.686,1.529-0.686
			c0.689,0,1.195,0.221,1.521,0.661c0.324,0.441,0.492,1.122,0.5,2.042V19.758z M207.556,18.646c0-0.688-0.097-1.19-0.29-1.505
			c-0.193-0.315-0.499-0.473-0.919-0.473c-0.416,0-0.719,0.157-0.909,0.471s-0.288,0.795-0.294,1.445v1.301
			c0,0.691,0.1,1.202,0.301,1.531c0.2,0.33,0.504,0.494,0.912,0.494c0.4,0,0.699-0.154,0.895-0.465
			c0.193-0.311,0.296-0.801,0.305-1.469V18.646z"/>
		<path d="M213.423,19.758c0,0.952-0.163,1.659-0.488,2.122s-0.834,0.694-1.525,0.694c-0.682,0-1.188-0.227-1.516-0.679
			c-0.328-0.453-0.498-1.129-0.51-2.028v-1.086c0-0.939,0.162-1.639,0.488-2.096c0.324-0.457,0.834-0.686,1.529-0.686
			c0.688,0,1.195,0.221,1.52,0.661c0.326,0.441,0.492,1.122,0.502,2.042V19.758z M212.609,18.646c0-0.688-0.097-1.19-0.29-1.505
			c-0.193-0.315-0.5-0.473-0.918-0.473c-0.416,0-0.72,0.157-0.91,0.471s-0.289,0.795-0.295,1.445v1.301
			c0,0.691,0.101,1.202,0.301,1.531c0.201,0.33,0.506,0.494,0.912,0.494c0.402,0,0.699-0.154,0.895-0.465s0.297-0.801,0.306-1.469
			V18.646z"/>
		<path d="M186.255,33.758c0,0.319-0.084,0.604-0.252,0.853c-0.169,0.249-0.396,0.444-0.684,0.585
			c0.334,0.144,0.598,0.353,0.793,0.628s0.293,0.588,0.293,0.937c0,0.553-0.188,0.994-0.561,1.322s-0.865,0.492-1.475,0.492
			c-0.615,0-1.108-0.165-1.479-0.494c-0.371-0.33-0.557-0.77-0.557-1.32c0-0.346,0.096-0.658,0.283-0.937
			c0.189-0.278,0.451-0.489,0.785-0.633c-0.284-0.141-0.508-0.335-0.672-0.585c-0.164-0.248-0.246-0.531-0.246-0.848
			c0-0.539,0.172-0.967,0.518-1.283S183.805,32,184.37,32c0.563,0,1.018,0.158,1.365,0.475
			C186.081,32.791,186.255,33.219,186.255,33.758z M185.592,36.742c0-0.357-0.114-0.649-0.341-0.875s-0.523-0.338-0.89-0.338
			s-0.66,0.111-0.882,0.334c-0.221,0.223-0.331,0.516-0.331,0.879s0.108,0.648,0.323,0.856s0.515,0.312,0.898,0.312
			c0.381,0,0.68-0.104,0.896-0.313C185.483,37.387,185.592,37.102,185.592,36.742z M184.37,32.668c-0.319,0-0.578,0.099-0.775,0.297
			c-0.197,0.197-0.297,0.467-0.297,0.807c0,0.324,0.098,0.588,0.293,0.788c0.193,0.201,0.454,0.302,0.779,0.302
			s0.585-0.101,0.779-0.302c0.195-0.2,0.293-0.464,0.293-0.788c0-0.326-0.102-0.591-0.303-0.796
			C184.937,32.771,184.681,32.668,184.37,32.668z"/>
		<path d="M191.44,35.758c0,0.952-0.162,1.659-0.487,2.122s-0.833,0.694-1.524,0.694c-0.684,0-1.188-0.227-1.517-0.679
			c-0.328-0.453-0.498-1.129-0.51-2.028v-1.086c0-0.939,0.163-1.639,0.487-2.096c0.326-0.457,0.836-0.686,1.529-0.686
			c0.689,0,1.195,0.221,1.521,0.661c0.324,0.441,0.492,1.122,0.5,2.042V35.758z M190.628,34.646c0-0.688-0.097-1.19-0.29-1.505
			c-0.193-0.315-0.499-0.473-0.919-0.473c-0.416,0-0.719,0.157-0.909,0.471s-0.288,0.795-0.294,1.445v1.301
			c0,0.691,0.1,1.202,0.301,1.531c0.2,0.33,0.504,0.494,0.912,0.494c0.4,0,0.699-0.154,0.895-0.465
			c0.193-0.311,0.296-0.801,0.305-1.469V34.646z"/>
		<path d="M192.54,39.761l-0.462-0.316c0.275-0.384,0.419-0.779,0.431-1.187v-0.734h0.795v0.638c0,0.296-0.072,0.592-0.217,0.888
			S192.759,39.582,192.54,39.761z"/>
		<path d="M198.261,35.758c0,0.952-0.162,1.659-0.487,2.122s-0.833,0.694-1.524,0.694c-0.684,0-1.188-0.227-1.517-0.679
			c-0.328-0.453-0.498-1.129-0.51-2.028v-1.086c0-0.939,0.163-1.639,0.487-2.096c0.326-0.457,0.836-0.686,1.529-0.686
			c0.689,0,1.195,0.221,1.521,0.661c0.324,0.441,0.492,1.122,0.5,2.042V35.758z M197.448,34.646c0-0.688-0.097-1.19-0.29-1.505
			c-0.193-0.315-0.499-0.473-0.919-0.473c-0.416,0-0.719,0.157-0.909,0.471s-0.288,0.795-0.294,1.445v1.301
			c0,0.691,0.1,1.202,0.301,1.531c0.2,0.33,0.504,0.494,0.912,0.494c0.4,0,0.699-0.154,0.895-0.465
			c0.193-0.311,0.296-0.801,0.305-1.469V34.646z"/>
		<path d="M203.315,35.758c0,0.952-0.163,1.659-0.488,2.122s-0.834,0.694-1.525,0.694c-0.682,0-1.188-0.227-1.516-0.679
			c-0.328-0.453-0.498-1.129-0.51-2.028v-1.086c0-0.939,0.162-1.639,0.488-2.096c0.324-0.457,0.834-0.686,1.529-0.686
			c0.688,0,1.195,0.221,1.52,0.661c0.326,0.441,0.492,1.122,0.502,2.042V35.758z M202.502,34.646c0-0.688-0.097-1.19-0.29-1.505
			c-0.193-0.315-0.5-0.473-0.918-0.473c-0.416,0-0.72,0.157-0.91,0.471s-0.289,0.795-0.295,1.445v1.301
			c0,0.691,0.101,1.202,0.301,1.531c0.201,0.33,0.506,0.494,0.912,0.494c0.402,0,0.699-0.154,0.895-0.465s0.297-0.801,0.306-1.469
			V34.646z"/>
		<path d="M208.368,35.758c0,0.952-0.162,1.659-0.487,2.122s-0.833,0.694-1.524,0.694c-0.684,0-1.188-0.227-1.517-0.679
			c-0.328-0.453-0.498-1.129-0.51-2.028v-1.086c0-0.939,0.163-1.639,0.487-2.096c0.326-0.457,0.836-0.686,1.529-0.686
			c0.689,0,1.195,0.221,1.521,0.661c0.324,0.441,0.492,1.122,0.5,2.042V35.758z M207.556,34.646c0-0.688-0.097-1.19-0.29-1.505
			c-0.193-0.315-0.499-0.473-0.919-0.473c-0.416,0-0.719,0.157-0.909,0.471s-0.288,0.795-0.294,1.445v1.301
			c0,0.691,0.1,1.202,0.301,1.531c0.2,0.33,0.504,0.494,0.912,0.494c0.4,0,0.699-0.154,0.895-0.465
			c0.193-0.311,0.296-0.801,0.305-1.469V34.646z"/>
		<path d="M185.808,52.338h0.887v0.663h-0.887v1.485h-0.818v-1.485h-2.913v-0.479l2.865-4.434h0.866V52.338z M182.999,52.338h1.99
			v-3.139l-0.096,0.176L182.999,52.338z"/>
		<path d="M191.44,51.758c0,0.952-0.162,1.659-0.487,2.122s-0.833,0.694-1.524,0.694c-0.684,0-1.188-0.227-1.517-0.679
			c-0.328-0.453-0.498-1.129-0.51-2.028v-1.086c0-0.939,0.163-1.639,0.487-2.096c0.326-0.457,0.836-0.686,1.529-0.686
			c0.689,0,1.195,0.221,1.521,0.661c0.324,0.441,0.492,1.122,0.5,2.042V51.758z M190.628,50.646c0-0.688-0.097-1.19-0.29-1.505
			c-0.193-0.315-0.499-0.473-0.919-0.473c-0.416,0-0.719,0.157-0.909,0.471s-0.288,0.795-0.294,1.445v1.301
			c0,0.691,0.1,1.202,0.301,1.531c0.2,0.33,0.504,0.494,0.912,0.494c0.4,0,0.699-0.154,0.895-0.465
			c0.193-0.311,0.296-0.801,0.305-1.469V50.646z"/>
		<path d="M192.54,55.761l-0.462-0.316c0.275-0.384,0.419-0.779,0.431-1.187v-0.734h0.795v0.638c0,0.296-0.072,0.592-0.217,0.888
			S192.759,55.582,192.54,55.761z"/>
		<path d="M198.261,51.758c0,0.952-0.162,1.659-0.487,2.122s-0.833,0.694-1.524,0.694c-0.684,0-1.188-0.227-1.517-0.679
			c-0.328-0.453-0.498-1.129-0.51-2.028v-1.086c0-0.939,0.163-1.639,0.487-2.096c0.326-0.457,0.836-0.686,1.529-0.686
			c0.689,0,1.195,0.221,1.521,0.661c0.324,0.441,0.492,1.122,0.5,2.042V51.758z M197.448,50.646c0-0.688-0.097-1.19-0.29-1.505
			c-0.193-0.315-0.499-0.473-0.919-0.473c-0.416,0-0.719,0.157-0.909,0.471s-0.288,0.795-0.294,1.445v1.301
			c0,0.691,0.1,1.202,0.301,1.531c0.2,0.33,0.504,0.494,0.912,0.494c0.4,0,0.699-0.154,0.895-0.465
			c0.193-0.311,0.296-0.801,0.305-1.469V50.646z"/>
		<path d="M203.315,51.758c0,0.952-0.163,1.659-0.488,2.122s-0.834,0.694-1.525,0.694c-0.682,0-1.188-0.227-1.516-0.679
			c-0.328-0.453-0.498-1.129-0.51-2.028v-1.086c0-0.939,0.162-1.639,0.488-2.096c0.324-0.457,0.834-0.686,1.529-0.686
			c0.688,0,1.195,0.221,1.52,0.661c0.326,0.441,0.492,1.122,0.502,2.042V51.758z M202.502,50.646c0-0.688-0.097-1.19-0.29-1.505
			c-0.193-0.315-0.5-0.473-0.918-0.473c-0.416,0-0.72,0.157-0.91,0.471s-0.289,0.795-0.295,1.445v1.301
			c0,0.691,0.101,1.202,0.301,1.531c0.201,0.33,0.506,0.494,0.912,0.494c0.402,0,0.699-0.154,0.895-0.465s0.297-0.801,0.306-1.469
			V50.646z"/>
		<path d="M208.368,51.758c0,0.952-0.162,1.659-0.487,2.122s-0.833,0.694-1.524,0.694c-0.684,0-1.188-0.227-1.517-0.679
			c-0.328-0.453-0.498-1.129-0.51-2.028v-1.086c0-0.939,0.163-1.639,0.487-2.096c0.326-0.457,0.836-0.686,1.529-0.686
			c0.689,0,1.195,0.221,1.521,0.661c0.324,0.441,0.492,1.122,0.5,2.042V51.758z M207.556,50.646c0-0.688-0.097-1.19-0.29-1.505
			c-0.193-0.315-0.499-0.473-0.919-0.473c-0.416,0-0.719,0.157-0.909,0.471s-0.288,0.795-0.294,1.445v1.301
			c0,0.691,0.1,1.202,0.301,1.531c0.2,0.33,0.504,0.494,0.912,0.494c0.4,0,0.699-0.154,0.895-0.465
			c0.193-0.311,0.296-0.801,0.305-1.469V50.646z"/>
		<path d="M186.388,67.758c0,0.952-0.163,1.659-0.488,2.122s-0.834,0.694-1.525,0.694c-0.682,0-1.188-0.227-1.516-0.679
			c-0.328-0.453-0.498-1.129-0.51-2.028v-1.086c0-0.939,0.162-1.639,0.488-2.096c0.324-0.457,0.834-0.686,1.529-0.686
			c0.688,0,1.195,0.221,1.52,0.661c0.326,0.441,0.492,1.122,0.502,2.042V67.758z M185.574,66.646c0-0.688-0.097-1.19-0.29-1.505
			c-0.193-0.315-0.5-0.473-0.918-0.473c-0.416,0-0.72,0.157-0.91,0.471s-0.289,0.795-0.295,1.445v1.301
			c0,0.691,0.101,1.202,0.301,1.531c0.201,0.33,0.506,0.494,0.912,0.494c0.402,0,0.699-0.154,0.895-0.465s0.297-0.801,0.306-1.469
			V66.646z"/>
	</g>
	<g>
		<g>
			<path d="M19.239,73.765h0.679c0.426-0.007,0.762-0.119,1.006-0.337s0.366-0.513,0.366-0.884c0-0.833-0.415-1.25-1.245-1.25
				c-0.391,0-0.702,0.111-0.935,0.334c-0.233,0.224-0.349,0.519-0.349,0.887h-0.903c0-0.563,0.206-1.031,0.618-1.404
				c0.412-0.372,0.935-0.559,1.57-0.559c0.67,0,1.196,0.178,1.577,0.532s0.571,0.848,0.571,1.479c0,0.31-0.1,0.608-0.3,0.898
				s-0.473,0.506-0.818,0.649c0.391,0.124,0.692,0.329,0.906,0.615s0.32,0.637,0.32,1.05c0,0.638-0.208,1.145-0.625,1.519
				s-0.958,0.562-1.626,0.562s-1.21-0.181-1.628-0.542s-0.627-0.838-0.627-1.431h0.908c0,0.374,0.122,0.674,0.366,0.898
				s0.571,0.337,0.981,0.337c0.436,0,0.77-0.114,1.001-0.342s0.347-0.555,0.347-0.981c0-0.413-0.127-0.73-0.381-0.952
				s-0.62-0.335-1.099-0.342h-0.679V73.765z"/>
			<path d="M23.814,78.369h-0.776l2.969-7.72h0.771L23.814,78.369z"/>
			<path d="M30.63,77.759h-0.908v-6.021l-1.821,0.669v-0.82l2.588-0.972h0.142V77.759z"/>
		</g>
	</g>
	<g>
		<g>
			<path d="M62.744,70.645v0.767h-0.166c-0.703,0.013-1.263,0.222-1.68,0.625s-0.658,0.972-0.723,1.704
				c0.375-0.43,0.885-0.645,1.533-0.645c0.619,0,1.112,0.218,1.482,0.654s0.554,0.999,0.554,1.689c0,0.732-0.199,1.318-0.598,1.758
				s-0.934,0.659-1.604,0.659c-0.68,0-1.232-0.262-1.655-0.783c-0.423-0.523-0.635-1.196-0.635-2.02v-0.347
				c0-1.309,0.279-2.309,0.837-3.001c0.558-0.691,1.389-1.045,2.493-1.062H62.744z M61.558,73.848c-0.309,0-0.594,0.093-0.854,0.278
				s-0.441,0.418-0.542,0.698v0.332c0,0.586,0.132,1.058,0.396,1.416s0.592,0.537,0.986,0.537c0.407,0,0.727-0.149,0.959-0.449
				s0.349-0.691,0.349-1.177c0-0.488-0.118-0.883-0.354-1.184C62.262,73.998,61.948,73.848,61.558,73.848z"/>
			<path d="M65.088,78.369h-0.776l2.969-7.72h0.771L65.088,78.369z"/>
			<path d="M71.904,77.759h-0.908v-6.021l-1.821,0.669v-0.82l2.588-0.972h0.142V77.759z"/>
		</g>
	</g>
	<g>
		<g>
			<path d="M103.935,74.634c-0.189,0.225-0.414,0.405-0.676,0.542s-0.549,0.205-0.862,0.205c-0.41,0-0.768-0.101-1.072-0.303
				s-0.54-0.485-0.706-0.853c-0.166-0.365-0.249-0.771-0.249-1.213c0-0.476,0.09-0.903,0.271-1.284s0.437-0.672,0.769-0.874
				s0.719-0.303,1.162-0.303c0.703,0,1.257,0.263,1.663,0.789c0.405,0.525,0.608,1.242,0.608,2.15v0.264
				c0,1.384-0.273,2.394-0.82,3.029c-0.547,0.637-1.372,0.963-2.476,0.979h-0.176v-0.767h0.19c0.746-0.013,1.318-0.207,1.719-0.582
				S103.899,75.446,103.935,74.634z M102.543,74.634c0.303,0,0.582-0.093,0.837-0.278s0.442-0.415,0.559-0.688v-0.361
				c0-0.593-0.128-1.074-0.386-1.445s-0.583-0.557-0.977-0.557c-0.397,0-0.716,0.152-0.957,0.457
				c-0.241,0.304-0.361,0.705-0.361,1.203c0,0.485,0.116,0.885,0.349,1.199C101.841,74.477,102.153,74.634,102.543,74.634z"/>
			<path d="M106.362,78.369h-0.776l2.969-7.72h0.771L106.362,78.369z"/>
			<path d="M113.179,77.759h-0.908v-6.021l-1.822,0.669v-0.82l2.588-0.972h0.143V77.759z"/>
		</g>
	</g>
	<g>
		<g>
			<path d="M141.907,77.759h-0.908v-6.021l-1.82,0.669v-0.82l2.588-0.972h0.141V77.759z"/>
			<path d="M149.212,77.759h-4.658v-0.649l2.461-2.734c0.365-0.413,0.617-0.749,0.755-1.009c0.138-0.258,0.208-0.526,0.208-0.803
				c0-0.371-0.113-0.676-0.338-0.913s-0.523-0.356-0.898-0.356c-0.449,0-0.798,0.128-1.047,0.383
				c-0.249,0.256-0.373,0.611-0.373,1.067h-0.904c0-0.654,0.211-1.184,0.633-1.587s0.985-0.605,1.691-0.605
				c0.661,0,1.184,0.174,1.568,0.52c0.384,0.348,0.576,0.809,0.576,1.385c0,0.7-0.446,1.533-1.338,2.5l-1.904,2.065h3.568V77.759z"
				/>
			<path d="M150.442,78.369h-0.775l2.969-7.72h0.771L150.442,78.369z"/>
			<path d="M157.259,77.759h-0.908v-6.021l-1.82,0.669v-0.82l2.588-0.972h0.141V77.759z"/>
		</g>
	</g>
	<g>
		<line fill="none" stroke="#0228CC" stroke-width="5" stroke-miterlimit="10" x1="25.011" y1="66.263" x2="25.011" y2="63.349"/>
	</g>
	<line fill="none" stroke="#0228CC" stroke-width="5" stroke-miterlimit="10" x1="66.284" y1="66.263" x2="66.284" y2="60.313"/>
	<line fill="none" stroke="#0228CC" stroke-width="5" stroke-miterlimit="10" x1="107.558" y1="66.263" x2="107.558" y2="49.799"/>
	<line fill="none" stroke="#0228CC" stroke-width="5" stroke-miterlimit="10" x1="148.831" y1="66.263" x2="148.831" y2="11.497"/>
</g>
<g>
	<path fill="none" stroke="#E84830" stroke-width="1.5" stroke-miterlimit="10" d="M142.824,12.799
		c-11.75,31.75-57.271,47.167-120.182,49.167"/>
</g>
<polygon fill="#E84830" points="139.633,14.213 143.425,11.426 144.09,15.879 "/>
</svg>
