<?xml version="1.0" encoding="utf-8"?>
<!-- Generator: Adobe Illustrator 16.0.0, SVG Export Plug-In . SVG Version: 6.00 Build 0)  -->
<!DOCTYPE svg PUBLIC "-//W3C//DTD SVG 1.1//EN" "http://www.w3.org/Graphics/SVG/1.1/DTD/svg11.dtd">
<svg version="1.1" id="レイヤー_1" xmlns="http://www.w3.org/2000/svg" xmlns:xlink="http://www.w3.org/1999/xlink" x="0px"
	 y="0px" width="346.03px" height="122.718px" viewBox="0 0 346.03 122.718" enable-background="new 0 0 346.03 122.718"
	 xml:space="preserve">
<rect y="-0.001" fill="#E84830" width="157.03" height="48.076"/>
<g>
	<path d="M33.939,73.525h3.341v2h-1.66l0.78,0.2c-0.34,0.74-0.64,1.521-0.92,2.12h1.5v2.001h-3.041v1.54h2.821v2.001h-2.821v3.641
		h-2.2v-3.641h-2.98v-2.001h2.98v-1.54h-3.141v-2.001h1.5c-0.119-0.64-0.38-1.479-0.66-2.14l0.721-0.181h-1.98v-2h3.561v-1.381
		h-2.86v-1.96h2.86v-1.74h2.2v1.74h2.601v1.96h-2.601V73.525z M33.66,77.666c0.22-0.601,0.52-1.46,0.7-2.141h-3.041
		c0.34,0.721,0.62,1.58,0.7,2.141l-0.641,0.18H34.3L33.66,77.666z M46.442,76.506c-0.38,2.421-1.08,4.661-2.101,6.541
		c0.82,0.9,1.741,1.66,2.781,2.181c-0.521,0.44-1.2,1.28-1.541,1.881c-0.939-0.561-1.76-1.28-2.5-2.121
		c-0.641,0.82-1.36,1.541-2.181,2.141c-0.26-0.4-0.68-0.86-1.101-1.24v1.181h-2.16V69.244h8.342v3.761c0,1.021-0.22,1.601-1,1.921
		c-0.761,0.319-1.841,0.34-3.301,0.34c-0.1-0.641-0.4-1.46-0.681-2.041c0.98,0.04,2.081,0.04,2.381,0.04c0.3-0.02,0.4-0.079,0.4-0.3
		v-1.641h-3.981v4.781h4.821l0.4-0.1L46.442,76.506z M39.801,85.168c0.721-0.58,1.36-1.261,1.921-2.041
		c-0.78-1.28-1.42-2.74-1.921-4.32V85.168z M41.481,77.986c0.36,1.1,0.84,2.141,1.42,3.101c0.461-0.96,0.82-2.021,1.061-3.101
		H41.481z"/>
	<path d="M66.538,68.884v18.204h-2v-8.042l-0.641,0.341c-0.119-0.66-0.38-1.561-0.7-2.461v9.582h-1.9v-7.401l-0.68,0.38
		c-0.08-0.72-0.3-1.7-0.601-2.641c0,3.721-0.199,7.441-1.86,10.322c-0.399-0.38-1.2-0.96-1.74-1.2c1.501-2.58,1.7-5.801,1.7-9.122
		v-0.02c-0.159,1.14-0.439,2.26-0.88,3.141l-1.08-0.961v7.662h-1.7v-0.94h-3.961v1.2h-1.601V72.985h1.82v-1.94h-2.101v-1.86h7.782
		v1.86h-2.161v1.94h1.921v5.701c0.5-1.101,0.74-2.861,0.84-4.401l1.12,0.32v-5.701h1.9v5.981l0.7-0.381
		c0.2,0.48,0.4,1.021,0.58,1.541v-6.802h1.9v5.401l0.541-0.3c0.279,0.54,0.56,1.14,0.8,1.74v-7.222L66.538,68.884z M52.155,76.626
		c0,1.1-0.18,2.54-1.04,3.541c-0.14-0.16-0.4-0.4-0.62-0.581v1.281h3.961v-1.721h-0.561c-0.88,0-1.12-0.26-1.12-1.4v-2.841h-0.62
		V76.626z M50.495,74.905v4.261c0.56-0.8,0.62-1.76,0.62-2.561v-1.7H50.495z M54.456,83.907v-1.36h-3.961v1.36H54.456z
		 M52.155,72.985h0.62v-1.94h-0.62V72.985z M54.456,74.905h-0.601v2.801c0,0.26,0.04,0.3,0.181,0.3h0.359h0.061V74.905z"/>
	<path d="M86.837,83.808h-7.861v3.261h-2.44v-3.261h-7.722v-2.201h7.722v-1.3h-5.962v-8.422h1.681c-0.42-0.76-1.08-1.721-1.66-2.461
		l2.04-0.939c0.721,0.84,1.62,2,2.021,2.8l-1.24,0.601h3.541c-0.3-0.82-0.9-1.9-1.5-2.761l2.14-0.8
		c0.681,0.9,1.421,2.141,1.761,2.98l-1.44,0.58h3.061c0.681-1,1.48-2.4,1.881-3.48l2.66,0.76c-0.6,0.96-1.26,1.921-1.86,2.721h1.58
		v8.422h-6.261v1.3h7.861V83.808z M76.535,73.825h-3.661v1.34h3.661V73.825z M76.535,78.346v-1.359h-3.661v1.359H76.535z
		 M82.776,73.825h-3.801v1.34h3.801V73.825z M82.776,76.986h-3.801v1.359h3.801V76.986z"/>
	<path d="M94.17,69.124c-0.5,1.32-1.12,2.661-1.8,3.941v14.003h-2.241V76.626c-0.399,0.54-0.8,1.04-1.22,1.48
		c-0.221-0.561-0.841-1.82-1.221-2.4c1.721-1.741,3.361-4.501,4.341-7.262L94.17,69.124z M102.952,72.485v2.5h3.381v11.543h-2.281
		v-1.021h-7.921v1.14H93.93V74.985h3.221v-2.5h-3.42v-2.121h12.702v2.121H102.952z M96.131,83.467h1.24v-6.421h-1.24V83.467z
		 M99.371,77.046v6.421h1.341v-6.421H99.371z M100.712,72.485h-1.32v2.5h1.32V72.485z M104.052,77.046h-1.34v6.421h1.34V77.046z"/>
	<path d="M116.502,69.744c-0.12,0.521-0.239,1.141-0.34,1.641c-0.12,0.6-0.28,1.32-0.42,2.04c0.66-0.04,1.261-0.08,1.66-0.08
		c2.101,0,3.581,0.94,3.581,3.781c0,2.341-0.28,5.501-1.12,7.222c-0.66,1.38-1.74,1.82-3.261,1.82c-0.74,0-1.7-0.12-2.36-0.28
		l-0.44-2.62c0.76,0.22,1.92,0.42,2.44,0.42c0.66,0,1.16-0.2,1.48-0.86c0.54-1.101,0.8-3.461,0.8-5.421
		c0-1.581-0.68-1.801-1.92-1.801c-0.32,0-0.801,0.04-1.36,0.08c-0.78,3.001-2.221,7.662-4.041,10.582l-2.58-1.04
		c1.92-2.601,3.28-6.562,3.98-9.262c-0.7,0.08-1.32,0.16-1.7,0.22c-0.561,0.061-1.58,0.2-2.201,0.3l-0.22-2.68
		c0.721,0.06,1.381,0.02,2.101,0c0.62-0.021,1.561-0.08,2.561-0.16c0.28-1.521,0.44-2.961,0.42-4.201L116.502,69.744z
		 M123.604,72.104c1.16,1.82,2.641,5.161,3.221,6.901l-2.521,1.181c-0.52-2.2-1.92-5.701-3.341-7.462l1.841-0.78
		c-0.4-0.76-0.9-1.72-1.36-2.36l1.58-0.66c0.5,0.74,1.2,2.001,1.601,2.741L123.604,72.104z M125.424,71.444
		c-0.42-0.84-1.06-2.021-1.62-2.76l1.58-0.66c0.541,0.76,1.28,2.02,1.621,2.72L125.424,71.444z"/>
	<path fill="#E84830" d="M80.75,94.849v2.43H54.861v-2.43H66.23v-2.7h2.851v2.7H80.75z M79.73,116.567c0,1.41-0.3,2.19-1.32,2.641
		c-1.05,0.42-2.609,0.449-4.95,0.449c-0.119-0.779-0.51-1.859-0.869-2.579h-8.01v1.439h-2.43v-7.92H73.49v6.48
		c1.32,0.029,2.46,0.029,2.82-0.03c0.479,0,0.63-0.12,0.63-0.51v-7.59h-18.09v10.77h-2.729v-13.109H79.73V116.567z M75.891,98.719
		v6.27h-16.14v-6.27H75.891z M73.07,100.639H62.451v2.43H73.07V100.639z M71.001,112.578h-6.42v2.55h6.42V112.578z"/>
	<path fill="#E84830" d="M87.1,105.505c-0.02,1.28,0,2.781,0.12,4.201c0.28,2.86,0.88,4.801,2.12,4.801
		c0.94,0,1.721-2.32,2.101-3.881l2.001,2.4c-1.32,3.441-2.561,4.661-4.161,4.661c-2.16,0-4.061-1.96-4.621-7.281
		c-0.18-1.82-0.22-4.121-0.22-5.341c0-0.561-0.021-1.4-0.141-2.001l3.041,0.04C87.2,103.805,87.1,104.965,87.1,105.505z
		 M100.862,113.646l-2.62,1.001c-0.3-3.181-1.36-7.842-3.521-10.282l2.521-0.841C99.122,105.825,100.643,110.606,100.862,113.646z"
		/>
</g>
<polygon fill="#E84830" points="78.515,55.77 73.874,48.074 78.515,40.377 83.157,48.074 "/>
<g>
	<path fill="#FFFFFF" d="M53.735,18.029c-0.26,0.44-0.64,1.32-0.82,1.781c-0.6,1.6-1.5,3.601-2.7,5.44
		c1.761,1.44,3.421,2.981,4.761,4.401l-2.061,2.301c-1.399-1.641-2.82-3.021-4.421-4.401c-1.76,2.12-4.061,4.341-7.441,6.182
		l-2.3-2.061c3.26-1.58,5.641-3.521,7.602-5.901c-1.421-1.12-3.321-2.561-5.361-3.781l1.72-2.061
		c1.601,1.001,3.661,2.401,5.281,3.602c1.021-1.601,1.66-3.181,2.201-4.741c0.18-0.5,0.38-1.32,0.479-1.841L53.735,18.029z"/>
	<path fill="#FFFFFF" d="M61.131,17.369c-0.04,0.44-0.061,0.881-0.061,1.521v6.762c0,0.5,0.021,1.28,0.061,1.74H58.17
		c0.02-0.38,0.1-1.16,0.1-1.76V18.89c0-0.38-0.02-1.08-0.08-1.521H61.131z M70.353,17.189c-0.04,0.561-0.08,1.2-0.08,2.001v3.96
		c0,4.302-0.84,6.142-2.32,7.782c-1.32,1.46-3.401,2.44-4.861,2.9l-2.101-2.2c2.001-0.46,3.681-1.221,4.901-2.521
		c1.36-1.501,1.62-3.001,1.62-6.121V19.19c0-0.801-0.04-1.44-0.12-2.001H70.353z"/>
	<path fill="#FFFFFF" d="M79.049,26.432l-2.44,0.92c-0.34-1.08-1.34-3.74-1.82-4.621l2.4-0.86
		C77.689,22.891,78.65,25.312,79.049,26.432z M89.211,22.271c-0.239,0.641-0.359,1.061-0.479,1.461
		c-0.521,2.02-1.36,4.101-2.721,5.86c-1.86,2.401-4.361,4.081-6.701,4.962l-2.101-2.141c2.2-0.58,4.98-2.101,6.642-4.181
		c1.359-1.701,2.32-4.361,2.54-6.862L89.211,22.271z M83.47,25.191l-2.4,0.84c-0.24-0.98-1.12-3.4-1.62-4.44l2.381-0.78
		C82.21,21.671,83.191,24.271,83.47,25.191z"/>
	<path fill="#FFFFFF" d="M104.537,28.112c-2.061-1.081-5.061-2.241-7.222-2.981v5.662c0,0.58,0.101,1.979,0.181,2.78h-3.121
		c0.12-0.78,0.2-1.98,0.2-2.78V19.31c0-0.72-0.06-1.72-0.2-2.42h3.121c-0.08,0.7-0.181,1.58-0.181,2.42v2.941
		c2.681,0.78,6.521,2.2,8.362,3.101L104.537,28.112z"/>
</g>
<g>
	<path fill="#FFFFFF" d="M116.604,37.723h-4.727l6.147-22.003l-7.612,2.289l1.072-3.837l12.192-3.931h0.605L116.604,37.723z"/>
</g>
<rect x="189" y="-0.001" fill="#E84830" width="157.03" height="48.076"/>
<g>
	<path d="M208.714,80.467c0.72,0.5,2.38,1.82,2.84,2.181l-1.38,1.7c-0.32-0.4-0.88-1-1.46-1.561v4.261h-2.301v-4.021
		c-0.78,1.12-1.681,2.12-2.541,2.82c-0.359-0.52-1.04-1.3-1.54-1.681c1.301-0.859,2.681-2.36,3.601-3.86h-3.04v-2h3.521v-1.541
		h-3.581v-1.96h1.841c-0.08-0.66-0.32-1.541-0.601-2.201l1.221-0.279h-2.24v-1.94h3.36v-1.82h2.301v1.82h3.32v1.94h-2.061l1.16,0.22
		c-0.359,0.86-0.68,1.66-0.96,2.261h2.021v1.96h-3.48v1.541h3.301v2h-3.301V80.467z M205.953,72.325c0.34,0.68,0.6,1.6,0.68,2.2
		l-1,0.28h3.921l-1.32-0.28c0.26-0.601,0.58-1.521,0.74-2.2H205.953z M221.276,77.186h-1.9v9.782h-2.301v-9.782h-2.04
		c-0.021,2.981-0.44,7.202-3.081,9.942c-0.3-0.52-1.16-1.34-1.7-1.62c2.301-2.44,2.541-5.842,2.541-8.602v-6.941l1.399,0.399
		c1.9-0.46,3.861-1.1,5.081-1.76l1.9,1.74c-1.76,0.78-4.04,1.4-6.141,1.84v2.801h6.241V77.186z"/>
	<path d="M229.668,84.087c-0.439-0.76-1.24-1.88-2-2.88c-0.5,2.141-1.461,4.16-3.261,5.621c-0.34-0.5-1.08-1.301-1.62-1.7
		c2.2-1.621,2.9-4.361,3.101-6.882h-2.821v-2.16h2.901v-0.301v-2.22h-2.601v-2.101h2.601v-2.86h2.22v2.86h2.501v2.101h-2.501v2.22
		v0.301h2.821v2.16h-2.901l-0.04,0.48c0.841,0.859,2.761,3.061,3.201,3.62L229.668,84.087z M239.37,84.628
		c0.32,0,0.4-0.261,0.44-2.361c0.439,0.341,1.36,0.7,1.96,0.86c-0.2,2.841-0.74,3.561-2.16,3.561h-1.32
		c-1.761,0-2.141-0.66-2.141-2.62v-3.48h-1.021c-0.34,2.94-1.24,5.181-4.761,6.521c-0.24-0.561-0.84-1.381-1.28-1.78
		c2.921-0.98,3.541-2.621,3.801-4.741h-1.28V69.104h8.882v11.482h-2.141v3.44c0,0.54,0.04,0.601,0.341,0.601H239.37z
		 M233.809,72.385h4.382v-1.18h-4.382V72.385z M233.809,75.445h4.382v-1.18h-4.382V75.445z M233.809,78.486h4.382v-1.181h-4.382
		V78.486z"/>
	<path d="M258.245,73.385c1.061,0,1.66-0.04,2.2-0.14v2.66c-0.439-0.04-1.14-0.06-2.2-0.06h-1.48v0.66
		c0,4.961-1.2,7.981-6.021,10.103l-2.141-2.021c3.86-1.341,5.561-3.081,5.561-7.982v-0.76h-4.74v2.721c0,0.88,0.06,1.7,0.079,2.101
		h-2.8c0.06-0.4,0.12-1.2,0.12-2.101v-2.721h-1.701c-1,0-1.72,0.04-2.16,0.08v-2.721c0.36,0.06,1.16,0.18,2.16,0.18h1.701v-1.98
		c0-0.76-0.08-1.42-0.12-1.8h2.84c-0.06,0.38-0.119,1.021-0.119,1.82v1.96h4.74v-2.101c0-0.8-0.06-1.46-0.12-1.86h2.841
		c-0.04,0.4-0.12,1.061-0.12,1.86v2.101H258.245z"/>
	<path d="M273.385,83.607c0,0.88,0.04,2.12,0.181,2.62h-3.161c0.08-0.479,0.141-1.74,0.141-2.62v-6.562
		c-2.061,1.04-4.562,2.08-6.882,2.721l-1.44-2.44c3.501-0.761,6.861-2.24,9.102-3.621c2.021-1.26,4.102-3.041,5.222-4.521
		l2.141,1.94c-1.521,1.52-3.321,3.021-5.302,4.301V83.607z"/>
	<path d="M293.921,80.747c-2.061-1.081-5.061-2.241-7.222-2.981v5.662c0,0.58,0.101,1.979,0.181,2.78h-3.121
		c0.12-0.78,0.2-1.98,0.2-2.78V71.944c0-0.72-0.06-1.72-0.2-2.42h3.121c-0.08,0.7-0.181,1.58-0.181,2.42v2.941
		c2.681,0.78,6.521,2.2,8.362,3.101L293.921,80.747z"/>
	<path d="M298.385,71.564c1.661-0.14,4.941-0.439,8.563-0.76c2.04-0.16,4.2-0.28,5.601-0.34l0.021,2.561
		c-1.061,0-2.761,0.02-3.821,0.26c-2.4,0.64-4.181,3.2-4.181,5.541c0,3.261,3.041,4.441,6.401,4.602l-0.92,2.74
		c-4.161-0.26-8.082-2.501-8.082-6.802c0-2.86,1.58-5.101,2.921-6.102c-1.721,0.181-5.882,0.62-8.182,1.121l-0.261-2.721
		C297.245,71.645,298.005,71.604,298.385,71.564z M311.388,77.666l-1.521,0.68c-0.5-1.1-0.92-1.88-1.56-2.78l1.479-0.62
		C310.268,75.666,311.008,76.866,311.388,77.666z M313.708,76.686l-1.5,0.721c-0.54-1.08-1-1.82-1.641-2.701l1.461-0.68
		C312.528,74.726,313.288,75.905,313.708,76.686z"/>
	<path d="M330.271,76.565c1.32,1.681,1.92,3.081,1.92,4.762c0,2.98-2.681,5.141-7.021,5.141c-3.12,0-5.321-1.36-5.321-4.661
		c0-0.479,0.061-1.18,0.141-2c-1.44-0.141-2.741-0.36-3.801-0.66l0.14-2.4c1.28,0.439,2.62,0.66,3.9,0.78
		c0.12-0.881,0.221-1.801,0.341-2.701c-1.381-0.14-2.781-0.38-3.941-0.7l0.141-2.3c1.14,0.38,2.62,0.62,4.061,0.739
		c0.08-0.6,0.12-1.14,0.16-1.58c0.04-0.54,0.08-1.1,0.04-1.76l2.78,0.159c-0.16,0.721-0.26,1.241-0.34,1.761
		c-0.061,0.34-0.12,0.86-0.22,1.5c1.42-0.02,2.7-0.1,3.641-0.239l-0.08,2.36c-1.181,0.12-2.261,0.18-3.861,0.18
		c-0.12,0.88-0.239,1.82-0.34,2.701h0.14c1.221,0,2.681-0.101,3.981-0.24l-0.061,2.36c-1.12,0.1-2.28,0.18-3.5,0.18
		c-0.261,0-0.54,0-0.801,0c-0.04,0.58-0.08,1.08-0.08,1.44c0,1.62,1.001,2.521,2.961,2.521c2.761,0,4.281-1.26,4.281-2.9
		c0-1.341-0.761-2.621-2.041-3.841L330.271,76.565z"/>
	<path fill="#E84830" d="M234.144,100.886c0.421,0,1.381-0.08,1.821-0.12v2.58c-0.541-0.039-1.221-0.079-1.761-0.079h-5.182
		c-0.3,3.36-1.74,6.201-5.121,8.222l-2.54-1.721c3.041-1.4,4.641-3.541,5.021-6.501h-5.502c-0.62,0-1.36,0.04-1.88,0.079v-2.58
		c0.54,0.06,1.22,0.12,1.84,0.12h5.642v-2.841c-1.921,0.16-4.021,0.22-5.361,0.26l-0.62-2.32c1.521,0.04,4.621,0,6.821-0.32
		c2.001-0.279,4.041-0.739,5.041-1.2l1.641,2.201c-0.68,0.16-1.2,0.3-1.54,0.38c-0.98,0.26-2.161,0.48-3.361,0.66v3.181H234.144z"/>
	<path fill="#E84830" d="M247.541,105.887c1.021-0.92,2.4-2.62,2.94-3.601c-0.48,0.1-2.461,0.5-4.621,0.96
		c0.761,2.74,1.601,5.821,1.921,6.861c0.12,0.36,0.38,1.24,0.54,1.641l-2.721,0.66c-0.061-0.521-0.2-1.181-0.36-1.74
		c-0.3-1.08-1.12-4.181-1.84-6.922c-1.681,0.36-3.142,0.66-3.741,0.801l-0.62-2.401c0.64-0.06,1.181-0.12,1.841-0.239
		c0.279-0.04,1-0.16,1.92-0.341c-0.2-0.78-0.38-1.42-0.521-1.86c-0.14-0.52-0.34-1-0.56-1.42l2.681-0.641
		c0.08,0.48,0.2,1.001,0.319,1.521l0.541,1.94c2.54-0.479,5.341-1.02,6.121-1.2c0.36-0.06,0.74-0.18,1.02-0.32l1.601,1.141
		c-0.84,1.761-2.86,4.761-4.261,6.262L247.541,105.887z"/>
	<path fill="#E84830" d="M263.069,105.847c3.4-2.021,6.021-5.081,7.281-7.781l1.561,2.82c-1.521,2.7-4.181,5.461-7.401,7.401
		c-2.021,1.221-4.602,2.341-7.422,2.82l-1.681-2.641C258.528,108.027,261.129,107.007,263.069,105.847z M263.069,99.365
		l-2.041,2.101c-1.04-1.12-3.54-3.301-5.001-4.321l1.881-2C259.309,96.085,261.909,98.165,263.069,99.365z"/>
	<path fill="#E84830" d="M287.826,96.785c-0.16,0.22-0.521,0.84-0.7,1.24c-0.68,1.56-1.801,3.7-3.141,5.501
		c1.98,1.72,4.401,4.28,5.581,5.721l-2.28,1.98c-1.301-1.8-3.161-3.841-5.041-5.661c-2.121,2.24-4.781,4.321-7.521,5.621
		l-2.061-2.16c3.221-1.221,6.321-3.641,8.201-5.741c1.32-1.5,2.541-3.48,2.981-4.901h-6.782c-0.84,0-1.94,0.12-2.36,0.141v-2.841
		c0.54,0.08,1.761,0.14,2.36,0.14h7.042c0.88,0,1.681-0.12,2.08-0.26L287.826,96.785z"/>
	<path fill="#E84830" d="M301.06,101.538c-0.479,1.021-1.02,2.04-1.56,3h14.13v14.939c0,1.5-0.301,2.34-1.381,2.76
		c-1.05,0.45-2.729,0.45-5.22,0.45c-0.09-0.75-0.51-1.95-0.869-2.7c1.77,0.091,3.569,0.091,4.079,0.061
		c0.511,0,0.66-0.15,0.66-0.601v-2.579H299.17v5.85h-2.76v-13.739c-1.32,1.56-2.82,2.97-4.5,4.14c-0.42-0.601-1.26-1.65-1.83-2.16
		c3.391-2.28,6-5.729,7.89-9.42h-7.079v-2.609h8.22c0.51-1.26,0.93-2.521,1.26-3.75l2.85,0.66c-0.33,1.02-0.66,2.069-1.05,3.09
		h14.909v2.609H301.06z M310.899,106.968H299.17v2.61h11.729V106.968z M310.899,114.528v-2.61H299.17v2.61H310.899z"/>
</g>
<polygon fill="#E84830" points="267.516,55.77 262.873,48.074 267.516,40.377 272.156,48.074 "/>
<g>
	<path fill="#FFFFFF" d="M242.734,18.029c-0.26,0.44-0.64,1.32-0.82,1.781c-0.6,1.6-1.5,3.601-2.7,5.44
		c1.761,1.44,3.421,2.981,4.761,4.401l-2.061,2.301c-1.399-1.641-2.82-3.021-4.421-4.401c-1.76,2.12-4.061,4.341-7.441,6.182
		l-2.3-2.061c3.26-1.58,5.641-3.521,7.602-5.901c-1.421-1.12-3.321-2.561-5.361-3.781l1.72-2.061
		c1.601,1.001,3.661,2.401,5.281,3.602c1.021-1.601,1.66-3.181,2.201-4.741c0.18-0.5,0.38-1.32,0.479-1.841L242.734,18.029z"/>
	<path fill="#FFFFFF" d="M250.131,17.369c-0.04,0.44-0.061,0.881-0.061,1.521v6.762c0,0.5,0.021,1.28,0.061,1.74h-2.961
		c0.02-0.38,0.1-1.16,0.1-1.76V18.89c0-0.38-0.02-1.08-0.08-1.521H250.131z M259.353,17.189c-0.04,0.561-0.08,1.2-0.08,2.001v3.96
		c0,4.302-0.84,6.142-2.32,7.782c-1.32,1.46-3.401,2.44-4.861,2.9l-2.101-2.2c2.001-0.46,3.681-1.221,4.901-2.521
		c1.36-1.501,1.62-3.001,1.62-6.121V19.19c0-0.801-0.04-1.44-0.12-2.001H259.353z"/>
	<path fill="#FFFFFF" d="M268.049,26.432l-2.44,0.92c-0.34-1.08-1.34-3.74-1.82-4.621l2.4-0.86
		C266.688,22.891,267.649,25.312,268.049,26.432z M278.211,22.271c-0.239,0.641-0.359,1.061-0.479,1.461
		c-0.521,2.02-1.36,4.101-2.721,5.86c-1.86,2.401-4.361,4.081-6.701,4.962l-2.101-2.141c2.2-0.58,4.98-2.101,6.642-4.181
		c1.359-1.701,2.32-4.361,2.54-6.862L278.211,22.271z M272.47,25.191l-2.4,0.84c-0.24-0.98-1.12-3.4-1.62-4.44l2.381-0.78
		C271.21,21.671,272.19,24.271,272.47,25.191z"/>
	<path fill="#FFFFFF" d="M293.536,28.112c-2.061-1.081-5.061-2.241-7.222-2.981v5.662c0,0.58,0.101,1.979,0.181,2.78h-3.121
		c0.12-0.78,0.2-1.98,0.2-2.78V19.31c0-0.72-0.06-1.72-0.2-2.42h3.121c-0.08,0.7-0.181,1.58-0.181,2.42v2.941
		c2.681,0.78,6.521,2.2,8.362,3.101L293.536,28.112z"/>
</g>
<g>
	<path fill="#FFFFFF" d="M311.874,37.723h-19.121l0.878-3.142l12.253-9.951c1.777-1.467,3.093-2.693,3.947-3.678
		c0.854-0.984,1.42-1.972,1.696-2.962c0.365-1.305,0.278-2.358-0.259-3.16c-0.538-0.803-1.451-1.204-2.74-1.204
		c-1.536,0-2.854,0.452-3.952,1.354c-1.1,0.903-1.867,2.138-2.306,3.706h-4.746c0.466-1.667,1.279-3.169,2.44-4.505
		c1.161-1.335,2.577-2.373,4.249-3.113s3.464-1.11,5.378-1.11c2.761,0,4.752,0.667,5.974,2.003c1.222,1.335,1.504,3.182,0.845,5.54
		c-0.382,1.367-1.183,2.8-2.401,4.298c-1.22,1.498-3.007,3.201-5.362,5.107l-8.956,7.167h13.203L311.874,37.723z"/>
</g>
</svg>
