<?xml version="1.0" encoding="utf-8"?>
<!-- Generator: Adobe Illustrator 16.0.0, SVG Export Plug-In . SVG Version: 6.00 Build 0)  -->
<!DOCTYPE svg PUBLIC "-//W3C//DTD SVG 1.1//EN" "http://www.w3.org/Graphics/SVG/1.1/DTD/svg11.dtd">
<svg version="1.1" id="Layer_1" xmlns="http://www.w3.org/2000/svg" xmlns:xlink="http://www.w3.org/1999/xlink" x="0px" y="0px"
	 width="121.728px" height="79.705px" viewBox="0 0 121.728 79.705" enable-background="new 0 0 121.728 79.705"
	 xml:space="preserve">
<g>
	<g>
		<g>
			<g>
				<g>
					<g>
						<g>
							<path fill="#464E58" d="M112.054,2.074v71.382c0,1.139-0.925,2.063-2.063,2.063H11.737c-1.139,0-2.063-0.924-2.063-2.063
								V2.074C9.675,0.924,10.599,0,11.737,0h98.254C111.129,0,112.054,0.924,112.054,2.074z"/>
						</g>
					</g>
					<g>
						<g>
							<g>
								<rect x="15.311" y="5.636" fill="#FFFFFF" width="91.107" height="55.046"/>
							</g>
						</g>
					</g>
				</g>
				<g>
					<g>
						<g>
							<path fill="#F2F2F2" d="M121.728,68.604c0,6.129-4.961,11.101-11.089,11.101H11.09C4.961,79.705,0,74.733,0,68.604H121.728z"
								/>
						</g>
					</g>
				</g>
			</g>
			<g>
				<g>
					<g>
						<g>
							<rect x="19.794" y="52.864" fill="#7CCEDC" width="7.897" height="7.817"/>
						</g>
					</g>
				</g>
				<g>
					<g>
						<g>
							<rect x="30.4" y="41.575" fill="#464E58" width="7.897" height="19.107"/>
						</g>
					</g>
				</g>
				<g>
					<g>
						<g>
							<rect x="41.007" y="47.22" fill="#FDDA7F" width="7.896" height="13.462"/>
						</g>
					</g>
				</g>
				<g>
					<g>
						<g>
							<rect x="51.612" y="32.825" fill="#F37C5A" width="7.897" height="27.856"/>
						</g>
					</g>
				</g>
				<g>
					<g>
						<g>
							<rect x="62.219" y="42.563" fill="#7CCEDC" width="7.897" height="18.119"/>
						</g>
					</g>
				</g>
				<g>
					<g>
						<g>
							<rect x="72.825" y="26.757" fill="#FDDA7F" width="7.896" height="33.925"/>
						</g>
					</g>
				</g>
				<g>
					<g>
						<g>
							<rect x="83.431" y="49.619" fill="#464E58" width="7.897" height="11.063"/>
						</g>
					</g>
				</g>
				<g>
					<g>
						<g>
							<rect x="94.037" y="30.849" fill="#F37C5A" width="7.897" height="29.833"/>
						</g>
					</g>
				</g>
			</g>
			<g>
				<g>
					<g>
						<polygon fill="#464E58" points="18.995,43.305 18.198,42.508 34.547,26.158 42.729,34.34 55.77,21.301 64.266,29.796 
							77.858,16.203 86.261,24.605 100.515,10.352 101.312,11.148 86.261,26.199 77.858,17.796 64.266,31.39 55.77,22.895 
							42.729,35.934 34.547,27.752 						"/>
					</g>
				</g>
			</g>
			<g>
				<g>
					<g>
						<path fill="#7CCEDC" d="M20.379,42.91c0,0.977-0.802,1.778-1.787,1.778c-0.977,0-1.778-0.802-1.778-1.778
							c0-0.985,0.802-1.778,1.778-1.778C19.577,41.132,20.379,41.925,20.379,42.91z"/>
					</g>
				</g>
			</g>
			<g>
				<g>
					<g>
						<path fill="#7CCEDC" d="M36.509,27.291c0,0.977-0.802,1.778-1.787,1.778c-0.977,0-1.778-0.802-1.778-1.778
							c0-0.985,0.802-1.778,1.778-1.778C35.707,25.512,36.509,26.306,36.509,27.291z"/>
					</g>
				</g>
			</g>
			<g>
				<g>
					<g>
						<path fill="#7CCEDC" d="M44.631,34.937c0,0.976-0.802,1.778-1.786,1.778c-0.977,0-1.779-0.802-1.779-1.778
							c0-0.985,0.803-1.778,1.779-1.778C43.829,33.159,44.631,33.952,44.631,34.937z"/>
					</g>
				</g>
			</g>
			<g>
				<g>
					<g>
						<path fill="#7CCEDC" d="M57.599,22.173c0,0.977-0.803,1.778-1.787,1.778c-0.977,0-1.779-0.802-1.779-1.778
							c0-0.985,0.803-1.778,1.779-1.778C56.796,20.395,57.599,21.188,57.599,22.173z"/>
					</g>
				</g>
			</g>
			<g>
				<g>
					<g>
						<path fill="#7CCEDC" d="M65.953,30.383c0,0.976-0.803,1.778-1.787,1.778c-0.977,0-1.778-0.802-1.778-1.778
							c0-0.985,0.802-1.779,1.778-1.779C65.15,28.604,65.953,29.397,65.953,30.383z"/>
					</g>
				</g>
			</g>
			<g>
				<g>
					<g>
						<path fill="#7CCEDC" d="M79.589,17.262c0,0.976-0.803,1.778-1.787,1.778c-0.977,0-1.779-0.802-1.779-1.778
							c0-0.985,0.803-1.779,1.779-1.779C78.786,15.483,79.589,16.277,79.589,17.262z"/>
					</g>
				</g>
			</g>
			<g>
				<g>
					<g>
						<path fill="#7CCEDC" d="M88.088,25.454c0,0.977-0.802,1.778-1.787,1.778c-0.977,0-1.778-0.802-1.778-1.778
							c0-0.985,0.802-1.778,1.778-1.778C87.286,23.676,88.088,24.469,88.088,25.454z"/>
					</g>
				</g>
			</g>
			<g>
				<g>
					<g>
						<path fill="#7CCEDC" d="M103.405,10.253c0,0.977-0.803,1.778-1.788,1.778c-0.976,0-1.778-0.802-1.778-1.778
							c0-0.985,0.803-1.778,1.778-1.778C102.603,8.475,103.405,9.269,103.405,10.253z"/>
					</g>
				</g>
			</g>
		</g>
		<g>
			<g>
				<g>
					
						<rect x="68.751" y="40.592" transform="matrix(0.8503 -0.5263 0.5263 0.8503 -14.2959 45.3559)" fill="#25313B" width="7.668" height="14.435"/>
				</g>
				<g>
					<g>
						<g>
							<g>
								<path fill="#F37C5A" d="M77.339,44.724l8.637,13.955c0.464,0.75,0.233,1.729-0.517,2.193l-6.936,4.292
									c-0.75,0.464-1.729,0.234-2.193-0.517l-8.636-13.954L77.339,44.724z"/>
							</g>
						</g>
					</g>
					<g>
						
							<rect x="71.77" y="43.383" transform="matrix(-0.5263 -0.8503 0.8503 -0.5263 70.2384 137.2407)" fill="#DA664B" width="3.158" height="11.343"/>
					</g>
					<g>
						<g>
							<g>
								
									<rect x="66.029" y="46.658" transform="matrix(0.8503 -0.5263 0.5263 0.8503 -14.3628 45.4835)" fill="#F37C5A" width="13.5" height="2.667"/>
							</g>
						</g>
					</g>
				</g>
				<g>
					<g>
						<path fill="#464E58" d="M50.99,12.916c-8.787,5.439-11.499,16.958-6.061,25.746c5.433,8.779,16.958,11.5,25.745,6.061
							c8.779-5.433,11.494-16.967,6.062-25.746C71.298,10.189,59.77,7.483,50.99,12.916z M67.953,40.325
							c-6.361,3.937-14.703,1.973-18.635-4.379c-3.937-6.361-1.973-14.703,4.389-18.64c6.353-3.931,14.693-1.968,18.631,4.394
							C76.269,28.052,74.306,36.393,67.953,40.325z"/>
					</g>
				</g>
			</g>
		</g>
	</g>
</g>
</svg>
