<?xml version="1.0" encoding="utf-8"?>
<!-- Generator: Adobe Illustrator 16.0.0, SVG Export Plug-In . SVG Version: 6.00 Build 0)  -->
<!DOCTYPE svg PUBLIC "-//W3C//DTD SVG 1.1//EN" "http://www.w3.org/Graphics/SVG/1.1/DTD/svg11.dtd">
<svg version="1.1" id="Layer_1" xmlns="http://www.w3.org/2000/svg" xmlns:xlink="http://www.w3.org/1999/xlink" x="0px" y="0px"
	 width="48.562px" height="63.278px" viewBox="0 0 48.562 63.278" enable-background="new 0 0 48.562 63.278" xml:space="preserve">
<g>
	<g>
		<polygon fill-rule="evenodd" clip-rule="evenodd" fill="#DCDCE5" points="0,0 38.628,0 48.562,9.933 48.562,63.278 0,63.278 		"/>
	</g>
	<g>
		<polygon fill-rule="evenodd" clip-rule="evenodd" fill="#C2C2C8" points="38.63,9.933 48.562,19.865 48.562,9.933 43.596,4.966 		
			"/>
	</g>
	<g>
		<polygon fill-rule="evenodd" clip-rule="evenodd" fill="#A4DAE4" points="38.63,0 48.562,9.933 38.63,9.933 		"/>
	</g>
	<g>
		<g>
			<rect x="3.363" y="22.775" fill-rule="evenodd" clip-rule="evenodd" fill="#F4F4F6" width="18.135" height="1.715"/>
		</g>
		<g>
			<rect x="3.363" y="25.816" fill-rule="evenodd" clip-rule="evenodd" fill="#F4F4F6" width="6.02" height="1.715"/>
		</g>
		<g>
			<rect x="3.363" y="28.818" fill-rule="evenodd" clip-rule="evenodd" fill="#F4F4F6" width="18.135" height="1.715"/>
		</g>
		<g>
			<rect x="3.363" y="31.859" fill-rule="evenodd" clip-rule="evenodd" fill="#F4F4F6" width="18.135" height="1.715"/>
		</g>
		<g>
			<rect x="23.397" y="22.775" fill-rule="evenodd" clip-rule="evenodd" fill="#F4F4F6" width="22.188" height="1.715"/>
		</g>
		<g>
			<rect x="23.397" y="25.816" fill-rule="evenodd" clip-rule="evenodd" fill="#F4F4F6" width="22.188" height="1.715"/>
		</g>
		<g>
			<rect x="23.397" y="31.859" fill-rule="evenodd" clip-rule="evenodd" fill="#F4F4F6" width="22.188" height="1.715"/>
		</g>
		<g>
			<rect x="15.405" y="25.816" fill-rule="evenodd" clip-rule="evenodd" fill="#F4F4F6" width="6.093" height="1.715"/>
		</g>
		<g>
			<rect x="9.966" y="25.816" fill-rule="evenodd" clip-rule="evenodd" fill="#E64037" width="4.785" height="1.715"/>
		</g>
		<g>
			<rect x="23.397" y="28.818" fill-rule="evenodd" clip-rule="evenodd" fill="#F4F4F6" width="6.02" height="1.715"/>
		</g>
		<g>
			<rect x="35.439" y="28.818" fill-rule="evenodd" clip-rule="evenodd" fill="#F4F4F6" width="10.146" height="1.715"/>
		</g>
		<g>
			<rect x="30" y="28.818" fill-rule="evenodd" clip-rule="evenodd" fill="#E64037" width="4.785" height="1.715"/>
		</g>
	</g>
	<g>
		<g>
			<rect x="27.451" y="35.043" fill-rule="evenodd" clip-rule="evenodd" fill="#F4F4F6" width="18.135" height="1.716"/>
		</g>
		<g>
			<rect x="39.565" y="38.085" fill-rule="evenodd" clip-rule="evenodd" fill="#F4F4F6" width="6.021" height="1.715"/>
		</g>
		<g>
			<rect x="27.451" y="41.087" fill-rule="evenodd" clip-rule="evenodd" fill="#F4F4F6" width="18.135" height="1.715"/>
		</g>
		<g>
			<rect x="27.451" y="44.128" fill-rule="evenodd" clip-rule="evenodd" fill="#F4F4F6" width="18.135" height="1.715"/>
		</g>
		<g>
			<rect x="3.363" y="35.043" fill-rule="evenodd" clip-rule="evenodd" fill="#F4F4F6" width="22.188" height="1.716"/>
		</g>
		<g>
			<rect x="3.363" y="38.085" fill-rule="evenodd" clip-rule="evenodd" fill="#F4F4F6" width="22.188" height="1.715"/>
		</g>
		<g>
			<rect x="3.363" y="44.128" fill-rule="evenodd" clip-rule="evenodd" fill="#F4F4F6" width="22.188" height="1.715"/>
		</g>
		<g>
			<rect x="27.451" y="38.085" fill-rule="evenodd" clip-rule="evenodd" fill="#F4F4F6" width="6.093" height="1.715"/>
		</g>
		<g>
			<rect x="34.198" y="38.085" fill-rule="evenodd" clip-rule="evenodd" fill="#E64037" width="4.785" height="1.715"/>
		</g>
		<g>
			<rect x="19.531" y="41.087" fill-rule="evenodd" clip-rule="evenodd" fill="#F4F4F6" width="6.021" height="1.715"/>
		</g>
		<g>
			<rect x="3.363" y="41.087" fill-rule="evenodd" clip-rule="evenodd" fill="#F4F4F6" width="10.146" height="1.715"/>
		</g>
		<g>
			<rect x="14.164" y="41.087" fill-rule="evenodd" clip-rule="evenodd" fill="#E64037" width="4.785" height="1.715"/>
		</g>
	</g>
	<g>
		<g>
			<path fill-rule="evenodd" clip-rule="evenodd" fill="#E64037" d="M37.555,54.626c-0.509,0.047-1.015,0.051-1.515,0.016
				c0.142-0.858-0.394-1.697-1.252-1.918s-1.731,0.255-2.022,1.073c-0.458-0.212-0.899-0.461-1.318-0.744
				c0.55-0.672,0.505-1.665-0.127-2.285s-1.628-0.645-2.289-0.079c-0.289-0.409-0.547-0.846-0.771-1.305
				c0.814-0.307,1.273-1.189,1.035-2.043c-0.238-0.854-1.087-1.372-1.942-1.214c-0.046-0.509-0.051-1.015-0.016-1.515
				c0.858,0.142,1.697-0.394,1.918-1.252c0.22-0.857-0.255-1.73-1.074-2.021c0.212-0.459,0.46-0.9,0.743-1.318
				c0.672,0.55,1.666,0.505,2.286-0.127c0.62-0.634,0.645-1.629,0.079-2.29c0.409-0.288,0.845-0.546,1.304-0.77
				c0.307,0.813,1.19,1.272,2.043,1.034s1.372-1.087,1.213-1.942c0.509-0.048,1.015-0.052,1.515-0.016
				c-0.142,0.858,0.394,1.697,1.252,1.918c0.857,0.221,1.73-0.255,2.021-1.073c0.458,0.212,0.9,0.46,1.318,0.743
				c-0.55,0.673-0.505,1.666,0.127,2.286c0.633,0.62,1.628,0.645,2.29,0.078c0.289,0.41,0.546,0.846,0.77,1.305
				c-0.813,0.307-1.272,1.189-1.034,2.043c0.238,0.854,1.087,1.373,1.942,1.215c0.046,0.508,0.051,1.015,0.016,1.514
				c-0.858-0.141-1.698,0.395-1.918,1.253c-0.221,0.857,0.255,1.73,1.074,2.021c-0.212,0.458-0.46,0.899-0.744,1.318
				c-0.672-0.55-1.666-0.506-2.285,0.127c-0.621,0.633-0.645,1.628-0.08,2.289c-0.409,0.289-0.844,0.547-1.304,0.771
				c-0.307-0.814-1.19-1.272-2.043-1.035C37.915,52.921,37.396,53.771,37.555,54.626L37.555,54.626z M37.83,49.317
				c2.232-0.622,3.537-2.935,2.915-5.167c-0.622-2.231-2.936-3.536-5.167-2.914c-2.232,0.622-3.537,2.936-2.915,5.167
				S35.598,49.939,37.83,49.317z"/>
		</g>
		<g>
			<circle fill-rule="evenodd" clip-rule="evenodd" fill="#E64037" cx="36.703" cy="45.276" r="2.966"/>
		</g>
		<g>
			<circle fill-rule="evenodd" clip-rule="evenodd" fill="#E64037" cx="36.703" cy="45.276" r="2.966"/>
		</g>
	</g>
	<g>
		<g>
			<path fill-rule="evenodd" clip-rule="evenodd" fill="#E64037" d="M24.07,59.161c-0.347,0.083-0.695,0.136-1.044,0.161
				c0.013-0.605-0.44-1.132-1.055-1.198c-0.614-0.067-1.169,0.349-1.288,0.942c-0.338-0.102-0.667-0.229-0.984-0.383
				c0.313-0.519,0.183-1.199-0.315-1.564c-0.499-0.365-1.188-0.283-1.588,0.173c-0.24-0.253-0.461-0.528-0.661-0.823
				c0.531-0.293,0.76-0.947,0.511-1.513c-0.25-0.565-0.887-0.839-1.461-0.644c-0.083-0.348-0.136-0.696-0.161-1.045
				c0.606,0.013,1.132-0.439,1.199-1.055c0.067-0.613-0.348-1.169-0.942-1.288c0.101-0.337,0.228-0.667,0.382-0.983
				c0.519,0.313,1.2,0.183,1.564-0.315c0.365-0.499,0.283-1.188-0.173-1.587c0.253-0.24,0.528-0.462,0.824-0.662
				c0.292,0.531,0.947,0.76,1.513,0.511s0.838-0.887,0.644-1.461c0.346-0.083,0.695-0.136,1.043-0.161
				c-0.012,0.605,0.44,1.132,1.055,1.198c0.614,0.067,1.169-0.349,1.288-0.941c0.338,0.101,0.667,0.228,0.984,0.382
				c-0.313,0.519-0.183,1.199,0.315,1.564c0.499,0.365,1.188,0.283,1.588-0.173c0.24,0.253,0.461,0.528,0.661,0.823
				c-0.53,0.293-0.759,0.947-0.51,1.513s0.887,0.839,1.461,0.645c0.083,0.347,0.137,0.695,0.162,1.044
				c-0.606-0.013-1.132,0.439-1.199,1.055c-0.067,0.613,0.348,1.169,0.942,1.288c-0.101,0.337-0.229,0.667-0.382,0.983
				c-0.519-0.313-1.2-0.183-1.564,0.315c-0.365,0.499-0.283,1.188,0.173,1.587c-0.254,0.24-0.528,0.462-0.823,0.662
				c-0.293-0.531-0.948-0.76-1.513-0.511C24.149,57.949,23.875,58.586,24.07,59.161L24.07,59.161z M23.731,55.47
				c1.479-0.651,2.148-2.378,1.497-3.855c-0.651-1.479-2.377-2.148-3.855-1.498c-1.478,0.652-2.148,2.379-1.497,3.856
				S22.253,56.121,23.731,55.47z"/>
		</g>
		<g>
			<circle fill-rule="evenodd" clip-rule="evenodd" fill="#E64037" cx="22.552" cy="52.794" r="2.068"/>
		</g>
		<g>
			<circle fill-rule="evenodd" clip-rule="evenodd" fill="#E64037" cx="22.552" cy="52.794" r="2.068"/>
		</g>
	</g>
</g>
</svg>
