<?xml version="1.0" encoding="utf-8"?>
<!-- Generator: Adobe Illustrator 16.0.0, SVG Export Plug-In . SVG Version: 6.00 Build 0)  -->
<!DOCTYPE svg PUBLIC "-//W3C//DTD SVG 1.1//EN" "http://www.w3.org/Graphics/SVG/1.1/DTD/svg11.dtd">
<svg version="1.1" id="レイヤー_1" xmlns="http://www.w3.org/2000/svg" xmlns:xlink="http://www.w3.org/1999/xlink" x="0px"
	 y="0px" width="96.1px" height="93.227px" viewBox="0 0 96.1 93.227" enable-background="new 0 0 96.1 93.227"
	 xml:space="preserve">
<g>
	<g>
		<path fill-rule="evenodd" clip-rule="evenodd" fill="#FFCC5C" d="M96.1,71.861L85.648,72.07
			c9.269-14.238,10.403-33.042,1.327-48.76C74.106,1.02,45.602-6.618,23.311,6.252C1.02,19.121-6.618,47.625,6.252,69.915
			c12.764,22.109,40.903,29.791,63.111,17.361l0.01,0.017L96.1,71.861z"/>
	</g>
</g>
<g>
	<path fill="#E84830" d="M32.326,66.595c-0.14,1.321-0.396,2.689-0.735,4.026l3.123,11.968l-1.969,0.514l-2.323-8.901
		c-0.251,0.604-0.528,1.179-0.82,1.702c-0.323-0.455-1.182-1.459-1.657-1.856c1.158-1.978,2.012-4.843,2.25-7.565L32.326,66.595z
		 M43.246,65.939l2.455,9.408l-2.021,0.527l-0.182-0.695l-2.456,0.641l1.255,4.809l-2.039,0.532l-1.255-4.809l-2.387,0.623
		l0.228,0.871l-1.934,0.505l-2.502-9.583l4.321-1.128l-0.696-2.665l2.039-0.532l0.695,2.665L43.246,65.939z M34.834,70.146
		l0.409,1.568l2.387-0.623l-0.409-1.568L34.834,70.146z M38.512,74.471l-0.414-1.586l-2.387,0.623l0.414,1.586L38.512,74.471z
		 M39.259,68.99l0.409,1.568l2.457-0.641l-0.409-1.568L39.259,68.99z M43.007,73.297l-0.413-1.586l-2.457,0.642l0.414,1.586
		L43.007,73.297z"/>
	<path fill="#E84830" d="M62.361,69.734c-0.807,0.975-1.792,1.975-2.691,2.806c1.297,0.406,2.77,0.561,4.45,0.438
		c-0.317,0.566-0.688,1.575-0.82,2.204c-4.174,0.122-7.031-1.345-9.338-4.261l-2.003,0.523l0.964,3.693
		c1.174-0.493,2.413-1.021,3.617-1.54l0.564,1.807c-2.551,1.131-5.313,2.316-7.338,3.181l-0.967-1.775
		c0.609-0.234,1.296-0.525,2.058-0.816l-1.041-3.99l-2.875,0.751l-0.478-1.83l2.893-0.755l-1.983-7.596l10.993-2.869l0.441,1.69
		L49.94,63.71l0.24,0.923l8.381-2.188l0.418,1.603l-8.381,2.188l0.228,0.871l8.381-2.188l0.418,1.603l-8.38,2.188l0.236,0.906
		l10.68-2.788l0.478,1.83l-1.864,0.487L62.361,69.734z M56.123,70.358c0.561,0.578,1.168,1.053,1.849,1.451
		c0.782-0.78,1.599-1.719,2.192-2.507L56.123,70.358z"/>
	<path fill="#E84830" d="M77.244,57.364l2.269,8.693l-2.177,0.568l-0.228-0.871l-3.938,1.027l1.419,5.436l-2.195,0.573l-1.419-5.436
		l-3.92,1.023l0.25,0.959l-2.09,0.545l-2.292-8.781l6.011-1.568l-0.787-3.015l2.195-0.573l0.787,3.015L77.244,57.364z
		 M70.443,65.316l-0.978-3.745l-3.92,1.023l0.978,3.745L70.443,65.316z M76.576,63.716l-0.978-3.745l-3.938,1.027l0.978,3.745
		L76.576,63.716z"/>
</g>
<g>
	<path fill="#E84830" d="M32.766,61.551l-4.097,1.069l-4.121-15.789l-4.494,2.793l-0.869-3.331l7.748-5.292l0.439-0.115
		L32.766,61.551z"/>
	<path fill="#E84830" d="M51.679,56.614l-14.146,3.692L36.801,57.5l4.818-8.857c0.655-1.24,1.105-2.292,1.35-3.153
		c0.245-0.86,0.279-1.627,0.104-2.298c-0.239-0.916-0.659-1.577-1.259-1.979c-0.601-0.405-1.33-0.494-2.19-0.27
		c-0.926,0.241-1.572,0.75-1.939,1.529c-0.367,0.776-0.415,1.685-0.144,2.724l-4.11,1.073c-0.328-1.257-0.328-2.482,0-3.68
		c0.329-1.195,0.965-2.231,1.906-3.108c0.942-0.876,2.107-1.496,3.497-1.858c2.126-0.555,3.91-0.477,5.353,0.237
		c1.443,0.714,2.408,2.001,2.894,3.862c0.267,1.021,0.272,2.129,0.02,3.325c-0.253,1.197-0.838,2.666-1.755,4.41l-3.4,6.171
		l8.872-2.316L51.679,56.614z"/>
	<path fill="#E84830" d="M63.098,53.634l-4.097,1.069L54.88,38.914l-4.494,2.793l-0.869-3.331l7.748-5.293l0.439-0.114
		L63.098,53.634z"/>
	<path fill="#E84830" d="M64.597,41.373c-0.221-0.844-0.125-1.6,0.285-2.269c0.411-0.67,1.061-1.12,1.948-1.352
		c0.901-0.235,1.693-0.164,2.377,0.212c0.685,0.376,1.142,1.009,1.374,1.897l0.177,0.68c0.222,0.851,0.127,1.605-0.287,2.266
		c-0.413,0.66-1.063,1.104-1.952,1.337c-0.895,0.233-1.685,0.162-2.371-0.214c-0.688-0.375-1.146-1.005-1.376-1.887L64.597,41.373z
		 M66.601,41.628c0.099,0.377,0.287,0.653,0.564,0.826s0.592,0.214,0.944,0.122c0.354-0.093,0.604-0.281,0.75-0.569
		c0.147-0.287,0.169-0.626,0.067-1.017l-0.183-0.699c-0.099-0.378-0.282-0.655-0.551-0.835c-0.269-0.179-0.586-0.221-0.951-0.125
		c-0.347,0.09-0.597,0.278-0.751,0.564c-0.154,0.285-0.178,0.633-0.07,1.043L66.601,41.628z M70.762,50.533l-1.52-0.37l3.911-12.507
		l1.52,0.37L70.762,50.533z M73.193,47.396c-0.222-0.851-0.123-1.608,0.295-2.273c0.419-0.664,1.069-1.111,1.951-1.341
		c0.895-0.234,1.685-0.166,2.37,0.204c0.685,0.369,1.146,1.005,1.38,1.905l0.178,0.68c0.221,0.844,0.128,1.597-0.278,2.258
		s-1.06,1.11-1.96,1.346c-0.908,0.236-1.703,0.163-2.388-0.216c-0.685-0.38-1.14-1.001-1.365-1.863L73.193,47.396z M75.2,47.659
		c0.091,0.348,0.281,0.612,0.572,0.8c0.291,0.187,0.606,0.234,0.946,0.146c0.769-0.2,1.042-0.726,0.82-1.576l-0.188-0.718
		c-0.099-0.378-0.285-0.654-0.56-0.828c-0.273-0.173-0.588-0.215-0.94-0.122c-0.353,0.092-0.606,0.281-0.76,0.566
		c-0.154,0.285-0.18,0.627-0.076,1.024L75.2,47.659z"/>
</g>
<g>
	<path fill="#E84830" d="M42.775,26.896l-6.848,1.787l1.501,5.749l-2.161,0.564l-1.5-5.75l-6.777,1.77l-0.55-2.107l6.776-1.77
		l-1.377-5.279l-5.871,1.533l-0.537-2.056l13.868-3.62l0.536,2.056L34,21.296l1.378,5.279l6.847-1.787L42.775,26.896z
		 M29.076,23.177c0.865,0.964,1.874,2.265,2.32,3.19l-1.856,1.154c-0.415-0.878-1.355-2.27-2.218-3.292L29.076,23.177z
		 M36.484,25.113c0.295-1.155,0.521-2.854,0.557-4.072l2.358-0.02c-0.277,1.506-0.623,3.104-0.966,4.141L36.484,25.113z"/>
	<path fill="#E84830" d="M58.068,14.623c0,0,0.169,0.719,0.241,0.997c1.798,7.813,2.281,10.664,1.825,11.769
		c-0.297,0.784-0.7,1.095-1.383,1.402c-0.6,0.27-1.615,0.515-2.617,0.74c-0.193-0.602-0.704-1.417-1.247-1.926
		c1.033-0.178,1.956-0.418,2.409-0.537c0.297-0.077,0.492-0.184,0.633-0.499c0.364-0.673-0.051-3.263-1.456-9.428l-5.522,1.441
		c-0.164,0.657-0.34,1.262-0.545,1.835l4.792-1.25l0.482,1.848l-5.088,1.328l-0.377-1.447c-0.115,0.272-0.218,0.522-0.342,0.76
		c-0.479-0.266-1.54-0.697-2.123-0.861l0.142-0.241l-0.889,0.232l1.051,4.024c0.528-0.399,1.063-0.78,1.573-1.175l0.953,1.799
		c-1.724,1.381-3.612,2.842-5.086,3.97l-1.282-1.917c0.572-0.373,1.284-0.855,2.039-1.388L45,21.309l-1.864,0.486l-0.51-1.951
		l1.865-0.486l-0.96-3.676l2.003-0.522l0.96,3.676l1.638-0.428l0.264,1.01c0.604-1.608,0.906-3.585,0.908-5.503l2.23-0.08
		c-0.018,0.861-0.074,1.713-0.192,2.544L58.068,14.623z M57.034,23.992c-1.737,1.329-3.641,2.737-5.122,3.831l-1.328-1.737
		c1.41-0.871,3.596-2.334,5.646-3.744L57.034,23.992z"/>
</g>
</svg>
