<?xml version="1.0" encoding="utf-8"?>
<!-- Generator: Adobe Illustrator 16.0.0, SVG Export Plug-In . SVG Version: 6.00 Build 0)  -->
<!DOCTYPE svg PUBLIC "-//W3C//DTD SVG 1.1//EN" "http://www.w3.org/Graphics/SVG/1.1/DTD/svg11.dtd">
<svg version="1.1" id="レイヤー_1" xmlns="http://www.w3.org/2000/svg" xmlns:xlink="http://www.w3.org/1999/xlink" x="0px"
	 y="0px" width="75.5px" height="75.503px" viewBox="0 0 75.5 75.503" enable-background="new 0 0 75.5 75.503"
	 xml:space="preserve">
<g>
	<g>
		<path fill-rule="evenodd" clip-rule="evenodd" fill="#FFCC5C" d="M75.5,37.752C75.5,16.902,58.599,0,37.75,0
			C16.9,0-0.001,16.902,0,37.75c-0.001,20.659,16.596,37.432,37.183,37.737v0.016h27.776l-8.753-4.823
			C67.716,64.213,75.5,51.895,75.5,37.752z"/>
	</g>
</g>
<g>
	<path fill="#E84830" d="M23.815,26.109c-0.195,0.33-0.48,0.99-0.615,1.335c-0.45,1.2-1.125,2.7-2.025,4.08
		c1.32,1.08,2.565,2.235,3.57,3.3L23.2,36.548c-1.05-1.229-2.115-2.265-3.315-3.3c-1.32,1.59-3.045,3.255-5.58,4.635l-1.725-1.545
		c2.445-1.185,4.23-2.64,5.7-4.425c-1.065-0.84-2.49-1.92-4.02-2.835l1.29-1.545c1.2,0.75,2.745,1.8,3.96,2.7
		c0.765-1.2,1.245-2.385,1.65-3.555c0.135-0.375,0.285-0.99,0.36-1.38L23.815,26.109z"/>
	<path fill="#E84830" d="M29.406,25.614c-0.03,0.33-0.045,0.66-0.045,1.141v5.069c0,0.375,0.015,0.96,0.045,1.305h-2.22
		c0.015-0.284,0.075-0.869,0.075-1.319v-5.055c0-0.285-0.016-0.811-0.061-1.141H29.406z M36.321,25.479
		c-0.03,0.42-0.061,0.9-0.061,1.5v2.97c0,3.225-0.63,4.605-1.74,5.835c-0.989,1.095-2.55,1.831-3.645,2.175l-1.575-1.65
		c1.5-0.346,2.761-0.915,3.675-1.891c1.021-1.125,1.216-2.25,1.216-4.59v-2.85c0-0.6-0.03-1.08-0.091-1.5H36.321z"/>
	<path fill="#E84830" d="M42.887,32.409l-1.83,0.69c-0.255-0.811-1.005-2.806-1.365-3.465l1.8-0.646
		C41.867,29.754,42.586,31.569,42.887,32.409z M50.506,29.289c-0.18,0.48-0.27,0.795-0.36,1.096c-0.39,1.515-1.02,3.074-2.039,4.395
		c-1.396,1.8-3.271,3.06-5.025,3.72l-1.575-1.605c1.65-0.436,3.735-1.575,4.98-3.135c1.02-1.275,1.739-3.271,1.904-5.146
		L50.506,29.289z M46.202,31.479l-1.8,0.63c-0.18-0.735-0.84-2.55-1.215-3.33l1.784-0.585
		C45.256,28.839,45.992,30.789,46.202,31.479z"/>
	<path fill="#E84830" d="M62.049,33.668c-1.545-0.81-3.795-1.68-5.415-2.234v4.245c0,0.435,0.075,1.485,0.135,2.084h-2.34
		c0.09-0.585,0.15-1.485,0.15-2.084v-8.61c0-0.54-0.045-1.29-0.15-1.814h2.34c-0.06,0.524-0.135,1.185-0.135,1.814v2.205
		c2.01,0.585,4.89,1.65,6.27,2.325L62.049,33.668z"/>
	<path fill="#E84830" d="M40.715,64.119H37.17V46.984l-5.229,1.783v-2.988l8.321-3.062h0.454V64.119z"/>
</g>
</svg>
