<?xml version="1.0" encoding="utf-8"?>
<!-- Generator: Adobe Illustrator 16.0.0, SVG Export Plug-In . SVG Version: 6.00 Build 0)  -->
<!DOCTYPE svg PUBLIC "-//W3C//DTD SVG 1.1//EN" "http://www.w3.org/Graphics/SVG/1.1/DTD/svg11.dtd">
<svg version="1.1" id="Layer_1" xmlns="http://www.w3.org/2000/svg" xmlns:xlink="http://www.w3.org/1999/xlink" x="0px" y="0px"
	 width="112.667px" height="112.666px" viewBox="0.645 -4.201 112.667 112.666"
	 enable-background="new 0.645 -4.201 112.667 112.666" xml:space="preserve">
<g>
	<g>
		<circle id="SVGID_1_" fill="#FFCC5C" cx="56.978" cy="52.132" r="56.333"/>
	</g>
	<g>
		<g>
			<defs>
				<circle id="SVGID_2_" cx="56.978" cy="52.132" r="56.333"/>
			</defs>
			<clipPath id="SVGID_3_">
				<use xlink:href="#SVGID_2_"  overflow="visible"/>
			</clipPath>
			<g clip-path="url(#SVGID_3_)">
				<g>
					<path fill="#D3EEE4" d="M95.638,60.706H19.154c-0.57,0-1.032-0.463-1.032-1.031V21.433c0-0.57,0.462-1.031,1.032-1.031h76.482
						c0.569,0,1.03,0.461,1.03,1.031v38.242C96.668,60.243,96.206,60.706,95.638,60.706z"/>
					<path d="M95.638,60.706H19.154c-0.57,0-1.032-0.463-1.032-1.031V21.433c0-0.57,0.462-1.031,1.032-1.031h76.482
						c0.569,0,1.03,0.461,1.03,1.031v38.242C96.668,60.243,96.206,60.706,95.638,60.706z M20.186,58.644h74.42v-36.18h-74.42V58.644
						z"/>
					<path d="M90.94,29.999c-2.135,0-3.871-1.736-3.871-3.871c0-0.57-0.461-1.031-1.031-1.031H75.965H28.752
						c-0.569,0-1.031,0.461-1.031,1.031c0,2.135-1.736,3.871-3.87,3.871c-0.57,0-1.032,0.461-1.032,1.031v19.045
						c0,0.57,0.462,1.031,1.032,1.031c2.134,0,3.87,1.736,3.87,3.871c0,0.57,0.462,1.031,1.031,1.031h17.443h39.843
						c0.57,0,1.031-0.461,1.031-1.031c0-2.135,1.736-3.871,3.871-3.871c0.569,0,1.031-0.461,1.031-1.031V31.03
						C91.972,30.46,91.511,29.999,90.94,29.999z"/>
					<path fill="#FFFFFF" d="M89.909,49.134c-2.445,0.432-4.383,2.365-4.813,4.814H46.195H29.693
						c-0.431-2.449-2.366-4.383-4.813-4.814V31.972c2.446-0.432,4.382-2.365,4.813-4.813h46.272h9.132
						c0.43,2.447,2.364,4.381,4.813,4.813V49.134z"/>
					<g>
						<path fill="#FFFFFF" d="M40.216,101.431l-1.663-1.668l3.431-3.422c0.221-0.221,0.52-0.346,0.832-0.346H72.29L94.058,74.22
							c1.76-1.758,1.76-4.617,0.002-6.375c-0.853-0.85-1.979-1.318-3.181-1.318c-1.203,0-2.336,0.471-3.187,1.318l-14.16,14.162
							l-1.695-1.635l14.191-14.191c1.295-1.295,3.018-2.01,4.852-2.01c1.828,0,3.551,0.715,4.846,2.01
							c1.297,1.297,2.01,3.021,2.01,4.854c0,1.83-0.713,3.557-2.01,4.854L73.61,98.005c-0.221,0.221-0.521,0.346-0.832,0.346H43.302
							L40.216,101.431z"/>
						<path d="M84.711,41.585v-2.063H68.907c-0.098-1.078-0.332-2.133-0.719-3.137h8.326v-2.063h-9.394
							c-2.115-3.305-5.774-5.35-9.729-5.35c-3.951,0-7.61,2.045-9.728,5.35h-9.393v2.063H46.6c-0.387,1.004-0.624,2.059-0.72,3.137
							H30.079v2.063h15.804c0.097,1.078,0.333,2.131,0.72,3.135h-8.328v2.063h9.393c2.115,3.305,5.777,5.35,9.728,5.35
							c3.955,0,7.614-2.045,9.729-5.35h9.392V44.72h-8.328c0.389-1.004,0.623-2.057,0.721-3.135H84.711z M65.67,45.243
							c-1.685,2.975-4.854,4.826-8.274,4.826c-3.419,0-6.59-1.852-8.274-4.826c-0.017-0.031-0.036-0.061-0.057-0.088
							c-0.775-1.398-1.185-2.986-1.185-4.602c0-1.616,0.409-3.203,1.185-4.6c0.021-0.031,0.04-0.061,0.057-0.092
							c1.685-2.975,4.855-4.824,8.274-4.824c3.42,0,6.592,1.85,8.274,4.824c0.019,0.031,0.035,0.061,0.058,0.09
							c0.774,1.396,1.186,2.984,1.186,4.602c0,1.615-0.41,3.203-1.184,4.598C65.706,45.183,65.688,45.212,65.67,45.243z"/>
						<g id="XMLID_19798_">
							<path d="M95.724,66.181c-1.295-1.295-3.017-2.01-4.845-2.01c-1.834,0-3.558,0.715-4.853,2.01L73.79,78.419
								c-0.141-0.498-0.346-0.979-0.609-1.428c-0.021-0.035-0.045-0.07-0.063-0.105c-0.109-0.176-0.228-0.344-0.354-0.51
								c-0.037-0.049-0.074-0.098-0.113-0.146c-0.157-0.191-0.323-0.383-0.508-0.559c-1.201-1.154-2.793-1.789-4.492-1.789
								l-24.153,0.252c-0.309,0.002-0.604,0.127-0.821,0.344l-13.87,13.871l-2.041-2.041c-0.46-0.459-1.205-0.459-1.665,0
								l-7.771,7.771c-0.22,0.221-0.345,0.521-0.345,0.832c0,0.314,0.125,0.613,0.345,0.834l21.281,21.273
								c0.229,0.229,0.531,0.344,0.832,0.344c0.302,0,0.603-0.115,0.832-0.344l7.771-7.766c0.222-0.221,0.347-0.521,0.347-0.832
								s-0.124-0.611-0.345-0.834l-6.993-6.99l2.251-2.246H72.78c0.313,0,0.611-0.125,0.832-0.348l22.113-22.121
								c1.297-1.295,2.01-3.021,2.01-4.854S97.021,67.478,95.724,66.181z"/>
						</g>
						<g>
							<polygon fill="#06C7CA" points="47.211,108.421 39.438,116.185 18.158,94.911 25.929,87.142 28.803,90.015 39.385,100.597 
															"/>
						</g>
						<path fill="#FFFFFF" d="M94.058,74.22L72.29,95.995H42.815c-0.313,0-0.611,0.125-0.832,0.346l-2.598,2.59l-8.918-8.916
							l13.53-13.531l23.662-0.246c1.076,0,2.09,0.402,2.848,1.131c0.746,0.721,1.156,1.67,1.156,2.67
							c0,0.293-0.035,0.568-0.109,0.865c-0.412,1.73-2.016,2.941-3.895,2.941l-16.03-0.008v2.354l16.03,0.008
							c0.346,0,0.684-0.025,1.016-0.076c0.018-0.004,0.031-0.004,0.049-0.008c0.32-0.053,0.635-0.131,0.938-0.229
							c0.021-0.006,0.045-0.012,0.064-0.018c0.301-0.1,0.59-0.221,0.866-0.359c0.023-0.012,0.043-0.021,0.064-0.031
							c0.278-0.143,0.543-0.307,0.795-0.484c0.016-0.016,0.032-0.021,0.049-0.035c0.254-0.188,0.49-0.393,0.713-0.609
							c0.011-0.012,0.021-0.02,0.029-0.029c0.225-0.227,0.432-0.469,0.616-0.729c0.007-0.004,0.011-0.012,0.015-0.019
							c0.188-0.264,0.356-0.543,0.502-0.838c0.002-0.002,0.004-0.004,0.004-0.006c0.146-0.299,0.271-0.608,0.365-0.933L87.69,67.847
							c0.853-0.851,1.982-1.318,3.188-1.318c1.199,0,2.328,0.47,3.181,1.318C95.815,69.603,95.815,72.462,94.058,74.22z"/>
					</g>
				</g>
				<circle fill="#FFDB93" cx="57.396" cy="40.554" r="9.584"/>
				<g enable-background="new    ">
					<path d="M56.473,46.781v-2.952h-3.046v-0.974h3.046v-1.271h-3.046V40.61h2.481L52.5,35.178h2.167l2.041,3.675
						c0.298,0.597,0.471,1.036,0.707,1.585h0.063c0.236-0.502,0.472-1.052,0.771-1.617l2.104-3.643h2.198l-3.706,5.433h2.481v0.974
						H58.31v1.271h3.017v0.974H58.31v2.952L56.473,46.781L56.473,46.781z"/>
				</g>
			</g>
		</g>
	</g>
</g>
</svg>
