<?xml version="1.0" encoding="utf-8"?>
<!-- Generator: Adobe Illustrator 16.0.0, SVG Export Plug-In . SVG Version: 6.00 Build 0)  -->
<!DOCTYPE svg PUBLIC "-//W3C//DTD SVG 1.1//EN" "http://www.w3.org/Graphics/SVG/1.1/DTD/svg11.dtd">
<svg version="1.1" id="Layer_1" xmlns="http://www.w3.org/2000/svg" xmlns:xlink="http://www.w3.org/1999/xlink" x="0px" y="0px"
	 width="112.664px" height="112.666px" viewBox="0 0 112.664 112.666" enable-background="new 0 0 112.664 112.666"
	 xml:space="preserve">
<g>
	<g>
		<circle id="SVGID_1_" fill="#FFCC5C" cx="56.332" cy="56.333" r="56.332"/>
	</g>
	<g>
		<g>
			<defs>
				<circle id="SVGID_2_" cx="56.332" cy="56.333" r="56.332"/>
			</defs>
			<clipPath id="SVGID_3_">
				<use xlink:href="#SVGID_2_"  overflow="visible"/>
			</clipPath>
			<path clip-path="url(#SVGID_3_)" fill="#FFFFFF" d="M114.814,27.72h-7.758c-0.846,0-1.527,0.684-1.527,1.528v1.334H80.32
				c-2.445,0-4.737,1.085-6.288,2.977l-7.083,8.649c-0.024,0.031-0.031,0.07-0.057,0.103H25.207c-0.844,0-1.528,0.684-1.528,1.528
				v34.202c0,0.847,0.685,1.53,1.528,1.53h64.564c0.846,0,1.527-0.686,1.527-1.53V62.452h5.932c2.563,0,4.867-1.631,5.734-4.059
				c0.002-0.004,0-0.006,0.002-0.011c0.004-0.004,0.004-0.006,0.006-0.009c0.082-0.23,0.291-0.504,0.608-0.504h1.944v2.383
				c0,0.848,0.686,1.529,1.529,1.529h7.758c0.846,0,1.527-0.686,1.527-1.529V29.248C116.344,28.403,115.66,27.72,114.814,27.72z"/>
		</g>
	</g>
	<g>
		<g>
			<defs>
				<circle id="SVGID_4_" cx="56.332" cy="56.333" r="56.332"/>
			</defs>
			<clipPath id="SVGID_5_">
				<use xlink:href="#SVGID_4_"  overflow="visible"/>
			</clipPath>
			<path clip-path="url(#SVGID_5_)" fill="#FFFFFF" d="M114.814,27.72h-7.758c-0.846,0-1.527,0.684-1.527,1.528v1.334H80.32
				c-2.445,0-4.737,1.085-6.288,2.977l-7.083,8.649c-0.024,0.031-0.031,0.07-0.057,0.103H25.207c-0.844,0-1.528,0.684-1.528,1.528
				v34.202c0,0.847,0.685,1.53,1.528,1.53h64.564c0.846,0,1.527-0.686,1.527-1.53V62.452h5.932c2.563,0,4.867-1.631,5.734-4.059
				c0.002-0.004,0-0.006,0.002-0.011c0.004-0.004,0.004-0.006,0.006-0.009c0.082-0.23,0.291-0.504,0.608-0.504h1.944v2.383
				c0,0.848,0.686,1.529,1.529,1.529h7.758c0.846,0,1.527-0.686,1.527-1.529V29.248C116.344,28.403,115.66,27.72,114.814,27.72z
				 M26.736,76.513V45.368h50.247l-4.244,4.458c-1.625,1.705-2.059,4.108-1.131,6.272c0.929,2.165,2.968,3.51,5.322,3.51
				c1.487,0,2.898-0.563,3.973-1.58l5.144-4.819c0.458-0.429,1.054-0.665,1.679-0.666l0.521-0.002v23.972H26.736z"/>
		</g>
	</g>
	<g>
		<g>
			<defs>
				<circle id="SVGID_6_" cx="56.332" cy="56.333" r="56.332"/>
			</defs>
			<clipPath id="SVGID_7_">
				<use xlink:href="#SVGID_6_"  overflow="visible"/>
			</clipPath>
			<path clip-path="url(#SVGID_7_)" fill="#C6CA76" d="M64.564,57.246c0.676,1.187,1.059,2.558,1.059,4.021
				s-0.383,2.834-1.059,4.021h-0.004c-1.397,2.476-4.053,4.138-7.095,4.138s-5.695-1.662-7.095-4.138h-0.005
				c-0.676-1.187-1.059-2.558-1.059-4.021s0.383-2.834,1.059-4.021h0.005c1.399-2.474,4.053-4.138,7.095-4.138
				s5.695,1.664,7.095,4.138H64.564z"/>
		</g>
	</g>
	<g>
		<g>
			<defs>
				<circle id="SVGID_8_" cx="56.332" cy="56.333" r="56.332"/>
			</defs>
			<clipPath id="SVGID_9_">
				<use xlink:href="#SVGID_8_"  overflow="visible"/>
			</clipPath>
			<path clip-path="url(#SVGID_9_)" fill="#D3EEE4" d="M83.411,68.631v-14.73c-2.097,0-3.792-1.696-3.792-3.791h-7.79H35.313
				c0,2.095-1.695,3.791-3.791,3.791V68.63c2.096,0,3.791,1.696,3.791,3.792h13.491h30.815
				C79.619,70.327,81.314,68.631,83.411,68.631z"/>
		</g>
	</g>
	<g>
		<g>
			<defs>
				<circle id="SVGID_10_" cx="56.332" cy="56.333" r="56.332"/>
			</defs>
			<clipPath id="SVGID_11_">
				<use xlink:href="#SVGID_10_"  overflow="visible"/>
			</clipPath>
			<path clip-path="url(#SVGID_11_)" fill="#FFDB93" d="M64.564,65.285c0.676-1.187,1.059-2.558,1.059-4.021
				c0-1.461-0.383-2.832-1.059-4.021h-0.004c-1.397-2.474-4.053-4.138-7.095-4.138s-5.695,1.664-7.095,4.138h-0.005
				c-0.676,1.188-1.059,2.56-1.059,4.021c0,1.463,0.383,2.834,1.059,4.021h0.005c1.399,2.474,4.053,4.138,7.095,4.138
				s5.695-1.664,7.095-4.138H64.564z"/>
		</g>
	</g>
	<g>
		<g>
			<defs>
				<circle id="SVGID_12_" cx="56.332" cy="56.333" r="56.332"/>
			</defs>
			<clipPath id="SVGID_13_">
				<use xlink:href="#SVGID_12_"  overflow="visible"/>
			</clipPath>
			<path clip-path="url(#SVGID_13_)" d="M48.804,73.22H35.313c-0.44,0-0.797-0.357-0.797-0.797c0-1.652-1.344-2.994-2.994-2.994
				c-0.439,0-0.798-0.357-0.798-0.798v-14.73c0-0.441,0.358-0.798,0.798-0.798c1.65,0,2.994-1.344,2.994-2.993
				c0-0.441,0.356-0.799,0.797-0.799H71.83v1.596H36.041c-0.332,1.892-1.829,3.389-3.721,3.722v13.272
				c1.892,0.334,3.389,1.83,3.721,3.724h12.763V73.22z"/>
		</g>
	</g>
	<g>
		<g>
			<defs>
				<circle id="SVGID_14_" cx="56.332" cy="56.333" r="56.332"/>
			</defs>
			<clipPath id="SVGID_15_">
				<use xlink:href="#SVGID_14_"  overflow="visible"/>
			</clipPath>
			<path clip-path="url(#SVGID_15_)" d="M79.619,73.22H48.804v-1.595h30.086c0.334-1.894,1.83-3.39,3.723-3.724V54.629
				c-1.893-0.333-3.389-1.83-3.723-3.722h-7.063v-1.596h7.79c0.438,0,0.797,0.357,0.797,0.799c0,1.649,1.344,2.993,2.995,2.993
				c0.439,0,0.798,0.356,0.798,0.798V68.63c0,0.439-0.356,0.799-0.798,0.799c-1.651,0-2.995,1.342-2.995,2.993
				C80.416,72.862,80.061,73.22,79.619,73.22z"/>
		</g>
	</g>
	<g>
		<g>
			<defs>
				<circle id="SVGID_16_" cx="56.332" cy="56.333" r="56.332"/>
			</defs>
			<clipPath id="SVGID_17_">
				<use xlink:href="#SVGID_16_"  overflow="visible"/>
			</clipPath>
			<rect x="65.623" y="60.47" clip-path="url(#SVGID_17_)" width="12.969" height="1.596"/>
		</g>
	</g>
	<g>
		<g>
			<defs>
				<circle id="SVGID_18_" cx="56.332" cy="56.333" r="56.332"/>
			</defs>
			<clipPath id="SVGID_19_">
				<use xlink:href="#SVGID_18_"  overflow="visible"/>
			</clipPath>
			<rect x="36.34" y="60.47" clip-path="url(#SVGID_19_)" width="12.969" height="1.596"/>
		</g>
	</g>
	<g>
		<g>
			<defs>
				<circle id="SVGID_20_" cx="56.332" cy="56.333" r="56.332"/>
			</defs>
			<clipPath id="SVGID_21_">
				<use xlink:href="#SVGID_20_"  overflow="visible"/>
			</clipPath>
			<rect x="64.564" y="64.487" clip-path="url(#SVGID_21_)" width="7.688" height="1.597"/>
		</g>
	</g>
	<g>
		<g>
			<defs>
				<circle id="SVGID_22_" cx="56.332" cy="56.333" r="56.332"/>
			</defs>
			<clipPath id="SVGID_23_">
				<use xlink:href="#SVGID_22_"  overflow="visible"/>
			</clipPath>
			<rect x="42.678" y="64.487" clip-path="url(#SVGID_23_)" width="7.689" height="1.597"/>
		</g>
	</g>
	<g>
		<g>
			<defs>
				<circle id="SVGID_24_" cx="56.332" cy="56.333" r="56.332"/>
			</defs>
			<clipPath id="SVGID_25_">
				<use xlink:href="#SVGID_24_"  overflow="visible"/>
			</clipPath>
			<rect x="64.564" y="56.448" clip-path="url(#SVGID_25_)" width="7.688" height="1.595"/>
		</g>
	</g>
	<g>
		<g>
			<defs>
				<circle id="SVGID_26_" cx="56.332" cy="56.333" r="56.332"/>
			</defs>
			<clipPath id="SVGID_27_">
				<use xlink:href="#SVGID_26_"  overflow="visible"/>
			</clipPath>
			<rect x="42.678" y="56.448" clip-path="url(#SVGID_27_)" width="7.689" height="1.595"/>
		</g>
	</g>
	<g>
		<g>
			<defs>
				<circle id="SVGID_28_" cx="56.332" cy="56.333" r="56.332"/>
			</defs>
			<clipPath id="SVGID_29_">
				<use xlink:href="#SVGID_28_"  overflow="visible"/>
			</clipPath>
			<path clip-path="url(#SVGID_29_)" d="M57.467,70.222c-3.191,0-6.15-1.711-7.746-4.469c-0.017-0.023-0.033-0.048-0.047-0.072
				c-0.76-1.336-1.162-2.863-1.162-4.414c0-1.553,0.402-3.078,1.162-4.416c0.015-0.022,0.03-0.047,0.047-0.072
				c1.596-2.758,4.556-4.467,7.746-4.467c3.191,0,6.15,1.709,7.745,4.467c0.017,0.024,0.032,0.048,0.046,0.072
				c0.762,1.338,1.164,2.863,1.164,4.416c0,1.551-0.402,3.078-1.164,4.414c-0.014,0.025-0.029,0.051-0.047,0.073
				C63.615,68.511,60.656,70.222,57.467,70.222z M51.023,64.823c0.015,0.023,0.029,0.047,0.043,0.07
				c1.303,2.301,3.755,3.729,6.4,3.729c2.646,0,5.099-1.433,6.397-3.729c0.015-0.023,0.029-0.049,0.046-0.07
				c0.6-1.08,0.915-2.309,0.915-3.559s-0.316-2.479-0.915-3.56c-0.017-0.021-0.031-0.045-0.046-0.067
				c-1.301-2.303-3.754-3.733-6.397-3.733c-2.646,0-5.098,1.431-6.4,3.733c-0.014,0.023-0.028,0.047-0.045,0.068
				c-0.599,1.081-0.915,2.311-0.915,3.559C50.106,62.515,50.423,63.744,51.023,64.823z"/>
		</g>
	</g>
	<g>
		<g>
			<defs>
				<circle id="SVGID_30_" cx="56.332" cy="56.333" r="56.332"/>
			</defs>
			<clipPath id="SVGID_31_">
				<use xlink:href="#SVGID_30_"  overflow="visible"/>
			</clipPath>
			<g clip-path="url(#SVGID_31_)">
				<g enable-background="new    ">
					<path d="M56.754,66.083V63.8h-2.356v-0.753h2.356v-0.984h-2.356V61.31h1.919l-2.635-4.202h1.676l1.579,2.842
						c0.231,0.462,0.364,0.802,0.546,1.227h0.049c0.183-0.389,0.365-0.813,0.596-1.251l1.627-2.817h1.701l-2.867,4.202h1.92v0.753
						h-2.332v0.984h2.332V63.8h-2.332v2.283H56.754z"/>
				</g>
			</g>
		</g>
	</g>
	<g>
		<g>
			<defs>
				<circle id="SVGID_32_" cx="56.332" cy="56.333" r="56.332"/>
			</defs>
			<clipPath id="SVGID_33_">
				<use xlink:href="#SVGID_32_"  overflow="visible"/>
			</clipPath>
			<path clip-path="url(#SVGID_33_)" d="M114.814,27.72h-7.758c-0.846,0-1.527,0.684-1.527,1.528v1.334H80.32
				c-2.445,0-4.737,1.085-6.288,2.977l-7.083,8.649c-0.024,0.031-0.031,0.07-0.057,0.103H25.207c-0.844,0-1.528,0.684-1.528,1.528
				v34.202c0,0.847,0.685,1.53,1.528,1.53h64.564c0.846,0,1.527-0.686,1.527-1.53V62.452h5.932c2.563,0,4.867-1.631,5.734-4.059
				c0.002-0.004,0-0.006,0.002-0.011c0.004-0.004,0.004-0.006,0.006-0.009c0.082-0.23,0.291-0.504,0.608-0.504h1.944v2.383
				c0,0.848,0.686,1.529,1.529,1.529h7.758c0.846,0,1.527-0.686,1.527-1.529V29.248C116.344,28.403,115.66,27.72,114.814,27.72z
				 M26.736,76.513V45.368h50.247l-4.244,4.458c-1.625,1.705-2.059,4.108-1.131,6.272c0.929,2.165,2.968,3.51,5.322,3.51
				c1.487,0,2.898-0.563,3.973-1.58l5.144-4.819c0.458-0.429,1.054-0.665,1.679-0.666l0.521-0.002v23.972H26.736z"/>
		</g>
	</g>
	<g>
		<g>
			<defs>
				<circle id="SVGID_34_" cx="56.332" cy="56.333" r="56.332"/>
			</defs>
			<clipPath id="SVGID_35_">
				<use xlink:href="#SVGID_34_"  overflow="visible"/>
			</clipPath>
			<rect x="108.586" y="30.777" clip-path="url(#SVGID_35_)" fill="#06C7CA" width="4.701" height="27.949"/>
		</g>
	</g>
	<g>
		<g>
			<defs>
				<circle id="SVGID_36_" cx="56.332" cy="56.333" r="56.332"/>
			</defs>
			<clipPath id="SVGID_37_">
				<use xlink:href="#SVGID_36_"  overflow="visible"/>
			</clipPath>
			<path clip-path="url(#SVGID_37_)" fill="#FFFFFF" d="M103.583,54.815c-1.573,0-2.944,0.996-3.491,2.536
				c-0.002,0.006-0.003,0.01-0.004,0.014c-0.436,1.214-1.584,2.029-2.857,2.029h-5.93v-6.856l5.167-0.007
				c2.423,0,4.392-1.97,4.392-4.392c0-0.845-0.684-1.528-1.527-1.528s-1.529,0.684-1.529,1.528c0,0.734-0.598,1.333-1.336,1.333
				l-8.748,0.014c-1.4,0.002-2.736,0.531-3.762,1.493l-5.146,4.827c-0.51,0.48-1.177,0.746-1.877,0.746
				c-1.131,0-2.068-0.619-2.515-1.655c-0.442-1.038-0.244-2.145,0.536-2.96l12.604-13.238c0.582-0.61,0.559-1.58-0.055-2.161
				c-0.607-0.58-1.576-0.557-2.162,0.053l-5.447,5.722h-9.078l5.582-6.813c0.969-1.181,2.396-1.857,3.925-1.857h25.206v21.176
				h-1.945L103.583,54.815L103.583,54.815z"/>
		</g>
	</g>
</g>
</svg>
