<?xml version="1.0" encoding="utf-8"?>
<!-- Generator: Adobe Illustrator 16.0.0, SVG Export Plug-In . SVG Version: 6.00 Build 0)  -->
<!DOCTYPE svg PUBLIC "-//W3C//DTD SVG 1.1//EN" "http://www.w3.org/Graphics/SVG/1.1/DTD/svg11.dtd">
<svg version="1.1" id="Layer_1" xmlns="http://www.w3.org/2000/svg" xmlns:xlink="http://www.w3.org/1999/xlink" x="0px" y="0px"
	 width="112.666px" height="112.666px" viewBox="-0.134 0.479 112.666 112.666"
	 enable-background="new -0.134 0.479 112.666 112.666" xml:space="preserve">
<g>
	<g>
		<circle id="SVGID_1_" fill="#FFCC5C" cx="56.199" cy="56.812" r="56.333"/>
	</g>
</g>
<g>
	<g id="XMLID_40_">
		<g>
			<path fill="#D3EEE4" d="M62.792,23.005v8.248H43.01c-3.642,0-6.594,2.951-6.594,6.594v30.115c0,3.643-2.953,6.594-6.594,6.594
				c-3.643,0-6.595-2.951-6.595-6.594V23.005H62.792z"/>
			<path fill="#06C7CA" d="M43.01,31.253c3.642,0,6.595,2.951,6.595,6.594v36.709H29.823c3.641,0,6.594-2.951,6.594-6.594V37.847
				C36.417,34.204,39.369,31.253,43.01,31.253z"/>
		</g>
		<g>
			<rect x="29.823" y="73.571" width="19.781" height="1.969"/>
			<path d="M82.573,30.27H63.777v-7.265c0-0.543-0.44-0.983-0.983-0.983H23.229c-0.543,0-0.983,0.44-0.983,0.983v44.957
				c0,4.178,3.399,7.578,7.578,7.578s7.577-3.4,7.577-7.578V37.847c0-3.094,2.518-5.608,5.609-5.608
				c3.093,0,5.609,2.516,5.609,5.608v52.771c0,0.543,0.439,0.984,0.984,0.984h39.563c0.545,0,0.984-0.441,0.984-0.984V37.847
				C90.153,33.669,86.752,30.27,82.573,30.27z M35.432,37.847v30.115c0,3.094-2.516,5.609-5.608,5.609
				c-3.092,0-5.61-2.516-5.61-5.609V23.989h37.596v6.279H43.01C38.833,30.27,35.432,33.669,35.432,37.847z"/>
		</g>
	</g>
	<path fill="#FFFFFF" d="M88.184,89.634H50.588V37.847c0-2.227-0.97-4.223-2.502-5.608h14.705h19.781
		c3.094,0,5.609,2.516,5.609,5.608v51.787H88.184z"/>
	<rect x="56.893" y="38.929" width="9.889" height="1.97"/>
	<rect x="71.912" y="68.731" width="9.888" height="1.969"/>
	<rect x="71.912" y="74.411" width="9.888" height="1.969"/>
	<rect x="71.905" y="80.54" width="9.895" height="1.969"/>
	<rect x="57.327" y="45.261" width="24.553" height="1.97"/>
	<rect x="57.327" y="50.759" width="24.553" height="1.97"/>
	<rect x="57.327" y="56.251" width="24.553" height="1.967"/>
	<rect x="57.327" y="61.749" width="24.553" height="1.967"/>
	<g>
		<path d="M61.561,82.509v-3.453h-3.564v-1.139h3.564v-1.488h-3.564V75.29H60.9l-3.986-6.357h2.535l2.388,4.299
			c0.351,0.699,0.553,1.213,0.827,1.855h0.073c0.275-0.588,0.551-1.23,0.9-1.893l2.461-4.264h2.572l-4.336,6.357h2.902v1.139h-3.527
			v1.488h3.527v1.139h-3.527v3.453h-2.148V82.509z"/>
	</g>
</g>
</svg>
