<?xml version="1.0" encoding="utf-8"?>
<!-- Generator: Adobe Illustrator 16.0.0, SVG Export Plug-In . SVG Version: 6.00 Build 0)  -->
<!DOCTYPE svg PUBLIC "-//W3C//DTD SVG 1.1//EN" "http://www.w3.org/Graphics/SVG/1.1/DTD/svg11.dtd">
<svg version="1.1" xmlns="http://www.w3.org/2000/svg" xmlns:xlink="http://www.w3.org/1999/xlink" x="0px" y="0px"
	 width="444.938px" height="198.687px" viewBox="36.135 16.03 444.938 198.687"
	 enable-background="new 36.135 16.03 444.938 198.687" xml:space="preserve">
<g id="レイヤー_2">
	<g>
		<g>
			<g>
				<g>
					<path fill="#FFD655" d="M252.067,66.049c-0.029-1.211-0.277-4.424-2.016-6.189c-0.271-0.277-0.576-0.563-0.9-0.863
						c-2.131-1.988-5.047-4.711-5.021-10.748c0.018-4.072,1.436-7.479,4.102-9.854c1.193-1.064,2.598-1.887,4.174-2.445
						c1.525-0.539,3.139-0.811,4.797-0.803c1.658,0.007,3.27,0.291,4.789,0.844c1.572,0.572,2.971,1.406,4.156,2.48
						c2.645,2.396,4.033,5.816,4.016,9.889c-0.025,6.035-2.965,8.734-5.113,10.703c-0.324,0.302-0.635,0.584-0.908,0.857
						c-1.752,1.75-2.027,4.961-2.066,6.172L252.067,66.049z"/>
					<path fill="#FFEB57" d="M257.2,35.608c1.605,0.008,3.164,0.281,4.635,0.816c1.516,0.553,2.861,1.356,4.002,2.389
						c2.545,2.307,3.881,5.605,3.865,9.545c-0.025,5.834-2.879,8.453-4.965,10.367c-0.328,0.301-0.641,0.586-0.922,0.867
						c-0.979,0.979-1.646,2.461-1.986,4.41c-0.107,0.619-0.164,1.184-0.193,1.627l-9.125-0.039c-0.025-0.443-0.078-1.01-0.18-1.629
						c-0.322-1.951-0.979-3.441-1.951-4.426c-0.277-0.283-0.586-0.57-0.914-0.877c-2.068-1.93-4.9-4.574-4.875-10.408
						c0.018-3.939,1.381-7.227,3.947-9.51c1.148-1.025,2.502-1.816,4.021-2.355C254.034,35.863,255.595,35.602,257.2,35.608
						 M257.204,34.686c-6.738-0.029-13.498,4.48-13.537,13.561c-0.029,7.182,4.043,9.893,6.057,11.936
						c2.012,2.045,1.883,6.328,1.883,6.328l10.924,0.047c0,0-0.092-4.285,1.939-6.311c2.029-2.027,6.125-4.703,6.156-11.884
						C270.665,39.281,263.944,34.713,257.204,34.686L257.204,34.686z"/>
				</g>
				<g>
					<polygon fill="#FFB839" points="256.271,59.149 255.081,59.803 249.433,48.137 					"/>
					<polygon fill="#FFB839" points="257.931,59.156 259.114,59.819 264.862,48.203 					"/>
				</g>
				<g>
					<path fill="#FFB839" d="M259.896,70.129l-5.684-0.025l0.85-10.811c0.072-0.92,0.969-1.865,2.047-1.859l0,0
						c1.078,0.004,1.965,0.955,2.029,1.877L259.896,70.129z"/>
					<path opacity="0.7" fill="#FF933B" d="M258.726,70.123l-3.344-0.014l0.518-10.564c0.043-0.732,0.57-1.24,1.205-1.236l0,0
						c0.633,0.002,1.156,0.516,1.193,1.246L258.726,70.123z"/>
				</g>
				<path opacity="0.1" fill="#333333" d="M262.829,63.695l-11.496-0.05c0.314,1.533,0.273,2.865,0.273,2.865l10.924,0.047
					C262.53,66.557,262.503,65.223,262.829,63.695z"/>
				<path opacity="0.25" fill="#FFFFFF" d="M264.14,39.303c2.777,2.098,4.021,5.137,2.775,6.785
					c-1.248,1.649-4.508,1.283-7.287-0.816c-2.777-2.1-4.02-5.139-2.773-6.784C258.101,36.836,261.362,37.203,264.14,39.303z"/>
				<path fill="#FFEE99" d="M263.579,48.274l-0.361,0.424c-0.215,0.25-0.426,0.502-0.637,0.752c-0.191-0.268-0.385-0.537-0.58-0.805
					l-0.65-0.898l-0.119-0.164l-0.133,0.162l-0.699,0.861c-0.18,0.221-0.359,0.441-0.535,0.662l-0.514-0.686
					c-0.221-0.295-0.443-0.592-0.668-0.888l-0.174-0.228l-0.178,0.228l-0.688,0.87l-0.502,0.641l-0.496-0.645l-0.68-0.877
					l-0.176-0.227l-0.176,0.225c-0.227,0.291-0.449,0.588-0.676,0.883l-0.518,0.682c-0.176-0.223-0.354-0.445-0.531-0.668
					l-0.691-0.867l-0.131-0.162l-0.119,0.162l-0.66,0.895c-0.197,0.264-0.393,0.531-0.586,0.798l-0.273-0.332l-0.357-0.427
					l-0.355-0.426l-0.359-0.422l0.314,0.457l0.32,0.455l0.318,0.453l0.322,0.453l0.07,0.096l0.078-0.096
					c0.238-0.283,0.477-0.566,0.711-0.854l0.574-0.697l0.541,0.734c0.219,0.295,0.436,0.596,0.66,0.891l0.152,0.203l0.16-0.201
					l0.695-0.867c0.17-0.215,0.34-0.428,0.512-0.641l0.498,0.656l0.674,0.881l0.182,0.236l0.184-0.234l0.682-0.877l0.502-0.649
					c0.168,0.214,0.338,0.427,0.508,0.644l0.686,0.873l0.16,0.203l0.154-0.201c0.225-0.293,0.445-0.59,0.668-0.887l0.547-0.729
					l0.568,0.701c0.23,0.289,0.467,0.574,0.703,0.861l0.078,0.096l0.07-0.096c0.219-0.298,0.436-0.6,0.65-0.9l0.322-0.451
					l0.32-0.457L263.579,48.274z"/>
			</g>
			<g>
				<g>
					<path fill="#D0D3D8" d="M254.593,77.5c-0.004,0.664,1.125,1.205,2.52,1.213c1.395,0.006,2.527-0.529,2.529-1.191L254.593,77.5z
						"/>
					<path fill="#A3A5AA" d="M252.413,75.981L252.413,75.981c-0.006,0.953,0.764,1.729,1.717,1.732l5.973,0.025
						c0.953,0.004,1.729-0.764,1.732-1.717L252.413,75.981z"/>
					<path fill="#D0D3D8" d="M250.737,73.113l-0.006,1.804c-0.004,0.855,0.688,1.555,1.545,1.559l9.689,0.039
						c0.857,0.006,1.557-0.686,1.559-1.545l0.01-1.803L250.737,73.113z"/>
					<g>
						<rect x="250.737" y="73.14" fill="#A3A5AA" width="12.795" height="0.253"/>
						<g>
							<path fill="#D0D3D8" d="M250.833,75.477c0.223,0.582,0.783,0.994,1.443,0.998l9.688,0.039L250.833,75.477z"/>
							<path fill="#A3A5AA" d="M250.733,74.242l-0.002,0.674c-0.002,0.198,0.035,0.385,0.102,0.561l11.131,1.037h0.002
								c0.857,0.006,1.557-0.686,1.559-1.545l0.004-0.672L250.733,74.242z"/>
						</g>
						<path fill="#D0D3D8" d="M250.737,73.365l-0.006,1.225l12.572,1.174c0.141-0.232,0.221-0.504,0.221-0.795l0.008-1.549
							L250.737,73.365z"/>
					</g>
					<polygon fill="#A3A5AA" points="250.739,72.811 250.735,73.805 263.524,74.998 263.534,72.865 					"/>
					<polygon fill="#D0D3D8" points="250.737,73.113 263.528,74.305 263.54,71.942 250.743,71.889 					"/>
					<polygon fill="#A3A5AA" points="250.741,72.465 263.532,73.658 263.54,71.526 250.745,71.473 					"/>
					<polygon fill="#D0D3D8" points="250.745,71.772 263.534,72.965 263.544,70.602 250.749,70.547 					"/>
					<polygon fill="#A3A5AA" points="250.747,71.217 263.536,72.412 263.546,70.281 250.751,70.223 					"/>
					<polygon fill="#D0D3D8" points="250.749,70.524 263.54,71.717 263.55,69.356 250.755,69.301 					"/>
					<polygon fill="#A3A5AA" points="250.753,69.877 263.542,71.073 263.552,68.94 250.757,68.885 					"/>
					<polygon fill="#D0D3D8" points="250.755,69.186 263.546,70.379 263.556,68.016 250.761,67.961 					"/>
					<polygon fill="#A3A5AA" points="250.759,68.537 263.548,69.731 263.558,67.6 250.763,67.545 					"/>
					<polygon fill="#D0D3D8" points="250.761,67.846 263.55,69.037 263.562,66.676 250.767,66.621 					"/>
					<polygon fill="#A3A5AA" points="250.765,67.154 263.554,68.346 263.562,66.676 250.767,66.621 					"/>
					<polygon fill="#D0D3D8" points="250.767,66.323 263.558,67.516 263.562,66.307 250.767,66.252 					"/>
				</g>
				
					<rect x="250.749" y="64.686" transform="matrix(1 0.0043 -0.0043 1 0.2827 -1.0985)" fill="#D0D3D8" width="12.795" height="1.801"/>
				<path fill="#989CA0" d="M264.397,66.84l-14.504-0.062c-0.27,0-0.484-0.22-0.484-0.485l0,0c0.002-0.27,0.219-0.484,0.486-0.484
					l14.506,0.063c0.268,0,0.484,0.219,0.482,0.486l0,0C264.882,66.625,264.665,66.842,264.397,66.84z"/>
			</g>
		</g>
		<g>
			<path fill="#01A2A5" d="M219.581,170.521c-1.438,3.404-1.908,5.074-0.992,8.139c7.518,0,15.041,0,22.568,0
				c-3.688-10.994-7.367-21.992-11.055-32.967C226.599,153.968,223.091,162.243,219.581,170.521z"/>
			<path fill="#01A2A5" d="M294.294,170.521c-3.506-8.277-7.018-16.553-10.521-24.828c-3.684,10.975-7.365,21.973-11.051,32.967
				c7.527,0,15.047,0,22.574,0C296.206,175.595,295.735,173.925,294.294,170.521z"/>
		</g>
		<path fill-rule="evenodd" clip-rule="evenodd" fill="#EBEBEB" d="M192.343,178.659h122.479c0.193,0,0.355,0.281,0.355,0.635v4.033
			c0,0.348-0.162,0.629-0.355,0.629H192.343c-0.205,0-0.361-0.281-0.361-0.629v-4.033
			C191.981,178.941,192.138,178.659,192.343,178.659L192.343,178.659z"/>
		<g>
			<rect x="194.938" y="183.956" fill="#EBEBEB" width="2.791" height="27.555"/>
			<rect x="310.04" y="188.122" fill="#EBEBEB" width="2.693" height="26.594"/>
		</g>
		<rect x="197.729" y="183.956" fill-rule="evenodd" clip-rule="evenodd" fill="#EBEBEB" width="111.691" height="13.768"/>
		<rect x="310.04" y="188.122" fill="#EBEBEB" width="2.693" height="2.436"/>
		<rect x="197.729" y="183.956" fill-rule="evenodd" clip-rule="evenodd" fill="#D8D9D9" width="111.691" height="2.525"/>
		<rect x="308.194" y="188.122" fill-rule="evenodd" clip-rule="evenodd" fill="#C3C4C4" width="1.846" height="13.287"/>
		<path fill-rule="evenodd" clip-rule="evenodd" fill="#592E25" d="M240.962,102.284c0,0,3.506,21.396-3.805,34.773l9.297,1.775
			l8.451-1.264l2.031-11.379l2.037,11.379l8.451,1.264l9.297-1.775c-7.314-13.377-3.805-34.773-3.805-34.773l-14.572-6.174
			l-1.408,29.85l-1.402-29.85L240.962,102.284z"/>
		<path fill-rule="evenodd" clip-rule="evenodd" fill="#4D2219" d="M255.431,134.593l1.506-8.402l1.512,8.402h11.469
			c0,0-3.754-12.432-2.506-24.852l-9.715,0.262l-0.76,15.957l-0.754-15.904l-11.01,0.301c0,0,2.508,10.66-1.264,24.236H255.431z"/>
		<path fill-rule="evenodd" clip-rule="evenodd" fill="#FEB67C" d="M256.937,156.476c8.613,0,17.225,0,25.854,0
			c-0.369-4.895,1.121-22.293-5.176-23.604c-3.924-0.824-7.838-1.631-11.768-2.455c-4.838-1.02-3.469-16.799-3.225-20.838
			c-2.545,2.158-3.123,4.529-5.686,6.686c-2.557-2.156-3.137-4.527-5.695-6.686c0.26,4.039,1.629,19.818-3.213,20.838
			c-3.93,0.824-7.836,1.631-11.768,2.455c-6.295,1.311-4.805,18.709-5.174,23.604C239.698,156.476,248.327,156.476,256.937,156.476
			L256.937,156.476z"/>
		<path fill-rule="evenodd" clip-rule="evenodd" fill="#F2AA70" d="M272.511,131.8l-6.664-1.383
			c-3.771-0.791-3.771-10.502-3.469-16.701l-3.266,0.158c-0.592,0.807-1.26,1.615-2.176,2.391c-0.838-0.723-1.471-1.461-2.031-2.189
			l-3.389,0.15c0.162,3.563,0.199,8.121-0.506,11.506c2.699,2.75,9.473,8.563,17.801,7.613
			C270.392,133.15,271.581,132.607,272.511,131.8L272.511,131.8z"/>
		<path fill-rule="evenodd" clip-rule="evenodd" fill="#01A2A5" d="M256.937,156.476c8.613,0,17.225,0,25.854,0
			c-0.369-4.895,1.121-22.293-5.176-23.604c-3.924-0.824-7.838-1.631-11.768-2.455c-0.244-0.057-0.492-0.158-0.721-0.299
			l-1.523,2.313l-3.996,1.439l-2.67-0.617l-2.666,0.617l-3.994-1.439l-1.531-2.313c-0.223,0.141-0.471,0.242-0.717,0.299
			c-3.93,0.824-7.836,1.631-11.768,2.455c-6.295,1.311-4.805,18.709-5.174,23.604C239.698,156.476,248.327,156.476,256.937,156.476
			L256.937,156.476z"/>
		<path fill-rule="evenodd" clip-rule="evenodd" fill="#4ED2D4" d="M249.837,128.995c1.879,2.053,4.258,3.418,7.1,4.258
			c-1.35,1.459-2.049,3.387-2.207,5.682c-2.93-2.414-5.736-4.924-7.314-8.398C248.013,129.837,248.8,129.312,249.837,128.995
			L249.837,128.995z"/>
		<path fill-rule="evenodd" clip-rule="evenodd" fill="#4ED2D4" d="M264.04,128.995c-1.879,2.053-4.256,3.418-7.104,4.258
			c1.355,1.459,2.055,3.387,2.213,5.682c2.926-2.414,5.734-4.924,7.314-8.398C265.866,129.837,265.075,129.312,264.04,128.995
			L264.04,128.995z"/>
		<path fill-rule="evenodd" clip-rule="evenodd" fill="#FEB67C" d="M271.55,102.284c0.018,0.303,0.018,0.598,0.018,0.896
			c0,12.678-6.541,22.957-14.631,22.957c-8.086,0-14.625-10.279-14.625-22.957c0-0.299,0-0.594,0.018-0.896l14.506-10.852
			L271.55,102.284z"/>
		<path fill-rule="evenodd" clip-rule="evenodd" fill="#F2AA70" d="M271.55,102.284c0.018,0.303,0.018,0.598,0.018,0.896
			c0,1.545-0.09,3.053-0.285,4.506c-14.779,2.105-24.127-1.035-28.953-3.576c-0.018-0.313-0.018-0.615-0.018-0.93
			c0-0.299,0-0.594,0.018-0.896l12.4-9.271l4.033-0.162L271.55,102.284z"/>
		<path fill-rule="evenodd" clip-rule="evenodd" fill="#592E25" d="M240.962,102.284c0-26.602,31.955-26.52,31.955,0
			c-2.947,0.531-5.91,0.936-8.857,1.174l-0.299-2.279l-1.666,2.441c-0.826,0.051-1.668,0.09-2.488,0.119l-0.248-4.314l-1.244,4.373
			c-2.297,0.031-4.596-0.021-6.893-0.164l-1.336-2.869l-1.24,2.664C246.083,103.181,243.522,102.794,240.962,102.284
			L240.962,102.284z"/>
		<path fill-rule="evenodd" clip-rule="evenodd" fill="#EBEBEB" d="M227.179,138.079H286.7c1.316,0,2.402,1.086,2.402,2.422v31.721
			c0,1.334-1.086,2.422-2.402,2.422h-59.521c-1.316,0-2.402-1.088-2.402-2.422v-31.721
			C224.776,139.165,225.862,138.079,227.179,138.079L227.179,138.079z"/>
		<path fill-rule="evenodd" clip-rule="evenodd" fill="#E0E1E1" d="M227.179,138.079h7.994c1.143,9.893,8.633,33.428,53.93,32.127
			v2.016c0,1.334-1.086,2.422-2.402,2.422h-59.521c-1.316,0-2.402-1.088-2.402-2.422v-31.721
			C224.776,139.165,225.862,138.079,227.179,138.079L227.179,138.079z"/>
		<path fill-rule="evenodd" clip-rule="evenodd" fill="#EBEBEB" d="M222.915,174.644h68.049c0.521,0,0.965,0.42,0.965,0.965v2.068
			c0,0.543-0.443,0.982-0.965,0.982h-68.049c-0.527,0-0.965-0.439-0.965-0.982v-2.068
			C221.95,175.064,222.388,174.644,222.915,174.644L222.915,174.644z"/>
		<path fill-rule="evenodd" clip-rule="evenodd" fill="#FEFEFE" d="M256.937,151.566c2.65,0,4.809,2.139,4.809,4.785
			c0,2.67-2.158,4.809-4.809,4.809c-2.648,0-4.803-2.139-4.803-4.809C252.134,153.704,254.288,151.566,256.937,151.566
			L256.937,151.566z"/>
		<rect x="231.649" y="197.724" fill-rule="evenodd" clip-rule="evenodd" fill="#01A2A5" width="50.58" height="13.787"/>
	</g>
</g>
<g id="レイヤー_1">
	<g>
		<rect x="56.785" y="16.28" fill-rule="evenodd" clip-rule="evenodd" fill="#FFFCDA" width="140.944" height="153.662"/>
		<g>
			<g>
				<g>
					<polygon fill-rule="evenodd" clip-rule="evenodd" fill="#FFFCDA" points="159.99,144.488 159.979,169.942 206.234,169.922 
											"/>
				</g>
			</g>
		</g>
	</g>
	<g>
		<g>
			<g>
				<g>
					<polygon fill-rule="evenodd" clip-rule="evenodd" fill="#FFFCDA" points="355.875,144.488 309.631,169.922 355.887,169.942 
											"/>
				</g>
			</g>
		</g>
	</g>
	<g>
		<rect x="320.1" y="16.28" fill-rule="evenodd" clip-rule="evenodd" fill="#FFFCDA" width="140.944" height="153.662"/>
	</g>
	<g>
		
			<line fill-rule="evenodd" clip-rule="evenodd" fill="none" stroke="#E0DAB3" stroke-width="0.5" stroke-miterlimit="10" x1="461.044" y1="16.28" x2="320.1" y2="16.28"/>
		
			<line fill-rule="evenodd" clip-rule="evenodd" fill="none" stroke="#E0DAB3" stroke-width="0.5" stroke-miterlimit="10" x1="320.1" y1="26.524" x2="461.044" y2="26.524"/>
		
			<line fill-rule="evenodd" clip-rule="evenodd" fill="none" stroke="#E0DAB3" stroke-width="0.5" stroke-miterlimit="10" x1="320.1" y1="36.768" x2="461.044" y2="36.768"/>
		
			<line fill-rule="evenodd" clip-rule="evenodd" fill="none" stroke="#E0DAB3" stroke-width="0.5" stroke-miterlimit="10" x1="320.1" y1="47.012" x2="461.044" y2="47.012"/>
		
			<line fill-rule="evenodd" clip-rule="evenodd" fill="none" stroke="#E0DAB3" stroke-width="0.5" stroke-miterlimit="10" x1="320.1" y1="57.256" x2="461.044" y2="57.256"/>
		
			<line fill-rule="evenodd" clip-rule="evenodd" fill="none" stroke="#E0DAB3" stroke-width="0.5" stroke-miterlimit="10" x1="320.1" y1="67.5" x2="461.044" y2="67.5"/>
		
			<line fill-rule="evenodd" clip-rule="evenodd" fill="none" stroke="#E0DAB3" stroke-width="0.5" stroke-miterlimit="10" x1="320.1" y1="77.744" x2="461.044" y2="77.744"/>
		
			<line fill-rule="evenodd" clip-rule="evenodd" fill="none" stroke="#E0DAB3" stroke-width="0.5" stroke-miterlimit="10" x1="320.1" y1="87.989" x2="461.044" y2="87.989"/>
		
			<line fill-rule="evenodd" clip-rule="evenodd" fill="none" stroke="#E0DAB3" stroke-width="0.5" stroke-miterlimit="10" x1="320.1" y1="98.233" x2="461.044" y2="98.233"/>
		
			<line fill-rule="evenodd" clip-rule="evenodd" fill="none" stroke="#E0DAB3" stroke-width="0.5" stroke-miterlimit="10" x1="320.1" y1="108.477" x2="461.044" y2="108.477"/>
		
			<line fill-rule="evenodd" clip-rule="evenodd" fill="none" stroke="#E0DAB3" stroke-width="0.5" stroke-miterlimit="10" x1="320.1" y1="118.721" x2="461.044" y2="118.721"/>
		
			<line fill-rule="evenodd" clip-rule="evenodd" fill="none" stroke="#E0DAB3" stroke-width="0.5" stroke-miterlimit="10" x1="320.1" y1="128.965" x2="461.044" y2="128.965"/>
		
			<line fill-rule="evenodd" clip-rule="evenodd" fill="none" stroke="#E0DAB3" stroke-width="0.5" stroke-miterlimit="10" x1="320.1" y1="139.209" x2="461.044" y2="139.209"/>
		
			<line fill-rule="evenodd" clip-rule="evenodd" fill="none" stroke="#E0DAB3" stroke-width="0.5" stroke-miterlimit="10" x1="320.1" y1="149.453" x2="461.044" y2="149.453"/>
		
			<line fill-rule="evenodd" clip-rule="evenodd" fill="none" stroke="#E0DAB3" stroke-width="0.5" stroke-miterlimit="10" x1="320.1" y1="159.698" x2="461.044" y2="159.698"/>
		
			<line fill-rule="evenodd" clip-rule="evenodd" fill="none" stroke="#E0DAB3" stroke-width="0.5" stroke-miterlimit="10" x1="320.1" y1="169.942" x2="461.044" y2="169.942"/>
	</g>
	<g>
		
			<line fill-rule="evenodd" clip-rule="evenodd" fill="none" stroke="#E0DAB3" stroke-width="0.5" stroke-miterlimit="10" x1="197.729" y1="16.28" x2="56.785" y2="16.28"/>
		
			<line fill-rule="evenodd" clip-rule="evenodd" fill="none" stroke="#E1DBB5" stroke-width="0.4867" stroke-miterlimit="10" x1="56.785" y1="26.524" x2="197.729" y2="26.524"/>
		
			<line fill-rule="evenodd" clip-rule="evenodd" fill="none" stroke="#E2DCB7" stroke-width="0.4733" stroke-miterlimit="10" x1="56.785" y1="36.768" x2="197.729" y2="36.768"/>
		
			<line fill-rule="evenodd" clip-rule="evenodd" fill="none" stroke="#E3DDB8" stroke-width="0.46" stroke-miterlimit="10" x1="56.785" y1="47.012" x2="197.729" y2="47.012"/>
		
			<line fill-rule="evenodd" clip-rule="evenodd" fill="none" stroke="#E3DEBA" stroke-width="0.4467" stroke-miterlimit="10" x1="56.785" y1="57.256" x2="197.729" y2="57.256"/>
		
			<line fill-rule="evenodd" clip-rule="evenodd" fill="none" stroke="#E4DFBC" stroke-width="0.4333" stroke-miterlimit="10" x1="56.785" y1="67.5" x2="197.729" y2="67.5"/>
		
			<line fill-rule="evenodd" clip-rule="evenodd" fill="none" stroke="#E5E0BE" stroke-width="0.42" stroke-miterlimit="10" x1="56.785" y1="77.744" x2="197.729" y2="77.744"/>
		
			<line fill-rule="evenodd" clip-rule="evenodd" fill="none" stroke="#E6E1C0" stroke-width="0.4067" stroke-miterlimit="10" x1="56.785" y1="87.989" x2="197.729" y2="87.989"/>
		
			<line fill-rule="evenodd" clip-rule="evenodd" fill="none" stroke="#E7E2C1" stroke-width="0.3933" stroke-miterlimit="10" x1="56.785" y1="98.233" x2="197.729" y2="98.233"/>
		
			<line fill-rule="evenodd" clip-rule="evenodd" fill="none" stroke="#E8E3C3" stroke-width="0.38" stroke-miterlimit="10" x1="56.785" y1="108.477" x2="197.729" y2="108.477"/>
		
			<line fill-rule="evenodd" clip-rule="evenodd" fill="none" stroke="#E9E4C5" stroke-width="0.3667" stroke-miterlimit="10" x1="56.785" y1="118.721" x2="197.729" y2="118.721"/>
		
			<line fill-rule="evenodd" clip-rule="evenodd" fill="none" stroke="#EAE5C7" stroke-width="0.3533" stroke-miterlimit="10" x1="56.785" y1="128.965" x2="197.729" y2="128.965"/>
		
			<line fill-rule="evenodd" clip-rule="evenodd" fill="none" stroke="#EAE6C9" stroke-width="0.34" stroke-miterlimit="10" x1="56.785" y1="139.209" x2="197.729" y2="139.209"/>
		
			<line fill-rule="evenodd" clip-rule="evenodd" fill="none" stroke="#EBE7CA" stroke-width="0.3267" stroke-miterlimit="10" x1="56.785" y1="149.453" x2="197.729" y2="149.453"/>
		
			<line fill-rule="evenodd" clip-rule="evenodd" fill="none" stroke="#ECE8CC" stroke-width="0.3133" stroke-miterlimit="10" x1="56.785" y1="159.698" x2="197.729" y2="159.698"/>
		
			<line fill-rule="evenodd" clip-rule="evenodd" fill="none" stroke="#EDE9CE" stroke-width="0.3" stroke-miterlimit="10" x1="56.785" y1="169.942" x2="197.729" y2="169.942"/>
	</g>
	<g>
		<g>
			<rect x="300.323" y="25.625" fill="#F1F3F4" width="180.5" height="40.5"/>
			<path fill="#C8C8C8" d="M480.573,25.875v40h-180v-40H480.573 M481.073,25.375h-0.5h-180h-0.5v0.5v40v0.5h0.5h180h0.5v-0.5v-40
				V25.375L481.073,25.375z"/>
		</g>
		<g>
			<rect x="300.823" y="26.125" fill="#F1F3F4" width="179.5" height="39.5"/>
			<path fill="#FFFFFF" d="M480.073,26.375v39h-179v-39H480.073 M480.573,25.875h-180v40h180V25.875L480.573,25.875z"/>
		</g>
		<g>
			<path fill="#FFFFFF" stroke="#DFDFDF" d="M317.778,32.064h144.588c7.621,0,13.801,6.178,13.801,13.799v0.025
				c0,7.621-6.18,13.801-13.801,13.801H317.778c-7.621,0-13.799-6.18-13.799-13.801v-0.025
				C303.979,38.241,310.157,32.064,317.778,32.064z"/>
			<path fill="#9AA0A6" d="M325.267,52.988c-0.271,0.271-0.715,0.271-0.988,0l-3.199-3.188c0.396-0.254,0.734-0.589,0.99-0.986
				l3.197,3.186C325.54,52.271,325.54,52.713,325.267,52.988z M317.981,50.122c-2.459,0-4.453-1.99-4.453-4.441
				c0-2.453,1.994-4.441,4.453-4.441s4.453,1.988,4.453,4.441C322.435,48.132,320.44,50.122,317.981,50.122z M317.981,42.497
				c-1.762,0-3.193,1.43-3.193,3.184s1.432,3.182,3.193,3.182c1.76,0,3.189-1.428,3.189-3.182S319.741,42.497,317.981,42.497z"/>
			<path d="M460.573,39.876h1v12h-1V39.876z"/>
		</g>
		<g enable-background="new    ">
			<path d="M342.144,42.749c-0.104,0.182-0.234,0.48-0.313,0.688c-0.351,1.3-1.144,3.068-2.301,4.473
				c-1.183,1.442-2.73,2.639-5.174,3.536L333.42,50.6c2.379-0.701,4.004-1.885,5.188-3.263c1.014-1.196,1.807-2.873,2.066-4.056
				h-4.394c-0.78,1.092-1.872,2.249-3.289,3.197l-0.897-0.676c2.249-1.339,3.523-3.224,4.082-4.395
				c0.144-0.221,0.325-0.688,0.403-1.026l1.209,0.403c-0.221,0.338-0.455,0.767-0.585,1.014c-0.091,0.182-0.195,0.364-0.312,0.546
				h3.536c0.351,0,0.637-0.039,0.845-0.117L342.144,42.749z"/>
			<path d="M343.573,50.458c0.091-0.208,0.13-0.377,0.13-0.637v-7.437c0-0.351-0.064-0.923-0.104-1.183h1.273
				c-0.052,0.324-0.091,0.806-0.091,1.183v7.371c2.483-0.624,5.499-2.34,7.111-4.433l0.585,0.909
				c-1.689,2.094-4.368,3.692-7.605,4.642c-0.143,0.039-0.351,0.104-0.546,0.234L343.573,50.458z"/>
			<path d="M356.901,45.661l-0.599,0.91c-0.649-0.469-2.054-1.379-2.847-1.781l0.585-0.885
				C354.808,44.321,356.329,45.258,356.901,45.661z M358.409,48.767c2.158-1.234,3.874-2.938,4.927-4.771l0.624,1.079
				c-1.131,1.741-2.925,3.419-5.005,4.641c-1.3,0.768-3.094,1.365-4.303,1.612l-0.599-1.053
				C355.484,50.029,357.096,49.509,358.409,48.767z M358.825,42.813l-0.611,0.897c-0.624-0.481-2.041-1.417-2.795-1.859l0.585-0.871
				C356.771,41.409,358.266,42.411,358.825,42.813z M362.765,43.19l-0.741,0.338c-0.325-0.688-0.754-1.456-1.184-2.041l0.716-0.312
				C361.88,41.643,362.465,42.58,362.765,43.19z M364.506,42.541l-0.74,0.338c-0.352-0.689-0.807-1.431-1.235-2.016l0.728-0.312
				C363.609,41.007,364.182,41.942,364.506,42.541z"/>
			<path d="M367.039,46.973l-0.988,0.364c-0.195-0.676-0.897-2.47-1.157-2.925l0.962-0.377
				C366.115,44.594,366.792,46.298,367.039,46.973z M373.578,44.114c-0.091,0.272-0.144,0.48-0.195,0.649
				c-0.351,1.431-0.91,2.821-1.846,3.991c-1.196,1.521-2.782,2.535-4.238,3.094l-0.858-0.884c1.509-0.429,3.159-1.417,4.226-2.756
				c0.923-1.131,1.599-2.782,1.794-4.446L373.578,44.114z M369.898,46.194l-0.962,0.338c-0.143-0.585-0.741-2.236-1.014-2.821
				l0.949-0.325C369.093,43.905,369.729,45.622,369.898,46.194z"/>
			<path d="M380.998,47.533c-1.417-0.768-3.666-1.639-5.108-2.094l0.013,4.29c0,0.416,0.025,1.105,0.078,1.534h-1.248
				c0.052-0.416,0.078-1.053,0.078-1.534v-7.565c0-0.364-0.026-0.949-0.104-1.353h1.274c-0.039,0.403-0.091,0.962-0.091,1.353v2.119
				c1.716,0.52,4.173,1.456,5.551,2.145L380.998,47.533z"/>
			<path d="M392.153,43.346c-0.038,0.221-0.064,0.468-0.064,0.637c-0.052,1.248-0.208,5.031-0.793,6.279
				c-0.26,0.546-0.676,0.78-1.392,0.78c-0.663,0-1.417-0.039-2.093-0.078l-0.13-1.079c0.702,0.091,1.391,0.144,1.938,0.144
				c0.377,0,0.61-0.104,0.754-0.43c0.494-0.987,0.663-4.186,0.663-5.577h-3.641c-0.468,3.731-1.82,5.707-3.991,7.202l-0.936-0.767
				c0.402-0.221,0.936-0.585,1.326-0.962c1.286-1.17,2.223-2.795,2.573-5.474h-2.184c-0.521,0-1.04,0-1.495,0.053v-1.105
				c0.455,0.052,0.988,0.078,1.482,0.078h2.288c0.025-0.416,0.052-0.858,0.052-1.326c0-0.286-0.039-0.767-0.091-1.079h1.222
				c-0.039,0.299-0.065,0.754-0.078,1.066c-0.013,0.468-0.039,0.91-0.064,1.339h3.094c0.351,0,0.611-0.026,0.832-0.065
				L392.153,43.346z"/>
			<path d="M393.66,45.245c0.391,0.025,1.079,0.064,1.808,0.064h7.124c0.649,0,1.118-0.039,1.404-0.064v1.273
				c-0.261-0.013-0.807-0.064-1.392-0.064h-7.137c-0.716,0-1.404,0.025-1.808,0.064V45.245z"/>
			<path d="M407.206,44.465c1.717,0.52,4.174,1.443,5.552,2.132l-0.455,1.105c-1.404-0.768-3.653-1.625-5.097-2.08v4.277
				c0,0.416,0.026,1.117,0.078,1.533h-1.248c0.052-0.416,0.078-1.053,0.078-1.533v-7.566c0-0.364-0.026-0.949-0.104-1.353h1.273
				c-0.039,0.403-0.078,0.962-0.078,1.353V44.465z M411.119,43.814c-0.324-0.676-0.728-1.391-1.156-1.976l0.715-0.325
				c0.338,0.481,0.884,1.353,1.183,1.963L411.119,43.814z M412.744,43.151c-0.351-0.676-0.767-1.364-1.209-1.949l0.716-0.339
				c0.338,0.455,0.909,1.326,1.222,1.925L412.744,43.151z"/>
			<path d="M421.303,48.404c-0.286-0.403-0.949-1.209-1.47-1.808v5.266h-0.949v-4.811c-0.559,0.624-1.144,1.17-1.703,1.6
				c-0.104-0.234-0.377-0.677-0.532-0.832c1.417-1.015,2.951-2.782,3.809-4.563h-3.445v-0.884h1.872v-2.366h0.949v2.366h1.105
				l0.169-0.053l0.546,0.377c-0.416,1.054-1.001,2.067-1.677,3.004c0.13,0.13,0.299,0.299,0.48,0.48
				c0.338-0.402,0.741-0.988,0.976-1.391l0.637,0.52c-0.403,0.455-0.819,0.962-1.17,1.326c0.416,0.429,0.832,0.858,0.988,1.04
				L421.303,48.404z M428.427,41.721c-0.156,6.591-0.286,8.775-0.78,9.426c-0.273,0.402-0.559,0.52-0.988,0.571
				c-0.429,0.053-1.144,0.026-1.846,0c-0.013-0.286-0.144-0.702-0.313-0.987c0.768,0.064,1.47,0.064,1.756,0.064
				c0.233,0.013,0.363-0.039,0.507-0.221c0.39-0.455,0.559-2.613,0.688-8.477h-2.626c-0.104,3.666-0.416,7.67-3.393,9.776
				c-0.169-0.221-0.481-0.559-0.741-0.728c2.873-1.898,3.081-5.655,3.146-9.049h-2.196v-0.91h6.786V41.721z"/>
			<path d="M437.476,40.85c-0.078,0.313-0.156,0.754-0.221,1.001c-0.065,0.286-0.13,0.572-0.208,0.871
				c2.066,0.351,3.483,1.938,3.483,4.147c0,2.561-1.833,4.134-4.589,4.511l-0.624-0.923c2.679-0.234,4.173-1.651,4.173-3.627
				c0-1.664-1.04-2.926-2.678-3.211c-0.48,1.638-1.157,3.314-1.885,4.381c0.247,0.325,0.52,0.637,0.793,0.896l-0.807,0.663
				c-0.208-0.233-0.416-0.468-0.61-0.728c-0.793,0.962-1.586,1.599-2.548,1.599c-0.976,0-1.808-0.818-1.808-2.34
				c0-1.469,0.819-3.016,1.989-3.978c-0.144-0.403-0.273-0.807-0.39-1.184c-0.131-0.416-0.261-0.819-0.416-1.157l1.078-0.338
				c0.065,0.352,0.17,0.78,0.261,1.131c0.078,0.3,0.182,0.624,0.299,0.988c1.092-0.637,2.184-0.897,3.302-0.91
				c0.078-0.312,0.144-0.624,0.195-0.923c0.052-0.26,0.091-0.689,0.078-0.975L437.476,40.85z M433.731,48.013
				c-0.104-0.155-0.208-0.325-0.312-0.494c-0.364-0.585-0.768-1.495-1.145-2.47c-0.845,0.806-1.378,1.977-1.378,2.978
				c0,0.857,0.377,1.378,0.962,1.378C432.496,49.405,433.159,48.767,433.731,48.013z M434.329,47.13
				c0.547-0.91,1.105-2.249,1.495-3.575c-1.001,0.052-1.911,0.351-2.743,0.884c0.313,0.885,0.689,1.756,0.988,2.263
				C434.147,46.844,434.238,46.987,434.329,47.13z"/>
			<path d="M442.652,42.177c0.845-0.078,3.276-0.325,5.643-0.521c1.403-0.116,2.613-0.182,3.471-0.221v1.04
				c-0.728,0-1.859,0.013-2.521,0.208c-1.834,0.585-2.938,2.535-2.938,4.057c0,2.521,2.34,3.314,4.433,3.393l-0.377,1.079
				c-2.379-0.091-5.096-1.365-5.096-4.238c0-2.015,1.209-3.64,2.392-4.342c-1.131,0.13-4.641,0.468-6.032,0.754l-0.116-1.145
				C442.002,42.228,442.405,42.203,442.652,42.177z"/>
		</g>
	</g>
	<g>
		<path d="M343.352,104.868c-0.225,0-0.449,0.113-0.589,0.283l-4.815,5.537l-2.05-2.049c-0.702-0.703-1.772,0.363-1.071,1.07
			l2.618,2.619c0.312,0.31,0.814,0.283,1.099-0.026l5.371-6.159C344.332,105.657,343.994,104.868,343.352,104.868z"/>
	</g>
	<g>
		<path d="M343.352,136.086c-0.225,0-0.449,0.113-0.589,0.283l-4.815,5.537l-2.05-2.049c-0.702-0.703-1.772,0.363-1.071,1.07
			l2.618,2.619c0.312,0.31,0.814,0.283,1.099-0.026l5.371-6.159C344.332,136.875,343.994,136.086,343.352,136.086z"/>
	</g>
	<g>
		<path d="M358.938,91.051c0-0.21,0.015-0.495,0.015-0.81h-7.109c-0.615,0-1.365,0.03-1.8,0.06v-1.695
			c0.435,0.03,1.095,0.075,1.739,0.075h7.186v-6.689h-7.005c-0.585,0-1.351,0.03-1.74,0.045v-1.65c0.525,0.045,1.245,0.09,1.74,0.09
			h7.454c0.405,0,0.931-0.015,1.2-0.03c-0.015,0.33-0.03,0.87-0.03,1.26v7.755c0,0.525,0.03,1.26,0.061,1.59H358.938z"/>
		<path d="M369.769,87.586c2.415-1.485,4.29-3.735,5.205-5.655l0.915,1.635c-1.08,1.935-2.925,3.99-5.265,5.43
			c-1.516,0.93-3.42,1.815-5.745,2.235l-1.005-1.545C366.379,89.31,368.329,88.47,369.769,87.586z M369.259,82.786l-1.185,1.215
			c-0.78-0.795-2.641-2.415-3.75-3.18l1.095-1.17C366.484,80.356,368.419,81.916,369.259,82.786z"/>
		<path d="M387.994,83.431c0.314,0,0.885-0.03,1.26-0.075v1.545c-0.345-0.03-0.87-0.045-1.26-0.045h-3.855
			c-0.06,1.59-0.359,2.91-0.93,4.005c-0.54,1.005-1.68,2.13-2.984,2.79l-1.381-1.02c1.11-0.45,2.176-1.305,2.775-2.235
			c0.645-1.005,0.84-2.19,0.9-3.54h-4.335c-0.45,0-0.945,0.015-1.365,0.045v-1.545c0.42,0.045,0.9,0.075,1.365,0.075H387.994z
			 M380.06,81.046c-0.495,0-1.051,0.015-1.471,0.045v-1.545c0.45,0.06,0.976,0.105,1.471,0.105h6.044c0.466,0,1.021-0.03,1.5-0.105
			v1.545c-0.479-0.03-1.034-0.045-1.5-0.045H380.06z"/>
		<path d="M396.709,87.586c2.415-1.485,4.29-3.735,5.205-5.655l0.915,1.635c-1.08,1.935-2.925,3.99-5.266,5.43
			c-1.515,0.93-3.419,1.815-5.744,2.235l-1.005-1.545C393.319,89.31,395.269,88.47,396.709,87.586z M396.199,82.786l-1.186,1.215
			c-0.779-0.795-2.64-2.415-3.75-3.18l1.096-1.17C393.424,80.356,395.359,81.916,396.199,82.786z"/>
		<path d="M407.164,84.436l-1.515,0.555c-0.3-0.96-1.305-3.45-1.694-4.169l1.499-0.54C405.875,81.166,406.805,83.431,407.164,84.436
			z M416.374,80.431c-0.135,0.315-0.24,0.72-0.314,0.99c-0.45,1.77-1.275,4.005-2.505,5.64c-1.561,2.055-3.766,3.584-5.896,4.35
			l-1.305-1.32c2.1-0.6,4.38-2.01,5.895-3.93c1.23-1.56,2.101-4.125,2.37-6.225L416.374,80.431z M411.154,83.341l-1.485,0.525
			c-0.255-0.9-1.095-3.165-1.499-4.005l1.454-0.495C409.984,80.101,410.885,82.441,411.154,83.341z"/>
		<path d="M421.519,78.646c-0.329,1.02-0.749,2.055-1.215,3.03v10.32h-1.274v-7.98c-0.375,0.6-0.78,1.155-1.186,1.635
			c-0.135-0.345-0.494-1.11-0.704-1.47c1.244-1.44,2.399-3.66,3.09-5.895L421.519,78.646z M426.829,88.546v-8.37h-2.806
			c-0.119,0.615-0.239,1.26-0.39,1.905h1.755l0.21-0.045l0.811,0.24c-0.556,4.845-2.16,8.085-4.455,9.75
			c-0.18-0.314-0.6-0.854-0.885-1.065c1.17-0.795,2.13-2.01,2.835-3.615c-0.405-0.45-1.065-1.02-1.65-1.455
			c-0.27,0.51-0.585,0.975-0.945,1.395c-0.18-0.285-0.569-0.75-0.824-0.99c1.245-1.5,1.875-3.99,2.189-6.12h-1.185v-1.23h5.34v0.99
			h1.245v8.61H426.829z M423.304,83.296c-0.149,0.51-0.33,1.005-0.524,1.485c0.555,0.39,1.185,0.87,1.604,1.26
			c0.271-0.825,0.48-1.74,0.63-2.745H423.304z M430.744,78.496v11.85c0,0.795-0.181,1.185-0.646,1.41
			c-0.479,0.225-1.245,0.255-2.43,0.255c-0.061-0.36-0.24-0.96-0.436-1.365c0.855,0.045,1.636,0.03,1.875,0.03
			c0.255-0.015,0.346-0.09,0.346-0.33v-11.85H430.744z"/>
	</g>
	<g>
		<g>
			<path d="M356.795,106.66c-0.035,0.204-0.059,0.455-0.07,0.611c-0.037,1.212-0.193,4.642-0.721,5.817
				c-0.252,0.552-0.66,0.815-1.391,0.815c-0.648,0-1.355-0.048-1.955-0.084l-0.145-1.26c0.611,0.084,1.248,0.145,1.74,0.145
				c0.359,0,0.551-0.107,0.684-0.408c0.406-0.84,0.563-3.55,0.563-4.846h-3.07c-0.443,3.335-1.631,5.17-3.693,6.621l-1.104-0.9
				c0.432-0.227,0.959-0.6,1.379-1.007c1.164-1.091,1.895-2.542,2.195-4.714h-1.822c-0.445,0-1.008,0.013-1.465,0.049v-1.248
				c0.457,0.037,0.996,0.072,1.465,0.072h1.93c0.023-0.359,0.037-0.744,0.037-1.139c0-0.276-0.037-0.768-0.084-1.044h1.402
				c-0.023,0.276-0.047,0.72-0.061,1.007c-0.012,0.408-0.035,0.805-0.059,1.176h2.59c0.313,0,0.588-0.035,0.828-0.072
				L356.795,106.66z"/>
			<path d="M358.949,108.303c0.383,0.037,1.127,0.072,1.773,0.072h6.514c0.588,0,1.055-0.048,1.342-0.072v1.476
				c-0.264-0.012-0.803-0.048-1.33-0.048h-6.525c-0.672,0-1.379,0.023-1.773,0.048V108.303z"/>
			<path d="M373.094,107.656c1.584,0.467,3.887,1.33,5.074,1.918l-0.527,1.295c-1.271-0.671-3.227-1.426-4.547-1.858l0.012,3.706
				c0,0.372,0.037,1.092,0.084,1.535h-1.463c0.061-0.42,0.096-1.08,0.096-1.535v-6.932c0-0.385-0.035-0.947-0.107-1.344h1.475
				c-0.035,0.396-0.096,0.912-0.096,1.344V107.656z M376.525,107.08c-0.313-0.684-0.648-1.26-1.057-1.835l0.805-0.349
				c0.322,0.469,0.826,1.248,1.09,1.812L376.525,107.08z M378.084,106.445c-0.348-0.684-0.684-1.235-1.104-1.799l0.803-0.372
				c0.324,0.443,0.84,1.223,1.115,1.775L378.084,106.445z"/>
			<path d="M383.535,103.974c-0.324,0.839-0.732,1.703-1.188,2.507v8.096h-1.127v-6.333c-0.313,0.433-0.648,0.827-0.984,1.175
				c-0.107-0.275-0.432-0.898-0.623-1.15c1.139-1.127,2.207-2.879,2.854-4.63L383.535,103.974z M387.156,106.624v1.523h3.264v1.02
				h-3.264v1.595h3.43v1.043h-3.43v2.783h-1.139v-7.964h-0.672c-0.504,0.936-1.055,1.775-1.631,2.411
				c-0.18-0.192-0.611-0.588-0.863-0.756c1.055-1.104,2.014-2.83,2.59-4.558l1.068,0.288c-0.193,0.516-0.396,1.043-0.625,1.547
				h4.822v1.067H387.156z"/>
			<path d="M401.891,107.68c-0.504,1.547-1.211,2.902-2.086,4.054c0.408,1.02,0.875,1.644,1.379,1.644
				c0.313,0,0.455-0.612,0.527-2.159c0.264,0.264,0.66,0.516,0.959,0.624c-0.18,2.111-0.586,2.674-1.57,2.674
				c-0.875,0-1.57-0.672-2.111-1.799c-0.684,0.72-1.439,1.332-2.266,1.836c-0.168-0.24-0.564-0.709-0.816-0.912
				c0.996-0.552,1.883-1.248,2.615-2.1c-0.432-1.355-0.707-3.07-0.852-4.941h-3.838v1.451h3.01v0.433
				c-0.061,2.603-0.119,3.634-0.371,3.97c-0.217,0.252-0.443,0.348-0.768,0.384c-0.301,0.048-0.84,0.048-1.416,0.024
				c-0.023-0.324-0.131-0.756-0.299-1.044c0.49,0.048,0.959,0.06,1.15,0.06c0.168,0,0.289-0.035,0.373-0.144
				c0.131-0.168,0.203-0.852,0.238-2.663h-1.918c-0.012,1.703-0.217,4.102-1.271,5.65c-0.191-0.229-0.684-0.625-0.936-0.768
				c0.959-1.439,1.043-3.503,1.043-5.051v-3.394h4.93c-0.035-0.624-0.061-1.271-0.061-1.907h1.176c-0.012,0.648,0,1.283,0.035,1.907
				h2.316c-0.469-0.396-1.248-0.911-1.883-1.259l0.67-0.684c0.709,0.371,1.607,0.923,2.076,1.33l-0.576,0.612h1.223v1.091h-3.766
				c0.121,1.428,0.313,2.723,0.588,3.791c0.576-0.889,1.02-1.883,1.367-2.986L401.891,107.68z"/>
			<path d="M406.432,104.586c-0.084,0.227-0.205,0.695-0.252,0.91c-0.205,0.973-0.588,3.203-0.588,4.475
				c0,0.42,0.023,0.815,0.084,1.247c0.18-0.479,0.42-1.056,0.6-1.487l0.623,0.48c-0.324,0.898-0.742,2.17-0.852,2.77
				c-0.035,0.156-0.072,0.408-0.059,0.54c0,0.12,0.012,0.3,0.023,0.444l-1.08,0.072c-0.24-0.828-0.455-2.232-0.455-3.839
				c0-1.774,0.383-3.79,0.516-4.737c0.047-0.3,0.096-0.672,0.107-0.983L406.432,104.586z M409.166,110.391
				c-0.096,0.407-0.145,0.73-0.145,1.055c0,0.54,0.396,0.959,1.836,0.959c1.066,0,1.967-0.096,2.961-0.311l0.025,1.271
				c-0.744,0.143-1.729,0.239-3.012,0.239c-2.014,0-2.949-0.696-2.949-1.847c0-0.469,0.096-0.947,0.203-1.463L409.166,110.391z
				 M413.471,105.438v1.223c-1.355,0.132-3.598,0.145-4.977,0v-1.211C409.85,105.653,412.236,105.606,413.471,105.438z"/>
			<path d="M417.508,107.283c-0.252,1.367-0.672,3.059-1.295,4.09l-1.092-0.42c0.648-1.019,1.115-2.578,1.32-3.934L417.508,107.283z
				 M422.377,113.377c0.66,0,0.768-0.372,0.863-2.172c0.277,0.192,0.768,0.408,1.092,0.48c-0.168,2.135-0.504,2.795-1.871,2.795
				h-2.277c-1.428,0-1.836-0.385-1.836-1.8v-0.167c-0.779,0.539-1.596,1.019-2.471,1.439c-0.168-0.265-0.492-0.66-0.73-0.877
				c1.15-0.527,2.219-1.163,3.201-1.906v-4.785h1.176v3.826c1.979-1.752,3.525-3.838,4.533-5.926l1.127,0.469
				c-1.33,2.518-3.227,4.953-5.66,6.896v1.044c0,0.575,0.119,0.684,0.779,0.684H422.377z M421.346,106.637
				c-0.684-0.6-1.955-1.56-2.914-2.231l0.732-0.792c0.982,0.648,2.242,1.572,2.926,2.111L421.346,106.637z M424.465,107.596
				c0.779,1.151,1.559,2.662,1.883,3.693l-1.08,0.541c-0.275-1.044-1.055-2.604-1.811-3.767L424.465,107.596z"/>
			<path d="M435.84,110.953c-0.334,0.709-0.779,1.284-1.33,1.752c1.26,0.336,2.398,0.695,3.262,1.02l-0.66,0.912
				c-0.971-0.396-2.254-0.828-3.705-1.225c-1.344,0.672-3.131,1.008-5.469,1.188c-0.072-0.324-0.24-0.731-0.42-0.971
				c1.75-0.084,3.166-0.264,4.293-0.624c-0.563-0.144-1.139-0.265-1.727-0.396l-0.191,0.264l-1.068-0.348
				c0.336-0.432,0.744-0.984,1.152-1.572h-2.65v-0.91h3.273c0.217-0.324,0.432-0.648,0.611-0.948h-3.059v-3.19h2.615v-0.863h-3.189
				v-0.983h10.277v0.983h-3.299v0.863h2.855v3.19h-5.133l0.18,0.048c-0.18,0.288-0.373,0.588-0.576,0.9h6.273v0.91H435.84z
				 M429.197,108.196h1.57v-1.391h-1.57V108.196z M431.271,110.953c-0.203,0.289-0.408,0.576-0.6,0.852
				c0.852,0.168,1.715,0.36,2.543,0.564c0.588-0.372,1.031-0.828,1.379-1.416H431.271z M431.836,105.905h1.666v-0.863h-1.666
				V105.905z M433.502,108.196v-1.391h-1.666v1.391H433.502z M434.557,106.805v1.391h1.752v-1.391H434.557z"/>
			<path d="M353.629,119.553c-0.588,0.154-1.318,0.311-2.111,0.418c-0.574,1.668-1.605,3.742-2.578,5.051l-1.15-0.588
				c0.971-1.164,1.967-2.986,2.482-4.33c-0.289,0.012-0.564,0.023-0.852,0.023c-0.457,0-0.947-0.012-1.428-0.047l-0.084-1.104
				c0.469,0.047,1.031,0.072,1.512,0.072c0.395,0,0.803-0.014,1.223-0.049c0.18-0.66,0.324-1.391,0.348-2.016l1.309,0.121
				c-0.098,0.408-0.252,1.066-0.432,1.738c0.6-0.096,1.186-0.24,1.727-0.408L353.629,119.553z M355.092,120.787
				c-0.035,0.504-0.023,0.912-0.012,1.391c0.012,0.385,0.049,1.068,0.084,1.74c1.02,0.371,1.859,0.971,2.459,1.498l-0.635,1.02
				c-0.469-0.42-1.068-0.936-1.775-1.318v0.324c0,1.006-0.611,1.822-2.172,1.822c-1.379,0-2.494-0.588-2.494-1.822
				c0-1.117,1.008-1.908,2.482-1.908c0.348,0,0.672,0.023,0.996,0.084c-0.049-0.936-0.107-2.051-0.133-2.83H355.092z
				 M354.061,124.649c-0.336-0.096-0.707-0.143-1.092-0.143c-0.791,0-1.307,0.348-1.307,0.826c0,0.504,0.408,0.852,1.223,0.852
				c0.889,0,1.188-0.504,1.188-1.115C354.072,124.949,354.072,124.817,354.061,124.649z M357.311,121.242
				c-0.658-0.539-1.967-1.295-2.77-1.654l0.6-0.924c0.852,0.371,2.254,1.164,2.842,1.596L357.311,121.242z"/>
			<path d="M367.789,121.483c0.803,0.947,1.199,1.775,1.199,2.795c0,1.775-1.607,2.951-4.055,2.951
				c-1.727,0-3.047-0.768-3.047-2.723c0-0.313,0.037-0.756,0.084-1.283c-0.875-0.084-1.703-0.217-2.375-0.42l0.061-1.152
				c0.768,0.275,1.619,0.408,2.436,0.48c0.072-0.625,0.156-1.283,0.24-1.908c-0.852-0.07-1.74-0.227-2.459-0.42l0.059-1.102
				c0.721,0.238,1.645,0.383,2.531,0.455c0.049-0.432,0.084-0.816,0.107-1.115c0.025-0.301,0.049-0.6,0.012-0.936l1.344,0.072
				c-0.084,0.371-0.131,0.646-0.18,0.936l-0.145,1.078c0.889,0,1.68-0.047,2.303-0.156l-0.035,1.129
				c-0.744,0.072-1.416,0.119-2.387,0.119h-0.023c-0.084,0.611-0.168,1.271-0.24,1.895h0.168c0.768,0,1.619-0.035,2.434-0.143
				l-0.035,1.127c-0.732,0.084-1.451,0.119-2.219,0.119c-0.156,0-0.299,0-0.455,0c-0.037,0.42-0.061,0.779-0.061,1.031
				c0,1.068,0.623,1.703,1.895,1.703c1.74,0,2.783-0.756,2.783-1.883c0-0.803-0.432-1.643-1.26-2.375L367.789,121.483z"/>
			<path d="M375.436,125.92c0.42-0.035,0.768-0.096,1.055-0.168c1.523-0.348,2.879-1.451,2.879-3.369
				c0-1.729-1.031-3.082-2.855-3.311c-0.168,1.066-0.383,2.219-0.707,3.334c-0.719,2.422-1.703,3.777-2.891,3.777
				c-1.176,0-2.254-1.33-2.254-3.311c0-2.637,2.338-4.928,5.313-4.928c2.854,0,4.666,1.99,4.666,4.484
				c0,2.482-1.596,4.211-4.498,4.617L375.436,125.92z M374.596,122.155c0.299-0.936,0.527-2.016,0.646-3.059
				c-2.135,0.348-3.381,2.207-3.381,3.67c0,1.367,0.611,1.992,1.092,1.992C373.469,124.758,374.043,123.99,374.596,122.155z"/>
		</g>
	</g>
	<g>
		<g>
			<path d="M351.352,142.891c-0.24-0.371-0.744-0.994-1.201-1.522v4.618h-1.09V141.8c-0.457,0.491-0.924,0.936-1.381,1.283
				c-0.119-0.276-0.418-0.804-0.6-0.995c1.236-0.875,2.543-2.398,3.299-3.945h-2.975v-1.02h1.656v-2.147h1.09v2.147h0.793
				l0.203-0.049l0.623,0.42c-0.371,0.972-0.898,1.932-1.51,2.795c0.107,0.096,0.252,0.228,0.395,0.371
				c0.301-0.396,0.66-0.924,0.877-1.295l0.73,0.588c-0.395,0.42-0.779,0.875-1.104,1.199c0.373,0.371,0.732,0.731,0.863,0.887
				L351.352,142.891z M358.008,136.582c-0.133,6.021-0.266,8.061-0.709,8.66c-0.275,0.432-0.551,0.563-0.971,0.611
				c-0.408,0.072-1.068,0.049-1.715,0.023c-0.012-0.311-0.156-0.814-0.359-1.15c0.67,0.06,1.283,0.06,1.547,0.06
				c0.215,0.013,0.336-0.036,0.467-0.204c0.348-0.408,0.48-2.375,0.588-7.543h-2.1c-0.096,3.406-0.406,6.979-3.105,8.959
				c-0.191-0.289-0.551-0.66-0.852-0.863c2.566-1.74,2.746-5.002,2.807-8.096h-1.883v-1.057h6.285V136.582z"/>
			<path d="M367.033,135.743c-0.084,0.3-0.182,0.78-0.24,1.044c-0.049,0.203-0.096,0.42-0.156,0.635
				c1.883,0.372,3.166,1.859,3.166,3.91c0,2.435-1.738,3.886-4.246,4.246l-0.719-1.08c2.529-0.228,3.754-1.535,3.754-3.214
				c0-1.451-0.852-2.53-2.23-2.818c-0.432,1.451-0.996,2.914-1.68,3.922c0.215,0.288,0.455,0.552,0.695,0.779l-0.947,0.768
				c-0.168-0.192-0.336-0.384-0.492-0.587c-0.756,0.875-1.463,1.379-2.338,1.379c-0.947,0-1.764-0.779-1.764-2.243
				c0-1.354,0.721-2.794,1.799-3.706c-0.131-0.348-0.24-0.695-0.348-1.031c-0.119-0.408-0.252-0.779-0.432-1.151l1.248-0.384
				c0.072,0.348,0.168,0.744,0.252,1.092c0.072,0.252,0.156,0.539,0.252,0.827c0.959-0.528,1.906-0.768,2.891-0.792
				c0.059-0.252,0.119-0.491,0.154-0.719c0.049-0.288,0.084-0.732,0.072-1.008L367.033,135.743z M363.123,142.184
				c-0.361-0.563-0.744-1.403-1.092-2.314c-0.684,0.707-1.092,1.691-1.092,2.53c0,0.696,0.287,1.128,0.779,1.128
				c0.516,0,1.057-0.48,1.547-1.115L363.123,142.184z M363.975,141.368c0.479-0.827,0.922-1.907,1.246-2.975
				c-0.852,0.06-1.594,0.336-2.266,0.756c0.287,0.804,0.623,1.571,0.91,2.038L363.975,141.368z"/>
			<path d="M372.305,136.895c0.875-0.072,2.986-0.275,5.168-0.468c1.271-0.096,2.459-0.168,3.275-0.192v1.199
				c-0.66,0-1.68,0.013-2.303,0.181c-1.584,0.468-2.627,2.159-2.627,3.562c0,2.159,2.016,2.879,3.982,2.963l-0.432,1.283
				c-2.328-0.12-4.773-1.367-4.773-3.994c0-1.787,1.043-3.227,2.014-3.85c-1.043,0.12-3.957,0.408-5.277,0.684l-0.131-1.307
				C371.668,136.943,372.076,136.918,372.305,136.895z"/>
			<path d="M384.988,135.971c-0.084,0.229-0.205,0.695-0.252,0.912c-0.205,0.971-0.588,3.202-0.588,4.473
				c0,0.42,0.023,0.816,0.084,1.248c0.18-0.48,0.42-1.056,0.6-1.487l0.623,0.479c-0.324,0.9-0.742,2.171-0.852,2.771
				c-0.035,0.155-0.072,0.407-0.059,0.539c0,0.119,0.012,0.3,0.023,0.443l-1.08,0.072c-0.24-0.828-0.455-2.23-0.455-3.838
				c0-1.775,0.383-3.79,0.516-4.737c0.047-0.3,0.096-0.672,0.107-0.983L384.988,135.971z M387.723,141.776
				c-0.096,0.408-0.145,0.732-0.145,1.057c0,0.539,0.396,0.959,1.836,0.959c1.066,0,1.967-0.096,2.961-0.313l0.025,1.271
				c-0.744,0.145-1.729,0.24-3.012,0.24c-2.014,0-2.949-0.695-2.949-1.848c0-0.467,0.096-0.947,0.203-1.463L387.723,141.776z
				 M392.027,136.823v1.224c-1.355,0.132-3.598,0.144-4.977,0v-1.212C388.406,137.039,390.793,136.99,392.027,136.823z"/>
			<path d="M397.922,140.313c0.865-0.252,1.752-0.371,2.471-0.371c1.764,0,3.096,0.947,3.096,2.471c0,1.414-0.816,2.398-2.566,2.818
				c-0.541,0.119-1.068,0.156-1.5,0.168l-0.432-1.199c0.48,0,0.984,0,1.428-0.084c0.994-0.181,1.871-0.709,1.871-1.716
				c0-0.911-0.828-1.415-1.908-1.415c-0.84,0-1.643,0.145-2.434,0.396c0.012,0.983,0.047,1.979,0.047,2.446
				c0,1.26-0.467,1.619-1.162,1.619c-1.031,0-2.615-0.936-2.615-2.086c0-1.008,1.211-2.051,2.615-2.663c0-0.251,0-0.503,0-0.743
				c0-0.42,0-0.863,0.012-1.308c-0.289,0.024-0.553,0.036-0.779,0.036c-0.527,0-1.092-0.012-1.561-0.061l-0.035-1.15
				c0.672,0.084,1.139,0.096,1.57,0.096c0.252,0,0.529-0.012,0.816-0.024c0-0.54,0.012-0.972,0.012-1.187
				c0-0.252-0.035-0.721-0.072-0.936h1.295c-0.023,0.228-0.059,0.623-0.07,0.911c-0.014,0.288-0.025,0.671-0.049,1.091
				c0.84-0.096,1.691-0.264,2.338-0.455l0.025,1.176c-0.684,0.155-1.561,0.299-2.387,0.395c-0.012,0.48-0.025,0.948-0.025,1.367
				V140.313z M396.891,143.635c0-0.371-0.023-1.055-0.035-1.822c-0.863,0.419-1.463,1.02-1.463,1.498
				c0,0.469,0.695,0.876,1.104,0.876C396.748,144.187,396.891,144.031,396.891,143.635z M401.664,136.727
				c0.877,0.443,2.207,1.235,2.807,1.703l-0.588,0.959c-0.574-0.527-2.002-1.355-2.746-1.75L401.664,136.727z"/>
			<path d="M415.26,138.082c-0.707-0.036-1.822-0.061-3.551-0.061c0.012,0.637,0.012,1.332,0.012,1.859
				c0.277,0.432,0.42,0.972,0.42,1.583c0,1.583-0.838,3.442-3.656,4.259l-1.02-1.008c1.391-0.313,2.482-0.828,3.057-1.716
				c-0.238,0.108-0.516,0.168-0.826,0.168c-0.961,0-2.004-0.72-2.004-2.075c0-1.247,1.02-2.135,2.219-2.135
				c0.24,0,0.457,0.024,0.66,0.084l-0.012-1.008c-1.799,0.025-3.742,0.097-5.217,0.193l-0.037-1.152
				c1.344-0.012,3.551-0.084,5.242-0.107c-0.012-0.252-0.012-0.469-0.025-0.6c-0.023-0.301-0.059-0.695-0.096-0.863h1.367
				c-0.023,0.155-0.059,0.695-0.059,0.863c-0.014,0.144-0.014,0.348-0.014,0.588h3.551L415.26,138.082z M409.91,142.123
				c0.611,0,1.068-0.491,0.912-1.619c-0.191-0.383-0.527-0.551-0.924-0.551c-0.539,0-1.066,0.408-1.066,1.115
				C408.832,141.729,409.336,142.123,409.91,142.123z"/>
			<path d="M426.119,138.082c-0.707-0.036-1.822-0.061-3.549-0.061c0.012,0.637,0.012,1.332,0.012,1.859
				c0.275,0.432,0.42,0.972,0.42,1.583c0,1.583-0.84,3.442-3.658,4.259l-1.02-1.008c1.391-0.313,2.482-0.828,3.059-1.716
				c-0.24,0.108-0.516,0.168-0.828,0.168c-0.959,0-2.002-0.72-2.002-2.075c0-1.247,1.02-2.135,2.219-2.135
				c0.24,0,0.455,0.024,0.658,0.084l-0.012-1.008c-1.799,0.025-3.742,0.097-5.217,0.193l-0.035-1.152
				c1.344-0.012,3.549-0.084,5.24-0.107c-0.012-0.252-0.012-0.469-0.023-0.6c-0.023-0.301-0.061-0.695-0.096-0.863h1.367
				c-0.023,0.155-0.061,0.695-0.061,0.863c-0.012,0.144-0.012,0.348-0.012,0.588h3.551L426.119,138.082z M420.771,142.123
				c0.611,0,1.066-0.491,0.91-1.619c-0.191-0.383-0.527-0.551-0.922-0.551c-0.541,0-1.068,0.408-1.068,1.115
				C419.691,141.729,420.195,142.123,420.771,142.123z"/>
			<path d="M434.811,135.743c-0.084,0.3-0.182,0.78-0.24,1.044c-0.049,0.203-0.096,0.42-0.156,0.635
				c1.883,0.372,3.166,1.859,3.166,3.91c0,2.435-1.738,3.886-4.246,4.246l-0.719-1.08c2.529-0.228,3.754-1.535,3.754-3.214
				c0-1.451-0.852-2.53-2.23-2.818c-0.432,1.451-0.996,2.914-1.68,3.922c0.215,0.288,0.455,0.552,0.695,0.779l-0.947,0.768
				c-0.168-0.192-0.336-0.384-0.492-0.587c-0.756,0.875-1.463,1.379-2.338,1.379c-0.947,0-1.764-0.779-1.764-2.243
				c0-1.354,0.721-2.794,1.799-3.706c-0.131-0.348-0.24-0.695-0.348-1.031c-0.119-0.408-0.252-0.779-0.432-1.151l1.248-0.384
				c0.072,0.348,0.168,0.744,0.252,1.092c0.072,0.252,0.156,0.539,0.252,0.827c0.959-0.528,1.906-0.768,2.891-0.792
				c0.059-0.252,0.119-0.491,0.154-0.719c0.049-0.288,0.084-0.732,0.072-1.008L434.811,135.743z M430.9,142.184
				c-0.361-0.563-0.744-1.403-1.092-2.314c-0.684,0.707-1.092,1.691-1.092,2.53c0,0.696,0.287,1.128,0.779,1.128
				c0.516,0,1.057-0.48,1.547-1.115L430.9,142.184z M431.752,141.368c0.479-0.827,0.922-1.907,1.246-2.975
				c-0.852,0.06-1.594,0.336-2.266,0.756c0.287,0.804,0.623,1.571,0.91,2.038L431.752,141.368z"/>
			<path d="M444.027,144.307c0.42-0.036,0.768-0.096,1.055-0.168c1.523-0.348,2.879-1.451,2.879-3.37
				c0-1.728-1.031-3.083-2.855-3.31c-0.168,1.066-0.383,2.219-0.707,3.334c-0.719,2.422-1.703,3.777-2.891,3.777
				c-1.176,0-2.254-1.331-2.254-3.311c0-2.639,2.338-4.929,5.313-4.929c2.854,0,4.666,1.991,4.666,4.485
				c0,2.482-1.596,4.209-4.498,4.617L444.027,144.307z M443.188,140.541c0.299-0.936,0.527-2.016,0.646-3.059
				c-2.135,0.348-3.381,2.207-3.381,3.67c0,1.367,0.611,1.99,1.092,1.99C442.061,143.143,442.635,142.375,443.188,140.541z"/>
			<path d="M356.795,151.045c-0.035,0.205-0.059,0.457-0.07,0.611c-0.037,1.213-0.193,4.643-0.721,5.818
				c-0.252,0.551-0.66,0.814-1.391,0.814c-0.648,0-1.355-0.047-1.955-0.084l-0.145-1.26c0.611,0.084,1.248,0.145,1.74,0.145
				c0.359,0,0.551-0.107,0.684-0.408c0.406-0.838,0.563-3.549,0.563-4.844h-3.07c-0.443,3.334-1.631,5.168-3.693,6.619l-1.104-0.898
				c0.432-0.229,0.959-0.6,1.379-1.008c1.164-1.092,1.895-2.543,2.195-4.713h-1.822c-0.445,0-1.008,0.012-1.465,0.047v-1.248
				c0.457,0.037,0.996,0.072,1.465,0.072h1.93c0.023-0.359,0.037-0.742,0.037-1.139c0-0.275-0.037-0.768-0.084-1.043h1.402
				c-0.023,0.275-0.047,0.719-0.061,1.008c-0.012,0.406-0.035,0.803-0.059,1.174h2.59c0.313,0,0.588-0.035,0.828-0.072
				L356.795,151.045z"/>
			<path d="M358.949,152.69c0.383,0.035,1.127,0.07,1.773,0.07h6.514c0.588,0,1.055-0.047,1.342-0.07v1.475
				c-0.264-0.012-0.803-0.049-1.33-0.049h-6.525c-0.672,0-1.379,0.025-1.773,0.049V152.69z"/>
			<path d="M373.094,152.041c1.584,0.467,3.887,1.332,5.074,1.918l-0.527,1.297c-1.271-0.672-3.227-1.428-4.547-1.859l0.012,3.705
				c0,0.373,0.037,1.092,0.084,1.535h-1.463c0.061-0.42,0.096-1.078,0.096-1.535v-6.932c0-0.385-0.035-0.947-0.107-1.344h1.475
				c-0.035,0.396-0.096,0.912-0.096,1.344V152.041z M376.525,151.465c-0.313-0.684-0.648-1.26-1.057-1.834l0.805-0.348
				c0.322,0.467,0.826,1.246,1.09,1.811L376.525,151.465z M378.084,150.83c-0.348-0.684-0.684-1.236-1.104-1.799l0.803-0.373
				c0.324,0.443,0.84,1.225,1.115,1.775L378.084,150.83z"/>
		</g>
	</g>
	<g>
		<path d="M79.69,104.868c-0.225,0-0.449,0.113-0.589,0.283l-4.815,5.537l-2.05-2.049c-0.702-0.703-1.772,0.363-1.071,1.07
			l2.618,2.619c0.312,0.31,0.814,0.283,1.099-0.026l5.371-6.159C80.671,105.657,80.333,104.868,79.69,104.868z"/>
	</g>
	<g>
		<path d="M79.69,124.178c-0.225,0-0.449,0.113-0.589,0.283l-4.815,5.537l-2.05-2.049c-0.702-0.703-1.772,0.363-1.071,1.07
			l2.618,2.619c0.312,0.31,0.814,0.283,1.099-0.026l5.371-6.159C80.671,124.967,80.333,124.178,79.69,124.178z"/>
	</g>
	<g>
		<path d="M95.28,91.051c0-0.21,0.015-0.495,0.015-0.81h-7.11c-0.615,0-1.365,0.03-1.8,0.06v-1.695
			c0.435,0.03,1.095,0.075,1.74,0.075h7.185v-6.689h-7.005c-0.585,0-1.35,0.03-1.74,0.045v-1.65c0.525,0.045,1.245,0.09,1.74,0.09
			h7.455c0.405,0,0.93-0.015,1.2-0.03c-0.015,0.33-0.03,0.87-0.03,1.26v7.755c0,0.525,0.03,1.26,0.06,1.59H95.28z"/>
		<path d="M106.11,87.586c2.415-1.485,4.29-3.735,5.205-5.655l0.915,1.635c-1.08,1.935-2.925,3.99-5.265,5.43
			c-1.515,0.93-3.42,1.815-5.745,2.235l-1.005-1.545C102.72,89.31,104.67,88.47,106.11,87.586z M105.6,82.786l-1.185,1.215
			c-0.78-0.795-2.64-2.415-3.75-3.18l1.095-1.17C102.826,80.356,104.76,81.916,105.6,82.786z"/>
		<path d="M124.335,83.431c0.315,0,0.885-0.03,1.26-0.075v1.545c-0.345-0.03-0.87-0.045-1.26-0.045h-3.855
			c-0.06,1.59-0.36,2.91-0.93,4.005c-0.54,1.005-1.68,2.13-2.985,2.79l-1.38-1.02c1.11-0.45,2.175-1.305,2.775-2.235
			c0.645-1.005,0.84-2.19,0.9-3.54h-4.335c-0.45,0-0.945,0.015-1.365,0.045v-1.545c0.42,0.045,0.9,0.075,1.365,0.075H124.335z
			 M116.401,81.046c-0.495,0-1.05,0.015-1.47,0.045v-1.545c0.45,0.06,0.975,0.105,1.47,0.105h6.044c0.465,0,1.02-0.03,1.5-0.105
			v1.545c-0.48-0.03-1.035-0.045-1.5-0.045H116.401z"/>
		<path d="M133.05,87.586c2.415-1.485,4.29-3.735,5.205-5.655l0.915,1.635c-1.08,1.935-2.925,3.99-5.266,5.43
			c-1.515,0.93-3.419,1.815-5.744,2.235l-1.005-1.545C129.661,89.31,131.61,88.47,133.05,87.586z M132.541,82.786l-1.186,1.215
			c-0.779-0.795-2.64-2.415-3.75-3.18l1.096-1.17C129.765,80.356,131.701,81.916,132.541,82.786z"/>
		<path d="M143.505,84.436l-1.515,0.555c-0.3-0.96-1.305-3.45-1.694-4.169l1.499-0.54C142.216,81.166,143.146,83.431,143.505,84.436
			z M152.715,80.431c-0.135,0.315-0.24,0.72-0.314,0.99c-0.45,1.77-1.275,4.005-2.505,5.64c-1.561,2.055-3.766,3.584-5.896,4.35
			l-1.305-1.32c2.1-0.6,4.38-2.01,5.895-3.93c1.23-1.56,2.101-4.125,2.37-6.225L152.715,80.431z M147.496,83.341l-1.485,0.525
			c-0.255-0.9-1.095-3.165-1.499-4.005l1.454-0.495C146.326,80.101,147.226,82.441,147.496,83.341z"/>
		<path d="M157.86,78.646c-0.329,1.02-0.749,2.055-1.215,3.03v10.32h-1.274v-7.98c-0.375,0.6-0.78,1.155-1.186,1.635
			c-0.135-0.345-0.494-1.11-0.704-1.47c1.244-1.44,2.399-3.66,3.09-5.895L157.86,78.646z M163.17,88.546v-8.37h-2.806
			c-0.119,0.615-0.239,1.26-0.39,1.905h1.755l0.21-0.045l0.811,0.24c-0.556,4.845-2.16,8.085-4.455,9.75
			c-0.18-0.314-0.6-0.854-0.885-1.065c1.17-0.795,2.13-2.01,2.835-3.615c-0.405-0.45-1.065-1.02-1.65-1.455
			c-0.27,0.51-0.585,0.975-0.945,1.395c-0.18-0.285-0.569-0.75-0.824-0.99c1.245-1.5,1.875-3.99,2.189-6.12h-1.185v-1.23h5.34v0.99
			h1.245v8.61H163.17z M159.645,83.296c-0.149,0.51-0.33,1.005-0.524,1.485c0.555,0.39,1.185,0.87,1.604,1.26
			c0.271-0.825,0.48-1.74,0.63-2.745H159.645z M167.085,78.496v11.85c0,0.795-0.181,1.185-0.646,1.41
			c-0.479,0.225-1.245,0.255-2.43,0.255c-0.061-0.36-0.24-0.96-0.436-1.365c0.855,0.045,1.636,0.03,1.875,0.03
			c0.255-0.015,0.346-0.09,0.346-0.33v-11.85H167.085z"/>
	</g>
	<g>
		<g>
			<path d="M84.25,104.825h5.217v1.163h-3.826v2.459h3.238v1.176h-3.238v2.854h3.958v1.176H84.25V104.825z"/>
			<path d="M90.97,109.263c0-2.878,1.751-4.605,3.981-4.605c1.104,0,1.968,0.528,2.507,1.115l-0.756,0.888
				c-0.455-0.468-1.007-0.791-1.727-0.791c-1.523,0-2.578,1.271-2.578,3.346c0,2.099,0.983,3.383,2.542,3.383
				c0.804,0,1.428-0.36,1.955-0.936l0.743,0.875c-0.707,0.815-1.606,1.271-2.746,1.271C92.673,113.809,90.97,112.154,90.97,109.263z
				"/>
			<path d="M99.669,105.569c0.863-0.084,2.986-0.287,5.169-0.467c1.26-0.108,2.459-0.18,3.263-0.205l0.012,1.212
				c-0.659,0-1.691,0.013-2.314,0.168c-1.571,0.479-2.615,2.159-2.615,3.562c0,2.172,2.016,2.879,3.971,2.975l-0.433,1.271
				c-2.326-0.119-4.761-1.367-4.761-3.982c0-1.799,1.043-3.237,2.003-3.85c-1.031,0.108-3.946,0.396-5.277,0.684l-0.12-1.307
				C99.021,105.617,99.429,105.593,99.669,105.569z M107.417,109.071l-0.744,0.336c-0.287-0.611-0.6-1.163-0.959-1.679l0.72-0.312
				C106.721,107.836,107.165,108.567,107.417,109.071z M108.784,108.52l-0.731,0.359c-0.313-0.611-0.624-1.139-1.008-1.654
				l0.72-0.324C108.053,107.308,108.521,108.028,108.784,108.52z"/>
			<path d="M113.755,108.927c0.864-0.251,1.752-0.372,2.471-0.372c1.764,0,3.095,0.947,3.095,2.471c0,1.416-0.815,2.398-2.566,2.818
				c-0.54,0.121-1.067,0.156-1.499,0.168l-0.432-1.199c0.479,0,0.983,0,1.427-0.084c0.995-0.18,1.871-0.707,1.871-1.715
				c0-0.912-0.828-1.415-1.907-1.415c-0.84,0-1.643,0.144-2.435,0.396c0.012,0.984,0.048,1.979,0.048,2.447
				c0,1.259-0.468,1.619-1.163,1.619c-1.031,0-2.614-0.936-2.614-2.088c0-1.007,1.211-2.051,2.614-2.662c0-0.252,0-0.504,0-0.744
				c0-0.419,0-0.863,0.012-1.307c-0.288,0.023-0.552,0.036-0.779,0.036c-0.528,0-1.092-0.013-1.56-0.06l-0.036-1.152
				c0.672,0.084,1.14,0.097,1.571,0.097c0.252,0,0.528-0.013,0.815-0.024c0-0.539,0.013-0.971,0.013-1.188
				c0-0.252-0.036-0.719-0.072-0.936h1.295c-0.023,0.229-0.06,0.624-0.071,0.912c-0.013,0.287-0.024,0.672-0.048,1.092
				c0.839-0.097,1.69-0.265,2.338-0.457l0.024,1.176c-0.684,0.156-1.56,0.301-2.387,0.396c-0.012,0.479-0.024,0.947-0.024,1.367
				V108.927z M112.724,112.249c0-0.372-0.023-1.056-0.036-1.823c-0.863,0.42-1.463,1.02-1.463,1.5c0,0.467,0.695,0.875,1.104,0.875
				C112.58,112.801,112.724,112.645,112.724,112.249z M117.497,105.341c0.876,0.444,2.207,1.235,2.807,1.703l-0.588,0.96
				c-0.575-0.528-2.003-1.355-2.746-1.752L117.497,105.341z"/>
			<path d="M124.82,106.624c-0.275,0.491-0.636,0.995-1.007,1.487v6.477h-1.08v-5.241c-0.407,0.444-0.852,0.827-1.259,1.163
				c-0.097-0.252-0.384-0.852-0.564-1.127c1.067-0.756,2.22-1.955,2.927-3.154L124.82,106.624z M124.652,104.045
				c-0.743,1.057-1.919,2.184-2.998,2.891c-0.12-0.252-0.396-0.695-0.576-0.923c0.936-0.6,1.991-1.571,2.495-2.387L124.652,104.045z
				 M132.017,111.41h-1.715v2.026c0,0.552-0.108,0.827-0.504,0.983c-0.396,0.168-0.972,0.18-1.823,0.18
				c-0.06-0.299-0.216-0.719-0.359-1.008c0.6,0.024,1.175,0.024,1.343,0.013c0.18-0.013,0.229-0.048,0.229-0.192v-2.002h-4.618
				v-0.96h4.618v-0.876h-4.33v-0.924h6.933v0.924h-1.487v0.876h1.715V111.41z M126.283,111.482c0.528,0.479,1.176,1.163,1.476,1.619
				l-0.84,0.6c-0.275-0.456-0.899-1.175-1.427-1.69L126.283,111.482z M131.309,107.967h-5.78v-4.018h5.78V107.967z M130.182,104.766
				h-3.574v0.803h3.574V104.766z M130.182,106.336h-3.574v0.805h3.574V106.336z"/>
			<path d="M139.519,106.553c-0.588,0.155-1.319,0.312-2.111,0.42c-0.575,1.666-1.606,3.741-2.578,5.049l-1.151-0.588
				c0.972-1.164,1.967-2.986,2.482-4.33c-0.288,0.012-0.563,0.024-0.852,0.024c-0.456,0-0.947-0.013-1.427-0.048l-0.084-1.104
				c0.468,0.048,1.031,0.072,1.511,0.072c0.396,0,0.804-0.012,1.224-0.049c0.18-0.659,0.323-1.391,0.348-2.014l1.308,0.119
				c-0.097,0.408-0.252,1.067-0.432,1.739c0.6-0.097,1.187-0.239,1.727-0.407L139.519,106.553z M140.981,107.787
				c-0.036,0.504-0.023,0.912-0.012,1.392c0.012,0.384,0.048,1.067,0.084,1.739c1.02,0.371,1.858,0.971,2.459,1.499l-0.636,1.02
				c-0.468-0.42-1.067-0.936-1.775-1.319v0.324c0,1.007-0.611,1.822-2.171,1.822c-1.379,0-2.494-0.588-2.494-1.822
				c0-1.115,1.007-1.907,2.482-1.907c0.348,0,0.672,0.024,0.995,0.084c-0.048-0.936-0.107-2.052-0.132-2.831H140.981z
				 M139.95,111.65c-0.336-0.096-0.708-0.144-1.092-0.144c-0.791,0-1.307,0.348-1.307,0.827c0,0.504,0.407,0.852,1.223,0.852
				c0.888,0,1.188-0.504,1.188-1.115C139.962,111.949,139.962,111.818,139.95,111.65z M143.2,108.243
				c-0.659-0.54-1.967-1.295-2.771-1.655l0.6-0.924c0.852,0.373,2.255,1.164,2.843,1.596L143.2,108.243z"/>
			<path d="M154.469,106.66c-0.035,0.204-0.06,0.455-0.071,0.611c-0.036,1.212-0.192,4.642-0.72,5.817
				c-0.252,0.552-0.66,0.815-1.392,0.815c-0.647,0-1.355-0.048-1.955-0.084l-0.144-1.26c0.611,0.084,1.247,0.145,1.739,0.145
				c0.359,0,0.552-0.107,0.684-0.408c0.407-0.84,0.563-3.55,0.563-4.846h-3.07c-0.443,3.335-1.631,5.17-3.694,6.621l-1.103-0.9
				c0.432-0.227,0.959-0.6,1.379-1.007c1.163-1.091,1.895-2.542,2.194-4.714h-1.822c-0.444,0-1.008,0.013-1.464,0.049v-1.248
				c0.456,0.037,0.996,0.072,1.464,0.072h1.931c0.023-0.359,0.036-0.744,0.036-1.139c0-0.276-0.036-0.768-0.084-1.044h1.403
				c-0.024,0.276-0.048,0.72-0.061,1.007c-0.012,0.408-0.036,0.805-0.06,1.176h2.591c0.312,0,0.587-0.035,0.827-0.072
				L154.469,106.66z"/>
			<path d="M156.623,108.303c0.384,0.037,1.127,0.072,1.774,0.072h6.513c0.588,0,1.056-0.048,1.343-0.072v1.476
				c-0.264-0.012-0.803-0.048-1.331-0.048h-6.524c-0.672,0-1.379,0.023-1.774,0.048V108.303z"/>
			<path d="M170.769,107.656c1.583,0.467,3.886,1.33,5.073,1.918l-0.527,1.295c-1.271-0.671-3.227-1.426-4.546-1.858l0.012,3.706
				c0,0.372,0.036,1.092,0.084,1.535h-1.463c0.06-0.42,0.096-1.08,0.096-1.535v-6.932c0-0.385-0.036-0.947-0.107-1.344h1.475
				c-0.036,0.396-0.096,0.912-0.096,1.344V107.656z M174.198,107.08c-0.312-0.684-0.647-1.26-1.055-1.835l0.804-0.349
				c0.323,0.469,0.827,1.248,1.091,1.812L174.198,107.08z M175.758,106.445c-0.348-0.684-0.684-1.235-1.104-1.799l0.804-0.372
				c0.324,0.443,0.84,1.223,1.115,1.775L175.758,106.445z"/>
		</g>
	</g>
	<g>
		<g>
			<path d="M91.422,132.33c0-0.168,0.012-0.396,0.012-0.647h-5.685c-0.492,0-1.092,0.024-1.439,0.048v-1.355
				c0.348,0.024,0.876,0.061,1.392,0.061h5.744v-5.35h-5.601c-0.468,0-1.079,0.024-1.392,0.036v-1.319
				c0.42,0.036,0.996,0.072,1.392,0.072h5.961c0.323,0,0.743-0.012,0.959-0.023c-0.012,0.264-0.023,0.695-0.023,1.007v6.2
				c0,0.42,0.023,1.008,0.048,1.271H91.422z"/>
			<path d="M100.087,129.561c1.931-1.188,3.431-2.987,4.162-4.522l0.731,1.308c-0.863,1.547-2.339,3.189-4.21,4.342
				c-1.211,0.743-2.734,1.451-4.594,1.787l-0.803-1.236C97.377,130.94,98.936,130.268,100.087,129.561z M99.68,125.723l-0.948,0.971
				c-0.623-0.636-2.11-1.932-2.998-2.543l0.876-0.936C97.46,123.78,99.008,125.027,99.68,125.723z"/>
			<path d="M108.249,130.364c0,0.576,0.252,0.72,0.815,0.84c0.36,0.06,0.924,0.084,1.499,0.084c1.26,0,3.143-0.133,4.126-0.396v1.38
				c-1.079,0.155-2.878,0.239-4.197,0.239c-0.744,0-1.464-0.035-1.967-0.119c-0.972-0.18-1.523-0.66-1.523-1.668v-6.572
				c0-0.275-0.024-0.768-0.084-1.079h1.403c-0.048,0.312-0.072,0.743-0.072,1.079v2.52c1.415-0.348,3.215-0.912,4.378-1.404
				c0.396-0.155,0.768-0.336,1.163-0.587l0.527,1.211c-0.396,0.156-0.875,0.372-1.259,0.504c-1.283,0.516-3.298,1.128-4.81,1.522
				V130.364z M113.802,124.595c-0.252-0.479-0.636-1.2-0.959-1.655l0.768-0.324c0.3,0.432,0.731,1.176,0.972,1.644L113.802,124.595z
				 M114.978,122.112c0.312,0.444,0.768,1.199,0.983,1.632l-0.779,0.335c-0.252-0.516-0.636-1.199-0.972-1.643L114.978,122.112z"/>
			<path d="M116.89,130.1c0.432,0.035,0.912,0.072,1.355,0.072h7.052c0.384,0,0.816-0.024,1.2-0.072v1.451
				c-0.396-0.036-0.864-0.061-1.2-0.061h-7.052c-0.443,0-0.936,0.024-1.355,0.061V130.1z M117.909,124.199
				c0.396,0.035,0.876,0.06,1.271,0.06h5.062c0.455,0,0.923-0.024,1.247-0.06v1.367c-0.336-0.024-0.84-0.049-1.247-0.049h-5.05
				c-0.432,0-0.899,0.024-1.283,0.049V124.199z"/>
			<path d="M128.854,124.067c0.863-0.084,2.986-0.287,5.169-0.467c1.26-0.108,2.459-0.18,3.263-0.205l0.012,1.212
				c-0.659,0-1.691,0.013-2.314,0.168c-1.571,0.479-2.614,2.159-2.614,3.562c0,2.172,2.015,2.879,3.97,2.975l-0.433,1.271
				c-2.326-0.119-4.761-1.367-4.761-3.982c0-1.799,1.043-3.237,2.003-3.85c-1.031,0.108-3.946,0.396-5.277,0.684l-0.12-1.307
				C128.206,124.115,128.613,124.091,128.854,124.067z M136.602,127.569l-0.744,0.336c-0.287-0.611-0.6-1.163-0.959-1.679
				l0.72-0.312C135.905,126.334,136.35,127.065,136.602,127.569z M137.969,127.018l-0.731,0.359
				c-0.313-0.611-0.624-1.139-1.008-1.654l0.72-0.324C137.237,125.806,137.705,126.526,137.969,127.018z"/>
			<path d="M87.716,141.424c0.863-0.252,1.751-0.371,2.471-0.371c1.763,0,3.094,0.947,3.094,2.471c0,1.416-0.815,2.398-2.566,2.818
				c-0.539,0.119-1.067,0.156-1.499,0.168l-0.432-1.199c0.479,0,0.983,0,1.427-0.084c0.996-0.18,1.871-0.707,1.871-1.715
				c0-0.912-0.827-1.416-1.906-1.416c-0.84,0-1.644,0.145-2.435,0.396c0.012,0.982,0.048,1.979,0.048,2.447
				c0,1.258-0.468,1.619-1.164,1.619c-1.031,0-2.614-0.936-2.614-2.088c0-1.008,1.211-2.051,2.614-2.662c0-0.252,0-0.504,0-0.744
				c0-0.42,0-0.863,0.013-1.307c-0.288,0.023-0.552,0.035-0.78,0.035c-0.527,0-1.091-0.012-1.559-0.059l-0.036-1.152
				c0.672,0.084,1.14,0.096,1.571,0.096c0.252,0,0.527-0.012,0.815-0.023c0-0.539,0.012-0.973,0.012-1.188
				c0-0.252-0.036-0.719-0.071-0.936h1.295c-0.024,0.229-0.061,0.623-0.072,0.912c-0.012,0.287-0.023,0.672-0.048,1.09
				c0.84-0.096,1.691-0.264,2.339-0.455l0.023,1.176c-0.684,0.156-1.559,0.299-2.386,0.396c-0.013,0.479-0.024,0.947-0.024,1.367
				V141.424z M86.685,144.746c0-0.371-0.024-1.055-0.036-1.822c-0.863,0.42-1.463,1.02-1.463,1.5c0,0.467,0.695,0.875,1.103,0.875
				C86.54,145.299,86.685,145.143,86.685,144.746z M91.458,137.838c0.875,0.445,2.206,1.236,2.807,1.703l-0.588,0.961
				c-0.576-0.529-2.003-1.355-2.747-1.752L91.458,137.838z"/>
			<path d="M98.78,139.121c-0.275,0.492-0.636,0.996-1.007,1.488v6.477h-1.08v-5.242c-0.407,0.443-0.852,0.828-1.259,1.164
				c-0.097-0.252-0.384-0.852-0.564-1.127c1.068-0.756,2.219-1.955,2.927-3.154L98.78,139.121z M98.612,136.543
				c-0.743,1.055-1.919,2.184-2.998,2.891c-0.12-0.252-0.396-0.695-0.576-0.924c0.936-0.6,1.991-1.57,2.495-2.387L98.612,136.543z
				 M105.977,143.906h-1.715v2.027c0,0.553-0.108,0.828-0.504,0.984c-0.396,0.168-0.972,0.18-1.823,0.18
				c-0.06-0.301-0.216-0.721-0.359-1.008c0.6,0.023,1.175,0.023,1.343,0.012c0.18-0.012,0.229-0.047,0.229-0.191v-2.004h-4.618
				v-0.959h4.618v-0.875h-4.33v-0.924h6.933v0.924h-1.487v0.875h1.715V143.906z M100.243,143.979
				c0.528,0.48,1.176,1.164,1.476,1.619l-0.84,0.6c-0.275-0.455-0.899-1.174-1.427-1.691L100.243,143.979z M105.269,140.465h-5.78
				v-4.018h5.78V140.465z M104.142,137.264h-3.574v0.803h3.574V137.264z M104.142,138.834h-3.574v0.803h3.574V138.834z"/>
			<path d="M113.479,139.051c-0.588,0.154-1.319,0.311-2.111,0.418c-0.575,1.668-1.606,3.742-2.578,5.051l-1.151-0.588
				c0.972-1.164,1.967-2.986,2.482-4.33c-0.288,0.012-0.563,0.023-0.852,0.023c-0.456,0-0.947-0.012-1.427-0.047l-0.084-1.104
				c0.468,0.047,1.031,0.072,1.511,0.072c0.396,0,0.804-0.014,1.224-0.049c0.18-0.66,0.323-1.391,0.348-2.016l1.308,0.121
				c-0.097,0.408-0.252,1.066-0.432,1.738c0.6-0.096,1.187-0.24,1.727-0.408L113.479,139.051z M114.941,140.285
				c-0.036,0.504-0.023,0.912-0.012,1.391c0.012,0.385,0.048,1.068,0.084,1.74c1.02,0.371,1.858,0.971,2.459,1.498l-0.636,1.02
				c-0.468-0.42-1.067-0.936-1.775-1.318v0.324c0,1.006-0.611,1.822-2.171,1.822c-1.379,0-2.494-0.588-2.494-1.822
				c0-1.117,1.007-1.908,2.482-1.908c0.348,0,0.672,0.023,0.995,0.084c-0.048-0.936-0.107-2.051-0.132-2.83H114.941z
				 M113.91,144.147c-0.336-0.096-0.708-0.143-1.092-0.143c-0.791,0-1.307,0.348-1.307,0.826c0,0.504,0.407,0.852,1.223,0.852
				c0.888,0,1.188-0.504,1.188-1.115C113.922,144.448,113.922,144.315,113.91,144.147z M117.16,140.74
				c-0.659-0.539-1.967-1.295-2.771-1.654l0.6-0.924c0.852,0.371,2.255,1.164,2.843,1.596L117.16,140.74z"/>
			<path d="M128.429,139.158c-0.035,0.203-0.06,0.455-0.071,0.611c-0.036,1.211-0.192,4.641-0.72,5.816
				c-0.252,0.553-0.66,0.816-1.392,0.816c-0.647,0-1.355-0.049-1.955-0.084l-0.144-1.26c0.611,0.084,1.247,0.145,1.739,0.145
				c0.359,0,0.552-0.109,0.684-0.408c0.407-0.84,0.563-3.551,0.563-4.846h-3.07c-0.443,3.334-1.631,5.17-3.694,6.621l-1.103-0.9
				c0.432-0.229,0.959-0.6,1.379-1.008c1.163-1.09,1.895-2.541,2.194-4.713h-1.822c-0.444,0-1.008,0.012-1.464,0.049v-1.248
				c0.456,0.035,0.996,0.072,1.464,0.072h1.931c0.023-0.359,0.036-0.744,0.036-1.141c0-0.275-0.036-0.768-0.084-1.043h1.403
				c-0.024,0.275-0.048,0.721-0.061,1.008c-0.012,0.408-0.036,0.803-0.06,1.176h2.591c0.312,0,0.587-0.037,0.827-0.072
				L128.429,139.158z"/>
			<path d="M130.583,140.801c0.384,0.035,1.127,0.072,1.774,0.072h6.513c0.588,0,1.056-0.049,1.343-0.072v1.475
				c-0.264-0.012-0.803-0.047-1.331-0.047h-6.524c-0.672,0-1.379,0.023-1.774,0.047V140.801z"/>
			<path d="M144.729,140.153c1.583,0.469,3.886,1.332,5.073,1.92l-0.527,1.295c-1.271-0.672-3.227-1.428-4.546-1.859l0.012,3.707
				c0,0.371,0.036,1.092,0.084,1.535h-1.463c0.06-0.42,0.096-1.08,0.096-1.535v-6.932c0-0.385-0.036-0.949-0.107-1.344h1.475
				c-0.036,0.395-0.096,0.91-0.096,1.344V140.153z M148.159,139.578c-0.313-0.684-0.648-1.26-1.056-1.836l0.804-0.348
				c0.323,0.469,0.827,1.248,1.091,1.811L148.159,139.578z M149.718,138.942c-0.348-0.684-0.684-1.234-1.104-1.799l0.804-0.371
				c0.324,0.443,0.84,1.223,1.115,1.775L149.718,138.942z"/>
		</g>
	</g>
	<g>
		<g>
			<rect x="36.385" y="25.625" fill="#F1F3F4" width="180.5" height="40.5"/>
			<path fill="#C8C8C8" d="M216.635,25.875v40h-180v-40H216.635 M217.135,25.375h-0.5h-180h-0.5v0.5v40v0.5h0.5h180h0.5v-0.5v-40
				V25.375L217.135,25.375z"/>
		</g>
		<g>
			<rect x="36.885" y="26.125" fill="#F1F3F4" width="179.5" height="39.5"/>
			<path fill="#FFFFFF" d="M216.135,26.375v39h-179v-39H216.135 M216.635,25.875h-180v40h180V25.875L216.635,25.875z"/>
		</g>
		<g>
			<path fill="#FFFFFF" stroke="#DFDFDF" d="M53.84,32.064h144.588c7.621,0,13.801,6.178,13.801,13.799v0.025
				c0,7.621-6.18,13.801-13.801,13.801H53.84c-7.621,0-13.799-6.18-13.799-13.801v-0.025C40.041,38.241,46.219,32.064,53.84,32.064z
				"/>
			<path fill="#9AA0A6" d="M61.328,52.988c-0.271,0.271-0.715,0.271-0.988,0L57.141,49.8c0.396-0.254,0.734-0.589,0.99-0.986
				l3.197,3.186C61.602,52.271,61.602,52.713,61.328,52.988z M54.043,50.122c-2.459,0-4.453-1.99-4.453-4.441
				c0-2.453,1.994-4.441,4.453-4.441s4.453,1.988,4.453,4.441C58.496,48.132,56.502,50.122,54.043,50.122z M54.043,42.497
				c-1.762,0-3.193,1.43-3.193,3.184s1.432,3.182,3.193,3.182c1.76,0,3.189-1.428,3.189-3.182S55.803,42.497,54.043,42.497z"/>
			<path d="M196.635,39.876h1v12h-1V39.876z"/>
		</g>
		<g enable-background="new    ">
			<path d="M78.592,42.749c-0.104,0.182-0.234,0.48-0.312,0.688c-0.351,1.3-1.144,3.068-2.301,4.473
				c-1.183,1.442-2.73,2.639-5.174,3.536L69.869,50.6c2.379-0.701,4.004-1.885,5.187-3.263c1.014-1.196,1.807-2.873,2.067-4.056
				h-4.394c-0.78,1.092-1.872,2.249-3.289,3.197l-0.897-0.676c2.249-1.339,3.523-3.224,4.082-4.395
				c0.143-0.221,0.325-0.688,0.403-1.026l1.209,0.403c-0.221,0.338-0.455,0.767-0.585,1.014c-0.091,0.182-0.195,0.364-0.313,0.546
				h3.536c0.351,0,0.637-0.039,0.845-0.117L78.592,42.749z"/>
			<path d="M81.387,50.458c0.091-0.208,0.13-0.377,0.13-0.637v-7.437c0-0.351-0.065-0.923-0.104-1.183h1.274
				c-0.052,0.324-0.091,0.806-0.091,1.183v7.371c2.483-0.624,5.499-2.34,7.111-4.433l0.585,0.909
				c-1.69,2.094-4.368,3.692-7.605,4.642c-0.143,0.039-0.351,0.104-0.546,0.234L81.387,50.458z"/>
			<path d="M95.44,45.661l-0.598,0.91c-0.65-0.469-2.054-1.379-2.847-1.781l0.585-0.885C93.347,44.321,94.868,45.258,95.44,45.661z
				 M96.948,48.767c2.158-1.234,3.874-2.938,4.927-4.771l0.624,1.079c-1.131,1.741-2.925,3.419-5.005,4.641
				c-1.3,0.768-3.094,1.365-4.303,1.612l-0.598-1.053C94.023,50.029,95.635,49.509,96.948,48.767z M97.364,42.813l-0.611,0.897
				c-0.624-0.481-2.041-1.417-2.795-1.859l0.585-0.871C95.311,41.409,96.805,42.411,97.364,42.813z M101.304,43.19l-0.741,0.338
				c-0.325-0.688-0.754-1.456-1.183-2.041l0.715-0.312C100.419,41.643,101.004,42.58,101.304,43.19z M103.045,42.541l-0.741,0.338
				c-0.351-0.689-0.806-1.431-1.235-2.016l0.728-0.312C102.148,41.007,102.721,41.942,103.045,42.541z"/>
			<path d="M106.491,46.973l-0.988,0.364c-0.195-0.676-0.897-2.47-1.157-2.925l0.962-0.377
				C105.567,44.594,106.244,46.298,106.491,46.973z M113.03,44.114c-0.091,0.272-0.143,0.48-0.195,0.649
				c-0.351,1.431-0.91,2.821-1.846,3.991c-1.196,1.521-2.782,2.535-4.238,3.094l-0.858-0.884c1.508-0.429,3.159-1.417,4.225-2.756
				c0.923-1.131,1.599-2.782,1.794-4.446L113.03,44.114z M109.351,46.194l-0.962,0.338c-0.143-0.585-0.741-2.236-1.014-2.821
				l0.949-0.325C108.545,43.905,109.182,45.622,109.351,46.194z"/>
			<path d="M122.338,47.533c-1.417-0.768-3.666-1.639-5.109-2.094l0.013,4.29c0,0.416,0.026,1.105,0.078,1.534h-1.248
				c0.052-0.416,0.078-1.053,0.078-1.534v-7.565c0-0.364-0.026-0.949-0.104-1.353h1.274c-0.039,0.403-0.091,0.962-0.091,1.353v2.119
				c1.716,0.52,4.173,1.456,5.551,2.145L122.338,47.533z"/>
			<path d="M134.519,43.346c-0.039,0.221-0.065,0.468-0.065,0.637c-0.052,1.248-0.208,5.031-0.793,6.279
				c-0.26,0.546-0.676,0.78-1.391,0.78c-0.663,0-1.417-0.039-2.093-0.078l-0.13-1.079c0.702,0.091,1.391,0.144,1.937,0.144
				c0.377,0,0.611-0.104,0.754-0.43c0.494-0.987,0.663-4.186,0.663-5.577h-3.64c-0.468,3.731-1.82,5.707-3.991,7.202l-0.936-0.767
				c0.403-0.221,0.936-0.585,1.326-0.962c1.287-1.17,2.223-2.795,2.574-5.474h-2.184c-0.52,0-1.04,0-1.495,0.053v-1.105
				c0.455,0.052,0.988,0.078,1.482,0.078h2.288c0.026-0.416,0.052-0.858,0.052-1.326c0-0.286-0.039-0.767-0.091-1.079h1.222
				c-0.039,0.299-0.065,0.754-0.078,1.066c-0.013,0.468-0.039,0.91-0.065,1.339h3.094c0.351,0,0.611-0.026,0.832-0.065
				L134.519,43.346z"/>
			<path d="M136.989,45.245c0.39,0.025,1.079,0.064,1.807,0.064h7.124c0.65,0,1.118-0.039,1.404-0.064v1.273
				c-0.26-0.013-0.806-0.064-1.391-0.064h-7.137c-0.715,0-1.404,0.025-1.807,0.064V45.245z"/>
			<path d="M152.095,44.465c1.716,0.52,4.173,1.443,5.551,2.132l-0.455,1.105c-1.404-0.768-3.653-1.625-5.096-2.08v4.277
				c0,0.416,0.026,1.117,0.078,1.533h-1.248c0.052-0.416,0.078-1.053,0.078-1.533v-7.566c0-0.364-0.026-0.949-0.104-1.353h1.274
				c-0.039,0.403-0.078,0.962-0.078,1.353V44.465z M156.008,43.814c-0.325-0.676-0.728-1.391-1.157-1.976l0.715-0.325
				c0.338,0.481,0.884,1.353,1.183,1.963L156.008,43.814z M157.633,43.151c-0.351-0.676-0.767-1.364-1.209-1.949l0.715-0.339
				c0.338,0.455,0.91,1.326,1.222,1.925L157.633,43.151z"/>
			<path d="M166.668,45.921c0.975-0.313,1.976-0.468,2.821-0.468c1.872,0,3.224,1.026,3.224,2.561c0,1.561-0.975,2.548-2.743,2.978
				c-0.572,0.13-1.144,0.156-1.586,0.169l-0.364-1.027c0.481,0,1.014,0.013,1.508-0.091c1.131-0.208,2.158-0.819,2.158-2.015
				c0-1.093-0.988-1.678-2.21-1.678c-0.962,0-1.872,0.183-2.795,0.507c0.026,1.093,0.052,2.224,0.052,2.782
				c0,1.196-0.455,1.573-1.144,1.573c-1.014,0-2.691-0.975-2.691-2.132c0-1.053,1.339-2.171,2.821-2.809v-0.728
				c0-0.521,0-1.118,0.013-1.69c-0.351,0.026-0.676,0.039-0.949,0.039c-0.585,0-1.144-0.013-1.638-0.064l-0.026-0.988
				c0.702,0.091,1.17,0.104,1.638,0.104c0.299,0,0.637-0.013,0.988-0.039c0.013-0.676,0.026-1.234,0.026-1.469
				c0-0.26-0.026-0.688-0.078-0.91h1.131c-0.026,0.234-0.052,0.585-0.065,0.884c-0.013,0.313-0.026,0.819-0.039,1.392
				c0.936-0.117,1.911-0.299,2.639-0.521l0.013,1.027c-0.754,0.169-1.742,0.338-2.678,0.442c-0.013,0.61-0.026,1.222-0.026,1.742
				V45.921z M165.771,49.509c0-0.468-0.026-1.339-0.039-2.275c-1.04,0.494-1.807,1.223-1.807,1.808s0.884,1.092,1.391,1.092
				C165.615,50.133,165.771,49.912,165.771,49.509z M170.841,41.942c0.91,0.481,2.314,1.365,2.938,1.886l-0.52,0.832
				c-0.637-0.611-2.067-1.482-2.886-1.925L170.841,41.942z"/>
			<path d="M178.602,43.217c-0.299,0.533-0.676,1.079-1.066,1.599v7.047h-0.949v-5.954c-0.494,0.532-1.014,1.014-1.521,1.403
				c-0.078-0.194-0.338-0.688-0.507-0.923c1.17-0.857,2.431-2.171,3.198-3.51L178.602,43.217z M178.446,40.395
				c-0.767,1.105-2.028,2.314-3.172,3.081c-0.104-0.221-0.338-0.585-0.507-0.78c1.027-0.662,2.184-1.741,2.756-2.651L178.446,40.395
				z M186.584,48.312h-1.937v2.496c0,0.521-0.117,0.768-0.494,0.924c-0.39,0.143-1.001,0.155-1.976,0.155
				c-0.039-0.272-0.182-0.624-0.312-0.884c0.728,0.026,1.378,0.026,1.56,0.013c0.208-0.013,0.26-0.064,0.26-0.233v-2.471h-5.213
				V47.48h5.213v-1.104h-4.914v-0.832h7.58v0.832h-1.703v1.104h1.937V48.312z M185.739,44.673h-6.175v-4.265h6.175V44.673z
				 M180.279,48.534c0.598,0.533,1.313,1.3,1.651,1.807l-0.741,0.521c-0.312-0.521-1.014-1.313-1.599-1.886L180.279,48.534z
				 M184.777,41.136H180.5v1.04h4.277V41.136z M184.777,42.879H180.5v1.053h4.277V42.879z"/>
		</g>
	</g>
</g>
</svg>
