<?xml version="1.0" encoding="utf-8"?>
<!-- Generator: Adobe Illustrator 16.0.0, SVG Export Plug-In . SVG Version: 6.00 Build 0)  -->
<!DOCTYPE svg PUBLIC "-//W3C//DTD SVG 1.1//EN" "http://www.w3.org/Graphics/SVG/1.1/DTD/svg11.dtd">
<svg version="1.1" id="Icons" xmlns="http://www.w3.org/2000/svg" xmlns:xlink="http://www.w3.org/1999/xlink" x="0px" y="0px"
	 width="153.998px" height="98.5px" viewBox="0 0 153.998 98.5" enable-background="new 0 0 153.998 98.5" xml:space="preserve">
<g>
	<path fill="#61C4F2" d="M65.919,8.25H38.976c-9.94,0-18,8.059-18,18l0,0c0,9.939,8.057,17.997,17.996,18H10.999v5.887h113.916
		c8.831,0,16.057,7.225,16.057,16.056s-7.226,16.057-16.057,16.057H10.988v6h113.983c12.1,0,22-9.9,22-22
		c0-12.099-9.898-21.998-21.996-22v-6h-86c-6.6,0-12-5.4-12-12s5.4-12,12-12h86v-6H87.269H65.919z"/>
	<g>
		<path fill="#263357" d="M122.992,20.25H48.976c-1.104,0-2,0.896-2,2s0.896,2,2,2h74.017c1.104,0,2-0.896,2-2
			S124.097,20.25,122.992,20.25z"/>
		<path fill="#263357" d="M122.976,28.25h-74c-1.104,0-2,0.896-2,2s0.896,2,2,2h74c1.104,0,2-0.896,2-2S124.08,28.25,122.976,28.25z
			"/>
		<path fill="#263357" d="M39.669,33.764c0.378,0.326,0.843,0.486,1.306,0.486c0.562,0,1.12-0.235,1.516-0.693
			c1.689-1.959,2.62-4.554,2.62-7.307s-0.931-5.348-2.62-7.307c-0.722-0.837-1.985-0.929-2.821-0.208
			c-0.836,0.721-0.93,1.984-0.208,2.821c1.063,1.232,1.649,2.899,1.649,4.693s-0.586,3.461-1.649,4.693
			C38.739,31.78,38.833,33.043,39.669,33.764z"/>
		<path fill="#263357" d="M120.051,64.25H20.972c-1.104,0-2,0.896-2,2s0.896,2,2,2h99.079c1.104,0,2-0.896,2-2
			S121.155,64.25,120.051,64.25z"/>
		<path fill="#263357" d="M124.034,58.25c0-1.104-0.896-2-2-2H18.988c-1.104,0-2,0.896-2,2s0.896,2,2,2h103.046
			C123.139,60.25,124.034,59.354,124.034,58.25z"/>
		<path fill="#263357" d="M18.988,76.25h103.046c1.104,0,2-0.896,2-2s-0.896-2-2-2H18.988c-1.104,0-2,0.896-2,2
			S17.884,76.25,18.988,76.25z"/>
		<path fill="#263357" d="M131.217,56.776c-0.816-0.748-2.079-0.69-2.826,0.122c-2.292,2.498-3.554,5.819-3.554,9.352
			c0,3.532,1.262,6.854,3.554,9.352c0.395,0.43,0.934,0.648,1.475,0.648c0.482,0,0.967-0.174,1.351-0.526
			c0.814-0.747,0.869-2.012,0.122-2.826c-1.612-1.758-2.501-4.12-2.501-6.648c0-2.529,0.889-4.89,2.501-6.648
			C132.085,58.788,132.03,57.523,131.217,56.776z"/>
		<circle fill="#263357" cx="127.999" cy="96.25" r="2.25"/>
		<circle fill="#263357" cx="27.994" cy="2.25" r="2.25"/>
		<path fill="#263357" d="M121.999,94.25h-102c-1.104,0-2,0.896-2,2s0.896,2,2,2h102c1.104,0,2-0.896,2-2
			S123.104,94.25,121.999,94.25z"/>
		<path fill="#263357" d="M56.589,6.25H38.976c-11.028,0-20,8.972-20,20c0,6.546,3.175,12.349,8.051,16H10.999c-1.104,0-2,0.896-2,2
			v5.887c0,1.104,0.896,2,2,2h113.916c7.751,0,14.057,6.306,14.057,14.056c0,7.751-6.306,14.057-14.057,14.057H10.999
			c-1.104,0-2,0.896-2,2v4H2c-1.104,0-2,0.896-2,2s0.896,2,2,2h8.999h113.973h27.026c1.104,0,2-0.896,2-2s-0.896-2-2-2h-13.78
			c6.476-4.303,10.754-11.66,10.754-20c0-12.558-9.697-22.887-21.996-23.91v-4.09c0-1.104-0.896-2-2-2h-86c-5.514,0-10-4.486-10-10
			s4.486-10,10-10h86c1.104,0,2-0.896,2-2v-6c0-1.104-0.896-2-2-2H96.599 M22.976,26.25c0-8.822,7.178-16,16-16h26.644h4.78h12.39
			h4.771h35.416v2h-84c-7.72,0-14,6.28-14,14s6.28,14,14,14h84v2h-84C30.153,42.25,22.976,35.072,22.976,26.25z M12.988,86.25v-2
			h111.927c9.956,0,18.057-8.1,18.057-18.057c0-9.956-8.101-17.943-18.057-17.943H12.988v-2h25.987h85.996c11.028,0,20,8.972,20,20
			s-8.972,20-20,20H12.988z"/>
		<path fill="#263357" d="M12.976,28.25c1.104,0,2-0.896,2-2c0-7.428,3.37-14.323,9.247-18.917c0.87-0.68,1.024-1.937,0.345-2.808
			c-0.681-0.87-1.938-1.023-2.808-0.344C14.906,9.539,10.976,17.583,10.976,26.25C10.976,27.354,11.871,28.25,12.976,28.25z"/>
	</g>
</g>
</svg>
