<?xml version="1.0" encoding="utf-8"?>
<!-- Generator: Adobe Illustrator 16.0.0, SVG Export Plug-In . SVG Version: 6.00 Build 0)  -->
<!DOCTYPE svg PUBLIC "-//W3C//DTD SVG 1.1//EN" "http://www.w3.org/Graphics/SVG/1.1/DTD/svg11.dtd">
<svg version="1.1" id="レイヤー_1" xmlns="http://www.w3.org/2000/svg" xmlns:xlink="http://www.w3.org/1999/xlink" x="0px"
	 y="0px" width="357.563px" height="180.029px" viewBox="0 0 357.563 180.029" enable-background="new 0 0 357.563 180.029"
	 xml:space="preserve">
<g>
	<path fill="#FFFFFF" d="M357.563,64.309C357.549,28.807,328.717,0.014,293.167,0c-35.551-0.017-64.356,28.754-64.344,64.256
		c0.012,25.037,14.361,46.721,35.283,57.345l-12.643,6.953l42.625,0.019v-0.024C329.237,128.092,357.579,99.522,357.563,64.309z"/>
</g>
<g>
	<g>
		<path fill="#FFCC5C" d="M128.74,64.256C128.754,28.754,99.947-0.016,64.396,0C28.846,0.014,0.015,28.807,0,64.309
			c-0.015,35.214,28.326,63.783,63.474,64.238v0.024l42.626-0.019L93.457,121.6C114.379,110.977,128.729,89.293,128.74,64.256z"/>
	</g>
</g>
<g>
	<g>
		<g>
			<path fill="#FFD655" d="M171.775,31.363c-0.029-1.211-0.277-4.424-2.016-6.188c-0.271-0.277-0.577-0.563-0.901-0.863
				c-2.13-1.988-5.047-4.711-5.021-10.748c0.017-4.071,1.435-7.479,4.101-9.854c1.194-1.064,2.599-1.888,4.175-2.445
				c1.524-0.539,3.138-0.811,4.797-0.803c1.658,0.006,3.27,0.291,4.79,0.844c1.571,0.572,2.969,1.406,4.154,2.48
				c2.646,2.396,4.034,5.815,4.018,9.889c-0.025,6.035-2.967,8.734-5.113,10.703c-0.325,0.301-0.635,0.584-0.908,0.856
				c-1.753,1.75-2.028,4.961-2.066,6.172L171.775,31.363z"/>
			<path fill="#FFEB57" d="M176.908,0.922c1.605,0.008,3.165,0.281,4.633,0.815c1.517,0.554,2.861,1.355,4.002,2.39
				c2.545,2.307,3.883,5.604,3.865,9.545c-0.023,5.834-2.879,8.453-4.964,10.367c-0.329,0.301-0.641,0.586-0.922,0.866
				c-0.979,0.979-1.646,2.462-1.987,4.41c-0.106,0.619-0.164,1.185-0.191,1.627l-9.126-0.039c-0.025-0.442-0.077-1.01-0.18-1.629
				c-0.322-1.951-0.979-3.44-1.95-4.426c-0.277-0.283-0.586-0.57-0.914-0.877c-2.068-1.93-4.9-4.574-4.875-10.408
				c0.017-3.938,1.381-7.227,3.946-9.51c1.149-1.025,2.502-1.816,4.021-2.355C173.742,1.176,175.303,0.916,176.908,0.922 M176.911,0
				c-6.738-0.029-13.497,4.479-13.536,13.561c-0.03,7.183,4.043,9.894,6.056,11.937c2.012,2.045,1.884,6.328,1.884,6.328
				l10.924,0.047c0,0-0.092-4.285,1.938-6.312s6.127-4.703,6.156-11.885C190.372,4.594,183.651,0.027,176.911,0L176.911,0z"/>
		</g>
		<g>
			<polygon fill="#FFB839" points="175.978,24.463 174.788,25.117 169.14,13.451 			"/>
			<polygon fill="#FFB839" points="177.638,24.469 178.821,25.133 184.569,13.518 			"/>
		</g>
		<g>
			<path fill="#FFB839" d="M179.603,35.443l-5.683-0.024l0.85-10.812c0.071-0.92,0.968-1.864,2.046-1.858l0,0
				c1.078,0.004,1.966,0.955,2.03,1.877L179.603,35.443z"/>
			<path opacity="0.7" fill="#FF933B" enable-background="new    " d="M178.433,35.438l-3.343-0.014l0.517-10.564
				c0.044-0.731,0.57-1.239,1.206-1.235l0,0c0.633,0.002,1.156,0.516,1.193,1.246L178.433,35.438z"/>
		</g>
		<path opacity="0.1" fill="#333333" enable-background="new    " d="M182.538,29.008l-11.497-0.049
			c0.313,1.533,0.273,2.864,0.273,2.864l10.924,0.048C182.238,31.871,182.211,30.537,182.538,29.008z"/>
		
			<ellipse transform="matrix(-0.7977 -0.6031 0.6031 -0.7977 321.8608 123.1811)" opacity="0.25" fill="#FFFFFF" enable-background="new    " cx="181.594" cy="7.598" rx="6.305" ry="3.741"/>
		<path fill="#FFEE99" d="M183.286,13.588l-0.361,0.424c-0.213,0.25-0.424,0.502-0.635,0.752c-0.192-0.268-0.386-0.537-0.58-0.805
			l-0.651-0.898l-0.119-0.164l-0.132,0.162l-0.7,0.861c-0.179,0.221-0.358,0.44-0.535,0.662l-0.513-0.687
			c-0.222-0.295-0.443-0.592-0.668-0.889l-0.174-0.228l-0.179,0.228l-0.688,0.871l-0.501,0.641l-0.496-0.645l-0.68-0.877
			l-0.177-0.228l-0.176,0.226c-0.227,0.291-0.449,0.588-0.675,0.883l-0.519,0.682c-0.176-0.223-0.353-0.445-0.53-0.668l-0.692-0.867
			l-0.131-0.162l-0.119,0.162l-0.659,0.896c-0.197,0.264-0.393,0.531-0.586,0.797l-0.274-0.332l-0.356-0.426l-0.356-0.426
			l-0.359-0.423l0.314,0.457l0.32,0.455l0.319,0.453l0.322,0.453l0.069,0.096l0.078-0.096c0.238-0.283,0.477-0.566,0.711-0.854
			l0.575-0.697l0.54,0.733c0.22,0.295,0.437,0.597,0.66,0.892l0.152,0.203l0.161-0.201l0.694-0.867
			c0.17-0.215,0.341-0.428,0.512-0.641l0.498,0.655l0.674,0.882l0.182,0.235l0.184-0.233l0.682-0.877l0.503-0.65
			c0.168,0.215,0.337,0.428,0.507,0.645l0.686,0.873l0.161,0.203l0.154-0.201c0.226-0.293,0.444-0.59,0.668-0.887l0.546-0.729
			l0.568,0.7c0.23,0.289,0.468,0.574,0.703,0.861l0.078,0.096l0.07-0.096c0.219-0.299,0.436-0.6,0.65-0.899l0.322-0.451l0.318-0.457
			L183.286,13.588z"/>
	</g>
	<g>
		<g>
			<path fill="#D0D3D8" d="M174.3,42.814c-0.004,0.664,1.126,1.205,2.521,1.213c1.394,0.007,2.526-0.528,2.529-1.19L174.3,42.814z"
				/>
			<path fill="#A3A5AA" d="M172.12,41.295L172.12,41.295c-0.005,0.953,0.764,1.729,1.717,1.731l5.974,0.025
				c0.953,0.004,1.729-0.764,1.732-1.717L172.12,41.295z"/>
			<path fill="#D0D3D8" d="M170.445,38.426l-0.007,1.805c-0.004,0.855,0.688,1.556,1.545,1.56l9.689,0.039
				c0.857,0.006,1.557-0.687,1.56-1.545l0.009-1.804L170.445,38.426z"/>
			<g>
				<rect x="170.445" y="38.453" fill="#A3A5AA" width="12.794" height="0.254"/>
				<g>
					<path fill="#D0D3D8" d="M170.54,40.791c0.224,0.582,0.784,0.994,1.443,0.998l9.688,0.039L170.54,40.791z"/>
					<path fill="#A3A5AA" d="M170.441,39.557l-0.003,0.674c-0.001,0.197,0.035,0.385,0.102,0.562l11.13,1.037h0.004
						c0.857,0.006,1.556-0.687,1.559-1.545l0.004-0.673L170.441,39.557z"/>
				</g>
				<path fill="#D0D3D8" d="M170.445,38.68l-0.006,1.225l12.572,1.175c0.14-0.232,0.221-0.504,0.221-0.795l0.007-1.55L170.445,38.68
					z"/>
			</g>
			<polygon fill="#A3A5AA" points="170.447,38.125 170.442,39.119 183.232,40.313 183.243,38.18 			"/>
			<polygon fill="#D0D3D8" points="170.445,38.426 183.236,39.619 183.247,37.256 170.45,37.203 			"/>
			<polygon fill="#A3A5AA" points="170.448,37.779 183.239,38.973 183.249,36.84 170.452,36.787 			"/>
			<polygon fill="#D0D3D8" points="170.452,37.086 183.243,38.279 183.25,35.916 170.456,35.861 			"/>
			<polygon fill="#A3A5AA" points="170.454,36.531 183.245,37.727 183.254,35.594 170.458,35.537 			"/>
			<polygon fill="#D0D3D8" points="170.456,35.838 183.247,37.031 183.256,34.67 170.463,34.615 			"/>
			<polygon fill="#A3A5AA" points="170.46,35.191 183.25,36.387 183.258,34.254 170.464,34.198 			"/>
			<polygon fill="#D0D3D8" points="170.463,34.5 183.252,35.693 183.263,33.33 170.468,33.275 			"/>
			<polygon fill="#A3A5AA" points="170.466,33.852 183.256,35.045 183.265,32.914 170.47,32.859 			"/>
			<polygon fill="#D0D3D8" points="170.468,33.16 183.258,34.352 183.269,31.99 170.474,31.936 			"/>
			<polygon fill="#A3A5AA" points="170.472,32.467 183.262,33.66 183.269,31.99 170.474,31.936 			"/>
			<polygon fill="#D0D3D8" points="170.475,31.637 183.265,32.83 183.27,31.621 170.475,31.566 			"/>
		</g>
		
			<rect x="170.457" y="30.005" transform="matrix(-1 -0.0043 0.0043 -1 353.5757 62.5666)" fill="#D0D3D8" width="12.796" height="1.801"/>
		<path fill="#989CA0" d="M184.104,32.154L169.6,32.091c-0.269,0-0.484-0.219-0.483-0.484l0,0c0.002-0.27,0.219-0.483,0.486-0.483
			l14.505,0.063c0.27,0,0.484,0.219,0.482,0.486l0,0C184.59,31.939,184.372,32.156,184.104,32.154z"/>
	</g>
</g>
<g>
	<g>
		<g>
			<g>
				<path fill="#01A2A5" d="M139.288,135.835c-1.438,3.403-1.908,5.074-0.992,8.139c7.518,0,15.041,0,22.568,0
					c-3.688-10.994-7.367-21.992-11.055-32.967C146.306,119.281,142.798,127.558,139.288,135.835z"/>
				<path fill="#01A2A5" d="M214,135.835c-3.506-8.277-7.018-16.554-10.521-24.828c-3.685,10.975-7.364,21.973-11.051,32.967
					c7.526,0,15.047,0,22.573,0C215.913,140.909,215.442,139.239,214,135.835z"/>
			</g>
			<path fill="#EBEBEB" d="M112.05,143.974h122.479c0.193,0,0.354,0.281,0.354,0.635v4.033c0,0.348-0.161,0.629-0.354,0.629H112.05
				c-0.205,0-0.361-0.281-0.361-0.629v-4.033C111.688,144.255,111.845,143.974,112.05,143.974L112.05,143.974z"/>
			<g>
				<rect x="114.646" y="149.271" fill="#EBEBEB" width="2.791" height="27.556"/>
				<rect x="229.747" y="153.437" fill="#EBEBEB" width="2.693" height="26.594"/>
			</g>
			<rect x="117.437" y="149.271" fill="#EBEBEB" width="111.69" height="13.769"/>
			<g>
				<rect x="114.646" y="149.271" fill="#EBEBEB" width="2.791" height="2.525"/>
				<rect x="229.747" y="153.437" fill="#EBEBEB" width="2.693" height="2.437"/>
			</g>
			<rect x="117.437" y="149.271" fill="#D8D9D9" width="111.69" height="2.525"/>
			<rect x="117.458" y="149.271" fill="#D8D9D9" width="2.244" height="13.769"/>
			<rect x="227.901" y="153.437" fill="#C3C4C4" width="1.846" height="13.287"/>
			<path fill="#592E25" d="M160.669,67.599c0,0,3.506,21.396-3.805,34.773l9.297,1.774l8.451-1.264l2.031-11.379l2.037,11.379
				l8.451,1.264l9.297-1.774c-7.314-13.377-3.805-34.773-3.805-34.773l-14.573-6.174l-1.408,29.85l-1.402-29.85L160.669,67.599z"/>
			<path fill="#4D2219" d="M175.138,99.906l1.506-8.401l1.512,8.401h11.469c0,0-3.754-12.432-2.506-24.852l-9.716,0.262
				l-0.76,15.957L175.89,75.37l-11.01,0.301c0,0,2.508,10.66-1.264,24.235H175.138z"/>
			<path fill="#FEB67C" d="M176.644,121.79c8.612,0,17.226,0,25.854,0c-0.369-4.896,1.121-22.293-5.176-23.604
				c-3.925-0.824-7.839-1.631-11.769-2.455c-4.839-1.02-3.47-16.799-3.226-20.838c-2.545,2.158-3.123,4.529-5.686,6.687
				c-2.557-2.156-3.137-4.527-5.695-6.687c0.26,4.039,1.629,19.818-3.213,20.838c-3.93,0.824-7.836,1.631-11.768,2.455
				c-6.295,1.312-4.805,18.709-5.174,23.604C159.405,121.79,168.034,121.79,176.644,121.79L176.644,121.79z"/>
			<path fill="#F2AA70" d="M192.217,97.114l-6.663-1.383c-3.771-0.791-3.771-10.502-3.47-16.701l-3.266,0.158
				c-0.592,0.808-1.26,1.615-2.176,2.392c-0.838-0.724-1.471-1.461-2.031-2.189l-3.389,0.15c0.162,3.563,0.199,8.121-0.506,11.506
				c2.699,2.75,9.473,8.563,17.801,7.613C190.099,98.464,191.288,97.921,192.217,97.114L192.217,97.114z"/>
			<path fill="#01A2A5" d="M176.644,121.79c8.612,0,17.226,0,25.854,0c-0.369-4.896,1.121-22.293-5.176-23.604
				c-3.925-0.824-7.839-1.631-11.769-2.455c-0.244-0.057-0.492-0.158-0.722-0.299l-1.522,2.313l-3.996,1.438l-2.67-0.617
				l-2.666,0.617l-3.994-1.438l-1.531-2.313c-0.223,0.141-0.471,0.242-0.717,0.299c-3.93,0.824-7.836,1.631-11.768,2.455
				c-6.295,1.312-4.805,18.709-5.174,23.604C159.405,121.79,168.034,121.79,176.644,121.79L176.644,121.79z"/>
			<path fill="#4ED2D4" d="M169.544,94.31c1.879,2.053,4.258,3.418,7.1,4.258c-1.35,1.459-2.049,3.388-2.207,5.683
				c-2.93-2.414-5.736-4.924-7.314-8.398C167.72,95.151,168.507,94.626,169.544,94.31L169.544,94.31z"/>
			<path fill="#4ED2D4" d="M183.747,94.31c-1.879,2.053-4.256,3.418-7.104,4.258c1.355,1.459,2.055,3.388,2.213,5.683
				c2.926-2.414,5.734-4.924,7.314-8.398C185.573,95.151,184.782,94.626,183.747,94.31L183.747,94.31z"/>
			<path fill="#FEB67C" d="M191.256,67.599c0.019,0.303,0.019,0.598,0.019,0.896c0,12.678-6.541,22.957-14.631,22.957
				c-8.086,0-14.625-10.279-14.625-22.957c0-0.3,0-0.595,0.018-0.896l14.506-10.852L191.256,67.599z"/>
			<path fill="#F2AA70" d="M191.256,67.599c0.019,0.303,0.019,0.598,0.019,0.896c0,1.545-0.09,3.053-0.284,4.506
				c-14.78,2.104-24.128-1.035-28.954-3.576c-0.018-0.313-0.018-0.615-0.018-0.93c0-0.3,0-0.595,0.018-0.896l12.4-9.271l4.033-0.162
				L191.256,67.599z"/>
			<path fill="#592E25" d="M160.669,67.599c0-26.602,31.955-26.52,31.955,0c-2.947,0.531-5.91,0.937-8.856,1.174l-0.3-2.278
				l-1.666,2.44c-0.825,0.051-1.668,0.09-2.487,0.119l-0.248-4.314l-1.244,4.373c-2.297,0.031-4.596-0.021-6.893-0.164l-1.336-2.868
				l-1.24,2.664C165.79,68.495,163.229,68.108,160.669,67.599L160.669,67.599z"/>
			<path fill="#EBEBEB" d="M146.886,103.394h59.521c1.316,0,2.402,1.086,2.402,2.422v31.722c0,1.334-1.086,2.422-2.402,2.422
				h-59.521c-1.316,0-2.402-1.088-2.402-2.422v-31.722C144.483,104.479,145.569,103.394,146.886,103.394L146.886,103.394z"/>
			<path fill="#E0E1E1" d="M146.886,103.394h7.994c1.143,9.894,8.633,33.428,53.93,32.127v2.017c0,1.334-1.086,2.422-2.401,2.422
				h-59.521c-1.316,0-2.402-1.088-2.402-2.422v-31.722C144.483,104.479,145.569,103.394,146.886,103.394L146.886,103.394z"/>
			<path fill="#EBEBEB" d="M142.622,139.958h68.048c0.521,0,0.965,0.42,0.965,0.965v2.067c0,0.544-0.442,0.982-0.965,0.982h-68.048
				c-0.527,0-0.965-0.438-0.965-0.982v-2.067C141.657,140.378,142.095,139.958,142.622,139.958L142.622,139.958z"/>
			<path fill="#FEFEFE" d="M176.644,116.88c2.649,0,4.81,2.139,4.81,4.785c0,2.67-2.158,4.809-4.81,4.809
				c-2.648,0-4.803-2.139-4.803-4.809C171.841,119.019,173.995,116.88,176.644,116.88L176.644,116.88z"/>
			<rect x="151.356" y="163.038" fill="#01A2A5" width="50.58" height="13.787"/>
		</g>
	</g>
</g>
<g>
	<g>
		<path fill="#F9D500" d="M322.399,86.187h-71.865c-2.555,0-4.625-2.069-4.625-4.625v-42.54c0-2.553,2.07-4.624,4.625-4.624h71.865
			c2.555,0,4.623,2.071,4.623,4.624v42.539C327.022,84.115,324.954,86.187,322.399,86.187z"/>
		<rect x="245.909" y="43.446" fill="#555555" width="81.113" height="12.479"/>
		<rect x="250.433" y="60.605" opacity="0.7" fill="#FFFFFF" enable-background="new    " width="43.677" height="5.304"/>
		<rect x="303.624" y="60.605" opacity="0.7" fill="#FFFFFF" enable-background="new    " width="18.721" height="5.304"/>
		<rect x="283.97" y="79.011" opacity="0.2" enable-background="new    " width="38.374" height="2.496"/>
	</g>
	<g opacity="0.1" enable-background="new    ">
		<g>
			<defs>
				<path id="SVGID_1_" d="M322.399,86.187h-71.865c-2.555,0-4.625-2.069-4.625-4.625v-42.54c0-2.553,2.07-4.624,4.625-4.624h71.865
					c2.555,0,4.623,2.071,4.623,4.624v42.539C327.022,84.115,324.954,86.187,322.399,86.187z"/>
			</defs>
			<clipPath id="SVGID_2_">
				<use xlink:href="#SVGID_1_"  overflow="visible"/>
			</clipPath>
			<path clip-path="url(#SVGID_2_)" fill="#1D1D1B" d="M332.538,95.856h-71.865c-2.553,0-4.625-2.068-4.625-4.622v-42.54
				c0-2.554,2.072-4.624,4.625-4.624h71.865c2.553,0,4.625,2.07,4.625,4.624v42.54C337.163,93.787,335.09,95.856,332.538,95.856z"/>
		</g>
	</g>
	<g>
		<path fill="#F5F5F5" d="M334.877,98.184h-71.865c-2.555,0-4.624-2.069-4.624-4.623v-42.54c0-2.553,2.069-4.625,4.624-4.625h71.865
			c2.555,0,4.625,2.072,4.625,4.625v42.54C339.502,96.114,337.432,98.184,334.877,98.184z"/>
		<g>
			<g>
				<g>
					<path id="SVGID_3_" fill="#F9DE61" d="M276.793,71.978h-9.982c-1.205,0-2.184-0.978-2.184-2.183v-7.645
						c0-1.205,0.979-2.184,2.184-2.184h9.982c1.207,0,2.186,0.979,2.186,2.184v7.645C278.979,71,278,71.978,276.793,71.978z"/>
				</g>
				<g>
					<defs>
						<path id="SVGID_4_" d="M276.793,71.978h-9.982c-1.205,0-2.184-0.978-2.184-2.183v-7.645c0-1.205,0.979-2.184,2.184-2.184
							h9.982c1.207,0,2.186,0.979,2.186,2.184v7.645C278.979,71,278,71.978,276.793,71.978z"/>
					</defs>
					<clipPath id="SVGID_5_">
						<use xlink:href="#SVGID_4_"  overflow="visible"/>
					</clipPath>
					<g clip-path="url(#SVGID_5_)">
						<g>
							<rect x="264.627" y="70.263" fill="#B4AA00" width="14.352" height="0.311"/>
						</g>
						<g>
							<rect x="264.627" y="61.37" fill="#B4AA00" width="7.177" height="0.313"/>
						</g>
						<g>
							<rect x="271.804" y="61.37" fill="#B4AA00" width="7.175" height="0.313"/>
						</g>
						<g>
							<rect x="274.61" y="67.455" fill="#B4AA00" width="4.368" height="0.312"/>
						</g>
						<g>
							<rect x="264.627" y="67.455" fill="#B4AA00" width="4.369" height="0.312"/>
						</g>
						<g>
							<path fill="#B4AA00" d="M271.804,70.573c-1.636,0-2.966-1.327-2.966-2.964c0-0.586,0.172-1.149,0.494-1.637
								c-0.322-0.486-0.494-1.05-0.494-1.638c0-1.634,1.33-2.965,2.966-2.965v0.313c-1.464,0-2.652,1.189-2.652,2.652
								c0,0.56,0.173,1.093,0.498,1.546l0.065,0.092l-0.065,0.092c-0.325,0.453-0.498,0.987-0.498,1.545
								c0,1.464,1.188,2.653,2.652,2.653c1.461,0,2.649-1.189,2.649-2.653c0-0.558-0.173-1.092-0.498-1.545l-0.064-0.092
								l0.064-0.092c0.326-0.453,0.498-0.986,0.498-1.546v-0.156h4.524v0.313h-4.216c-0.027,0.529-0.195,1.037-0.49,1.48
								c0.324,0.486,0.494,1.051,0.494,1.637C274.767,69.245,273.438,70.573,271.804,70.573z"/>
						</g>
						<g>
							<rect x="264.627" y="64.179" fill="#B4AA00" width="4.369" height="0.313"/>
						</g>
						<g>
							<rect x="271.647" y="59.968" fill="#B4AA00" width="0.313" height="1.56"/>
						</g>
						<g>
							<rect x="271.647" y="70.418" fill="#B4AA00" width="0.313" height="1.56"/>
						</g>
					</g>
				</g>
			</g>
		</g>
		<g>
			<g>
				<path fill="#BBBBBB" d="M316.11,52.654h1.385c0.633,0,1.092,0.091,1.377,0.271c0.283,0.18,0.428,0.466,0.428,0.856
					c0,0.268-0.063,0.484-0.188,0.656c-0.125,0.169-0.291,0.271-0.498,0.307v0.03c0.281,0.063,0.484,0.182,0.609,0.354
					c0.125,0.172,0.189,0.4,0.189,0.687c0,0.407-0.146,0.726-0.441,0.951c-0.293,0.229-0.691,0.342-1.195,0.342h-1.664v-4.454
					H316.11z M317.053,54.418h0.549c0.256,0,0.441-0.04,0.557-0.119c0.115-0.078,0.174-0.21,0.174-0.395
					c0-0.169-0.064-0.292-0.189-0.366c-0.123-0.073-0.32-0.109-0.592-0.109h-0.496v0.989H317.053z M317.053,55.168v1.16h0.615
					c0.26,0,0.453-0.05,0.576-0.15c0.125-0.098,0.186-0.25,0.186-0.455c0-0.37-0.262-0.555-0.791-0.555H317.053z"/>
				<path fill="#BBBBBB" d="M323.028,57.108l-0.322-1.061h-1.625l-0.322,1.061h-1.018l1.572-4.473h1.154l1.578,4.473H323.028z
					 M322.481,55.255c-0.301-0.961-0.469-1.503-0.506-1.63c-0.037-0.125-0.063-0.226-0.08-0.298
					c-0.066,0.262-0.262,0.901-0.576,1.928H322.481z"/>
				<path fill="#BBBBBB" d="M328.557,57.108h-1.199l-1.938-3.37h-0.027c0.039,0.598,0.059,1.021,0.059,1.273v2.097h-0.844v-4.454
					h1.191l1.936,3.335h0.02c-0.029-0.576-0.045-0.986-0.045-1.228v-2.107h0.85v4.454H328.557z"/>
				<path fill="#BBBBBB" d="M333.262,57.108h-1.072l-1.166-1.877l-0.4,0.286v1.591h-0.943v-4.454h0.943v2.038l0.373-0.523
					l1.207-1.515h1.047l-1.553,1.973L333.262,57.108z"/>
			</g>
			<g>
				<path fill="#BBBBBB" d="M266.605,81.031h-0.742v-2.982c0-0.356,0.009-0.638,0.025-0.848c-0.048,0.05-0.109,0.106-0.179,0.168
					c-0.071,0.061-0.308,0.255-0.711,0.582l-0.371-0.473l1.358-1.066h0.618L266.605,81.031L266.605,81.031z"/>
				<path fill="#BBBBBB" d="M271.25,81.031h-3.131V80.47l1.19-1.198c0.353-0.358,0.585-0.616,0.7-0.767s0.197-0.293,0.25-0.424
					c0.054-0.135,0.08-0.277,0.08-0.428c0-0.209-0.063-0.375-0.188-0.493c-0.125-0.119-0.299-0.181-0.521-0.181
					c-0.178,0-0.348,0.032-0.514,0.099c-0.166,0.064-0.356,0.184-0.574,0.354l-0.4-0.49c0.258-0.217,0.507-0.371,0.749-0.461
					c0.243-0.091,0.501-0.137,0.774-0.137c0.431,0,0.774,0.112,1.033,0.337c0.258,0.225,0.389,0.526,0.389,0.905
					c0,0.209-0.037,0.407-0.111,0.594c-0.075,0.188-0.189,0.382-0.346,0.581c-0.155,0.199-0.411,0.468-0.771,0.807l-0.804,0.777
					v0.032h2.192v0.654H271.25z"/>
				<path fill="#BBBBBB" d="M274.772,77.473c0,0.293-0.086,0.538-0.256,0.732c-0.171,0.194-0.411,0.325-0.723,0.393v0.026
					c0.371,0.046,0.65,0.162,0.836,0.346s0.277,0.43,0.277,0.734c0,0.444-0.156,0.788-0.471,1.028
					c-0.314,0.241-0.762,0.362-1.341,0.362c-0.513,0-0.944-0.084-1.296-0.251v-0.66c0.195,0.097,0.404,0.173,0.623,0.226
					c0.22,0.054,0.43,0.078,0.632,0.078c0.358,0,0.626-0.065,0.803-0.199c0.179-0.132,0.267-0.337,0.267-0.614
					c0-0.247-0.099-0.429-0.293-0.544c-0.197-0.117-0.504-0.174-0.925-0.174h-0.401v-0.604h0.408c0.737,0,1.105-0.255,1.105-0.766
					c0-0.197-0.063-0.352-0.191-0.457c-0.13-0.107-0.318-0.162-0.568-0.162c-0.176,0-0.344,0.025-0.506,0.073
					c-0.164,0.051-0.354,0.146-0.576,0.29l-0.363-0.52c0.425-0.312,0.916-0.468,1.477-0.468c0.465,0,0.83,0.101,1.09,0.301
					C274.642,76.846,274.772,77.122,274.772,77.473z"/>
				<path fill="#BBBBBB" d="M278.805,80.023h-0.623v1.009h-0.725v-1.009h-2.109v-0.571l2.109-3.054h0.725v3.009h0.623V80.023z
					 M277.458,79.406v-1.158c0-0.413,0.012-0.751,0.033-1.016h-0.025c-0.062,0.141-0.152,0.309-0.278,0.505l-1.147,1.669H277.458z"
					/>
				<path fill="#BBBBBB" d="M284.133,78.146c0.465,0,0.834,0.123,1.105,0.37c0.271,0.246,0.407,0.582,0.407,1.008
					c0,0.493-0.153,0.879-0.462,1.155c-0.311,0.277-0.748,0.416-1.316,0.416c-0.518,0-0.923-0.084-1.219-0.251v-0.673
					c0.172,0.098,0.367,0.172,0.589,0.225c0.222,0.052,0.427,0.079,0.617,0.079c0.335,0,0.59-0.075,0.765-0.224
					c0.174-0.149,0.262-0.369,0.262-0.657c0-0.553-0.35-0.828-1.055-0.828c-0.1,0-0.222,0.011-0.367,0.029
					c-0.145,0.021-0.272,0.043-0.381,0.067l-0.334-0.195l0.178-2.256h2.402v0.659h-1.748l-0.104,1.146
					c0.072-0.015,0.164-0.028,0.271-0.046C283.849,78.154,283.979,78.146,284.133,78.146z"/>
				<path fill="#BBBBBB" d="M286.272,79.063c0-1.809,0.736-2.711,2.209-2.711c0.23,0,0.428,0.018,0.588,0.052v0.62
					c-0.16-0.045-0.346-0.068-0.557-0.068c-0.495,0-0.865,0.133-1.115,0.397c-0.249,0.266-0.384,0.691-0.402,1.276h0.035
					c0.1-0.17,0.239-0.304,0.418-0.396c0.18-0.093,0.391-0.141,0.633-0.141c0.418,0,0.746,0.129,0.979,0.386
					c0.234,0.258,0.352,0.606,0.352,1.046c0,0.485-0.136,0.866-0.406,1.149c-0.271,0.28-0.641,0.422-1.106,0.422
					c-0.331,0-0.62-0.08-0.862-0.24c-0.244-0.157-0.434-0.391-0.563-0.692C286.338,79.857,286.272,79.49,286.272,79.063z
					 M287.883,80.481c0.257,0,0.453-0.081,0.592-0.245c0.137-0.165,0.206-0.398,0.206-0.706c0-0.265-0.065-0.474-0.194-0.626
					c-0.13-0.15-0.324-0.228-0.584-0.228c-0.16,0-0.307,0.036-0.441,0.103c-0.135,0.069-0.242,0.163-0.318,0.281
					c-0.077,0.119-0.117,0.241-0.117,0.366c0,0.297,0.081,0.547,0.242,0.75S287.633,80.481,287.883,80.481z"/>
				<path fill="#BBBBBB" d="M290.479,81.031l1.826-3.96h-2.402v-0.653h3.195v0.519l-1.816,4.097h-0.803V81.031z"/>
				<path fill="#BBBBBB" d="M295.209,76.353c0.438,0,0.785,0.101,1.039,0.302c0.256,0.201,0.383,0.472,0.383,0.808
					c0,0.475-0.284,0.852-0.853,1.131c0.362,0.182,0.62,0.372,0.772,0.572c0.152,0.199,0.229,0.424,0.229,0.67
					c0,0.382-0.141,0.687-0.419,0.917c-0.28,0.229-0.661,0.345-1.139,0.345c-0.503,0-0.892-0.108-1.166-0.323
					c-0.276-0.215-0.413-0.52-0.413-0.913c0-0.258,0.07-0.488,0.215-0.692c0.145-0.205,0.381-0.39,0.71-0.549
					c-0.282-0.168-0.483-0.347-0.604-0.534c-0.119-0.188-0.18-0.398-0.18-0.632c0-0.334,0.131-0.603,0.396-0.802
					C294.443,76.453,294.786,76.353,295.209,76.353z M294.354,79.834c0,0.219,0.076,0.39,0.23,0.511
					c0.152,0.12,0.361,0.183,0.625,0.183c0.271,0,0.483-0.063,0.635-0.188c0.15-0.127,0.227-0.296,0.227-0.511
					c0-0.173-0.07-0.326-0.21-0.468c-0.139-0.143-0.35-0.272-0.632-0.394l-0.091-0.041c-0.278,0.122-0.479,0.258-0.601,0.403
					C294.415,79.477,294.354,79.645,294.354,79.834z M295.204,76.923c-0.211,0-0.381,0.053-0.51,0.156
					c-0.129,0.104-0.193,0.246-0.193,0.426c0,0.108,0.024,0.209,0.07,0.295c0.047,0.086,0.113,0.164,0.202,0.234
					c0.089,0.069,0.238,0.155,0.449,0.255c0.253-0.111,0.432-0.229,0.534-0.354c0.104-0.123,0.158-0.269,0.158-0.432
					c0-0.181-0.065-0.32-0.194-0.426C295.59,76.976,295.418,76.923,295.204,76.923z"/>
				<path fill="#BBBBBB" d="M303.831,78.384c0,0.91-0.182,1.589-0.549,2.038c-0.367,0.448-0.918,0.674-1.656,0.674
					c-0.281,0-0.482-0.017-0.604-0.052v-0.622c0.188,0.053,0.375,0.079,0.564,0.079c0.502,0,0.875-0.135,1.123-0.404
					c0.244-0.27,0.381-0.692,0.404-1.271h-0.039c-0.125,0.188-0.273,0.325-0.451,0.41c-0.176,0.084-0.381,0.126-0.617,0.126
					c-0.408,0-0.729-0.129-0.963-0.383c-0.234-0.255-0.352-0.604-0.352-1.049c0-0.482,0.137-0.866,0.404-1.152
					c0.271-0.283,0.643-0.427,1.109-0.427c0.328,0,0.615,0.078,0.857,0.238c0.244,0.161,0.434,0.394,0.566,0.698
					C303.764,77.592,303.831,77.958,303.831,78.384z M302.219,76.968c-0.256,0-0.453,0.083-0.59,0.251
					c-0.139,0.168-0.207,0.403-0.207,0.707c0,0.263,0.064,0.47,0.191,0.62c0.129,0.15,0.32,0.227,0.58,0.227
					c0.252,0,0.461-0.074,0.633-0.225c0.17-0.15,0.256-0.324,0.256-0.524c0-0.188-0.037-0.361-0.109-0.525
					c-0.072-0.162-0.176-0.293-0.305-0.388C302.538,77.015,302.387,76.968,302.219,76.968z"/>
				<path fill="#BBBBBB" d="M307.532,78.722c0,0.803-0.129,1.398-0.389,1.788c-0.258,0.391-0.65,0.586-1.182,0.586
					c-0.516,0-0.904-0.202-1.172-0.604c-0.264-0.401-0.396-0.992-0.396-1.771c0-0.815,0.127-1.416,0.389-1.802
					c0.258-0.39,0.65-0.581,1.18-0.581c0.516,0,0.906,0.202,1.172,0.606S307.532,77.942,307.532,78.722z M305.145,78.722
					c0,0.63,0.064,1.08,0.193,1.35c0.131,0.271,0.336,0.404,0.623,0.404c0.283,0,0.492-0.137,0.623-0.411
					c0.133-0.273,0.197-0.722,0.197-1.343c0-0.619-0.064-1.067-0.197-1.345c-0.131-0.276-0.34-0.417-0.623-0.417
					c-0.287,0-0.492,0.138-0.623,0.409C305.211,77.641,305.145,78.092,305.145,78.722z"/>
				<path fill="#BBBBBB" d="M311.227,78.722c0,0.803-0.129,1.398-0.389,1.788c-0.258,0.391-0.652,0.586-1.182,0.586
					c-0.516,0-0.906-0.202-1.17-0.604c-0.268-0.401-0.398-0.992-0.398-1.771c0-0.815,0.129-1.416,0.387-1.802
					c0.26-0.39,0.652-0.581,1.182-0.581c0.516,0,0.906,0.202,1.172,0.606S311.227,77.942,311.227,78.722z M308.84,78.722
					c0,0.63,0.064,1.08,0.195,1.35c0.129,0.271,0.336,0.404,0.621,0.404c0.283,0,0.492-0.137,0.623-0.411
					c0.131-0.273,0.197-0.722,0.197-1.343c0-0.619-0.066-1.067-0.197-1.345c-0.131-0.276-0.34-0.417-0.623-0.417
					c-0.285,0-0.492,0.138-0.621,0.409C308.905,77.641,308.84,78.092,308.84,78.722z"/>
				<path fill="#BBBBBB" d="M314.92,78.722c0,0.803-0.129,1.398-0.387,1.788c-0.258,0.391-0.652,0.586-1.184,0.586
					c-0.516,0-0.902-0.202-1.17-0.604c-0.266-0.401-0.398-0.992-0.398-1.771c0-0.815,0.129-1.416,0.389-1.802
					c0.258-0.39,0.65-0.581,1.18-0.581c0.516,0,0.906,0.202,1.174,0.606C314.788,77.35,314.92,77.942,314.92,78.722z
					 M312.536,78.722c0,0.63,0.063,1.08,0.191,1.35c0.131,0.271,0.338,0.404,0.623,0.404c0.283,0,0.492-0.137,0.623-0.411
					c0.133-0.273,0.197-0.722,0.197-1.343c0-0.619-0.064-1.067-0.197-1.345c-0.131-0.276-0.34-0.417-0.623-0.417
					c-0.285,0-0.492,0.138-0.623,0.409C312.6,77.641,312.536,78.092,312.536,78.722z"/>
				<path fill="#BBBBBB" d="M321.977,78.722c0,0.803-0.129,1.398-0.387,1.788c-0.258,0.391-0.652,0.586-1.184,0.586
					c-0.516,0-0.904-0.202-1.168-0.604c-0.268-0.401-0.398-0.992-0.398-1.771c0-0.815,0.129-1.416,0.387-1.802
					c0.258-0.39,0.65-0.581,1.182-0.581c0.516,0,0.904,0.202,1.172,0.606C321.844,77.35,321.977,77.942,321.977,78.722z
					 M319.592,78.722c0,0.63,0.064,1.08,0.193,1.35c0.129,0.271,0.338,0.404,0.621,0.404c0.285,0,0.492-0.137,0.625-0.411
					c0.131-0.273,0.195-0.722,0.195-1.343c0-0.619-0.064-1.067-0.195-1.345c-0.133-0.276-0.34-0.417-0.625-0.417
					c-0.283,0-0.492,0.138-0.621,0.409S319.592,78.092,319.592,78.722z"/>
				<path fill="#BBBBBB" d="M325.672,78.722c0,0.803-0.129,1.398-0.387,1.788c-0.26,0.391-0.654,0.586-1.186,0.586
					c-0.514,0-0.902-0.202-1.168-0.604s-0.398-0.992-0.398-1.771c0-0.815,0.129-1.416,0.387-1.802
					c0.258-0.39,0.652-0.581,1.182-0.581c0.518,0,0.906,0.202,1.172,0.606S325.672,77.942,325.672,78.722z M323.286,78.722
					c0,0.63,0.064,1.08,0.195,1.35c0.129,0.271,0.336,0.404,0.619,0.404c0.285,0,0.492-0.137,0.623-0.411
					c0.135-0.273,0.199-0.722,0.199-1.343c0-0.619-0.064-1.067-0.199-1.345c-0.131-0.276-0.338-0.417-0.623-0.417
					c-0.283,0-0.49,0.138-0.619,0.409C323.35,77.641,323.286,78.092,323.286,78.722z"/>
				<path fill="#BBBBBB" d="M329.368,78.722c0,0.803-0.131,1.398-0.389,1.788c-0.26,0.391-0.652,0.586-1.184,0.586
					c-0.514,0-0.904-0.202-1.17-0.604s-0.398-0.992-0.398-1.771c0-0.815,0.131-1.416,0.389-1.802c0.258-0.39,0.65-0.581,1.18-0.581
					c0.516,0,0.908,0.202,1.172,0.606C329.233,77.35,329.368,77.942,329.368,78.722z M326.981,78.722c0,0.63,0.063,1.08,0.193,1.35
					c0.129,0.271,0.336,0.404,0.621,0.404c0.283,0,0.492-0.137,0.623-0.411c0.133-0.273,0.199-0.722,0.199-1.343
					c0-0.619-0.066-1.067-0.199-1.345c-0.131-0.276-0.34-0.417-0.623-0.417c-0.285,0-0.492,0.138-0.621,0.409
					C327.043,77.64,326.981,78.092,326.981,78.722z"/>
				<path fill="#BBBBBB" d="M333.061,78.722c0,0.803-0.129,1.398-0.387,1.788c-0.26,0.391-0.654,0.586-1.184,0.586
					c-0.516,0-0.904-0.202-1.17-0.604s-0.398-0.992-0.398-1.771c0-0.815,0.129-1.416,0.387-1.802c0.26-0.39,0.652-0.581,1.182-0.581
					c0.516,0,0.908,0.202,1.174,0.606C332.928,77.35,333.061,77.942,333.061,78.722z M330.674,78.722c0,0.63,0.066,1.08,0.195,1.35
					c0.129,0.271,0.336,0.404,0.621,0.404s0.492-0.137,0.623-0.411c0.133-0.273,0.197-0.722,0.197-1.343
					c0-0.619-0.064-1.067-0.197-1.345c-0.131-0.276-0.338-0.417-0.623-0.417s-0.492,0.138-0.621,0.409
					S330.674,78.092,330.674,78.722z"/>
			</g>
			<g>
				<path fill="#BBBBBB" d="M265.766,89.88c-0.193,0-0.344,0.072-0.449,0.218c-0.105,0.146-0.16,0.349-0.16,0.608
					c0,0.54,0.203,0.812,0.609,0.812c0.17,0,0.375-0.043,0.617-0.129v0.432c-0.198,0.084-0.42,0.124-0.666,0.124
					c-0.354,0-0.621-0.106-0.811-0.319c-0.187-0.214-0.279-0.521-0.279-0.922c0-0.251,0.047-0.473,0.139-0.662
					c0.092-0.19,0.223-0.334,0.395-0.437c0.174-0.102,0.375-0.151,0.605-0.151c0.234,0,0.472,0.057,0.71,0.17l-0.167,0.419
					c-0.09-0.044-0.182-0.08-0.273-0.113S265.854,89.88,265.766,89.88z"/>
				<path fill="#BBBBBB" d="M268.385,91.911l-0.178-0.577h-0.883l-0.177,0.577h-0.556l0.857-2.436h0.627l0.859,2.436H268.385z
					 M268.084,90.902c-0.162-0.521-0.254-0.816-0.273-0.887c-0.021-0.069-0.035-0.123-0.044-0.162
					c-0.037,0.143-0.142,0.491-0.313,1.049H268.084z"/>
				<path fill="#BBBBBB" d="M269.756,90.981v0.931h-0.514v-2.425h0.707c0.328,0,0.571,0.06,0.73,0.18
					c0.158,0.121,0.236,0.302,0.236,0.548c0,0.143-0.039,0.27-0.117,0.379c-0.08,0.112-0.189,0.2-0.334,0.262
					c0.365,0.547,0.604,0.896,0.713,1.058h-0.568l-0.58-0.931L269.756,90.981L269.756,90.981z M269.756,90.564h0.166
					c0.164,0,0.283-0.028,0.359-0.083c0.077-0.054,0.115-0.139,0.115-0.255c0-0.115-0.038-0.196-0.118-0.245
					c-0.077-0.049-0.2-0.072-0.366-0.072h-0.156V90.564L269.756,90.564z"/>
				<path fill="#BBBBBB" d="M273.497,90.676c0,0.397-0.113,0.705-0.342,0.917c-0.227,0.214-0.555,0.318-0.982,0.318h-0.688v-2.425
					h0.76c0.396,0,0.705,0.104,0.924,0.313S273.497,90.302,273.497,90.676z M272.961,90.69c0-0.521-0.229-0.781-0.689-0.781H272
					v1.577h0.221C272.715,91.486,272.961,91.221,272.961,90.69z"/>
				<path fill="#BBBBBB" d="M275.986,91.911h-0.513v-1.048h-0.961v1.048h-0.516v-2.425h0.516v0.949h0.961v-0.949h0.513V91.911z"/>
				<path fill="#BBBBBB" d="M278.797,90.695c0,0.402-0.1,0.71-0.299,0.926c-0.199,0.217-0.483,0.323-0.854,0.323
					s-0.656-0.106-0.854-0.323c-0.199-0.216-0.3-0.524-0.3-0.929c0-0.401,0.101-0.711,0.3-0.925
					c0.199-0.212,0.484-0.319,0.858-0.319c0.372,0,0.657,0.107,0.854,0.322C278.7,89.984,278.797,90.294,278.797,90.695z
					 M277.028,90.695c0,0.271,0.053,0.477,0.154,0.612c0.104,0.138,0.257,0.205,0.461,0.205c0.41,0,0.615-0.271,0.615-0.817
					s-0.204-0.816-0.611-0.816c-0.204,0-0.359,0.066-0.463,0.204C277.081,90.221,277.028,90.426,277.028,90.695z"/>
				<path fill="#BBBBBB" d="M279.299,91.911v-2.425h0.517v1.999h0.981v0.426H279.299z"/>
				<path fill="#BBBBBB" d="M283.23,90.676c0,0.397-0.112,0.705-0.34,0.917c-0.228,0.214-0.556,0.318-0.983,0.318h-0.688v-2.425
					h0.76c0.396,0,0.704,0.104,0.923,0.313C283.122,90.01,283.23,90.302,283.23,90.676z M282.696,90.69
					c0-0.521-0.229-0.781-0.688-0.781h-0.274v1.577h0.222C282.448,91.486,282.696,91.221,282.696,90.69z"/>
				<path fill="#BBBBBB" d="M285.129,91.911h-1.396v-2.425h1.396v0.422h-0.883v0.531h0.821v0.422h-0.821v0.624h0.883V91.911z"/>
				<path fill="#BBBBBB" d="M286.149,90.981v0.931h-0.516v-2.425h0.707c0.33,0,0.574,0.06,0.73,0.18
					c0.159,0.121,0.237,0.302,0.237,0.548c0,0.143-0.039,0.27-0.118,0.379c-0.077,0.112-0.188,0.2-0.332,0.262
					c0.364,0.547,0.602,0.896,0.713,1.058H287l-0.578-0.931L286.149,90.981L286.149,90.981z M286.149,90.564h0.166
					c0.162,0,0.282-0.028,0.357-0.083c0.08-0.054,0.117-0.139,0.117-0.255c0-0.115-0.039-0.196-0.117-0.245
					c-0.08-0.049-0.201-0.072-0.369-0.072h-0.154V90.564L286.149,90.564z"/>
			</g>
			<g>
				<path fill="#BBBBBB" d="M309.965,85.007c0,0.448-0.074,0.782-0.223,0.998c-0.146,0.217-0.373,0.325-0.682,0.325
					c-0.297,0-0.52-0.112-0.672-0.336c-0.15-0.223-0.227-0.554-0.227-0.987c0-0.455,0.074-0.79,0.221-1.006
					c0.146-0.215,0.373-0.324,0.678-0.324c0.299,0,0.523,0.114,0.676,0.338C309.889,84.24,309.965,84.57,309.965,85.007z
					 M308.706,85.007c0,0.313,0.027,0.541,0.082,0.678c0.055,0.138,0.145,0.207,0.273,0.207c0.127,0,0.219-0.069,0.275-0.209
					s0.084-0.363,0.084-0.676c0-0.317-0.029-0.544-0.084-0.682c-0.059-0.14-0.15-0.208-0.275-0.208
					c-0.129,0-0.219,0.068-0.273,0.208C308.733,84.463,308.706,84.689,308.706,85.007z"/>
				<path fill="#BBBBBB" d="M312.024,85.007c0,0.448-0.072,0.782-0.223,0.998c-0.145,0.217-0.373,0.325-0.68,0.325
					c-0.297,0-0.521-0.112-0.672-0.336c-0.152-0.223-0.229-0.554-0.229-0.987c0-0.455,0.074-0.79,0.223-1.006
					c0.145-0.215,0.373-0.324,0.678-0.324c0.297,0,0.52,0.114,0.674,0.338C311.948,84.24,312.024,84.57,312.024,85.007z
					 M310.764,85.007c0,0.313,0.027,0.541,0.082,0.678c0.057,0.138,0.146,0.207,0.275,0.207c0.127,0,0.219-0.069,0.273-0.209
					c0.057-0.14,0.088-0.363,0.088-0.676c0-0.317-0.031-0.544-0.088-0.682c-0.057-0.14-0.146-0.208-0.273-0.208
					s-0.219,0.068-0.275,0.208C310.792,84.463,310.764,84.689,310.764,85.007z"/>
				<path fill="#BBBBBB" d="M313.627,83.718l-0.961,2.576h-0.488l0.959-2.576H313.627z"/>
				<path fill="#BBBBBB" d="M315.575,85.007c0,0.448-0.074,0.782-0.221,0.998c-0.148,0.217-0.377,0.325-0.682,0.325
					c-0.297,0-0.521-0.112-0.672-0.336c-0.152-0.223-0.229-0.554-0.229-0.987c0-0.455,0.074-0.79,0.223-1.006
					c0.145-0.215,0.371-0.324,0.678-0.324c0.297,0,0.521,0.114,0.674,0.338C315.499,84.24,315.575,84.57,315.575,85.007z
					 M314.317,85.007c0,0.313,0.023,0.541,0.08,0.678c0.055,0.138,0.146,0.207,0.275,0.207c0.127,0,0.219-0.069,0.273-0.209
					c0.057-0.14,0.086-0.363,0.086-0.676c0-0.317-0.029-0.544-0.086-0.682c-0.057-0.14-0.148-0.208-0.273-0.208
					c-0.129,0-0.221,0.068-0.273,0.208C314.342,84.463,314.317,84.689,314.317,85.007z"/>
				<path fill="#BBBBBB" d="M317.635,85.007c0,0.448-0.074,0.782-0.223,0.998c-0.146,0.217-0.373,0.325-0.68,0.325
					c-0.299,0-0.521-0.112-0.672-0.336c-0.15-0.223-0.227-0.554-0.227-0.987c0-0.455,0.072-0.79,0.219-1.006
					c0.146-0.215,0.373-0.324,0.68-0.324c0.297,0,0.52,0.114,0.674,0.338C317.559,84.24,317.635,84.57,317.635,85.007z
					 M316.375,85.007c0,0.313,0.027,0.541,0.082,0.678c0.055,0.138,0.145,0.207,0.275,0.207c0.127,0,0.219-0.069,0.273-0.209
					c0.057-0.14,0.084-0.363,0.084-0.676c0-0.317-0.025-0.544-0.084-0.682c-0.057-0.14-0.148-0.208-0.273-0.208
					c-0.129,0-0.221,0.068-0.275,0.208C316.403,84.463,316.375,84.689,316.375,85.007z"/>
			</g>
			<g>
				<path fill="#BBBBBB" d="M303.694,83.662h0.215l-0.34,0.996h-0.23L303,83.662h0.213l0.188,0.594
					c0.012,0.034,0.021,0.075,0.031,0.121c0.014,0.048,0.02,0.079,0.021,0.098c0.006-0.043,0.021-0.114,0.051-0.219L303.694,83.662z
					"/>
				<path fill="#BBBBBB" d="M304.645,84.658l-0.072-0.237h-0.363l-0.072,0.237h-0.227l0.35-1.002h0.262l0.352,1.002H304.645z
					 M304.52,84.244c-0.064-0.216-0.104-0.338-0.111-0.365c-0.008-0.028-0.016-0.05-0.02-0.066c-0.014,0.06-0.057,0.202-0.129,0.433
					L304.52,84.244L304.52,84.244z"/>
				<path fill="#BBBBBB" d="M304.999,84.658v-0.996h0.211v0.821h0.404v0.175H304.999z"/>
				<path fill="#BBBBBB" d="M305.788,84.658v-0.996h0.211v0.996H305.788z"/>
				<path fill="#BBBBBB" d="M307.079,84.15c0,0.165-0.047,0.291-0.143,0.377c-0.094,0.088-0.229,0.132-0.402,0.132h-0.285v-0.996
					h0.313c0.164,0,0.291,0.043,0.381,0.129S307.079,83.996,307.079,84.15z M306.858,84.155c0-0.214-0.096-0.319-0.283-0.319h-0.111
					v0.648h0.088C306.756,84.484,306.858,84.375,306.858,84.155z"/>
				<path fill="#BBBBBB" d="M303.51,86.335h-0.211v-0.82h-0.271v-0.177h0.754v0.177h-0.271V86.335L303.51,86.335z"/>
				<path fill="#BBBBBB" d="M304.752,86.335h-0.211v-0.431h-0.396v0.431h-0.211v-0.997h0.211v0.392h0.396v-0.392h0.211V86.335z"/>
				<path fill="#BBBBBB" d="M305.215,85.953v0.382h-0.211v-0.997h0.289c0.137,0,0.236,0.023,0.303,0.074
					c0.064,0.05,0.098,0.124,0.098,0.224c0,0.06-0.018,0.112-0.049,0.157c-0.033,0.046-0.076,0.081-0.137,0.106
					c0.15,0.226,0.248,0.37,0.293,0.436h-0.234l-0.238-0.382H305.215z M305.215,85.781h0.068c0.066,0,0.117-0.012,0.146-0.032
					c0.033-0.023,0.051-0.059,0.051-0.106c0-0.046-0.018-0.081-0.051-0.1c-0.031-0.021-0.084-0.031-0.15-0.031h-0.064V85.781
					L305.215,85.781z"/>
				<path fill="#BBBBBB" d="M306.739,85.338v0.646c0,0.073-0.018,0.139-0.049,0.193c-0.035,0.055-0.082,0.098-0.145,0.127
					c-0.063,0.03-0.137,0.044-0.221,0.044c-0.129,0-0.229-0.033-0.299-0.098c-0.072-0.066-0.107-0.157-0.107-0.271v-0.644h0.211
					v0.609c0,0.076,0.016,0.135,0.047,0.171c0.029,0.034,0.082,0.053,0.154,0.053c0.068,0,0.117-0.019,0.15-0.053
					c0.029-0.036,0.045-0.095,0.045-0.172v-0.608h0.213V85.338z"/>
			</g>
		</g>
		<g>
			<circle fill="#009CDE" cx="329.987" cy="88.669" r="3.275"/>
			<circle fill="#DE5D66" cx="325.756" cy="88.669" r="3.276"/>
		</g>
	</g>
</g>
<g>
	<path fill="#C1C1C3" d="M21.494,31.303h85.936c1.066,0,1.938,0.871,1.938,1.937v7.322c0,1.065-0.871,1.937-1.938,1.937H21.494
		c-1.064,0-1.937-0.87-1.937-1.937V33.24C19.557,32.174,20.429,31.303,21.494,31.303L21.494,31.303z"/>
	<path fill="#E4E4E4" d="M19.557,36.962H32.66c0.712,0,0.708-0.232,0.913-0.656l0.032-0.071l0.865-1.883l0.058-0.128
		c0.401-0.933,0.551-1.082,1.666-1.055h0.187h3.786c0.046-0.002,0.092-0.002,0.141,0h0.218h10.619h0.218
		c0.048-0.002,0.096-0.002,0.142,0h3.785h0.186c1.116-0.027,1.266,0.122,1.667,1.055l0.059,0.128l0.857,1.866l0.027,0.06
		c0.33,0.524,0.307,0.675,1.253,0.686h0.086h49.943v6.407h-89.81L19.557,36.962L19.557,36.962z"/>
	<path fill="#FEFEFE" d="M36.816,38.427h65.866c0.491,0,0.894,0.402,0.894,0.894v2.002c0,0.492-0.402,0.895-0.894,0.895H36.816
		c-0.49,0-0.893-0.401-0.893-0.895V39.32C35.923,38.829,36.326,38.427,36.816,38.427L36.816,38.427z"/>
	<path fill="#929292" d="M105.371,39.605h2.141c0.102,0,0.186,0.084,0.186,0.188l0,0c0,0.103-0.084,0.187-0.186,0.187h-2.141
		c-0.102,0-0.186-0.084-0.186-0.187l0,0C105.185,39.689,105.269,39.605,105.371,39.605L105.371,39.605z"/>
	<path fill="#929292" d="M105.371,40.357h2.141c0.102,0,0.186,0.084,0.186,0.188l0,0c0,0.103-0.084,0.186-0.186,0.186h-2.141
		c-0.102,0-0.186-0.083-0.186-0.186l0,0C105.185,40.441,105.269,40.357,105.371,40.357L105.371,40.357z"/>
	<path fill="#929292" d="M105.371,41.108h2.141c0.102,0,0.186,0.084,0.186,0.188l0,0c0,0.104-0.084,0.188-0.186,0.188h-2.141
		c-0.102,0-0.186-0.084-0.186-0.188l0,0C105.185,41.192,105.269,41.108,105.371,41.108L105.371,41.108z"/>
	<polygon fill="#FADD29" points="101.684,38.885 102.087,39.83 103.1,39.913 102.327,40.591 102.559,41.58 101.677,41.053 
		100.808,41.58 101.038,40.579 100.265,39.913 101.292,39.822 	"/>
	<path fill="#898989" d="M33.766,39.446c-0.042-0.021-0.085-0.036-0.127-0.051c-0.059-0.017-0.117-0.03-0.177-0.038
		c-0.285-0.035-0.558,0.047-0.769,0.208c-0.21,0.164-0.358,0.407-0.395,0.691c-0.036,0.285,0.046,0.558,0.208,0.768
		c0.164,0.211,0.407,0.359,0.691,0.396c0.285,0.037,0.558-0.045,0.768-0.208s0.359-0.405,0.395-0.691l-0.286-0.035
		c-0.026,0.204-0.134,0.38-0.286,0.498c-0.15,0.117-0.348,0.177-0.553,0.148c-0.205-0.024-0.381-0.132-0.498-0.283
		c-0.117-0.151-0.178-0.349-0.15-0.555c0.026-0.204,0.133-0.38,0.284-0.496c0.152-0.117,0.349-0.179,0.554-0.151
		c0.043,0.005,0.087,0.016,0.128,0.027c0.028,0.009,0.056,0.019,0.083,0.031l-0.132,0.257l0.363-0.051l0.36-0.054l-0.173-0.32
		l-0.173-0.321L33.766,39.446L33.766,39.446z"/>
	<path fill="#898989" d="M33.735,39.514c-0.021-0.011-0.04-0.02-0.059-0.025c-0.02-0.009-0.039-0.015-0.059-0.021
		c-0.026-0.008-0.054-0.015-0.082-0.021c-0.029-0.007-0.057-0.012-0.083-0.015c-0.13-0.018-0.256-0.007-0.375,0.024l0,0
		c-0.124,0.033-0.238,0.093-0.338,0.17c-0.099,0.076-0.184,0.173-0.248,0.284c-0.061,0.105-0.103,0.228-0.118,0.356
		c-0.018,0.128-0.007,0.256,0.026,0.374h-0.001c0.033,0.124,0.091,0.237,0.168,0.339c0.077,0.1,0.174,0.184,0.284,0.246
		c0.107,0.063,0.229,0.104,0.357,0.12s0.255,0.005,0.375-0.026c0.124-0.032,0.238-0.091,0.338-0.168
		c0.1-0.078,0.184-0.174,0.247-0.286c0.05-0.086,0.087-0.181,0.107-0.281l-0.142-0.019c-0.018,0.083-0.048,0.161-0.088,0.23
		c-0.055,0.095-0.127,0.178-0.212,0.243s-0.183,0.113-0.288,0.144l0,0c-0.101,0.027-0.209,0.036-0.32,0.022
		c-0.11-0.015-0.214-0.051-0.305-0.104c-0.095-0.054-0.177-0.126-0.242-0.212c-0.065-0.084-0.114-0.181-0.144-0.287l0,0
		c-0.028-0.101-0.036-0.209-0.022-0.32c0.015-0.11,0.05-0.214,0.103-0.305c0.054-0.095,0.126-0.176,0.211-0.241
		s0.183-0.115,0.287-0.146c0.102-0.027,0.21-0.035,0.32-0.021c0.026,0.002,0.05,0.008,0.072,0.013s0.045,0.011,0.068,0.018h0.001
		c0.014,0.004,0.029,0.011,0.045,0.018c0.018,0.007,0.033,0.012,0.045,0.017l0.071,0.033l-0.035,0.068l-0.065,0.132l0.22-0.031
		l0.257-0.037l-0.123-0.229l-0.105-0.195l-0.052,0.103L33.8,39.543L33.735,39.514L33.735,39.514z M33.73,39.35L33.73,39.35
		l0.086-0.168l0.064-0.127l0.066,0.127l0.174,0.32l0.173,0.32l0.051,0.095l-0.105,0.015l-0.362,0.051l-0.361,0.054l-0.14,0.021
		l0.064-0.127l0.092-0.185l-0.001-0.001l0,0c-0.018-0.006-0.036-0.011-0.057-0.015c-0.021-0.005-0.04-0.008-0.058-0.011
		c-0.092-0.012-0.18-0.004-0.263,0.019c-0.087,0.022-0.168,0.063-0.237,0.117c-0.069,0.055-0.128,0.121-0.173,0.199
		c-0.042,0.074-0.072,0.159-0.084,0.25c-0.01,0.09-0.004,0.179,0.019,0.263l0,0c0.023,0.086,0.063,0.166,0.118,0.236
		c0.054,0.068,0.12,0.128,0.198,0.173c0.076,0.042,0.16,0.071,0.251,0.083c0.09,0.012,0.179,0.005,0.263-0.018l0,0
		c0.086-0.023,0.166-0.063,0.235-0.118c0.069-0.053,0.128-0.121,0.173-0.199c0.043-0.075,0.072-0.16,0.084-0.25l0.01-0.073
		l0.073,0.011l0.288,0.035l0.073,0.012l-0.01,0.071c-0.02,0.15-0.067,0.289-0.138,0.413c-0.073,0.128-0.17,0.238-0.286,0.327
		c-0.114,0.089-0.246,0.156-0.389,0.193c-0.137,0.038-0.283,0.049-0.433,0.03c-0.15-0.021-0.289-0.067-0.412-0.138
		c-0.128-0.074-0.239-0.172-0.328-0.286c-0.089-0.113-0.155-0.248-0.194-0.389l0,0c-0.036-0.137-0.049-0.284-0.029-0.434
		c0.019-0.15,0.066-0.289,0.137-0.412c0.073-0.127,0.172-0.238,0.287-0.328c0.114-0.089,0.246-0.155,0.389-0.194l0,0
		c0.137-0.038,0.283-0.048,0.433-0.028c0.033,0.004,0.065,0.01,0.095,0.017c0.032,0.007,0.063,0.015,0.095,0.025
		C33.684,39.332,33.707,39.341,33.73,39.35L33.73,39.35z"/>
	<path fill="#929292" d="M23.069,40.147l0.801-0.883c0.088-0.096,0.236-0.104,0.333-0.018c0.097,0.088,0.104,0.237,0.017,0.333
		l-0.457,0.505h1.729c0.131,0,0.237,0.104,0.237,0.236c0,0.131-0.106,0.236-0.237,0.236h-1.729l0.457,0.503
		c0.088,0.097,0.08,0.246-0.017,0.335c-0.097,0.087-0.245,0.079-0.333-0.018l-0.801-0.882c-0.047-0.045-0.077-0.106-0.077-0.176
		C22.992,40.253,23.022,40.189,23.069,40.147L23.069,40.147z"/>
	<path fill="#C8C8CA" d="M30.254,40.147l-0.801-0.883c-0.087-0.096-0.236-0.104-0.333-0.018c-0.097,0.088-0.104,0.237-0.017,0.333
		l0.457,0.505h-1.729c-0.131,0-0.237,0.104-0.237,0.236c0,0.131,0.106,0.236,0.237,0.236h1.729l-0.457,0.503
		c-0.087,0.097-0.08,0.246,0.017,0.335c0.097,0.087,0.246,0.079,0.333-0.018l0.801-0.882c0.048-0.045,0.077-0.106,0.077-0.176
		C30.332,40.253,30.302,40.189,30.254,40.147L30.254,40.147z"/>
	<path fill="#F55A56" d="M23.773,33.161c0.532,0,0.964,0.433,0.964,0.964c0,0.533-0.432,0.965-0.964,0.965
		c-0.533,0-0.965-0.432-0.965-0.965C22.808,33.594,23.24,33.161,23.773,33.161L23.773,33.161z"/>
	<path fill="#F7D953" d="M26.73,33.161c0.532,0,0.965,0.433,0.965,0.964c0,0.533-0.433,0.965-0.965,0.965
		c-0.532,0-0.964-0.432-0.964-0.965C25.766,33.594,26.198,33.161,26.73,33.161L26.73,33.161z"/>
	<path fill="#56BD64" d="M29.688,33.161c0.532,0,0.965,0.433,0.965,0.964c0,0.533-0.433,0.965-0.965,0.965
		c-0.532,0-0.964-0.432-0.964-0.965C28.724,33.594,29.156,33.161,29.688,33.161L29.688,33.161z"/>
	<g>
		<rect x="19.65" y="43.462" fill="#FFFFFF" width="89.624" height="52.517"/>
		<path fill="#E4E4E4" d="M109.181,43.555v52.331H19.743V43.555H109.181 M109.367,43.369h-89.81v52.701h89.81V43.369L109.367,43.369
			z"/>
	</g>
</g>
</svg>
