<?xml version="1.0" encoding="utf-8"?>
<!-- Generator: Adobe Illustrator 16.0.0, SVG Export Plug-In . SVG Version: 6.00 Build 0)  -->
<!DOCTYPE svg PUBLIC "-//W3C//DTD SVG 1.1//EN" "http://www.w3.org/Graphics/SVG/1.1/DTD/svg11.dtd">
<svg version="1.1" id="レイヤー_2" xmlns="http://www.w3.org/2000/svg" xmlns:xlink="http://www.w3.org/1999/xlink" x="0px"
	 y="0px" width="450.168px" height="372.369px" viewBox="0 0 450.168 372.369" enable-background="new 0 0 450.168 372.369"
	 xml:space="preserve">
<g>
	<path fill="#5ED45E" d="M347.748,255.481c-7.997,0-14.467,6.47-14.467,14.467c0,7.996,6.47,14.467,14.467,14.467
		c7.996,0,14.467-6.471,14.467-14.467C362.215,261.951,355.744,255.481,347.748,255.481z"/>
</g>
<g>
	<path fill="#FCD118" d="M108.824,190.438l-6.347,0.004c-1.272,0-2.381-0.858-2.707-2.089c-0.507-1.908-1.185-3.772-2.065-5.596
		c-0.52-1.077-0.311-2.363,0.535-3.209l4.291-4.292c1.094-1.094,1.094-2.866,0-3.961l-6.462-6.462c-1.095-1.094-2.866-1.094-3.961,0
		l-3.682,3.682c-0.907,0.907-2.312,1.074-3.417,0.422c-1.94-1.143-4.003-2.091-6.117-2.808c-1.139-0.386-1.908-1.45-1.907-2.653
		l0.002-4.868c0.001-1.548-1.253-2.803-2.802-2.803l-9.174,0.002c-1.548,0-2.802,1.257-2.801,2.805l0.006,4.249
		c0.002,1.268-0.851,2.373-2.074,2.705c-2.334,0.635-4.612,1.537-6.783,2.7c-1.088,0.583-2.428,0.386-3.301-0.486l-2.945-2.946
		c-1.094-1.094-2.867-1.094-3.961,0l-6.621,6.619c-1.094,1.095-1.094,2.867,0,3.962l2.966,2.965
		c0.872,0.871,1.061,2.204,0.491,3.298c-1.098,2.104-2.018,4.393-2.662,6.721c-0.338,1.229-1.44,2.089-2.715,2.086l-4.245-0.012
		c-1.551-0.005-2.81,1.252-2.809,2.803l0.009,9.156c0.001,1.549,1.257,2.801,2.805,2.799l4.865-0.007
		c1.207-0.003,2.273,0.769,2.659,1.912c0.714,2.117,1.659,4.182,2.799,6.124c0.648,1.105,0.481,2.507-0.425,3.412l-3.738,3.738
		c-1.094,1.094-1.094,2.867,0,3.961l6.463,6.463c1.094,1.094,2.867,1.094,3.961,0l4.34-4.34c0.847-0.848,2.135-1.055,3.213-0.533
		c1.824,0.885,3.691,1.57,5.597,2.079c1.226,0.328,2.083,1.433,2.083,2.702l0.008,6.302c0.002,1.546,1.254,2.797,2.799,2.798
		l9.186,0.004c1.55,0,2.806-1.256,2.803-2.807l-0.013-6.857c-0.002-1.211,0.776-2.281,1.927-2.663
		c1.66-0.55,3.277-1.233,4.852-2.071c1.09-0.58,2.43-0.388,3.303,0.485l4.9,4.901c1.093,1.094,2.867,1.094,3.961,0l6.619-6.621
		c1.094-1.094,1.094-2.867,0-3.961l-4.901-4.9c-0.872-0.873-1.066-2.213-0.485-3.303c0.846-1.588,1.539-3.227,2.094-4.908
		c0.381-1.149,1.449-1.929,2.66-1.928l6.928,0.003c1.548,0.001,2.803-1.254,2.803-2.801l-0.002-9.176
		C111.626,191.691,110.371,190.438,108.824,190.438z M81.43,209.663c-6.538,6.538-17.137,6.538-23.674,0
		c-6.539-6.537-6.539-17.137,0-23.674c6.537-6.538,17.136-6.538,23.674,0C87.967,192.526,87.967,203.126,81.43,209.663z"/>
</g>
<g>
	<path fill="#FCD118" d="M347.748,226.548c-23.99,0-43.4,19.411-43.4,43.4s19.41,43.4,43.4,43.4c23.988,0,43.399-19.411,43.399-43.4
		S371.736,226.548,347.748,226.548z M347.748,284.415c-7.997,0-14.467-6.471-14.467-14.467c0-7.997,6.47-14.467,14.467-14.467
		c7.996,0,14.467,6.47,14.467,14.467C362.215,277.944,355.744,284.415,347.748,284.415z"/>
</g>
<g>
	<path fill="#00C9C9" d="M326.59,2.293H12.368c-5.723,0-10.362,4.496-10.362,10.219v21.886h334.803V12.512
		C336.809,6.789,332.313,2.293,326.59,2.293z M20.434,23.129c-3.154,0-5.711-2.557-5.711-5.711s2.557-5.712,5.711-5.712
		c3.155,0,5.712,2.558,5.712,5.712S23.589,23.129,20.434,23.129z M43.406,23.129c-3.154,0-5.711-2.557-5.711-5.711
		s2.557-5.712,5.711-5.712s5.713,2.558,5.713,5.712S46.561,23.129,43.406,23.129z"/>
</g>
<g>
	<g>
		<g>
			<g>
				<path fill="#1E243A" d="M246.802,257.98H14.381C6.451,257.98,0,251.529,0,243.6V13.292C0,5.963,5.962,0,13.292,0h312.251
					c7.477,0,13.559,6.082,13.559,13.558v154.989c0,1.188-0.963,2.15-2.15,2.15s-2.148-0.962-2.148-2.15V13.558
					c0-5.104-4.154-9.258-9.26-9.258H13.292C8.333,4.3,4.3,8.334,4.3,13.292V243.6c0,5.559,4.522,10.082,10.081,10.082h232.421
					c1.187,0,2.149,0.963,2.149,2.149C248.951,257.02,247.988,257.98,246.802,257.98z"/>
			</g>
			<g>
				<path fill="#1E243A" d="M303.844,36.404H2.866c-1.187,0-2.15-0.963-2.15-2.15s0.964-2.149,2.15-2.149h300.978
					c1.188,0,2.15,0.962,2.15,2.149S305.031,36.404,303.844,36.404z"/>
			</g>
			<g>
				<path fill="#1E243A" d="M61.199,33.395c-1.188,0-2.15-0.963-2.15-2.15V4.013c0-1.187,0.963-2.149,2.15-2.149
					s2.148,0.963,2.148,2.149v27.231C63.348,32.432,62.387,33.395,61.199,33.395z"/>
			</g>
			<g>
				<g>
					<path fill="#1E243A" d="M20.434,25.279c-4.334,0-7.861-3.527-7.861-7.861c0-4.335,3.527-7.862,7.861-7.862
						c4.336,0,7.861,3.527,7.861,7.862C28.295,21.752,24.77,25.279,20.434,25.279z M20.434,13.855c-1.963,0-3.562,1.599-3.562,3.563
						c0,1.963,1.599,3.561,3.562,3.561c1.965,0,3.563-1.598,3.563-3.561C23.996,15.454,22.398,13.855,20.434,13.855z"/>
				</g>
				<g>
					<path fill="#1E243A" d="M43.406,25.279c-4.334,0-7.861-3.527-7.861-7.861c0-4.335,3.527-7.862,7.861-7.862
						c4.336,0,7.861,3.527,7.861,7.862C51.268,21.752,47.742,25.279,43.406,25.279z M43.406,13.855
						c-1.963,0-3.562,1.599-3.562,3.563c0,1.963,1.599,3.561,3.562,3.561c1.965,0,3.563-1.598,3.563-3.561
						C46.969,15.454,45.371,13.855,43.406,13.855z"/>
				</g>
			</g>
			<g>
				<g>
					<path fill="#1E243A" d="M252.248,14.619H74.24c-1.187,0-2.148-0.963-2.148-2.15s0.962-2.149,2.148-2.149h178.008
						c1.187,0,2.15,0.962,2.15,2.149S253.435,14.619,252.248,14.619z"/>
				</g>
				<g>
					<path fill="#1E243A" d="M169.98,25.798H74.24c-1.187,0-2.148-0.962-2.148-2.149s0.962-2.15,2.148-2.15h95.74
						c1.188,0,2.15,0.963,2.15,2.15S171.168,25.798,169.98,25.798z"/>
				</g>
			</g>
			<g>
				<path fill="#1E243A" d="M337.096,36.404h-10.893c-1.188,0-2.15-0.963-2.15-2.15s0.963-2.149,2.15-2.149h10.893
					c1.187,0,2.148,0.962,2.148,2.149S338.282,36.404,337.096,36.404z"/>
			</g>
		</g>
		<g>
			<path fill="#1E243A" d="M69.592,216.707c-4.838,0-9.674-1.841-13.357-5.523c-7.365-7.365-7.365-19.35,0-26.715l0,0
				c7.365-7.365,19.35-7.365,26.715,0c3.568,3.568,5.533,8.313,5.533,13.357s-1.965,9.789-5.533,13.357
				C79.268,214.866,74.43,216.707,69.592,216.707z M59.275,187.508c-5.689,5.689-5.689,14.946,0,20.635
				c5.688,5.689,14.945,5.689,20.634,0c5.688-5.688,5.688-14.945,0-20.635C74.221,181.82,64.964,181.82,59.275,187.508
				L59.275,187.508z"/>
		</g>
		<g>
			<path fill="#1E243A" d="M74.182,241.994c-0.001,0-0.002,0-0.002,0l-9.186-0.003c-2.727-0.001-4.945-2.22-4.949-4.945
				l-0.006-6.302c-0.001-0.292-0.202-0.551-0.488-0.627c-2.067-0.552-4.079-1.299-5.98-2.221c-0.258-0.125-0.561-0.078-0.756,0.117
				l-4.34,4.34c-0.934,0.936-2.178,1.45-3.5,1.45s-2.566-0.515-3.501-1.45l-6.462-6.463c-0.936-0.934-1.449-2.178-1.449-3.5
				s0.514-2.565,1.449-3.5l3.738-3.738c0.208-0.209,0.245-0.539,0.09-0.805c-1.22-2.078-2.223-4.273-2.982-6.525
				c-0.09-0.27-0.338-0.449-0.615-0.449H35.24l-4.865,0.008c-0.003,0-0.006,0-0.009,0c-1.319,0-2.562-0.514-3.496-1.445
				c-0.937-0.936-1.452-2.178-1.454-3.502l-0.008-9.156c-0.002-1.325,0.516-2.571,1.453-3.508c0.936-0.934,2.177-1.447,3.498-1.447
				c0.004,0,0.008,0,0.013,0l4.245,0.012h0.002c0.297,0,0.552-0.204,0.637-0.508c0.671-2.432,1.623-4.834,2.826-7.143
				c0.139-0.267,0.097-0.582-0.105-0.783l-2.965-2.966c-1.93-1.931-1.93-5.071,0-7.001l6.62-6.62c1.931-1.931,5.071-1.931,7.001,0
				l2.946,2.946c0.203,0.203,0.511,0.248,0.766,0.111c2.293-1.229,4.728-2.197,7.233-2.879c0.289-0.078,0.49-0.337,0.489-0.629
				l-0.005-4.248c-0.002-1.324,0.512-2.568,1.447-3.506c0.936-0.936,2.179-1.451,3.502-1.451l9.174-0.002l0,0
				c1.324,0,2.566,0.516,3.502,1.45c0.936,0.936,1.45,2.18,1.449,3.503l-0.002,4.867c0,0.279,0.18,0.525,0.447,0.617
				c2.25,0.763,4.443,1.77,6.52,2.992c0.265,0.155,0.596,0.119,0.805-0.091l3.682-3.682c1.931-1.931,5.071-1.931,7.002,0
				l6.462,6.462c0.935,0.936,1.45,2.178,1.45,3.502c0,1.321-0.516,2.564-1.45,3.5l-4.292,4.291
				c-0.195,0.195-0.242,0.498-0.118,0.754c0.913,1.892,1.655,3.903,2.206,5.98c0.076,0.287,0.336,0.489,0.628,0.489h0.001
				l6.346-0.003c0.002,0,0.002,0,0.004,0c1.321,0,2.563,0.514,3.499,1.449c0.936,0.934,1.45,2.178,1.452,3.5v9.176
				c0.001,1.323-0.514,2.566-1.449,3.502s-2.179,1.449-3.5,1.449c-0.002,0-0.002,0-0.004,0l-6.926-0.002h-0.001
				c-0.28,0-0.528,0.182-0.618,0.451c-0.601,1.82-1.354,3.585-2.238,5.246c-0.137,0.258-0.094,0.568,0.109,0.771l4.901,4.901
				c1.931,1.93,1.931,5.07,0,7.001l-6.62,6.62c-0.936,0.936-2.178,1.45-3.501,1.45c-1.322,0-2.565-0.515-3.5-1.45l-4.9-4.9
				c-0.202-0.203-0.513-0.246-0.772-0.108c-1.635,0.87-3.379,1.616-5.186,2.214c-0.271,0.091-0.452,0.34-0.452,0.619l0.012,6.857
				c0.003,1.326-0.512,2.57-1.448,3.508C76.748,241.479,75.505,241.994,74.182,241.994z M53.275,223.527
				c0.735,0,1.479,0.164,2.17,0.5c1.656,0.803,3.411,1.453,5.215,1.936c2.163,0.578,3.676,2.543,3.678,4.777l0.008,6.301
				c0,0.358,0.291,0.65,0.65,0.65l9.186,0.004l0,0c0.223,0,0.373-0.104,0.461-0.191c0.086-0.086,0.19-0.237,0.189-0.461
				l-0.012-6.857c-0.004-2.14,1.362-4.031,3.399-4.707c1.575-0.523,3.095-1.172,4.517-1.93c1.94-1.033,4.285-0.686,5.834,0.863
				l4.9,4.9c0.158,0.158,0.338,0.191,0.46,0.191c0.124,0,0.304-0.033,0.46-0.191l6.62-6.619c0.157-0.158,0.191-0.338,0.191-0.461
				s-0.034-0.303-0.191-0.46l-4.9-4.901c-1.55-1.549-1.896-3.893-0.864-5.832c0.77-1.445,1.426-2.984,1.951-4.572
				c0.673-2.037,2.563-3.404,4.7-3.404h0.003l6.926,0.004h0.002c0.223,0,0.373-0.104,0.459-0.191
				c0.088-0.086,0.191-0.236,0.191-0.46l-0.002-9.176c0-0.223-0.104-0.374-0.191-0.46c-0.087-0.088-0.236-0.191-0.459-0.191h-0.001
				l0,0l-6.347,0.004h-0.003c-2.239,0-4.206-1.516-4.783-3.686c-0.481-1.814-1.129-3.568-1.923-5.214
				c-0.918-1.901-0.536-4.177,0.949-5.665l4.292-4.291c0.157-0.158,0.191-0.338,0.191-0.459c0-0.124-0.034-0.304-0.19-0.461
				l-6.463-6.462c-0.254-0.255-0.666-0.255-0.92,0l-3.682,3.681c-1.596,1.596-4.073,1.906-6.027,0.756
				c-1.823-1.074-3.747-1.957-5.719-2.625c-2.014-0.684-3.367-2.568-3.366-4.691l0.003-4.867c0-0.224-0.104-0.373-0.191-0.461
				c-0.086-0.087-0.237-0.191-0.461-0.191l-9.173,0.002c-0.224,0-0.374,0.104-0.461,0.191s-0.19,0.237-0.19,0.461l0.006,4.248
				c0.003,2.23-1.502,4.197-3.66,4.784c-2.193,0.597-4.324,1.444-6.332,2.521c-1.938,1.037-4.283,0.691-5.836-0.861l-2.946-2.946
				c-0.254-0.255-0.667-0.255-0.921,0l-6.619,6.619c-0.254,0.255-0.254,0.667,0,0.921l2.965,2.965
				c1.535,1.537,1.889,3.872,0.877,5.813c-1.049,2.012-1.912,4.19-2.496,6.301c-0.598,2.162-2.568,3.66-4.793,3.66l-4.245-0.01
				h-0.001c-0.223,0-0.373,0.103-0.461,0.189c-0.087,0.087-0.19,0.238-0.19,0.461l0.007,9.157c0.001,0.223,0.105,0.373,0.191,0.46
				c0.088,0.087,0.238,0.19,0.46,0.19c0.001,0,0.001,0,0.001,0l4.867-0.008c0.002,0,0.004,0,0.008,0c2.125,0,4.01,1.356,4.69,3.376
				c0.665,1.973,1.544,3.896,2.616,5.723c1.145,1.953,0.834,4.429-0.76,6.021l-3.736,3.736c-0.158,0.158-0.191,0.338-0.191,0.461
				s0.033,0.303,0.191,0.461l6.461,6.461c0.158,0.158,0.338,0.191,0.461,0.191s0.303-0.033,0.46-0.191l4.34-4.339
				C50.722,224.027,51.988,223.527,53.275,223.527z M108.824,190.438h0.002H108.824z"/>
		</g>
	</g>
	<g>
		<path fill="#1E243A" d="M129.563,65.068H32.391c-1.188,0-2.149-0.962-2.149-2.15c0-1.187,0.962-2.149,2.149-2.149h97.173
			c1.188,0,2.149,0.963,2.149,2.149C131.713,64.106,130.751,65.068,129.563,65.068z"/>
	</g>
	<g>
		<path fill="#1E243A" d="M111.219,88H69.654c-1.188,0-2.149-0.963-2.149-2.149c0-1.188,0.962-2.149,2.149-2.149h41.564
			c1.187,0,2.148,0.962,2.148,2.149C113.367,87.037,112.405,88,111.219,88z"/>
	</g>
	<g>
		<path fill="#1E243A" d="M183.453,233.043h-34.971c-1.188,0-2.15-0.963-2.15-2.15c0-1.187,0.963-2.148,2.15-2.148h34.971
			c1.188,0,2.149,0.962,2.149,2.148C185.603,232.08,184.641,233.043,183.453,233.043z"/>
	</g>
	<g>
		<path fill="#1E243A" d="M210.397,202.658h-39.271c-1.188,0-2.149-0.962-2.149-2.15c0-1.187,0.962-2.148,2.149-2.148h39.271
			c1.188,0,2.149,0.962,2.149,2.148C212.547,201.696,211.585,202.658,210.397,202.658z"/>
	</g>
	<g>
		<path fill="#1E243A" d="M148.77,161.668h-24.365c-1.188,0-2.15-0.962-2.15-2.15c0-1.187,0.963-2.148,2.15-2.148h24.365
			c1.187,0,2.149,0.962,2.149,2.148C150.919,160.706,149.956,161.668,148.77,161.668z"/>
	</g>
</g>
<g>
	<g>
		<g>
			<g>
				<path fill="#1E243A" d="M347.748,372.369c-13.838,0-27.258-2.706-39.887-8.043c-12.199-5.155-23.15-12.536-32.553-21.939
					c-9.402-9.401-16.783-20.354-21.939-32.553c-5.336-12.629-8.043-26.049-8.043-39.886c0-13.838,2.707-27.257,8.043-39.886
					c5.156-12.199,12.537-23.151,21.939-32.554c9.402-9.401,20.354-16.783,32.553-21.938c12.629-5.337,26.049-8.043,39.887-8.043
					c13.837,0,27.256,2.706,39.885,8.043c12.199,5.155,23.152,12.537,32.555,21.938c9.401,9.402,16.783,20.354,21.938,32.554
					c5.337,12.629,8.043,26.048,8.043,39.886c0,13.837-2.706,27.257-8.043,39.886c-5.154,12.199-12.536,23.151-21.938,32.553
					c-9.402,9.403-20.355,16.784-32.555,21.939C375.004,369.663,361.585,372.369,347.748,372.369z M347.748,171.541
					c-54.263,0-98.408,44.145-98.408,98.407s44.146,98.407,98.408,98.407c54.262,0,98.407-44.145,98.407-98.407
					S402.01,171.541,347.748,171.541z"/>
			</g>
			<g>
				<path fill="#1E243A" d="M347.748,344.289c-19.873,0-38.547-7.729-52.58-21.762c-14.032-14.033-21.762-32.706-21.762-52.579
					s7.729-38.546,21.762-52.579c14.033-14.033,32.707-21.761,52.58-21.761c19.872,0,38.545,7.728,52.578,21.761
					s21.762,32.706,21.762,52.579s-7.729,38.546-21.762,52.579S367.62,344.289,347.748,344.289z M347.748,199.621
					c-38.779,0-70.328,31.549-70.328,70.327s31.549,70.327,70.328,70.327c38.777,0,70.326-31.549,70.326-70.327
					S386.525,199.621,347.748,199.621z"/>
			</g>
			<g>
				<path fill="#1E243A" d="M347.748,315.355c-12.139,0-23.544-4.721-32.115-13.293c-8.572-8.57-13.293-19.977-13.293-32.114
					s4.721-23.544,13.293-32.114c8.571-8.571,19.977-13.292,32.115-13.292c12.138,0,23.543,4.721,32.113,13.292
					c8.572,8.57,13.293,19.977,13.293,32.114s-4.721,23.544-13.292,32.114C371.291,310.635,359.886,315.355,347.748,315.355z
					 M347.748,228.555c-22.825,0-41.395,18.568-41.395,41.394c0,22.824,18.569,41.394,41.395,41.394
					c22.824,0,41.393-18.569,41.393-41.394C389.141,247.123,370.572,228.555,347.748,228.555z"/>
			</g>
			<g>
				<path fill="#1E243A" d="M347.748,286.422c-9.084,0-16.475-7.39-16.475-16.474c0-9.083,7.391-16.474,16.475-16.474
					c9.082,0,16.473,7.391,16.473,16.474C364.221,279.032,356.83,286.422,347.748,286.422z M347.748,257.488
					c-6.871,0-12.461,5.589-12.461,12.46c0,6.87,5.59,12.46,12.461,12.46c6.869,0,12.459-5.59,12.459-12.46
					C360.207,263.077,354.617,257.488,347.748,257.488z"/>
			</g>
		</g>
	</g>
	<g>
		<g>
			<path fill="#1E243A" d="M348.394,272.403c-0.509,0-1.02-0.194-1.409-0.583L238.508,163.342c-0.778-0.777-0.778-2.039,0-2.816
				c0.778-0.778,2.039-0.778,2.817,0l108.478,108.477c0.777,0.779,0.777,2.04,0,2.818
				C349.413,272.209,348.904,272.403,348.394,272.403z"/>
		</g>
		<g>
			<path fill="#1E243A" d="M259.502,183.518c-0.08,0-0.162-0.005-0.244-0.016l-44.101-5.389c-0.856-0.105-2.069-0.428-3.001-1.359
				l-17.42-17.451c-0.781-0.785-0.781-2.055,0.003-2.839c0.785-0.782,2.056-0.781,2.838,0.003l17.419,17.451
				c0.038,0.038,0.242,0.162,0.651,0.213l38.318,4.682l-68.614-68.609c-0.922-0.923-2.162-1.521-3.489-1.687l-33.778-4.104
				c-0.678-0.085-0.981,0.424-1.059,0.581c-0.112,0.229-0.239,0.674,0.168,1.082l32.443,32.374h10.982
				c1.108,0,2.006,0.897,2.006,2.007c0,1.107-0.897,2.006-2.006,2.006h-11.813c-0.531,0-1.04-0.211-1.416-0.586l-33.033-32.962
				c-1.517-1.517-1.885-3.745-0.938-5.683c0.963-1.972,2.986-3.07,5.154-2.803l33.777,4.104c2.215,0.275,4.287,1.28,5.838,2.832
				l72.73,72.727c0.605,0.605,0.761,1.528,0.385,2.297C260.967,183.085,260.262,183.518,259.502,183.518z"/>
		</g>
		<g>
			<path fill="#1E243A" d="M259.283,183.732c-0.518,0-1.027-0.201-1.41-0.584l-72.73-72.73c-1.561-1.561-2.569-3.625-2.841-5.814
				l-4.182-33.706c-0.266-2.141,0.815-4.136,2.753-5.083c1.938-0.946,4.176-0.572,5.701,0.953l15.569,15.568
				c0.778,0.778,0.778,2.039,0,2.817s-2.039,0.778-2.817,0l-15.568-15.568c-0.451-0.452-0.945-0.283-1.135-0.19
				c-0.191,0.094-0.627,0.379-0.549,1.012l4.182,33.707c0.162,1.313,0.768,2.552,1.703,3.486l68.632,68.633l-4.747-38.266
				c-0.027-0.219-0.127-0.424-0.283-0.578l-35.455-35.455v11.561c0,1.1-0.892,1.992-1.992,1.992c-1.1,0-1.992-0.893-1.992-1.992
				V97.123c0-0.805,0.486-1.531,1.23-1.84s1.602-0.139,2.171,0.432l38.856,38.856c0.779,0.779,1.283,1.811,1.419,2.905l5.462,44.019
				c0.104,0.845-0.339,1.661-1.104,2.035C259.878,183.666,259.579,183.732,259.283,183.732z"/>
		</g>
	</g>
</g>
<g>
	<path fill="#1E243A" d="M350.251,274.418h-10.425c-1.187,0-2.149-0.963-2.149-2.15s0.963-2.149,2.149-2.149h8.275v-8.274
		c0-1.188,0.962-2.149,2.149-2.149c1.187,0,2.149,0.962,2.149,2.149v10.424C352.4,273.455,351.438,274.418,350.251,274.418z"/>
</g>
<g>
	<g>
		<path fill="#1E243A" d="M67.505,279.623c-1.187,0-2.15-0.963-2.15-2.15v-3.727c0-1.188,0.964-2.149,2.15-2.149
			s2.149,0.962,2.149,2.149v3.727C69.654,278.66,68.691,279.623,67.505,279.623z"/>
	</g>
	<g>
		<path fill="#1E243A" d="M67.505,318.32c-1.187,0-2.15-0.963-2.15-2.15v-6.879c0-1.188,0.964-2.15,2.15-2.15
			s2.149,0.963,2.149,2.15v6.879C69.654,317.357,68.691,318.32,67.505,318.32z M67.505,298.828c-1.187,0-2.15-0.963-2.15-2.15
			v-6.879c0-1.188,0.964-2.15,2.15-2.15s2.149,0.963,2.149,2.15v6.879C69.654,297.865,68.691,298.828,67.505,298.828z"/>
	</g>
	<g>
		<path fill="#1E243A" d="M71.088,334.516h-3.583c-1.187,0-2.15-0.963-2.15-2.15v-3.583c0-1.187,0.964-2.149,2.15-2.149
			s2.149,0.963,2.149,2.149v1.434h1.434c1.188,0,2.149,0.962,2.149,2.149S72.275,334.516,71.088,334.516z"/>
	</g>
	<g>
		<path fill="#1E243A" d="M224.73,334.516h-6.881c-1.187,0-2.148-0.963-2.148-2.15s0.962-2.149,2.148-2.149h6.881
			c1.188,0,2.148,0.962,2.148,2.149S225.918,334.516,224.73,334.516z M205.525,334.516h-6.88c-1.188,0-2.15-0.963-2.15-2.15
			s0.962-2.149,2.15-2.149h6.88c1.186,0,2.148,0.962,2.148,2.149S206.711,334.516,205.525,334.516z M186.319,334.516h-6.88
			c-1.187,0-2.15-0.963-2.15-2.15s0.964-2.149,2.15-2.149h6.88c1.187,0,2.149,0.962,2.149,2.149S187.506,334.516,186.319,334.516z
			 M167.114,334.516h-6.88c-1.188,0-2.149-0.963-2.149-2.15s0.962-2.149,2.149-2.149h6.88c1.187,0,2.149,0.962,2.149,2.149
			S168.301,334.516,167.114,334.516z M147.908,334.516h-6.879c-1.188,0-2.15-0.963-2.15-2.15s0.963-2.149,2.15-2.149h6.879
			c1.188,0,2.15,0.962,2.15,2.149S149.097,334.516,147.908,334.516z M128.703,334.516h-6.879c-1.188,0-2.15-0.963-2.15-2.15
			s0.963-2.149,2.15-2.149h6.879c1.188,0,2.15,0.962,2.15,2.149S129.891,334.516,128.703,334.516z M109.498,334.516h-6.879
			c-1.188,0-2.15-0.963-2.15-2.15s0.963-2.149,2.15-2.149h6.879c1.188,0,2.15,0.962,2.15,2.149S110.686,334.516,109.498,334.516z
			 M90.293,334.516h-6.879c-1.188,0-2.15-0.963-2.15-2.15s0.963-2.149,2.15-2.149h6.879c1.188,0,2.15,0.962,2.15,2.149
			S91.48,334.516,90.293,334.516z"/>
	</g>
	<g>
		<path fill="#1E243A" d="M240.496,334.516h-3.727c-1.188,0-2.15-0.963-2.15-2.15s0.963-2.149,2.15-2.149h3.727
			c1.187,0,2.148,0.962,2.148,2.149S241.683,334.516,240.496,334.516z"/>
	</g>
</g>
<g>
	<path fill="#1E243A" d="M14.234,360.666c-1.434-0.671-2.053-2.377-1.383-3.81l0,0c0.668-1.436,2.377-2.056,3.811-1.384l0,0
		c1.433,0.67,2.052,2.376,1.384,3.809l0,0c-0.487,1.043-1.522,1.654-2.6,1.654l0,0C15.039,360.936,14.627,360.85,14.234,360.666z
		 M22.581,359.216c-0.711-1.413-0.142-3.136,1.272-3.847l0,0l0,0l0,0c1.413-0.714,3.139-0.144,3.85,1.272l0,0
		c0.711,1.413,0.141,3.136-1.273,3.847l0,0c-0.412,0.209-0.854,0.307-1.287,0.307l0,0C24.094,360.795,23.085,360.219,22.581,359.216
		z M6.537,351.213c-0.363-1.543,0.591-3.088,2.13-3.451l0,0c1.542-0.361,3.084,0.593,3.448,2.133l0,0l0,0l0,0
		c0.364,1.539-0.591,3.084-2.13,3.447l0,0c-0.224,0.053-0.444,0.078-0.662,0.078l0,0C8.025,353.42,6.847,352.531,6.537,351.213z
		 M30.467,353.044c-1.551-0.317-2.549-1.831-2.23-3.386l0,0c0.318-1.55,1.834-2.547,3.383-2.229l0,0
		c1.553,0.317,2.551,1.834,2.232,3.385l0,0c-0.278,1.355-1.473,2.29-2.807,2.29l0,0C30.856,353.104,30.662,353.084,30.467,353.044z
		 M9.647,343.336c-1.241-0.98-1.45-2.783-0.471-4.025l0,0c0.983-1.24,2.786-1.45,4.028-0.47l0,0c1.241,0.983,1.45,2.786,0.467,4.027
		l0,0c-0.564,0.716-1.402,1.089-2.248,1.089l0,0C10.8,343.957,10.172,343.754,9.647,343.336z M26.477,342.682
		c-1.021-1.213-0.863-3.018,0.35-4.035l0,0c1.213-1.021,3.021-0.863,4.039,0.35l0,0c1.018,1.212,0.859,3.021-0.353,4.038l0,0
		c-0.536,0.45-1.19,0.671-1.841,0.671l0,0C27.855,343.705,27.041,343.358,26.477,342.682z M17.283,336.865
		c0-1.582,1.284-2.866,2.867-2.866l0,0c1.582,0,2.865,1.284,2.865,2.866l0,0c0,1.586-1.283,2.867-2.865,2.867l0,0
		C18.567,339.732,17.283,338.451,17.283,336.865z"/>
</g>
<g>
	<g>
		<path fill="#1E243A" d="M354.438,19.063c-1.188,0-2.15-0.963-2.15-2.15V2.293c0-1.188,0.963-2.149,2.15-2.149
			s2.149,0.962,2.149,2.149v14.619C356.587,18.1,355.625,19.063,354.438,19.063z"/>
	</g>
	<g>
		<path fill="#1E243A" d="M361.746,11.753h-14.619c-1.187,0-2.149-0.963-2.149-2.15s0.963-2.149,2.149-2.149h14.619
			c1.188,0,2.15,0.962,2.15,2.149S362.934,11.753,361.746,11.753z"/>
	</g>
</g>
<g>
	<g>
		<path fill="#1E243A" d="M425.238,165.251c-1.188,0-2.149-0.962-2.149-2.149v-14.619c0-1.188,0.962-2.15,2.149-2.15
			s2.15,0.963,2.15,2.15v14.619C427.389,164.289,426.426,165.251,425.238,165.251z"/>
	</g>
	<g>
		<path fill="#1E243A" d="M432.548,157.941H417.93c-1.188,0-2.15-0.963-2.15-2.149c0-1.188,0.963-2.149,2.15-2.149h14.618
			c1.188,0,2.149,0.962,2.149,2.149C434.697,156.979,433.735,157.941,432.548,157.941z"/>
	</g>
</g>
<g>
	<g>
		<path fill="#1E243A" d="M140.6,307.428c-1.188,0-2.15-0.963-2.15-2.15v-14.619c0-1.188,0.963-2.149,2.15-2.149
			c1.187,0,2.15,0.962,2.15,2.149v14.619C142.75,306.465,141.786,307.428,140.6,307.428z"/>
	</g>
	<g>
		<path fill="#1E243A" d="M147.908,300.118H133.29c-1.188,0-2.149-0.962-2.149-2.149s0.962-2.15,2.149-2.15h14.618
			c1.188,0,2.15,0.963,2.15,2.15S149.097,300.118,147.908,300.118z"/>
	</g>
</g>
</svg>
