<?xml version="1.0" encoding="utf-8"?>
<!-- Generator: Adobe Illustrator 16.0.0, SVG Export Plug-In . SVG Version: 6.00 Build 0)  -->
<!DOCTYPE svg PUBLIC "-//W3C//DTD SVG 1.1//EN" "http://www.w3.org/Graphics/SVG/1.1/DTD/svg11.dtd">
<svg version="1.1" id="レイヤー_1" xmlns="http://www.w3.org/2000/svg" xmlns:xlink="http://www.w3.org/1999/xlink" x="0px"
	 y="0px" width="440.332px" height="195.348px" viewBox="2.067 0.494 440.332 195.348"
	 enable-background="new 2.067 0.494 440.332 195.348" xml:space="preserve">
<path fill-rule="evenodd" clip-rule="evenodd" fill="#0228CC" d="M351.872,0.494c-38.576-0.018-69.836,31.201-69.82,69.725
	c0.016,38.526,31.301,69.769,69.877,69.787c38.576,0.014,69.836-31.202,69.82-69.729C421.733,31.752,390.448,0.509,351.872,0.494z"
	/>
<g>
	<g>
		<g>
			<polygon fill-rule="evenodd" clip-rule="evenodd" fill="#0228CC" points="352.862,114.556 306.618,139.99 352.874,140.01 			"/>
		</g>
	</g>
</g>
<g>
	<rect x="261.649" y="89.45" fill="#F1F3F4" width="180.5" height="40.5"/>
	<path fill="#C8C8C8" d="M441.899,89.7v40h-180v-40H441.899 M442.399,89.2h-0.5h-180h-0.5v0.5v40v0.5h0.5h180h0.5v-0.5v-40V89.2
		L442.399,89.2z"/>
</g>
<g>
	<rect x="262.149" y="89.95" fill="#F1F3F4" width="179.5" height="39.5"/>
	<path fill="#FFFFFF" d="M441.399,90.2v39h-179v-39H441.399 M441.899,89.7h-180v40h180V89.7L441.899,89.7z"/>
</g>
<g>
	<g>
		<g>
			<path fill-rule="evenodd" clip-rule="evenodd" fill="#0228CC" d="M162.415,70.219c0.016-38.523-31.244-69.742-69.82-69.725
				C54.019,0.509,22.733,31.752,22.718,70.277c-0.016,38.211,30.737,69.212,68.875,69.706v0.027l46.256-0.02l-13.719-7.546
				C146.832,120.916,162.404,97.388,162.415,70.219z"/>
		</g>
	</g>
</g>
<g>
	<rect x="2.317" y="89.45" fill="#F1F3F4" width="180.5" height="40.5"/>
	<path fill="#C8C8C8" d="M182.567,89.7v40h-180v-40H182.567 M183.067,89.2h-0.5h-180h-0.5v0.5v40v0.5h0.5h180h0.5v-0.5v-40V89.2
		L183.067,89.2z"/>
</g>
<g>
	<rect x="2.817" y="89.95" fill="#F1F3F4" width="179.5" height="39.5"/>
	<path fill="#FFFFFF" d="M182.067,90.2v39h-179v-39H182.067 M182.567,89.7h-180v40h180V89.7L182.567,89.7z"/>
</g>
<g>
	<g>
		<path fill="#FFFFFF" d="M54.947,32.951l-0.812,1.247c-0.743-0.532-2.228-1.485-3.124-1.961l0.798-1.205
			C52.692,31.508,54.289,32.489,54.947,32.951z M56.362,36.242c2.339-1.331,4.23-3.208,5.365-5.197l0.84,1.485
			c-1.247,1.905-3.193,3.698-5.463,5.015c-1.415,0.827-3.375,1.499-4.65,1.737l-0.826-1.442
			C53.182,37.573,54.891,37.055,56.362,36.242z M57.048,29.855l-0.827,1.205c-0.714-0.519-2.213-1.513-3.082-2.003l0.798-1.205
			C54.807,28.343,56.39,29.379,57.048,29.855z"/>
		<path fill="#FFFFFF" d="M70.518,39.66c0.014-0.126,0.014-0.35,0.014-0.56h-5.491c-0.42,0-0.938,0.027-1.177,0.027v-1.372
			c0.238,0.028,0.687,0.056,1.177,0.056h5.491v-2.213h-4.791c-0.518,0-1.078,0-1.387,0.028v-1.331
			c0.322,0.014,0.869,0.042,1.373,0.042h4.805v-2.059h-4.945c-0.434,0-1.275,0.028-1.555,0.056v-1.358
			c0.308,0.042,1.121,0.056,1.555,0.056h5.365c0.322,0,0.756-0.014,0.953-0.014c-0.014,0.168-0.014,0.532-0.014,0.813v6.99
			c0,0.224,0.014,0.616,0.028,0.84H70.518z"/>
		<path fill="#FFFFFF" d="M76.577,34.491l-1.331,0.49c-0.238-0.742-0.967-2.647-1.275-3.193l1.317-0.477
			C75.611,31.956,76.311,33.735,76.577,34.491z M83.665,31.48c-0.126,0.35-0.21,0.602-0.266,0.84
			c-0.378,1.485-0.98,2.969-1.961,4.216c-1.289,1.653-3.026,2.773-4.609,3.39l-1.163-1.19c1.583-0.448,3.432-1.513,4.595-2.956
			c0.966-1.205,1.667-3.026,1.863-4.791L83.665,31.48z M79.673,33.623l-1.317,0.476c-0.168-0.658-0.798-2.409-1.121-3.082
			l1.317-0.434C78.804,31.172,79.491,33.007,79.673,33.623z"/>
		<path fill="#FFFFFF" d="M87.833,32.363c1.653-0.406,3.754-1.064,5.112-1.639c0.448-0.182,0.883-0.392,1.331-0.672
			c-0.28-0.294-0.462-0.686-0.462-1.134c0-0.883,0.729-1.611,1.61-1.611c0.896,0,1.625,0.728,1.625,1.611
			c0,0.896-0.729,1.611-1.625,1.611c-0.42,0-0.798-0.168-1.093-0.435l0.589,1.359c-0.462,0.182-1.022,0.434-1.471,0.588
			c-1.499,0.603-3.852,1.317-5.617,1.779v2.858c0,0.672,0.294,0.84,0.953,0.98c0.42,0.07,1.079,0.098,1.751,0.098
			c1.471,0,3.669-0.154,4.819-0.462v1.611c-1.261,0.182-3.362,0.28-4.903,0.28c-0.868,0-1.708-0.042-2.297-0.141
			c-1.135-0.21-1.779-0.77-1.779-1.947v-7.676c0-0.322-0.028-0.896-0.098-1.26h1.639c-0.056,0.364-0.084,0.868-0.084,1.26V32.363z
			 M96.307,28.917c0-0.477-0.393-0.883-0.883-0.883c-0.476,0-0.868,0.406-0.868,0.883c0,0.476,0.393,0.868,0.868,0.868
			C95.915,29.785,96.307,29.393,96.307,28.917z"/>
		<path fill="#FFFFFF" d="M103.781,35.738c2.255-1.387,4.006-3.488,4.86-5.281l0.854,1.527c-1.009,1.807-2.731,3.726-4.917,5.071
			c-1.414,0.869-3.193,1.695-5.364,2.087l-0.938-1.443C100.615,37.349,102.436,36.565,103.781,35.738z M103.304,31.256l-1.106,1.135
			c-0.729-0.742-2.466-2.255-3.502-2.97l1.022-1.092C100.713,28.987,102.52,30.444,103.304,31.256z"/>
		<path fill="#FFFFFF" d="M119.098,29.799c0.392,0,0.784-0.042,1.05-0.14l1.149,0.7c-0.141,0.225-0.295,0.575-0.393,0.854
			c-0.378,1.345-1.205,3.222-2.466,4.763c-1.288,1.583-2.983,2.872-5.603,3.866l-1.303-1.163c2.703-0.798,4.37-2.045,5.617-3.488
			c1.036-1.205,1.877-2.956,2.129-4.132h-4.385c-0.882,1.205-2.087,2.437-3.544,3.418l-1.232-0.911
			c2.438-1.471,3.74-3.404,4.398-4.637c0.168-0.294,0.406-0.854,0.519-1.261l1.625,0.533c-0.28,0.42-0.574,0.952-0.729,1.232
			c-0.07,0.126-0.126,0.238-0.21,0.364H119.098z M120.218,27.446c0.351,0.504,0.854,1.373,1.135,1.919l-0.925,0.392
			c-0.28-0.561-0.729-1.401-1.106-1.933L120.218,27.446z M121.801,26.844c0.378,0.518,0.91,1.401,1.162,1.905l-0.91,0.406
			c-0.294-0.602-0.756-1.4-1.148-1.933L121.801,26.844z"/>
		<path fill="#FFFFFF" d="M124.26,29.323c1.009-0.098,3.487-0.336,6.037-0.546c1.471-0.126,2.871-0.21,3.81-0.238l0.015,1.415
			c-0.771,0-1.976,0.014-2.704,0.196c-1.835,0.561-3.054,2.521-3.054,4.16c0,2.536,2.354,3.362,4.637,3.474l-0.504,1.485
			c-2.718-0.141-5.562-1.597-5.562-4.65c0-2.102,1.219-3.782,2.34-4.497c-1.205,0.126-4.608,0.462-6.163,0.798l-0.141-1.527
			C123.503,29.379,123.98,29.351,124.26,29.323z M133.309,33.413l-0.868,0.393c-0.337-0.714-0.701-1.359-1.121-1.961l0.841-0.364
			C132.497,31.97,133.015,32.825,133.309,33.413z M134.906,32.769l-0.854,0.42c-0.364-0.714-0.729-1.331-1.177-1.933l0.841-0.378
			C134.051,31.354,134.597,32.195,134.906,32.769z"/>
		<path fill="#FFFFFF" d="M40.12,50.737c-0.477,1.205-1.261,2.409-2.059,3.193c-0.224-0.21-0.729-0.588-1.009-0.784
			c0.771-0.672,1.457-1.694,1.849-2.718L40.12,50.737z M42.824,53.02c-0.252,0.883-0.575,1.695-0.939,2.451
			c0.645,0.589,1.219,1.177,1.597,1.667l-0.84,1.064c-0.322-0.462-0.827-1.022-1.415-1.61c-0.854,1.345-1.947,2.423-3.25,3.249
			c-0.168-0.266-0.63-0.798-0.896-1.036c1.331-0.729,2.409-1.779,3.208-3.096c-0.574-0.532-1.19-1.036-1.765-1.484l0.757-0.896
			c0.518,0.378,1.064,0.813,1.611,1.274c0.266-0.589,0.476-1.19,0.658-1.849L42.824,53.02z M44.14,50.023h-6.766v-1.177h2.802
			v-1.779h1.274v1.779h2.689V50.023z M43.174,53.482c-0.266-0.728-0.967-1.862-1.625-2.675l1.022-0.505
			c0.687,0.785,1.401,1.85,1.681,2.592L43.174,53.482z M49.743,50.149c0,0,0,0.448-0.014,0.616
			c-0.126,5.785-0.238,7.773-0.686,8.376c-0.28,0.421-0.561,0.532-1.009,0.589c-0.42,0.069-1.106,0.056-1.779,0.027
			c-0.028-0.35-0.168-0.868-0.364-1.219c0.687,0.057,1.289,0.07,1.555,0.07c0.238,0,0.378-0.042,0.504-0.238
			c0.308-0.378,0.448-2.157,0.561-6.976H46.76c-0.182,3.586-0.785,6.611-2.956,8.517c-0.21-0.294-0.63-0.729-0.953-0.924
			c1.989-1.682,2.535-4.371,2.675-7.593H44v-1.246h1.569c0.028-0.953,0.028-1.947,0.028-2.97h1.247c0,1.022-0.014,2.003-0.042,2.97
			H49.743z"/>
		<path fill="#FFFFFF" d="M54.61,54.071c-0.911,0.435-1.849,0.868-2.62,1.219l-0.63-1.064c0.883-0.295,2.213-0.827,3.502-1.359
			l0.238,0.98l-0.238,0.112l0.883-0.042c0.308-0.294,0.644-0.63,0.98-0.98c-0.546-0.477-1.331-1.051-1.975-1.471l0.63-0.729
			c0.126,0.07,0.238,0.14,0.378,0.225c0.294-0.406,0.603-0.883,0.84-1.289h-4.706v-1.19h5.057v-1.471h1.345v1.471h5.197v1.19h-5.897
			l0.294,0.112c-0.435,0.574-0.938,1.19-1.359,1.681c0.322,0.224,0.645,0.462,0.911,0.672c0.518-0.602,1.008-1.204,1.373-1.736
			l1.037,0.476c-0.827,0.967-1.835,2.073-2.788,2.984l1.975-0.099c-0.21-0.322-0.448-0.645-0.672-0.924l0.938-0.406
			c0.238,0.294,0.504,0.616,0.743,0.952l0.798-0.645c1.037,0.505,2.381,1.289,3.082,1.85l-0.966,0.813
			c-0.588-0.533-1.793-1.303-2.802-1.836c0.35,0.49,0.645,0.995,0.798,1.387l-0.994,0.491c-0.084-0.225-0.21-0.477-0.364-0.757
			c-1.737,0.14-3.46,0.266-4.805,0.364L54.61,54.071z M58.294,56.004h5.603v1.205h-5.603v2.676H56.95v-2.676h-5.491v-1.205h5.491
			v-1.008h1.345V56.004z M52.677,50.135c0.756,0.393,1.723,1.022,2.199,1.471l-0.911,0.785c-0.448-0.448-1.401-1.107-2.143-1.556
			L52.677,50.135z M60.228,51.731c0.658-0.462,1.541-1.218,2.031-1.765l1.163,0.574c-0.7,0.645-1.569,1.289-2.241,1.709
			L60.228,51.731z"/>
		<path fill="#FFFFFF" d="M75.083,58.693c-0.854-0.854-2.017-1.709-3.362-2.255c0.014,0.294,0.014,0.546,0.014,0.742
			c0,1.177-0.672,2.241-2.731,2.241c-1.933,0-3.446-0.63-3.446-2.339c0-1.345,1.163-2.424,3.614-2.424
			c0.35,0,0.686,0.028,1.022,0.057c-0.042-1.093-0.098-2.325-0.098-3.11c0-0.826-0.014-1.82-0.014-2.409
			c-0.014-0.588-0.056-1.19-0.126-1.484h1.667c-0.056,0.336-0.098,1.009-0.126,1.484c-0.014,0.351,0,0.771,0,1.219
			c1.106-0.014,2.801-0.084,4.006-0.224l0.056,1.316c-1.219,0.112-2.941,0.182-4.062,0.21c0,0.883,0.084,2.157,0.14,3.292
			c1.793,0.504,3.306,1.471,4.286,2.367L75.083,58.693z M70.25,56.018c-0.406-0.084-0.826-0.126-1.26-0.126
			c-1.275,0-2.017,0.434-2.017,1.12c0,0.729,0.742,1.079,1.905,1.079c0.967,0,1.387-0.435,1.387-1.373
			C70.264,56.536,70.264,56.299,70.25,56.018z"/>
		<path fill="#FFFFFF" d="M84.966,48.566c-0.351,0.266-0.785,0.645-1.065,0.854c-0.924,0.784-2.843,2.297-3.824,3.123
			c-0.799,0.687-0.799,0.869,0.028,1.569c1.163,0.967,3.782,3.082,5.141,4.426l-1.261,1.163c-0.336-0.393-0.728-0.771-1.064-1.135
			c-0.756-0.813-2.998-2.703-4.272-3.782c-1.345-1.12-1.205-1.807,0.098-2.899c1.065-0.896,3.082-2.493,4.021-3.432
			c0.322-0.336,0.728-0.742,0.91-1.036L84.966,48.566z"/>
		<path fill="#FFFFFF" d="M91.137,53.678c-0.616,1.219-1.905,3.025-2.689,3.866l-1.205-0.826c0.924-0.869,2.087-2.479,2.647-3.643
			L91.137,53.678z M94.205,51.592v6.668c0,0.756-0.393,1.19-1.303,1.19c-0.673,0-1.499-0.028-2.129-0.099l-0.126-1.387
			c0.602,0.112,1.232,0.154,1.597,0.154s0.518-0.14,0.533-0.519v-6.009h-3.74c-0.435,0-0.883,0.014-1.261,0.042v-1.471
			c0.392,0.042,0.813,0.084,1.247,0.084h3.754v-1.303c0-0.322-0.057-0.868-0.112-1.093h1.652c-0.042,0.196-0.111,0.784-0.111,1.106
			v1.289h3.516c0.364,0,0.883-0.028,1.247-0.084v1.457c-0.406-0.028-0.883-0.028-1.233-0.028H94.205z M97.062,53.062
			c0.742,0.896,1.849,2.661,2.409,3.67l-1.289,0.729c-0.574-1.148-1.61-2.871-2.325-3.74L97.062,53.062z M96.473,48.342
			c0-0.868,0.701-1.568,1.569-1.568s1.583,0.7,1.583,1.568c0,0.869-0.715,1.569-1.583,1.569S96.473,49.211,96.473,48.342z
			 M97.216,48.342c0,0.477,0.364,0.841,0.826,0.841s0.841-0.364,0.841-0.841c0-0.462-0.379-0.84-0.841-0.84
			S97.216,47.88,97.216,48.342z"/>
		<path fill="#FFFFFF" d="M107.954,57.629c0,0.574,0.028,1.345,0.098,1.653h-1.736c0.042-0.309,0.084-1.079,0.084-1.653v-4.986
			c-1.471,0.784-3.334,1.568-5.071,2.059l-0.798-1.358c2.396-0.546,4.763-1.583,6.317-2.55c1.415-0.882,2.871-2.129,3.656-3.138
			l1.19,1.079c-1.009,1.009-2.325,2.101-3.74,3.012V57.629z"/>
		<path fill="#FFFFFF" d="M118.873,55.738c2.255-1.387,4.006-3.488,4.86-5.281l0.854,1.527c-1.009,1.807-2.731,3.726-4.917,5.07
			c-1.414,0.868-3.193,1.695-5.364,2.087l-0.938-1.442C115.707,57.348,117.528,56.564,118.873,55.738z M118.396,51.256l-1.106,1.135
			c-0.729-0.743-2.466-2.256-3.502-2.97l1.022-1.093C115.805,48.986,117.612,50.443,118.396,51.256z"/>
		<path fill="#FFFFFF" d="M134.05,55.332c-1.484-0.799-3.754-1.681-5.295-2.186v4.328c0,0.435,0.042,1.289,0.112,1.793h-1.723
			c0.069-0.49,0.111-1.246,0.111-1.793v-8.096c0-0.448-0.042-1.093-0.126-1.569h1.724c-0.042,0.463-0.099,1.079-0.099,1.569v2.185
			c1.85,0.561,4.524,1.555,5.926,2.241L134.05,55.332z"/>
		<path fill="#FFFFFF" d="M142.518,56.816c0.042-0.476,0.057-1.261,0.057-1.947c-1.177,0.659-1.919,1.289-1.919,2.102
			c0,0.952,0.896,1.135,2.297,1.135c1.12,0,2.634-0.141,3.853-0.364l-0.043,1.415c-1.008,0.126-2.604,0.237-3.852,0.237
			c-2.073,0-3.684-0.476-3.684-2.198c0-1.709,1.666-2.788,3.264-3.601c-0.168-0.49-0.617-0.687-1.121-0.687
			c-0.868,0-1.709,0.448-2.297,0.995c-0.406,0.392-0.813,0.896-1.275,1.484l-1.19-0.896c1.625-1.541,2.563-2.886,3.138-4.048h-0.406
			c-0.574,0-1.541-0.028-2.311-0.084v-1.303c0.728,0.098,1.723,0.154,2.381,0.154c0.267,0,0.532,0,0.813,0
			c0.182-0.631,0.294-1.233,0.322-1.667l1.442,0.111c-0.084,0.364-0.196,0.896-0.392,1.499c1.372-0.056,2.829-0.182,4.104-0.406
			v1.289c-1.358,0.21-3.067,0.322-4.566,0.378c-0.28,0.616-0.645,1.261-1.051,1.807c0.435-0.252,1.219-0.405,1.766-0.405
			c0.868,0,1.583,0.405,1.849,1.176c0.854-0.406,1.569-0.7,2.228-0.994c0.462-0.21,0.868-0.393,1.316-0.616l0.547,1.288
			c-0.379,0.112-0.98,0.337-1.401,0.505c-0.714,0.266-1.61,0.645-2.577,1.093c0.014,0.784,0.042,1.891,0.056,2.549H142.518z"/>
		<path fill="#FFFFFF" d="M68.582,76.873c-0.392,1.134-1.079,2.283-1.779,3.012c-0.238-0.211-0.743-0.575-1.037-0.743
			c0.7-0.63,1.274-1.597,1.597-2.577L68.582,76.873z M71.188,76.354h-4.651v-8.811h4.651V76.354z M69.927,68.608h-2.185v1.541h2.185
			V68.608z M69.927,71.157h-2.185v1.569h2.185V71.157z M69.927,73.707h-2.185v1.597h2.185V73.707z M70.263,76.536
			c0.561,0.687,1.121,1.611,1.387,2.228l-1.079,0.546c-0.252-0.63-0.812-1.597-1.345-2.311L70.263,76.536z M78.737,73.259H75.81
			v5.169c0,0.672-0.14,1.008-0.603,1.219c-0.476,0.182-1.177,0.195-2.185,0.195c-0.042-0.35-0.238-0.854-0.406-1.204
			c0.714,0.028,1.415,0.028,1.639,0.014c0.21-0.014,0.266-0.069,0.266-0.252v-5.141h-2.983v-1.205h7.2V73.259z M72.826,71.185
			h-1.163V68.65h2.802v-1.639h1.289v1.639h2.83v2.535h-1.205v-1.429h-4.553V71.185z"/>
		<path fill="#FFFFFF" d="M88.983,67.908c-0.098,0.35-0.21,0.91-0.28,1.219c-0.056,0.237-0.112,0.49-0.182,0.742
			c2.199,0.434,3.698,2.171,3.698,4.566c0,2.844-2.031,4.538-4.958,4.958l-0.841-1.26c2.956-0.267,4.385-1.793,4.385-3.755
			c0-1.694-0.995-2.955-2.605-3.291c-0.504,1.694-1.163,3.403-1.961,4.58c0.252,0.336,0.533,0.645,0.813,0.91l-1.106,0.896
			c-0.196-0.224-0.392-0.448-0.574-0.686c-0.883,1.022-1.709,1.61-2.731,1.61c-1.107,0-2.059-0.91-2.059-2.619
			c0-1.583,0.84-3.264,2.101-4.328c-0.154-0.406-0.28-0.813-0.406-1.205c-0.14-0.477-0.294-0.91-0.504-1.345l1.457-0.448
			c0.084,0.406,0.196,0.868,0.294,1.274c0.084,0.295,0.182,0.631,0.294,0.967c1.12-0.616,2.227-0.896,3.375-0.925
			c0.07-0.294,0.14-0.574,0.182-0.84c0.056-0.337,0.098-0.854,0.084-1.177L88.983,67.908z M84.417,75.429
			c-0.42-0.658-0.869-1.639-1.275-2.703c-0.798,0.826-1.274,1.975-1.274,2.955c0,0.813,0.336,1.317,0.911,1.317
			c0.602,0,1.232-0.561,1.807-1.303L84.417,75.429z M85.412,74.477c0.56-0.967,1.079-2.228,1.457-3.474
			c-0.994,0.069-1.863,0.392-2.647,0.882c0.336,0.938,0.729,1.835,1.065,2.382L85.412,74.477z"/>
		<path fill="#FFFFFF" d="M101.345,70.625c-0.868,0.196-1.835,0.351-2.787,0.463c-0.127,0.602-0.28,1.219-0.435,1.807
			c-0.504,1.961-1.429,4.818-2.186,6.388l-1.541-0.519c0.841-1.415,1.836-4.272,2.354-6.22c0.126-0.42,0.238-0.882,0.336-1.33
			c-0.392,0.014-0.756,0.027-1.106,0.027c-0.644,0-1.148-0.027-1.652-0.056l-0.028-1.373c0.673,0.084,1.163,0.112,1.695,0.112
			c0.434,0,0.896-0.014,1.387-0.056c0.069-0.406,0.14-0.771,0.168-1.022c0.056-0.448,0.07-0.953,0.042-1.261l1.694,0.126
			c-0.098,0.35-0.21,0.91-0.266,1.19l-0.168,0.813c0.84-0.112,1.694-0.28,2.493-0.477V70.625z M100.911,75.345
			c-0.111,0.435-0.195,0.868-0.195,1.205c0,0.63,0.336,1.19,2.101,1.19c0.91,0,1.863-0.112,2.773-0.28l-0.042,1.415
			c-0.771,0.112-1.695,0.196-2.745,0.196c-2.256,0-3.418-0.743-3.418-2.115c0-0.574,0.098-1.163,0.21-1.737L100.911,75.345z
			 M100.365,71.927c0.742-0.084,1.694-0.14,2.591-0.14c0.799,0,1.64,0.042,2.424,0.126l-0.042,1.331
			c-0.7-0.085-1.527-0.169-2.354-0.169c-0.91,0-1.765,0.042-2.619,0.141V71.927z"/>
		<path fill="#FFFFFF" d="M109.617,70.415c-0.015,0.868,0,2.045,0.098,3.124c0.21,2.185,0.771,3.642,1.695,3.642
			c0.7,0,1.303-1.513,1.61-2.787l1.121,1.303c-0.883,2.381-1.737,3.207-2.76,3.207c-1.4,0-2.689-1.345-3.067-5
			c-0.141-1.219-0.154-2.872-0.154-3.712c0-0.351-0.014-0.925-0.098-1.303l1.694,0.027
			C109.686,69.322,109.617,70.037,109.617,70.415z M119.337,76.186l-1.442,0.56c-0.225-2.381-1.022-5.364-2.424-7.018l1.387-0.462
			C118.133,70.877,119.156,73.93,119.337,76.186z"/>
	</g>
</g>
<g>
	<g>
		<g>
			<g>
				<path fill="#FFD655" d="M218,47.175c-0.029-1.211-0.277-4.424-2.016-6.189c-0.271-0.277-0.576-0.563-0.9-0.863
					c-2.131-1.988-5.047-4.711-5.021-10.748c0.018-4.072,1.436-7.479,4.102-9.854c1.193-1.064,2.598-1.887,4.174-2.445
					c1.525-0.539,3.139-0.811,4.797-0.803c1.658,0.006,3.27,0.291,4.789,0.844c1.572,0.572,2.971,1.406,4.156,2.48
					c2.645,2.396,4.033,5.816,4.016,9.889c-0.025,6.035-2.965,8.734-5.113,10.703c-0.324,0.301-0.635,0.584-0.908,0.857
					c-1.752,1.75-2.027,4.961-2.066,6.172L218,47.175z"/>
				<path fill="#FFEB57" d="M223.133,16.734c1.605,0.008,3.164,0.281,4.635,0.816c1.516,0.553,2.861,1.355,4.002,2.389
					c2.545,2.307,3.881,5.605,3.865,9.545c-0.025,5.834-2.879,8.453-4.965,10.367c-0.328,0.301-0.641,0.586-0.922,0.867
					c-0.979,0.979-1.646,2.461-1.986,4.41c-0.107,0.619-0.164,1.184-0.193,1.627l-9.125-0.039c-0.025-0.443-0.078-1.01-0.18-1.629
					c-0.322-1.951-0.979-3.441-1.951-4.426c-0.277-0.283-0.586-0.57-0.914-0.877c-2.068-1.93-4.9-4.574-4.875-10.408
					c0.018-3.939,1.381-7.227,3.947-9.51c1.148-1.025,2.502-1.816,4.021-2.355C219.967,16.988,221.527,16.728,223.133,16.734
					 M223.137,15.812c-6.739-0.029-13.499,4.48-13.538,13.561c-0.029,7.182,4.043,9.893,6.057,11.936
					c2.012,2.045,1.883,6.328,1.883,6.328l10.924,0.047c0,0-0.092-4.285,1.939-6.311c2.029-2.027,6.125-4.703,6.156-11.885
					C236.598,20.406,229.877,15.839,223.137,15.812L223.137,15.812z"/>
			</g>
			<g>
				<polygon fill="#FFB839" points="222.204,40.275 221.014,40.929 215.365,29.263 				"/>
				<polygon fill="#FFB839" points="223.864,40.281 225.047,40.945 230.795,29.329 				"/>
			</g>
			<g>
				<path fill="#FFB839" d="M225.829,51.255l-5.684-0.025l0.85-10.811c0.072-0.92,0.969-1.865,2.047-1.859l0,0
					c1.078,0.004,1.965,0.955,2.029,1.877L225.829,51.255z"/>
				<path opacity="0.7" fill="#FF933B" d="M224.659,51.249l-3.344-0.014l0.518-10.564c0.043-0.732,0.571-1.24,1.206-1.236l0,0
					c0.633,0.002,1.156,0.516,1.193,1.246L224.659,51.249z"/>
			</g>
			<path opacity="0.1" fill="#333333" d="M228.762,44.82l-11.497-0.049c0.314,1.533,0.273,2.865,0.273,2.865l10.924,0.047
				C228.463,47.683,228.436,46.349,228.762,44.82z"/>
			
				<ellipse transform="matrix(0.603 -0.7977 0.7977 0.603 71.7649 191.0334)" opacity="0.25" fill="#FFFFFF" cx="227.817" cy="23.413" rx="3.741" ry="6.306"/>
			<path fill="#FFEE99" d="M229.512,29.4l-0.361,0.424c-0.215,0.25-0.426,0.502-0.637,0.752c-0.191-0.268-0.385-0.537-0.58-0.805
				l-0.65-0.898l-0.119-0.164l-0.133,0.162l-0.699,0.861c-0.18,0.221-0.359,0.441-0.535,0.662l-0.514-0.686
				c-0.221-0.295-0.443-0.592-0.668-0.889l-0.174-0.227l-0.178,0.227l-0.688,0.871l-0.502,0.641l-0.496-0.645l-0.68-0.877
				l-0.176-0.227l-0.176,0.225c-0.227,0.291-0.449,0.588-0.676,0.883l-0.518,0.682c-0.176-0.223-0.354-0.445-0.531-0.668
				l-0.691-0.867L219,28.675l-0.119,0.162l-0.66,0.895c-0.197,0.264-0.393,0.531-0.586,0.797l-0.273-0.332l-0.357-0.426
				l-0.355-0.426l-0.359-0.422l0.314,0.457l0.32,0.455l0.318,0.453l0.322,0.453l0.07,0.096l0.078-0.096
				c0.238-0.283,0.477-0.566,0.711-0.854l0.574-0.697l0.541,0.734c0.219,0.295,0.436,0.596,0.66,0.891l0.152,0.203l0.16-0.201
				l0.695-0.867c0.17-0.215,0.34-0.428,0.512-0.641l0.499,0.656l0.674,0.881l0.182,0.236l0.184-0.234l0.682-0.877l0.502-0.65
				c0.168,0.215,0.338,0.428,0.508,0.645l0.686,0.873l0.16,0.203l0.154-0.201c0.225-0.293,0.445-0.59,0.668-0.887l0.547-0.729
				l0.568,0.701c0.23,0.289,0.467,0.574,0.703,0.861l0.078,0.096l0.07-0.096c0.219-0.299,0.436-0.6,0.65-0.9l0.322-0.451l0.32-0.457
				L229.512,29.4z"/>
		</g>
		<g>
			<g>
				<path fill="#D0D3D8" d="M220.525,58.626c-0.004,0.664,1.125,1.205,2.52,1.213c1.395,0.006,2.527-0.529,2.529-1.191
					L220.525,58.626z"/>
				<path fill="#A3A5AA" d="M218.346,57.107L218.346,57.107c-0.006,0.953,0.764,1.729,1.717,1.732l5.973,0.025
					c0.953,0.004,1.729-0.764,1.732-1.717L218.346,57.107z"/>
				<path fill="#D0D3D8" d="M216.67,54.238l-0.006,1.805c-0.004,0.855,0.688,1.555,1.545,1.559l9.69,0.039
					c0.857,0.006,1.557-0.686,1.559-1.545l0.01-1.803L216.67,54.238z"/>
				<g>
					<rect x="216.67" y="54.265" fill="#A3A5AA" width="12.796" height="0.254"/>
					<g>
						<path fill="#D0D3D8" d="M216.766,56.603c0.223,0.582,0.783,0.994,1.443,0.998l9.688,0.039L216.766,56.603z"/>
						<path fill="#A3A5AA" d="M216.666,55.368l-0.002,0.674c-0.002,0.197,0.035,0.385,0.102,0.561l11.131,1.037h0.002
							c0.857,0.006,1.557-0.686,1.559-1.545l0.004-0.672L216.666,55.368z"/>
					</g>
					<path fill="#D0D3D8" d="M216.67,54.491l-0.006,1.225l12.573,1.174c0.141-0.232,0.221-0.504,0.221-0.795l0.008-1.549
						L216.67,54.491z"/>
				</g>
				<polygon fill="#A3A5AA" points="216.672,53.937 216.668,54.931 229.458,56.124 229.467,53.991 				"/>
				<polygon fill="#D0D3D8" points="216.67,54.238 229.461,55.431 229.473,53.068 216.676,53.015 				"/>
				<polygon fill="#A3A5AA" points="216.674,53.591 229.465,54.784 229.473,52.652 216.678,52.599 				"/>
				<polygon fill="#D0D3D8" points="216.678,52.898 229.467,54.091 229.477,51.728 216.682,51.673 				"/>
				<polygon fill="#A3A5AA" points="216.68,52.343 229.469,53.538 229.479,51.406 216.684,51.349 				"/>
				<polygon fill="#D0D3D8" points="216.682,51.65 229.473,52.843 229.483,50.482 216.688,50.427 				"/>
				<polygon fill="#A3A5AA" points="216.686,51.003 229.475,52.198 229.485,50.066 216.689,50.011 				"/>
				<polygon fill="#D0D3D8" points="216.688,50.312 229.479,51.505 229.489,49.142 216.693,49.087 				"/>
				<polygon fill="#A3A5AA" points="216.691,49.663 229.481,50.857 229.491,48.726 216.695,48.671 				"/>
				<polygon fill="#D0D3D8" points="216.693,48.972 229.483,50.163 229.495,47.802 216.699,47.747 				"/>
				<polygon fill="#A3A5AA" points="216.697,48.279 229.487,49.472 229.495,47.802 216.699,47.747 				"/>
				<polygon fill="#D0D3D8" points="216.699,47.448 229.491,48.642 229.495,47.433 216.699,47.378 				"/>
			</g>
			
				<rect x="216.682" y="45.812" transform="matrix(1 0.0043 -0.0043 1 0.2017 -0.953)" fill="#D0D3D8" width="12.796" height="1.801"/>
			<path fill="#989CA0" d="M230.331,47.966l-14.504-0.063c-0.27,0-0.484-0.219-0.484-0.484l0,0c0.002-0.27,0.219-0.484,0.486-0.484
				l14.506,0.063c0.268,0,0.484,0.219,0.482,0.486l0,0C230.815,47.751,230.598,47.968,230.331,47.966z"/>
		</g>
	</g>
	<g>
		<path fill="#01A2A5" d="M185.514,151.647c-1.438,3.404-1.908,5.074-0.992,8.139c7.518,0,15.041,0,22.568,0
			c-3.688-10.994-7.367-21.992-11.055-32.967C192.531,135.094,189.023,143.369,185.514,151.647z"/>
		<path fill="#01A2A5" d="M260.227,151.647c-3.506-8.277-7.018-16.553-10.521-24.828c-3.684,10.975-7.365,21.973-11.051,32.967
			c7.527,0,15.047,0,22.574,0C262.139,156.721,261.668,155.051,260.227,151.647z"/>
	</g>
	<path fill-rule="evenodd" clip-rule="evenodd" fill="#EBEBEB" d="M158.275,159.785h122.479c0.193,0,0.355,0.281,0.355,0.635v4.033
		c0,0.348-0.162,0.629-0.355,0.629H158.275c-0.205,0-0.361-0.281-0.361-0.629v-4.033
		C157.914,160.067,158.07,159.785,158.275,159.785L158.275,159.785z"/>
	<g>
		<rect x="160.871" y="165.082" fill="#EBEBEB" width="2.791" height="27.555"/>
		<rect x="275.973" y="169.248" fill="#EBEBEB" width="2.693" height="26.594"/>
	</g>
	<rect x="163.662" y="165.082" fill-rule="evenodd" clip-rule="evenodd" fill="#EBEBEB" width="111.692" height="13.768"/>
	<rect x="275.973" y="169.248" fill="#EBEBEB" width="2.693" height="2.436"/>
	<rect x="163.662" y="165.082" fill-rule="evenodd" clip-rule="evenodd" fill="#D8D9D9" width="111.692" height="2.525"/>
	<rect x="274.127" y="169.248" fill-rule="evenodd" clip-rule="evenodd" fill="#C3C4C4" width="1.846" height="13.287"/>
	<path fill-rule="evenodd" clip-rule="evenodd" fill="#592E25" d="M206.895,83.41c0,0,3.506,21.396-3.805,34.773l9.297,1.775
		l8.451-1.264l2.032-11.379l2.037,11.379l8.451,1.264l9.297-1.775c-7.314-13.377-3.805-34.773-3.805-34.773l-14.572-6.174
		l-1.408,29.85l-1.403-29.85L206.895,83.41z"/>
	<path fill-rule="evenodd" clip-rule="evenodd" fill="#4D2219" d="M221.363,115.719l1.506-8.402l1.512,8.402h11.469
		c0,0-3.754-12.432-2.506-24.852l-9.715,0.262l-0.76,15.957l-0.754-15.904l-11.01,0.301c0,0,2.508,10.66-1.264,24.236H221.363z"/>
	<path fill-rule="evenodd" clip-rule="evenodd" fill="#FEB67C" d="M222.87,137.602c8.613,0,17.225,0,25.854,0
		c-0.369-4.895,1.121-22.293-5.176-23.604c-3.924-0.824-7.838-1.631-11.768-2.455c-4.838-1.02-3.469-16.799-3.225-20.838
		c-2.545,2.158-3.123,4.529-5.686,6.686c-2.557-2.156-3.137-4.527-5.696-6.686c0.26,4.039,1.629,19.818-3.213,20.838
		c-3.93,0.824-7.836,1.631-11.768,2.455c-6.295,1.311-4.805,18.709-5.174,23.604C205.631,137.602,214.26,137.602,222.87,137.602
		L222.87,137.602z"/>
	<path fill-rule="evenodd" clip-rule="evenodd" fill="#F2AA70" d="M238.444,112.926l-6.664-1.383
		c-3.771-0.791-3.771-10.502-3.469-16.701L225.045,95c-0.592,0.807-1.26,1.615-2.176,2.391c-0.838-0.723-1.471-1.461-2.032-2.189
		l-3.389,0.15c0.162,3.563,0.199,8.121-0.506,11.506c2.699,2.75,9.473,8.563,17.801,7.613
		C236.325,114.276,237.514,113.733,238.444,112.926L238.444,112.926z"/>
	<path fill-rule="evenodd" clip-rule="evenodd" fill="#01A2A5" d="M222.87,137.602c8.613,0,17.225,0,25.854,0
		c-0.369-4.895,1.121-22.293-5.176-23.604c-3.924-0.824-7.838-1.631-11.768-2.455c-0.244-0.057-0.492-0.158-0.721-0.299
		l-1.523,2.313l-3.996,1.439l-2.67-0.617l-2.667,0.617l-3.994-1.439l-1.531-2.313c-0.223,0.141-0.471,0.242-0.717,0.299
		c-3.93,0.824-7.836,1.631-11.768,2.455c-6.295,1.311-4.805,18.709-5.174,23.604C205.631,137.602,214.26,137.602,222.87,137.602
		L222.87,137.602z"/>
	<path fill-rule="evenodd" clip-rule="evenodd" fill="#4ED2D4" d="M215.77,110.121c1.879,2.053,4.258,3.418,7.1,4.258
		c-1.35,1.459-2.049,3.387-2.208,5.682c-2.93-2.414-5.736-4.924-7.314-8.398C213.945,110.963,214.732,110.438,215.77,110.121
		L215.77,110.121z"/>
	<path fill-rule="evenodd" clip-rule="evenodd" fill="#4ED2D4" d="M229.973,110.121c-1.879,2.053-4.256,3.418-7.104,4.258
		c1.355,1.459,2.055,3.387,2.213,5.682c2.926-2.414,5.734-4.924,7.314-8.398C231.799,110.963,231.008,110.438,229.973,110.121
		L229.973,110.121z"/>
	<path fill-rule="evenodd" clip-rule="evenodd" fill="#FEB67C" d="M237.483,83.41c0.018,0.303,0.018,0.598,0.018,0.896
		c0,12.678-6.541,22.957-14.631,22.957c-8.086,0-14.625-10.279-14.625-22.957c0-0.299,0-0.594,0.018-0.896l14.506-10.852
		L237.483,83.41z"/>
	<path fill-rule="evenodd" clip-rule="evenodd" fill="#F2AA70" d="M237.483,83.41c0.018,0.303,0.018,0.598,0.018,0.896
		c0,1.545-0.09,3.053-0.285,4.506c-14.779,2.105-24.127-1.035-28.954-3.576c-0.018-0.313-0.018-0.615-0.018-0.93
		c0-0.299,0-0.594,0.018-0.896l12.4-9.271l4.034-0.162L237.483,83.41z"/>
	<path fill-rule="evenodd" clip-rule="evenodd" fill="#592E25" d="M206.895,83.41c0-26.602,31.956-26.52,31.956,0
		c-2.947,0.531-5.91,0.936-8.857,1.174l-0.299-2.279l-1.666,2.441c-0.826,0.051-1.668,0.09-2.488,0.119l-0.248-4.314l-1.244,4.373
		c-2.297,0.031-4.596-0.021-6.893-0.164l-1.336-2.869l-1.24,2.664C212.016,84.307,209.455,83.92,206.895,83.41L206.895,83.41z"/>
	<path fill-rule="evenodd" clip-rule="evenodd" fill="#EBEBEB" d="M193.111,119.205h59.522c1.316,0,2.402,1.086,2.402,2.422v31.721
		c0,1.334-1.086,2.422-2.402,2.422h-59.522c-1.316,0-2.402-1.088-2.402-2.422v-31.721
		C190.709,120.291,191.795,119.205,193.111,119.205L193.111,119.205z"/>
	<path fill-rule="evenodd" clip-rule="evenodd" fill="#E0E1E1" d="M193.111,119.205h7.994c1.143,9.893,8.633,33.428,53.93,32.127
		v2.016c0,1.334-1.086,2.422-2.402,2.422h-59.522c-1.316,0-2.402-1.088-2.402-2.422v-31.721
		C190.709,120.291,191.795,119.205,193.111,119.205L193.111,119.205z"/>
	<path fill-rule="evenodd" clip-rule="evenodd" fill="#EBEBEB" d="M188.848,155.77h68.049c0.521,0,0.965,0.42,0.965,0.965v2.068
		c0,0.543-0.443,0.982-0.965,0.982h-68.049c-0.527,0-0.965-0.439-0.965-0.982v-2.068C187.883,156.19,188.32,155.77,188.848,155.77
		L188.848,155.77z"/>
	<path fill-rule="evenodd" clip-rule="evenodd" fill="#FEFEFE" d="M222.87,132.692c2.65,0,4.809,2.139,4.809,4.785
		c0,2.67-2.158,4.809-4.809,4.809c-2.649,0-4.803-2.139-4.803-4.809C218.066,134.83,220.221,132.692,222.87,132.692L222.87,132.692z
		"/>
	<rect x="197.582" y="178.85" fill-rule="evenodd" clip-rule="evenodd" fill="#01A2A5" width="50.581" height="13.787"/>
</g>
<g>
	<path fill="#FFFFFF" stroke="#DFDFDF" d="M19.772,95.889H164.36c7.621,0,13.801,6.178,13.801,13.799v0.025
		c0,7.621-6.18,13.801-13.801,13.801H19.772c-7.621,0-13.799-6.18-13.799-13.801v-0.025C5.974,102.067,12.151,95.889,19.772,95.889z
		"/>
	<path fill="#9AA0A6" d="M27.261,116.813c-0.271,0.271-0.715,0.271-0.988,0l-3.199-3.188c0.396-0.254,0.734-0.589,0.99-0.986
		l3.197,3.186C27.534,116.096,27.534,116.538,27.261,116.813z M19.976,113.948c-2.459,0-4.453-1.99-4.453-4.441
		c0-2.453,1.994-4.441,4.453-4.441s4.453,1.988,4.453,4.441C24.429,111.957,22.435,113.948,19.976,113.948z M19.976,106.323
		c-1.762,0-3.193,1.43-3.193,3.184s1.432,3.182,3.193,3.182c1.76,0,3.189-1.428,3.189-3.182S21.735,106.323,19.976,106.323z"/>
	<g enable-background="new    ">
		<path d="M44.525,106.578c-0.104,0.182-0.234,0.48-0.313,0.688c-0.351,1.3-1.144,3.068-2.301,4.473
			c-1.184,1.442-2.73,2.639-5.174,3.536l-0.937-0.846c2.379-0.701,4.004-1.885,5.188-3.263c1.014-1.196,1.807-2.873,2.066-4.056
			h-4.394c-0.78,1.092-1.872,2.249-3.289,3.197l-0.897-0.676c2.249-1.339,3.523-3.224,4.082-4.395
			c0.144-0.221,0.325-0.688,0.403-1.026l1.209,0.403c-0.221,0.338-0.455,0.767-0.585,1.014c-0.091,0.182-0.195,0.364-0.313,0.546
			h3.536c0.352,0,0.638-0.039,0.846-0.117L44.525,106.578z"/>
		<path d="M47.32,114.287c0.091-0.208,0.13-0.377,0.13-0.637v-7.437c0-0.351-0.065-0.923-0.104-1.183h1.274
			c-0.052,0.324-0.091,0.806-0.091,1.183v7.371c2.482-0.624,5.499-2.34,7.111-4.433l0.585,0.909
			c-1.69,2.094-4.368,3.692-7.605,4.642c-0.144,0.039-0.352,0.104-0.546,0.234L47.32,114.287z"/>
		<path d="M61.373,109.49l-0.598,0.91c-0.65-0.469-2.055-1.379-2.848-1.781l0.585-0.885C59.28,108.151,60.8,109.087,61.373,109.49z
			 M62.88,112.597c2.158-1.234,3.874-2.938,4.928-4.771l0.624,1.079c-1.131,1.741-2.926,3.419-5.006,4.641
			c-1.3,0.768-3.094,1.365-4.303,1.612l-0.598-1.053C59.956,113.859,61.568,113.338,62.88,112.597z M63.296,106.643l-0.61,0.897
			c-0.624-0.481-2.041-1.417-2.796-1.859l0.586-0.871C61.243,105.239,62.738,106.24,63.296,106.643z M67.236,107.02l-0.741,0.338
			c-0.325-0.688-0.754-1.456-1.183-2.041l0.715-0.312C66.352,105.473,66.937,106.409,67.236,107.02z M68.978,106.37l-0.741,0.338
			c-0.351-0.689-0.806-1.431-1.235-2.016l0.729-0.312C68.081,104.836,68.653,105.772,68.978,106.37z"/>
		<path d="M72.423,110.803l-0.988,0.364c-0.195-0.676-0.897-2.47-1.157-2.925l0.962-0.377
			C71.5,108.424,72.176,110.127,72.423,110.803z M78.962,107.944c-0.091,0.272-0.144,0.48-0.195,0.649
			c-0.351,1.431-0.91,2.821-1.846,3.991c-1.196,1.521-2.782,2.535-4.238,3.094l-0.858-0.884c1.508-0.429,3.159-1.417,4.226-2.756
			c0.923-1.131,1.599-2.782,1.794-4.446L78.962,107.944z M75.283,110.024l-0.962,0.338c-0.143-0.585-0.741-2.236-1.014-2.821
			l0.949-0.325C74.477,107.735,75.114,109.451,75.283,110.024z"/>
		<path d="M88.27,111.363c-1.417-0.768-3.666-1.639-5.109-2.094l0.014,4.29c0,0.416,0.025,1.105,0.078,1.534h-1.248
			c0.052-0.416,0.078-1.053,0.078-1.534v-7.565c0-0.364-0.026-0.949-0.104-1.353h1.274c-0.039,0.403-0.092,0.962-0.092,1.353v2.119
			c1.717,0.52,4.174,1.456,5.552,2.145L88.27,111.363z"/>
		<path d="M100.451,107.176c-0.039,0.221-0.064,0.468-0.064,0.637c-0.052,1.248-0.208,5.031-0.793,6.279
			c-0.26,0.546-0.676,0.78-1.392,0.78c-0.663,0-1.417-0.039-2.093-0.078l-0.13-1.079c0.702,0.091,1.391,0.144,1.937,0.144
			c0.378,0,0.611-0.104,0.755-0.43c0.493-0.987,0.663-4.186,0.663-5.577h-3.641c-0.468,3.731-1.82,5.707-3.991,7.202l-0.936-0.767
			c0.402-0.221,0.936-0.585,1.325-0.962c1.287-1.17,2.224-2.795,2.574-5.474h-2.184c-0.521,0-1.04,0-1.495,0.053v-1.105
			c0.455,0.052,0.988,0.078,1.482,0.078h2.288c0.025-0.416,0.052-0.858,0.052-1.326c0-0.286-0.039-0.767-0.091-1.079h1.222
			c-0.039,0.299-0.065,0.754-0.078,1.066c-0.013,0.468-0.039,0.91-0.064,1.339h3.094c0.351,0,0.611-0.026,0.832-0.065
			L100.451,107.176z"/>
		<path d="M102.921,109.074c0.39,0.025,1.079,0.064,1.807,0.064h7.124c0.65,0,1.118-0.039,1.404-0.064v1.273
			c-0.26-0.013-0.806-0.064-1.391-0.064h-7.138c-0.715,0-1.404,0.025-1.807,0.064V109.074z"/>
		<path d="M118.027,108.294c1.717,0.52,4.174,1.443,5.552,2.132l-0.455,1.105c-1.404-0.768-3.653-1.625-5.097-2.08v4.277
			c0,0.416,0.026,1.117,0.078,1.533h-1.248c0.052-0.416,0.078-1.053,0.078-1.533v-7.566c0-0.364-0.026-0.949-0.104-1.353h1.273
			c-0.039,0.403-0.078,0.962-0.078,1.353V108.294z M121.94,107.644c-0.324-0.676-0.728-1.391-1.156-1.976l0.715-0.325
			c0.338,0.481,0.884,1.353,1.183,1.963L121.94,107.644z M123.565,106.981c-0.351-0.676-0.767-1.364-1.209-1.949l0.716-0.339
			c0.338,0.455,0.909,1.326,1.222,1.925L123.565,106.981z"/>
		<path d="M132.6,109.75c0.976-0.313,1.977-0.468,2.821-0.468c1.872,0,3.224,1.026,3.224,2.561c0,1.561-0.975,2.548-2.743,2.978
			c-0.571,0.13-1.144,0.156-1.586,0.169l-0.363-1.027c0.48,0,1.014,0.013,1.508-0.091c1.131-0.208,2.158-0.819,2.158-2.015
			c0-1.093-0.988-1.678-2.21-1.678c-0.963,0-1.872,0.183-2.796,0.507c0.026,1.093,0.053,2.224,0.053,2.782
			c0,1.196-0.455,1.573-1.145,1.573c-1.014,0-2.691-0.975-2.691-2.132c0-1.053,1.34-2.171,2.821-2.809v-0.728
			c0-0.521,0-1.118,0.014-1.69c-0.352,0.026-0.677,0.039-0.949,0.039c-0.585,0-1.145-0.013-1.639-0.064l-0.025-0.988
			c0.702,0.091,1.17,0.104,1.638,0.104c0.299,0,0.637-0.013,0.988-0.039c0.013-0.676,0.026-1.234,0.026-1.469
			c0-0.26-0.026-0.688-0.078-0.91h1.131c-0.026,0.234-0.052,0.585-0.065,0.884c-0.013,0.313-0.025,0.819-0.039,1.392
			c0.937-0.117,1.911-0.299,2.64-0.521l0.013,1.027c-0.754,0.169-1.742,0.338-2.678,0.442c-0.014,0.61-0.026,1.222-0.026,1.742
			V109.75z M131.704,113.338c0-0.468-0.026-1.339-0.039-2.275c-1.04,0.494-1.808,1.223-1.808,1.808s0.884,1.092,1.392,1.092
			C131.547,113.962,131.704,113.741,131.704,113.338z M136.773,105.772c0.91,0.481,2.314,1.365,2.938,1.886l-0.52,0.832
			c-0.638-0.611-2.067-1.482-2.887-1.925L136.773,105.772z"/>
		<path d="M144.535,107.046c-0.299,0.533-0.677,1.079-1.066,1.599v7.047h-0.949v-5.954c-0.494,0.532-1.014,1.014-1.521,1.403
			c-0.078-0.194-0.338-0.688-0.507-0.923c1.17-0.857,2.431-2.171,3.197-3.51L144.535,107.046z M144.378,104.225
			c-0.767,1.105-2.028,2.314-3.172,3.081c-0.104-0.221-0.338-0.585-0.507-0.78c1.026-0.662,2.184-1.741,2.756-2.651L144.378,104.225
			z M152.517,112.142h-1.938v2.496c0,0.521-0.117,0.768-0.494,0.924c-0.39,0.143-1.001,0.155-1.976,0.155
			c-0.039-0.272-0.183-0.624-0.313-0.884c0.729,0.026,1.378,0.026,1.561,0.013c0.208-0.013,0.26-0.064,0.26-0.233v-2.471h-5.213
			v-0.832h5.213v-1.104h-4.914v-0.832h7.579v0.832h-1.703v1.104h1.938V112.142z M151.671,108.502h-6.175v-4.265h6.175V108.502z
			 M146.211,112.364c0.598,0.533,1.313,1.3,1.651,1.807l-0.741,0.521c-0.313-0.521-1.014-1.313-1.6-1.886L146.211,112.364z
			 M150.709,104.966h-4.277v1.04h4.277V104.966z M150.709,106.708h-4.277v1.053h4.277V106.708z"/>
	</g>
	<path d="M162.567,103.701h1v12h-1V103.701z"/>
</g>
<g>
	<g>
		<path fill="#FFFFFF" d="M324.21,36.06h-5.52V38.4c0,0.714-0.182,1.079-0.756,1.275c-0.575,0.182-1.401,0.196-2.62,0.196
			c-0.098-0.364-0.35-0.897-0.546-1.261c0.98,0.042,1.961,0.042,2.241,0.028s0.35-0.07,0.35-0.28V36.06h-5.463v-1.205h5.463v-0.966
			h0.659c0.546-0.294,1.106-0.672,1.582-1.051h-5.322v-1.135h6.569l0.28-0.07l0.841,0.63c-0.841,0.896-2.073,1.793-3.278,2.409
			v0.182h5.52V36.06z M313.354,32.489h-1.219v-3.208h2.018c-0.252-0.504-0.687-1.135-1.093-1.611l1.12-0.504
			c0.505,0.56,1.065,1.345,1.303,1.877l-0.504,0.238h2.592c-0.196-0.561-0.603-1.331-0.98-1.919l1.134-0.42
			c0.477,0.63,0.953,1.513,1.135,2.073l-0.687,0.267h2.368c0.49-0.645,1.036-1.527,1.358-2.186l1.373,0.435
			c-0.406,0.602-0.869,1.218-1.303,1.751H324v3.208h-1.288v-2.059h-9.357V32.489z"/>
		<path fill="#FFFFFF" d="M338.266,38.176v1.261h-12.438v-1.261h5.547v-3.222h-3.992v-1.247h3.992v-2.802h-3.109
			c-0.435,0.841-0.896,1.583-1.388,2.171c-0.266-0.224-0.84-0.603-1.19-0.785c1.135-1.19,2.018-3.109,2.535-5.071l1.345,0.309
			c-0.21,0.714-0.462,1.429-0.728,2.101h2.535v-2.605h1.345v2.605h4.874v1.274h-4.874v2.802h4.356v1.247h-4.356v3.222H338.266z"/>
		<path fill="#FFFFFF" d="M340.92,29.323c1.009-0.098,3.488-0.336,6.037-0.546c1.471-0.126,2.872-0.21,3.811-0.238l0.014,1.415
			c-0.771,0-1.975,0.014-2.703,0.196c-1.835,0.561-3.054,2.521-3.054,4.16c0,2.536,2.354,3.362,4.637,3.474l-0.505,1.485
			c-2.718-0.141-5.561-1.597-5.561-4.65c0-2.102,1.219-3.782,2.339-4.497c-1.204,0.126-4.608,0.462-6.163,0.798l-0.141-1.527
			C340.164,29.379,340.64,29.351,340.92,29.323z M349.969,33.413l-0.868,0.393c-0.336-0.714-0.7-1.359-1.121-1.961l0.841-0.364
			C349.157,31.97,349.675,32.825,349.969,33.413z M351.566,32.769l-0.854,0.42c-0.364-0.714-0.729-1.331-1.177-1.933l0.841-0.378
			C350.711,31.354,351.258,32.195,351.566,32.769z"/>
		<path fill="#FFFFFF" d="M357.331,36.257c-0.28-0.434-0.868-1.163-1.4-1.779v5.393h-1.275v-4.889
			c-0.532,0.575-1.078,1.093-1.61,1.499c-0.141-0.322-0.49-0.938-0.7-1.163c1.442-1.022,2.97-2.802,3.852-4.608h-3.474v-1.191h1.933
			v-2.507h1.275v2.507h0.924l0.238-0.056l0.729,0.491c-0.435,1.134-1.051,2.255-1.765,3.264c0.126,0.112,0.294,0.266,0.462,0.434
			c0.351-0.462,0.771-1.079,1.022-1.513l0.854,0.687c-0.462,0.49-0.91,1.022-1.288,1.4c0.434,0.435,0.854,0.854,1.008,1.037
			L357.331,36.257z M365.105,28.888c-0.154,7.032-0.309,9.413-0.826,10.114c-0.322,0.504-0.645,0.658-1.135,0.714
			c-0.477,0.084-1.247,0.056-2.004,0.028c-0.014-0.364-0.182-0.953-0.42-1.345c0.784,0.07,1.499,0.07,1.808,0.07
			c0.252,0.014,0.392-0.042,0.546-0.238c0.406-0.476,0.561-2.773,0.687-8.811h-2.451c-0.112,3.979-0.477,8.153-3.628,10.464
			c-0.225-0.336-0.645-0.771-0.995-1.009c2.998-2.031,3.208-5.841,3.278-9.455h-2.199v-1.232h7.34V28.888z"/>
		<path fill="#FFFFFF" d="M375.63,27.908c-0.098,0.35-0.21,0.911-0.28,1.219c-0.056,0.238-0.112,0.49-0.182,0.742
			c2.199,0.435,3.698,2.171,3.698,4.567c0,2.843-2.031,4.538-4.959,4.958l-0.841-1.261c2.956-0.266,4.385-1.793,4.385-3.754
			c0-1.695-0.995-2.956-2.605-3.292c-0.505,1.695-1.163,3.404-1.961,4.581c0.252,0.336,0.532,0.645,0.813,0.911l-1.106,0.896
			c-0.196-0.224-0.393-0.448-0.575-0.687c-0.882,1.022-1.709,1.611-2.731,1.611c-1.106,0-2.059-0.911-2.059-2.619
			c0-1.583,0.84-3.264,2.101-4.329c-0.153-0.406-0.279-0.813-0.406-1.205c-0.14-0.476-0.294-0.911-0.504-1.345l1.457-0.448
			c0.084,0.406,0.196,0.869,0.294,1.275c0.084,0.294,0.182,0.63,0.294,0.966c1.121-0.616,2.228-0.896,3.376-0.924
			c0.07-0.294,0.141-0.575,0.183-0.841c0.056-0.336,0.098-0.854,0.084-1.176L375.63,27.908z M371.064,35.43
			c-0.42-0.658-0.868-1.639-1.274-2.703c-0.799,0.826-1.275,1.975-1.275,2.956c0,0.813,0.337,1.316,0.911,1.316
			c0.603,0,1.232-0.56,1.807-1.303L371.064,35.43z M372.058,34.478c0.561-0.967,1.079-2.228,1.457-3.474
			c-0.994,0.07-1.863,0.392-2.647,0.882c0.336,0.939,0.729,1.835,1.064,2.381L372.058,34.478z"/>
		<path fill="#FFFFFF" d="M381.773,29.253c1.022-0.084,3.488-0.322,6.037-0.546c1.485-0.112,2.872-0.196,3.824-0.224v1.401
			c-0.771,0-1.961,0.014-2.689,0.21c-1.849,0.546-3.067,2.521-3.067,4.161c0,2.521,2.354,3.362,4.65,3.459l-0.504,1.5
			c-2.718-0.141-5.575-1.597-5.575-4.665c0-2.087,1.219-3.768,2.354-4.497c-1.219,0.14-4.623,0.477-6.164,0.799l-0.153-1.527
			C381.031,29.309,381.507,29.281,381.773,29.253z"/>
		<path fill="#FFFFFF" d="M308.292,50.023c-0.14,0.224-0.294,0.574-0.392,0.854c-0.379,1.345-1.205,3.223-2.466,4.763
			c-1.289,1.583-2.983,2.872-5.603,3.881l-1.303-1.163c2.703-0.813,4.37-2.059,5.616-3.502c1.037-1.19,1.877-2.955,2.13-4.132
			h-4.371c-0.896,1.204-2.087,2.437-3.558,3.418l-1.232-0.911c2.438-1.457,3.74-3.403,4.398-4.637
			c0.168-0.279,0.406-0.854,0.518-1.26l1.625,0.532c-0.28,0.42-0.574,0.966-0.729,1.246c-0.056,0.112-0.126,0.238-0.195,0.351h3.361
			c0.393,0,0.784-0.042,1.051-0.141L308.292,50.023z"/>
		<path fill="#FFFFFF" d="M310.96,58.273c0.14-0.28,0.154-0.49,0.154-0.784v-7.83c0-0.448-0.057-1.093-0.126-1.415h1.736
			c-0.069,0.434-0.126,0.938-0.126,1.4v7.662c2.521-0.672,5.701-2.493,7.466-4.706l0.799,1.232
			c-1.863,2.283-4.763,3.979-8.166,5.028c-0.169,0.042-0.435,0.127-0.701,0.295L310.96,58.273z"/>
		<path fill="#FFFFFF" d="M326.333,53.034l-0.813,1.247c-0.729-0.532-2.228-1.484-3.109-1.961l0.798-1.205
			C324.079,51.592,325.675,52.572,326.333,53.034z M327.749,56.326c2.339-1.33,4.244-3.208,5.364-5.196l0.854,1.484
			c-1.261,1.905-3.207,3.698-5.477,5.015c-1.415,0.826-3.376,1.499-4.65,1.737l-0.826-1.443
			C324.569,57.657,326.278,57.138,327.749,56.326z M328.449,49.938l-0.841,1.205c-0.714-0.519-2.213-1.499-3.067-1.989l0.799-1.204
			C326.208,48.426,327.776,49.463,328.449,49.938z M332.651,50.344l-0.98,0.435c-0.378-0.799-0.771-1.526-1.261-2.199l0.952-0.406
			C331.726,48.72,332.329,49.701,332.651,50.344z M334.57,49.631l-0.98,0.435c-0.393-0.799-0.826-1.499-1.316-2.157l0.967-0.406
			C333.631,48.019,334.22,48.986,334.57,49.631z"/>
		<path fill="#FFFFFF" d="M338.304,54.491l-1.331,0.49c-0.238-0.742-0.967-2.647-1.274-3.193l1.316-0.477
			C337.337,51.956,338.038,53.735,338.304,54.491z M345.392,51.479c-0.126,0.351-0.21,0.603-0.267,0.841
			c-0.378,1.484-0.98,2.97-1.961,4.216c-1.289,1.653-3.025,2.773-4.608,3.391l-1.163-1.191c1.583-0.448,3.433-1.513,4.595-2.955
			c0.967-1.205,1.667-3.025,1.863-4.791L345.392,51.479z M341.4,53.623l-1.317,0.477c-0.168-0.659-0.798-2.41-1.12-3.082
			l1.316-0.435C340.531,51.172,341.217,53.007,341.4,53.623z"/>
		<path fill="#FFFFFF" d="M355.22,55.332c-1.485-0.799-3.755-1.681-5.296-2.186v4.328c0,0.435,0.042,1.289,0.112,1.793h-1.723
			c0.07-0.49,0.112-1.246,0.112-1.793v-8.096c0-0.448-0.042-1.093-0.126-1.569h1.723c-0.042,0.463-0.099,1.079-0.099,1.569v2.185
			c1.85,0.561,4.525,1.555,5.926,2.241L355.22,55.332z"/>
		<path fill="#FFFFFF" d="M368.45,50.597c-0.042,0.237-0.069,0.532-0.084,0.714c-0.042,1.415-0.224,5.421-0.84,6.794
			c-0.295,0.645-0.771,0.952-1.625,0.952c-0.757,0-1.583-0.056-2.283-0.098l-0.168-1.471c0.714,0.098,1.456,0.168,2.03,0.168
			c0.421,0,0.645-0.126,0.799-0.477c0.477-0.98,0.658-4.146,0.658-5.659h-3.586c-0.519,3.895-1.905,6.037-4.314,7.732l-1.288-1.051
			c0.504-0.266,1.12-0.7,1.61-1.177c1.359-1.274,2.214-2.97,2.563-5.505h-2.129c-0.519,0-1.177,0.015-1.709,0.057v-1.457
			c0.532,0.042,1.162,0.084,1.709,0.084h2.255c0.028-0.42,0.042-0.868,0.042-1.331c0-0.322-0.042-0.896-0.098-1.219h1.639
			c-0.028,0.322-0.056,0.841-0.07,1.177c-0.014,0.477-0.042,0.938-0.069,1.373h3.025c0.364,0,0.687-0.042,0.967-0.084L368.45,50.597
			z"/>
		<path fill="#FFFFFF" d="M370.951,52.516c0.448,0.042,1.316,0.084,2.073,0.084h7.605c0.687,0,1.232-0.057,1.569-0.084v1.723
			c-0.309-0.014-0.938-0.056-1.555-0.056h-7.62c-0.785,0-1.611,0.027-2.073,0.056V52.516z"/>
		<path fill="#FFFFFF" d="M387.458,51.76c1.85,0.547,4.539,1.555,5.926,2.241l-0.617,1.513c-1.484-0.784-3.768-1.667-5.309-2.171
			l0.015,4.328c0,0.435,0.042,1.274,0.098,1.793h-1.709c0.07-0.49,0.112-1.261,0.112-1.793v-8.097c0-0.447-0.042-1.106-0.126-1.568
			h1.723c-0.042,0.462-0.112,1.064-0.112,1.568V51.76z M391.464,51.088c-0.363-0.799-0.756-1.471-1.232-2.144l0.938-0.406
			c0.379,0.546,0.967,1.457,1.275,2.115L391.464,51.088z M393.286,50.344c-0.406-0.798-0.798-1.442-1.288-2.101l0.938-0.435
			c0.378,0.519,0.98,1.429,1.303,2.073L393.286,50.344z"/>
		<path fill="#FFFFFF" d="M401.53,56.816c0.042-0.476,0.057-1.261,0.057-1.947c-1.177,0.659-1.919,1.289-1.919,2.102
			c0,0.952,0.896,1.135,2.297,1.135c1.12,0,2.634-0.141,3.852-0.364l-0.042,1.415c-1.008,0.126-2.604,0.237-3.852,0.237
			c-2.073,0-3.684-0.476-3.684-2.198c0-1.709,1.666-2.788,3.264-3.601c-0.169-0.49-0.616-0.687-1.121-0.687
			c-0.868,0-1.709,0.448-2.297,0.995c-0.406,0.392-0.813,0.896-1.275,1.484l-1.19-0.896c1.625-1.541,2.563-2.886,3.138-4.048h-0.406
			c-0.574,0-1.541-0.028-2.311-0.084v-1.303c0.728,0.098,1.723,0.154,2.381,0.154c0.267,0,0.532,0,0.813,0
			c0.182-0.631,0.294-1.233,0.322-1.667l1.442,0.111c-0.084,0.364-0.196,0.896-0.392,1.499c1.372-0.056,2.829-0.182,4.104-0.406
			v1.289c-1.358,0.21-3.067,0.322-4.566,0.378c-0.28,0.616-0.645,1.261-1.05,1.807c0.434-0.252,1.218-0.405,1.765-0.405
			c0.868,0,1.583,0.405,1.849,1.176c0.854-0.406,1.569-0.7,2.228-0.994c0.462-0.21,0.868-0.393,1.316-0.616l0.547,1.288
			c-0.379,0.112-0.981,0.337-1.401,0.505c-0.714,0.266-1.61,0.645-2.577,1.093c0.014,0.784,0.042,1.891,0.056,2.549H401.53z"/>
		<path fill="#FFFFFF" d="M318.179,67.46c-0.379,0.98-0.854,1.988-1.387,2.927v9.455h-1.317v-7.396
			c-0.364,0.504-0.756,0.967-1.148,1.373c-0.126-0.322-0.504-1.051-0.729-1.345c1.331-1.317,2.577-3.362,3.334-5.407L318.179,67.46z
			 M322.409,70.555v1.778h3.811v1.19h-3.811v1.863h4.007v1.219h-4.007v3.25h-1.33v-9.301h-0.785
			c-0.588,1.092-1.232,2.072-1.904,2.815c-0.21-0.225-0.715-0.687-1.009-0.883c1.232-1.289,2.354-3.306,3.025-5.323l1.247,0.337
			c-0.225,0.602-0.463,1.219-0.729,1.807h5.631v1.247H322.409z"/>
		<path fill="#FFFFFF" d="M329.056,72.656c0.966-0.308,3.277-1.12,4.931-1.12c2.072,0,3.516,1.232,3.516,3.222
			c0,2.605-2.409,4.118-6.443,4.37l-0.574-1.358c3.067-0.099,5.574-0.938,5.574-3.04c0-1.106-0.868-1.905-2.185-1.905
			c-1.681,0-4.595,1.205-5.604,1.625l-0.588-1.442C328.089,72.923,328.635,72.797,329.056,72.656z"/>
		<path fill="#FFFFFF" d="M339.43,69.253c1.022-0.084,3.488-0.322,6.037-0.547c1.485-0.112,2.872-0.196,3.824-0.224v1.4
			c-0.771,0-1.961,0.014-2.689,0.21c-1.849,0.547-3.067,2.521-3.067,4.16c0,2.521,2.353,3.362,4.65,3.46l-0.505,1.499
			c-2.717-0.14-5.574-1.597-5.574-4.664c0-2.088,1.218-3.769,2.353-4.497c-1.219,0.141-4.622,0.477-6.163,0.799l-0.154-1.527
			C338.688,69.308,339.164,69.28,339.43,69.253z"/>
		<path fill="#FFFFFF" d="M363.026,76.677c-0.393-0.351-0.841-0.7-1.331-1.037c-0.588,1.695-1.652,2.97-3.586,3.965l-1.177-0.967
			c2.157-0.91,3.138-2.325,3.601-3.727c-1.093-0.588-2.325-1.05-3.656-1.19c-0.519,1.205-1.163,2.718-1.681,3.488
			c-0.519,0.756-1.121,1.078-1.934,1.078c-1.106,0-1.947-0.784-1.947-2.059c0-2.087,1.92-3.698,4.665-3.796
			c0.448-1.009,0.91-2.088,1.289-2.844c-0.547,0.014-2.018,0.084-2.647,0.126c-0.295,0.014-0.729,0.056-1.079,0.098l-0.056-1.429
			c0.364,0.028,0.798,0.042,1.093,0.042c0.756,0,2.423-0.069,3.039-0.126c0.294-0.014,0.589-0.084,0.799-0.168l0.868,0.7
			c-0.154,0.168-0.294,0.322-0.406,0.519c-0.364,0.603-0.925,1.905-1.471,3.151c1.247,0.168,2.409,0.561,3.432,1.022
			c0.042-0.266,0.07-0.532,0.084-0.784c0.028-0.434,0.028-0.924,0-1.373l1.429,0.154c-0.042,0.967-0.126,1.835-0.279,2.634
			c0.63,0.351,1.162,0.714,1.597,1.009L363.026,76.677z M355.406,73.707c-1.793,0.21-2.802,1.274-2.802,2.325
			c0,0.49,0.322,0.799,0.687,0.799c0.294,0,0.504-0.112,0.784-0.477C354.496,75.765,354.958,74.701,355.406,73.707z"/>
		<path fill="#FFFFFF" d="M372.221,70.625c-0.868,0.196-1.835,0.351-2.787,0.463c-0.127,0.602-0.28,1.219-0.435,1.807
			c-0.504,1.961-1.429,4.818-2.186,6.388l-1.541-0.519c0.841-1.415,1.836-4.272,2.354-6.22c0.126-0.42,0.238-0.882,0.336-1.33
			c-0.392,0.014-0.756,0.027-1.106,0.027c-0.644,0-1.148-0.027-1.652-0.056l-0.028-1.373c0.673,0.084,1.163,0.112,1.695,0.112
			c0.434,0,0.896-0.014,1.387-0.056c0.069-0.406,0.14-0.771,0.168-1.022c0.056-0.448,0.07-0.953,0.042-1.261l1.694,0.126
			c-0.098,0.35-0.21,0.91-0.266,1.19l-0.168,0.813c0.84-0.112,1.694-0.28,2.493-0.477V70.625z M371.787,75.345
			c-0.111,0.435-0.195,0.868-0.195,1.205c0,0.63,0.336,1.19,2.101,1.19c0.91,0,1.863-0.112,2.773-0.28l-0.042,1.415
			c-0.771,0.112-1.695,0.196-2.745,0.196c-2.256,0-3.418-0.743-3.418-2.115c0-0.574,0.098-1.163,0.21-1.737L371.787,75.345z
			 M371.241,71.927c0.742-0.084,1.694-0.14,2.591-0.14c0.799,0,1.64,0.042,2.424,0.126l-0.042,1.331
			c-0.7-0.085-1.527-0.169-2.354-0.169c-0.91,0-1.765,0.042-2.619,0.141V71.927z"/>
		<path fill="#FFFFFF" d="M380.493,70.415c-0.015,0.868,0,2.045,0.098,3.124c0.21,2.185,0.771,3.642,1.695,3.642
			c0.7,0,1.303-1.513,1.61-2.787l1.121,1.303c-0.883,2.381-1.737,3.207-2.76,3.207c-1.4,0-2.689-1.345-3.067-5
			c-0.141-1.219-0.154-2.872-0.154-3.712c0-0.351-0.014-0.925-0.098-1.303l1.694,0.027
			C380.562,69.322,380.493,70.037,380.493,70.415z M390.213,76.186l-1.442,0.56c-0.225-2.381-1.022-5.364-2.424-7.018l1.387-0.462
			C389.009,70.877,390.032,73.93,390.213,76.186z"/>
	</g>
</g>
<path fill="#FFFFFF" stroke="#DFDFDF" d="M279.106,95.889h144.588c7.621,0,13.799,6.178,13.799,13.799v0.025
	c0,7.621-6.178,13.801-13.799,13.801H279.106c-7.621,0-13.801-6.18-13.801-13.801v-0.025
	C265.305,102.067,271.485,95.889,279.106,95.889z"/>
<g enable-background="new    ">
	<path d="M303.19,106.591c-0.129,0.208-0.272,0.533-0.363,0.793c-0.352,1.248-1.118,2.99-2.288,4.42
		c-1.196,1.47-2.769,2.665-5.2,3.602l-1.209-1.079c2.51-0.754,4.057-1.911,5.213-3.25c0.963-1.105,1.742-2.743,1.977-3.835h-4.057
		c-0.832,1.118-1.938,2.262-3.302,3.172l-1.144-0.845c2.262-1.353,3.471-3.159,4.082-4.304c0.156-0.26,0.377-0.793,0.48-1.17
		l1.508,0.494c-0.26,0.39-0.533,0.896-0.676,1.157c-0.052,0.104-0.117,0.221-0.182,0.324h3.119c0.365,0,0.729-0.038,0.976-0.13
		L303.19,106.591z"/>
	<path d="M305.971,114.248c0.129-0.26,0.143-0.455,0.143-0.728v-7.268c0-0.416-0.052-1.015-0.117-1.313h1.612
		c-0.065,0.403-0.117,0.871-0.117,1.301v7.111c2.341-0.625,5.292-2.314,6.929-4.369l0.742,1.145c-1.729,2.119-4.42,3.692-7.58,4.667
		c-0.156,0.039-0.402,0.117-0.65,0.273L305.971,114.248z"/>
	<path d="M320.225,109.386l-0.754,1.157c-0.676-0.494-2.066-1.378-2.886-1.82l0.741-1.118
		C318.132,108.047,319.614,108.957,320.225,109.386z M321.539,112.442c2.171-1.235,3.938-2.978,4.979-4.823l0.793,1.378
		c-1.17,1.768-2.978,3.432-5.084,4.654c-1.313,0.767-3.133,1.391-4.315,1.611l-0.767-1.339
		C318.587,113.676,320.173,113.196,321.539,112.442z M322.188,106.513l-0.779,1.118c-0.663-0.481-2.055-1.391-2.848-1.846
		l0.742-1.118C320.108,105.109,321.565,106.071,322.188,106.513z M326.088,106.89l-0.91,0.403c-0.351-0.741-0.715-1.417-1.17-2.041
		l0.885-0.377C325.231,105.382,325.79,106.292,326.088,106.89z M327.87,106.227l-0.91,0.403c-0.363-0.741-0.767-1.392-1.222-2.002
		l0.897-0.377C326.999,104.732,327.545,105.629,327.87,106.227z"/>
	<path d="M332.015,110.739l-1.235,0.455c-0.221-0.689-0.896-2.457-1.183-2.965l1.222-0.441
		C331.118,108.385,331.768,110.036,332.015,110.739z M338.593,107.944c-0.116,0.324-0.194,0.559-0.247,0.779
		c-0.352,1.378-0.91,2.756-1.82,3.913c-1.195,1.534-2.808,2.574-4.277,3.146l-1.078-1.105c1.469-0.416,3.186-1.403,4.264-2.743
		c0.896-1.117,1.547-2.808,1.729-4.445L338.593,107.944z M334.888,109.932l-1.222,0.442c-0.156-0.611-0.741-2.236-1.041-2.86
		l1.223-0.402C334.083,107.657,334.719,109.361,334.888,109.932z"/>
	<path d="M348.672,111.518c-1.378-0.74-3.484-1.56-4.914-2.027v4.017c0,0.403,0.039,1.196,0.104,1.664h-1.599
		c0.065-0.455,0.104-1.157,0.104-1.664v-7.514c0-0.416-0.039-1.015-0.117-1.456h1.6c-0.039,0.429-0.092,1.001-0.092,1.456v2.027
		c1.717,0.521,4.199,1.443,5.5,2.08L348.672,111.518z"/>
	<path d="M360.469,107.124c-0.039,0.221-0.065,0.494-0.078,0.663c-0.039,1.313-0.209,5.031-0.781,6.305
		c-0.272,0.599-0.715,0.885-1.508,0.885c-0.701,0-1.469-0.053-2.119-0.092l-0.155-1.364c0.663,0.091,1.353,0.155,1.885,0.155
		c0.39,0,0.599-0.117,0.741-0.441c0.441-0.91,0.611-3.849,0.611-5.253h-3.328c-0.481,3.614-1.769,5.604-4.004,7.177l-1.197-0.975
		c0.469-0.247,1.041-0.65,1.496-1.093c1.261-1.183,2.054-2.756,2.379-5.109h-1.977c-0.48,0-1.092,0.014-1.586,0.053v-1.353
		c0.494,0.039,1.079,0.078,1.586,0.078h2.094c0.025-0.39,0.039-0.806,0.039-1.235c0-0.299-0.039-0.832-0.092-1.131h1.521
		c-0.025,0.299-0.053,0.78-0.064,1.092c-0.014,0.442-0.039,0.871-0.066,1.274h2.809c0.338,0,0.637-0.039,0.897-0.078
		L360.469,107.124z"/>
	<path d="M362.924,108.906c0.416,0.039,1.222,0.077,1.924,0.077h7.059c0.638,0,1.145-0.052,1.457-0.077v1.599
		c-0.287-0.013-0.871-0.052-1.443-0.052h-7.072c-0.729,0-1.495,0.025-1.924,0.052V108.906z"/>
	<path d="M378.316,108.203c1.716,0.507,4.212,1.442,5.499,2.08l-0.572,1.404c-1.377-0.729-3.496-1.548-4.927-2.016l0.013,4.018
		c0,0.402,0.039,1.183,0.092,1.664h-1.586c0.064-0.455,0.104-1.17,0.104-1.664v-7.515c0-0.416-0.039-1.027-0.117-1.456h1.6
		c-0.039,0.429-0.104,0.988-0.104,1.456V108.203z M382.034,107.579c-0.338-0.741-0.701-1.365-1.144-1.989l0.871-0.377
		c0.351,0.507,0.897,1.352,1.183,1.963L382.034,107.579z M383.724,106.89c-0.377-0.741-0.741-1.339-1.196-1.95l0.871-0.402
		c0.352,0.48,0.91,1.326,1.209,1.924L383.724,106.89z"/>
	<path d="M390.726,112.376c-0.261-0.403-0.806-1.079-1.3-1.651v5.006h-1.184v-4.537c-0.494,0.532-1,1.014-1.494,1.391
		c-0.131-0.299-0.455-0.871-0.65-1.079c1.339-0.949,2.756-2.6,3.574-4.277h-3.224v-1.104h1.794v-2.327h1.184v2.327h0.857
		l0.221-0.053l0.677,0.455c-0.403,1.054-0.976,2.094-1.638,3.029c0.117,0.104,0.272,0.247,0.429,0.403
		c0.325-0.429,0.715-1.001,0.948-1.404l0.793,0.638c-0.428,0.454-0.844,0.948-1.195,1.3c0.402,0.402,0.793,0.793,0.936,0.962
		L390.726,112.376z M397.942,105.538c-0.144,6.526-0.287,8.736-0.768,9.386c-0.299,0.469-0.598,0.611-1.053,0.663
		c-0.442,0.078-1.157,0.052-1.859,0.026c-0.014-0.338-0.169-0.884-0.391-1.248c0.729,0.064,1.392,0.064,1.678,0.064
		c0.234,0.014,0.363-0.039,0.507-0.221c0.377-0.441,0.521-2.574,0.638-8.177h-2.275c-0.104,3.691-0.442,7.565-3.367,9.711
		c-0.208-0.312-0.598-0.715-0.924-0.937c2.783-1.885,2.978-5.421,3.043-8.774h-2.041v-1.145h6.813V105.538z"/>
	<path d="M407.309,104.628c-0.092,0.325-0.195,0.845-0.26,1.131c-0.053,0.221-0.104,0.455-0.17,0.689
		c2.041,0.402,3.433,2.015,3.433,4.237c0,2.64-1.886,4.213-4.603,4.603l-0.779-1.17c2.742-0.247,4.068-1.664,4.068-3.484
		c0-1.573-0.922-2.743-2.418-3.055c-0.468,1.573-1.078,3.159-1.82,4.251c0.234,0.312,0.494,0.598,0.754,0.845l-1.026,0.832
		c-0.183-0.208-0.364-0.416-0.533-0.637c-0.819,0.949-1.586,1.495-2.534,1.495c-1.027,0-1.912-0.845-1.912-2.432
		c0-1.469,0.78-3.028,1.95-4.017c-0.144-0.377-0.26-0.754-0.377-1.118c-0.13-0.442-0.272-0.845-0.468-1.248l1.352-0.416
		c0.078,0.377,0.182,0.806,0.273,1.183c0.078,0.273,0.169,0.585,0.273,0.897c1.039-0.572,2.066-0.832,3.133-0.858
		c0.064-0.272,0.13-0.532,0.169-0.779c0.052-0.313,0.091-0.793,0.077-1.093L407.309,104.628z M403.071,111.61
		c-0.391-0.611-0.807-1.521-1.184-2.51c-0.74,0.768-1.183,1.833-1.183,2.743c0,0.754,0.312,1.223,0.845,1.223
		c0.56,0,1.145-0.521,1.678-1.209L403.071,111.61z M403.994,110.725c0.521-0.896,1.001-2.066,1.353-3.224
		c-0.924,0.064-1.729,0.364-2.457,0.819c0.312,0.871,0.676,1.703,0.988,2.21L403.994,110.725z"/>
	<path d="M412.684,105.876c0.949-0.078,3.237-0.299,5.604-0.507c1.378-0.104,2.665-0.183,3.549-0.208v1.3
		c-0.715,0-1.82,0.013-2.496,0.195c-1.716,0.507-2.848,2.34-2.848,3.86c0,2.341,2.186,3.12,4.316,3.212l-0.467,1.391
		c-2.523-0.13-5.175-1.482-5.175-4.329c0-1.938,1.131-3.497,2.185-4.173c-1.132,0.13-4.291,0.441-5.721,0.74l-0.143-1.417
		C411.995,105.928,412.438,105.902,412.684,105.876z"/>
</g>
<path d="M426.782,103.701h1v12h-1V103.701z"/>
<g>
	<path fill="#9AA0A6" d="M286.594,116.813c-0.273,0.271-0.715,0.271-0.988,0l-3.199-3.188c0.396-0.254,0.734-0.589,0.988-0.986
		l3.199,3.186C286.866,116.096,286.866,116.538,286.594,116.813z M279.307,113.948c-2.459,0-4.453-1.99-4.453-4.441
		c0-2.453,1.994-4.441,4.453-4.441c2.461,0,4.455,1.988,4.455,4.441C283.762,111.957,281.768,113.948,279.307,113.948z
		 M279.307,106.323c-1.76,0-3.191,1.43-3.191,3.184s1.432,3.182,3.191,3.182s3.191-1.428,3.191-3.182
		S281.067,106.323,279.307,106.323z"/>
</g>
</svg>
