<?xml version="1.0" encoding="utf-8"?>
<!-- Generator: Adobe Illustrator 16.0.0, SVG Export Plug-In . SVG Version: 6.00 Build 0)  -->
<!DOCTYPE svg PUBLIC "-//W3C//DTD SVG 1.1//EN" "http://www.w3.org/Graphics/SVG/1.1/DTD/svg11.dtd">
<svg version="1.1" id="レイヤー_1" xmlns="http://www.w3.org/2000/svg" xmlns:xlink="http://www.w3.org/1999/xlink" x="0px"
	 y="0px" width="398.689px" height="195.348px" viewBox="0 0 398.689 195.348" enable-background="new 0 0 398.689 195.348"
	 xml:space="preserve">
<g>
	<g>
		<g>
			<g>
				<path fill-rule="evenodd" clip-rule="evenodd" fill="#0228CC" d="M398.689,69.782C398.674,31.258,367.389,0.015,328.813,0
					c-38.576-0.018-69.836,31.201-69.82,69.725c0.011,27.169,15.583,50.697,38.285,62.226l-13.719,7.546l46.256,0.02v-0.027
					C367.953,138.994,398.705,107.993,398.689,69.782z"/>
			</g>
		</g>
	</g>
	<g>
		<path fill="#FFFFFF" d="M301.154,55.741h-5.52v2.339c0,0.714-0.182,1.079-0.756,1.275c-0.575,0.182-1.401,0.196-2.62,0.196
			c-0.098-0.364-0.35-0.897-0.546-1.261c0.98,0.042,1.961,0.042,2.241,0.028s0.35-0.07,0.35-0.28v-2.297h-5.463v-1.205h5.463V53.57
			h0.659c0.546-0.294,1.106-0.672,1.582-1.051h-5.322v-1.135h6.569l0.28-0.07l0.841,0.63c-0.841,0.896-2.073,1.793-3.278,2.409
			v0.182h5.52V55.741z M290.298,52.169h-1.219v-3.208h2.018c-0.252-0.504-0.687-1.135-1.093-1.611l1.12-0.504
			c0.505,0.56,1.065,1.345,1.303,1.877l-0.504,0.238h2.592c-0.196-0.561-0.603-1.331-0.98-1.919l1.134-0.42
			c0.477,0.63,0.953,1.513,1.135,2.073l-0.687,0.267h2.368c0.49-0.645,1.036-1.527,1.358-2.186l1.373,0.435
			c-0.406,0.602-0.869,1.218-1.303,1.751h2.03v3.208h-1.288V50.11h-9.357V52.169z"/>
		<path fill="#FFFFFF" d="M315.21,57.856v1.261h-12.438v-1.261h5.547v-3.222h-3.992v-1.247h3.992v-2.802h-3.109
			c-0.435,0.841-0.896,1.583-1.388,2.171c-0.266-0.224-0.84-0.603-1.19-0.785c1.135-1.19,2.018-3.109,2.535-5.071l1.345,0.309
			c-0.21,0.714-0.462,1.429-0.728,2.101h2.535v-2.605h1.345v2.605h4.874v1.274h-4.874v2.802h4.356v1.247h-4.356v3.222H315.21z"/>
		<path fill="#FFFFFF" d="M317.864,49.004c1.009-0.098,3.488-0.336,6.037-0.546c1.471-0.126,2.872-0.21,3.811-0.238l0.014,1.415
			c-0.771,0-1.975,0.014-2.703,0.196c-1.835,0.561-3.054,2.521-3.054,4.16c0,2.536,2.354,3.362,4.637,3.474l-0.505,1.485
			c-2.718-0.141-5.561-1.597-5.561-4.65c0-2.102,1.219-3.782,2.339-4.497c-1.204,0.126-4.608,0.462-6.163,0.798l-0.141-1.527
			C317.107,49.06,317.584,49.032,317.864,49.004z M326.913,53.094l-0.868,0.393c-0.336-0.714-0.7-1.359-1.121-1.961l0.841-0.364
			C326.101,51.651,326.619,52.506,326.913,53.094z M328.51,52.45l-0.854,0.42c-0.364-0.714-0.729-1.331-1.177-1.933l0.841-0.378
			C327.655,51.035,328.202,51.875,328.51,52.45z"/>
		<path fill="#FFFFFF" d="M334.274,55.938c-0.28-0.434-0.868-1.163-1.4-1.779v5.393h-1.275v-4.889
			c-0.532,0.575-1.078,1.093-1.61,1.499c-0.141-0.322-0.49-0.938-0.7-1.163c1.442-1.022,2.97-2.802,3.852-4.608h-3.474V49.2h1.933
			v-2.507h1.275V49.2h0.924l0.238-0.056l0.729,0.491c-0.435,1.134-1.051,2.255-1.765,3.264c0.126,0.112,0.294,0.266,0.462,0.434
			c0.351-0.462,0.771-1.079,1.022-1.513l0.854,0.687c-0.462,0.49-0.91,1.022-1.288,1.4c0.434,0.435,0.854,0.854,1.008,1.037
			L334.274,55.938z M342.049,48.569c-0.154,7.032-0.309,9.413-0.826,10.114c-0.322,0.504-0.645,0.658-1.135,0.714
			c-0.477,0.084-1.247,0.056-2.004,0.028c-0.014-0.364-0.182-0.953-0.42-1.345c0.784,0.07,1.499,0.07,1.808,0.07
			c0.252,0.014,0.392-0.042,0.546-0.238c0.406-0.476,0.561-2.773,0.687-8.811h-2.451c-0.112,3.979-0.477,8.153-3.628,10.464
			c-0.225-0.336-0.645-0.771-0.995-1.009c2.998-2.031,3.208-5.841,3.278-9.455h-2.199v-1.232h7.34V48.569z"/>
		<path fill="#FFFFFF" d="M352.574,47.589c-0.098,0.35-0.21,0.911-0.28,1.219c-0.056,0.238-0.112,0.49-0.182,0.742
			c2.199,0.435,3.698,2.171,3.698,4.567c0,2.843-2.031,4.538-4.959,4.958l-0.841-1.261c2.956-0.266,4.385-1.793,4.385-3.754
			c0-1.695-0.995-2.956-2.605-3.292c-0.505,1.695-1.163,3.404-1.961,4.581c0.252,0.336,0.532,0.645,0.813,0.911l-1.106,0.896
			c-0.196-0.224-0.393-0.448-0.575-0.687c-0.882,1.022-1.709,1.611-2.731,1.611c-1.106,0-2.059-0.911-2.059-2.619
			c0-1.583,0.84-3.264,2.101-4.329c-0.153-0.406-0.279-0.813-0.406-1.205c-0.14-0.476-0.294-0.911-0.504-1.345l1.457-0.448
			c0.084,0.406,0.196,0.869,0.294,1.275c0.084,0.294,0.182,0.63,0.294,0.966c1.121-0.616,2.228-0.896,3.376-0.924
			c0.07-0.294,0.141-0.575,0.183-0.841c0.056-0.336,0.098-0.854,0.084-1.176L352.574,47.589z M348.008,55.111
			c-0.42-0.658-0.868-1.639-1.274-2.703c-0.799,0.826-1.275,1.975-1.275,2.956c0,0.813,0.337,1.316,0.911,1.316
			c0.603,0,1.232-0.56,1.807-1.303L348.008,55.111z M349.002,54.159c0.561-0.967,1.079-2.228,1.457-3.474
			c-0.994,0.07-1.863,0.392-2.647,0.882c0.336,0.939,0.729,1.835,1.064,2.381L349.002,54.159z"/>
		<path fill="#FFFFFF" d="M358.717,48.934c1.022-0.084,3.488-0.322,6.037-0.546c1.485-0.112,2.872-0.196,3.824-0.224v1.401
			c-0.771,0-1.961,0.014-2.689,0.21c-1.849,0.546-3.067,2.521-3.067,4.161c0,2.521,2.354,3.362,4.65,3.459l-0.504,1.5
			c-2.718-0.141-5.575-1.597-5.575-4.665c0-2.087,1.219-3.768,2.354-4.497c-1.219,0.14-4.623,0.477-6.164,0.799l-0.153-1.527
			C357.975,48.99,358.451,48.962,358.717,48.934z"/>
		<path fill="#FFFFFF" d="M285.235,69.704c-0.14,0.224-0.294,0.574-0.392,0.854c-0.379,1.345-1.205,3.223-2.466,4.763
			c-1.289,1.583-2.983,2.872-5.603,3.881l-1.303-1.163c2.703-0.813,4.37-2.059,5.616-3.502c1.037-1.19,1.877-2.955,2.13-4.132
			h-4.371c-0.896,1.204-2.087,2.437-3.558,3.418l-1.232-0.911c2.438-1.457,3.74-3.403,4.398-4.637
			c0.168-0.279,0.406-0.854,0.518-1.26l1.625,0.532c-0.28,0.42-0.574,0.966-0.729,1.246c-0.056,0.112-0.126,0.238-0.195,0.351h3.361
			c0.393,0,0.784-0.042,1.051-0.141L285.235,69.704z"/>
		<path fill="#FFFFFF" d="M287.904,77.954c0.14-0.28,0.154-0.49,0.154-0.784v-7.83c0-0.448-0.057-1.093-0.126-1.415h1.736
			c-0.069,0.434-0.126,0.938-0.126,1.4v7.662c2.521-0.672,5.701-2.493,7.466-4.706l0.799,1.232
			c-1.863,2.283-4.763,3.979-8.166,5.028c-0.169,0.042-0.435,0.127-0.701,0.295L287.904,77.954z"/>
		<path fill="#FFFFFF" d="M303.277,72.715l-0.813,1.247c-0.729-0.532-2.228-1.484-3.109-1.961l0.798-1.205
			C301.022,71.272,302.619,72.253,303.277,72.715z M304.692,76.007c2.339-1.33,4.244-3.208,5.364-5.196l0.854,1.484
			c-1.261,1.905-3.207,3.698-5.477,5.015c-1.415,0.826-3.376,1.499-4.65,1.737l-0.826-1.443
			C301.513,77.338,303.222,76.819,304.692,76.007z M305.393,69.619l-0.841,1.205c-0.714-0.519-2.213-1.499-3.067-1.989l0.799-1.204
			C303.151,68.106,304.72,69.144,305.393,69.619z M309.595,70.025l-0.98,0.435c-0.378-0.799-0.771-1.526-1.261-2.199l0.952-0.406
			C308.67,68.401,309.272,69.382,309.595,70.025z M311.514,69.312l-0.98,0.435c-0.393-0.799-0.826-1.499-1.316-2.157l0.967-0.406
			C310.575,67.7,311.164,68.667,311.514,69.312z"/>
		<path fill="#FFFFFF" d="M315.248,74.172l-1.331,0.49c-0.238-0.742-0.967-2.647-1.274-3.193l1.316-0.477
			C314.281,71.637,314.981,73.416,315.248,74.172z M322.336,71.16c-0.126,0.351-0.21,0.603-0.267,0.841
			c-0.378,1.484-0.98,2.97-1.961,4.216c-1.289,1.653-3.025,2.773-4.608,3.391l-1.163-1.191c1.583-0.448,3.433-1.513,4.595-2.955
			c0.967-1.205,1.667-3.025,1.863-4.791L322.336,71.16z M318.344,73.304l-1.317,0.477c-0.168-0.659-0.798-2.41-1.12-3.082
			l1.316-0.435C317.475,70.853,318.161,72.688,318.344,73.304z"/>
		<path fill="#FFFFFF" d="M332.164,75.013c-1.485-0.799-3.755-1.681-5.296-2.186v4.328c0,0.435,0.042,1.289,0.112,1.793h-1.723
			c0.07-0.49,0.112-1.246,0.112-1.793V69.06c0-0.448-0.042-1.093-0.126-1.569h1.723c-0.042,0.463-0.099,1.079-0.099,1.569v2.185
			c1.85,0.561,4.525,1.555,5.926,2.241L332.164,75.013z"/>
		<path fill="#FFFFFF" d="M345.394,70.278c-0.042,0.237-0.069,0.532-0.084,0.714c-0.042,1.415-0.224,5.421-0.84,6.794
			c-0.295,0.645-0.771,0.952-1.625,0.952c-0.757,0-1.583-0.056-2.283-0.098l-0.168-1.471c0.714,0.098,1.456,0.168,2.03,0.168
			c0.421,0,0.645-0.126,0.799-0.477c0.477-0.98,0.658-4.146,0.658-5.659h-3.586c-0.519,3.895-1.905,6.037-4.314,7.732l-1.288-1.051
			c0.504-0.266,1.12-0.7,1.61-1.177c1.359-1.274,2.214-2.97,2.563-5.505h-2.129c-0.519,0-1.177,0.015-1.709,0.057v-1.457
			c0.532,0.042,1.162,0.084,1.709,0.084h2.255c0.028-0.42,0.042-0.868,0.042-1.331c0-0.322-0.042-0.896-0.098-1.219h1.639
			c-0.028,0.322-0.056,0.841-0.07,1.177c-0.014,0.477-0.042,0.938-0.069,1.373h3.025c0.364,0,0.687-0.042,0.967-0.084
			L345.394,70.278z"/>
		<path fill="#FFFFFF" d="M347.895,72.197c0.448,0.042,1.316,0.084,2.073,0.084h7.605c0.687,0,1.232-0.057,1.569-0.084v1.723
			c-0.309-0.014-0.938-0.056-1.555-0.056h-7.62c-0.785,0-1.611,0.027-2.073,0.056V72.197z"/>
		<path fill="#FFFFFF" d="M364.402,71.44c1.85,0.547,4.539,1.555,5.926,2.241l-0.617,1.513c-1.484-0.784-3.768-1.667-5.309-2.171
			l0.015,4.328c0,0.435,0.042,1.274,0.098,1.793h-1.709c0.07-0.49,0.112-1.261,0.112-1.793v-8.097c0-0.447-0.042-1.106-0.126-1.568
			h1.723c-0.042,0.462-0.112,1.064-0.112,1.568V71.44z M368.408,70.769c-0.363-0.799-0.756-1.471-1.232-2.144l0.938-0.406
			c0.379,0.546,0.967,1.457,1.275,2.115L368.408,70.769z M370.229,70.025c-0.406-0.798-0.798-1.442-1.288-2.101l0.938-0.435
			c0.378,0.519,0.98,1.429,1.303,2.073L370.229,70.025z"/>
		<path fill="#FFFFFF" d="M378.474,76.497c0.042-0.476,0.057-1.261,0.057-1.947c-1.177,0.659-1.919,1.289-1.919,2.102
			c0,0.952,0.896,1.135,2.297,1.135c1.12,0,2.634-0.141,3.852-0.364l-0.042,1.415c-1.008,0.126-2.604,0.237-3.852,0.237
			c-2.073,0-3.684-0.476-3.684-2.198c0-1.709,1.666-2.788,3.264-3.601c-0.169-0.49-0.616-0.687-1.121-0.687
			c-0.868,0-1.709,0.448-2.297,0.995c-0.406,0.392-0.813,0.896-1.275,1.484l-1.19-0.896c1.625-1.541,2.563-2.886,3.138-4.048h-0.406
			c-0.574,0-1.541-0.028-2.311-0.084v-1.303c0.728,0.098,1.723,0.154,2.381,0.154c0.267,0,0.532,0,0.813,0
			c0.182-0.631,0.294-1.233,0.322-1.667l1.442,0.111c-0.084,0.364-0.196,0.896-0.392,1.499c1.372-0.056,2.829-0.182,4.104-0.406
			v1.289c-1.358,0.21-3.067,0.322-4.566,0.378c-0.28,0.616-0.645,1.261-1.05,1.807c0.434-0.252,1.218-0.405,1.765-0.405
			c0.868,0,1.583,0.405,1.849,1.176c0.854-0.406,1.569-0.7,2.228-0.994c0.462-0.21,0.868-0.393,1.316-0.616l0.547,1.288
			c-0.379,0.112-0.981,0.337-1.401,0.505c-0.714,0.266-1.61,0.645-2.577,1.093c0.014,0.784,0.042,1.891,0.056,2.549H378.474z"/>
		<path fill="#FFFFFF" d="M295.123,87.141c-0.379,0.98-0.854,1.988-1.387,2.927v9.455h-1.317v-7.396
			c-0.364,0.504-0.756,0.967-1.148,1.373c-0.126-0.322-0.504-1.051-0.729-1.345c1.331-1.317,2.577-3.362,3.334-5.407L295.123,87.141
			z M299.353,90.236v1.778h3.811v1.19h-3.811v1.863h4.007v1.219h-4.007v3.25h-1.33v-9.301h-0.785
			c-0.588,1.092-1.232,2.072-1.904,2.815c-0.21-0.225-0.715-0.687-1.009-0.883c1.232-1.289,2.354-3.306,3.025-5.323l1.247,0.337
			c-0.225,0.602-0.463,1.219-0.729,1.807h5.631v1.247H299.353z"/>
		<path fill="#FFFFFF" d="M306,92.337c0.966-0.308,3.277-1.12,4.931-1.12c2.072,0,3.516,1.232,3.516,3.222
			c0,2.605-2.409,4.118-6.443,4.37l-0.574-1.358c3.067-0.099,5.574-0.938,5.574-3.04c0-1.106-0.868-1.905-2.185-1.905
			c-1.681,0-4.595,1.205-5.604,1.625l-0.588-1.442C305.033,92.604,305.579,92.478,306,92.337z"/>
		<path fill="#FFFFFF" d="M316.374,88.934c1.022-0.084,3.488-0.322,6.037-0.547c1.485-0.112,2.872-0.196,3.824-0.224v1.4
			c-0.771,0-1.961,0.014-2.689,0.21c-1.849,0.547-3.067,2.521-3.067,4.16c0,2.521,2.353,3.362,4.65,3.46l-0.505,1.499
			c-2.717-0.14-5.574-1.597-5.574-4.664c0-2.088,1.218-3.769,2.353-4.497c-1.219,0.141-4.622,0.477-6.163,0.799l-0.154-1.527
			C315.632,88.989,316.107,88.961,316.374,88.934z"/>
		<path fill="#FFFFFF" d="M339.97,96.357c-0.393-0.351-0.841-0.7-1.331-1.037c-0.588,1.695-1.652,2.97-3.586,3.965l-1.177-0.967
			c2.157-0.91,3.138-2.325,3.601-3.727c-1.093-0.588-2.325-1.05-3.656-1.19c-0.519,1.205-1.163,2.718-1.681,3.488
			c-0.519,0.756-1.121,1.078-1.934,1.078c-1.106,0-1.947-0.784-1.947-2.059c0-2.087,1.92-3.698,4.665-3.796
			c0.448-1.009,0.91-2.088,1.289-2.844c-0.547,0.014-2.018,0.084-2.647,0.126c-0.295,0.014-0.729,0.056-1.079,0.098l-0.056-1.429
			c0.364,0.028,0.798,0.042,1.093,0.042c0.756,0,2.423-0.069,3.039-0.126c0.294-0.014,0.589-0.084,0.799-0.168l0.868,0.7
			c-0.154,0.168-0.294,0.322-0.406,0.519c-0.364,0.603-0.925,1.905-1.471,3.151c1.247,0.168,2.409,0.561,3.432,1.022
			c0.042-0.266,0.07-0.532,0.084-0.784c0.028-0.434,0.028-0.924,0-1.373l1.429,0.154c-0.042,0.967-0.126,1.835-0.279,2.634
			c0.63,0.351,1.162,0.714,1.597,1.009L339.97,96.357z M332.35,93.388c-1.793,0.21-2.802,1.274-2.802,2.325
			c0,0.49,0.322,0.799,0.687,0.799c0.294,0,0.504-0.112,0.784-0.477C331.439,95.446,331.901,94.382,332.35,93.388z"/>
		<path fill="#FFFFFF" d="M349.165,90.306c-0.868,0.196-1.835,0.351-2.787,0.463c-0.127,0.602-0.28,1.219-0.435,1.807
			c-0.504,1.961-1.429,4.818-2.186,6.388l-1.541-0.519c0.841-1.415,1.836-4.272,2.354-6.22c0.126-0.42,0.238-0.882,0.336-1.33
			c-0.392,0.014-0.756,0.027-1.106,0.027c-0.644,0-1.148-0.027-1.652-0.056l-0.028-1.373c0.673,0.084,1.163,0.112,1.695,0.112
			c0.434,0,0.896-0.014,1.387-0.056c0.069-0.406,0.14-0.771,0.168-1.022c0.056-0.448,0.07-0.953,0.042-1.261l1.694,0.126
			c-0.098,0.35-0.21,0.91-0.266,1.19l-0.168,0.813c0.84-0.112,1.694-0.28,2.493-0.477V90.306z M348.73,95.026
			c-0.111,0.435-0.195,0.868-0.195,1.205c0,0.63,0.336,1.19,2.101,1.19c0.91,0,1.863-0.112,2.773-0.28l-0.042,1.415
			c-0.771,0.112-1.695,0.196-2.745,0.196c-2.256,0-3.418-0.743-3.418-2.115c0-0.574,0.098-1.163,0.21-1.737L348.73,95.026z
			 M348.185,91.608c0.742-0.084,1.694-0.14,2.591-0.14c0.799,0,1.64,0.042,2.424,0.126l-0.042,1.331
			c-0.7-0.085-1.527-0.169-2.354-0.169c-0.91,0-1.765,0.042-2.619,0.141V91.608z"/>
		<path fill="#FFFFFF" d="M357.437,90.096c-0.015,0.868,0,2.045,0.098,3.124c0.21,2.185,0.771,3.642,1.695,3.642
			c0.7,0,1.303-1.513,1.61-2.787l1.121,1.303c-0.883,2.381-1.737,3.207-2.76,3.207c-1.4,0-2.689-1.345-3.067-5
			c-0.141-1.219-0.154-2.872-0.154-3.712c0-0.351-0.014-0.925-0.098-1.303l1.694,0.027
			C357.506,89.003,357.437,89.718,357.437,90.096z M367.157,95.867l-1.442,0.56c-0.225-2.381-1.022-5.364-2.424-7.018l1.387-0.462
			C365.953,90.558,366.976,93.611,367.157,95.867z"/>
	</g>
</g>
<g>
	<g>
		<g>
			<g>
				<path fill-rule="evenodd" clip-rule="evenodd" fill="#0228CC" d="M139.697,69.725C139.713,31.201,108.453-0.018,69.877,0
					C31.301,0.015,0.016,31.258,0,69.782c-0.016,38.211,30.737,69.212,68.875,69.706v0.027l46.256-0.02l-13.719-7.546
					C124.114,120.422,139.686,96.894,139.697,69.725z"/>
			</g>
		</g>
	</g>
	<g>
		<path fill="#FFFFFF" d="M32.231,52.632l-0.812,1.247c-0.743-0.532-2.228-1.485-3.124-1.961l0.798-1.205
			C29.976,51.189,31.573,52.169,32.231,52.632z M33.646,55.923c2.339-1.331,4.23-3.208,5.365-5.197l0.84,1.485
			c-1.247,1.905-3.193,3.698-5.463,5.015c-1.415,0.827-3.375,1.499-4.65,1.737l-0.826-1.442
			C30.466,57.254,32.175,56.736,33.646,55.923z M34.333,49.536l-0.827,1.205c-0.714-0.519-2.213-1.513-3.082-2.003l0.798-1.205
			C32.091,48.023,33.674,49.06,34.333,49.536z"/>
		<path fill="#FFFFFF" d="M47.802,59.341c0.014-0.126,0.014-0.35,0.014-0.56h-5.491c-0.42,0-0.938,0.027-1.177,0.027v-1.372
			c0.238,0.028,0.687,0.056,1.177,0.056h5.491v-2.213h-4.791c-0.518,0-1.078,0-1.387,0.028v-1.331
			c0.322,0.014,0.869,0.042,1.373,0.042h4.805v-2.059h-4.945c-0.434,0-1.275,0.028-1.555,0.056v-1.358
			c0.308,0.042,1.121,0.056,1.555,0.056h5.365c0.322,0,0.756-0.014,0.953-0.014c-0.014,0.168-0.014,0.532-0.014,0.813v6.99
			c0,0.224,0.014,0.616,0.028,0.84H47.802z"/>
		<path fill="#FFFFFF" d="M53.861,54.172l-1.331,0.49c-0.238-0.742-0.967-2.647-1.275-3.193l1.317-0.477
			C52.895,51.637,53.595,53.416,53.861,54.172z M60.949,51.161c-0.126,0.35-0.21,0.602-0.266,0.84
			c-0.378,1.485-0.98,2.969-1.961,4.216c-1.289,1.653-3.026,2.773-4.609,3.39l-1.163-1.19c1.583-0.448,3.432-1.513,4.595-2.956
			c0.966-1.205,1.667-3.026,1.863-4.791L60.949,51.161z M56.957,53.304L55.64,53.78c-0.168-0.658-0.798-2.409-1.121-3.082
			l1.317-0.434C56.088,50.853,56.775,52.688,56.957,53.304z"/>
		<path fill="#FFFFFF" d="M65.117,52.043c1.653-0.406,3.754-1.064,5.112-1.639c0.448-0.182,0.883-0.392,1.331-0.672
			c-0.28-0.294-0.462-0.686-0.462-1.134c0-0.883,0.729-1.611,1.61-1.611c0.896,0,1.625,0.728,1.625,1.611
			c0,0.896-0.729,1.611-1.625,1.611c-0.42,0-0.798-0.168-1.093-0.435l0.589,1.359c-0.462,0.182-1.022,0.434-1.471,0.588
			c-1.499,0.603-3.852,1.317-5.617,1.779v2.858c0,0.672,0.294,0.84,0.953,0.98c0.42,0.07,1.079,0.098,1.751,0.098
			c1.471,0,3.669-0.154,4.819-0.462v1.611c-1.261,0.182-3.362,0.28-4.903,0.28c-0.868,0-1.708-0.042-2.297-0.141
			c-1.135-0.21-1.779-0.77-1.779-1.947v-7.676c0-0.322-0.028-0.896-0.098-1.26h1.639c-0.056,0.364-0.084,0.868-0.084,1.26V52.043z
			 M73.591,48.598c0-0.477-0.393-0.883-0.883-0.883c-0.476,0-0.868,0.406-0.868,0.883c0,0.476,0.393,0.868,0.868,0.868
			C73.199,49.466,73.591,49.074,73.591,48.598z"/>
		<path fill="#FFFFFF" d="M81.065,55.419c2.255-1.387,4.006-3.488,4.86-5.281l0.854,1.527c-1.009,1.807-2.731,3.726-4.917,5.071
			c-1.414,0.869-3.193,1.695-5.364,2.087L75.56,57.38C77.899,57.03,79.72,56.246,81.065,55.419z M80.588,50.937l-1.106,1.135
			c-0.729-0.742-2.466-2.255-3.502-2.97l1.022-1.092C77.998,48.667,79.804,50.125,80.588,50.937z"/>
		<path fill="#FFFFFF" d="M96.382,49.48c0.392,0,0.784-0.042,1.05-0.14l1.149,0.7c-0.141,0.225-0.295,0.575-0.393,0.854
			c-0.378,1.345-1.205,3.222-2.466,4.763c-1.288,1.583-2.983,2.872-5.603,3.866l-1.303-1.163c2.703-0.798,4.37-2.045,5.617-3.488
			c1.036-1.205,1.877-2.956,2.129-4.132h-4.385c-0.882,1.205-2.087,2.437-3.544,3.418l-1.232-0.911
			c2.438-1.471,3.74-3.404,4.398-4.637c0.168-0.294,0.406-0.854,0.519-1.261l1.625,0.533c-0.28,0.42-0.574,0.952-0.729,1.232
			c-0.07,0.126-0.126,0.238-0.21,0.364H96.382z M97.502,47.127c0.351,0.504,0.854,1.373,1.135,1.919l-0.925,0.392
			c-0.28-0.561-0.729-1.401-1.106-1.933L97.502,47.127z M99.085,46.524c0.378,0.518,0.91,1.401,1.162,1.905l-0.91,0.406
			c-0.294-0.602-0.756-1.4-1.148-1.933L99.085,46.524z"/>
		<path fill="#FFFFFF" d="M101.544,49.004c1.009-0.098,3.487-0.336,6.037-0.546c1.471-0.126,2.871-0.21,3.81-0.238l0.015,1.415
			c-0.771,0-1.976,0.014-2.704,0.196c-1.835,0.561-3.054,2.521-3.054,4.16c0,2.536,2.354,3.362,4.637,3.474l-0.504,1.485
			c-2.718-0.141-5.562-1.597-5.562-4.65c0-2.102,1.219-3.782,2.34-4.497c-1.205,0.126-4.608,0.462-6.163,0.798l-0.141-1.527
			C100.788,49.06,101.264,49.032,101.544,49.004z M110.593,53.094l-0.868,0.393c-0.337-0.714-0.701-1.359-1.121-1.961l0.841-0.364
			C109.781,51.651,110.299,52.506,110.593,53.094z M112.19,52.45l-0.854,0.42c-0.364-0.714-0.729-1.331-1.177-1.933L111,50.559
			C111.335,51.035,111.881,51.875,112.19,52.45z"/>
		<path fill="#FFFFFF" d="M17.404,70.418c-0.477,1.205-1.261,2.409-2.059,3.193c-0.224-0.21-0.729-0.588-1.009-0.784
			c0.771-0.672,1.457-1.694,1.849-2.718L17.404,70.418z M20.108,72.701c-0.252,0.883-0.575,1.695-0.939,2.451
			c0.645,0.589,1.219,1.177,1.597,1.667l-0.84,1.064c-0.322-0.462-0.827-1.022-1.415-1.61c-0.854,1.345-1.947,2.423-3.25,3.249
			c-0.168-0.266-0.63-0.798-0.896-1.036c1.331-0.729,2.409-1.779,3.208-3.096c-0.574-0.532-1.19-1.036-1.765-1.484l0.757-0.896
			c0.518,0.378,1.064,0.813,1.611,1.274c0.266-0.589,0.476-1.19,0.658-1.849L20.108,72.701z M21.424,69.704h-6.766v-1.177h2.802
			v-1.779h1.274v1.779h2.689V69.704z M20.458,73.163c-0.266-0.728-0.967-1.862-1.625-2.675l1.022-0.505
			c0.687,0.785,1.401,1.85,1.681,2.592L20.458,73.163z M27.027,69.83c0,0,0,0.448-0.014,0.616c-0.126,5.785-0.238,7.773-0.686,8.376
			c-0.28,0.421-0.561,0.532-1.009,0.589c-0.42,0.069-1.106,0.056-1.779,0.027c-0.028-0.35-0.168-0.868-0.364-1.219
			c0.687,0.057,1.289,0.07,1.555,0.07c0.238,0,0.378-0.042,0.504-0.238c0.308-0.378,0.448-2.157,0.561-6.976h-1.751
			c-0.182,3.586-0.785,6.611-2.956,8.517c-0.21-0.294-0.63-0.729-0.953-0.924c1.989-1.682,2.535-4.371,2.675-7.593h-1.527V69.83
			h1.569c0.028-0.953,0.028-1.947,0.028-2.97h1.247c0,1.022-0.014,2.003-0.042,2.97H27.027z"/>
		<path fill="#FFFFFF" d="M31.895,73.752c-0.911,0.435-1.849,0.868-2.62,1.219l-0.63-1.064c0.883-0.295,2.213-0.827,3.502-1.359
			l0.238,0.98l-0.238,0.112l0.883-0.042c0.308-0.294,0.644-0.63,0.98-0.98c-0.546-0.477-1.331-1.051-1.975-1.471l0.63-0.729
			c0.126,0.07,0.238,0.14,0.378,0.225c0.294-0.406,0.603-0.883,0.84-1.289h-4.706v-1.19h5.057v-1.471h1.345v1.471h5.197v1.19h-5.897
			l0.294,0.112c-0.435,0.574-0.938,1.19-1.359,1.681c0.322,0.224,0.645,0.462,0.911,0.672c0.518-0.602,1.008-1.204,1.373-1.736
			l1.037,0.476c-0.827,0.967-1.835,2.073-2.788,2.984l1.975-0.099c-0.21-0.322-0.448-0.645-0.672-0.924l0.938-0.406
			c0.238,0.294,0.504,0.616,0.743,0.952l0.798-0.645c1.037,0.505,2.381,1.289,3.082,1.85l-0.966,0.813
			c-0.588-0.533-1.793-1.303-2.802-1.836c0.35,0.49,0.645,0.995,0.798,1.387l-0.994,0.491c-0.084-0.225-0.21-0.477-0.364-0.757
			c-1.737,0.14-3.46,0.266-4.805,0.364L31.895,73.752z M35.579,75.685h5.603v1.205h-5.603v2.676h-1.345V76.89h-5.491v-1.205h5.491
			v-1.008h1.345V75.685z M29.961,69.815c0.756,0.393,1.723,1.022,2.199,1.471l-0.911,0.785c-0.448-0.448-1.401-1.107-2.143-1.556
			L29.961,69.815z M37.512,71.412c0.658-0.462,1.541-1.218,2.031-1.765l1.163,0.574c-0.7,0.645-1.569,1.289-2.241,1.709
			L37.512,71.412z"/>
		<path fill="#FFFFFF" d="M52.367,78.374c-0.854-0.854-2.017-1.709-3.362-2.255c0.014,0.294,0.014,0.546,0.014,0.742
			c0,1.177-0.672,2.241-2.731,2.241c-1.933,0-3.446-0.63-3.446-2.339c0-1.345,1.163-2.424,3.614-2.424
			c0.35,0,0.686,0.028,1.022,0.057c-0.042-1.093-0.098-2.325-0.098-3.11c0-0.826-0.014-1.82-0.014-2.409
			c-0.014-0.588-0.056-1.19-0.126-1.484h1.667c-0.056,0.336-0.098,1.009-0.126,1.484c-0.014,0.351,0,0.771,0,1.219
			c1.106-0.014,2.801-0.084,4.006-0.224l0.056,1.316c-1.219,0.112-2.941,0.182-4.062,0.21c0,0.883,0.084,2.157,0.14,3.292
			c1.793,0.504,3.306,1.471,4.286,2.367L52.367,78.374z M47.534,75.699c-0.406-0.084-0.826-0.126-1.26-0.126
			c-1.275,0-2.017,0.434-2.017,1.12c0,0.729,0.742,1.079,1.905,1.079c0.967,0,1.387-0.435,1.387-1.373
			C47.548,76.217,47.548,75.979,47.534,75.699z"/>
		<path fill="#FFFFFF" d="M62.25,68.247c-0.351,0.266-0.785,0.645-1.065,0.854c-0.924,0.784-2.843,2.297-3.824,3.123
			c-0.799,0.687-0.799,0.869,0.028,1.569c1.163,0.967,3.782,3.082,5.141,4.426l-1.261,1.163c-0.336-0.393-0.728-0.771-1.064-1.135
			c-0.756-0.813-2.998-2.703-4.272-3.782c-1.345-1.12-1.205-1.807,0.098-2.899c1.065-0.896,3.082-2.493,4.021-3.432
			c0.322-0.336,0.728-0.742,0.91-1.036L62.25,68.247z"/>
		<path fill="#FFFFFF" d="M68.421,73.359c-0.616,1.219-1.905,3.025-2.689,3.866l-1.205-0.826c0.924-0.869,2.087-2.479,2.647-3.643
			L68.421,73.359z M71.489,71.272v6.668c0,0.756-0.393,1.19-1.303,1.19c-0.673,0-1.499-0.028-2.129-0.099l-0.126-1.387
			c0.602,0.112,1.232,0.154,1.597,0.154s0.518-0.14,0.533-0.519v-6.009h-3.74c-0.435,0-0.883,0.014-1.261,0.042v-1.471
			c0.392,0.042,0.813,0.084,1.247,0.084h3.754v-1.303c0-0.322-0.057-0.868-0.112-1.093H71.6c-0.042,0.196-0.111,0.784-0.111,1.106
			v1.289h3.516c0.364,0,0.883-0.028,1.247-0.084v1.457c-0.406-0.028-0.883-0.028-1.233-0.028H71.489z M74.346,72.743
			c0.742,0.896,1.849,2.661,2.409,3.67l-1.289,0.729c-0.574-1.148-1.61-2.871-2.325-3.74L74.346,72.743z M73.757,68.022
			c0-0.868,0.701-1.568,1.569-1.568s1.583,0.7,1.583,1.568c0,0.869-0.715,1.569-1.583,1.569S73.757,68.892,73.757,68.022z
			 M74.5,68.022c0,0.477,0.364,0.841,0.826,0.841s0.841-0.364,0.841-0.841c0-0.462-0.379-0.84-0.841-0.84S74.5,67.561,74.5,68.022z"
			/>
		<path fill="#FFFFFF" d="M85.238,77.31c0,0.574,0.028,1.345,0.098,1.653h-1.736c0.042-0.309,0.084-1.079,0.084-1.653v-4.986
			c-1.471,0.784-3.334,1.568-5.071,2.059l-0.798-1.358c2.396-0.546,4.763-1.583,6.317-2.55c1.415-0.882,2.871-2.129,3.656-3.138
			l1.19,1.079c-1.009,1.009-2.325,2.101-3.74,3.012V77.31z"/>
		<path fill="#FFFFFF" d="M96.157,75.419c2.255-1.387,4.006-3.488,4.86-5.281l0.854,1.527c-1.009,1.807-2.731,3.726-4.917,5.07
			c-1.414,0.868-3.193,1.695-5.364,2.087l-0.938-1.442C92.991,77.029,94.812,76.245,96.157,75.419z M95.68,70.937l-1.106,1.135
			c-0.729-0.743-2.466-2.256-3.502-2.97l1.022-1.093C93.089,68.667,94.896,70.124,95.68,70.937z"/>
		<path fill="#FFFFFF" d="M111.334,75.013c-1.484-0.799-3.754-1.681-5.295-2.186v4.328c0,0.435,0.042,1.289,0.112,1.793h-1.723
			c0.069-0.49,0.111-1.246,0.111-1.793V69.06c0-0.448-0.042-1.093-0.126-1.569h1.724c-0.042,0.463-0.099,1.079-0.099,1.569v2.185
			c1.85,0.561,4.524,1.555,5.926,2.241L111.334,75.013z"/>
		<path fill="#FFFFFF" d="M119.802,76.497c0.042-0.476,0.057-1.261,0.057-1.947c-1.177,0.659-1.919,1.289-1.919,2.102
			c0,0.952,0.896,1.135,2.297,1.135c1.12,0,2.634-0.141,3.853-0.364l-0.043,1.415c-1.008,0.126-2.604,0.237-3.852,0.237
			c-2.073,0-3.684-0.476-3.684-2.198c0-1.709,1.666-2.788,3.264-3.601c-0.168-0.49-0.617-0.687-1.121-0.687
			c-0.868,0-1.709,0.448-2.297,0.995c-0.406,0.392-0.813,0.896-1.275,1.484l-1.19-0.896c1.625-1.541,2.563-2.886,3.138-4.048h-0.406
			c-0.574,0-1.541-0.028-2.311-0.084v-1.303c0.728,0.098,1.723,0.154,2.381,0.154c0.267,0,0.532,0,0.813,0
			c0.182-0.631,0.294-1.233,0.322-1.667l1.442,0.111c-0.084,0.364-0.196,0.896-0.392,1.499c1.372-0.056,2.829-0.182,4.104-0.406
			v1.289c-1.358,0.21-3.067,0.322-4.566,0.378c-0.28,0.616-0.645,1.261-1.051,1.807c0.435-0.252,1.219-0.405,1.766-0.405
			c0.868,0,1.583,0.405,1.849,1.176c0.854-0.406,1.569-0.7,2.228-0.994c0.462-0.21,0.868-0.393,1.316-0.616l0.547,1.288
			c-0.379,0.112-0.98,0.337-1.401,0.505c-0.714,0.266-1.61,0.645-2.577,1.093c0.014,0.784,0.042,1.891,0.056,2.549H119.802z"/>
		<path fill="#FFFFFF" d="M45.866,96.554c-0.392,1.134-1.079,2.283-1.779,3.012c-0.238-0.211-0.743-0.575-1.037-0.743
			c0.7-0.63,1.274-1.597,1.597-2.577L45.866,96.554z M48.472,96.035h-4.651v-8.811h4.651V96.035z M47.211,88.289h-2.185v1.541h2.185
			V88.289z M47.211,90.838h-2.185v1.569h2.185V90.838z M47.211,93.388h-2.185v1.597h2.185V93.388z M47.547,96.217
			c0.561,0.687,1.121,1.611,1.387,2.228l-1.079,0.546c-0.252-0.63-0.812-1.597-1.345-2.311L47.547,96.217z M56.021,92.939h-2.927
			v5.169c0,0.672-0.14,1.008-0.603,1.219c-0.476,0.182-1.177,0.195-2.185,0.195c-0.042-0.35-0.238-0.854-0.406-1.204
			c0.714,0.028,1.415,0.028,1.639,0.014c0.21-0.014,0.266-0.069,0.266-0.252v-5.141h-2.983v-1.205h7.2V92.939z M50.11,90.866h-1.163
			v-2.535h2.802v-1.639h1.289v1.639h2.83v2.535h-1.205v-1.429H50.11V90.866z"/>
		<path fill="#FFFFFF" d="M66.268,87.589c-0.098,0.35-0.21,0.91-0.28,1.219c-0.056,0.237-0.112,0.49-0.182,0.742
			c2.199,0.434,3.698,2.171,3.698,4.566c0,2.844-2.031,4.538-4.958,4.958l-0.841-1.26c2.956-0.267,4.385-1.793,4.385-3.755
			c0-1.694-0.995-2.955-2.605-3.291c-0.504,1.694-1.163,3.403-1.961,4.58c0.252,0.336,0.533,0.645,0.813,0.91l-1.106,0.896
			c-0.196-0.224-0.392-0.448-0.574-0.686c-0.883,1.022-1.709,1.61-2.731,1.61c-1.107,0-2.059-0.91-2.059-2.619
			c0-1.583,0.84-3.264,2.101-4.328c-0.154-0.406-0.28-0.813-0.406-1.205c-0.14-0.477-0.294-0.91-0.504-1.345l1.457-0.448
			c0.084,0.406,0.196,0.868,0.294,1.274c0.084,0.295,0.182,0.631,0.294,0.967c1.12-0.616,2.227-0.896,3.375-0.925
			c0.07-0.294,0.14-0.574,0.182-0.84c0.056-0.337,0.098-0.854,0.084-1.177L66.268,87.589z M61.701,95.11
			c-0.42-0.658-0.869-1.639-1.275-2.703c-0.798,0.826-1.274,1.975-1.274,2.955c0,0.813,0.336,1.317,0.911,1.317
			c0.602,0,1.232-0.561,1.807-1.303L61.701,95.11z M62.696,94.158c0.56-0.967,1.079-2.228,1.457-3.474
			c-0.994,0.069-1.863,0.392-2.647,0.882c0.336,0.938,0.729,1.835,1.065,2.382L62.696,94.158z"/>
		<path fill="#FFFFFF" d="M78.629,90.306c-0.868,0.196-1.835,0.351-2.787,0.463c-0.127,0.602-0.28,1.219-0.435,1.807
			c-0.504,1.961-1.429,4.818-2.186,6.388l-1.541-0.519c0.841-1.415,1.836-4.272,2.354-6.22c0.126-0.42,0.238-0.882,0.336-1.33
			c-0.392,0.014-0.756,0.027-1.106,0.027c-0.644,0-1.148-0.027-1.652-0.056l-0.028-1.373c0.673,0.084,1.163,0.112,1.695,0.112
			c0.434,0,0.896-0.014,1.387-0.056c0.069-0.406,0.14-0.771,0.168-1.022c0.056-0.448,0.07-0.953,0.042-1.261l1.694,0.126
			c-0.098,0.35-0.21,0.91-0.266,1.19l-0.168,0.813c0.84-0.112,1.694-0.28,2.493-0.477V90.306z M78.195,95.026
			C78.083,95.461,78,95.895,78,96.231c0,0.63,0.336,1.19,2.101,1.19c0.91,0,1.863-0.112,2.773-0.28l-0.042,1.415
			c-0.771,0.112-1.695,0.196-2.745,0.196c-2.256,0-3.418-0.743-3.418-2.115c0-0.574,0.098-1.163,0.21-1.737L78.195,95.026z
			 M77.649,91.608c0.742-0.084,1.694-0.14,2.591-0.14c0.799,0,1.64,0.042,2.424,0.126l-0.042,1.331
			c-0.7-0.085-1.527-0.169-2.354-0.169c-0.91,0-1.765,0.042-2.619,0.141V91.608z"/>
		<path fill="#FFFFFF" d="M86.901,90.096c-0.015,0.868,0,2.045,0.098,3.124c0.21,2.185,0.771,3.642,1.695,3.642
			c0.7,0,1.303-1.513,1.61-2.787l1.121,1.303c-0.883,2.381-1.737,3.207-2.76,3.207c-1.4,0-2.689-1.345-3.067-5
			c-0.141-1.219-0.154-2.872-0.154-3.712c0-0.351-0.014-0.925-0.098-1.303l1.694,0.027C86.97,89.003,86.901,89.718,86.901,90.096z
			 M96.622,95.867l-1.442,0.56c-0.225-2.381-1.022-5.364-2.424-7.018l1.387-0.462C95.417,90.558,96.44,93.611,96.622,95.867z"/>
	</g>
</g>
<g>
	<g>
		<g>
			<g>
				<path fill="#FFD655" d="M195.037,46.681c-0.029-1.211-0.277-4.424-2.016-6.189c-0.271-0.277-0.576-0.563-0.9-0.863
					c-2.131-1.988-5.047-4.711-5.021-10.748c0.018-4.072,1.436-7.479,4.102-9.854c1.193-1.064,2.598-1.887,4.174-2.445
					c1.525-0.539,3.139-0.811,4.797-0.803c1.658,0.006,3.27,0.291,4.789,0.844c1.572,0.572,2.971,1.406,4.156,2.48
					c2.645,2.396,4.033,5.816,4.016,9.889c-0.025,6.035-2.965,8.734-5.113,10.703c-0.324,0.301-0.635,0.584-0.908,0.857
					c-1.752,1.75-2.027,4.961-2.066,6.172L195.037,46.681z"/>
				<path fill="#FFEB57" d="M200.17,16.239c1.605,0.008,3.164,0.281,4.635,0.816c1.516,0.553,2.861,1.355,4.002,2.389
					c2.545,2.307,3.881,5.605,3.865,9.545c-0.025,5.834-2.879,8.453-4.965,10.367c-0.328,0.301-0.641,0.586-0.922,0.867
					c-0.979,0.979-1.646,2.461-1.986,4.41c-0.107,0.619-0.164,1.184-0.193,1.627l-9.125-0.039c-0.025-0.443-0.078-1.01-0.18-1.629
					c-0.322-1.951-0.979-3.441-1.951-4.426c-0.277-0.283-0.586-0.57-0.914-0.877c-2.068-1.93-4.9-4.574-4.875-10.408
					c0.018-3.939,1.381-7.227,3.947-9.51c1.148-1.025,2.502-1.816,4.021-2.355C197.004,16.493,198.564,16.233,200.17,16.239
					 M200.174,15.317c-6.738-0.029-13.498,4.48-13.537,13.561c-0.029,7.182,4.043,9.893,6.057,11.936
					c2.012,2.045,1.883,6.328,1.883,6.328l10.924,0.047c0,0-0.092-4.285,1.939-6.311c2.029-2.027,6.125-4.703,6.156-11.885
					C213.635,19.911,206.914,15.345,200.174,15.317L200.174,15.317z"/>
			</g>
			<g>
				<polygon fill="#FFB839" points="199.24,39.78 198.051,40.435 192.402,28.769 				"/>
				<polygon fill="#FFB839" points="200.9,39.786 202.084,40.45 207.832,28.835 				"/>
			</g>
			<g>
				<path fill="#FFB839" d="M202.865,50.761l-5.684-0.025l0.85-10.811c0.072-0.92,0.969-1.865,2.047-1.859l0,0
					c1.078,0.004,1.965,0.955,2.029,1.877L202.865,50.761z"/>
				<path opacity="0.7" fill="#FF933B" d="M201.695,50.755l-3.344-0.014l0.518-10.564c0.043-0.732,0.57-1.24,1.205-1.236l0,0
					c0.633,0.002,1.156,0.516,1.193,1.246L201.695,50.755z"/>
			</g>
			<path opacity="0.1" fill="#333333" d="M205.799,44.325l-11.496-0.049c0.314,1.533,0.273,2.865,0.273,2.865l10.924,0.047
				C205.5,47.188,205.473,45.854,205.799,44.325z"/>
			
				<ellipse transform="matrix(0.603 -0.7977 0.7977 0.603 63.0429 172.5184)" opacity="0.25" fill="#FFFFFF" cx="204.854" cy="22.919" rx="3.741" ry="6.306"/>
			<path fill="#FFEE99" d="M206.549,28.905l-0.361,0.424c-0.215,0.25-0.426,0.502-0.637,0.752c-0.191-0.268-0.385-0.537-0.58-0.805
				l-0.65-0.898l-0.119-0.164l-0.133,0.162l-0.699,0.861c-0.18,0.221-0.359,0.441-0.535,0.662l-0.514-0.686
				c-0.221-0.295-0.443-0.592-0.668-0.889l-0.174-0.227l-0.178,0.227l-0.688,0.871l-0.502,0.641l-0.496-0.645l-0.68-0.877
				l-0.176-0.227l-0.176,0.225c-0.227,0.291-0.449,0.588-0.676,0.883l-0.518,0.682c-0.176-0.223-0.354-0.445-0.531-0.668
				l-0.691-0.867l-0.131-0.162l-0.119,0.162l-0.66,0.895c-0.197,0.264-0.393,0.531-0.586,0.797l-0.273-0.332l-0.357-0.426
				l-0.355-0.426l-0.359-0.422l0.314,0.457l0.32,0.455l0.318,0.453l0.322,0.453l0.07,0.096l0.078-0.096
				c0.238-0.283,0.477-0.566,0.711-0.854l0.574-0.697l0.541,0.734c0.219,0.295,0.436,0.596,0.66,0.891l0.152,0.203l0.16-0.201
				l0.695-0.867c0.17-0.215,0.34-0.428,0.512-0.641l0.498,0.656l0.674,0.881l0.182,0.236l0.184-0.234l0.682-0.877l0.502-0.65
				c0.168,0.215,0.338,0.428,0.508,0.645l0.686,0.873l0.16,0.203l0.154-0.201c0.225-0.293,0.445-0.59,0.668-0.887l0.547-0.729
				l0.568,0.701c0.23,0.289,0.467,0.574,0.703,0.861l0.078,0.096l0.07-0.096c0.219-0.299,0.436-0.6,0.65-0.9l0.322-0.451l0.32-0.457
				L206.549,28.905z"/>
		</g>
		<g>
			<g>
				<path fill="#D0D3D8" d="M197.563,58.132c-0.004,0.664,1.125,1.205,2.52,1.213c1.395,0.006,2.527-0.529,2.529-1.191
					L197.563,58.132z"/>
				<path fill="#A3A5AA" d="M195.383,56.612L195.383,56.612c-0.006,0.953,0.764,1.729,1.717,1.732l5.973,0.025
					c0.953,0.004,1.729-0.764,1.732-1.717L195.383,56.612z"/>
				<path fill="#D0D3D8" d="M193.707,53.743l-0.006,1.805c-0.004,0.855,0.688,1.555,1.545,1.559l9.689,0.039
					c0.857,0.006,1.557-0.686,1.559-1.545l0.01-1.803L193.707,53.743z"/>
				<g>
					<rect x="193.707" y="53.771" fill="#A3A5AA" width="12.795" height="0.254"/>
					<g>
						<path fill="#D0D3D8" d="M193.803,56.108c0.223,0.582,0.783,0.994,1.443,0.998l9.688,0.039L193.803,56.108z"/>
						<path fill="#A3A5AA" d="M193.703,54.874l-0.002,0.674c-0.002,0.197,0.035,0.385,0.102,0.561l11.131,1.037h0.002
							c0.857,0.006,1.557-0.686,1.559-1.545l0.004-0.672L193.703,54.874z"/>
					</g>
					<path fill="#D0D3D8" d="M193.707,53.997l-0.006,1.225l12.572,1.174c0.141-0.232,0.221-0.504,0.221-0.795l0.008-1.549
						L193.707,53.997z"/>
				</g>
				<polygon fill="#A3A5AA" points="193.709,53.442 193.705,54.437 206.494,55.63 206.504,53.497 				"/>
				<polygon fill="#D0D3D8" points="193.707,53.743 206.498,54.937 206.51,52.573 193.713,52.521 				"/>
				<polygon fill="#A3A5AA" points="193.711,53.097 206.502,54.29 206.51,52.157 193.715,52.104 				"/>
				<polygon fill="#D0D3D8" points="193.715,52.403 206.504,53.597 206.514,51.233 193.719,51.179 				"/>
				<polygon fill="#A3A5AA" points="193.717,51.849 206.506,53.044 206.516,50.911 193.721,50.854 				"/>
				<polygon fill="#D0D3D8" points="193.719,51.155 206.51,52.349 206.52,49.987 193.725,49.933 				"/>
				<polygon fill="#A3A5AA" points="193.723,50.509 206.512,51.704 206.521,49.571 193.727,49.517 				"/>
				<polygon fill="#D0D3D8" points="193.725,49.817 206.516,51.011 206.525,48.647 193.73,48.593 				"/>
				<polygon fill="#A3A5AA" points="193.729,49.169 206.518,50.362 206.527,48.231 193.732,48.177 				"/>
				<polygon fill="#D0D3D8" points="193.73,48.478 206.52,49.669 206.531,47.308 193.736,47.253 				"/>
				<polygon fill="#A3A5AA" points="193.734,47.784 206.523,48.978 206.531,47.308 193.736,47.253 				"/>
				<polygon fill="#D0D3D8" points="193.736,46.954 206.527,48.147 206.531,46.938 193.736,46.884 				"/>
			</g>
			
				<rect x="193.719" y="45.317" transform="matrix(1 0.0043 -0.0043 1 0.1994 -0.8549)" fill="#D0D3D8" width="12.795" height="1.801"/>
			<path fill="#989CA0" d="M207.367,47.472l-14.504-0.063c-0.27,0-0.484-0.219-0.484-0.484l0,0c0.002-0.27,0.219-0.484,0.486-0.484
				l14.506,0.063c0.268,0,0.484,0.219,0.482,0.486l0,0C207.852,47.257,207.635,47.474,207.367,47.472z"/>
		</g>
	</g>
	<g>
		<path fill="#01A2A5" d="M162.551,151.152c-1.438,3.404-1.908,5.074-0.992,8.139c7.518,0,15.041,0,22.568,0
			c-3.688-10.994-7.367-21.992-11.055-32.967C169.568,134.6,166.061,142.875,162.551,151.152z"/>
		<path fill="#01A2A5" d="M237.264,151.152c-3.506-8.277-7.018-16.553-10.521-24.828c-3.684,10.975-7.365,21.973-11.051,32.967
			c7.527,0,15.047,0,22.574,0C239.176,156.227,238.705,154.557,237.264,151.152z"/>
	</g>
	<path fill-rule="evenodd" clip-rule="evenodd" fill="#EBEBEB" d="M135.313,159.291h122.479c0.193,0,0.355,0.281,0.355,0.635v4.033
		c0,0.348-0.162,0.629-0.355,0.629H135.313c-0.205,0-0.361-0.281-0.361-0.629v-4.033
		C134.951,159.572,135.107,159.291,135.313,159.291L135.313,159.291z"/>
	<g>
		<rect x="137.908" y="164.588" fill="#EBEBEB" width="2.791" height="27.555"/>
		<rect x="253.01" y="168.754" fill="#EBEBEB" width="2.693" height="26.594"/>
	</g>
	<rect x="140.699" y="164.588" fill-rule="evenodd" clip-rule="evenodd" fill="#EBEBEB" width="111.691" height="13.768"/>
	<rect x="253.01" y="168.754" fill="#EBEBEB" width="2.693" height="2.436"/>
	<rect x="140.699" y="164.588" fill-rule="evenodd" clip-rule="evenodd" fill="#D8D9D9" width="111.691" height="2.525"/>
	<rect x="251.164" y="168.754" fill-rule="evenodd" clip-rule="evenodd" fill="#C3C4C4" width="1.846" height="13.287"/>
	<path fill-rule="evenodd" clip-rule="evenodd" fill="#592E25" d="M183.932,82.916c0,0,3.506,21.396-3.805,34.773l9.297,1.775
		l8.451-1.264l2.031-11.379l2.037,11.379l8.451,1.264l9.297-1.775c-7.314-13.377-3.805-34.773-3.805-34.773l-14.572-6.174
		l-1.408,29.85l-1.402-29.85L183.932,82.916z"/>
	<path fill-rule="evenodd" clip-rule="evenodd" fill="#4D2219" d="M198.4,115.225l1.506-8.402l1.512,8.402h11.469
		c0,0-3.754-12.432-2.506-24.852l-9.715,0.262l-0.76,15.957l-0.754-15.904l-11.01,0.301c0,0,2.508,10.66-1.264,24.236H198.4z"/>
	<path fill-rule="evenodd" clip-rule="evenodd" fill="#FEB67C" d="M199.906,137.107c8.613,0,17.225,0,25.854,0
		c-0.369-4.895,1.121-22.293-5.176-23.604c-3.924-0.824-7.838-1.631-11.768-2.455c-4.838-1.02-3.469-16.799-3.225-20.838
		c-2.545,2.158-3.123,4.529-5.686,6.686c-2.557-2.156-3.137-4.527-5.695-6.686c0.26,4.039,1.629,19.818-3.213,20.838
		c-3.93,0.824-7.836,1.631-11.768,2.455c-6.295,1.311-4.805,18.709-5.174,23.604C182.668,137.107,191.297,137.107,199.906,137.107
		L199.906,137.107z"/>
	<path fill-rule="evenodd" clip-rule="evenodd" fill="#F2AA70" d="M215.48,112.432l-6.664-1.383
		c-3.771-0.791-3.771-10.502-3.469-16.701l-3.266,0.158c-0.592,0.807-1.26,1.615-2.176,2.391c-0.838-0.723-1.471-1.461-2.031-2.189
		l-3.389,0.15c0.162,3.563,0.199,8.121-0.506,11.506c2.699,2.75,9.473,8.563,17.801,7.613
		C213.361,113.781,214.551,113.238,215.48,112.432L215.48,112.432z"/>
	<path fill-rule="evenodd" clip-rule="evenodd" fill="#01A2A5" d="M199.906,137.107c8.613,0,17.225,0,25.854,0
		c-0.369-4.895,1.121-22.293-5.176-23.604c-3.924-0.824-7.838-1.631-11.768-2.455c-0.244-0.057-0.492-0.158-0.721-0.299
		l-1.523,2.313l-3.996,1.439l-2.67-0.617l-2.666,0.617l-3.994-1.439l-1.531-2.313c-0.223,0.141-0.471,0.242-0.717,0.299
		c-3.93,0.824-7.836,1.631-11.768,2.455c-6.295,1.311-4.805,18.709-5.174,23.604C182.668,137.107,191.297,137.107,199.906,137.107
		L199.906,137.107z"/>
	<path fill-rule="evenodd" clip-rule="evenodd" fill="#4ED2D4" d="M192.807,109.627c1.879,2.053,4.258,3.418,7.1,4.258
		c-1.35,1.459-2.049,3.387-2.207,5.682c-2.93-2.414-5.736-4.924-7.314-8.398C190.982,110.469,191.77,109.943,192.807,109.627
		L192.807,109.627z"/>
	<path fill-rule="evenodd" clip-rule="evenodd" fill="#4ED2D4" d="M207.01,109.627c-1.879,2.053-4.256,3.418-7.104,4.258
		c1.355,1.459,2.055,3.387,2.213,5.682c2.926-2.414,5.734-4.924,7.314-8.398C208.836,110.469,208.045,109.943,207.01,109.627
		L207.01,109.627z"/>
	<path fill-rule="evenodd" clip-rule="evenodd" fill="#FEB67C" d="M214.52,82.916c0.018,0.303,0.018,0.598,0.018,0.896
		c0,12.678-6.541,22.957-14.631,22.957c-8.086,0-14.625-10.279-14.625-22.957c0-0.299,0-0.594,0.018-0.896l14.506-10.852
		L214.52,82.916z"/>
	<path fill-rule="evenodd" clip-rule="evenodd" fill="#F2AA70" d="M214.52,82.916c0.018,0.303,0.018,0.598,0.018,0.896
		c0,1.545-0.09,3.053-0.285,4.506c-14.779,2.105-24.127-1.035-28.953-3.576c-0.018-0.313-0.018-0.615-0.018-0.93
		c0-0.299,0-0.594,0.018-0.896l12.4-9.271l4.033-0.162L214.52,82.916z"/>
	<path fill-rule="evenodd" clip-rule="evenodd" fill="#592E25" d="M183.932,82.916c0-26.602,31.955-26.52,31.955,0
		c-2.947,0.531-5.91,0.936-8.857,1.174l-0.299-2.279l-1.666,2.441c-0.826,0.051-1.668,0.09-2.488,0.119l-0.248-4.314l-1.244,4.373
		c-2.297,0.031-4.596-0.021-6.893-0.164l-1.336-2.869l-1.24,2.664C189.053,83.813,186.492,83.426,183.932,82.916L183.932,82.916z"/>
	<path fill-rule="evenodd" clip-rule="evenodd" fill="#EBEBEB" d="M170.148,118.711h59.521c1.316,0,2.402,1.086,2.402,2.422v31.721
		c0,1.334-1.086,2.422-2.402,2.422h-59.521c-1.316,0-2.402-1.088-2.402-2.422v-31.721
		C167.746,119.797,168.832,118.711,170.148,118.711L170.148,118.711z"/>
	<path fill-rule="evenodd" clip-rule="evenodd" fill="#E0E1E1" d="M170.148,118.711h7.994c1.143,9.893,8.633,33.428,53.93,32.127
		v2.016c0,1.334-1.086,2.422-2.402,2.422h-59.521c-1.316,0-2.402-1.088-2.402-2.422v-31.721
		C167.746,119.797,168.832,118.711,170.148,118.711L170.148,118.711z"/>
	<path fill-rule="evenodd" clip-rule="evenodd" fill="#EBEBEB" d="M165.885,155.275h68.049c0.521,0,0.965,0.42,0.965,0.965v2.068
		c0,0.543-0.443,0.982-0.965,0.982h-68.049c-0.527,0-0.965-0.439-0.965-0.982v-2.068
		C164.92,155.695,165.357,155.275,165.885,155.275L165.885,155.275z"/>
	<path fill-rule="evenodd" clip-rule="evenodd" fill="#FEFEFE" d="M199.906,132.197c2.65,0,4.809,2.139,4.809,4.785
		c0,2.67-2.158,4.809-4.809,4.809c-2.648,0-4.803-2.139-4.803-4.809C195.104,134.336,197.258,132.197,199.906,132.197
		L199.906,132.197z"/>
	<rect x="174.619" y="178.355" fill-rule="evenodd" clip-rule="evenodd" fill="#01A2A5" width="50.58" height="13.787"/>
</g>
</svg>
