<?xml version="1.0" encoding="utf-8"?>
<!-- Generator: Adobe Illustrator 16.0.0, SVG Export Plug-In . SVG Version: 6.00 Build 0)  -->
<!DOCTYPE svg PUBLIC "-//W3C//DTD SVG 1.1//EN" "http://www.w3.org/Graphics/SVG/1.1/DTD/svg11.dtd">
<svg version="1.1" id="レイヤー_1" xmlns="http://www.w3.org/2000/svg" xmlns:xlink="http://www.w3.org/1999/xlink" x="0px"
	 y="0px" width="160.984px" height="97.451px" viewBox="0 0 160.984 97.451" enable-background="new 0 0 160.984 97.451"
	 xml:space="preserve">
<g>
	<path fill="#A3DEFE" d="M104.685,86.081H56.298c0-4.001,3.241-8.384,7.238-8.384h33.909
		C101.444,77.697,104.685,82.08,104.685,86.081L104.685,86.081z"/>
	<path fill="#B8E7FF" d="M67.537,77.697h-4.001c-3.997,0-7.238,4.383-7.238,8.384h4.001C60.299,82.08,63.539,77.697,67.537,77.697z"
		/>
	<g>
		<path fill="#356DAA" d="M104.685,86.596H56.298c-0.285,0-0.517-0.231-0.517-0.516c0-4.114,3.389-8.898,7.755-8.898h33.909
			c4.369,0,7.755,4.784,7.755,8.898C105.2,86.365,104.971,86.596,104.685,86.596z M56.833,85.563h47.316
			c-0.258-3.509-3.095-7.351-6.704-7.351H63.536C59.93,78.212,57.091,82.054,56.833,85.563z"/>
	</g>
	<path fill="#A3DEFE" d="M119.355,96.935h-7.003c0-0.781-0.245-1.503-0.669-2.09c-0.657-0.925-1.732-1.525-2.949-1.525H52.249
		c-0.995,0-1.904,0.404-2.555,1.061c-0.144,0.144-0.276,0.299-0.396,0.465c-0.423,0.587-0.669,1.309-0.669,2.09h-7
		c0-0.715,0.068-1.417,0.205-2.09c0.972-4.995,5.372-8.77,10.654-8.77h56.006c2.994,0,5.715,1.219,7.674,3.186
		c1.498,1.495,2.561,3.423,2.979,5.584C119.285,95.518,119.355,96.22,119.355,96.935z"/>
	<path fill="#95CBE8" d="M119.355,96.935h-7.003c0-0.781-0.245-1.503-0.669-2.09h7.464C119.285,95.518,119.355,96.22,119.355,96.935
		z"/>
	<path fill="#95CBE8" d="M49.299,94.845c-0.423,0.587-0.669,1.309-0.669,2.09h-7c0-0.715,0.068-1.417,0.205-2.09H49.299z"/>
	<g>
		<path fill="#356DAA" d="M92.783,93.833h-2.578c-0.286,0-0.517-0.229-0.517-0.513c0-0.286,0.23-0.521,0.517-0.521h2.578
			c0.286,0,0.517,0.234,0.517,0.521C93.3,93.604,93.069,93.833,92.783,93.833z M87.624,93.833h-2.579
			c-0.284,0-0.517-0.229-0.517-0.513c0-0.286,0.232-0.521,0.517-0.521h2.579c0.286,0,0.516,0.234,0.516,0.521
			C88.14,93.604,87.91,93.833,87.624,93.833z M82.466,93.833h-2.581c-0.284,0-0.517-0.229-0.517-0.513
			c0-0.286,0.232-0.521,0.517-0.521h2.581c0.284,0,0.515,0.234,0.515,0.521C82.98,93.604,82.75,93.833,82.466,93.833z"/>
	</g>
	<g>
		<path fill="#356DAA" d="M99.071,84.308h-8.828c-0.286,0-0.517-0.231-0.517-0.516c0-0.289,0.23-0.518,0.517-0.518h8.828
			c0.286,0,0.516,0.229,0.516,0.518C99.587,84.077,99.357,84.308,99.071,84.308z"/>
	</g>
	<g>
		<path fill="#356DAA" d="M87.416,84.308h-1.563c-0.285,0-0.517-0.231-0.517-0.516c0-0.289,0.231-0.518,0.517-0.518h1.563
			c0.285,0,0.516,0.229,0.516,0.518C87.932,84.077,87.701,84.308,87.416,84.308z"/>
	</g>
	<g>
		<path fill="#356DAA" d="M119.355,97.451h-7.003c-0.285,0-0.517-0.229-0.517-0.516c0-0.649-0.197-1.27-0.57-1.789
			c-0.584-0.823-1.529-1.313-2.53-1.313H96.851c-0.284,0-0.517-0.229-0.517-0.513c0-0.286,0.232-0.521,0.517-0.521h11.885
			c1.335,0,2.595,0.654,3.369,1.745c0.398,0.558,0.648,1.198,0.731,1.875h5.989c-0.025-0.504-0.086-0.996-0.183-1.473
			c-0.39-2.016-1.37-3.855-2.837-5.323c-1.949-1.953-4.546-3.03-7.311-3.03H52.488c-4.938,0-9.204,3.512-10.146,8.352
			c-0.097,0.479-0.159,0.971-0.184,1.475h5.987c0.084-0.68,0.334-1.319,0.734-1.877c0.137-0.189,0.286-0.365,0.448-0.524
			c0.776-0.784,1.813-1.219,2.921-1.219H74.42c0.284,0,0.517,0.234,0.517,0.521c0,0.284-0.232,0.513-0.517,0.513H52.249
			c-0.831,0-1.606,0.326-2.189,0.913c-0.125,0.123-0.239,0.257-0.343,0.402c-0.372,0.518-0.571,1.138-0.571,1.787
			c0,0.286-0.229,0.516-0.516,0.516h-7c-0.285,0-0.517-0.229-0.517-0.516c0-0.749,0.073-1.491,0.217-2.193
			c1.033-5.318,5.726-9.179,11.158-9.179h56.007c3.039,0,5.896,1.181,8.04,3.335c1.612,1.611,2.691,3.634,3.118,5.848
			c0.144,0.698,0.216,1.44,0.216,2.189c0,0.139-0.054,0.271-0.151,0.365C119.622,97.397,119.49,97.451,119.355,97.451z"/>
	</g>
	<g>
		<rect x="78.015" y="70.458" fill="#A3DEFE" width="4.953" height="3.715"/>
		<path fill="#356DAA" d="M82.968,74.688h-4.953c-0.285,0-0.516-0.229-0.516-0.516v-3.715c0-0.284,0.23-0.513,0.516-0.513h4.953
			c0.285,0,0.517,0.229,0.517,0.513v3.715C83.484,74.458,83.253,74.688,82.968,74.688z M78.53,73.657h3.921v-2.681H78.53V73.657z"/>
	</g>
	<g>
		<path fill="#A3DEFE" d="M87.976,77.697c-1.14-3.027-4.055-5.191-7.484-5.191c-3.428,0-6.345,2.164-7.482,5.191H87.976z"/>
		<path fill="#356DAA" d="M87.976,78.212H73.009c-0.17,0-0.329-0.083-0.425-0.222s-0.119-0.316-0.06-0.474
			c1.243-3.306,4.444-5.526,7.967-5.526s6.726,2.221,7.968,5.526c0.058,0.157,0.037,0.335-0.059,0.474
			C88.303,78.129,88.145,78.212,87.976,78.212z M73.794,77.182h13.394c-1.252-2.516-3.855-4.161-6.696-4.161
			S75.048,74.667,73.794,77.182z"/>
	</g>
	<path fill="#B8E7FF" d="M82.207,72.696c-0.554-0.121-1.127-0.19-1.716-0.19c-3.428,0-6.345,2.164-7.482,5.191h3.428
		C77.379,75.187,79.544,73.278,82.207,72.696z"/>
	<g>
		<path fill="#356DAA" d="M87.976,78.212H73.009c-0.17,0-0.329-0.083-0.425-0.222s-0.119-0.316-0.06-0.474
			c1.243-3.306,4.444-5.526,7.967-5.526s6.726,2.221,7.968,5.526c0.058,0.157,0.037,0.335-0.059,0.474
			C88.303,78.129,88.145,78.212,87.976,78.212z M73.794,77.182h13.394c-1.252-2.516-3.855-4.161-6.696-4.161
			S75.048,74.667,73.794,77.182z"/>
	</g>
	<path fill="#A3DEFE" d="M84.396,70.458h-7.812V55.695c0-1.578,1.279-2.859,2.859-2.859h2.096c1.577,0,2.856,1.281,2.856,2.859
		V70.458z"/>
	<path fill="#B8E7FF" d="M76.585,70.458V55.695c0-1.578,1.279-2.859,2.859-2.859h0.38v17.622H76.585z"/>
	<g>
		<path fill="#356DAA" d="M84.396,70.973h-7.812c-0.284,0-0.516-0.23-0.516-0.516V55.695c0-1.862,1.515-3.374,3.375-3.374h2.096
			c1.859,0,3.372,1.512,3.372,3.374v14.763C84.912,70.743,84.681,70.973,84.396,70.973z M77.102,69.943h6.778V55.695
			c0-1.294-1.051-2.341-2.34-2.341h-2.096c-1.292,0-2.343,1.047-2.343,2.341V69.943z"/>
	</g>
	<g>
		<path fill="#A3DEFE" d="M146.657,57.6h-26.673c-6.462,0-12.124-4.337-13.809-10.572h54.292
			C158.781,53.263,153.121,57.6,146.657,57.6z"/>
		<path fill="#B8E7FF" d="M114.177,47.028h-8.001c1.685,6.235,7.347,10.572,13.809,10.572h8.002
			C121.523,57.6,115.862,53.263,114.177,47.028z"/>
		<g>
			<path fill="#356DAA" d="M146.658,58.115h-26.674c-6.681,0-12.563-4.502-14.308-10.953c-0.041-0.157-0.009-0.321,0.089-0.448
				c0.098-0.128,0.249-0.204,0.41-0.204h34.504c0.285,0,0.516,0.233,0.516,0.519c0,0.284-0.23,0.515-0.516,0.515h-33.813
				c1.83,5.649,7.13,9.539,13.117,9.539h26.674c6.216,0,11.689-4.188,13.312-10.188c0.074-0.274,0.358-0.438,0.632-0.362
				c0.276,0.073,0.438,0.358,0.364,0.631C159.224,53.613,153.339,58.115,146.658,58.115z"/>
		</g>
		<g>
			<path fill="#95CBE8" d="M153.825,47.542h-9.003c-0.284,0-0.516-0.23-0.516-0.515c0-0.285,0.231-0.519,0.516-0.519h9.003
				c0.284,0,0.516,0.233,0.516,0.519C154.341,47.312,154.109,47.542,153.825,47.542z"/>
		</g>
		<g>
			<path fill="#95CBE8" d="M157.42,47.542h-0.999c-0.286,0-0.517-0.23-0.517-0.515c0-0.285,0.23-0.519,0.517-0.519h0.999
				c0.285,0,0.517,0.233,0.517,0.519C157.937,47.312,157.705,47.542,157.42,47.542z"/>
		</g>
	</g>
	<g>
		<path fill="#A3DEFE" d="M40.998,57.6H14.325c-6.465,0-12.123-4.337-13.811-10.572h54.293C53.121,53.263,47.462,57.6,40.998,57.6z"
			/>
		<path fill="#B8E7FF" d="M8.516,47.028H0.515C2.202,53.263,7.86,57.6,14.325,57.6h8.001C15.862,57.6,10.203,53.263,8.516,47.028z"
			/>
		<g>
			<path fill="#356DAA" d="M40.998,58.115H14.325c-6.681,0-12.565-4.502-14.307-10.953c-0.043-0.157-0.011-0.321,0.088-0.448
				c0.097-0.128,0.248-0.204,0.408-0.204h34.504c0.286,0,0.517,0.233,0.517,0.519c0,0.284-0.23,0.515-0.517,0.515H1.207
				c1.83,5.649,7.129,9.539,13.118,9.539h26.673c6.217,0,11.689-4.188,13.312-10.188c0.075-0.274,0.356-0.438,0.633-0.362
				c0.275,0.073,0.438,0.355,0.363,0.631C53.563,53.613,47.679,58.115,40.998,58.115z"/>
		</g>
		<g>
			<path fill="#95CBE8" d="M48.164,47.542h-9c-0.286,0-0.517-0.23-0.517-0.515c0-0.285,0.23-0.519,0.517-0.519h9
				c0.284,0,0.516,0.233,0.516,0.519C48.68,47.312,48.448,47.542,48.164,47.542z"/>
		</g>
		<g>
			<path fill="#95CBE8" d="M51.76,47.542h-1.001c-0.284,0-0.516-0.23-0.516-0.515c0-0.285,0.231-0.519,0.516-0.519h1.001
				c0.285,0,0.516,0.233,0.516,0.519C52.275,47.312,52.045,47.542,51.76,47.542z"/>
		</g>
	</g>
	<g>
		<path fill="#A3DEFE" d="M129.996,65.2l-42.1,1.015c-1.762,0.041-3.215-1.375-3.215-3.139c0-1.76,1.453-3.179,3.215-3.137
			l42.1,1.015c1.153,0.027,2.071,0.971,2.071,2.122C132.067,64.229,131.149,65.169,129.996,65.2z"/>
		<path fill="#356DAA" d="M87.817,66.73c-0.959,0-1.861-0.365-2.55-1.04c-0.71-0.691-1.101-1.623-1.101-2.614
			c0-0.992,0.391-1.921,1.101-2.612c0.711-0.695,1.654-1.061,2.642-1.04l42.101,1.017c1.443,0.035,2.574,1.19,2.574,2.636
			c0,1.444-1.131,2.603-2.574,2.64L87.909,66.73C87.879,66.73,87.848,66.73,87.817,66.73z M87.818,60.455
			c-0.688,0-1.335,0.263-1.829,0.746c-0.51,0.497-0.792,1.16-0.792,1.875c0,0.712,0.282,1.38,0.792,1.877
			c0.51,0.496,1.178,0.763,1.895,0.744l42.101-1.015c0.879-0.021,1.566-0.727,1.566-1.606c0-0.879-0.688-1.584-1.566-1.606
			l-42.101-1.013C87.861,60.455,87.841,60.455,87.818,60.455z"/>
	</g>
	<g>
		<path fill="#A3DEFE" d="M133.322,68.553c-1.384,0-2.501-1.118-2.501-2.498V57.6h5v8.455
			C135.821,67.435,134.703,68.553,133.322,68.553z"/>
		<path fill="#356DAA" d="M133.322,69.069c-1.663,0-3.017-1.354-3.017-3.014V57.6c0-0.285,0.229-0.519,0.516-0.519h5.003
			c0.284,0,0.514,0.233,0.514,0.519v8.455C136.338,67.714,134.986,69.069,133.322,69.069z M131.336,58.115v7.94
			c0,1.091,0.892,1.982,1.986,1.982c1.094,0,1.985-0.892,1.985-1.982v-7.94H131.336z"/>
	</g>
	<rect x="130.821" y="57.6" fill="#95CBE8" width="5" height="3.643"/>
	<g>
		<path fill="#356DAA" d="M133.322,69.069c-1.663,0-3.017-1.354-3.017-3.014V57.6c0-0.285,0.229-0.519,0.516-0.519h5.003
			c0.284,0,0.514,0.233,0.514,0.519v8.455C136.338,67.714,134.986,69.069,133.322,69.069z M131.336,58.115v7.94
			c0,1.091,0.892,1.982,1.986,1.982c1.094,0,1.985-0.892,1.985-1.982v-7.94H131.336z"/>
	</g>
	<g>
		<path fill="#A3DEFE" d="M30.986,65.2l42.101,1.015c1.763,0.041,3.214-1.375,3.214-3.139c0-1.76-1.451-3.179-3.214-3.137
			l-42.101,1.015c-1.151,0.027-2.071,0.971-2.071,2.122C28.915,64.229,29.835,65.169,30.986,65.2z"/>
		<path fill="#356DAA" d="M73.164,66.73c-0.028,0-0.06,0-0.09,0l-42.101-1.015c-1.442-0.037-2.575-1.195-2.575-2.64
			c0-1.445,1.133-2.601,2.575-2.636l42.101-1.017c0.982-0.03,1.93,0.345,2.641,1.04c0.711,0.691,1.101,1.62,1.101,2.612
			c0,0.991-0.39,1.923-1.101,2.614C75.026,66.365,74.124,66.73,73.164,66.73z M30.999,64.682L73.1,65.697
			c0.712,0.014,1.384-0.248,1.896-0.744c0.509-0.497,0.789-1.165,0.789-1.877c0-0.715-0.28-1.378-0.789-1.875
			c-0.511-0.499-1.187-0.77-1.896-0.744l-42.101,1.013c-0.88,0.022-1.567,0.728-1.567,1.606
			C29.432,63.956,30.119,64.661,30.999,64.682L30.999,64.682z"/>
	</g>
	<g>
		<path fill="#A3DEFE" d="M27.661,68.553c1.381,0,2.502-1.118,2.502-2.498V57.6H25.16v8.455
			C25.16,67.435,26.28,68.553,27.661,68.553z"/>
		<path fill="#356DAA" d="M27.661,69.069c-1.664,0-3.018-1.354-3.018-3.014V57.6c0-0.285,0.231-0.519,0.517-0.519h5.003
			c0.284,0,0.516,0.233,0.516,0.519v8.455C30.679,67.714,29.324,69.069,27.661,69.069z M25.677,58.115v7.94
			c0,1.091,0.889,1.982,1.984,1.982c1.095,0,1.984-0.892,1.984-1.982v-7.94H25.677z"/>
	</g>
	<rect x="25.16" y="57.6" fill="#95CBE8" width="5.003" height="3.643"/>
	<g>
		<path fill="#356DAA" d="M27.661,69.069c-1.664,0-3.018-1.354-3.018-3.014V57.6c0-0.285,0.231-0.519,0.517-0.519h5.003
			c0.284,0,0.516,0.233,0.516,0.519v8.455C30.679,67.714,29.324,69.069,27.661,69.069z M25.677,58.115v7.94
			c0,1.091,0.889,1.982,1.984,1.982c1.095,0,1.984-0.892,1.984-1.982v-7.94H25.677z"/>
	</g>
	<g>
		<path fill="#FFFFFF" d="M92.213,54.768l-2.136,3.206c-2.745-1.831-6.036-2.892-9.586-2.892c-3.549,0-6.84,1.061-9.584,2.892
			l-2.137-3.206c3.354-2.242,7.384-3.543,11.721-3.543C84.829,51.225,88.857,52.526,92.213,54.768z"/>
		<path fill="#356DAA" d="M90.077,58.49c-0.102,0-0.202-0.03-0.287-0.086c-2.753-1.835-5.969-2.806-9.299-2.806
			s-6.544,0.971-9.299,2.806c-0.113,0.074-0.253,0.104-0.387,0.076c-0.134-0.025-0.252-0.106-0.328-0.22l-2.137-3.205
			c-0.158-0.238-0.095-0.56,0.142-0.717c3.558-2.374,7.71-3.631,12.009-3.631c4.301,0,8.452,1.257,12.008,3.631
			c0.237,0.157,0.301,0.479,0.143,0.717l-2.137,3.205c-0.077,0.113-0.193,0.194-0.329,0.22C90.143,58.485,90.11,58.49,90.077,58.49z
			 M69.489,54.917l1.566,2.348c2.823-1.766,6.075-2.697,9.436-2.697c3.362,0,6.613,0.932,9.438,2.697l1.565-2.348
			c-3.288-2.081-7.08-3.176-11.003-3.176C76.569,51.741,72.777,52.835,69.489,54.917z"/>
	</g>
	<g>
		<circle fill="#A3DEFE" cx="80.491" cy="63.076" r="5.027"/>
		<path fill="#356DAA" d="M80.491,68.621c-3.058,0-5.544-2.487-5.544-5.545c0-3.056,2.486-5.543,5.544-5.543
			c3.057,0,5.544,2.487,5.544,5.543C86.035,66.133,83.548,68.621,80.491,68.621z M80.491,58.566c-2.488,0-4.512,2.022-4.512,4.51
			c0,2.489,2.023,4.512,4.512,4.512s4.514-2.022,4.514-4.512C85.005,60.588,82.979,58.566,80.491,58.566z"/>
	</g>
	<path fill="#B8E7FF" d="M77.75,63.076c0-2.384,1.66-4.373,3.886-4.892c-0.369-0.088-0.75-0.136-1.145-0.136
		c-2.776,0-5.027,2.251-5.027,5.027c0,2.778,2.251,5.029,5.027,5.029c0.395,0,0.775-0.051,1.145-0.137
		C79.41,67.451,77.75,65.458,77.75,63.076z"/>
	<g>
		<path fill="#356DAA" d="M80.491,68.621c-3.058,0-5.544-2.487-5.544-5.545c0-3.056,2.486-5.543,5.544-5.543
			c3.057,0,5.544,2.487,5.544,5.543C86.035,66.133,83.548,68.621,80.491,68.621z M80.491,58.566c-2.488,0-4.512,2.022-4.512,4.51
			c0,2.489,2.023,4.512,4.512,4.512s4.514-2.022,4.514-4.512C85.005,60.588,82.979,58.566,80.491,58.566z"/>
	</g>
	<g>
		<path fill="#356DAA" d="M80.491,63.593c-0.284,0-0.517-0.233-0.517-0.518V48.315c0-0.287,0.232-0.521,0.517-0.521
			c0.286,0,0.517,0.233,0.517,0.521v14.761C81.008,63.36,80.777,63.593,80.491,63.593z"/>
	</g>
	<g>
		<path fill="#356DAA" d="M40.88,55.83h-8.828c-0.284,0-0.516-0.231-0.516-0.516s0.231-0.516,0.516-0.516h8.828
			c0.284,0,0.517,0.231,0.517,0.516S41.164,55.83,40.88,55.83z"/>
	</g>
	<g>
		<path fill="#356DAA" d="M29.224,55.83h-1.563c-0.285,0-0.516-0.231-0.516-0.516s0.23-0.516,0.516-0.516h1.563
			c0.285,0,0.517,0.231,0.517,0.516S29.509,55.83,29.224,55.83z"/>
	</g>
	<g>
		<path fill="#356DAA" d="M146.386,55.83h-4.981c-0.285,0-0.518-0.231-0.518-0.516s0.232-0.516,0.518-0.516h4.981
			c0.285,0,0.518,0.231,0.518,0.516S146.671,55.83,146.386,55.83z"/>
	</g>
	<g>
		<path fill="#356DAA" d="M136.345,97.451H124.75c-0.287,0-0.517-0.229-0.517-0.516c0-0.284,0.229-0.516,0.517-0.516h11.595
			c0.286,0,0.517,0.231,0.517,0.516C136.861,97.221,136.631,97.451,136.345,97.451z"/>
	</g>
	<g>
		<path fill="#356DAA" d="M31.279,97.451h-1.308c-0.286,0-0.517-0.229-0.517-0.516c0-0.284,0.23-0.516,0.517-0.516h1.308
			c0.286,0,0.517,0.231,0.517,0.516C31.796,97.221,31.565,97.451,31.279,97.451z"/>
	</g>
	<g>
		<path fill="#356DAA" d="M36.424,97.451h-1.311c-0.284,0-0.516-0.229-0.516-0.516c0-0.284,0.231-0.516,0.516-0.516h1.311
			c0.284,0,0.517,0.231,0.517,0.516C36.94,97.221,36.708,97.451,36.424,97.451z"/>
	</g>
</g>
<g>
	<path fill="#442D1D" d="M40.492,42.458c-0.013-0.044-0.027-0.088-0.044-0.132c-0.004-0.012-0.008-0.025-0.012-0.037h-0.001
		c-0.015-0.035-0.028-0.073-0.046-0.11c-0.086-0.193-0.271-0.252-0.45-0.22c-0.07-0.038-0.147-0.061-0.216-0.052
		c-0.732,0.079-0.649,1.024-0.633,1.569c0.019,0.549,0.014,1.332,0.465,1.729c0.242,0.216,0.593,0.223,0.823-0.014
		c0.227-0.234,0.266-0.579,0.301-0.886C40.749,43.685,40.679,43.052,40.492,42.458z"/>
	<path fill="#442D1D" d="M38.067,42.132c-0.094-0.145-0.534,0.146-0.608,0.266c-0.035-0.191-0.33-0.303-0.458-0.086
		c-0.172,0.291-0.962,1.062-1.434,1.441c-0.316,0.255-0.33,0.861,0.288,0.969c0.38,0.065,1.878-0.663,2.299-1.108
		C38.484,43.262,38.563,42.906,38.067,42.132z"/>
	<path fill="#EFBC90" d="M37.57,40.114c-0.129-0.425-0.022-0.076-0.196-0.485c0,0,0,0-0.001,0l0,0
		c-0.008-0.021-0.016-0.04-0.024-0.06c-0.108-0.251-0.487-0.088-0.457,0.157c-0.1-0.012-0.206,0.038-0.258,0.127
		c-0.071,0.054-0.12,0.142-0.104,0.252l0.002,0.007c-0.114,0.032-0.212,0.146-0.191,0.298c0.019,0.134,0.038,0.266,0.06,0.397
		c-0.014,0.041-0.017,0.087-0.005,0.139c0.056,0.252,0.554,1.819,0.78,1.858c0.307,0.055,0.715,0,0.813-0.298
		C38.118,42.116,37.685,40.49,37.57,40.114z"/>
	<path fill="#EFBC90" d="M40.359,40.373c0-0.143-0.105-0.222-0.202-0.235c-0.045-0.115-0.169-0.178-0.271-0.155
		c-0.038-0.106-0.128-0.15-0.216-0.141c-0.044-0.278-0.408-0.254-0.437,0.043c-0.009,0.094-0.017,0.188-0.023,0.281
		c-0.057,0.036-0.094,0.104-0.082,0.205c0.015,0.127,0.092,1.62,0.144,2.002c0.036,0.259,0.181,0.599,0.513,0.599
		C40.622,42.971,40.359,40.99,40.359,40.373z"/>
	<path fill="#F5BC8E" d="M43.45,15.969c-0.068-0.503-0.167-1.003-0.301-1.495c-0.156-0.576-0.983-3.114-0.983-3.114
		s-0.542-0.307-0.688-0.24c-0.228,0.106-0.255,0.369-0.16,0.535c-0.019,0.045-0.027,0.096-0.02,0.154
		c0.002,0.009,0.003,0.019,0.004,0.027c-0.171,0.017-0.333,0.161-0.318,0.374c-0.217-0.209-0.591-0.404-0.48-0.046
		c0.335,1.096,0.844,2.528,1.179,3.624c0.134,0.435,0.254,0.923,0.63,1.215c0.315,0.246,0.545,0.362,0.868,0.101
		C43.527,16.821,43.503,16.372,43.45,15.969z"/>
	<path fill="#F7A354" d="M41.31,23.488c-0.019-1.023-0.118-2.059-0.386-3.051c-0.129-0.474-0.299-0.936-0.509-1.382
		c-0.02-0.041-0.04-0.083-0.061-0.125c-0.069-0.254-0.14-0.506-0.214-0.758c-0.153-0.701-0.331-1.396-0.536-2.09
		c-0.072-0.24-0.253-0.339-0.436-0.331c-0.034-0.058-0.077-0.102-0.126-0.136l-0.006-0.019c-0.11-0.375-0.51-0.404-0.74-0.219
		c-0.119,0.029-0.225,0.099-0.284,0.202c-0.25-0.066-0.55,0.044-0.586,0.317c-0.134-0.076-0.307-0.09-0.448-0.038
		c-0.079-0.117-0.201-0.195-0.366-0.195c-0.217,0-0.412,0.16-0.455,0.369c-0.224-0.006-0.466,0.132-0.513,0.374
		c-0.204,0.017-0.391,0.165-0.395,0.449c-0.069,0.09-0.138,0.176-0.207,0.267c-0.196,0.05-0.377,0.214-0.399,0.441
		c-0.022,0.243-0.014,0.484,0.013,0.728c-0.025,0.099-0.018,0.21,0.038,0.323c0.003,0.01,0.008,0.023,0.011,0.032
		c0.042,0.287,0.193,2.064,0.192,2.195c-1.103,3.207-2.207,10.134-2.192,10.325c0.036,0.486,0.235,0.989,0.425,1.434
		c0.199,0.469,2.869,7.792,3.219,8.767c0.134,0.373,1.007-0.095,1.385-0.317c0.104-0.062,0.154-0.183,0.126-0.3
		c-0.072-0.293-0.207-0.853-0.277-1.188c-0.22-1.042-1.396-6.992-2.309-8.265c0.907-1.798,1.83-4.923,2.571-6.797
		c0.072,1.512,0.801,11.57,1.042,14.452c0.046,0.533,0.123,1.457,0.161,1.916c0.013,0.152,0.146,0.266,0.299,0.255l0.935-0.069
		c0.115-0.01,0.206-0.103,0.212-0.218C40.59,38.947,41.327,24.397,41.31,23.488z"/>
	<path fill="#F5BC8E" d="M34.114,11.265c-0.026-0.208-0.122-0.379-0.37-0.423c-0.068-0.012-0.141-0.009-0.206,0.012
		c-0.144-0.162-0.471-0.188-0.567,0.039c-0.053,0.124-0.101,0.25-0.146,0.377c-0.175-0.139-0.412-0.096-0.469,0.169
		c-0.228,1.064-0.5,2.588-0.682,3.661c-0.037,0.225-0.15,0.952-0.184,1.177c-0.05-0.067-1.634-3.445-2.108-3.837
		c-0.031-0.196-0.085-0.389-0.182-0.566c-0.109-0.201-0.256-0.389-0.401-0.572c-0.017-0.2-0.006-0.445-0.132-0.612
		c-0.068-0.092-0.163-0.143-0.278-0.114c-0.021,0.004-0.038,0.012-0.056,0.019c-0.026-0.019-0.058-0.036-0.082-0.044
		c-0.083-0.032-0.183-0.032-0.262,0.012c-0.129,0.069-0.171,0.205-0.176,0.344c-0.13,0.319-0.195,0.653-0.012,0.98
		c0.192,0.341,0.523,0.569,0.75,0.883c0.001,0.012,0.002,0.025,0.007,0.036c0.36,1.154,1.589,4.843,2.321,5.321
		c0.359,0.236,0.846,0.269,1.211,0.088c0.03-0.013,0.06-0.03,0.089-0.05c0.077-0.048,0.146-0.107,0.206-0.177
		c0.12-0.102,0.224-0.228,0.296-0.365c0.361-0.688,0.574-1.452,0.764-2.202c0.204-0.81,0.399-1.621,0.598-2.43
		C34.171,12.474,34.438,11.75,34.114,11.265z"/>
	<path fill="#B15E42" d="M40.429,4.336c-0.045-0.814,0.038-1.769-0.533-2.423c-0.464-0.531-1.261-0.776-1.93-0.522
		c-0.553,0.209-0.313,1.106,0.246,0.895c0.058-0.021,0.115-0.037,0.173-0.047c-0.038,0.065-0.062,0.145-0.063,0.233
		c-0.012,0.611,0.2,1.191,0.164,1.809c-0.029,0.49-0.218,1.03-0.621,1.339c-0.2,0.154-2.358-1.776-2.224-1.538
		c0.034,0.058-0.879,1.963-0.816,2.003c0.002,0.105,1.918,0.51,2.837,0.84c0.746,0.269,1.76,0.451,2.351-0.083
		C40.707,6.21,40.474,5.164,40.429,4.336z"/>
	<path fill="#F5BC8E" d="M38.326,5.534c-0.008-0.188-0.118-0.301-0.252-0.342c-0.162-0.124-0.435-0.093-0.554,0.092
		c-0.038,0.017-0.073,0.039-0.104,0.069c-0.145-0.021-0.291,0.036-0.354,0.191c-0.17-0.051-0.361,0.004-0.425,0.206
		c-0.097,0.068-0.165,0.18-0.164,0.303c0,0.411,0.001,0.823,0.001,1.234c-0.009,0.326-0.006,0.651,0,0.978
		c0.001,0.035,0.005,0.067,0.013,0.096c-0.021,0.131,0.025,0.27,0.181,0.351c0.339,0.179,0.711,0.272,1.095,0.226
		c0.416-0.052,0.577-0.319,0.591-0.717C38.386,7.326,38.363,6.426,38.326,5.534z"/>
	<path fill="#442D1D" d="M16.318,41.737c-0.135-0.108-0.563-0.123-0.636-0.001c-0.036-0.193-0.331-0.305-0.459-0.087
		c-0.172,0.291-1.186,1.209-1.657,1.589c-0.317,0.256-0.33,0.861,0.288,0.969c0.38,0.065,2.102-0.811,2.522-1.258
		C16.707,42.599,16.741,42.077,16.318,41.737z"/>
	<path fill="#442D1D" d="M17.537,42.549c-0.308-0.256-0.774-0.258-1.045,0.059c-0.161,0.188-0.175,0.47-0.212,0.704
		c-0.045,0.287-0.079,0.579-0.1,0.87c-0.017,0.235-0.127,1.477,0.211,1.659c0.439,0.237,0.844-0.139,1.053-0.494
		c0.261-0.447,0.375-0.959,0.44-1.468C17.945,43.41,17.933,42.877,17.537,42.549z"/>
	<path fill="#F5BC8E" d="M17.608,41.115c-0.003-0.134-0.005-0.268-0.004-0.402c0.002-0.082-0.03-0.145-0.079-0.186
		c-0.002-0.013-0.004-0.027-0.006-0.038c-0.042-0.229-0.385-0.245-0.47-0.067c-0.029,0.014-0.055,0.032-0.075,0.057
		c-0.123-0.036-0.267,0.017-0.304,0.17c-0.119-0.007-0.233,0.059-0.237,0.206c-0.119,0.021-0.223,0.122-0.197,0.285l0.283,1.781
		c0.007,0.044,0.047,0.351,0.188,0.404c0.324,0.125,0.769-0.056,0.889-0.301C17.736,42.742,17.638,41.386,17.608,41.115z"/>
	<path fill="#F5BC8E" d="M16.396,40.244c0.008-0.135,0.017-0.269,0.029-0.402c0.007-0.081-0.02-0.146-0.063-0.192
		c-0.001-0.011-0.003-0.025-0.004-0.036c-0.023-0.232-0.363-0.277-0.463-0.106c-0.029,0.013-0.057,0.03-0.079,0.051
		c-0.119-0.047-0.268-0.005-0.317,0.146c-0.117-0.019-0.236,0.039-0.252,0.185c-0.121,0.012-0.232,0.104-0.22,0.269l0.137,1.798
		c0.003,0.044-0.029,0.257,0.25,0.326c0.347,0.086,0.675,0.1,0.815-0.134C16.392,41.875,16.403,40.516,16.396,40.244z"/>
	<path fill="#4F5C7D" d="M17.527,19.136c-0.123-0.013-0.72-0.002-0.831,0.034c-1.056-0.183-2.979-0.391-3.699-0.656
		c-0.08-0.36,0.089-0.706-0.205-0.6c-0.214-0.017-0.442,0.075-0.558,0.272c-0.381,0.311,0.017,0.54-0.001,1.027
		c-0.023,0.676-0.139,1.454-0.062,2.123c0.185,1.603,0.105,3.417,0.33,5.015c0.442,3.148,0.985,6.28,1.563,9.406
		c0.279,1.508,0.801,4.328,0.931,5.034c0.019,0.101,0.099,0.175,0.198,0.188c0.297,0.037,0.899,0.092,1.111-0.042
		c0.935-0.583,0.057-1.438-0.065-2.315c-0.158-1.132-0.223-2.274-0.287-3.414c-0.066-1.135-0.129-2.271-0.265-3.398
		c0.015-0.029,0.028-0.06,0.039-0.093c0.605-1.888,0.773-3.891,1.019-5.85c0.102-0.809,0.202-1.619,0.303-2.428
		c0.182-0.033,0.346-0.151,0.413-0.38c0.146-0.493,0.291-0.985,0.437-1.478c0.14-0.473,0.375-0.998,0.388-1.495
		C18.296,19.619,18.017,19.184,17.527,19.136z"/>
	<path fill="#F5BC8E" d="M23.533,23.392c-0.244,0.02-0.304,0.212-0.3,0.41c-0.134-0.218-0.541-0.178-0.514,0.13
		c0.033,0.385,0.338,0.67,0.385,1.054c0.005,0.042,0.007,0.086,0.006,0.128c-0.091,0.077-0.177,0.15-0.208,0.298
		c-0.035,0.171,0.017,0.359,0.145,0.482c0.07,0.068,0.57,0.246,0.867-0.04c0.229-0.221,0.289-0.565,0.326-0.87
		C24.297,24.533,24.25,23.335,23.533,23.392z"/>
	<path fill="#566688" d="M19.277,23.043c-0.193-0.056-0.438,0.043-0.534,0.226c-0.013-0.08-0.05-0.148-0.102-0.203
		c0.021-0.177,0.043-0.354,0.063-0.531c0.039-0.346-0.325-0.51-0.607-0.431c0.127-0.528,0.925-2.127,1.057-2.655
		c0.123-0.487-2.458-0.278-2.458-0.278s-1.354,7.843-1.515,11.772c-0.087,2.109,0.897,9.423,1.054,10.569
		c0.011,0.083,0.09,0.14,0.172,0.125l1.139-0.199c0.071-0.011,0.123-0.073,0.123-0.146c-0.005-0.334-0.017-1.25-0.043-1.677
		c-0.064-1.04,0.015-5.452-0.018-6.613c1.055-3.027,1.533-6.222,1.993-9.388C19.639,23.365,19.54,23.119,19.277,23.043z"/>
	<path fill="#F97C64" d="M23.173,10.678c-0.094-0.994-0.633-1.69-1.309-2.381c-0.282-0.286-0.578-0.582-0.736-0.96
		c-0.177-0.422-0.182-0.896-0.17-1.343c0.023-0.979,0.115-1.938-0.216-2.884c-0.375-1.07-1.142-2.097-2.401-1.899
		c-0.297,0.045-0.462,0.417-0.389,0.684c0.087,0.316,0.387,0.435,0.685,0.389c0.392-0.062,0.684,0.394,0.838,0.682
		c0.217,0.404,0.354,0.869,0.396,1.324c0.019,0.198,0.023,0.396,0.021,0.592c-0.221-0.293-0.716-0.179-0.903,0.1
		c-0.272,0.404-0.483,0.851-0.629,1.315c-0.032,0.011-0.064,0.027-0.095,0.044c-0.082-0.146-0.165-0.292-0.254-0.435
		c-0.406-0.666-1.234-0.812-1.719-0.136c-0.085,0.119-0.153,0.249-0.208,0.388c-0.114,0.063-0.209,0.17-0.255,0.325
		c-0.092,0.311-0.142,0.621-0.157,0.933c-0.17,0.161-0.24,0.406-0.067,0.642c0.032,0.044,0.065,0.087,0.098,0.13
		c0.007,0.056,0.014,0.109,0.022,0.166c0.041,0.264,0.235,0.388,0.449,0.397c0.007,0.007,0.013,0.016,0.02,0.022
		c0.244,0.258,0.687,0.187,0.866-0.095c0.134,0.221,0.296,0.419,0.506,0.579c0.32,0.601,0.804,1.071,1.338,1.493
		c0.277,0.218,0.562,0.427,0.825,0.664c0.268,0.238,0.469,0.533,0.729,0.775c0.277,0.257,0.627,0.383,0.954,0.358
		c0.048,0.032,0.099,0.056,0.152,0.07C22.732,12.922,23.263,11.629,23.173,10.678z"/>
	<path fill="#F5BC8E" d="M20.076,3.878c0.003-1.278-1.253-2.541-2.617-1.652c-0.948,0.618-1.177,2.183-1.194,2.87
		c-0.017,0.602,0.157,1.221,0.579,1.649c0.426,0.431,1.109,0.625,1.676,0.369C19.63,6.609,20.073,5.013,20.076,3.878z"/>
	<path fill="#F5BC8E" d="M35.735,3.021c0.247-1.253,1.727-2.244,2.89-1.105c0.809,0.791,0.726,2.372,0.608,3.049
		c-0.102,0.592-0.394,1.165-0.892,1.503c-0.502,0.34-1.211,0.396-1.715,0.032C35.636,5.787,35.515,4.136,35.735,3.021z"/>
	<path fill="#422D1E" d="M19.821,12.386c-0.027-0.002-0.055-0.007-0.082-0.009c0.111-0.134,0.167-0.308,0.148-0.492
		c-0.038-0.39-0.297-0.556-0.604-0.631c0.199-0.248,0.154-0.635-0.141-0.811c0.313-0.161,0.423-0.618,0.22-0.875
		C19.49,9.322,19.44,8.97,19.17,8.803c-0.391-0.241-0.838-0.323-1.279-0.421c-0.455-0.104-0.913-0.228-1.378-0.276
		c-0.882-0.09-1.638,0.361-2.288,0.908c-0.23,0.193-0.199,0.587,0,0.786c0.055,0.056,0.114,0.092,0.178,0.12
		c-0.084,0.095-0.136,0.22-0.145,0.362c-0.016,0.252,0.106,0.453,0.287,0.589l-0.335,0.04c-0.517,0.063-0.668,0.618-0.416,0.92
		c-0.258,0.268-0.185,0.739,0.218,0.892c-0.215,0.089-0.35,0.327-0.328,0.558c-0.316,1.178-0.631,2.358-0.946,3.535
		c-0.044,0.048-0.089,0.094-0.137,0.143c-0.569,0.585-0.889,1.398-0.321,2.099c0.165,0.206,0.413,0.2,0.616,0.099
		c0.369,0.184,0.769,0.309,1.165,0.426c0.619,0.182,1.239,0.358,1.879,0.446c1.221,0.169,2.419-0.022,3.541-0.523
		c0.436-0.193,0.314-0.925-0.132-1.017c-0.101-0.021-0.201-0.041-0.302-0.062c0.11-0.138,0.138-0.321,0.11-0.504l-0.027-0.188
		c-0.006-0.044-0.021-0.083-0.04-0.121c0.165-0.449,0.129-0.96,0.118-1.437c-0.005-0.284-0.012-0.568-0.017-0.853
		c0.022-0.412,0-0.828-0.025-1.234c0-0.007-0.002-0.017-0.003-0.023c0.084-0.183,0.075-0.414-0.029-0.58
		c0.229,0.005,0.459,0.009,0.688,0.014c0.3,0.004,0.557-0.259,0.557-0.557C20.378,12.611,20.12,12.426,19.821,12.386z
		 M13.767,17.343c0.004,0.015,0.009,0.031,0.014,0.046c-0.014-0.003-0.027-0.005-0.042-0.008c0.001-0.002,0.001-0.005,0.003-0.009
		C13.75,17.363,13.758,17.354,13.767,17.343z"/>
	<path fill="#F5BC8E" d="M18.4,6.173c-0.002-0.002-0.004-0.005-0.006-0.009c0.003-0.175-0.096-0.289-0.226-0.338
		C18.13,5.686,18.01,5.61,17.875,5.593c-0.175-0.206-0.532-0.2-0.678,0.131c-0.085,0.03-0.157,0.09-0.194,0.185
		c-0.092,0.045-0.382,0.08-0.413,0.195c-0.196,0.74-0.276,1.39-0.423,2.162c-0.095,0.162,1.826,0.711,1.902,0.428
		C18.113,8.528,18.596,6.578,18.4,6.173z"/>
	<path fill="#F5DFCE" d="M14.326,8.326c-0.451,0.208-1.041-0.043-1.482,0.152c-1.352,0.597-2.783,3.315-3.129,3.862
		c-1.311,2.075-3.433,4.189-2.864,6.879c0.247,1.171,1.086,2.228,2.262,2.553c0.004,0.001,0.007,0.001,0.011,0.001
		c0.202,0.436,0.505,0.83,0.793,1.204c0.425,0.553,0.889,1.07,1.394,1.55c0.286,0.271,0.67,0.078,0.771-0.202
		c0.036-0.032,0.068-0.069,0.098-0.115c1.021-1.645,1.566-3.522,1.921-5.411c0.389-2.071,0.629-4.178,0.763-6.28
		c0.074-1.16,0.11-2.325,0.111-3.487c0.005-0.023,0.009-0.047,0.011-0.069C15.175,8.637,14.774,8.118,14.326,8.326z M9.735,20.107
		c-0.01-0.5,0.019-1.001,0.167-1.483c0.186-0.602,0.537-1.137,0.907-1.642C10.606,18.082,10.294,19.159,9.735,20.107z"/>
	<path fill="#F5DFCE" d="M23.987,20.942c-0.077-1.256-0.399-2.448-0.657-3.675c-0.255-1.207-0.604-2.431-0.79-3.648
		c-0.181-1.184-0.436-2.432-1.175-3.309c-0.815-0.968-1.251-1.108-2.345-1.619c-0.291-0.136-0.701-0.301-0.819-0.24
		c-0.231,0.054-0.027,0.465,0.042,0.765c0.54,2.34,0.699,4.755,0.475,7.146c-0.22,2.328-1.039,4.587-1.057,6.934
		c-0.009,1.231,0.224,2.467,0.834,3.547c0.192,0.338,0.756,0.278,0.848-0.112c0.266-1.113,1.065-1.976,1.568-2.979
		c0.486-0.975,0.696-2.042,0.766-3.119c0.009,0.057,0.017,0.114,0.025,0.172c0.089,0.56,0.545,2.446,0.656,2.848
		c0.094,0.338,0.304,0.645,0.663,0.722c0.402,0.085,1.072-0.324,1.188-0.705C24.273,23.458,24.024,21.541,23.987,20.942z"/>
	<path fill="#F97C64" d="M19.098,1.54c-0.319-0.752-1.762-1.065-2.553-0.73c-0.932,0.393-1.478,1.16-1.717,2.125
		c-0.123,0.499-0.192,1.014-0.391,1.492c-0.191,0.46-0.457,0.885-0.79,1.257c-0.352,0.394-0.728,0.745-0.999,1.202
		c-0.248,0.416-0.422,0.893-0.503,1.37c-0.144,0.841-0.345,2.219,0.808,2.622c0.925,0.324,2.005-0.222,2.577-0.933
		c0.672-0.832,0.851-1.855,0.952-2.889c0.053-0.535,0.102-1.104,0.361-1.583c0.246-0.455,0.679-0.761,1.081-1.065
		C18.805,3.742,19.585,2.687,19.098,1.54z"/>
	<path fill="#442D1D" d="M24.713,30.42c-0.023-0.672-0.057-1.344-0.101-2.014c-0.02-0.303-0.042-0.607-0.066-0.913
		c-0.021-0.277-0.004-0.607-0.174-0.845c-0.271-0.378-0.888-0.373-1.301-0.378c-0.067,0-0.135,0-0.202,0.002
		c0.012-0.397,0.08-0.781,0.308-1.135c0.173-0.268-0.255-0.517-0.427-0.249c-0.283,0.438-0.363,0.924-0.375,1.424
		c-0.056,0.006-0.111,0.014-0.166,0.021c-0.252,0.039-0.564,0.068-0.771,0.232c-0.038,0.03-0.069,0.062-0.096,0.096
		c-0.265,0.237-0.214,4.023-0.119,4.282c0.016,0.046,0.044,0.081,0.076,0.11c0.151,0.23,0.596,0.214,0.911,0.238
		c0.647,0.049,1.174,0.102,1.822,0.063c0.197-0.013,0.4-0.047,0.54-0.198C24.757,30.958,24.721,30.672,24.713,30.42z"/>
	<path fill="#B15E42" d="M39.028,1.342c-0.388-0.325-0.604-0.79-1.051-1.059c-0.425-0.254-0.933-0.339-1.417-0.249
		c-0.469,0.083-0.904,0.354-1.199,0.726c-0.302,0.379-0.432,0.844-0.57,1.299c-0.306,1.006-1.146,1.704-1.471,2.697
		c-0.289,0.883,0.028,2.027,1.018,2.298c1.102,0.301,1.745-0.82,1.859-1.738c0.116-0.941,0.084-2.022,0.934-2.648
		c0.179-0.132,0.38-0.233,0.593-0.297c0.207-0.063,0.425-0.053,0.63-0.111c0.146-0.042,0.566-0.046,0.636-0.132
		C39.354,2.153,39.375,1.633,39.028,1.342z"/>
	<path fill="#F5DFCE" d="M41.441,9.775c-1.247-1.598-2.165-2.034-3.891-2.031c-1.453,0.002-2.532,0.242-3.557,1.055
		c-0.979,0.777-1.695,2.238-1.817,3.471c-0.009,0.078,0.848,0.411,1.329,0.533c0.139,0.036,0.239,0.153,0.25,0.296
		c0.094,1.216,0.561,5.618,0.821,5.726c0.259,0.108,5.671-0.811,5.834-1.248c0.751-2.016-0.188-3.901-0.113-4.544
		c0.057,0.057,0.107,0.147,0.147,0.237c0.063,0.139,0.228,0.201,0.365,0.137l1.565-0.732c0.146-0.067,0.219-0.231,0.173-0.386
		C42.38,11.725,41.954,10.431,41.441,9.775z"/>
	<path fill="#EFBC90" d="M43.359,15.837c-0.107-0.263-0.366-0.34-0.57-0.273c-0.047-0.002-0.097,0.004-0.148,0.021
		c-0.854,0.266-0.97,1.16-1.267,1.879c-0.308,0.744-0.752,1.439-1.186,2.127c-0.002,0.002-0.005,0.002-0.009,0.005
		c-0.294,0.223-1.02,1.112-1.168,1.28c-0.156,0.176-0.316,0.339-0.34,0.585c-0.041,0.423,0.33,0.687,0.726,0.641
		c0.699-0.079,1.146-0.826,1.256-1.491c0.74-0.487,1.285-1.197,1.774-1.931c0.012-0.019,0.023-0.034,0.035-0.053
		c0.079-0.1,0.157-0.201,0.232-0.304C43.214,17.628,43.72,16.715,43.359,15.837z"/>
	<path fill="#442D1D" d="M29.17,11.393c-0.071-0.485-0.142-0.971-0.213-1.457c-0.051-0.349-0.013-0.884-0.48-0.905
		c-0.327-0.015-0.786,0.077-0.787,0.475c0,0.429,0.133,0.902,0.208,1.322c0.01,0.059,0.032,0.105,0.063,0.14
		c0.03,0.139,0.08,0.271,0.15,0.403c0.03,0.056,0.069,0.094,0.112,0.119c0.032,0.063,0.072,0.121,0.123,0.169
		c0.188,0.18,0.461,0.213,0.683,0.083C29.158,11.666,29.19,11.53,29.17,11.393z"/>
	<path fill="#F5BC8E" d="M29.068,11.628c-0.022-0.046-0.051-0.084-0.083-0.12c-0.053-0.07-0.109-0.136-0.174-0.194
		c0.044-0.122,0.064-0.247,0.047-0.392c-0.026-0.202-0.154-0.358-0.354-0.411c-0.156-0.041-0.383-0.031-0.521,0.061
		c-0.196,0.132-0.187,0.397-0.216,0.605c-0.022,0.157,0.038,0.309,0.2,0.355c0.076,0.021,0.171,0.003,0.244-0.043
		c0.011,0.044,0.027,0.088,0.055,0.132c0.063,0.106,0.195,0.159,0.271,0.247c0.012,0.017,0.023,0.032,0.035,0.05
		C28.769,12.236,29.23,11.958,29.068,11.628z"/>
	<path fill="#F5BC8E" d="M37.55,7.743c-1.453,0.001-2.531,0.24-3.557,1.055c-0.239,0.189-0.463,0.422-0.667,0.679
		c0.438,0.109,0.89,0.178,1.317,0.255c0.878,0.154,1.761,0.242,2.651,0.213c0.854-0.029,1.671-0.162,2.479-0.435
		c0.354-0.12,0.71-0.274,1.034-0.475C39.846,8.037,38.972,7.741,37.55,7.743z"/>
	<path fill="#DECABB" d="M21.302,14.806c-0.041-0.235-0.399-0.136-0.358,0.098c0.296,1.688,0.481,3.392,0.557,5.104
		c0.01,0.238,0.381,0.24,0.371,0C21.794,18.263,21.604,16.526,21.302,14.806z"/>
	<path fill="#DECABB" d="M11.981,12.275c-0.32,1.09-0.608,2.189-0.865,3.297c-0.055,0.231,0.303,0.33,0.357,0.098
		c0.257-1.106,0.546-2.206,0.866-3.297C12.407,12.144,12.049,12.044,11.981,12.275z"/>
</g>
<g>
	<g>
		<path fill="#F9D500" d="M148.805,37.926h-36.401c-1.293,0-2.342-1.05-2.342-2.346V14.036c0-1.292,1.049-2.344,2.342-2.344h36.401
			c1.294,0,2.343,1.052,2.343,2.344v21.545C151.147,36.876,150.099,37.926,148.805,37.926z"/>
		<rect x="110.062" y="16.276" fill="#555555" width="41.086" height="6.321"/>
		<rect x="112.352" y="24.968" opacity="0.7" fill="#FFFFFF" width="22.125" height="2.687"/>
		<rect x="139.296" y="24.968" opacity="0.7" fill="#FFFFFF" width="9.481" height="2.687"/>
		<rect x="129.341" y="34.291" opacity="0.2" width="19.437" height="1.265"/>
	</g>
	<g opacity="0.1">
		<defs>
			<path id="SVGID_1_" opacity="0.1" d="M148.805,37.926h-36.401c-1.293,0-2.342-1.05-2.342-2.346V14.036
				c0-1.292,1.049-2.344,2.342-2.344h36.401c1.294,0,2.343,1.052,2.343,2.344v21.545C151.147,36.876,150.099,37.926,148.805,37.926z
				"/>
		</defs>
		<clipPath id="SVGID_2_">
			<use xlink:href="#SVGID_1_"  overflow="visible"/>
		</clipPath>
		<path clip-path="url(#SVGID_2_)" fill="#1D1D1B" d="M153.94,42.824h-36.4c-1.295,0-2.344-1.049-2.344-2.341v-21.55
			c0-1.292,1.049-2.341,2.344-2.341h36.4c1.293,0,2.343,1.049,2.343,2.341v21.55C156.283,41.775,155.233,42.824,153.94,42.824z"/>
	</g>
	<g>
		<path fill="#F5F5F5" d="M155.125,44h-36.4c-1.294,0-2.343-1.047-2.343-2.339V20.113c0-1.292,1.049-2.342,2.343-2.342h36.4
			c1.295,0,2.343,1.05,2.343,2.342v21.549C157.468,42.954,156.42,44,155.125,44z"/>
		<g>
			<g>
				<defs>
					<path id="SVGID_3_" d="M125.705,30.729h-5.057c-0.61,0-1.106-0.495-1.106-1.107V25.75c0-0.607,0.496-1.104,1.106-1.104h5.057
						c0.611,0,1.106,0.497,1.106,1.104v3.872C126.812,30.234,126.316,30.729,125.705,30.729z"/>
				</defs>
				<use xlink:href="#SVGID_3_"  overflow="visible" fill="#F9DE61"/>
				<clipPath id="SVGID_4_">
					<use xlink:href="#SVGID_3_"  overflow="visible"/>
				</clipPath>
				<g clip-path="url(#SVGID_4_)">
					<g>
						<rect x="119.542" y="29.862" fill="#B4AA00" width="7.27" height="0.155"/>
					</g>
					<g>
						<rect x="119.542" y="25.355" fill="#B4AA00" width="3.635" height="0.159"/>
					</g>
					<g>
						<rect x="123.177" y="25.355" fill="#B4AA00" width="3.635" height="0.159"/>
					</g>
					<g>
						<rect x="124.599" y="28.438" fill="#B4AA00" width="2.213" height="0.157"/>
					</g>
					<g>
						<rect x="119.542" y="28.438" fill="#B4AA00" width="2.214" height="0.157"/>
					</g>
					<g>
						<path fill="#B4AA00" d="M123.177,30.017c-0.827,0-1.501-0.673-1.501-1.501c0-0.298,0.087-0.582,0.25-0.829
							c-0.163-0.247-0.25-0.532-0.25-0.83c0-0.827,0.674-1.502,1.501-1.502v0.159c-0.74,0-1.343,0.604-1.343,1.343
							c0,0.282,0.088,0.553,0.252,0.783l0.035,0.047l-0.035,0.046c-0.164,0.229-0.252,0.499-0.252,0.783
							c0,0.74,0.603,1.346,1.343,1.346s1.343-0.605,1.343-1.346c0-0.284-0.087-0.555-0.253-0.783l-0.032-0.046l0.032-0.047
							c0.166-0.23,0.253-0.501,0.253-0.783v-0.081h2.292v0.16h-2.136c-0.014,0.268-0.1,0.526-0.247,0.751
							c0.163,0.247,0.25,0.531,0.25,0.829C124.679,29.344,124.005,30.017,123.177,30.017z"/>
					</g>
					<g>
						<rect x="119.542" y="26.776" fill="#B4AA00" width="2.214" height="0.16"/>
					</g>
					<g>
						<rect x="123.099" y="24.645" fill="#B4AA00" width="0.157" height="0.79"/>
					</g>
					<g>
						<rect x="123.099" y="29.938" fill="#B4AA00" width="0.157" height="0.791"/>
					</g>
				</g>
			</g>
		</g>
		<g>
			<g>
				<path fill="#BBBBBB" d="M145.619,20.942h0.702c0.32,0,0.552,0.044,0.696,0.135c0.144,0.092,0.218,0.235,0.218,0.435
					c0,0.136-0.032,0.244-0.096,0.332c-0.063,0.086-0.147,0.137-0.252,0.155v0.017c0.143,0.032,0.246,0.09,0.31,0.178
					c0.063,0.088,0.095,0.203,0.095,0.349c0,0.206-0.074,0.367-0.224,0.483c-0.148,0.113-0.351,0.171-0.605,0.171h-0.844V20.942z
					 M146.098,21.834h0.279c0.127,0,0.223-0.021,0.279-0.061c0.059-0.041,0.088-0.106,0.088-0.201c0-0.085-0.032-0.146-0.095-0.185
					c-0.063-0.037-0.164-0.056-0.3-0.056h-0.252V21.834z M146.098,22.213V22.8h0.312c0.132,0,0.229-0.022,0.292-0.073
					c0.063-0.052,0.095-0.13,0.095-0.231c0-0.188-0.134-0.282-0.402-0.282H146.098z"/>
				<path fill="#BBBBBB" d="M149.124,23.196l-0.163-0.536h-0.823l-0.164,0.536h-0.515l0.797-2.266h0.583l0.8,2.266H149.124z
					 M148.847,22.257c-0.151-0.487-0.237-0.763-0.256-0.827c-0.019-0.061-0.032-0.111-0.042-0.148
					c-0.033,0.134-0.132,0.458-0.291,0.976H148.847z"/>
				<path fill="#BBBBBB" d="M151.924,23.196h-0.607l-0.981-1.708h-0.014c0.02,0.305,0.029,0.518,0.029,0.647v1.061h-0.429v-2.254
					h0.604l0.98,1.688h0.01c-0.016-0.291-0.022-0.502-0.022-0.619v-1.068h0.43V23.196z"/>
				<path fill="#BBBBBB" d="M154.307,23.196h-0.543l-0.591-0.95l-0.202,0.146v0.805h-0.479v-2.254h0.479v1.031l0.188-0.266
					l0.611-0.766h0.53l-0.787,0.999L154.307,23.196z"/>
			</g>
			<g>
				<path fill="#BBBBBB" d="M120.543,35.314h-0.375v-1.511c0-0.181,0.004-0.324,0.014-0.431c-0.024,0.028-0.056,0.056-0.09,0.086
					c-0.037,0.032-0.156,0.132-0.359,0.296l-0.19-0.24l0.689-0.541h0.312V35.314z"/>
				<path fill="#BBBBBB" d="M122.897,35.314h-1.586v-0.286l0.604-0.605c0.179-0.181,0.296-0.313,0.354-0.389
					c0.06-0.076,0.101-0.146,0.129-0.215c0.026-0.067,0.039-0.141,0.039-0.215c0-0.106-0.032-0.189-0.095-0.25
					c-0.063-0.063-0.151-0.092-0.264-0.092c-0.09,0-0.176,0.016-0.26,0.051c-0.085,0.032-0.181,0.09-0.292,0.178l-0.203-0.247
					c0.131-0.111,0.258-0.188,0.379-0.233c0.125-0.047,0.255-0.067,0.394-0.067c0.218,0,0.393,0.056,0.523,0.169
					c0.13,0.113,0.197,0.266,0.197,0.457c0,0.106-0.02,0.208-0.057,0.301c-0.039,0.095-0.096,0.194-0.176,0.296
					c-0.078,0.1-0.208,0.236-0.391,0.407l-0.406,0.395v0.015h1.11V35.314z"/>
				<path fill="#BBBBBB" d="M124.681,33.511c0,0.148-0.043,0.273-0.13,0.372c-0.085,0.098-0.208,0.164-0.365,0.199v0.012
					c0.188,0.022,0.33,0.083,0.424,0.176c0.095,0.095,0.141,0.217,0.141,0.372c0,0.227-0.08,0.399-0.238,0.522
					c-0.159,0.122-0.386,0.183-0.68,0.183c-0.26,0-0.479-0.042-0.655-0.128v-0.335c0.099,0.049,0.204,0.088,0.314,0.116
					c0.112,0.027,0.218,0.039,0.32,0.039c0.182,0,0.316-0.035,0.407-0.102c0.09-0.067,0.134-0.172,0.134-0.313
					c0-0.125-0.05-0.217-0.148-0.275c-0.101-0.06-0.255-0.087-0.468-0.087h-0.203v-0.308h0.205c0.375,0,0.561-0.127,0.561-0.387
					c0-0.099-0.032-0.178-0.097-0.23c-0.064-0.054-0.16-0.083-0.288-0.083c-0.088,0-0.174,0.016-0.256,0.036
					c-0.084,0.028-0.18,0.077-0.292,0.148l-0.184-0.264c0.215-0.157,0.464-0.233,0.747-0.233c0.235,0,0.421,0.049,0.552,0.15
					C124.615,33.195,124.681,33.335,124.681,33.511z"/>
				<path fill="#BBBBBB" d="M126.724,34.803h-0.315v0.511h-0.366v-0.511h-1.069v-0.288l1.069-1.547h0.366v1.523h0.315V34.803z
					 M126.042,34.492v-0.587c0-0.208,0.005-0.38,0.017-0.516h-0.015c-0.029,0.071-0.076,0.157-0.141,0.259l-0.58,0.844H126.042z"/>
				<path fill="#BBBBBB" d="M129.423,33.854c0.235,0,0.423,0.06,0.561,0.187c0.137,0.125,0.205,0.294,0.205,0.511
					c0,0.248-0.078,0.444-0.233,0.585c-0.157,0.139-0.379,0.211-0.668,0.211c-0.261,0-0.467-0.042-0.616-0.128v-0.34
					c0.087,0.049,0.187,0.088,0.299,0.113c0.111,0.028,0.216,0.04,0.312,0.04c0.17,0,0.3-0.037,0.388-0.113
					c0.089-0.074,0.133-0.186,0.133-0.331c0-0.282-0.178-0.421-0.535-0.421c-0.05,0-0.111,0.005-0.186,0.015
					c-0.072,0.012-0.139,0.022-0.192,0.034l-0.169-0.1l0.09-1.144h1.218v0.335h-0.887l-0.054,0.58
					c0.037-0.007,0.084-0.014,0.138-0.023C129.279,33.858,129.344,33.854,129.423,33.854z"/>
				<path fill="#BBBBBB" d="M130.505,34.318c0-0.917,0.374-1.373,1.12-1.373c0.117,0,0.217,0.01,0.299,0.025v0.314
					c-0.082-0.022-0.176-0.034-0.283-0.034c-0.251,0-0.438,0.064-0.564,0.201c-0.127,0.134-0.194,0.349-0.204,0.645h0.019
					c0.049-0.085,0.121-0.152,0.211-0.198c0.092-0.049,0.196-0.072,0.32-0.072c0.212,0,0.378,0.064,0.496,0.194
					c0.12,0.132,0.177,0.308,0.177,0.531c0,0.243-0.067,0.438-0.205,0.583c-0.136,0.141-0.324,0.213-0.562,0.213
					c-0.168,0-0.313-0.042-0.436-0.123c-0.125-0.078-0.22-0.196-0.285-0.352C130.539,34.718,130.505,34.533,130.505,34.318z
					 M131.322,35.035c0.13,0,0.229-0.039,0.3-0.122c0.069-0.084,0.104-0.201,0.104-0.358c0-0.135-0.033-0.24-0.098-0.317
					c-0.066-0.078-0.166-0.115-0.296-0.115c-0.081,0-0.156,0.019-0.224,0.051c-0.069,0.035-0.123,0.083-0.163,0.142
					c-0.038,0.062-0.059,0.122-0.059,0.187c0,0.153,0.042,0.277,0.122,0.379C131.091,34.984,131.195,35.035,131.322,35.035z"/>
				<path fill="#BBBBBB" d="M132.637,35.314l0.924-2.006h-1.215v-0.33h1.617v0.261l-0.92,2.075H132.637z"/>
				<path fill="#BBBBBB" d="M135.033,32.945c0.222,0,0.397,0.051,0.526,0.15c0.129,0.102,0.193,0.24,0.193,0.409
					c0,0.243-0.144,0.433-0.432,0.573c0.184,0.093,0.314,0.189,0.392,0.291c0.076,0.103,0.115,0.216,0.115,0.338
					c0,0.196-0.071,0.349-0.212,0.467c-0.143,0.115-0.336,0.174-0.577,0.174c-0.254,0-0.45-0.056-0.589-0.164
					c-0.142-0.109-0.211-0.262-0.211-0.463c0-0.132,0.037-0.247,0.108-0.352c0.074-0.104,0.193-0.196,0.361-0.279
					c-0.145-0.083-0.245-0.174-0.307-0.269s-0.091-0.203-0.091-0.321c0-0.168,0.065-0.303,0.199-0.404
					C134.646,32.996,134.818,32.945,135.033,32.945z M134.599,34.707c0,0.111,0.039,0.199,0.118,0.261
					c0.077,0.061,0.183,0.091,0.316,0.091c0.138,0,0.245-0.03,0.321-0.095c0.076-0.065,0.114-0.148,0.114-0.259
					c0-0.088-0.035-0.164-0.106-0.238c-0.07-0.069-0.178-0.137-0.319-0.196l-0.047-0.021c-0.141,0.063-0.242,0.13-0.304,0.204
					C134.63,34.526,134.599,34.612,134.599,34.707z M135.03,33.234c-0.107,0-0.193,0.025-0.258,0.079
					c-0.066,0.053-0.099,0.125-0.099,0.215c0,0.056,0.013,0.106,0.036,0.15c0.024,0.041,0.058,0.083,0.102,0.117
					c0.046,0.035,0.121,0.079,0.228,0.13c0.128-0.058,0.219-0.115,0.271-0.178c0.054-0.063,0.08-0.139,0.08-0.22
					c0-0.09-0.033-0.162-0.099-0.215C135.226,33.259,135.139,33.234,135.03,33.234z"/>
				<path fill="#BBBBBB" d="M139.399,33.974c0,0.46-0.093,0.804-0.278,1.03c-0.185,0.227-0.465,0.343-0.839,0.343
					c-0.143,0-0.243-0.01-0.304-0.025v-0.317c0.093,0.028,0.189,0.042,0.285,0.042c0.254,0,0.442-0.067,0.568-0.206
					c0.124-0.136,0.193-0.352,0.205-0.645h-0.021c-0.062,0.097-0.139,0.169-0.229,0.208c-0.088,0.044-0.191,0.067-0.312,0.067
					c-0.207,0-0.37-0.067-0.488-0.194c-0.119-0.13-0.178-0.308-0.178-0.532c0-0.245,0.068-0.441,0.206-0.584
					c0.136-0.146,0.324-0.216,0.561-0.216c0.167,0,0.312,0.04,0.437,0.118c0.122,0.083,0.219,0.199,0.285,0.356
					C139.366,33.572,139.399,33.756,139.399,33.974z M138.582,33.255c-0.129,0-0.229,0.044-0.298,0.127
					c-0.069,0.085-0.104,0.203-0.104,0.358c0,0.134,0.032,0.237,0.097,0.313c0.064,0.077,0.162,0.116,0.294,0.116
					c0.126,0,0.233-0.039,0.319-0.116c0.087-0.073,0.13-0.164,0.13-0.266c0-0.092-0.019-0.183-0.055-0.264
					c-0.038-0.083-0.09-0.149-0.154-0.196C138.744,33.281,138.668,33.255,138.582,33.255z"/>
				<path fill="#BBBBBB" d="M141.274,34.145c0,0.406-0.065,0.707-0.195,0.906c-0.132,0.196-0.331,0.296-0.601,0.296
					c-0.261,0-0.457-0.103-0.593-0.308c-0.134-0.204-0.201-0.499-0.201-0.895c0-0.414,0.065-0.719,0.197-0.913
					c0.13-0.196,0.329-0.294,0.597-0.294c0.262,0,0.459,0.102,0.595,0.308C141.207,33.449,141.274,33.75,141.274,34.145z
					 M140.066,34.145c0,0.318,0.032,0.548,0.099,0.684c0.064,0.135,0.17,0.204,0.313,0.204s0.25-0.069,0.316-0.208
					c0.067-0.139,0.101-0.365,0.101-0.68s-0.033-0.541-0.101-0.682c-0.066-0.139-0.173-0.213-0.316-0.213s-0.249,0.069-0.313,0.208
					C140.099,33.597,140.066,33.826,140.066,34.145z"/>
				<path fill="#BBBBBB" d="M143.146,34.145c0,0.406-0.066,0.707-0.196,0.906c-0.131,0.196-0.332,0.296-0.601,0.296
					c-0.26,0-0.457-0.103-0.593-0.308c-0.134-0.204-0.199-0.499-0.199-0.895c0-0.414,0.064-0.719,0.193-0.913
					c0.132-0.196,0.332-0.294,0.599-0.294c0.262,0,0.46,0.102,0.595,0.308C143.079,33.449,143.146,33.75,143.146,34.145z
					 M141.937,34.145c0,0.318,0.033,0.548,0.1,0.684c0.065,0.135,0.17,0.204,0.313,0.204c0.145,0,0.25-0.069,0.316-0.208
					s0.102-0.365,0.102-0.68s-0.035-0.541-0.102-0.682c-0.066-0.139-0.172-0.213-0.316-0.213c-0.144,0-0.248,0.069-0.313,0.208
					C141.97,33.597,141.937,33.826,141.937,34.145z"/>
				<path fill="#BBBBBB" d="M145.018,34.145c0,0.406-0.066,0.707-0.196,0.906c-0.131,0.196-0.331,0.296-0.599,0.296
					c-0.262,0-0.458-0.103-0.593-0.308c-0.135-0.204-0.203-0.499-0.203-0.895c0-0.414,0.066-0.719,0.197-0.913
					c0.13-0.196,0.329-0.294,0.599-0.294c0.26,0,0.458,0.102,0.593,0.308C144.95,33.449,145.018,33.75,145.018,34.145z
					 M143.809,34.145c0,0.318,0.032,0.548,0.099,0.684c0.065,0.135,0.17,0.204,0.315,0.204c0.142,0,0.248-0.069,0.314-0.208
					c0.067-0.139,0.1-0.365,0.1-0.68s-0.032-0.541-0.1-0.682c-0.066-0.139-0.173-0.213-0.314-0.213c-0.146,0-0.25,0.069-0.315,0.208
					C143.841,33.597,143.809,33.826,143.809,34.145z"/>
				<path fill="#BBBBBB" d="M148.592,34.145c0,0.406-0.064,0.707-0.196,0.906c-0.132,0.196-0.33,0.296-0.6,0.296
					c-0.26,0-0.458-0.103-0.592-0.308c-0.136-0.204-0.202-0.499-0.202-0.895c0-0.414,0.065-0.719,0.196-0.913
					c0.132-0.196,0.329-0.294,0.598-0.294c0.261,0,0.46,0.102,0.594,0.308C148.525,33.449,148.592,33.75,148.592,34.145z
					 M147.383,34.145c0,0.318,0.032,0.548,0.1,0.684c0.064,0.135,0.171,0.204,0.313,0.204c0.145,0,0.249-0.069,0.317-0.208
					c0.066-0.139,0.099-0.365,0.099-0.68s-0.032-0.541-0.099-0.682c-0.068-0.139-0.173-0.213-0.317-0.213
					c-0.143,0-0.249,0.069-0.313,0.208C147.415,33.597,147.383,33.826,147.383,34.145z"/>
				<path fill="#BBBBBB" d="M150.463,34.145c0,0.406-0.065,0.707-0.195,0.906c-0.132,0.196-0.331,0.296-0.601,0.296
					c-0.259,0-0.458-0.103-0.592-0.308c-0.136-0.204-0.201-0.499-0.201-0.895c0-0.414,0.064-0.719,0.195-0.913
					c0.131-0.196,0.33-0.294,0.598-0.294c0.262,0,0.46,0.102,0.594,0.308C150.395,33.449,150.463,33.75,150.463,34.145z
					 M149.254,34.145c0,0.318,0.034,0.548,0.099,0.684c0.064,0.135,0.171,0.204,0.314,0.204c0.145,0,0.249-0.069,0.316-0.208
					s0.101-0.365,0.101-0.68s-0.033-0.541-0.101-0.682c-0.067-0.139-0.172-0.213-0.316-0.213c-0.144,0-0.25,0.069-0.314,0.208
					S149.254,33.826,149.254,34.145z"/>
				<path fill="#BBBBBB" d="M152.334,34.145c0,0.406-0.064,0.707-0.196,0.906c-0.131,0.196-0.331,0.296-0.599,0.296
					c-0.262,0-0.458-0.103-0.593-0.308c-0.136-0.204-0.202-0.499-0.202-0.895c0-0.414,0.066-0.719,0.196-0.913
					c0.132-0.196,0.33-0.294,0.599-0.294c0.261,0,0.459,0.102,0.593,0.308C152.267,33.449,152.334,33.75,152.334,34.145z
					 M151.125,34.145c0,0.318,0.032,0.548,0.1,0.684c0.064,0.135,0.17,0.204,0.314,0.204c0.144,0,0.25-0.069,0.314-0.208
					c0.068-0.139,0.102-0.365,0.102-0.68s-0.033-0.541-0.102-0.682c-0.064-0.139-0.171-0.213-0.314-0.213
					c-0.145,0-0.25,0.069-0.314,0.208C151.157,33.597,151.125,33.826,151.125,34.145z"/>
				<path fill="#BBBBBB" d="M154.206,34.145c0,0.406-0.066,0.707-0.196,0.906c-0.132,0.196-0.332,0.296-0.6,0.296
					c-0.26,0-0.459-0.103-0.593-0.308c-0.134-0.204-0.201-0.499-0.201-0.895c0-0.414,0.064-0.719,0.195-0.913
					c0.131-0.196,0.33-0.294,0.599-0.294c0.261,0,0.459,0.102,0.594,0.308C154.138,33.449,154.206,33.75,154.206,34.145z
					 M152.997,34.145c0,0.318,0.033,0.548,0.099,0.684c0.065,0.135,0.17,0.204,0.314,0.204s0.248-0.069,0.315-0.208
					s0.101-0.365,0.101-0.68s-0.033-0.541-0.101-0.682c-0.067-0.139-0.171-0.213-0.315-0.213s-0.249,0.069-0.314,0.208
					S152.997,33.826,152.997,34.145z"/>
			</g>
			<g>
				<path fill="#BBBBBB" d="M120.119,39.796c-0.099,0-0.175,0.034-0.228,0.11c-0.055,0.074-0.082,0.176-0.082,0.308
					c0,0.272,0.104,0.411,0.31,0.411c0.086,0,0.189-0.021,0.313-0.064v0.218c-0.101,0.044-0.213,0.064-0.338,0.064
					c-0.179,0-0.315-0.056-0.411-0.164c-0.094-0.106-0.142-0.264-0.142-0.467c0-0.127,0.023-0.238,0.069-0.335
					c0.048-0.098,0.113-0.169,0.2-0.22c0.088-0.054,0.189-0.079,0.308-0.079s0.238,0.028,0.359,0.086l-0.084,0.213
					c-0.047-0.021-0.093-0.042-0.139-0.056C120.209,39.803,120.163,39.796,120.119,39.796z"/>
				<path fill="#BBBBBB" d="M121.446,40.827l-0.091-0.293h-0.447l-0.09,0.293h-0.279l0.433-1.233h0.318l0.436,1.233H121.446z
					 M121.293,40.314c-0.082-0.264-0.128-0.414-0.139-0.451c-0.01-0.032-0.019-0.06-0.021-0.08
					c-0.019,0.071-0.072,0.247-0.159,0.531H121.293z"/>
				<path fill="#BBBBBB" d="M122.141,40.353v0.474h-0.262v-1.229h0.359c0.166,0,0.289,0.03,0.37,0.091
					c0.08,0.062,0.12,0.152,0.12,0.277c0,0.073-0.02,0.139-0.06,0.191c-0.04,0.058-0.097,0.102-0.169,0.134
					c0.185,0.277,0.305,0.453,0.361,0.536h-0.289l-0.293-0.474H122.141z M122.141,40.143h0.083c0.083,0,0.145-0.014,0.183-0.042
					c0.04-0.027,0.059-0.071,0.059-0.129c0-0.061-0.019-0.1-0.06-0.125c-0.039-0.023-0.102-0.037-0.187-0.037h-0.078V40.143z"/>
				<path fill="#BBBBBB" d="M124.034,40.199c0,0.203-0.058,0.357-0.173,0.464c-0.114,0.109-0.281,0.164-0.497,0.164h-0.348v-1.229
					h0.385c0.2,0,0.355,0.054,0.467,0.157C123.979,39.863,124.034,40.011,124.034,40.199z M123.765,40.206
					c0-0.264-0.117-0.396-0.351-0.396h-0.138v0.8h0.112C123.639,40.61,123.765,40.476,123.765,40.206z"/>
				<path fill="#BBBBBB" d="M125.297,40.827h-0.262v-0.531h-0.486v0.531h-0.26v-1.229h0.26v0.481h0.486v-0.481h0.262V40.827z"/>
				<path fill="#BBBBBB" d="M126.721,40.209c0,0.204-0.051,0.358-0.151,0.47c-0.102,0.108-0.246,0.164-0.434,0.164
					c-0.188,0-0.333-0.056-0.434-0.164c-0.101-0.111-0.151-0.269-0.151-0.472s0.051-0.36,0.151-0.469
					c0.102-0.106,0.246-0.162,0.435-0.162s0.333,0.056,0.433,0.164C126.67,39.847,126.721,40.006,126.721,40.209z M125.823,40.209
					c0,0.137,0.027,0.241,0.078,0.311c0.053,0.069,0.13,0.104,0.234,0.104c0.208,0,0.312-0.139,0.312-0.414
					c0-0.277-0.104-0.416-0.311-0.416c-0.103,0-0.182,0.035-0.233,0.106C125.851,39.969,125.823,40.071,125.823,40.209z"/>
				<path fill="#BBBBBB" d="M126.975,40.827v-1.229h0.262v1.013h0.496v0.217H126.975z"/>
				<path fill="#BBBBBB" d="M128.965,40.199c0,0.203-0.057,0.357-0.172,0.464c-0.115,0.109-0.281,0.164-0.498,0.164h-0.349v-1.229
					h0.385c0.2,0,0.357,0.054,0.468,0.157C128.91,39.863,128.965,40.011,128.965,40.199z M128.694,40.206
					c0-0.264-0.115-0.396-0.349-0.396h-0.138v0.8h0.11C128.569,40.61,128.694,40.476,128.694,40.206z"/>
				<path fill="#BBBBBB" d="M129.928,40.827h-0.707v-1.229h0.707v0.213h-0.447v0.271h0.416v0.213h-0.416v0.316h0.447V40.827z"/>
				<path fill="#BBBBBB" d="M130.444,40.353v0.474h-0.262v-1.229h0.358c0.168,0,0.29,0.03,0.37,0.091
					c0.081,0.062,0.12,0.152,0.12,0.277c0,0.073-0.02,0.139-0.059,0.191c-0.041,0.058-0.097,0.102-0.169,0.134
					c0.184,0.277,0.305,0.453,0.36,0.536h-0.289l-0.292-0.474H130.444z M130.444,40.143h0.083c0.082,0,0.144-0.014,0.182-0.042
					c0.04-0.027,0.059-0.071,0.059-0.129c0-0.061-0.019-0.1-0.059-0.125c-0.041-0.023-0.102-0.037-0.187-0.037h-0.078V40.143z"/>
			</g>
			<g>
				<path fill="#BBBBBB" d="M142.507,37.328c0,0.227-0.038,0.396-0.111,0.506c-0.075,0.109-0.189,0.164-0.346,0.164
					c-0.15,0-0.265-0.058-0.341-0.168c-0.076-0.113-0.114-0.282-0.114-0.502c0-0.229,0.036-0.402,0.111-0.509
					c0.075-0.108,0.189-0.164,0.344-0.164c0.15,0,0.265,0.058,0.341,0.169C142.468,36.939,142.507,37.106,142.507,37.328z
					 M141.869,37.328c0,0.159,0.014,0.272,0.041,0.342c0.027,0.072,0.073,0.106,0.14,0.106c0.063,0,0.11-0.034,0.14-0.106
					c0.027-0.071,0.042-0.185,0.042-0.342c0-0.162-0.015-0.275-0.042-0.345c-0.03-0.071-0.076-0.106-0.14-0.106
					c-0.064,0-0.111,0.035-0.14,0.106C141.883,37.052,141.869,37.166,141.869,37.328z"/>
				<path fill="#BBBBBB" d="M143.55,37.328c0,0.227-0.037,0.396-0.111,0.506c-0.075,0.109-0.19,0.164-0.346,0.164
					c-0.149,0-0.263-0.058-0.34-0.168c-0.077-0.113-0.115-0.282-0.115-0.502c0-0.229,0.038-0.402,0.112-0.509
					c0.074-0.108,0.188-0.164,0.343-0.164c0.15,0,0.264,0.058,0.342,0.169C143.512,36.939,143.55,37.106,143.55,37.328z
					 M142.912,37.328c0,0.159,0.014,0.272,0.041,0.342c0.028,0.072,0.074,0.106,0.14,0.106c0.064,0,0.111-0.034,0.141-0.106
					c0.027-0.071,0.042-0.185,0.042-0.342c0-0.162-0.015-0.275-0.044-0.345c-0.028-0.071-0.074-0.106-0.139-0.106
					s-0.111,0.035-0.14,0.106C142.926,37.052,142.912,37.166,142.912,37.328z"/>
				<path fill="#BBBBBB" d="M144.362,36.676l-0.488,1.303h-0.247l0.488-1.303H144.362z"/>
				<path fill="#BBBBBB" d="M145.349,37.328c0,0.227-0.038,0.396-0.111,0.506c-0.075,0.109-0.191,0.164-0.345,0.164
					c-0.151,0-0.265-0.058-0.341-0.168c-0.077-0.113-0.115-0.282-0.115-0.502c0-0.229,0.036-0.402,0.111-0.509
					c0.074-0.108,0.188-0.164,0.345-0.164c0.149,0,0.263,0.058,0.34,0.169C145.31,36.939,145.349,37.106,145.349,37.328z
					 M144.711,37.328c0,0.159,0.013,0.272,0.041,0.342c0.028,0.072,0.075,0.106,0.141,0.106c0.063,0,0.109-0.034,0.138-0.106
					c0.028-0.071,0.044-0.185,0.044-0.342c0-0.162-0.016-0.275-0.044-0.345c-0.029-0.071-0.074-0.106-0.138-0.106
					c-0.065,0-0.112,0.035-0.141,0.106C144.724,37.052,144.711,37.166,144.711,37.328z"/>
				<path fill="#BBBBBB" d="M146.392,37.328c0,0.227-0.038,0.396-0.112,0.506c-0.074,0.109-0.189,0.164-0.345,0.164
					c-0.149,0-0.265-0.058-0.341-0.168c-0.076-0.113-0.114-0.282-0.114-0.502c0-0.229,0.037-0.402,0.111-0.509
					c0.074-0.108,0.189-0.164,0.344-0.164c0.152,0,0.264,0.058,0.343,0.169C146.354,36.939,146.392,37.106,146.392,37.328z
					 M145.754,37.328c0,0.159,0.014,0.272,0.041,0.342c0.028,0.072,0.074,0.106,0.14,0.106c0.064,0,0.111-0.034,0.139-0.106
					c0.029-0.071,0.043-0.185,0.043-0.342c0-0.162-0.014-0.275-0.043-0.345c-0.028-0.071-0.074-0.106-0.139-0.106
					s-0.111,0.035-0.14,0.106C145.768,37.052,145.754,37.166,145.754,37.328z"/>
			</g>
			<g>
				<path fill="#BBBBBB" d="M139.33,36.646h0.11l-0.174,0.506h-0.116l-0.17-0.506h0.105l0.097,0.3
					c0.006,0.019,0.01,0.04,0.016,0.063c0.006,0.025,0.01,0.04,0.011,0.049c0.002-0.021,0.012-0.058,0.025-0.111L139.33,36.646z"/>
				<path fill="#BBBBBB" d="M139.813,37.152l-0.037-0.12h-0.184l-0.037,0.12h-0.114l0.177-0.509h0.132l0.178,0.509H139.813z
					 M139.75,36.942c-0.034-0.109-0.054-0.171-0.058-0.188c-0.004-0.012-0.008-0.023-0.01-0.032c-0.007,0.03-0.027,0.102-0.064,0.22
					H139.75z"/>
				<path fill="#BBBBBB" d="M139.991,37.152v-0.506h0.107v0.418h0.205v0.088H139.991z"/>
				<path fill="#BBBBBB" d="M140.393,37.152v-0.506h0.106v0.506H140.393z"/>
				<path fill="#BBBBBB" d="M141.044,36.893c0,0.083-0.022,0.147-0.07,0.191c-0.049,0.044-0.117,0.067-0.204,0.067h-0.145v-0.506
					h0.158c0.083,0,0.146,0.022,0.191,0.066C141.022,36.754,141.044,36.817,141.044,36.893z M140.934,36.895
					c0-0.106-0.049-0.159-0.144-0.159h-0.057v0.328h0.045C140.881,37.064,140.934,37.006,140.934,36.895z"/>
				<path fill="#BBBBBB" d="M139.237,38.002h-0.107v-0.416h-0.137v-0.09h0.381v0.09h-0.137V38.002z"/>
				<path fill="#BBBBBB" d="M139.866,38.002h-0.106v-0.22h-0.201v0.22h-0.105v-0.506h0.105v0.196h0.201v-0.196h0.106V38.002z"/>
				<path fill="#BBBBBB" d="M140.102,37.808v0.194h-0.108v-0.506h0.147c0.07,0,0.12,0.012,0.153,0.037
					c0.032,0.025,0.049,0.063,0.049,0.113c0,0.029-0.008,0.058-0.024,0.078c-0.017,0.025-0.039,0.042-0.069,0.056
					c0.076,0.113,0.126,0.188,0.149,0.222h-0.119l-0.122-0.194H140.102z M140.102,37.72h0.034c0.035,0,0.059-0.004,0.075-0.016
					s0.024-0.03,0.024-0.056c0-0.023-0.008-0.042-0.024-0.051c-0.018-0.01-0.043-0.017-0.077-0.017h-0.032V37.72z"/>
				<path fill="#BBBBBB" d="M140.873,37.497v0.325c0,0.04-0.008,0.069-0.025,0.1c-0.018,0.028-0.04,0.049-0.073,0.065
					c-0.029,0.016-0.067,0.021-0.111,0.021c-0.065,0-0.115-0.017-0.15-0.051c-0.037-0.03-0.056-0.079-0.056-0.135v-0.325h0.107
					v0.308c0,0.039,0.008,0.069,0.024,0.087c0.015,0.017,0.042,0.026,0.077,0.026s0.061-0.01,0.076-0.026
					c0.016-0.018,0.023-0.048,0.023-0.087v-0.308H140.873z"/>
			</g>
		</g>
		<g>
			<circle fill="#009CDE" cx="152.648" cy="39.184" r="1.659"/>
			<circle fill="#DE5D66" cx="150.506" cy="39.184" r="1.659"/>
		</g>
	</g>
</g>
</svg>
