<?xml version="1.0" encoding="utf-8"?>
<!-- Generator: Adobe Illustrator 16.0.0, SVG Export Plug-In . SVG Version: 6.00 Build 0)  -->
<!DOCTYPE svg PUBLIC "-//W3C//DTD SVG 1.1//EN" "http://www.w3.org/Graphics/SVG/1.1/DTD/svg11.dtd">
<svg version="1.1" id="レイヤー_1" xmlns="http://www.w3.org/2000/svg" xmlns:xlink="http://www.w3.org/1999/xlink" x="0px"
	 y="0px" width="68.982px" height="66.984px" viewBox="0 0 68.982 66.984" enable-background="new 0 0 68.982 66.984"
	 xml:space="preserve">
<g>
	<g>
		<path fill-rule="evenodd" clip-rule="evenodd" fill="#0228CC" d="M68.982,51.633l-7.502,0.149
			c6.652-10.229,7.467-23.739,0.952-35.033C53.194,0.733,32.733-4.755,16.733,4.491C0.732,13.739-4.75,34.22,4.488,50.235
			c9.162,15.885,29.361,21.405,45.303,12.474l0.006,0.011L68.982,51.633z"/>
	</g>
</g>
<g>
	<path fill="#FFCC5C" d="M34.187,41.44l-9.833,3.47l1.843,5.223l-3.016,1.064l-1.843-5.223l-9.563,3.375l-0.979-2.771l9.563-3.375
		l-0.986-2.795l-7.135,2.518L8.328,31.845l17.434-6.152l3.911,11.082l-7.282,2.57l0.986,2.795l9.832-3.47L34.187,41.44z
		 M12.737,35.197l11.548-4.076l-0.631-1.791l-11.549,4.076L12.737,35.197z M14.199,39.34l11.549-4.076l-0.623-1.766l-11.549,4.076
		L14.199,39.34z"/>
	<path fill="#FFCC5C" d="M35.949,27.942c-1.176-0.908-3.488-1.912-5.316-2.48l1.535-2.527c1.835,0.51,4.16,1.398,5.402,2.257
		L35.949,27.942z M41.525,38.354c1.586,1.288,3.658,1.302,6.242,0.5c2.912-0.891,8.402-2.91,11.578-4.307
		c-0.078,0.8-0.016,2.377,0.131,3.263c-2.891,1.185-7.801,2.974-10.764,3.88c-3.059,0.942-5.311,0.965-7.58-0.385
		c-0.74,1.338-1.482,2.674-2.443,4.171l-2.494-2.537c0.813-0.978,1.754-2.22,2.537-3.434l-1.826-5.174l-2.818,0.995l-0.943-2.673
		l5.664-1.999L41.525,38.354z M44.171,23.193l-6.033,2.129l-0.855-2.428l6.031-2.129l-0.744-2.108l2.844-1.004l0.744,2.108
		l6.4-2.259l0.855,2.428l-6.398,2.259l0.467,1.324l5.566-1.964l2.318,6.57l-4.561,1.609c2.008,1.001,4.773,1.651,7.07,1.75
		c-0.414,0.781-0.967,2.106-1.156,2.973c-1.922-0.286-4.164-1.095-6.141-2.162l1.523,4.315l-2.844,1.004l-1.584-4.486
		c-0.752,2.167-1.965,4.277-3.41,5.808c-0.658-0.539-1.822-1.26-2.617-1.558c1.717-1.543,3.256-3.741,4.01-5.827l-3.973,1.402
		l-2.318-6.57l5.271-1.86L44.171,23.193z M43.603,29.79l2.574-0.908l-0.752-2.133l-2.574,0.908L43.603,29.79z M48.269,25.745
		l0.754,2.133l2.721-0.961l-0.752-2.133L48.269,25.745z"/>
</g>
</svg>
